<svg width="714" height="703" fill="none" xmlns="http://www.w3.org/2000/svg"><g opacity=".85" clip-path="url(#clip0_175_1457)"><path d="M194.148 554.091l.22 42.231-.22-.22c1.1.44 2.201.66 3.301.44 1.101-.22 1.981-1.099 2.641-1.979v.22l-.22-41.792h1.321l-.22 41.792v.22c-.661 1.099-1.761 1.979-3.082 2.199-1.32.22-2.641 0-3.741-.44h-.22v-.22l.22-42.451zM502.274 512.3l-.22 40.032-.221-.22c.881.44 2.201.659 3.302.439 1.1-.219 1.981-.879 2.641-1.979v.22l.22-41.791.22 41.791c-.66 1.1-1.761 1.979-3.081 2.199-1.321.22-2.641 0-3.742-.44h-.22v-.219l-.22-40.032h1.321z" fill="#D38E1F" fill-opacity=".4"/><path d="M185.564 518.459l8.804 35.412h-.66l-.44-37.392h1.32l-.44 37.392c0 .22-.22.44-.22.44-.22 0-.22-.22-.22-.22l-8.144-35.632z" fill="#D38E1F" fill-opacity=".4"/><path d="M496.771 512.96l11.005-1.54v-21.115" stroke="#D38E1F" stroke-opacity=".4" stroke-width=".606" stroke-miterlimit="10"/><path d="M194.148 516.699l.44 37.392-.44-.44c33.013-4.619 66.027-9.238 99.04-13.637 33.014-4.399 66.027-8.798 99.041-12.757-33.014 4.839-65.807 9.458-98.821 14.077a7629.867 7629.867 0 01-99.04 13.197h-.44v-.44l.22-37.392zm229.994-73.025l-96.179-10.997-96.18-11.218h-70.648l.66-.66 9.023 77.644-.66-.44 120.829-11.878 60.305-5.938 60.305-5.719-60.305 6.379-60.305 6.158-120.609 12.318c-.22 0-.66-.22-.66-.44l-9.024-77.644c0-.44.22-.66.441-.66h70.648l95.959 11.658 96.4 11.437zm94.638 20.016l9.904-1.32 9.904-1.099 9.904-1.1 9.904-1.1v1.32c-6.162-.88-12.325-1.54-18.267-2.42-6.163-.88-12.325-1.759-18.267-2.639 6.162.44 12.325 1.1 18.487 1.759l18.488 1.98c.44 0 .66.44.66.66 0 .22-.22.66-.66.66l-9.904.88-9.904.879-9.904.88-10.345.66z" fill="#D38E1F" fill-opacity=".4"/><path d="M161.355 420.799v7.478c1.761 15.397 3.301 30.574 5.062 45.971l4.622 45.97h-1.321v-21.775c-1.54-12.758-2.861-25.735-4.181-38.712-1.321-12.538-2.642-25.735-4.182-38.932zm0 0c1.54 12.757 3.081 25.515 4.842 38.492 1.761 12.977 3.301 26.174 4.842 39.152v21.775h-1.321l-4.402-45.97c-1.32-15.397-2.861-30.794-4.181-45.971l.22-7.478z" fill="#D38E1F" fill-opacity=".4"/><path d="M411.816 474.468l-60.304 6.379-60.305 6.158-120.829 12.318.66-.66v21.775l-.66-.66 117.308-14.297 58.764-7.038 58.544-7.039-58.544 7.699-58.764 7.258-117.088 14.737h-.88v-23.095h.66l120.609-11.878 60.525-5.938 60.304-5.719zm101.462 2.859l45.339-5.279-.22.44v-12.757l.44.22-40.056 3.739 39.836-4.179h.44v13.197l-.22.22-45.559 5.719v-1.32z" fill="#D38E1F" fill-opacity=".4"/><path d="M391.129 622.057l46.218-18.476 46.219-18.256-.44.44c4.182-4.62 6.823-10.118 8.584-16.057 1.76-5.939 2.641-12.098 3.301-18.476 1.1-12.538 1.32-25.075.22-37.612v-.44l.22-.44c3.301-6.599 6.603-13.197 9.684-20.016 3.081-6.819 6.162-13.417 8.804-20.456 5.722-13.637 10.784-27.714 15.186-41.791l.22-.44.44-.22c2.421-.66 4.182-3.739 3.301-6.159l.661.44-50.841-.22h-25.53c-4.182 0-8.584-.22-12.766-.22-2.201 0-4.181.22-6.162.44-1.101.22-1.981.22-3.081.44-1.101.22-1.981.44-2.862.88-1.54.66-1.54 3.079-2.421 5.059-.66 1.98-1.54 3.959-2.421 5.939l-4.621 11.877-9.244 23.755-9.244 23.755c-3.081 7.919-6.383 15.837-9.024 23.755-2.641 7.919-4.181 16.057-4.401 24.415-.441 8.358 0 16.717 0 25.295 0 8.578-.661 17.156-3.082 25.735-2.421 8.358-6.382 16.496-12.985 22.655a34.265 34.265 0 01-11.445 7.038c-4.181 1.54-8.803 2.2-13.205 2.2-8.804-.22-17.387-3.079-24.87-7.698-7.483-4.619-13.646-10.998-18.928-17.597-5.282-6.818-9.904-14.077-14.306-21.115l1.981.439c-1.541.66-2.861 1.1-4.402 1.1-1.54 0-3.081-.22-4.402-.66-1.54-.659-2.861-1.979-3.301-3.739-.44-1.759-.22-3.299.44-4.839 1.321-3.079 4.402-4.399 7.043-5.279 2.641-.879 5.282-1.099 7.483-1.759l44.678-8.579 44.899-8.358v.44l-44.458 9.678-44.679 9.458h.22c-2.641.88-5.282 1.1-7.483 1.98-2.2.66-4.401 1.979-5.062 3.739-.44.88-.44 1.98-.22 2.859.22.88.881 1.32 1.761 1.76 1.761.66 4.402.66 6.162-.22l1.321-.66.66 1.1c4.622 7.038 9.244 14.297 14.306 20.676 5.282 6.378 11.225 12.317 18.268 16.716 7.042 4.179 14.966 7.039 23.109 7.039 3.962 0 8.143-.66 11.885-1.98 3.741-1.32 7.263-3.519 10.124-6.159 5.942-5.499 9.684-12.977 11.885-20.895 2.421-7.919 2.861-16.277 3.081-24.635.22-8.358-.22-16.937.22-25.515s1.981-17.156 4.842-25.294c2.861-8.139 6.163-15.837 9.464-23.756l9.684-23.535 9.684-23.535c1.54-3.959 3.081-7.918 4.842-11.657.88-1.98 1.761-3.959 2.421-5.719.44-.88.66-1.98 1.1-3.079.22-.44.44-1.1.661-1.54.44-.44.88-1.1 1.54-1.32 1.101-.44 2.201-.66 3.302-.88 1.1-.22 2.2-.44 3.301-.44 2.201-.22 4.182-.219 6.382-.219 4.182 0 8.584.219 12.766.439l25.31.22 50.841-.22h.44l.22.44c1.1 3.3-.88 7.259-4.182 8.359l.661-.66c-4.182 14.297-9.024 28.374-14.306 42.231-2.641 7.038-5.502 13.857-8.584 20.676-3.081 6.818-6.162 13.417-9.684 20.235l.22-.88c.441 6.379.881 12.758.661 19.137 0 6.378-.441 12.757-1.101 19.135-.66 6.379-1.54 12.758-3.521 18.917-1.981 6.158-4.842 12.097-9.244 17.156l-.22.22-.22.22-46.659 17.376-46.659 17.157-.66-1.32zM253.792 423.439l1.981-16.277v-.44h.44l18.488.22h.22v.22c-.881 6.159-1.541 12.317-1.761 18.476.22-6.159.66-12.537 1.32-18.696l.221.22-18.488.22.44-.44-1.54 16.497h-1.321zm24.65 3.079c.22-3.299.441-6.599.881-9.898.22-1.54.44-3.299.88-4.839.44-1.54.66-3.299 1.321-4.839l.22-.22h.22l22.229-.66h.44l-.22.44c-1.321 3.519-2.201 7.478-2.641 11.218-.44 3.739-.44 7.698-.22 11.657-.22-3.959-.22-7.698 0-11.657.44-3.959 1.1-7.699 2.421-11.438l.22.22-22.229 1.1.44-.22c-.66 1.32-.88 3.079-1.321 4.619-.22 1.54-.44 3.299-.66 4.839a71.535 71.535 0 00-.66 9.678h-1.321zm31.694 3.739c.22-4.179.44-8.358 1.1-12.317.22-1.98.66-4.179 1.101-6.159.66-1.98 1.1-4.179 2.641-5.719l.22-.22h.22l29.052-.88h.22v.22c-1.101 4.619-1.761 9.458-2.641 14.297-.661 4.839-1.101 9.458-1.101 14.297 0-4.839.441-9.678.881-14.297.66-4.839 1.32-9.458 2.421-14.297l.22.22-28.832 1.32.22-.22c-1.32 1.32-1.761 3.519-2.421 5.279-.44 1.98-.88 3.959-1.1 5.939-.441 3.959-.661 8.138-.881 12.317l-1.32.22zm46.438 5.499c.22-5.279.44-10.338 1.101-15.617.22-2.639.66-5.279 1.32-7.698.66-2.64 1.321-5.059 2.641-7.479l.22-.22h.22l37.636-.44h.44l-.22.22c-1.101 2.86-1.761 5.719-2.421 8.579-.66 2.859-1.101 5.938-1.541 9.018-.44 3.079-.66 5.939-.66 9.018-.22 3.079-.22 6.159-.22 9.018v-9.018c.22-3.079.22-6.159.66-9.018.44-3.08.881-5.939 1.321-9.018.66-3.08 1.32-5.939 2.421-8.799l.22.22-37.636 1.1.441-.22c-1.321 2.2-1.981 4.619-2.421 7.259-.441 2.419-.881 5.059-1.321 7.698-.66 5.059-.88 10.338-.88 15.397h-1.321z" fill="#D38E1F" fill-opacity=".4"/><path d="M420.4 443.234c.22-6.598.881-13.197 1.761-19.576.881-6.598 2.201-12.977 4.402-19.136v-.22h.22l64.486-1.759h.661l-.22.66c-1.981 6.598-3.522 13.417-4.622 20.235l-1.321-.219c1.321-6.819 2.861-13.638 4.842-20.456l.44.66-64.486 1.099.22-.22c-2.201 6.159-3.521 12.538-4.622 19.136-.88 6.599-1.541 13.198-1.761 19.796z" fill="#D38E1F" fill-opacity=".4"/><path d="M530.445 476.008c.22 4.399-.88 9.018-2.641 13.197-.88 2.199-1.981 4.619-3.741 6.378-3.962 4.18-10.345 4.839-16.067 5.279" stroke="#D38E1F" stroke-opacity=".4" stroke-width=".606" stroke-miterlimit="10"/><path d="M553.994 527.257l-.66 40.691-.66-40.691h1.32zm6.824 0l-.661 34.972-.66-34.972h1.321zM275.802 463.03l44.018-3.959c7.263-.66 14.746-1.32 22.009-1.98 7.263-.439 14.746-.879 22.009-1.099v.22c-7.263.879-14.746 1.539-22.009 2.419-7.263.66-14.746 1.1-22.009 1.54l-44.018 2.859z" fill="#D38E1F" fill-opacity=".4"/><path d="M357.234 456.652l22.229 6.818c3.742 1.1 7.483 2.2 11.005 3.519 3.741 1.32 7.263 2.64 10.784 4.179v.22c-3.741-.879-7.483-1.979-11.224-3.079-3.742-1.1-7.263-2.419-11.005-3.739l-21.789-7.918zm-87.155 9.897c5.282 2.42 10.564 5.059 15.626 7.479 2.642 1.32 5.283 2.419 7.704 3.739 2.421 1.32 5.062 2.86 7.483 4.399v.22c-2.862-.88-5.283-2.199-7.924-3.519a133.015 133.015 0 01-7.703-4.179c-5.062-2.42-10.124-5.059-15.186-8.139z" fill="#D38E1F" fill-opacity=".4"/><path d="M294.729 483.046l51.722-5.719c8.583-.88 17.167-1.979 25.75-2.859 8.584-.66 17.167-1.54 25.971-1.98v.22c-8.584 1.32-17.167 2.2-25.751 3.299-8.583.88-17.167 1.76-25.75 2.42l-51.942 4.619z" fill="#D38E1F" fill-opacity=".4"/><path d="M319.819 459.511l18.928 8.138c3.081 1.32 6.383 2.64 9.464 4.179 3.081 1.54 6.162 3.08 9.024 4.839v.22c-3.302-1.099-6.383-2.419-9.684-3.739-3.082-1.32-6.163-2.859-9.244-4.399l-18.488-9.238zm-214.588-48.39l.221-75.444v-.44h.44l46.219.22h.22v.22l-.22 96.34-.441-96.34.441.22-46.219.22.44-.44.22 75.444h-1.321z" fill="#D38E1F" fill-opacity=".4"/><path d="M110.514 355.473l37.855-.44v.88l-37.855-.44zm41.377-19.796l4.401-15.617.441-1.32v1.32l.44 67.746c0 11.218.22 22.655 0 33.873-.22 11.217-.22 22.655-.44 33.873h-.221c-.44-11.218-.44-22.656-.44-33.873v-33.873l.44-67.746h.441l-5.062 15.617z" fill="#D38E1F" fill-opacity=".4"/><path d="M156.513 320.06c10.124.22 20.468.44 30.592.88 10.124.44 20.469.88 30.593 1.54 10.124.659 20.468 1.319 30.592 1.759l30.593 1.1h.44v.44c.22 13.637.22 27.494.22 41.131v-.22l1.32 5.279v.22l-.22.22-1.54 1.76.22-.44c0 8.138-.22 16.496-.22 24.635 0 8.138-.22 16.496-.441 24.635h-.22c-.22-8.139-.22-16.497-.44-24.635 0-8.139-.22-16.497-.22-24.635v-.22l.22-.22 1.321-1.76-.22.66-1.541-5.279c0-13.637 0-27.494.22-41.131l.44.44-30.592-1.76c-10.124-.44-20.469-.88-30.593-1.1-10.124-.22-20.468-.879-30.592-1.319-9.464-.66-19.808-1.32-29.932-1.98z" fill="#D38E1F" fill-opacity=".4"/><path d="M164.656 363.611l51.942.88h.22v36.512h-52.822v-.44l.66-36.952zm0 0l.441 36.952-.441-.44h51.942l-.441.44v-35.852l.22.22-51.721-1.32z" fill="#D38E1F" fill-opacity=".4"/><path d="M167.077 366.25c7.703 0 15.407.22 23.33.22 3.961 0 7.703 0 11.665.22l11.664.44h.22v.22l-.22 15.397v15.617h-.22c-15.626.22-31.032.22-46.659.22h-.44v-.44l.66-31.894zm0 0l.44 31.894-.44-.44c15.627 0 31.033 0 46.659.22l-.22.22v-15.397l-.22-15.397.22.22-11.665-.22c-3.741 0-7.703-.22-11.664-.22-7.483-.44-15.187-.66-23.11-.88zm57.003-43.111l-.66 97.66-.66-97.66h1.32zm29.492 1.32l-.66 98.76-.881-98.76h1.541zm2.421 0l-.66 88.862-.66-88.862h1.32zm-78.132 96.34c-.22-2.419-.44-4.619-.66-7.039l-.66-3.299c-.22-1.1-.66-2.199-1.101-3.079v-1.76h.441l26.19.22h.22c.881 2.42 1.541 4.619 1.761 7.039.44 2.419.44 4.839.22 7.258.44-4.839-.66-9.898-2.421-14.297h.22l-26.19.22.44-.44v.88-.22c.66 1.1 1.1 2.2 1.32 3.519.22 1.1.441 2.42.661 3.52.44 2.419.66 4.619.88 7.038l-1.321.44z" fill="#D38E1F" fill-opacity=".4"/><path d="M105.892 335.677l-11.445-20.896" stroke="#D38E1F" stroke-opacity=".4" stroke-width=".606" stroke-miterlimit="10"/><path d="M94.668 412.221l.22-43.331.22.44-8.804-5.499.44-.22-.44 49.93-.22-49.93v-.66l.44.44 9.024 5.279h.22v.22l.22 43.331h-1.32z" fill="#D38E1F" fill-opacity=".4"/><path d="M92.026 366.91l2.201-3.299-.44-59.388v.22l-7.923-19.576 1.1-.219c0 13.197.22 26.394 0 39.371l-.22 19.796c0 6.599-.22 13.197-.44 19.796-.22-6.599-.22-13.197-.44-19.796l-.22-19.796v-42.231l1.1 2.64 7.703 19.575-.44 59.388-1.98 3.519z" fill="#D38E1F" fill-opacity=".4"/><path d="M86.305 284.648h-5.283l.44 64.446c.22 21.556.22 42.891-.44 64.447h-.22c-.66-21.556-.66-42.891-.44-64.447l.44-64.446v-.22l5.502.22z" fill="#D38E1F" fill-opacity=".4"/><path d="M81.022 284.647c-1.98-3.519-4.181-7.038-6.162-10.777-1.1-1.76-2.201-3.52-3.082-5.499-.88-1.98-1.76-3.739-2.42-5.719h.22c1.32 1.54 2.42 3.519 3.3 5.279 1.101 1.76 1.762 3.739 2.862 5.499l5.282 11.217z" fill="#D38E1F" fill-opacity=".4"/><path d="M69.357 413.541v-65.767.22l-2.64-2.859h-.221l.22-.22 2.641-4.619-.22-97.88v.22l-23.33-56.308.44.22h-9.243l.44-.44.22 115.256-.22 57.628-.44 57.628-.44-57.628-.22-57.628V185.448h10.124l.22.44 23.33 56.528-.22 97.88v.22l-2.642 4.619-.22-.22 2.641 2.639.22.22-.22 65.767h-.22z" fill="#D38E1F" fill-opacity=".4"/><path d="M46.248 186.108l.44 115.036c.22 19.136.22 38.272.22 57.628-.22 19.136-.22 38.272-.66 57.628h-.22c-.44-19.136-.44-38.272-.66-57.628 0-19.136 0-38.272.22-57.628l.66-115.036zm-9.244 0l-14.746-29.914c-2.42-5.059-5.062-9.898-7.263-14.956-2.2-5.059-4.622-10.118-6.602-15.397h.22a472.69 472.69 0 017.703 14.737c2.42 5.059 4.842 10.118 7.043 15.176l13.645 30.354zM-75.902-62c7.703 14.077 15.186 28.154 22.669 42.231l22.449 42.231 22.009 42.451c7.263 14.078 14.526 28.374 21.789 42.672C5.31 93.507-2.172 79.43-9.656 65.353l-22.228-42.23-22.01-42.452A3928.211 3928.211 0 01-75.901-62z" fill="#D38E1F" fill-opacity=".4"/><path d="M8.832 97.467l-.66 321.353-.66-321.353h1.32z" fill="#D38E1F" fill-opacity=".4"/><path d="M-128.724 207.224h15.847l121.49 93.48-.66.66-5.503-6.159-.22-.22.22-.22 5.282-12.097.22.66-60.745-57.408-60.304-57.628h.22-15.847v-.22l15.847-.22v.22l60.965 56.968 60.524 57.408.22.22-.22.44-5.282 12.097v-.66l5.282 6.159-.66.88-121.049-94.14h.22-15.847v-.22zM8.832 432.677l-.22 92.82v.22h-.22L-169 693.322 7.952 525.277l-.22.22-.22-92.82h1.32z" fill="#D38E1F" fill-opacity=".4"/><path d="M8.172 519.558l17.827-16.056" stroke="#D38E1F" stroke-opacity=".4" stroke-width=".606" stroke-miterlimit="10"/><path d="M279.103 327.099v-2.42c5.722-4.179 11.664-8.138 17.607-11.877 5.942-3.96 11.885-7.699 17.827-11.438h.44l5.943.88h.22v.22c-.22 8.578-.22 17.376 0 25.954.22 8.579.22 17.377.22 25.955v25.955c-.22 8.578-.22 17.376-.44 25.954h-.221c-.22-8.578-.44-17.376-.44-25.954-.22-8.579-.22-17.377 0-25.955 0-8.578.22-17.376.22-25.955.22-8.578.22-17.376 0-25.954l.22.22-5.942-.66h.22c-5.942 3.959-11.885 7.918-17.827 11.657-5.943 3.74-12.105 7.699-18.047 11.218v-.22 2.42z" fill="#D38E1F" fill-opacity=".4"/><path d="M314.978 301.144c.44 8.798.66 17.596.44 26.175-.22 8.798-.44 17.596-.22 26.174.44 17.596.44 34.973-.22 52.569h-.22c-.881-17.596-.661-34.973-.221-52.569.221-8.798.001-17.596-.22-26.174-.22-8.579 0-17.377.661-26.175zm5.501 5.719l36.756-19.356-36.315 20.456-.441-1.1zm38.956 106.458c0-9.238-.22-18.477-.22-27.935l-.22-27.934v-.22l.22-.22 3.081-3.079-.22.44-3.081-8.578v-32.114l.22-32.113v-.22h.22l18.708-10.338 18.487-10.557 37.196-21.116h.44l8.143.88h.44v81.823l-.22 40.691c0 13.637-.22 27.055-.44 40.692h-.22c-.22-13.637-.22-27.055-.44-40.692l-.22-40.691v-81.383l.44.66-8.143-1.1h.22l-37.416 20.675-18.707 10.338-18.488 10.558.22-.22.22 32.113c0 10.778.22 21.336 0 32.114v-.22l3.082 8.578.22.22-.22.22-3.082 3.079.22-.44-.22 27.934c0 9.678 0 18.917-.22 28.155z" fill="#D38E1F" fill-opacity=".4"/><path d="M434.046 240.217c.44 13.637.66 27.274.44 41.131-.22 13.637-.44 27.275-.22 41.132.22 13.637.44 27.274.22 41.131 0 6.819 0 13.637-.22 20.456 0 6.818-.22 13.637-.44 20.455h-.22c-.221-6.818-.22-13.637-.441-20.455 0-6.819-.22-13.637-.22-20.456 0-13.637.22-27.274.22-41.131.221-13.638 0-27.275-.22-41.132.22-13.637.44-27.494 1.101-41.131zm7.703 5.059l92.438-48.39-91.778 49.49-.66-1.1z" fill="#D38E1F" fill-opacity=".4"/><path d="M501.393 529.016l-3.742-1.099" stroke="#D38E1F" stroke-opacity=".4" stroke-width=".606" stroke-miterlimit="10"/><path d="M638.289 130.68l-51.941 28.594-51.941 28.374.22-.44v56.528l-.22 56.528 4.182 16.937v.44l-4.402 5.938v-.22c0 22.216-.22 44.431 0 66.646l.22 66.647h-.88c.66-9.458 1.54-18.697 3.081-28.155.88-4.619 1.76-9.238 3.081-13.857s2.641-9.018 5.062-13.197l.22-.22h.44l83.414-2.199h.881l-.22.879c-2.641 7.259-5.062 14.737-7.263 21.996-2.201 7.478-4.402 14.737-6.383 22.215-1.981 7.479-3.742 14.957-5.062 22.655-1.321 7.479-2.641 15.177-2.861 22.876v-.22c1.1 4.839 1.54 9.678 1.54 14.517 0 4.839-.44 9.898-2.421 14.297-.88 2.199-2.421 4.399-4.181 5.938-1.761 1.76-4.182 2.86-6.603 3.3-2.421.44-4.842.44-7.263.66h-7.263c-9.684 0-19.368-1.1-28.832-.66-9.463.44-19.147 2.859-27.291 8.358l-17.607-5.059v-.22l17.607 4.839h-.22c7.923-5.499 17.827-8.138 27.291-8.578 9.684-.66 19.368.44 29.052.44h7.263c2.421 0 4.842 0 7.043-.66 2.201-.44 4.402-1.54 6.162-3.079 1.761-1.54 3.082-3.52 3.962-5.719 1.761-4.399 2.201-9.238 2.201-13.857 0-4.839-.66-9.458-1.761-14.297.22-7.699 1.321-15.397 2.861-23.096 1.321-7.698 3.302-15.176 5.283-22.655 1.98-7.478 4.181-14.957 6.382-22.215 2.201-7.479 4.622-14.737 7.263-21.996l.66.88-83.414 1.98.441-.22c-2.201 3.959-3.742 8.578-5.062 12.977-1.321 4.399-2.201 9.018-3.082 13.637-1.76 9.238-2.641 18.476-3.301 27.934h-.88l.22-66.646v-66.646l4.181-5.938v.22l-4.401-16.937-.22-56.528v-56.748l.22-.22 52.161-28.154 52.381-28.594zm14.526 33.873c.22 24.634.44 49.269.44 73.904l.22 73.905-.22 73.904c0 24.635-.22 49.27-.44 73.905-.221-24.635-.441-49.27-.441-73.905l-.22-73.904.22-73.905c0-24.855.22-49.489.441-73.904zm8.143 9.018c.22 22.215.44 44.43.44 66.646l.22 66.646-.22 66.646c0 22.215-.22 44.431-.44 66.646-.22-22.215-.44-44.431-.44-66.646l-.22-66.646.22-66.646c0-22.216.22-44.431.44-66.646zM83.663 29.72l9.024 66.867 8.803 66.866 17.608 133.732h-1.321v-12.098l-10.784-111.296c-3.742-37.173-7.043-74.345-10.565-111.517 3.962 37.172 7.703 74.125 11.445 111.297l11.225 111.296v12.098h-1.321L100.61 163.013l-8.584-66.866-8.363-66.426z" fill="#D38E1F" fill-opacity=".4"/><path d="M118.437 285.307l144.599 11.658h.44v10.998h-.66l-72.19-4.839-36.094-2.64-36.095-2.859h-.22v-.22l.22-12.098zm.22.22l.22 12.098-.22-.22 36.095 2.199 36.094 2.2 72.19 5.059-.66.44v-9.898l.44.44-144.159-12.318z" fill="#D38E1F" fill-opacity=".4"/><path d="M632.787-11.63L263.256 297.845l.22-.44v9.898l-.88-.44 147.9-113.276L558.617 80.75h.22l-147.68 113.936-147.901 113.057-.88.659v-11.217l.22-.22L632.787-11.85v.22zM161.355 31.48l-16.066 240.19-.441-.44 103.883 10.998-.44.22L390.909 128.04 533.967-25.928h.22L391.789 128.92 248.951 283.328h-.44L144.848 272.11l-.44-.22v-.22l16.947-240.19z" fill="#D38E1F" fill-opacity=".4"/><path d="M248.51 282.888l-.22-13.637.22.22-51.501-5.059c-17.167-1.76-34.334-3.52-51.28-6.159v-.22c17.167 1.32 34.333 3.079 51.5 5.059l51.281 5.939h.221v.22l-.221 13.637z" fill="#D38E1F" fill-opacity=".4"/><path d="M248.51 269.251l113.566-135.272 56.783-67.526c19.148-22.435 38.076-44.87 57.444-67.086a8400.35 8400.35 0 01-56.563 67.746l-57.004 67.306L248.51 269.251z" fill="#D38E1F" fill-opacity=".4"/><path d="M147.049 240.217l114.446 12.977v1.32l-114.446-14.297zm1.761-24.195l130.293 16.496-.22 1.32-130.073-17.816zm1.98-31.893l152.302 20.015-.22 1.32-152.082-21.335zm2.642-36.293l175.631 25.515-.22 1.32-175.411-26.835zm3.081-44.211l200.942 36.293-.22 1.319-200.722-37.612zm3.081-46.85l234.175 40.032-.22 1.32-233.955-41.352zm-64.267 335.87l-9.023-1.1-5.282-.22 5.282-.22h.22l8.803.66v.88zm0 9.018l-14.305-.44 14.305-.44v.88zm-25.97-12.537l-23.11-3.959-9.243-.22 9.244-.22 23.33 3.079-.22 1.32zm.22 12.757l-32.573-1.76 32.573.44v1.32zM8.172 379.888l-60.525-9.458-30.372-4.839c-10.124-1.54-20.249-3.3-30.153-5.059-5.282 0-10.344-.22-15.626-.44v-.22c5.282-.22 10.344-.22 15.626-.44l30.373 4.619 30.372 5.059 60.305 10.778zm0 20.455l-68.448-1.979c-11.444-.22-22.89-.66-34.114-1.1l-17.167-.88-17.167-.44v-.22c5.723-.22 11.445-.44 17.167-.44l17.167.44c11.445.44 22.89.88 34.114 1.32l68.448 3.299zm86.055-36.512l-7.923-7.478 8.143 7.038-.22.44zm-25.09-15.397l-22.889-15.837 23.55 14.737-.66 1.1zm0-7.698L46.248 319.4l23.77 20.456-.88.88zm209.746 25.734l35.874-9.458h5.943-5.943l-35.654 10.338-.22-.88zm0 7.259l35.874-8.358h5.943-5.943l-35.654 9.238-.22-.88zm1.54-1.98l34.334-9.238h5.942-5.942l-34.114 10.118-.22-.88zm78.792-26.174l74.61-20.016 8.364.22h-8.364l-74.17 20.896-.44-1.1zm0 11.437l74.61-16.056h8.364l-8.364.22-74.17 17.156-.44-1.32zm3.082-3.079l71.529-18.036h8.363-8.363l-71.089 19.356-.44-1.32zm171.67-54.109l118.848-29.693h8.144l-8.144.22-118.628 30.793-.22-1.32zm0 22.876l118.848-23.755h8.144-8.144l-118.628 25.074-.22-1.319zm4.181-5.939l114.667-28.594 8.144.22h-8.144l-114.226 29.694-.441-1.32zm-259.045 78.083l35.654-3.299h5.942l-5.942.22-35.654 3.959v-.88zm0 7.479l41.596-1.1-41.596 2.2v-1.1zm80.333-14.517l74.39-6.379 8.363.22h-8.363l-74.39 7.479v-1.32zm0 10.558l82.753-1.98-82.753 3.299v-1.319zm174.531-25.955l118.848-9.018h8.144-8.144l-118.628 10.338-.22-1.32zm.22 19.796l63.826-1.32 31.913-.66c10.564-.219 21.348-.659 31.913-.439-10.565 0-21.349.439-31.913.879l-31.913 1.1-63.826 1.98v-1.54zm-382.076 64.007c-3.081-1.1-6.383-1.54-9.464-1.1-3.081.44-6.162 1.759-9.244 2.419-3.081.88-6.602 1.32-9.904-.22-1.54-.659-2.861-2.199-3.521-3.519-.88-1.54-1.101-3.079-1.541-4.839-2.421-12.757-5.282-25.295-8.143-37.832.22-10.338.22-20.456.22-30.793l-.22-30.794v-.44h.44l37.856-.22h.66v20.896c0 6.818 0 13.417-.22 20.235-.22 13.418-.22 26.835-.44 40.252h-.221c-.22-13.417-.44-26.834-.44-40.252 0-6.818-.22-13.417-.22-20.235v-20.236l.66.66-37.855-.22.44-.44-.22 30.794c0 10.337 0 20.455.22 30.793a552.743 552.743 0 018.584 37.832c.22 1.54.66 3.08 1.32 4.399.661 1.32 1.761 2.42 3.082 3.3 2.641 1.319 6.162 1.319 9.243.439 3.082-.879 6.163-1.979 9.464-2.199 3.081-.44 6.383 0 9.464 1.32z" fill="#D38E1F" fill-opacity=".4"/><path d="M130.102 410.241c-.44-.66-1.101-.66-1.761-.44l-1.981.22-3.961.22-7.923.66-15.627 1.32-31.253 2.419-62.505 5.059.22-.22c-1.32 1.1-2.421 2.86-1.98 4.399.22.88.88 1.54 1.54 1.98.66.66 1.54 1.1 2.42 1.54l.22.22v.22l13.867 56.088 3.521 14.077c1.1 4.619 2.421 9.238 3.081 14.077 1.32 9.678.44 19.356-.22 28.814-.44 4.839-.88 9.678-.88 14.297 0 4.839.66 9.678 2.64 14.077 1.982 4.399 5.283 7.918 9.245 10.778 3.741 2.859 8.143 5.279 12.545 6.818 4.622 1.54 9.464 1.98 14.085 1.32 4.622-.66 9.244-2.199 14.086-3.299l28.172-6.819c3.961-1.32 7.923-2.419 11.885-3.079 3.961-.88 8.143-1.54 12.325-1.54 1.98 0 4.181.22 6.162.66 1.981.44 4.182 1.76 5.282 3.739 1.101 1.76 1.981 3.959 1.541 6.379-.22 1.1-1.101 2.199-1.981 2.859-.88.66-1.981 1.1-3.081 1.32l.22-1.1 4.842 2.64h-.22c.44 0 1.1-.44 1.54-.88.441-.44.881-1.1 1.321-1.98.88-1.319 1.32-2.859 1.981-4.399.88-3.079.88-6.378 1.1-9.678.22-6.598.44-13.417.66-20.016.221-13.417.221-26.614.441-40.031.22-26.835.44-53.449.44-80.283-.881-1.1-2.421-1.76-3.962-1.98-1.54-.22-3.081-.22-4.622.22-1.54.22-3.081.88-4.622.88-.88 0-1.76 0-2.421-.66-.66-.66-.88-1.32-1.1-2.2-1.1-3.079-1.761-6.158-2.421-9.238-1.321-3.519-1.321-6.818-2.861-9.458zm0 0c1.761 2.86 1.761 6.159 2.641 9.018.66 3.08 1.32 6.159 2.421 9.018.22.66.66 1.54 1.1 1.98.441.44 1.321.66 1.981.44 1.541-.22 3.081-.88 4.622-.88 1.541-.22 3.081-.44 4.842-.22 1.541.22 3.301.66 4.182 2.2.22 26.834.44 53.449.44 80.283 0 13.417-.22 26.834-.44 40.032-.22 6.598-.22 13.417-.661 20.015-.22 3.3-.22 6.819-1.1 10.118-.44 1.54-1.1 3.3-1.981 4.839-.44.66-.88 1.54-1.54 2.2-.661.66-1.321 1.32-2.862 1.32l-4.842-2.64-1.54-.88 1.54-.44c1.761-.44 3.522-1.539 4.182-3.299.44-1.76-.22-3.739-1.32-5.279-.881-1.759-2.641-2.639-4.402-3.079a27.335 27.335 0 00-5.943-.66c-3.961 0-8.143.66-12.105 1.54-3.961.879-7.923 1.979-11.884 3.079l-28.172 6.599c-4.622 1.099-9.244 2.639-14.086 3.299-4.842.66-9.904.22-14.525-1.54-4.622-1.539-8.804-3.959-12.766-6.818-3.741-2.86-7.263-6.599-9.244-10.998-1.98-4.399-2.64-9.458-2.64-14.297s.44-9.678.88-14.517c.88-9.678 1.54-19.356.22-28.814-.66-4.839-1.98-9.458-3.081-14.077l-3.522-14.077-14.306-56.088.22.44c-.88-.44-1.76-.88-2.64-1.54-.881-.66-1.541-1.54-1.981-2.64-.44-1.099-.22-2.419.44-3.299.44-.88 1.1-1.76 1.98-2.419h.44l62.726-4.619 31.253-2.2 15.626-1.1 7.924-.66 3.961-.22 1.981-.22h1.101c.44.44.88.66.88 1.1z" fill="#D38E1F" fill-opacity=".4"/><path d="M11.033 423.219c6.163 22.655 11.885 45.53 17.607 68.405 1.32 5.719 3.082 11.438 3.522 17.377.66 5.938.44 11.877.22 17.596-.44 5.939-.88 11.658-1.32 17.596-.44 5.939-.44 11.878 1.32 17.377.88 2.859 2.2 5.498 3.962 7.698 1.76 2.2 3.961 4.179 6.382 5.939 4.622 3.519 9.904 6.159 15.627 7.478 2.86.66 5.722.88 8.583.66 2.861-.22 5.722-.88 8.583-1.54 2.862-.659 5.723-1.539 8.584-2.199l8.584-1.98 17.166-3.959c5.723-1.32 11.665-2.419 17.388-2.859 2.861-.22 5.942-.44 8.803-.22 1.541 0 3.081.22 4.402.44 1.541.22 3.081.66 4.182 1.759 2.201 2.2 3.081 5.279 3.081 8.359 0 3.079-1.101 5.938-2.421 8.578h-.22c1.32-2.64 2.201-5.499 1.981-8.359 0-2.859-1.101-5.718-3.082-7.698-1.1-.88-2.421-1.32-3.741-1.54-1.541-.22-2.861-.439-4.402-.439-2.861 0-5.942.219-8.804.439-5.942.66-11.664 1.76-17.167 3.3l-17.166 4.179-8.584 1.979-8.584 2.2c-2.86.66-5.722 1.32-8.803 1.54-3.081.22-5.942-.22-9.024-.88-5.942-1.32-11.224-4.399-15.846-7.919-2.421-1.759-4.622-3.959-6.383-6.158a26.739 26.739 0 01-3.962-7.919c-1.76-5.718-1.54-11.877-1.1-17.596.44-5.939 1.1-11.657 1.32-17.596.22-5.939.22-11.658-.44-17.597-.66-5.718-2.42-11.437-3.961-17.156-5.502-23.535-11.225-46.41-16.287-69.285z" fill="#D38E1F" fill-opacity=".4"/><path d="M53.291 415.3c4.182 14.737 7.923 29.914 11.005 44.871l4.401 22.655 4.622 22.655c.88 3.74 1.76 7.479 3.522 10.778 1.76 3.299 4.401 6.159 7.703 7.918 3.301 1.76 7.043 2.42 11.004 2.42 3.742 0 7.483-.66 11.225-1.54 7.263-1.979 14.746-4.839 22.449-5.499 7.703-.66 15.626.44 22.889 3.52v.22c-7.263-2.64-14.966-3.52-22.669-2.64-7.703.88-14.746 3.959-22.229 5.939-7.483 1.98-15.846 2.639-23.11-.88-3.52-1.76-6.382-4.839-8.143-8.358-1.76-3.519-2.64-7.479-3.301-11.218-1.32-7.478-2.641-15.177-4.402-22.655-1.54-7.479-3.301-14.957-5.062-22.435L53.291 415.3z" fill="#D38E1F" fill-opacity=".4"/><path d="M79.922 413.321c3.081 10.777 5.942 21.775 8.143 32.773 2.201 10.997 4.182 21.995 6.603 32.993.66 2.639 1.32 5.499 2.641 7.918 1.32 2.42 3.301 4.399 5.502 5.499 2.421 1.32 5.062 1.76 7.923 1.76 2.642 0 5.503-.44 8.144-1.1 5.282-1.32 10.784-3.519 16.506-3.959 5.723-.44 11.445.44 16.727 2.639v.22c-5.282-1.76-11.004-2.419-16.506-1.759-5.503.659-10.785 2.859-16.287 4.399-5.502 1.539-11.665 1.979-16.947-.66-2.641-1.32-4.622-3.739-5.942-6.159-1.32-2.639-1.981-5.499-2.421-8.138-1.761-10.998-4.182-21.996-6.823-32.993-2.421-11.438-5.062-22.436-7.263-33.433z" fill="#D38E1F" fill-opacity=".4"/><path d="M98.189 411.561c2.42 8.138 4.621 16.277 6.382 24.415 1.541 8.358 3.081 16.496 4.842 24.855a31.363 31.363 0 001.981 5.938 9.592 9.592 0 004.182 4.18c3.521 1.759 7.923 1.319 11.884.439 3.962-1.099 7.924-2.639 12.325-3.079 4.182-.44 8.584.44 12.546 2.2v.22c-3.962-1.32-8.144-1.76-12.325-1.1-4.182.44-7.924 2.199-12.105 3.299-3.962 1.1-8.804 1.54-12.766-.66-1.98-1.1-3.521-2.859-4.401-4.839-.881-1.979-1.321-4.179-1.761-6.158a233.518 233.518 0 00-5.282-24.635c-2.201-8.578-4.182-16.717-5.502-25.075zm22.449-1.32c1.54 4.619 2.641 9.458 3.741 14.297.44 2.42.66 4.839 1.321 7.259.44 2.419 1.1 4.839 1.76 7.258.661 2.42 1.541 4.619 3.522 5.499 1.981.88 4.402.66 6.823.22 2.201-.66 4.622-1.54 7.263-1.76 2.641-.22 5.062.44 7.263 1.32v.22c-2.421-.66-4.842-.88-7.263-.44-2.421.22-4.622 1.32-7.043 1.98-2.421.66-5.282.88-7.703-.44a5.505 5.505 0 01-2.641-2.86c-.661-1.099-.881-2.419-.881-3.739-.66-4.839-1.981-9.678-3.301-14.297-1.541-4.839-2.421-9.678-2.861-14.517z" fill="#D38E1F" fill-opacity=".4"/><path d="M127.24 409.581c1.321 3.52 2.201 7.259 2.861 10.998.22 1.98.441 3.739.881 5.719.44 1.76.88 3.739 1.32 5.499.44 1.759 1.101 3.519 2.641 4.179 1.541.66 3.302.44 5.062 0 1.761-.44 3.742-1.1 5.723-1.32 1.981 0 3.961.22 5.722 1.1v.22c-1.761-.44-3.741-.66-5.502-.22-1.761.22-3.522 1.1-5.502 1.54-1.981.439-4.182.659-5.943-.44-.88-.44-1.761-1.32-2.201-2.42-.44-.88-.66-1.979-.66-2.859-.22-1.98-.66-3.739-1.1-5.499-.441-1.76-1.101-3.739-1.541-5.499-.66-3.299-1.541-7.038-1.761-10.998zM81.022 585.105l-.66 37.392-.66-37.392h1.32zm9.684-2.42l-.66 34.093-.66-34.093h1.32zm200.281-15.836c1.981 0 3.962.879 5.723 1.979 1.54 1.1 3.081 2.42 4.181 3.959 2.421 2.86 4.402 6.159 6.383 9.238 3.962 6.159 7.703 12.538 12.325 18.477 4.622 5.718 10.124 10.777 16.727 14.077 3.301 1.539 6.823 2.859 10.564 3.299 3.742.44 7.483.22 11.005-.88-3.522 1.1-7.263 1.32-11.005 1.1-3.741-.44-7.263-1.54-10.564-3.08-6.823-3.079-12.545-8.138-17.167-14.077-4.842-5.718-8.584-12.097-12.765-18.256-1.981-3.079-3.962-6.158-6.383-9.018-2.421-2.639-5.282-5.059-8.804-5.059l-.22-1.759zm239.018-135.052l-89.576.22 89.576-2.2v1.98zm-33.454 81.823a254.902 254.902 0 01-25.09 5.279c8.363-1.76 16.507-4.18 24.65-6.819l.44 1.54zm125.011-109.537a186.133 186.133 0 00-15.186 45.31c-3.082 15.617-4.182 31.673-3.302 47.73.22 3.959.661 8.138 0 12.098-.66 3.959-2.421 8.138-5.942 10.557-3.521 2.42-7.923 2.42-11.885 2.42-3.961-.22-7.923-.44-12.105-.66-7.923-.44-16.066-.66-23.99.44-7.923 1.1-15.626 3.079-23.109 6.379 7.263-3.3 14.966-5.719 22.889-6.819 7.924-1.1 16.067-1.1 23.99-.66l12.105.44c3.962 0 8.143 0 11.225-2.199 3.081-2.2 4.842-5.939 5.282-9.898.66-3.96.22-7.919 0-11.878-.881-16.057.22-32.333 3.521-47.95 3.522-15.837 9.024-31.013 16.507-45.31z" fill="#D38E1F" fill-opacity=".4"/><path d="M130.322 410.681c-18.928 2.64-37.855 5.279-56.783 7.699-18.928 2.419-37.855 5.058-56.783 7.258 18.928-2.639 37.855-5.279 56.783-7.698 18.928-2.42 37.855-5.059 56.783-7.259z" fill="#D38E1F" fill-opacity=".4"/><path d="M-7.234 23.122L125.26 335.457l-1.101.44L-7.234 23.122zm276.213 301.557L696.173 56.115 269.639 325.78l-.66-1.1zM558.616 466.33l-63.165 7.478-63.166 7.258-126.332 14.737-126.331 14.077-63.166 7.039-63.386 7.038 63.166-7.478 63.166-7.478 126.551-14.517 126.332-14.297 63.166-7.039 63.165-6.818z" fill="#D38E1F" fill-opacity=".4" opacity=".45"/><path d="M638.29 73.492l.44 64.446.22 64.667.22 128.893-.22 128.893-.22 64.446-.44 64.447-.441-64.447-.22-64.446-.22-128.893.22-128.893.22-64.667.441-64.446zM482.245 580.046c-7.923 3.079-15.846 6.158-23.989 9.018l-23.99 9.018-23.99 8.798-23.99 8.578c-.22 0-.66 0-.66-.44v-.439c3.962-7.259 7.263-14.517 9.464-22.436 2.201-7.918 3.301-16.056 1.981-24.195 1.54 8.139.88 16.497-1.321 24.415-2.201 7.918-5.282 15.617-9.244 22.875l-.66-.879 23.99-8.799 23.99-8.578 23.989-8.578c8.364-2.859 16.507-5.719 24.43-8.358zM165.977 406.282c5.942 17.596 11.444 35.193 17.387 52.789 5.502 17.596 11.224 35.413 16.726 53.009l33.014 106.238h-.22L198.99 512.52c-5.722-17.596-11.225-35.193-16.947-53.009-5.502-17.816-11.004-35.413-16.066-53.229z" fill="#D38E1F" fill-opacity=".4" opacity=".45"/><path d="M560.598 549.032L714 624.696l-154.062-74.344.66-1.32zM434.926 606l-1.1 59.828-1.1-59.828h2.2zm-22.008 8.359l-1.101 72.144-1.1-72.144h2.201zm-178.493-193.12l.22-37.392.219 37.392h-.439zm-7.484-97.88l-.22 84.903-.22-84.903h.44zm4.401 0l-.22 91.941-.22-91.941h.44zm2.201 0l-.22 65.107-.219-65.107h.439zm5.502.44l-.439 92.601-.22-92.601h.659zm3.522.22l-.22 69.506-.22-69.506h.44zm4.842.22l-.219 97.22-.22-97.22h.439zm2.42 0l-.219 77.864-.44-77.864h.659zm9.025.44l-.22 76.544-.22-76.544h.44zm5.061.22l-.22 82.263-.219-82.263h.439zm1.761 0l-.22 61.807-.439-61.807h.659zm6.823.44l-.439 79.403-.22-79.403h.659zm2.421.22l-.22 72.585-.22-72.585h.44zm-29.932 96.78l.22-78.744.22 78.744h-.44zm23.33-15.177l.44-67.306.22 67.306h-.66zm-152.742-9.018c1.761-.22 3.302-.22 5.062-.22 1.761 0 3.302 0 5.062.22-1.76.22-3.301.22-5.062.22-1.76 0-3.521 0-5.062-.22z" fill="#D38E1F" fill-opacity=".4"/><path d="M116.456 397.264c.22.66.22 1.32.22 1.98 0 .659 0 1.319-.22 1.979-.22-.66-.22-1.32-.22-1.979 0-.66 0-1.32.22-1.98z" fill="#D38E1F" fill-opacity=".4"/><path d="M114.916 400.123c1.761-.22 3.521-.22 5.282-.22 1.761 0 3.522 0 5.282.22-1.76.22-3.521.22-5.282.22-1.761.22-3.521 0-5.282-.22z" fill="#D38E1F" fill-opacity=".4"/><path d="M124.6 397.484c.22.66.22 1.32.22 1.979 0 .66 0 1.32-.22 1.98-.22-.66-.22-1.32-.22-1.98 0-.659 0-1.319.22-1.979z" fill="#D38E1F" fill-opacity=".4"/></g><defs><clipPath id="clip0_175_1457"><path fill="#fff" transform="translate(-169)" d="M0 0h883v703H0z"/></clipPath></defs></svg>