<svg width="523" height="618" fill="none" xmlns="http://www.w3.org/2000/svg"><g clip-path="url(#clip0_175_1822)"><path d="M283.311 81.055V420.69m27.533-337.161v337.16M55.637 454.367c2.088-.19 240.206-35.771 240.206-35.771l392.495 54.417v2.284l-392.685-50.422-240.016 32.346v-2.854 0z" stroke="#D38E1F" stroke-opacity=".5" stroke-width=".702" stroke-miterlimit="10" stroke-linecap="round"/><path d="M57.536 457.031c2.088-.191 238.117-31.966 238.117-31.966l390.786 50.232v2.283l-390.976-46.236-238.117 28.541v-2.854h.19z" stroke="#D38E1F" stroke-opacity=".5" stroke-width=".59" stroke-miterlimit="10" stroke-linecap="round"/><path d="M61.333 459.314c2.089-.19 234.13-27.97 234.13-27.97l387.178 45.665v2.284l-387.368-41.67-233.94 24.545v-2.854z" stroke="#D38E1F" stroke-opacity=".5" stroke-width=".582" stroke-miterlimit="10" stroke-linecap="round"/><path d="M70.638 461.217v14.08L294.324 449.8l388.317 39.577v-10.085l-387.368-41.669-224.635 23.594z" stroke="#D38E1F" stroke-opacity=".5" stroke-width=".582" stroke-miterlimit="10" stroke-linecap="round"/><path d="M70.638 475.297H81.27l213.053-22.833 388.317 36.913-388.317-39.576-223.686 25.496z" stroke="#D38E1F" stroke-opacity=".5" stroke-width=".374" stroke-miterlimit="10" stroke-linecap="round"/><path d="M279.513 453.987v6.088h2.658v116.827l11.393.761 14.432-.952V461.217h2.848v-7.23l-16.52-1.523-14.811 1.523z" stroke="#D38E1F" stroke-opacity=".5" stroke-width=".374" stroke-miterlimit="10" stroke-linecap="round"/><path d="M74.245 483.859l220.078-18.456 13.672 1.141m-233.75 19.408l220.078-17.505 13.672 1.142m-25.824 96.848h25.824m-13.672-97.99v97.99" stroke="#D38E1F" stroke-opacity=".5" stroke-width=".374" stroke-miterlimit="10" stroke-linecap="round"/><path d="M282.171 574.999L73.486 568.91v-93.613" stroke="#D38E1F" stroke-opacity=".5" stroke-width=".374" stroke-miterlimit="10" stroke-linecap="round"/><path d="M229.952 459.314v114.163l-4.557 1.332V467.305s-3.608-4.756-2.279-9.323l6.836 1.332zm-16.899-.19c-1.329 4.566 2.278 9.323 2.278 9.323v105.791l10.064.571" stroke="#D38E1F" stroke-opacity=".5" stroke-width=".374" stroke-miterlimit="10" stroke-linecap="round"/><path d="M171.088 465.593v106.171l-4.178 1.142V472.823s-3.418-4.376-2.088-8.752l6.266 1.522zm-13.482 0c-1.139 4.186 2.089 8.753 2.089 8.753v98.37l7.025.19" stroke="#D38E1F" stroke-opacity=".5" stroke-width=".553" stroke-miterlimit="10" stroke-linecap="round"/><path d="M171.088 465.593v106.171l-4.178 1.142V472.823s-3.418-4.376-2.088-8.752l6.266 1.522zm-13.482 0c-1.139 4.186 2.089 8.753 2.089 8.753v98.37l7.025.19" stroke="#D38E1F" stroke-opacity=".5" stroke-width=".553" stroke-miterlimit="10" stroke-linecap="round"/><path d="M120.768 471.111v99.321l-3.418 1.142v-93.423s-2.848-3.806-1.709-7.992l5.127.952zm-11.013-.191c-.95 4.186 1.709 8.753 1.709 8.753v91.71l5.886.191" stroke="#D38E1F" stroke-opacity=".5" stroke-width=".502" stroke-miterlimit="10" stroke-linecap="round"/><path d="M81.841 475.297V569.1l-3.228 1.142v-88.096s-2.658-3.615-1.709-7.61l4.937.761zm-10.633 0c-.95 3.995 1.709 8.372 1.709 8.372v86.383l5.507.19m151.529-4.567l-157.036-2.092" stroke="#D38E1F" stroke-opacity=".5" stroke-width=".234" stroke-miterlimit="10"/><path d="M578.203 489.567l-270.208-23.023m270.208 25.306l-270.208-22.261m.191 105.41l374.455-13.129v-72.493" stroke="#D38E1F" stroke-opacity=".5" stroke-width=".374" stroke-miterlimit="10" stroke-linecap="round"/><path d="M392.305 461.787v110.928l4.557 1.142V469.589s3.608-4.757 2.279-9.133l-6.836 1.331zm16.9-1.331c1.329 4.376-2.279 10.464-2.279 10.464v102.556l-10.064.571" stroke="#D38E1F" stroke-opacity=".5" stroke-width=".587" stroke-miterlimit="10" stroke-linecap="round"/><path d="M469.398 469.208v100.463l4.178 1.142v-94.375s3.228-3.995 2.089-7.991l-6.267.761z" stroke="#D38E1F" stroke-opacity=".5" stroke-width=".54" stroke-miterlimit="10" stroke-linecap="round"/><path d="M482.691 469.018c1.139 3.996-2.089 8.181-2.089 8.181v93.423l-7.026.191" stroke="#D38E1F" stroke-opacity=".5" stroke-width=".54" stroke-miterlimit="10" stroke-linecap="round"/><path d="M307.995 566.436l270.208-5.898" stroke="#D38E1F" stroke-opacity=".5" stroke-width=".234" stroke-miterlimit="10"/><path d="M62.662 215.957L294.323 56.891 671.817 309.19v4.947L294.323 64.121 62.663 221.095v-5.138z" stroke="#D38E1F" stroke-opacity=".5" stroke-width=".702" stroke-miterlimit="10" stroke-linecap="round" stroke-linejoin="round"/><path d="M62.662 221.095h7.975l223.686-147.46 370.658 240.502h6.836" stroke="#D38E1F" stroke-opacity=".5" stroke-width=".374" stroke-miterlimit="10" stroke-linecap="round"/><path d="M294.323 73.635v344.961" stroke="#D38E1F" stroke-opacity=".5" stroke-width=".702" stroke-miterlimit="10" stroke-linecap="round"/><path d="M70.638 221.095v231.369m43.294-265.998v259.529m5.696-.761V182.47l5.127 3.044v258.959" stroke="#D38E1F" stroke-opacity=".5" stroke-width=".374" stroke-miterlimit="10" stroke-linecap="round"/><path d="M62.662 221.285v232.13" stroke="#D38E1F" stroke-opacity=".5" stroke-width=".702" stroke-miterlimit="10" stroke-linecap="round"/><path d="M68.549 452.654V217.479l4.937 1.713v232.321" stroke="#D38E1F" stroke-opacity=".5" stroke-width=".374" stroke-miterlimit="10" stroke-linecap="round"/><path d="M160.454 154.69v284.455m7.596-1.141V149.743l6.456 2.854v284.455M217.8 115.875v313.947m7.405-.38V110.928l6.456 3.996V428.49m246.853-242.405v257.817m-7.406-.951V181.138l-6.646 2.854v258.007m-58.106-303.672v295.681m-7.595-1.142V133.38l-6.456 3.996v294.729" stroke="#D38E1F" stroke-opacity=".5" stroke-width=".677" stroke-miterlimit="10" stroke-linecap="round"/><path d="M111.463 504.408l-29.622 1.522m29.622 43.382l-29.622-.761m29.622 3.235H81.841m3.418-45.856v42.811m35.509.191l39.116-.191m-39.116 2.474h39.116m-39.116-47.568l39.116-1.522m-34.749 1.332l.19 45.475m45.763-47.188l44.813-1.141m-44.813 47.568l43.674-.191m-43.674 2.664l44.243-.19m-39.876-48.9V547.6m54.497-48.329l52.219-.761m-28.483.38v75.348m-19.938-71.352h16.33v50.803h-15.381l-.949-50.803zm22.977 0v50.802h21.836v-51.373l-21.836.571zm135.578 53.656l-84.31 1.713m.191-4.567l84.119-1.332m-84.119-55.178l84.119 1.332m-3.608-.761v54.608m18.229-53.847l61.903 2.093m-61.903 51.183l62.472-.381m-62.472 3.806l62.472-.381m-3.987-54.227v50.802m15.191 0h44.813m-44.813 3.806l44.813-.381m-44.813-54.227l44.813 1.141m-2.848 0v49.661" stroke="#D38E1F" stroke-opacity=".5" stroke-width=".234" stroke-miterlimit="10"/><path d="M103.298 227.945v37.483m0 16.744v37.483m0 21.501v37.483m0 17.124v37.484" stroke="#D38E1F" stroke-opacity=".5" stroke-width=".374" stroke-miterlimit="10" stroke-linecap="round"/><path d="M315.021 477.199l-.759 14.651 70.258 1.332v-12.938l-69.499-3.045zm-38.926 0v14.651s-40.636 1.713-40.066 1.142c.57-.571-.38-11.797 0-12.368.38-.38 40.066-3.425 40.066-3.425zm-66.651 18.647l-32.85 1.903v-13.89l32.85-4.567v16.554zm-55.067 1.903l-29.242 1.141-.38-11.987 29.622-1.712v12.558zm-47.091 3.805l-22.027.761-.57-11.416 22.597-2.283v12.938zm303.628-8.372l53.548 2.474v-8.753l-53.548-4.376v10.655zm75.385 2.854l34.749 1.713v-7.231l-34.749-2.092v7.61z" stroke="#D38E1F" stroke-opacity=".5" stroke-width=".234" stroke-miterlimit="10"/><path d="M537.568 196.74l-15.001 11.797" stroke="#D38E1F" stroke-opacity=".5" stroke-width=".374" stroke-miterlimit="10" stroke-linecap="round"/><path d="M113.932 221.285l-13.482 8.181v37.294l13.482-6.279m-21.837 10.274v-37.103l-14.81 7.802v35.961l14.81-6.66zm-12.153-30.633v36.151m80.512-82.387l-13.482 8.562v40.528l13.482-6.85m-16.71-31.965v40.337l-14.052 6.279v-38.054l14.052-8.562zm-11.773 7.23v38.434m17.66-49.089v40.908m44.433-67.546l-17.469 10.845v42.431l18.229-9.895-.76-43.381zm23.736 31.775l-19.368 9.704v-44.333l19.368-11.988m-39.116 24.355v42.431m22.216-56.321v44.524m35.129-66.024v47.948l17.66-9.704v-49.47l-17.66 11.226zm44.623 22.832l-21.457 12.178v-50.042l21.457-14.65v52.514zm-42.344-24.164v48.329m22.787-63.36v50.231m-147.163 94.945l-13.482 6.469v37.293l13.482-4.756m-21.837 7.611v-36.913l-14.81 5.898v35.962l14.81-4.947zm-12.153-31.966v36.152m80.512-72.874l-13.482 7.04v40.528l13.482-5.328m-16.71-33.868v40.337l-14.052 4.567v-37.864l14.052-7.04zm-11.773 5.898v38.245m17.66-46.807v40.908m44.433-62.218l-17.469 8.562v42.62l18.229-7.801-.76-43.381zM217.8 273.8l-19.368 7.61v-44.333l19.368-9.703m-39.116 19.597v42.431m22.216-53.466v44.333m35.129-61.838v47.948l17.66-7.611v-49.47l-17.66 9.133zm44.623 28.16l-21.457 9.704v-50.042l21.457-11.987v52.325zm-42.344-29.302v48.519m22.787-60.696v50.041m-147.163 82.388l-13.482 4.566V379.4l13.482-2.664m-21.837 4.186v-37.103l-14.81 3.806v35.961l14.81-2.664zm-12.153-34.058v36.342m80.512-60.316l-13.482 4.947v40.527l13.482-3.234m-16.71-36.532v40.337l-14.052 2.474v-38.054l14.052-4.757zm-11.773 3.996v38.434m17.66-44.143v40.909m44.433-55.369l-17.469 6.088v42.431l18.229-4.947-.76-43.572zm23.736 38.434l-19.368 4.377v-44.334l19.368-6.659m-39.116 13.509v42.431m22.216-50.042v44.333m35.129-56.129v47.758l17.66-4.757v-49.471l-17.66 6.47zm44.623 35.01l-21.457 6.278v-50.041l21.457-8.562v52.325zm-42.344-35.962v48.519m22.787-57.081v50.041m-147.163 53.466l-13.482 4.376v37.293l13.482-2.473m-21.837 3.806v-37.103l-14.81 3.425v35.961l14.81-2.283zm-12.153-34.249v36.342m80.512-54.227l-13.482 4.186v40.527l13.482-2.473m-16.71-37.293v40.337l-14.052 1.712v-38.054l14.052-3.995zm-11.773 3.424v38.245m17.66-43.192v40.909m44.433-50.612l-17.469 4.185v42.621l18.229-3.044-.76-43.762zm23.736 40.718l-19.368 2.473v-44.333l19.368-4.566m-39.116 9.513v42.43m22.216-47.948v44.524m35.129-52.706v47.758l17.66-2.854v-49.47l-17.66 4.566zm44.623 39.577l-21.457 4.186v-50.042l21.457-6.469v52.325zm-42.344-40.148v48.329m22.787-54.607v50.041m175.454-222.427l22.976 15.032.38 40.527-24.116-14.08.76-41.479zm-30.762 24.355l25.255 14.651-.38-43.192-24.305-16.744m50.32 34.249l.38 40.338m-29.622-59.936l.379 43.192m9.304 26.067l22.977 11.987.379 40.337-24.305-10.465.949-41.859zm-30.951 28.921l25.445 10.845-.38-43.001-25.445-14.08m51.459 27.78l.38 40.527m-29.622-55.939l.38 43.382m9.305 32.346l22.976 7.991.19 40.528-24.116-6.469.95-42.05zm-30.762 34.439l25.255 6.469-.38-43.001-25.255-9.514m51.269 18.647l.38 40.337m-29.623-50.612l.38 43.192m48.991-144.036l19.559 12.368.19 36.722-19.559-10.274m24.116-23.974v36.532l20.318 9.513v-33.868l-20.318-12.177zm17.09 10.274l.19 34.249m-25.635-49.47l.189 37.293m-15.95 9.133l19.558 10.084.19 36.722-19.558-7.991m24.115-26.828v36.532l20.318 7.04v-33.678l-20.318-9.894zm17.09 8.372v34.058m-25.445-46.236l.19 37.103m-15.76 17.124l19.558 7.231v36.722l-19.558-5.137m24.115-30.253v36.532l20.318 4.186v-33.678l-20.318-7.04zm17.09 5.898l.19 34.249m-25.635-42.811l.19 37.103m-15.76 12.558l19.558 5.708v36.722l-19.558-3.615m24.115-32.156v36.532l20.318 2.664v-33.678l-20.318-5.518zm17.09 4.757l.19 34.058m-25.634-40.908l.19 37.293m-56.397-49.66l22.786 5.137.38 40.337-24.115-3.234.949-42.24zm-30.762 38.625l25.255 3.044-.38-43.192-25.255-6.088m51.27 12.177l.19 40.337m-29.433-47.187l.379 43.382m-41.964-262.764l.19 46.236-28.863-15.032-.19-48.709 28.863 17.505zm-72.916 6.659l35.318 19.598v-49.47l-35.318-23.213v53.085zm69.498-8.752l.19 46.807m-37.598-69.83l.19 49.471m40.825 43.381l.19 46.236-28.862-11.606-.19-48.71 28.862 14.08zm-72.916 15.412l35.319 15.412-.19-49.47-35.318-19.027.189 53.085zm69.499-17.124v46.806m-37.408-65.453l.19 49.661m40.825 47.758l.19 46.046-28.863-7.231-.19-48.709 28.863 9.894zm-72.916 26.067l35.319 10.084-.19-49.47-35.319-13.509.19 52.895zm69.499-27.209v46.807m-37.409-60.126l.19 49.661m40.826 31.014v46.236l-28.862-4.376v-48.519l28.862 6.659zm-72.916 34.059l35.319 6.279-.19-49.471-35.319-9.894.19 53.086zm69.309-34.82l.189 46.807m-37.407-56.13v49.661" stroke="#D38E1F" stroke-opacity=".5" stroke-width=".234" stroke-miterlimit="10" stroke-linecap="round"/><path d="M13.292 227.945L50.7 199.214l37.407-28.731 75.195-57.082 75.385-56.7 37.597-28.54L314.262 0l-37.408 28.73-37.597 28.542-75.195 57.271-75.385 56.701-37.598 28.35-37.787 28.351z" fill="#D38E1F" fill-opacity=".5" opacity=".5"/><path d="M217.8 5.708l62.662 41.48 62.663 41.859 125.515 83.338 125.135 83.91 62.472 41.86 62.473 42.049-62.853-41.479-62.662-41.859-125.325-83.339-125.135-83.91-62.663-41.859L217.8 5.708zM34.37 457.602l82.6-12.748 82.41-12.558 164.822-25.116 165.011-24.545 82.6-12.368 82.601-11.987-82.601 12.748-82.41 12.558-164.822 24.926-165.011 24.735-82.6 12.177-82.6 12.178zm716.061 101.224l-540.796 58.223 540.606-59.555c.38 0 .759.19.759.571 0 .38-.19.761-.569.761z" fill="#D38E1F" fill-opacity=".5" opacity=".5"/><path d="M.76 570.813l383.38 46.997L.57 572.145c-.38 0-.57-.381-.57-.761 0-.191.38-.571.76-.571z" fill="#D38E1F" fill-opacity=".5" opacity=".5"/><path d="M38.357 81.055l.57 64.122v64.311l.38 128.433-.38 128.433v64.121l-.57 64.312-.38-64.312-.19-64.121-.19-128.433.19-128.433.19-64.311.38-64.122z" fill="#D38E1F" fill-opacity=".5" opacity=".5"/></g><defs><clipPath id="clip0_175_1822"><path fill="#fff" d="M0 0h751v618H0z"/></clipPath></defs></svg>