<svg width="32" height="30" fill="none" xmlns="http://www.w3.org/2000/svg"><g clip-path="url(#clip0_500_9017)" fill="#E49216"><path d="M22.671 3.031H9.372a.257.257 0 00-.256.257V27.64c0 .142.115.257.256.257h13.3a.257.257 0 00.255-.257V3.288a.256.256 0 00-.256-.257zm-8.956 18.832h2.05v5.522h-2.05v-5.522zm2.563 5.522v-5.522h2.051v5.522h-2.05zm6.137 0h-3.573v-5.522h1.292a.257.257 0 000-.513H11.91a.257.257 0 000 .513h1.293v5.522H9.629V3.544h12.785v23.84z"/><path d="M11.643 9.205h3.31a.256.256 0 00.257-.256V5.637a.257.257 0 00-.256-.256h-3.311a.257.257 0 00-.257.256V8.95c0 .141.115.256.257.256zm.256-3.311h2.798v2.799H11.9v-2.8zm5.191 3.311h3.311a.257.257 0 00.257-.256V5.637a.257.257 0 00-.257-.256h-3.31a.257.257 0 00-.257.256V8.95c0 .141.116.256.257.256zm.257-3.311h2.798v2.799h-2.798v-2.8zm-5.704 8.545h3.31a.256.256 0 00.257-.256v-3.311a.257.257 0 00-.256-.257h-3.311a.257.257 0 00-.257.257v3.31c0 .142.115.257.257.257zm.256-3.311h2.798v2.798H11.9v-2.798zm5.191 3.311h3.311a.257.257 0 00.257-.256v-3.311a.257.257 0 00-.257-.257h-3.31a.257.257 0 00-.257.257v3.31c0 .142.116.257.257.257zm.257-3.311h2.798v2.798h-2.798v-2.798zm-5.704 8.544h3.31a.256.256 0 00.257-.256v-3.31a.257.257 0 00-.256-.257h-3.311a.257.257 0 00-.257.256v3.311c0 .142.115.256.257.256zm.256-3.31h2.798v2.798H11.9v-2.8zm5.191 3.31h3.311a.257.257 0 00.257-.256v-3.31a.257.257 0 00-.257-.257h-3.31a.257.257 0 00-.257.256v3.311c0 .142.115.256.257.256zm.257-3.31h2.798v2.798h-2.798v-2.8z"/></g><defs><clipPath id="clip0_500_9017"><path fill="#fff" d="M0 0h31.765v30H0z"/></clipPath></defs></svg>