<svg width="656" height="578" fill="none" xmlns="http://www.w3.org/2000/svg"><path d="M217.58 75.81v317.65m25.81-315.337V393.46M4.155 424.959c1.958-.178 225.173-33.456 225.173-33.456l367.931 50.895v2.136L229.15 397.375 4.155 427.628v-2.669 0z" stroke="#C07B0B" stroke-opacity=".41" stroke-width=".702" stroke-miterlimit="10" stroke-linecap="round"/><path d="M5.935 427.45c1.958-.178 223.215-29.897 223.215-29.897l366.329 46.981v2.135l-366.507-43.243L5.757 430.119v-2.669h.178z" stroke="#C07B0B" stroke-opacity=".41" stroke-width=".59" stroke-miterlimit="10" stroke-linecap="round"/><path d="M9.495 429.585c1.958-.178 219.477-26.159 219.477-26.159l362.947 42.709v2.136l-363.125-38.973-219.3 22.957v-2.67z" stroke="#C07B0B" stroke-opacity=".41" stroke-width=".582" stroke-miterlimit="10" stroke-linecap="round"/><path d="M18.217 431.365v13.169l209.687-23.847 364.015 37.015v-9.431l-363.125-38.973-210.577 22.067z" stroke="#C07B0B" stroke-opacity=".41" stroke-width=".582" stroke-miterlimit="10" stroke-linecap="round"/><path d="M18.217 444.534h9.968l199.719-21.355 364.015 34.523-364.015-37.014-209.687 23.846z" stroke="#C07B0B" stroke-opacity=".41" stroke-width=".374" stroke-miterlimit="10" stroke-linecap="round"/><path d="M214.02 424.602v5.695h2.492v109.265l10.68.712 13.528-.89V431.365h2.67v-6.763l-15.486-1.423-13.884 1.423z" stroke="#C07B0B" stroke-opacity=".41" stroke-width=".374" stroke-miterlimit="10" stroke-linecap="round"/><path d="M21.599 452.541l206.305-17.261 12.816 1.068M21.599 454.499l206.305-16.372 12.816 1.068m-24.208 90.579h24.208m-12.816-91.647v91.647" stroke="#C07B0B" stroke-opacity=".41" stroke-width=".374" stroke-miterlimit="10" stroke-linecap="round"/><path d="M216.512 537.782l-195.625-5.694v-87.554" stroke="#C07B0B" stroke-opacity=".41" stroke-width=".374" stroke-miterlimit="10" stroke-linecap="round"/><path d="M167.561 429.585v106.773l-4.272 1.246V437.059s-3.382-4.449-2.136-8.72l6.408 1.246zm-15.842-.178c-1.246 4.271 2.136 8.72 2.136 8.72v98.943l9.434.534" stroke="#C07B0B" stroke-opacity=".41" stroke-width=".374" stroke-miterlimit="10" stroke-linecap="round"/><path d="M112.38 435.458v99.299l-3.916 1.068V442.22s-3.204-4.093-1.958-8.186l5.874 1.424zm-12.638 0c-1.068 3.915 1.958 8.186 1.958 8.186v92.003l6.586.178" stroke="#C07B0B" stroke-opacity=".41" stroke-width=".553" stroke-miterlimit="10" stroke-linecap="round"/><path d="M112.38 435.458v99.299l-3.916 1.068V442.22s-3.204-4.093-1.958-8.186l5.874 1.424zm-12.638 0c-1.068 3.915 1.958 8.186 1.958 8.186v92.003l6.586.178" stroke="#C07B0B" stroke-opacity=".41" stroke-width=".553" stroke-miterlimit="10" stroke-linecap="round"/><path d="M65.21 440.618v92.893l-3.204 1.068v-87.376s-2.67-3.559-1.602-7.474l4.806.889z" stroke="#C07B0B" stroke-opacity=".41" stroke-width=".502" stroke-miterlimit="10" stroke-linecap="round"/><path d="M54.886 440.44c-.89 3.915 1.601 8.186 1.601 8.186v85.775l5.519.178" stroke="#C07B0B" stroke-opacity=".41" stroke-width=".502" stroke-miterlimit="10" stroke-linecap="round"/><path d="M28.72 444.534v87.732l-3.027 1.068V450.94s-2.492-3.381-1.602-7.118l4.628.712zm-9.969 0c-.89 3.737 1.602 7.83 1.602 7.83v80.792l5.162.178m142.046-4.272l-147.208-1.957" stroke="#C07B0B" stroke-opacity=".41" stroke-width=".234" stroke-miterlimit="10"/><path d="M494.018 457.88L240.72 436.348m351.199 29.896l-55.003-4.627m-42.898-1.601L240.72 439.195m351.199 29.007l-55.003-4.627m-296.018 74.207l351.021-12.279v-67.801" stroke="#C07B0B" stroke-opacity=".41" stroke-width=".374" stroke-miterlimit="10" stroke-linecap="round"/><path d="M319.753 431.899v103.748l4.272 1.067v-97.519s3.382-4.449 2.136-8.542l-6.408 1.246zm15.842-1.246c1.246 4.093-2.136 9.787-2.136 9.787v95.918l-9.434.534" stroke="#C07B0B" stroke-opacity=".41" stroke-width=".587" stroke-miterlimit="10" stroke-linecap="round"/><path d="M392.022 438.839v93.96l3.916 1.068v-88.266s3.026-3.737 1.958-7.474l-5.874.712zm12.46-.178c1.068 3.737-1.958 7.652-1.958 7.652v87.376l-6.586.178" stroke="#C07B0B" stroke-opacity=".41" stroke-width=".54" stroke-miterlimit="10" stroke-linecap="round"/><path d="M444.533 443.644v87.376l3.204 1.068V450.05s2.67-2.669 1.602-6.584l-4.806.178z" stroke="#C07B0B" stroke-opacity=".41" stroke-width=".491" stroke-miterlimit="10" stroke-linecap="round"/><path d="M454.857 443.466c.89 3.737-1.602 6.94-1.602 6.94v81.326l-5.518.178" stroke="#C07B0B" stroke-opacity=".41" stroke-width=".491" stroke-miterlimit="10" stroke-linecap="round"/><path d="M536.916 523.368l55.003-1.246m-351.199 7.652l253.298-5.516" stroke="#C07B0B" stroke-opacity=".41" stroke-width=".234" stroke-miterlimit="10"/><path d="M10.74 201.98L227.905 53.209l353.869 235.969v4.627L227.904 59.971 10.741 206.785v-4.805z" stroke="#C07B0B" stroke-opacity=".41" stroke-width=".702" stroke-miterlimit="10" stroke-linecap="round" stroke-linejoin="round"/><path d="M10.74 206.785h7.477L227.904 68.869l347.461 224.936h6.408" stroke="#C07B0B" stroke-opacity=".41" stroke-width=".374" stroke-miterlimit="10" stroke-linecap="round"/><path d="M227.904 68.87v322.633" stroke="#C07B0B" stroke-opacity=".41" stroke-width=".702" stroke-miterlimit="10" stroke-linecap="round"/><path d="M18.217 206.785v216.394m557.148-129.374v145.568M58.802 174.397v242.732m5.34-.713V170.66l4.806 2.847v242.198" stroke="#C07B0B" stroke-opacity=".41" stroke-width=".374" stroke-miterlimit="10" stroke-linecap="round"/><path d="M10.74 206.962v217.106" stroke="#C07B0B" stroke-opacity=".41" stroke-width=".702" stroke-miterlimit="10" stroke-linecap="round"/><path d="M16.259 423.357V203.403l4.628 1.602v217.284" stroke="#C07B0B" stroke-opacity=".41" stroke-width=".374" stroke-miterlimit="10" stroke-linecap="round"/><path d="M102.412 144.678v266.044m7.12-1.068V140.051l6.052 2.67v266.043m40.585-300.389v293.627m6.942-.356V103.749l6.052 3.737v293.271" stroke="#C07B0B" stroke-opacity=".41" stroke-width=".677" stroke-miterlimit="10" stroke-linecap="round"/><path d="M454.501 209.454v213.191m-5.518-.712V205.895l-4.628 3.203v212.301m58.029-180.447v188.277m-5.34-.712V237.749l-4.806 2.135v187.922m44.678-164.253v170.481m-5.34-.711V260.35l-4.628 2.135v170.126" stroke="#C07B0B" stroke-opacity=".41" stroke-width=".374" stroke-miterlimit="10" stroke-linecap="round"/><path d="M581.773 293.271V440.44" stroke="#C07B0B" stroke-opacity=".41" stroke-width=".702" stroke-miterlimit="10" stroke-linecap="round"/><path d="M576.433 439.551V290.068l-4.628 2.135v146.992" stroke="#C07B0B" stroke-opacity=".41" stroke-width=".374" stroke-miterlimit="10" stroke-linecap="round"/><path d="M400.566 174.041v241.13m-6.942-.89V169.414l-6.23 2.669v241.308m-54.469-284.017v276.543m-7.12-1.068V124.747l-6.052 3.737v275.653" stroke="#C07B0B" stroke-opacity=".41" stroke-width=".677" stroke-miterlimit="10" stroke-linecap="round"/><path d="M562.015 454.855v71.894l3.026 1.068v-66.022s2.492-2.669 1.602-6.406l-4.628-.534z" stroke="#C07B0B" stroke-opacity=".41" stroke-width=".234" stroke-miterlimit="10"/><path d="M571.805 455.567c1.068 4.093-1.602 6.406-1.602 6.406v65.488l-5.162.178M56.487 471.761l-27.768 1.423m27.768 40.574l-27.768-.712m27.768 3.026H28.72m3.203-42.887v40.04m33.287.178l36.668-.178m-36.668 2.313h36.668M65.21 471.049l36.668-1.424m-32.574 1.246l.178 42.531m42.898-44.133l42.009-1.067m-42.009 44.489l40.941-.178m-40.941 2.491l41.475-.178m-37.381-45.735v43.066m51.087-45.201l48.951-.712m-26.701.356v70.471m-18.69-66.734h15.308v47.514h-14.418l-.89-47.514zm21.538 0v47.514h20.471v-48.048l-20.471.534zm127.094 50.184l-79.033 1.601m.178-4.271l78.855-1.246m-78.855-51.606l78.855 1.245m-3.382-.712v51.073m17.088-50.361l58.029 1.958m-58.029 47.87l58.563-.356m-58.563 3.559l58.563-.356m-3.738-50.717v47.514m14.24 0h42.009m-42.009 3.559l42.009-.356m-42.009-50.717l42.009 1.067m-2.67.001v46.446" stroke="#C07B0B" stroke-opacity=".41" stroke-width=".234" stroke-miterlimit="10"/><path d="M494.018 448.271v80.613m42.898-76.876v75.453" stroke="#C07B0B" stroke-opacity=".41" stroke-width=".374" stroke-miterlimit="10" stroke-linecap="round"/><path d="M501.494 528.707v-71.895l29.192 2.314v68.335m-77.431-11.745h40.763m-40.763 3.203l40.763-.534m-40.763-49.115l40.763 1.957m-2.848-.178v44.667m45.746-42.354l25.099 1.068m-25.099 39.862h25.099m-25.099 2.136l25.099-.356m-2.67-41.642v39.506" stroke="#C07B0B" stroke-opacity=".41" stroke-width=".234" stroke-miterlimit="10"/><path d="M48.833 213.191v35.057m0 15.661v35.057m0 20.109v35.057m0 16.016v35.057" stroke="#C07B0B" stroke-opacity=".41" stroke-width=".374" stroke-miterlimit="10" stroke-linecap="round"/><path d="M526.948 527.817V458.77m-279.642-12.457l-.712 13.703 65.861 1.245V449.16l-65.149-2.847zm-36.49 0v13.703s-38.093 1.601-37.559 1.067c.534-.534-.356-11.033 0-11.567.356-.356 37.559-3.203 37.559-3.203zm-62.479 17.44l-30.795 1.779v-12.991l30.795-4.27v15.482zm-51.621 1.779L69.304 466.6l-.356-11.211 27.768-1.602v11.745zm-44.144 3.559l-20.649.712-.534-10.677 21.183-2.136v12.101zm284.626-7.83l50.196 2.314v-8.186l-50.196-4.093v9.965zm70.667 2.67l32.574 1.601v-6.762l-32.574-1.958v7.119zm48.95 2.313l32.753 1.958v-5.695l-32.753-2.491v6.228zm82.949 4.805l18.869 1.245v-4.092l-18.869-1.068v3.915z" stroke="#C07B0B" stroke-opacity=".41" stroke-width=".234" stroke-miterlimit="10"/><path d="M469.809 214.437v-17.262l-13.884-13.169v21.177m0-21.177l-14.062 11.034" stroke="#C07B0B" stroke-opacity=".41" stroke-width=".374" stroke-miterlimit="10" stroke-linecap="round"/><path d="M58.801 206.962l-12.638 7.652v34.88l12.639-5.873m-20.471 9.61V218.53l-13.884 7.296v33.634l13.884-6.229zM26.94 224.58v33.812m75.472-77.055l-12.638 8.008v37.904l12.638-6.406m-15.664-29.897v37.727l-13.172 5.872v-35.591l13.172-8.008zm-11.036 6.763v35.947m16.554-45.913v38.261m41.653-63.175l-16.377 10.144v39.684l17.089-9.254-.712-40.574zm22.25 29.719l-18.156 9.076V160.16l18.156-11.211M119.5 171.727v39.684m20.827-52.675v41.642m32.93-61.751v44.845l16.554-9.076v-46.268l-16.554 10.499zm41.831 21.355l-20.115 11.389v-46.802l20.115-13.703v49.116zm-39.695-22.6v45.201m21.36-59.26v46.981m-137.952 88.8l-12.638 6.05v34.879l12.639-4.449m-20.471 7.119v-34.524l-13.884 5.517v33.633l13.884-4.626zM26.94 272.806v33.812m75.472-68.158l-12.638 6.585v37.904l12.638-4.982m-15.664-31.676v37.726l-13.172 4.271v-35.413l13.172-6.584zm-11.036 5.516v35.769m16.554-43.777v38.261m41.653-58.191l-16.377 8.008v39.862l17.089-7.296-.712-40.574zm22.25 32.209l-18.156 7.119v-41.464l18.156-9.076m-36.669 18.33v39.684m20.827-50.006v41.464m32.93-57.836v44.845l16.554-7.118v-46.269l-16.554 8.542zm41.831 26.338l-20.115 9.075v-46.802l20.115-11.211v48.938zm-39.695-27.405v45.378m21.36-56.768v46.803M58.801 315.693l-12.638 4.271v34.88l12.639-2.492m-20.471 3.915v-34.701l-13.884 3.559v33.634l13.884-2.492zM26.94 324.413v33.99m75.472-56.412l-12.638 4.627v37.904l12.638-3.025M86.748 307.33v37.726l-13.172 2.314v-35.592l13.172-4.448zm-11.036 3.736v35.947m16.554-41.285v38.26m41.653-51.785l-16.377 5.695v39.684l17.089-4.627-.712-40.752zm22.25 35.947l-18.156 4.093V290.78l18.156-6.229M119.5 297.186v39.684m20.827-46.802v41.464m32.93-52.498v44.667l16.554-4.449v-46.268l-16.554 6.05zm41.831 32.744l-20.115 5.873v-46.803l20.115-8.008v48.938zm-39.695-33.633v45.378m21.36-53.386v46.802M58.801 366.944l-12.638 4.093v34.88l12.639-2.314m-20.471 3.56v-34.702l-13.884 3.204v33.633l13.884-2.135zM26.94 375.13v33.99m75.472-50.717l-12.638 3.915v37.904l12.638-2.313M86.748 363.03v37.726l-13.172 1.602v-35.591l13.172-3.737zm-11.036 3.203v35.769m16.554-40.396v38.26m41.653-47.336l-16.377 3.915v39.862l17.089-2.847-.712-40.93zm22.25 38.083l-18.156 2.313v-41.464l18.156-4.271m-36.669 8.898v39.684m20.827-44.845v41.642m32.93-49.294v44.667l16.554-2.669v-46.269l-16.554 4.271zm41.831 37.015l-20.115 3.915v-46.802l20.115-6.05v48.937zm-39.695-37.548v45.2m21.36-51.073v46.802m164.475-208.03l21.538 14.059.356 37.904-22.606-13.169.712-38.794zm-28.837 22.778l23.675 13.703-.356-40.396-22.785-15.66m47.171 32.032l.356 37.727m-27.768-56.056l.356 40.395m8.722 24.38l21.538 11.212.356 37.726-22.784-9.787.89-39.151zm-29.015 27.05l23.853 10.143-.356-40.218-23.853-13.168m48.239 25.981l.356 37.905m-27.768-52.32l.356 40.574m8.722 30.253l21.538 7.474.178 37.905-22.606-6.051.89-39.328zm-28.837 32.21l23.675 6.05-.356-40.218-23.675-8.897m48.061 17.439l.356 37.727m-27.768-47.336l.356 40.396m100.393-105.884l12.282 8.186v31.142l-12.282-6.584m19.936 10.677v-30.964l13.707 8.008v29.897l-13.707-6.941zm11.215-24.38v30.074m-21.361-42.531v31.321m-9.79 8.719l12.282 6.763v31.142l-12.282-4.983m19.936 8.186V289l13.707 6.228v29.897l-13.707-5.161zm11.215-25.803v30.074m-21.361-40.04v31.498m-9.79 14.237l12.282 4.627v31.32l-12.282-3.203m19.936 4.982v-30.964l13.707 4.093v29.896l-13.707-3.025zm11.215-27.583v30.253m-21.361-36.659v31.498m-9.79 10.855l12.282 4.271v31.32l-12.282-2.847m19.936 4.271v-30.786l13.707 3.559v29.896l-13.707-2.669zm11.215-27.939v30.252m-21.361-35.947V410.9m38.093-147.704l8.01 5.339v27.583l-8.01-4.093m12.994 6.762v-27.583l9.078 5.339v26.871l-9.078-4.627zm7.476-23.312v27.227m-14.062-35.413v27.939m-6.408 9.076l8.01 4.271v27.761l-8.01-3.025m12.994 4.983V310.71l9.078 4.093v26.872l-9.078-3.381zm7.476-24.202v27.049m-14.062-33.455v27.939m-6.408 13.524l8.01 3.025v27.761l-8.01-1.779m12.994 2.669v-27.583l9.078 2.491v27.049l-9.078-1.957zm7.476-25.448v27.05m-14.062-30.965v27.939m-6.408 10.322l8.01 3.025v27.761l-8.01-1.78m12.994 2.67v-27.584l9.078 2.492v26.871l-9.078-1.779zm7.476-25.626V423m-14.062-30.964v27.939m28.302-140.229l11.57 8.364v25.448l-11.57-6.763m18.691 10.856v-25.092l12.816 8.008v24.024l-12.816-6.94zm10.502-18.508v24.202m-20.115-37.014v25.803m-9.078 6.051l11.57 6.762v25.448l-11.57-5.161m18.691 8.186v-25.092l12.816 6.229v24.024l-12.816-5.161zm10.502-19.931v24.202m-20.115-34.168v25.804m-9.078 10.855l11.57 4.627v25.448l-11.57-3.026m18.691 4.805v-25.092l12.816 4.093v24.024l-12.816-3.025zm10.502-21.71v24.202m-20.115-30.609v25.626m-9.078 8.541l11.57 3.915v25.448l-11.57-2.135m18.691 3.559v-25.092l12.816 3.203v23.846l-12.816-1.957zm10.502-22.423v24.202m-20.115-29.362v25.625m-146.14-223.512l18.335 11.567.178 34.346-18.335-9.61m22.607-22.422v34.167l19.046 8.898v-31.676l-19.046-11.389zm16.02 9.61l.178 32.032m-24.03-46.269l.178 34.88m-14.953 8.541l18.335 9.432.178 34.345-18.335-7.474m22.607-25.091v34.167l19.046 6.584v-31.498l-19.046-9.253zm16.02 7.83v31.854m-23.852-43.244l.178 34.702m-14.775 16.016l18.335 6.762v34.346l-18.335-4.805m22.607-28.295v34.167l19.046 3.915V329.04l-19.046-6.584zm16.02 5.516l.178 32.032m-24.03-40.04l.178 34.702m-14.775 11.745l18.335 5.338v34.346l-18.335-3.381m22.607-30.075v34.168l19.046 2.491V377.8l-19.046-5.161zm16.02 4.449l.178 31.854m-24.03-38.26l.178 34.879m-52.867-46.447l21.36 4.805.356 37.727-22.606-3.026.89-39.506zm-28.837 36.125l23.675 2.848-.356-40.396-23.675-5.695m48.061 11.389l.178 37.727m-27.59-44.133l.356 40.574m-39.339-245.757l.178 43.243-27.056-14.058-.178-45.557 27.056 16.372zm-68.353 6.229l33.109 18.329v-46.268l-33.109-21.711v49.65zm65.149-8.186l.178 43.777m-35.244-65.31l.178 46.269m38.27 40.573l.178 43.243-27.056-10.855-.178-45.557 27.056 13.169zm-68.353 14.415l33.109 14.414-.178-46.268-33.109-17.796.178 49.65zm65.149-16.016v43.777m-35.066-61.217l.178 46.446m38.27 44.667l.178 43.066-27.056-6.763-.178-45.556 27.056 9.253zm-68.353 24.381l33.109 9.431-.178-46.268-33.109-12.635.178 49.472zm65.149-25.448v43.777m-35.066-56.234l.178 46.446m38.27 29.007v43.243l-27.056-4.093V342.92l27.056 6.229zm-68.353 31.854l33.109 5.873-.178-46.269-33.109-9.253.178 49.649zm64.971-32.565l.178 43.777m-35.066-52.498v46.447" stroke="#C07B0B" stroke-opacity=".41" stroke-width=".234" stroke-miterlimit="10" stroke-linecap="round"/><path d="M-35.54 213.191L-.473 186.32l35.066-26.872 70.489-53.386 70.667-53.031 35.245-26.694L246.594 0l-35.066 26.871-35.245 26.694-70.489 53.564-70.667 53.031-35.244 26.516-35.423 26.515z" fill="#C07B0B" fill-opacity=".41" opacity=".5"/><path d="M156.169 5.339l58.741 38.794 58.741 39.15 117.659 77.945 117.304 78.478 58.563 39.151 58.563 39.328-58.919-38.794-58.741-39.151-117.482-77.944-117.303-78.479-58.741-39.15L156.169 5.34zm-171.95 422.644l77.43-11.923 77.254-11.745 154.506-23.49 154.684-22.956 77.431-11.567 77.431-11.212-77.431 11.923-77.253 11.745-154.506 23.313-154.684 23.134-77.431 11.389-77.431 11.389zm671.247 94.673L148.515 577.11l506.773-55.7c.356 0 .712.178.712.534 0 .356-.178.712-.534.712z" fill="#C07B0B" fill-opacity=".41" opacity=".5"/><path d="M-47.288 533.867l359.387 43.955-359.565-42.709c-.356 0-.534-.356-.534-.712 0-.178.356-.534.712-.534zm633.511-92.893l.712-393.104.712 393.104c0 .356-.356.712-.712.712s-.712-.356-.712-.712z" fill="#C07B0B" fill-opacity=".41" opacity=".5"/></svg>