<svg width="488" height="251" fill="none" xmlns="http://www.w3.org/2000/svg"><g opacity=".85" clip-path="url(#clip0_180_6455)"><path d="M200.698 189.814l.121 23.308-.121-.121c.608.243 1.216.364 1.824.243.609-.122 1.095-.607 1.46-1.093v.122l-.122-23.066h.73l-.121 23.066v.121c-.365.607-.974 1.093-1.703 1.214-.73.121-1.46 0-2.068-.243h-.122v-.121l.122-23.43zm170.289-23.065l-.122 22.094-.122-.121a3.067 3.067 0 001.825.242c.608-.121 1.095-.485 1.46-1.092v.121l.121-23.065.122 23.065c-.365.607-.973 1.093-1.703 1.214-.73.122-1.46 0-2.068-.243h-.122v-.121l-.121-22.094h.73z" fill="#D38E1F" fill-opacity=".7"/><path d="M195.954 170.148l4.866 19.545h-.365l-.244-20.638h.73l-.243 20.638c0 .121-.122.243-.122.243-.121 0-.121-.122-.121-.122l-4.501-19.666z" fill="#D38E1F" fill-opacity=".7"/><path d="M367.946 167.113l6.082-.85v-11.654" stroke="#D38E1F" stroke-opacity=".7" stroke-width=".606" stroke-miterlimit="10"/><path d="M200.698 169.177l.243 20.637-.243-.243c18.245-2.549 36.49-5.098 54.736-7.526 18.245-2.428 36.49-4.856 54.735-7.041-18.245 2.67-36.368 5.22-54.614 7.769a4234.583 4234.583 0 01-54.736 7.284h-.243v-.243l.122-20.637zm127.108-40.304l-53.154-6.07-53.155-6.191h-39.045l.365-.364 4.987 42.853-.365-.243 66.778-6.556 33.328-3.277 33.328-3.157-33.328 3.521-33.328 3.399-66.656 6.798c-.122 0-.365-.121-.365-.242l-4.987-42.854c0-.242.122-.364.243-.364h39.045l53.033 6.434 53.276 6.313zm52.303 11.047l5.474-.728 5.474-.607 5.473-.607 5.474-.607v.728c-3.406-.486-6.812-.85-10.096-1.335-3.406-.486-6.812-.972-10.096-1.457 3.406.243 6.812.607 10.218.971l10.217 1.093c.243 0 .365.242.365.364 0 .121-.122.364-.365.364l-5.474.486-5.473.485-5.474.486-5.717.364z" fill="#D38E1F" fill-opacity=".7"/><path d="M182.575 116.248v4.127c.973 8.498 1.824 16.874 2.797 25.372l2.555 25.372h-.73v-12.018c-.852-7.041-1.581-14.204-2.311-21.366-.73-6.92-1.46-14.204-2.311-21.487zm0 0c.851 7.041 1.703 14.082 2.676 21.244.973 7.162 1.824 14.446 2.676 21.609v12.018h-.73l-2.433-25.372c-.73-8.498-1.581-16.996-2.311-25.372l.122-4.127z" fill="#D38E1F" fill-opacity=".7"/><path d="M320.995 145.868l-33.328 3.521-33.328 3.399-66.778 6.798.365-.364v12.018l-.365-.364 64.832-7.891 32.476-3.884 32.355-3.885-32.355 4.249-32.476 4.006-64.71 8.134h-.487v-12.747h.365l66.656-6.556 33.45-3.277 33.328-3.157zm56.073 1.579l25.057-2.914-.121.243v-7.041l.243.121-22.138 2.064 22.016-2.307h.243v7.284l-.121.122-25.179 3.156v-.728z" fill="#D38E1F" fill-opacity=".7"/><path d="M309.562 227.326l25.543-10.197 25.543-10.076-.243.242c2.311-2.549 3.771-5.584 4.744-8.862.973-3.277 1.459-6.676 1.824-10.197.608-6.92.73-13.839.122-20.759v-.243l.122-.242c1.824-3.642 3.649-7.284 5.351-11.048 1.703-3.763 3.406-7.405 4.866-11.29 3.162-7.526 5.96-15.296 8.393-23.065l.121-.243.244-.121c1.338-.364 2.311-2.064 1.824-3.399l.365.243-28.098-.122h-14.109c-2.311 0-4.744-.121-7.055-.121-1.217 0-2.311.121-3.406.243-.608.121-1.095.121-1.703.242-.608.122-1.095.243-1.581.486-.852.364-.852 1.699-1.338 2.792-.365 1.093-.852 2.185-1.338 3.278l-2.554 6.555-5.109 13.111-5.109 13.111c-1.703 4.37-3.527 8.741-4.987 13.111-1.459 4.37-2.311 8.862-2.432 13.475-.244 4.613 0 9.226 0 13.961 0 4.734-.365 9.469-1.703 14.203-1.338 4.613-3.528 9.105-7.177 12.504a18.94 18.94 0 01-6.325 3.885c-2.311.849-4.865 1.214-7.298 1.214-4.865-.122-9.609-1.7-13.745-4.249-4.135-2.55-7.541-6.07-10.46-9.712-2.92-3.763-5.474-7.769-7.907-11.654l1.095.243c-.851.364-1.581.607-2.433.607-.851 0-1.703-.122-2.432-.365-.852-.364-1.582-1.092-1.825-2.063-.243-.971-.121-1.821.243-2.671.73-1.7 2.433-2.428 3.893-2.914 1.459-.485 2.919-.607 4.135-.971l24.692-4.734 24.814-4.613v.242l-24.57 5.342-24.692 5.22h.121c-1.459.486-2.919.607-4.135 1.093-1.217.364-2.433 1.092-2.798 2.063-.243.486-.243 1.093-.122 1.579.122.485.487.728.973.971.974.364 2.433.364 3.406-.122l.73-.364.365.607c2.554 3.885 5.109 7.891 7.906 11.411 2.92 3.521 6.204 6.799 10.096 9.227 3.892 2.306 8.271 3.884 12.772 3.884 2.189 0 4.5-.364 6.568-1.092 2.068-.729 4.014-1.943 5.595-3.399 3.284-3.035 5.352-7.163 6.568-11.533 1.338-4.37 1.582-8.983 1.703-13.597.122-4.613-.121-9.347.122-14.082.243-4.734 1.095-9.469 2.676-13.96 1.581-4.492 3.406-8.741 5.23-13.111l5.352-12.99 5.352-12.989c.852-2.185 1.703-4.37 2.676-6.434.487-1.093.973-2.185 1.338-3.157.243-.485.365-1.092.608-1.699.122-.243.244-.607.365-.85.243-.243.487-.607.852-.728.608-.243 1.216-.364 1.824-.486.608-.121 1.217-.243 1.825-.243 1.216-.121 2.311-.121 3.527-.121 2.311 0 4.744.121 7.055.243l13.988.121 28.098-.121h.243l.122.243c.608 1.82-.487 4.006-2.311 4.613l.364-.365c-2.311 7.891-4.987 15.661-7.906 23.309a187.372 187.372 0 01-4.744 11.411c-1.702 3.763-3.405 7.405-5.352 11.169l.122-.486c.243 3.52.487 7.041.365 10.561 0 3.521-.243 7.042-.608 10.562-.365 3.521-.852 7.041-1.946 10.44-1.095 3.399-2.676 6.677-5.109 9.469l-.122.122-.121.121-25.787 9.59-25.787 9.469-.364-.728zm-75.901-109.622l1.095-8.983v-.243h.243l10.217.122h.122v.121c-.486 3.399-.851 6.798-.973 10.197.122-3.399.365-6.919.73-10.318l.121.121-10.217.121.243-.242-.851 9.104h-.73zm13.623 1.7c.122-1.821.243-3.642.487-5.463.121-.85.243-1.821.486-2.671.244-.85.365-1.821.73-2.67l.122-.122h.121l12.285-.364h.244l-.122.243c-.73 1.942-1.216 4.127-1.46 6.191-.243 2.064-.243 4.249-.121 6.434a56.598 56.598 0 010-6.434c.243-2.185.608-4.249 1.338-6.313l.121.122-12.285.607.244-.122c-.365.729-.487 1.7-.73 2.55-.122.849-.243 1.821-.365 2.67a39.465 39.465 0 00-.365 5.342h-.73zm17.516 2.064c.121-2.307.243-4.613.608-6.799.122-1.092.365-2.306.608-3.399.365-1.092.608-2.306 1.46-3.156l.121-.121h.122l16.056-.486h.122v.121c-.609 2.55-.974 5.22-1.46 7.891-.365 2.671-.608 5.22-.608 7.891 0-2.671.243-5.341.486-7.891.365-2.671.73-5.22 1.338-7.891l.122.122-15.934.728.121-.121c-.729.728-.973 1.942-1.338 2.913-.243 1.093-.486 2.185-.608 3.278-.243 2.185-.365 4.492-.486 6.798l-.73.122zm25.665 3.035c.121-2.914.243-5.706.608-8.62.122-1.456.365-2.913.73-4.249.365-1.456.73-2.792 1.459-4.127l.122-.121h.122l20.799-.243h.244l-.122.121c-.608 1.578-.973 3.156-1.338 4.735-.365 1.578-.608 3.277-.851 4.977a34.158 34.158 0 00-.365 4.977c-.122 1.7-.122 3.399-.122 4.977v-4.977c.122-1.699.122-3.399.365-4.977.243-1.7.486-3.278.73-4.977.365-1.7.729-3.278 1.338-4.856l.121.121-20.799.607.243-.121c-.73 1.214-1.095 2.549-1.338 4.006a299.793 299.793 0 00-.73 4.249c-.365 2.792-.486 5.705-.486 8.498h-.73z" fill="#D38E1F" fill-opacity=".7"/><path d="M325.738 128.63c.122-3.642.487-7.284.973-10.804.487-3.642 1.217-7.163 2.433-10.562v-.121h.122l35.639-.971h.365l-.122.364a87.292 87.292 0 00-2.554 11.168l-.73-.121c.73-3.763 1.581-7.527 2.676-11.29l.243.364-35.639.607.122-.121c-1.217 3.399-1.946 6.919-2.555 10.561-.486 3.642-.851 7.284-.973 10.926z" fill="#D38E1F" fill-opacity=".7"/><path d="M386.556 146.718c.122 2.428-.486 4.978-1.459 7.284-.487 1.214-1.095 2.549-2.068 3.521-2.19 2.306-5.717 2.67-8.88 2.913" stroke="#D38E1F" stroke-opacity=".7" stroke-width=".606" stroke-miterlimit="10"/><path d="M399.572 175.004l-.365 22.458-.365-22.458h.73zm3.77 0l-.365 19.302-.365-19.302h.73zm-157.518-35.448l24.327-2.185c4.014-.365 8.15-.729 12.164-1.093 4.014-.243 8.149-.486 12.163-.607v.121c-4.014.486-8.149.85-12.163 1.336-4.014.364-8.15.607-12.164.85l-24.327 1.578z" fill="#D38E1F" fill-opacity=".7"/><path d="M290.83 136.035l12.285 3.764c2.068.607 4.136 1.214 6.082 1.942 2.068.728 4.014 1.457 5.96 2.306v.122c-2.068-.486-4.136-1.093-6.203-1.7-2.068-.607-4.014-1.335-6.082-2.063l-12.042-4.371zm-48.168 5.463c2.919 1.336 5.839 2.792 8.636 4.128 1.46.728 2.919 1.335 4.257 2.063a74.102 74.102 0 014.136 2.428v.122c-1.581-.486-2.919-1.214-4.379-1.943a73.174 73.174 0 01-4.257-2.306c-2.798-1.336-5.595-2.792-8.393-4.492z" fill="#D38E1F" fill-opacity=".7"/><path d="M256.285 150.603l28.584-3.156c4.744-.486 9.488-1.093 14.232-1.579 4.743-.364 9.487-.849 14.353-1.092v.121c-4.744.729-9.488 1.214-14.232 1.821-4.743.486-9.487.971-14.231 1.336l-28.706 2.549z" fill="#D38E1F" fill-opacity=".7"/><path d="M270.151 137.613l10.461 4.492c1.703.729 3.527 1.457 5.23 2.307 1.703.849 3.406 1.699 4.987 2.67v.122c-1.824-.607-3.527-1.336-5.352-2.064-1.703-.728-3.405-1.578-5.108-2.428l-10.218-5.099zm-118.593-26.707l.121-41.64v-.242h.244l25.543.121h.122v.122l-.122 53.172-.243-53.172.243.121-25.543.122.243-.243.121 41.639h-.729z" fill="#D38E1F" fill-opacity=".7"/><path d="M154.477 80.193l20.921-.243v.485l-20.921-.242zm22.867-10.926l2.432-8.62.244-.728v.729l.243 37.39c0 6.191.122 12.504 0 18.695-.122 6.191-.122 12.504-.243 18.695h-.122c-.243-6.191-.243-12.504-.243-18.695V98.038l.243-37.39h.243l-2.797 8.619z" fill="#D38E1F" fill-opacity=".7"/><path d="M179.898 60.648c5.596.121 11.313.242 16.908.485 5.595.243 11.312.486 16.907.85 5.595.364 11.312.728 16.907.971l16.908.607h.243v.243c.121 7.527.121 15.175.121 22.701v-.121l.73 2.913v.122l-.121.121-.852.971.122-.242c0 4.491-.122 9.104-.122 13.596 0 4.492-.121 9.105-.243 13.597h-.122c-.121-4.492-.121-9.105-.243-13.597 0-4.492-.122-9.105-.122-13.596v-.122l.122-.121.73-.971-.122.364-.851-2.914c0-7.526 0-15.174.121-22.701l.244.243-16.908-.971c-5.595-.243-11.312-.486-16.907-.607-5.595-.122-11.312-.486-16.907-.729-5.23-.364-10.947-.728-16.543-1.092z" fill="#D38E1F" fill-opacity=".7"/><path d="M184.399 84.684l28.706.486h.122v20.152h-29.193v-.243l.365-20.395zm0 0l.243 20.395-.243-.243h28.706l-.243.243V85.291l.121.122-28.584-.729z" fill="#D38E1F" fill-opacity=".7"/><path d="M185.737 86.141c4.257 0 8.514.121 12.893.121 2.19 0 4.258 0 6.447.122l6.447.243h.121v.121l-.121 8.498v8.619h-.122c-8.636.121-17.151.121-25.787.121h-.243v-.242l.365-17.603zm0 0l.243 17.603-.243-.243c8.636 0 17.151 0 25.787.121l-.122.122v-8.498l-.122-8.498.122.121-6.447-.12c-2.067 0-4.257-.122-6.446-.122-4.136-.243-8.393-.364-12.772-.486zm31.504-23.794l-.365 53.901-.365-53.9h.73zm16.298.729l-.365 54.507-.486-54.507h.851zm1.338 0l-.365 49.044-.365-49.044h.73zm-43.18 53.172c-.121-1.336-.243-2.55-.365-3.885l-.364-1.821a7.006 7.006 0 00-.609-1.7v-.971h.244l14.474.122h.122c.486 1.335.851 2.549.973 3.884.243 1.336.243 2.671.122 4.006.243-2.67-.365-5.463-1.338-7.89h.121l-14.474.121.243-.243v.486-.122c.365.607.608 1.214.73 1.943.121.607.243 1.335.365 1.942.243 1.335.365 2.549.486 3.885l-.73.243z" fill="#D38E1F" fill-opacity=".7"/><path d="M151.923 69.267l-6.325-11.533" stroke="#D38E1F" stroke-opacity=".7" stroke-width=".606" stroke-miterlimit="10"/><path d="M145.718 111.513l.122-23.915.122.243-4.866-3.035.244-.122-.244 27.557-.121-27.557v-.364l.243.243 4.987 2.913h.122v.122l.121 23.915h-.73z" fill="#D38E1F" fill-opacity=".7"/><path d="M144.259 86.505l1.216-1.82-.243-32.778v.122l-4.379-10.805.608-.121c0 7.284.122 14.567 0 21.73l-.121 10.926c0 3.641-.122 7.283-.244 10.925-.121-3.642-.121-7.284-.243-10.925l-.122-10.926V39.525l.609 1.456 4.257 10.805-.243 32.777-1.095 1.942z" fill="#D38E1F" fill-opacity=".7"/><path d="M141.097 41.103h-2.919l.243 35.57c.122 11.896.122 23.671-.243 35.568h-.122c-.365-11.897-.365-23.672-.243-35.569l.243-35.57v-.12l3.041.12z" fill="#D38E1F" fill-opacity=".7"/><path d="M138.177 41.103c-1.095-1.943-2.311-3.885-3.406-5.949-.608-.97-1.216-1.942-1.703-3.035-.486-1.092-.973-2.063-1.338-3.156h.122c.73.85 1.338 1.942 1.825 2.914.608.97.973 2.063 1.581 3.034l2.919 6.192z" fill="#D38E1F" fill-opacity=".7"/><path d="M131.731 112.241V75.944v.121l-1.46-1.578h-.122l.122-.121 1.46-2.55-.122-54.022v.122l-12.893-31.078.243.122h-5.109l.244-.243.121 63.612-.121 31.806-.244 31.806-.243-31.806-.122-31.806v-63.976h5.596l.121.242 12.894 31.2-.122 54.021v.122l-1.46 2.549-.121-.121 1.459 1.456.122.122-.122 36.297h-.121z" fill="#D38E1F" fill-opacity=".7"/><path d="M118.959-13.283l.243 63.49c.122 10.562.122 21.124.122 31.807-.122 10.561-.122 21.123-.365 31.806h-.121c-.244-10.562-.244-21.123-.365-31.806 0-10.562 0-21.123.121-31.806l.365-63.491zM98.28-62.206l-.364 177.361-.365-177.361h.73z" fill="#D38E1F" fill-opacity=".7"/><path d="M22.259-1.629h8.758l67.142 51.594-.365.364-3.04-3.4-.122-.12.121-.122 2.92-6.677.121.364L64.223 8.69 30.895-23.116h.122-8.758v-.122l8.758-.121v.121L64.709 8.204 98.16 39.89l.122.121-.122.243-2.92 6.677v-.364l2.92 3.399-.365.485-66.9-51.958h.123-8.758v-.121z" fill="#D38E1F" fill-opacity=".7"/><path d="M31.017-44.604L31.26 78.25l.122 61.427c-.122 20.516-.122 40.911-.365 61.427h-.122c-.243-20.516-.243-40.911-.365-61.427l.122-61.427.365-122.854zm-8.757 2.307l.243 29.014V15.73l.121 58.028-.121 58.027V160.8l-.244 29.014-.121-29.014-.122-29.014-.121-58.027.121-58.028.122-29.014.121-29.014zm76.021 165.1l-.122 51.23v.121h-.121L0 266.659l97.795-92.748-.122.122-.122-51.23h.73z" fill="#D38E1F" fill-opacity=".7"/><path d="M97.916 170.755l9.852-8.862" stroke="#D38E1F" stroke-opacity=".7" stroke-width=".606" stroke-miterlimit="10"/><path d="M247.649 64.532v-1.335c3.163-2.306 6.447-4.492 9.731-6.555 3.284-2.186 6.569-4.25 9.853-6.313h.243l3.284.486h.122v.12a280.42 280.42 0 000 14.326c.121 4.734.121 9.59.121 14.325V93.91c-.121 4.734-.121 9.59-.243 14.324h-.122c-.121-4.734-.243-9.59-.243-14.325-.121-4.734-.121-9.59 0-14.324 0-4.735.122-9.59.122-14.325.121-4.735.121-9.59 0-14.325l.121.121-3.284-.364h.122c-3.284 2.185-6.568 4.37-9.853 6.434-3.284 2.064-6.689 4.249-9.974 6.191v-.121 1.335z" fill="#D38E1F" fill-opacity=".7"/><path d="M267.476 50.208c.243 4.855.365 9.711.243 14.446-.122 4.856-.243 9.712-.122 14.446.244 9.712.244 19.302-.121 29.014h-.122c-.487-9.712-.365-19.302-.122-29.014.122-4.856 0-9.712-.121-14.446-.122-4.735 0-9.59.365-14.446zm3.041 3.156L290.83 42.68l-20.07 11.29-.243-.607zm21.529 58.756c0-5.099-.122-10.197-.122-15.417l-.121-15.418v-.121l.121-.122 1.703-1.7-.121.244-1.703-4.735V57.127l.121-17.724v-.121h.122l10.339-5.706 10.217-5.827 20.557-11.654h.243l4.5.486h.244V61.74l-.122 22.459c0 7.526-.122 14.932-.243 22.458h-.122c-.121-7.526-.121-14.932-.243-22.458l-.122-22.459V16.823l.244.364-4.501-.607h.122l-20.678 11.412-10.339 5.705-10.218 5.828.122-.122.122 17.724c0 5.949.121 11.776 0 17.724v-.121l1.703 4.734.121.122-.121.121-1.703 1.7.121-.243-.121 15.417c0 5.342 0 10.44-.122 15.539z" fill="#D38E1F" fill-opacity=".7"/><path d="M333.28 16.58c.243 7.527.365 15.054.243 22.702-.121 7.526-.243 15.053-.121 22.701.121 7.527.243 15.053.121 22.701 0 3.764 0 7.527-.121 11.29 0 3.764-.122 7.527-.244 11.29h-.121c-.122-3.763-.122-7.526-.243-11.29 0-3.763-.122-7.526-.122-11.29 0-7.526.122-15.053.122-22.7.121-7.528 0-15.054-.122-22.702.122-7.527.243-15.175.608-22.701zm4.257 2.793l51.087-26.708-50.722 27.315-.365-.607z" fill="#D38E1F" fill-opacity=".7"/><path d="M370.5 175.975l-2.067-.607" stroke="#D38E1F" stroke-opacity=".7" stroke-width=".606" stroke-miterlimit="10"/><path d="M446.157-43.875l-28.705 15.781-28.706 15.66.121-.242v31.199l-.121 31.199 2.311 9.347v.243l-2.433 3.278v-.121c0 12.26-.122 24.522 0 36.783l.122 36.783h-.487c.365-5.22.852-10.318 1.703-15.539.487-2.549.973-5.098 1.703-7.648.73-2.549 1.459-4.977 2.797-7.283l.122-.122h.243l46.1-1.214h.487l-.122.486c-1.46 4.006-2.798 8.133-4.014 12.14-1.216 4.127-2.433 8.133-3.527 12.261-1.095 4.127-2.068 8.255-2.798 12.504-.73 4.127-1.46 8.376-1.581 12.625v-.122c.608 2.671.851 5.342.851 8.013 0 2.67-.243 5.463-1.338 7.89-.486 1.214-1.338 2.428-2.311 3.278-.973.971-2.311 1.578-3.649 1.821-1.338.243-2.676.243-4.014.364h-4.014c-5.352 0-10.704-.607-15.934-.364-5.23.243-10.582 1.578-15.083 4.613l-9.731-2.792v-.121l9.731 2.67h-.121c4.378-3.034 9.852-4.491 15.082-4.734 5.352-.364 10.704.243 16.056.243h4.014c1.338 0 2.676 0 3.892-.364 1.217-.243 2.433-.85 3.406-1.7.973-.85 1.703-1.942 2.19-3.156.973-2.428 1.216-5.099 1.216-7.648 0-2.671-.365-5.22-.973-7.891.122-4.249.73-8.498 1.581-12.747.73-4.249 1.825-8.376 2.919-12.504 1.095-4.127 2.311-8.255 3.528-12.261a202.389 202.389 0 014.014-12.14l.365.486-46.1 1.093.243-.122c-1.216 2.185-2.068 4.735-2.797 7.163-.73 2.428-1.217 4.977-1.703 7.526-.973 5.099-1.46 10.198-1.825 15.418h-.486l.121-36.784V62.59l2.311-3.278v.122l-2.432-9.348-.122-31.199v-31.32l.122-.122 28.827-15.539 28.949-15.781zm8.028 18.695c.122 13.596.243 27.193.243 40.79l.122 40.789-.122 40.79c0 13.596-.121 27.192-.243 40.789-.121-13.597-.243-27.193-.243-40.79l-.122-40.79.122-40.789c0-13.717.122-27.314.243-40.79zm4.501 4.977c.122 12.261.243 24.522.243 36.783l.122 36.784-.122 36.783c0 12.261-.121 24.522-.243 36.783-.121-12.261-.243-24.522-.243-36.783l-.122-36.783.122-36.783c0-12.262.122-24.523.243-36.784zM139.637-99.597l4.987 36.905 4.865 36.905 9.731 73.81h-.73v-6.677l-5.96-61.427c-2.068-20.516-3.892-41.033-5.838-61.549 2.189 20.516 4.257 40.911 6.325 61.427l6.203 61.427v6.677h-.73l-9.487-73.93-4.744-36.906-4.622-36.662z" fill="#D38E1F" fill-opacity=".7"/><path d="M158.855 41.467l79.914 6.434h.244v6.07h-.365l-39.897-2.67-19.948-1.458-19.948-1.578h-.122v-.121l.122-6.677zm.122.121l.121 6.677-.121-.121 19.948 1.214 19.948 1.214 39.896 2.792-.365.243v-5.463l.244.243-79.671-6.799z" fill="#D38E1F" fill-opacity=".7"/><path d="M443.116-122.419L238.891 48.387l.121-.243v5.463l-.486-.243 81.739-62.52 81.86-62.276h.122L320.63-8.55l-81.739 62.4-.487.365v-6.192l.122-.121 204.59-170.442v.122zM182.574-98.625L173.695 33.94l-.244-.242 57.412 6.07-.243.12 78.819-85.22 79.063-84.978h.122l-78.698 85.464-78.941 85.22h-.244l-57.29-6.19-.243-.122v-.122l9.366-132.565z" fill="#D38E1F" fill-opacity=".7"/><path d="M230.742 40.132l-.122-7.527.122.121-28.463-2.792c-9.487-.971-18.975-1.942-28.341-3.399v-.121c9.488.728 18.976 1.7 28.463 2.792l28.341 3.278h.122v.121l-.122 7.527z" fill="#D38E1F" fill-opacity=".7"/><path d="M230.742 32.605l62.764-74.66 31.382-37.268c10.582-12.383 21.043-24.765 31.747-37.026a4615.87 4615.87 0 01-31.261 37.39l-31.503 37.148-63.129 74.416z" fill="#D38E1F" fill-opacity=".7"/><path d="M174.668 16.58l63.25 7.163v.728l-63.25-7.89zm.973-13.353l72.008 9.105-.122.728-71.886-9.833zm-29.557 97.482l-4.987-.607-2.919-.122 2.919-.121h.122l4.865.364v.486zm0 4.977l-7.906-.243 7.906-.243v.486zm-14.353-6.92l-12.772-2.185-5.108-.121 5.108-.121 12.894 1.699-.122.728zm.122 7.041l-18.002-.971 18.002.243v.728zM97.916 93.668l-33.45-5.22-16.785-2.671c-5.595-.85-11.19-1.821-16.664-2.792-2.92 0-5.717-.122-8.636-.243v-.121c2.92-.122 5.717-.122 8.636-.243l16.786 2.55 16.785 2.791 33.328 5.949zm0 11.29l-37.829-1.093c-6.325-.121-12.65-.364-18.853-.607l-9.488-.486-9.487-.242v-.122c3.162-.121 6.325-.243 9.487-.243l9.488.243c6.325.243 12.65.486 18.853.729l37.829 1.821zm47.56-20.152l-4.379-4.128 4.5 3.885-.121.243zm-13.867-8.498l-12.65-8.74 13.015 8.133-.365.607zm0-4.249l-12.65-11.776 13.137 11.29-.487.486zm115.918 14.204l19.827-5.22h3.284-3.284l-19.705 5.705-.122-.486zm0 4.006l19.827-4.614h3.284-3.284l-19.705 5.1-.122-.486zm.852-1.093l18.975-5.099h3.284-3.284l-18.853 5.585-.122-.486zm43.545-14.446l41.234-11.047 4.622.121h-4.622l-40.991 11.533-.243-.607zm0 6.312l41.234-8.862h4.622l-4.622.122-40.991 9.469-.243-.729zm1.703-1.699l39.531-9.955h4.623-4.623L293.87 80.071l-.243-.728zm94.876-29.863l65.683-16.39h4.5l-4.5.122-65.561 16.995-.122-.728zm0 12.624l65.683-13.11h4.5-4.5l-65.561 13.839-.122-.729zm2.31-3.277l63.372-15.782 4.501.121h-4.501l-63.128 16.39-.244-.73zm-143.164 43.096l19.705-1.821h3.284l-3.284.121-19.705 2.185v-.485zm0 4.127l22.989-.607-22.989 1.214v-.607zm44.397-8.012l41.113-3.52 4.622.12h-4.622l-41.113 4.128v-.728zm0 5.827l45.735-1.093-45.735 1.821v-.728zm96.457-14.325l65.683-4.977h4.5-4.5l-65.561 5.706-.122-.729zm.121 10.926l35.274-.728 17.637-.365c5.839-.121 11.799-.364 17.637-.242-5.838 0-11.798.242-17.637.485l-17.637.607-35.274 1.093v-.85zm-211.158 35.326c-1.703-.606-3.527-.849-5.23-.606-1.703.242-3.406.971-5.109 1.335-1.703.485-3.649.728-5.473-.122-.852-.364-1.582-1.214-1.947-1.942-.486-.85-.608-1.699-.851-2.671-1.338-7.041-2.919-13.96-4.501-20.88.122-5.706.122-11.29.122-16.996l-.122-16.995v-.243h.244l20.921-.121h.365v11.532c0 3.764 0 7.406-.122 11.169-.121 7.405-.121 14.81-.243 22.216h-.122c-.121-7.406-.243-14.811-.243-22.216 0-3.763-.122-7.405-.122-11.169V76.915l.365.364-20.921-.121.243-.243-.121 16.995c0 5.706 0 11.29.121 16.996a304.708 304.708 0 014.744 20.88c.122.85.365 1.7.73 2.428.365.729.973 1.336 1.703 1.821 1.459.729 3.406.729 5.109.243 1.702-.486 3.405-1.093 5.23-1.214 1.703-.243 3.527 0 5.23.728z" fill="#D38E1F" fill-opacity=".7"/><path d="M165.303 110.42c-.244-.364-.609-.364-.974-.242l-1.094.121-2.19.121-4.379.365-8.636.728-17.272 1.335-34.544 2.793.121-.122c-.73.607-1.338 1.578-1.094 2.428.121.486.486.85.851 1.093.365.364.852.607 1.338.849l.122.122v.121l7.663 30.956 1.946 7.77c.608 2.549 1.338 5.099 1.703 7.769.73 5.342.243 10.683-.122 15.903-.243 2.671-.486 5.342-.486 7.891 0 2.671.365 5.342 1.459 7.77 1.095 2.428 2.92 4.37 5.109 5.948 2.068 1.578 4.5 2.914 6.933 3.763 2.554.85 5.23 1.093 7.785.729 2.554-.364 5.108-1.214 7.784-1.821l15.57-3.764c2.189-.728 4.379-1.335 6.568-1.699 2.189-.486 4.501-.85 6.812-.85 1.094 0 2.311.122 3.405.364 1.095.243 2.311.971 2.92 2.064.608.971 1.094 2.185.851 3.521-.122.607-.608 1.214-1.095 1.578-.486.364-1.094.607-1.703.728l.122-.607 2.676 1.457h-.122c.244 0 .609-.243.852-.486.243-.242.486-.607.73-1.092.486-.729.729-1.578 1.094-2.428.487-1.7.487-3.521.609-5.342l.364-11.047c.122-7.405.122-14.689.244-22.094.121-14.811.243-29.5.243-44.31-.487-.607-1.338-.971-2.189-1.093-.852-.121-1.703-.121-2.555.122-.851.121-1.703.485-2.554.485-.487 0-.973 0-1.338-.364-.365-.364-.487-.728-.608-1.214-.608-1.699-.973-3.399-1.338-5.098-.73-1.943-.73-3.764-1.581-5.221zm0 0c.973 1.579.973 3.4 1.459 4.978.365 1.699.73 3.399 1.338 4.977.122.364.365.85.608 1.093.244.242.73.364 1.095.242.851-.121 1.703-.485 2.554-.485.852-.122 1.703-.243 2.676-.122.852.122 1.825.365 2.311 1.214.122 14.811.244 29.5.244 44.31 0 7.406-.122 14.811-.244 22.095-.121 3.642-.121 7.405-.365 11.047-.121 1.821-.121 3.763-.608 5.584-.243.85-.608 1.821-1.094 2.671-.244.364-.487.85-.852 1.214s-.73.728-1.581.728l-2.676-1.457-.852-.485.852-.243c.973-.243 1.946-.85 2.311-1.821.243-.971-.122-2.064-.73-2.914-.486-.971-1.459-1.456-2.433-1.699a15.105 15.105 0 00-3.284-.364c-2.189 0-4.5.364-6.69.849-2.189.486-4.378 1.093-6.568 1.7l-15.569 3.642c-2.555.607-5.109 1.457-7.785 1.821-2.676.364-5.473.121-8.028-.85-2.554-.85-4.865-2.185-7.055-3.763-2.067-1.578-4.014-3.642-5.108-6.07-1.095-2.428-1.46-5.22-1.46-7.891 0-2.671.243-5.341.487-8.012.486-5.342.851-10.683.121-15.903-.365-2.671-1.094-5.22-1.703-7.769l-1.946-7.77-7.906-30.956.122.243c-.487-.243-.974-.486-1.46-.85a3.313 3.313 0 01-1.095-1.457 1.934 1.934 0 01.243-1.821 3.8 3.8 0 011.095-1.335h.243l34.667-2.55 17.272-1.214 8.636-.607 4.379-.364 2.189-.121 1.095-.122h.608c.243.243.487.365.487.607z" fill="#D38E1F" fill-opacity=".7"/><path d="M99.498 117.583c3.406 12.504 6.568 25.129 9.731 37.754.73 3.157 1.703 6.313 1.946 9.591.365 3.278.243 6.555.122 9.712-.244 3.277-.487 6.434-.73 9.711-.243 3.278-.243 6.556.73 9.591.486 1.578 1.216 3.035 2.189 4.249.973 1.214 2.19 2.306 3.527 3.277 2.555 1.943 5.474 3.399 8.637 4.128 1.581.364 3.162.485 4.743.364 1.582-.121 3.163-.486 4.744-.85s3.163-.85 4.744-1.214l4.744-1.092 9.487-2.185c3.163-.729 6.447-1.336 9.609-1.579 1.582-.121 3.285-.242 4.866-.121.851 0 1.703.121 2.432.243.852.121 1.703.364 2.312.971 1.216 1.214 1.702 2.913 1.702 4.613 0 1.7-.608 3.278-1.338 4.734h-.121c.73-1.456 1.216-3.034 1.095-4.613 0-1.578-.609-3.156-1.703-4.248-.609-.486-1.338-.729-2.068-.85-.852-.122-1.581-.243-2.433-.243-1.581 0-3.284.121-4.865.243a59.569 59.569 0 00-9.488 1.821l-9.487 2.306-4.744 1.093-4.744 1.214c-1.581.364-3.162.728-4.865.85-1.703.121-3.284-.122-4.987-.486-3.284-.728-6.204-2.428-8.758-4.37-1.338-.972-2.554-2.185-3.527-3.399a14.753 14.753 0 01-2.19-4.371c-.973-3.156-.851-6.555-.608-9.712.243-3.277.608-6.434.73-9.711.121-3.278.121-6.434-.244-9.712-.364-3.156-1.338-6.313-2.189-9.469-3.041-12.989-6.203-25.615-9.001-38.24z" fill="#D38E1F" fill-opacity=".7"/><path d="M122.852 113.213a349.983 349.983 0 016.081 24.765l2.433 12.504 2.554 12.503c.487 2.064.973 4.128 1.947 5.949.973 1.821 2.432 3.399 4.257 4.37 1.824.971 3.892 1.336 6.081 1.336 2.068 0 4.136-.365 6.204-.85 4.014-1.093 8.149-2.671 12.407-3.035 4.257-.364 8.636.243 12.65 1.942v.122a27.45 27.45 0 00-12.529-1.457c-4.257.485-8.149 2.185-12.285 3.278-4.135 1.092-8.758 1.456-12.772-.486-1.946-.971-3.527-2.671-4.5-4.613-.973-1.942-1.46-4.128-1.825-6.191-.729-4.128-1.459-8.377-2.432-12.504-.852-4.128-1.825-8.255-2.798-12.383l-5.473-25.25z" fill="#D38E1F" fill-opacity=".7"/><path d="M137.569 112.12c1.703 5.949 3.284 12.018 4.501 18.088 1.216 6.07 2.311 12.14 3.649 18.21.365 1.457.73 3.035 1.46 4.37.729 1.335 1.824 2.428 3.04 3.035 1.338.728 2.798.971 4.379.971 1.46 0 3.041-.243 4.501-.607 2.919-.728 5.96-1.942 9.122-2.185a20.044 20.044 0 019.245 1.457v.121c-2.92-.971-6.082-1.335-9.123-.971-3.041.364-5.96 1.578-9.001 2.428-3.041.85-6.447 1.093-9.366-.364-1.46-.729-2.554-2.064-3.284-3.399-.73-1.457-1.095-3.035-1.338-4.492-.973-6.07-2.311-12.14-3.771-18.21-1.338-6.312-2.797-12.382-4.014-18.452z" fill="#D38E1F" fill-opacity=".7"/><path d="M147.665 111.149c1.338 4.492 2.554 8.983 3.527 13.475.852 4.613 1.703 9.105 2.676 13.718a17.408 17.408 0 001.095 3.278 5.303 5.303 0 002.311 2.306c1.946.971 4.379.728 6.569.243 2.189-.607 4.378-1.457 6.811-1.7 2.311-.242 4.744.243 6.933 1.214v.122c-2.189-.729-4.5-.972-6.811-.607-2.311.242-4.379 1.214-6.69 1.821-2.19.607-4.866.849-7.055-.365a5.75 5.75 0 01-2.433-2.67c-.486-1.093-.73-2.307-.973-3.399a128.88 128.88 0 00-2.919-13.597c-1.216-4.734-2.311-9.226-3.041-13.839zm12.407-.729c.852 2.55 1.46 5.221 2.068 7.891.243 1.336.365 2.671.73 4.006.243 1.336.608 2.671.973 4.006.365 1.336.851 2.55 1.946 3.035 1.095.486 2.433.365 3.771.122 1.216-.364 2.554-.85 4.014-.971 1.459-.122 2.797.242 4.014.728v.121c-1.338-.364-2.676-.485-4.014-.242-1.338.121-2.555.728-3.893 1.092-1.338.364-2.919.486-4.257-.243a3.037 3.037 0 01-1.459-1.578c-.365-.607-.487-1.335-.487-2.064-.365-2.67-1.095-5.341-1.824-7.89-.852-2.671-1.338-5.342-1.582-8.013z" fill="#D38E1F" fill-opacity=".7"/><path d="M163.722 110.056c.729 1.943 1.216 4.006 1.581 6.07.122 1.093.243 2.064.486 3.156.244.972.487 2.064.73 3.035.244.972.608 1.943 1.46 2.307.851.364 1.824.243 2.798 0 .973-.243 2.067-.607 3.162-.728 1.095 0 2.189.121 3.163.607v.121c-.974-.243-2.068-.364-3.041-.121-.973.121-1.946.607-3.041.849-1.095.243-2.311.365-3.284-.242a2.638 2.638 0 01-1.217-1.336 3.732 3.732 0 01-.365-1.578c-.121-1.093-.365-2.064-.608-3.035-.243-.971-.608-2.064-.851-3.035-.365-1.821-.852-3.885-.973-6.07zm-25.544 96.875l-.365 20.638-.365-20.638h.73zm5.352-1.335l-.365 18.816-.365-18.816h.73zm110.688-8.741c1.094 0 2.189.486 3.162 1.093.852.607 1.703 1.335 2.311 2.185 1.338 1.578 2.433 3.399 3.528 5.099 2.189 3.399 4.257 6.919 6.811 10.197 2.555 3.156 5.596 5.948 9.245 7.769 1.824.85 3.77 1.579 5.838 1.821 2.068.243 4.136.122 6.082-.485-1.946.607-4.014.728-6.082.607-2.068-.243-4.014-.85-5.838-1.7-3.771-1.699-6.934-4.492-9.488-7.769-2.676-3.157-4.744-6.677-7.055-10.076-1.094-1.7-2.189-3.399-3.527-4.977-1.338-1.457-2.919-2.793-4.866-2.793l-.121-.971zm132.095-74.538l-49.505.122 49.505-1.214v1.092zm-18.489 45.16a141.077 141.077 0 01-13.866 2.914c4.622-.972 9.123-2.307 13.623-3.764l.243.85zm69.09-60.456a102.649 102.649 0 00-8.393 25.008c-1.703 8.619-2.311 17.481-1.825 26.343.122 2.185.365 4.492 0 6.677-.365 2.185-1.338 4.492-3.284 5.827-1.946 1.336-4.379 1.336-6.568 1.336-2.19-.122-4.379-.243-6.69-.365-4.379-.242-8.879-.364-13.258.243s-8.636 1.7-12.772 3.521c4.014-1.821 8.271-3.157 12.65-3.764 4.379-.607 8.879-.607 13.258-.364l6.69.243c2.19 0 4.501 0 6.204-1.214 1.703-1.214 2.676-3.278 2.919-5.463.365-2.185.122-4.37 0-6.555-.487-8.862.122-17.846 1.946-26.465 1.946-8.74 4.987-17.117 9.123-25.008z" fill="#D38E1F" fill-opacity=".7"/><path d="M165.424 110.663c-10.461 1.457-20.921 2.914-31.382 4.249-10.461 1.336-20.921 2.792-31.382 4.006 10.461-1.456 20.921-2.913 31.382-4.249 10.461-1.335 20.921-2.792 31.382-4.006z" fill="#D38E1F" fill-opacity=".7"/><path d="M89.401-103.238l73.225 172.383-.608.243-72.617-172.626zM242.054 63.197L478.147-85.029 242.419 63.804l-.365-.607zm160.071 78.18l-34.909 4.127-34.909 4.006-69.819 8.134-69.818 7.769-34.91 3.885-35.031 3.885 34.91-4.128 34.909-4.127 69.94-8.012 69.819-7.891 34.909-3.885 34.909-3.763zM44.154-116.228l.486 48.438.244 48.558.243 97.118-.243 96.996-.244 48.559L44.154 272l-.487-48.559-.243-48.559-.243-96.996.243-97.118.243-48.558.487-48.438zm-8.272 0l.487 48.438.243 48.558.243 97.118-.243 96.996-.243 48.559L35.882 272l-.486-48.559-.244-48.559-.243-96.996.243-97.118.244-48.558.486-48.438z" fill="#D38E1F" fill-opacity=".7" opacity=".45"/><path d="M446.157-75.438l.244 35.569.121 35.69.122 71.14-.122 71.138-.121 35.569-.244 35.57-.243-35.57-.121-35.569-.122-71.139.122-71.138.121-35.691.243-35.57zm-86.239 279.577c-4.379 1.7-8.757 3.399-13.258 4.977l-13.258 4.978-13.258 4.856-13.259 4.734c-.121 0-.364 0-.364-.243v-.243c2.189-4.006 4.013-8.012 5.23-12.382 1.216-4.37 1.824-8.862 1.095-13.354.851 4.492.486 9.105-.73 13.475a59.795 59.795 0 01-5.109 12.626l-.365-.486 13.258-4.856 13.259-4.734 13.258-4.735c4.622-1.578 9.122-3.156 13.501-4.613zm-174.789-95.904c3.284 9.712 6.325 19.424 9.609 29.136 3.041 9.711 6.203 19.545 9.244 29.256l18.246 58.635h-.122l-18.732-58.392c-3.162-9.712-6.203-19.423-9.366-29.257-3.041-9.833-6.081-19.544-8.879-29.378z" fill="#D38E1F" fill-opacity=".7" opacity=".45"/><path d="M403.22 187.022L488 228.783l-85.145-41.033.365-.728zm-69.453 31.442l-.608 33.02-.608-33.02h1.216zm-12.164 4.613l-.608 39.818-.608-39.818h1.216zM222.957 116.49l.122-20.637.121 20.637h-.243zm-4.136-54.021l-.121 46.859-.122-46.86h.243zm2.433 0l-.122 50.744-.121-50.744h.243zm1.217 0l-.122 35.933-.121-35.933h.243zm3.04.242l-.243 51.109-.122-51.109h.365zm1.946.122l-.122 38.361-.121-38.361h.243zm2.677.121l-.122 53.658-.121-53.658h.243zm1.337 0l-.122 42.975-.243-42.975h.365zm4.987.243l-.122 42.246-.121-42.246h.243zm2.798.121l-.122 45.403-.121-45.403h.243zm.973 0l-.122 34.113-.243-34.113h.365zm3.77.243l-.243 43.825-.121-43.825h.364zm1.339.122l-.122 40.061-.121-40.061h.243zm-16.542 53.414l.121-43.46.122 43.46h-.243zm12.892-8.376l.243-37.148.122 37.148h-.365zm-84.414-4.977c.973-.122 1.825-.122 2.798-.122.973 0 1.825 0 2.798.122-.973.121-1.825.121-2.798.121-.973 0-1.946 0-2.798-.121z" fill="#D38E1F" fill-opacity=".7"/><path d="M157.76 103.258c.122.364.122.728.122 1.093 0 .364 0 .728-.122 1.092-.121-.364-.121-.728-.121-1.092 0-.365 0-.729.121-1.093z" fill="#D38E1F" fill-opacity=".7"/><path d="M156.909 104.836c.973-.121 1.946-.121 2.919-.121.973 0 1.947 0 2.92.121-.973.122-1.947.122-2.92.122-.973.121-1.946 0-2.919-.122z" fill="#D38E1F" fill-opacity=".7"/><path d="M162.261 103.379c.122.365.122.729.122 1.093s0 .728-.122 1.093c-.121-.365-.121-.729-.121-1.093s0-.728.121-1.093z" fill="#D38E1F" fill-opacity=".7"/></g><defs><clipPath id="clip0_180_6455"><path fill="#fff" d="M0 0h488v251H0z"/></clipPath></defs></svg>