<svg width="37" height="37" fill="none" xmlns="http://www.w3.org/2000/svg"><path d="M37 27.75a4.111 4.111 0 01-4.111 4.111H4.11A4.111 4.111 0 010 27.75V9.25a4.111 4.111 0 014.111-4.111H32.89A4.111 4.111 0 0137 9.25v18.5z" fill="#E30917"/><path d="M16.444 24.667a6.166 6.166 0 110-12.334c1.347 0 2.59.437 3.605 1.17a7.536 7.536 0 00-5.66-2.56 7.558 7.558 0 000 15.115 7.531 7.531 0 005.66-2.56 6.13 6.13 0 01-3.605 1.169zm4.022-5.93l2.508.577.226 2.562 1.324-2.205 2.508.576-1.69-1.94 1.323-2.207-2.367 1.007-1.69-1.941.226 2.563-2.368 1.007z" fill="#EEE"/></svg>