<svg width="47" height="47" fill="none" xmlns="http://www.w3.org/2000/svg"><circle cx="23.45" cy="23.45" r="22.95" stroke="#E49216" stroke-opacity=".88"/><g clip-path="url(#clip0_217_1440)"><path d="M25.78 35.651h.5v-9.146c0-.153.124-.277.276-.277h3.667l.095-.379.388-1.553.156-.621h-4.306a.277.277 0 01-.276-.277v-3.106c0-1.009.821-1.83 1.83-1.83h2.83v-2.553h-2.83a4.388 4.388 0 00-4.383 4.383v3.106a.277.277 0 01-.277.277h-2.83v2.553h2.83c.153 0 .277.124.277.277v9.146h2.053zm1.053-.5v.5h5.988a2.833 2.833 0 002.83-2.83V14.08a2.833 2.833 0 00-2.83-2.83H14.08a2.832 2.832 0 00-2.83 2.83v18.74a2.833 2.833 0 002.83 2.83h9.094v-8.875h-2.83a.272.272 0 01-.276-.271v-3.107c0-.153.124-.276.276-.276h2.83v-2.83a4.943 4.943 0 014.937-4.937h3.106c.153 0 .277.124.277.277v3.106a.277.277 0 01-.277.277H28.11c-.705 0-1.277.572-1.277 1.277v2.83h4.383c.18 0 .312.17.268.343h0l-.776 3.107h0a.277.277 0 01-.268.21h-3.607v8.369zM14.079 10.696H32.82a3.388 3.388 0 013.383 3.383V32.82a3.388 3.388 0 01-3.383 3.383H14.08a3.388 3.388 0 01-3.383-3.383V14.08a3.388 3.388 0 013.383-3.383z" stroke="url(#paint0_linear_217_1440)" stroke-linecap="round"/></g><defs><linearGradient id="paint0_linear_217_1440" x1="10.196" y1="-122.342" x2="37.691" y2="-122.342" gradientUnits="userSpaceOnUse"><stop stop-color="#D38E1F"/><stop offset="1" stop-color="#F8F0E3" stop-opacity=".88"/></linearGradient><clipPath id="clip0_217_1440"><path fill="#fff" transform="translate(10.196 10.196)" d="M0 0h26.509v26.509H0z"/></clipPath></defs></svg>