<svg width="249" height="206" fill="none" xmlns="http://www.w3.org/2000/svg"><path d="M89.91 10.74v132.996m10.778-132.027v132.027M.78 156.924c.818-.075 94.036-14.007 94.036-14.007l153.653 21.309v.894L94.742 145.375.78 158.042v-1.118 0z" stroke="#D38E1F" stroke-opacity=".4" stroke-width=".702" stroke-miterlimit="10" stroke-linecap="round"/><path d="M1.524 157.967c.818-.075 93.218-12.517 93.218-12.517l152.984 19.67v.894L94.667 147.908 1.45 159.085v-1.118h.074z" stroke="#D38E1F" stroke-opacity=".4" stroke-width=".59" stroke-miterlimit="10" stroke-linecap="round"/><path d="M3.01 158.861c.818-.074 91.657-10.953 91.657-10.953L246.24 165.79v.894L94.593 150.367 3.01 159.979v-1.118z" stroke="#D38E1F" stroke-opacity=".4" stroke-width=".582" stroke-miterlimit="10" stroke-linecap="round"/><path d="M6.653 159.606v5.514l87.568-9.984 152.018 15.497v-3.949L94.593 150.367l-87.94 9.239z" stroke="#D38E1F" stroke-opacity=".4" stroke-width=".582" stroke-miterlimit="10" stroke-linecap="round"/><path d="M6.653 165.119h4.163l83.405-8.94 152.018 14.454-152.018-15.498-87.568 9.984z" stroke="#D38E1F" stroke-opacity=".4" stroke-width=".374" stroke-miterlimit="10" stroke-linecap="round"/><path d="M88.423 156.775v2.384h1.04v45.748l4.46.298 5.65-.373v-45.226h1.115v-2.831l-6.467-.596-5.798.596z" stroke="#D38E1F" stroke-opacity=".4" stroke-width=".374" stroke-miterlimit="10" stroke-linecap="round"/><path d="M8.065 168.472l86.156-7.227 5.352.447m-91.508 7.6l86.156-6.855 5.352.447m-10.109 37.925h10.109m-5.352-38.372v38.372" stroke="#D38E1F" stroke-opacity=".4" stroke-width=".374" stroke-miterlimit="10" stroke-linecap="round"/><path d="M89.464 204.162l-81.696-2.385V165.12" stroke="#D38E1F" stroke-opacity=".4" stroke-width=".374" stroke-miterlimit="10" stroke-linecap="round"/><path d="M69.021 158.861v44.704l-1.784.522V161.99s-1.412-1.862-.892-3.651l2.676.522z" stroke="#D38E1F" stroke-opacity=".4" stroke-width=".374" stroke-miterlimit="10" stroke-linecap="round"/><path d="M62.405 158.786c-.52 1.789.892 3.651.892 3.651v41.426l3.94.224" stroke="#D38E1F" stroke-opacity=".4" stroke-width=".374" stroke-miterlimit="10" stroke-linecap="round"/><path d="M45.977 161.32v41.575l-1.635.447v-39.191s-1.338-1.714-.818-3.427l2.453.596zm-5.277 0c-.447 1.639.817 3.427.817 3.427v38.52l2.75.075" stroke="#D38E1F" stroke-opacity=".4" stroke-width=".553" stroke-miterlimit="10" stroke-linecap="round"/><path d="M45.977 161.32v41.575l-1.635.447v-39.191s-1.338-1.714-.818-3.427l2.453.596zm-5.277 0c-.447 1.639.817 3.427.817 3.427v38.52l2.75.075" stroke="#D38E1F" stroke-opacity=".4" stroke-width=".553" stroke-miterlimit="10" stroke-linecap="round"/><path d="M26.278 163.48v38.893l-1.338.447v-36.583s-1.115-1.49-.67-3.129l2.008.372z" stroke="#D38E1F" stroke-opacity=".4" stroke-width=".502" stroke-miterlimit="10" stroke-linecap="round"/><path d="M21.966 163.406c-.371 1.639.67 3.427.67 3.427v35.913l2.304.074" stroke="#D38E1F" stroke-opacity=".4" stroke-width=".502" stroke-miterlimit="10" stroke-linecap="round"/><path d="M11.039 165.12v36.732l-1.264.447v-34.497s-1.04-1.416-.669-2.98l1.933.298zm-4.163 0c-.372 1.564.67 3.278.67 3.278v33.826l2.155.075m59.32-1.789l-61.476-.819" stroke="#D38E1F" stroke-opacity=".4" stroke-width=".234" stroke-miterlimit="10"/><path d="M205.354 170.708l-105.78-9.016m146.665 12.517l-22.97-1.937m-17.915-.67l-105.78-8.718m146.665 12.145l-22.97-1.937M99.648 204.161l146.591-5.141v-28.387" stroke="#D38E1F" stroke-opacity=".4" stroke-width=".374" stroke-miterlimit="10" stroke-linecap="round"/><path d="M132.579 159.83v43.437l1.784.448v-40.831s1.412-1.862.892-3.576l-2.676.522zm6.616-.522c.52 1.714-.892 4.098-.892 4.098v40.159l-3.94.224" stroke="#D38E1F" stroke-opacity=".4" stroke-width=".587" stroke-miterlimit="10" stroke-linecap="round"/><path d="M162.759 162.735v39.34l1.636.447v-36.955s1.263-1.565.817-3.13l-2.453.298zm5.204-.074c.446 1.565-.818 3.204-.818 3.204v36.583l-2.75.074" stroke="#D38E1F" stroke-opacity=".4" stroke-width=".54" stroke-miterlimit="10" stroke-linecap="round"/><path d="M184.688 164.747v36.583l1.339.447v-34.348s1.115-1.117.669-2.756l-2.008.074z" stroke="#D38E1F" stroke-opacity=".4" stroke-width=".491" stroke-miterlimit="10" stroke-linecap="round"/><path d="M189 164.673c.372 1.564-.669 2.905-.669 2.905v34.05l-2.305.075" stroke="#D38E1F" stroke-opacity=".4" stroke-width=".491" stroke-miterlimit="10" stroke-linecap="round"/><path d="M223.269 198.126l22.97-.521m-146.666 3.204l105.781-2.31" stroke="#D38E1F" stroke-opacity=".4" stroke-width=".234" stroke-miterlimit="10"/><path d="M3.53 63.566L94.222 1.278l147.781 98.797v1.937L94.222 4.109 3.53 65.578v-2.012z" stroke="#D38E1F" stroke-opacity=".4" stroke-width=".702" stroke-miterlimit="10" stroke-linecap="round" stroke-linejoin="round"/><path d="M3.53 65.578h3.123L94.221 7.834l145.105 94.178h2.676" stroke="#D38E1F" stroke-opacity=".4" stroke-width=".374" stroke-miterlimit="10" stroke-linecap="round"/><path d="M94.221 7.834v135.082" stroke="#D38E1F" stroke-opacity=".4" stroke-width=".702" stroke-miterlimit="10" stroke-linecap="round"/><path d="M6.653 65.578v90.601m232.673-54.167v60.947M23.602 52.017v101.628m2.23-.298V50.453l2.007 1.192v101.404" stroke="#D38E1F" stroke-opacity=".4" stroke-width=".374" stroke-miterlimit="10" stroke-linecap="round"/><path d="M3.53 65.652v90.899" stroke="#D38E1F" stroke-opacity=".4" stroke-width=".702" stroke-miterlimit="10" stroke-linecap="round"/><path d="M5.835 156.253V64.162l1.933.67v90.974" stroke="#D38E1F" stroke-opacity=".4" stroke-width=".374" stroke-miterlimit="10" stroke-linecap="round"/><path d="M41.814 39.575v111.388m2.974-.447V37.638l2.527 1.117v111.389M64.264 24.375v122.937m2.899-.149V22.438l2.527 1.565V146.79" stroke="#D38E1F" stroke-opacity=".4" stroke-width=".677" stroke-miterlimit="10" stroke-linecap="round"/><path d="M188.851 66.695v89.26m-2.304-.298V65.205l-1.933 1.341v88.888m24.234-75.551v78.829m-2.23-.298V78.542l-2.007.894v78.68m18.658-68.77v71.378m-2.23-.298V88.004l-1.933.894v71.23" stroke="#D38E1F" stroke-opacity=".4" stroke-width=".374" stroke-miterlimit="10" stroke-linecap="round"/><path d="M242.002 101.788v61.618" stroke="#D38E1F" stroke-opacity=".4" stroke-width=".702" stroke-miterlimit="10" stroke-linecap="round"/><path d="M239.772 163.033v-62.586l-1.933.894v61.543" stroke="#D38E1F" stroke-opacity=".4" stroke-width=".374" stroke-miterlimit="10" stroke-linecap="round"/><path d="M166.327 51.868v100.958m-2.899-.373V49.931l-2.601 1.118V152.08M138.08 33.167v115.784m-2.974-.447V31.23l-2.527 1.564v115.412" stroke="#D38E1F" stroke-opacity=".4" stroke-width=".677" stroke-miterlimit="10" stroke-linecap="round"/><path d="M233.75 169.441v30.101l1.264.447v-27.642s1.041-1.118.669-2.683l-1.933-.223z" stroke="#D38E1F" stroke-opacity=".4" stroke-width=".234" stroke-miterlimit="10"/><path d="M237.839 169.739c.446 1.714-.669 2.682-.669 2.682v27.419l-2.156.075M22.635 176.519l-11.596.596m11.596 16.988l-11.596-.298m11.596 1.267H11.04m1.337-17.957v16.764m13.901.075l15.313-.075m-15.313.969H41.59m-15.312-18.627l15.313-.596m-13.603.522l.074 17.807m17.915-18.478l17.543-.447m-17.543 18.627l17.097-.075m-17.097 1.044l17.32-.075m-15.61-19.148v18.03m21.334-18.925l20.443-.298m-11.151.15v29.505m-7.805-27.941H76.9v19.894h-6.02l-.372-19.894zm8.995 0v19.894h8.548V175.7l-8.548.223zm53.076 21.011l-33.006.671m.075-1.788l32.931-.522m-32.931-21.607l32.931.522m-1.413-.299v21.384m7.137-21.086l24.233.82m-24.233 20.043l24.456-.149m-24.456 1.49l24.456-.149m-1.561-21.235v19.894m5.947 0h17.544m-17.544 1.49l17.544-.149m-17.544-21.235l17.544.447m-1.116 0v19.446" stroke="#D38E1F" stroke-opacity=".4" stroke-width=".234" stroke-miterlimit="10"/><path d="M205.354 166.684v33.752m17.915-32.187v31.591" stroke="#D38E1F" stroke-opacity=".4" stroke-width=".374" stroke-miterlimit="10" stroke-linecap="round"/><path d="M208.476 200.361V170.26l12.191.969v28.611m-32.336-4.917h17.023m-17.023 1.341l17.023-.224m-17.023-20.564l17.023.82m-1.189-.075v18.702m19.104-17.733l10.481.447m-10.481 16.689h10.481m-10.481.895l10.481-.149m-1.115-17.435v16.54" stroke="#D38E1F" stroke-opacity=".4" stroke-width=".234" stroke-miterlimit="10"/><path d="M19.439 68.26v14.678m0 6.557v14.678m0 8.419v14.678m0 6.706v14.678" stroke="#D38E1F" stroke-opacity=".4" stroke-width=".374" stroke-miterlimit="10" stroke-linecap="round"/><path d="M219.106 199.989V171.08m-116.782-5.215l-.297 5.737 27.504.521v-5.066l-27.207-1.192zm-15.239 0v5.737s-15.908.67-15.685.447c.223-.224-.149-4.62 0-4.843.149-.149 15.685-1.341 15.685-1.341zm-26.092 7.301l-12.86.746v-5.439l12.86-1.789v6.482zm-21.558.745l-11.447.447-.15-4.694 11.597-.67v4.917zM21 175.402l-8.623.298-.223-4.471 8.846-.894v5.067zm118.864-3.279l20.962.969v-3.427l-20.962-1.714v4.172zm29.511 1.118l13.604.67v-2.831l-13.604-.82v2.981zm20.443.969l13.678.819v-2.384l-13.678-1.043v2.608zm34.64 2.011l7.88.522v-1.714l-7.88-.447v1.639z" stroke="#D38E1F" stroke-opacity=".4" stroke-width=".234" stroke-miterlimit="10"/><path d="M195.244 68.781v-7.227l-5.798-5.513v8.866m0-8.867l-5.873 4.62" stroke="#D38E1F" stroke-opacity=".4" stroke-width=".374" stroke-miterlimit="10" stroke-linecap="round"/><path d="M23.602 65.652l-5.278 3.204v14.603l5.278-2.458m-8.549 4.023V70.495L9.255 73.55v14.082l5.798-2.608zm-4.757-11.996v14.157m31.518-32.262l-5.278 3.353v15.87l5.278-2.682m-6.541-12.517v15.795l-5.501 2.459V62.299l5.5-3.352zm-4.609 2.831v15.05m6.913-19.223v16.02m17.395-26.451l-6.84 4.247v16.615l7.137-3.874-.297-16.988zm9.292 12.443l-7.583 3.8v-17.36l7.583-4.694M48.95 50.9v16.615m8.698-22.055v17.435M71.4 37.041v18.776l6.913-3.8V32.645L71.4 37.041zm17.469 8.941l-8.4 4.769V31.155l8.4-5.737v20.564zM72.292 36.52v18.925m8.92-24.811v19.67m-57.61 37.179l-5.278 2.533v14.603l5.278-1.862m-8.549 2.98V91.283l-5.798 2.31v14.081l5.798-1.937zM10.296 93.22v14.156M41.814 78.84l-5.278 2.757v15.87l5.278-2.087m-6.541-13.262v15.796l-5.501 1.788V84.875l5.5-2.757zm-4.609 2.31v14.976m6.913-18.329v16.019M54.972 72.73l-6.84 3.353v16.69l7.137-3.055-.297-16.988zm9.292 13.486l-7.583 2.98v-17.36l7.583-3.8M48.95 75.71v16.616m8.698-20.936v17.36M71.4 64.534V83.31l6.913-2.98V60.958L71.4 64.534zm17.469 11.028l-8.4 3.8V59.765l8.4-4.694v20.49zM72.292 64.087v19m8.92-23.768v19.595m-57.61 32.262l-5.278 1.788v14.604l5.278-1.043m-8.549 1.639v-14.529l-5.798 1.49v14.082l5.798-1.043zm-4.757-13.337v14.231m31.518-23.619l-5.278 1.937v15.87l5.278-1.266m-6.541-14.306v15.796l-5.501.968v-14.901l5.5-1.863zm-4.609 1.565v15.05m6.913-17.285v16.019m17.395-21.682l-6.84 2.384v16.615l7.137-1.937-.297-17.062zm9.292 15.051l-7.583 1.713v-17.36l7.583-2.608m-15.314 5.29v16.615m8.698-19.595v17.36M71.4 95.827v18.702l6.913-1.863V93.294L71.4 95.827zm17.469 13.71l-8.4 2.459V92.4l8.4-3.353v20.49zM72.292 95.455v18.999m8.92-22.352v19.595m-57.61 20.937l-5.278 1.714v14.603l5.278-.968m-8.549 1.49v-14.529l-5.798 1.341v14.082l5.798-.894zm-4.757-13.411v14.23m31.518-21.234l-5.278 1.639v15.87l5.278-.968m-6.541-14.604v15.796l-5.501.67V132.56l5.5-1.565zm-4.609 1.341v14.976m6.913-16.913v16.019m17.395-19.819l-6.84 1.639v16.69l7.137-1.192-.297-17.137zm9.292 15.945l-7.583.968v-17.36l7.583-1.788m-15.314 3.725v16.615m8.698-18.775v17.434M71.4 122.725v18.701l6.913-1.118v-19.371l-6.913 1.788zm17.469 15.497l-8.4 1.639v-19.595l8.4-2.533v20.489zm-16.577-15.721v18.925m8.92-21.384v19.596m68.687-87.099l8.995 5.886.148 15.87-9.44-5.514.297-16.242zm-12.042 9.537l9.886 5.737-.148-16.913-9.515-6.557m19.699 13.411l.148 15.796m-11.596-23.47l.149 16.913m3.642 10.207l8.995 4.695.148 15.796-9.515-4.098.372-16.392zm-12.117 11.326l9.961 4.247-.148-16.839-9.961-5.513m20.145 10.878l.148 15.87m-11.596-21.905l.149 16.987m3.642 12.666l8.995 3.13.074 15.87-9.441-2.533.372-16.467zm-12.042 13.486l9.886 2.534-.148-16.839-9.887-3.725m20.071 7.301l.148 15.796m-11.596-19.819l.149 16.913m41.925-44.332l5.13 3.427V92.7l-5.13-2.757m8.326 4.469V81.448l5.724 3.353v12.517l-5.724-2.906zm4.683-10.208v12.592m-8.92-17.807v13.113m-4.089 3.651l5.13 2.832v13.038l-5.13-2.086m8.326 3.427V100l5.724 2.608v12.517l-5.724-2.161zm4.683-10.803v12.592m-8.92-16.765v13.188m-4.089 5.961l5.13 1.937v13.113l-5.13-1.341m8.326 2.086v-12.964l5.724 1.714v12.517l-5.724-1.267zm4.683-11.548v12.666m-8.92-15.349v13.188m-4.089 4.545l5.13 1.788v13.114l-5.13-1.193m8.326 1.789v-12.89l5.724 1.49v12.517l-5.724-1.117zm4.683-11.698V152.9m-8.92-15.05v13.187m15.908-61.84l3.345 2.235v11.548l-3.345-1.713m5.426 2.831V92.549l3.791 2.235v11.251l-3.791-1.937zm3.122-9.76v11.399m-5.872-14.827v11.698m-2.676 3.8l3.345 1.788v11.623l-3.345-1.267m5.426 2.087V109.09l3.791 1.714v11.25l-3.791-1.415zm3.122-10.133v11.325m-5.872-14.008v11.698m-2.676 5.663l3.345 1.266v11.623l-3.345-.745m5.426 1.118v-11.549l3.791 1.043v11.325l-3.791-.819zm3.122-10.655v11.325m-5.872-12.964v11.698m-2.676 4.321l3.345 1.267v11.623l-3.345-.745m5.426 1.118v-11.549l3.791 1.043v11.251l-3.791-.745zm3.122-10.729v11.399m-5.872-12.964v11.698m11.819-58.712l4.832 3.502v10.654l-4.832-2.831m7.806 4.545V101.49l5.352 3.353v10.059l-5.352-2.906zm4.385-7.749v10.133m-8.4-15.497v10.803m-3.791 2.533l4.832 2.832v10.654l-4.832-2.161m7.806 3.428v-10.506l5.352 2.608v10.058l-5.352-2.16zm4.385-8.345v10.133m-8.4-14.306v10.804m-3.791 4.545l4.832 1.937v10.655l-4.832-1.267m7.806 2.012v-10.506l5.352 1.714v10.058l-5.352-1.266zm4.385-9.09v10.133m-8.4-12.815v10.729m-3.791 3.576l4.832 1.639v10.655l-4.832-.894m7.806 1.49v-10.506l5.352 1.342v9.984l-5.352-.82zm4.385-9.388v10.133m-8.4-12.294v10.729m-61.03-93.581l7.657 4.843.074 14.38-7.656-4.024m9.44-9.388V84.28l7.954 3.725V74.742l-7.954-4.769zm6.691 4.024l.074 13.411m-10.035-19.372l.074 14.604m-6.244 3.576l7.656 3.949.075 14.38-7.657-3.129m9.441-10.506v14.306l7.954 2.756V94.784l-7.954-3.874zm6.69 3.279v13.336m-9.961-18.105l.074 14.529m-6.17 6.706l7.657 2.831v14.38l-7.657-2.012m9.441-11.847v14.306l7.954 1.639v-13.188l-7.954-2.757zm6.69 2.31l.075 13.411m-10.036-16.764l.075 14.529m-6.17 4.918l7.656 2.235v14.38l-7.656-1.416m9.44-12.592v14.306l7.954 1.043v-13.188l-7.954-2.161zm6.691 1.863l.074 13.337m-10.035-16.019l.074 14.603m-22.078-19.446l8.92 2.012.149 15.795-9.441-1.266.372-16.541zm-12.042 15.125l9.886 1.192-.148-16.913-9.887-2.384m20.071 4.768l.074 15.796M147 128.462l.149 16.988M130.72 42.555l.075 18.105-11.299-5.886-.075-19.074 11.299 6.855zm-28.545 2.608l13.827 7.674V33.465l-13.827-9.09v20.788zm27.207-3.428l.075 18.329M114.738 32.72l.074 19.372m15.983 16.988l.074 18.105-11.299-4.545-.074-19.074 11.299 5.513zm-28.545 6.035l13.826 6.035-.074-19.372-13.827-7.451.075 20.788zm27.207-6.706v18.328m-14.645-25.63l.075 19.447m15.982 18.701l.074 18.031-11.299-2.831-.074-19.074 11.299 3.874zm-28.545 10.208l13.826 3.948-.074-19.371-13.826-5.29.074 20.713zm27.207-10.655v18.329m-14.644-23.544l.074 19.446m15.982 12.144v18.106l-11.299-1.714v-18.999l11.299 2.607zm-28.545 13.337l13.827 2.459-.075-19.372-13.826-3.874.074 20.787zm27.133-13.635l.074 18.329m-14.644-21.979v19.446" stroke="#D38E1F" stroke-opacity=".4" stroke-width=".234" stroke-miterlimit="10" stroke-linecap="round"/></svg>