<svg width="35" height="30" fill="none" xmlns="http://www.w3.org/2000/svg"><g clip-path="url(#clip0_498_8519)" fill="#E49216"><path d="M26.982 18.65a.272.272 0 00.272-.271V3.07a.272.272 0 00-.272-.271h-10.96a.272.272 0 00-.272.271v15.308a.272.272 0 00.271.272h10.961zM16.292 3.342h10.419v14.765H16.293V3.342z"/><path d="M24.449 7.06l-5.466 5.46a.272.272 0 10.383.383l5.466-5.466a.271.271 0 00-.383-.377zm0 3.899l-1.154 1.154a.272.272 0 10.383.377l1.154-1.154a.272.272 0 00-.383-.383v.006zM19.526 9.86a.271.271 0 00.193-.08l2.75-2.74a.271.271 0 00-.382-.382l-2.742 2.74a.272.272 0 00.181.461z"/><path d="M26.1 26.932h2.071a.272.272 0 00.272-.272v-.714h.475a.272.272 0 00.272-.272V20.72a.272.272 0 00-.272-.271H13.713V1.034a.271.271 0 00-.271-.271h-6.62a.272.272 0 00-.271.271v24.64a.271.271 0 00.271.272h.307v.714a.272.272 0 00.272.271h2.08a.272.272 0 00.27-.271v-.714h16.077v.714a.272.272 0 00.272.271zm1.8-.543h-1.529v-.443H27.9v.443zm.272-.983h-6.72v-1.868h7.194v1.868h-.474zm.475-2.409H21.45v-2.006h7.195v2.006zm-7.738-2V23h-7.195v-2.01l7.195.006zM13.17 7.754h-.339V6.296h.34v1.458zm0 12.117h-.339v-1.46h.34v1.46zm0-18.563v4.444h-.61a.272.272 0 00-.272.272v2.004a.271.271 0 00.271.271h.611v4.784H7.094V1.306l6.076.003zm-6.076 12.32h6.076v4.24h-.61a.272.272 0 00-.272.272v2.004a.27.27 0 00.271.271h.611v4.989H7.094V13.627zm2.104 12.76H7.672v-.442h1.537l-.011.443zm4.515-2.85h7.196v1.868h-7.196v-1.868z"/></g><defs><clipPath id="clip0_498_8519"><path fill="#fff" transform="translate(.656)" d="M0 0h33.927v30H0z"/></clipPath></defs></svg>