<svg width="34" height="34" fill="none" xmlns="http://www.w3.org/2000/svg"><path d="M26.563 13.813a9.563 9.563 0 00-19.125 0c0 3.922 3.138 9.035 9.562 15.16 6.424-6.125 9.563-11.238 9.563-15.16zM17 31.875C9.208 24.792 5.312 18.77 5.312 13.812a11.688 11.688 0 0123.375 0c0 4.958-3.895 10.98-11.687 18.063z" fill="#E1B164"/><path d="M17 14.875a2.125 2.125 0 100-4.25 2.125 2.125 0 000 4.25zM17 17a4.25 4.25 0 110-8.5 4.25 4.25 0 010 8.5zm11.475 6.375l3.4 8.5h-9.563V29.75H11.688v2.125H2.126l3.4-8.5h22.95zm-2.289 0H7.814l-2.55 6.375h23.472l-2.55-6.375z" fill="#E1B164"/></svg>