<svg width="48" height="74" fill="none" xmlns="http://www.w3.org/2000/svg"><path fill-rule="evenodd" clip-rule="evenodd" d="M41.603 43.87C45.573 39.212 48 32.974 48 26.119 48 11.693 37.255 0 24 0S0 11.693 0 26.118c0 6.837 2.414 13.06 6.366 17.716h-.009l17.644 29.578L41.603 43.87z" fill="#3C3C3B"/><g clip-path="url(#clip0_180_7006)" fill="#fff"><path d="M9.803 30.988l-.175-.268h-.15v.268h-.086v-.694h.286c.125 0 .224.085.224.207 0 .121-.087.194-.186.194l.186.28h-.1v.013zm0-.475a.137.137 0 00-.137-.134h-.187v.268h.187c.087-.012.137-.061.137-.134zm1.371.475v-.694h.46v.073h-.373v.219h.361v.073h-.361v.244h.374v.073h-.461v.012zm2.242 0l-.062-.159h-.35l-.061.159h-.1l.286-.694h.113l.286.694h-.112zm-.237-.597l-.15.365h.3l-.15-.365zm1.57.597v-.694h.087v.609h.324v.073h-.411v.012zm3.091 0v-.694h.46v.073h-.373v.219h.361v.073h-.36v.244h.373v.073h-.461v.012zm1.707-.098l.05-.06a.32.32 0 00.224.097c.125 0 .162-.061.162-.122 0-.183-.424-.085-.424-.329 0-.11.1-.195.237-.195.112 0 .187.037.25.098l-.05.06a.25.25 0 00-.2-.085c-.087 0-.15.05-.15.11 0 .158.424.06.424.329 0 .097-.075.207-.262.207a.369.369 0 01-.261-.11zm1.968.098v-.61h-.224v-.072h.536v.073h-.225v.609h-.087zm2.082 0l-.063-.159h-.349l-.062.159h-.1l.287-.694h.112l.287.694h-.112zm-.237-.597l-.15.365h.3l-.15-.365zm1.744.597v-.61h-.224v-.072h.536v.073h-.225v.609h-.087zm1.557 0v-.694h.461v.073h-.374v.219h.362v.073h-.362v.244h.374v.073h-.46v.012zm3.664 0l-.062-.159h-.35l-.061.159h-.1l.287-.694h.112l.286.694h-.112zm-.237-.597l-.15.365h.3l-.15-.365zm1.545.256c0-.22.162-.353.361-.353.125 0 .212.048.274.133l-.075.037a.262.262 0 00-.199-.097.276.276 0 00-.274.28c0 .158.112.28.274.28.087 0 .15-.037.187-.073v-.146h-.237v-.073h.324v.243a.36.36 0 01-.274.122.35.35 0 01-.361-.353zm1.919.341v-.694h.46v.073h-.373v.219H34v.073h-.361v.244h.374v.073h-.461v.012zm2.242 0l-.41-.548v.548h-.088v-.694h.087l.411.535v-.535h.088v.694h-.088zm1.358-.341a.35.35 0 01.362-.353c.124 0 .211.06.261.133l-.074.037c-.038-.06-.113-.097-.2-.097a.276.276 0 00-.274.28.269.269 0 00.474.182l.074.037a.347.347 0 01-.623-.22zm2.094.341v-.293l-.274-.401h.1l.224.316.224-.316h.1l-.274.401v.293h-.1zM7.112 26.407a3 3 0 01-.61.232c-.225.06-.45.097-.686.121a6.95 6.95 0 01-.698.05c-.237.011-.448.011-.66.011h-.86v-6.469H3v6.567h4.2l.036-.232a5.28 5.28 0 00.038-.195c.012-.06.025-.121.025-.158.012-.012.012-.024.012-.049v-.024c-.037.024-.062.049-.1.073-.024.037-.062.049-.1.073zm1.034-5.714a.47.47 0 00-.274.098.282.282 0 00-.125.244c0 .085.037.17.125.243a.4.4 0 00.286.11c.112 0 .2-.037.287-.11.075-.073.124-.146.124-.243 0-.098-.037-.171-.124-.244a.463.463 0 00-.3-.098zm-.311 6.226h.598V22.52h-.61l.012 4.398zm5.805-3.959a2.587 2.587 0 00-.747-.476c-.287-.11-.61-.17-.947-.17-.261 0-.51.036-.76.097a2.33 2.33 0 00-.685.317c-.05.037-.087.06-.125.097a.818.818 0 01-.112.098 2.11 2.11 0 00-.212.231v-.718h-.598v6.7h.598v-2.814c.125.122.274.231.449.304.187.11.386.183.598.244.212.049.424.085.635.085.362 0 .71-.048 1.022-.158.312-.11.586-.256.822-.45.225-.196.412-.44.549-.732.137-.292.199-.609.199-.974 0-.341-.062-.658-.174-.95a2.284 2.284 0 00-.511-.732zm0 2.582a1.7 1.7 0 01-.36.658 1.7 1.7 0 01-1.359.621c-.261 0-.498-.036-.723-.097a1.728 1.728 0 01-.598-.305 1.464 1.464 0 01-.41-.5 1.5 1.5 0 01-.15-.694v-1.851c.05-.098.112-.17.174-.244.224-.22.449-.39.685-.5.237-.11.511-.17.835-.17.324 0 .623.06.873.195.249.134.46.304.635.511.174.22.299.463.386.732.088.28.137.56.137.84 0 .293-.037.548-.124.804zm3.602-2.047c.062-.048.125-.085.187-.134a1.85 1.85 0 01.486-.292c.137-.049.25-.073.349-.073.075 0 .124.012.174.024.05.012.087.037.125.049l.1.073.485-.45-.087-.086a.51.51 0 00-.112-.06.63.63 0 00-.174-.025.956.956 0 00-.3.049 1.8 1.8 0 00-.398.207c-.05.036-.137.097-.262.182-.124.086-.262.183-.424.293-.161.11-.323.22-.498.329a8.776 8.776 0 01-.498.329c-.162.11-.3.207-.424.292a11.39 11.39 0 00-.262.183v-3.79c0-.243.025-.462.063-.67.037-.206.112-.365.211-.499.1-.134.237-.194.424-.194.125 0 .262.036.424.097.162.06.349.158.56.305v-.61C17.242 19 17.105 19 16.994 19c-.237 0-.461.037-.698.122-.237.073-.436.22-.623.414a1.78 1.78 0 00-.399.682 3.686 3.686 0 00-.162.865v5.848h.598v-2.364l.91-.645.25.292c.074.098.174.195.273.317.1.122.212.256.337.39l1.694 1.998h.623l-2.766-3.277c.075-.05.137-.098.212-.147zm3.252-2.802a.47.47 0 00-.274.098.282.282 0 00-.124.244c0 .085.037.17.124.243a.4.4 0 00.287.11c.112 0 .2-.037.287-.11.074-.073.124-.146.124-.243 0-.098-.037-.171-.124-.244a.486.486 0 00-.3-.098zm-.312 6.226h.598V22.52h-.623l.025 4.398zm8.822-5.921c-.224-.183-.523-.341-.922-.463-.398-.122-.922-.183-1.557-.183h-1.32v6.567h.597v-2.741h.449c.523 0 .96-.037 1.333-.098a3.9 3.9 0 00.922-.256c.25-.11.436-.231.586-.365.137-.134.249-.28.311-.427.075-.146.112-.292.137-.426.025-.146.025-.268.025-.378 0-.195-.037-.402-.112-.62a1.497 1.497 0 00-.449-.61zm-.087 1.84a1.267 1.267 0 01-.386.596c-.2.183-.473.33-.835.451-.361.122-.847.183-1.445.183h-.449V20.45h.61c.35 0 .686.036.998.11.311.073.585.182.822.328.237.146.424.33.56.549.138.219.212.487.212.78 0 .194-.037.401-.087.62z"/><path d="M30.363 19.573a1.454 1.454 0 00-.623-.439 2.264 2.264 0 00-.76-.134c-.125 0-.25.012-.399.024v.597a2.67 2.67 0 01.56-.304c.163-.061.3-.098.424-.098.175 0 .324.061.424.183.1.122.174.28.212.475.037.195.062.414.075.646.012.244.012.475.012.694v5.702h.598v-5.665a3.66 3.66 0 00-.112-.938 2.064 2.064 0 00-.411-.743zm9.332 3.021c-.1.024-.2.037-.324.037a3.33 3.33 0 01-.997-.159 11.51 11.51 0 00-.835-.231 10.33 10.33 0 00-.884-.195c-.3-.061-.598-.098-.91-.134a7.24 7.24 0 00-.872-.049c-.324 0-.623.037-.91.11a3.307 3.307 0 00-.772.316 3.68 3.68 0 00-.673.5 4.551 4.551 0 00-.598.67l.374.536c.087-.268.187-.512.299-.743.112-.232.249-.426.423-.585a1.77 1.77 0 01.586-.39c.224-.097.486-.146.798-.146.386 0 .772.037 1.146.098.374.073.76.146 1.134.231.187.049.373.085.56.122l.561.11c.386.073.773.097 1.121.097l.337-.012c-.548.67-1.096 1.316-1.632 1.973a49.367 49.367 0 01-1.695 1.913v.232h3.875l.125-.646c-.162.122-.361.22-.598.292a6.935 6.935 0 01-.723.17c-.25.037-.498.062-.76.074-.25.012-.486.012-.698.012h-.623l3.477-4.057v-.231c-.05.012-.1.024-.162.036a.73.73 0 00-.15.049z"/><path d="M37.664 27.747a2.858 2.858 0 01-.411.17c-.138.05-.275.062-.412.062a.75.75 0 01-.436-.146 2.15 2.15 0 01-.386-.366 2.597 2.597 0 01-.324-.512c-.1-.195-.187-.39-.262-.572a6.273 6.273 0 01-.199-.573c-.062-.183-.1-.341-.15-.475a6.099 6.099 0 01-.087-.28 5.124 5.124 0 00-.075-.232l-.56.183.486 1.34a3.35 3.35 0 01-.76.366 2.583 2.583 0 01-.835.146c-.324 0-.573-.085-.748-.244-.174-.158-.274-.402-.274-.719 0-.182.062-.353.175-.5.112-.157.261-.291.448-.413s.399-.232.636-.33c.236-.097.473-.182.722-.243.237-.073.474-.122.698-.17.224-.05.411-.086.573-.098 0-.268-.025-.512-.062-.719a1.35 1.35 0 00-.224-.548 1.043 1.043 0 00-.449-.341 1.97 1.97 0 00-.723-.122 1.21 1.21 0 00-.436.073 1.248 1.248 0 00-.373.232l-.025.024a.259.259 0 01.124-.073c.038-.012.063-.024.1-.037.037-.012.062-.024.1-.036a.95.95 0 01.199-.049c.062-.012.137-.024.212-.024.249 0 .436.049.585.146.15.11.25.244.312.402.062.158.087.329.1.5.012.097.012.194.012.292v.28a5.08 5.08 0 00-.523.122c-.212.049-.436.122-.686.195-.249.073-.486.17-.735.268a4.36 4.36 0 00-.673.341 2.058 2.058 0 00-.486.414.773.773 0 00-.187.487c0 .208.05.378.138.512.087.134.211.244.36.33.15.084.312.145.5.182.186.036.36.049.535.049.2 0 .436-.037.698-.098.262-.073.473-.158.66-.256.075-.036.137-.06.2-.097a1.51 1.51 0 00.174-.122c.175.56.449.987.81 1.267.361.292.847.439 1.458.439.212 0 .424-.025.623-.061.2-.037.411-.086.61-.159v-.645c-.1.073-.211.146-.336.231-.15.073-.274.146-.411.207zm8.211-1.181c-.037.024-.062.036-.1.06-.037.025-.062.037-.1.061-.061.025-.124.061-.198.073-.063.025-.137.025-.212.025-.25 0-.436-.073-.586-.232a1.624 1.624 0 01-.311-.658 4.183 4.183 0 01-.1-.804c0-.158-.013-.316-.013-.475v-.621c0-.268-.025-.512-.074-.707a1.273 1.273 0 00-.25-.536 1.02 1.02 0 00-.485-.316c-.212-.073-.462-.098-.785-.098h-.2c-.062 0-.124.012-.187.012a2.025 2.025 0 00-.648.146 1.664 1.664 0 00-.373.208.78.78 0 00-.175.194c-.025.061-.037.086-.037.098h.66a.72.72 0 01.125-.28.973.973 0 01.274-.195c.124-.061.286-.085.486-.085.249 0 .448.036.598.11.15.072.262.182.336.316.075.134.125.305.15.512.025.195.037.426.037.682-.311.073-.598.146-.872.22a9.593 9.593 0 00-.773.243 6.44 6.44 0 00-.61.256c-.2.097-.374.207-.523.316-.15.122-.275.244-.374.366a.685.685 0 00-.15.426.89.89 0 00.125.488c.124.207.311.353.573.45.25.098.536.147.847.147.2 0 .4-.025.586-.073.187-.05.361-.11.51-.171.15-.061.275-.134.387-.195.062-.037.112-.073.162-.098-.012-.036 0-.085 0-.134a3.344 3.344 0 01-.698.33c-.286.11-.573.17-.872.17-.137 0-.274-.012-.399-.049a.827.827 0 01-.324-.17.923.923 0 01-.224-.293 1.214 1.214 0 01-.087-.45c0-.159.05-.317.15-.451a1.8 1.8 0 01.373-.378c.15-.11.324-.22.524-.304.199-.098.398-.171.598-.244.199-.073.386-.122.573-.17.187-.05.349-.086.486-.11h.012-.012c0 .438.025.828.062 1.17.037.34.112.645.224.889.112.243.262.426.449.56.187.122.423.195.723.195a.857.857 0 00.436-.11c.124-.073.249-.195.386-.377l.025-.037c-.038.024-.075.073-.125.098z"/></g><defs><clipPath id="clip0_180_7006"><path fill="#fff" transform="translate(3 19)" d="M0 0h43v12H0z"/></clipPath></defs></svg>