<svg width="364" height="104" fill="none" xmlns="http://www.w3.org/2000/svg"><path d="M57.59 103.894l-1.476-2.323h-1.266v2.323h-.738v-6.018h2.425c1.055 0 1.9.74 1.9 1.795 0 1.056-.74 1.689-1.583 1.689l1.582 2.429h-.844v.105zm0-4.118a1.17 1.17 0 00-1.16-1.16h-1.582v2.322h1.582c.738-.106 1.16-.528 1.16-1.162zm11.603 4.118v-6.018h3.902v.633h-3.164v1.901h3.059v.633h-3.06v2.112h3.164v.634h-3.902v.105zm18.985 0l-.527-1.372h-2.953l-.528 1.372h-.843l2.426-6.018h.949l2.426 6.018h-.95zm-2.004-5.173l-1.265 3.167h2.531l-1.266-3.167zm13.291 5.173v-6.018h.738v5.279h2.742v.634h-3.48v.105zm26.158 0v-6.018h3.902v.633h-3.164v1.901h3.059v.633h-3.059v2.112h3.164v.634h-3.902v.105zm14.45-.844l.422-.528c.422.422 1.055.844 1.899.844 1.054 0 1.371-.527 1.371-1.055 0-1.584-3.586-.739-3.586-2.851 0-.95.843-1.69 2.004-1.69.949 0 1.582.317 2.109.845l-.422.528c-.422-.528-1.055-.739-1.687-.739-.739 0-1.266.422-1.266.95 0 1.373 3.586.528 3.586 2.851 0 .845-.633 1.795-2.215 1.795-.949 0-1.688-.422-2.215-.95zm16.665.844v-5.28h-1.898v-.633h4.535v.634h-1.898v5.279h-.739zm17.615 0l-.527-1.372h-2.954l-.527 1.372h-.844l2.426-6.018h.949l2.426 6.018h-.949zm-2.004-5.173l-1.266 3.167h2.532l-1.266-3.167zm14.767 5.173v-5.28h-1.899v-.633h4.536v.634h-1.899v5.279h-.738zm13.184 0v-6.018h3.903v.633h-3.164v1.901h3.058v.633h-3.058v2.112h3.164v.634H200.3v.105zm31.01 0l-.527-1.372h-2.953l-.528 1.372h-.844l2.426-6.018h.95l2.426 6.018h-.95zm-2.004-5.173l-1.265 3.167h2.531l-1.266-3.167zm13.079 2.217c0-1.9 1.372-3.062 3.059-3.062 1.055 0 1.793.422 2.321 1.161l-.633.317c-.422-.528-1.055-.844-1.688-.844-1.265 0-2.32 1.055-2.32 2.428 0 1.372.949 2.428 2.32 2.428a2.2 2.2 0 001.582-.633v-1.267h-2.004v-.634h2.743v2.112c-.528.634-1.371 1.056-2.321 1.056-1.687 0-3.059-1.267-3.059-3.062zm16.244 2.956v-6.018h3.902v.633h-3.164v1.901h3.059v.633h-3.059v2.112h3.164v.634h-3.902v.105zm18.986 0l-3.481-4.751v4.751h-.738v-6.018h.738l3.481 4.646v-4.646h.738v6.018h-.738zm11.497-2.956c0-1.795 1.371-3.062 3.058-3.062 1.055 0 1.793.528 2.215 1.161l-.632.317c-.317-.528-.95-.844-1.688-.844-1.266 0-2.321 1.055-2.321 2.428 0 1.372.95 2.428 2.321 2.428.633 0 1.266-.316 1.688-.844l.632.316c-.527.634-1.265 1.162-2.32 1.162-1.582 0-2.953-1.267-2.953-3.062zm17.72 2.956v-2.534l-2.321-3.484h.844l1.899 2.745 1.898-2.745h.844l-2.321 3.484v2.534h-.843zM34.807 64.195c-1.582.845-3.27 1.478-5.168 2.006-1.899.528-3.797.845-5.801 1.056-2.004.211-4.008.422-5.907.422-2.004.106-3.797.106-5.59.106H5.063V11.72H0v56.91h35.546l.316-2.007c.105-.528.211-1.056.316-1.69.106-.527.212-1.055.212-1.372.105-.105.105-.21.105-.422v-.211c-.316.211-.527.422-.844.633-.21.317-.527.423-.844.634zm8.755-49.519c-.844 0-1.582.317-2.32.845-.739.528-1.055 1.267-1.055 2.112 0 .739.316 1.478 1.054 2.111.633.634 1.477.95 2.426.95.95 0 1.688-.316 2.426-.95.633-.633 1.055-1.267 1.055-2.111 0-.845-.316-1.479-1.055-2.112-.844-.634-1.582-.845-2.531-.845zM40.925 68.63h5.063V30.513h-5.169l.106 38.115zm49.152-34.315c-1.793-1.69-3.903-3.062-6.328-4.118-2.426-.95-5.169-1.478-8.017-1.478-2.215 0-4.324.316-6.434.844-2.11.634-4.008 1.479-5.801 2.746-.422.316-.738.528-1.055.844-.316.317-.633.634-.95.845-.526.528-1.16 1.161-1.792 2.006v-6.23h-5.063v58.072H59.7v-24.39c1.054 1.056 2.32 2.006 3.797 2.64 1.582.95 3.27 1.583 5.063 2.111 1.793.422 3.586.74 5.38.74 3.058 0 6.011-.423 8.648-1.373 2.637-.95 4.958-2.218 6.962-3.907 1.898-1.69 3.48-3.801 4.64-6.335 1.16-2.534 1.688-5.28 1.688-8.447 0-2.956-.527-5.701-1.476-8.235-1.16-2.534-2.532-4.646-4.325-6.335zm0 22.383c-.633 2.218-1.688 4.118-3.059 5.702a14.44 14.44 0 01-4.852 3.907c-1.898.95-4.113 1.478-6.645 1.478a22.54 22.54 0 01-6.117-.845c-1.899-.528-3.587-1.478-5.063-2.64-1.477-1.16-2.637-2.64-3.481-4.328-.844-1.69-1.266-3.696-1.266-6.019V37.904c.422-.844.95-1.478 1.477-2.111 1.899-1.9 3.797-3.379 5.801-4.33 2.004-.95 4.325-1.477 7.067-1.477 2.743 0 5.274.528 7.384 1.69 2.109 1.16 3.902 2.639 5.379 4.434 1.477 1.9 2.531 4.012 3.27 6.335.738 2.428 1.16 4.856 1.16 7.285 0 2.534-.317 4.751-1.055 6.968zM120.56 38.96c.527-.422 1.055-.739 1.582-1.161 1.582-1.267 2.953-2.112 4.114-2.534 1.16-.422 2.109-.633 2.953-.633.633 0 1.055.105 1.477.21.421.106.738.317 1.054.423l.844.633 4.114-3.906-.739-.74c-.316-.21-.632-.421-.949-.527-.422-.106-.844-.211-1.477-.211-.738 0-1.582.105-2.531.422-.949.317-2.11.95-3.375 1.795a96.23 96.23 0 01-2.215 1.584c-1.055.739-2.215 1.584-3.586 2.534-1.372.95-2.743 1.9-4.22 2.85-1.476 1.056-2.847 2.007-4.219 2.851-1.371.95-2.531 1.795-3.586 2.534a96.23 96.23 0 00-2.215 1.584V13.831c0-2.111.211-4.012.528-5.807.316-1.795.949-3.167 1.793-4.329.843-1.161 2.004-1.689 3.586-1.689 1.055 0 2.215.317 3.586.845s2.953 1.372 4.747 2.64V.21C120.56 0 119.4 0 118.45 0c-2.004 0-3.902.317-5.906 1.056-2.004.633-3.692 1.9-5.274 3.59-1.477 1.583-2.637 3.59-3.375 5.912-.739 2.323-1.161 4.752-1.372 7.497v50.68h5.063V48.252l7.7-5.596 2.11 2.534c.632.845 1.476 1.69 2.32 2.745a69.66 69.66 0 002.848 3.379l14.345 17.315h5.274l-23.416-28.402c.633-.422 1.16-.844 1.793-1.267zm27.529-24.284c-.844 0-1.582.317-2.32.845-.739.528-1.055 1.267-1.055 2.112 0 .739.316 1.478 1.055 2.111.633.634 1.476.95 2.426.95.949 0 1.687-.316 2.426-.95.633-.633 1.054-1.267 1.054-2.111 0-.845-.316-1.479-1.054-2.112a4.053 4.053 0 00-2.532-.845zm-2.637 53.954h5.063V30.513h-5.274l.211 38.115zm74.678-51.314c-1.899-1.584-4.43-2.957-7.805-4.012-3.376-1.056-7.806-1.584-13.185-1.584h-11.181v56.91h5.063V44.872h3.798c4.43 0 8.121-.317 11.286-.845 3.058-.528 5.695-1.267 7.805-2.217 2.109-.95 3.691-2.006 4.957-3.167 1.16-1.162 2.11-2.429 2.637-3.696.633-1.267.949-2.534 1.16-3.695.211-1.267.211-2.323.211-3.273 0-1.69-.316-3.485-.949-5.385-.738-2.006-2.004-3.696-3.797-5.28zm-.738 15.943c-.528 1.9-1.583 3.59-3.27 5.173-1.688 1.584-4.008 2.851-7.067 3.907s-7.173 1.584-12.235 1.584h-3.798V12.564h5.169c2.953 0 5.801.317 8.438.95 2.637.634 4.957 1.584 6.961 2.851 2.004 1.267 3.587 2.851 4.747 4.752 1.16 1.9 1.793 4.223 1.793 6.757 0 1.69-.317 3.484-.738 5.385z" fill="#fff"/><path d="M231.627 4.962c-1.477-1.794-3.27-3.061-5.274-3.8A18.772 18.772 0 00219.919 0c-1.055 0-2.11.106-3.375.211v5.174c1.793-1.267 3.375-2.112 4.746-2.64 1.371-.528 2.531-.844 3.586-.844 1.477 0 2.743.527 3.586 1.583.844 1.056 1.477 2.429 1.794 4.118.316 1.69.527 3.59.632 5.596.106 2.112.106 4.118.106 6.018V68.63h5.063V19.533c0-2.956-.317-5.702-.95-8.13-.843-2.534-1.898-4.646-3.48-6.44zm79.002 26.185c-.844.211-1.688.317-2.743.317-2.637 0-5.484-.422-8.438-1.373-2.215-.739-4.535-1.372-7.067-2.006-2.426-.633-4.957-1.267-7.489-1.69-2.531-.527-5.062-.844-7.699-1.16-2.532-.317-5.063-.423-7.384-.423-2.742 0-5.274.317-7.699.95a27.627 27.627 0 00-6.54 2.745c-2.004 1.162-3.903 2.64-5.696 4.33a39.17 39.17 0 00-5.063 5.806l3.165 4.646a51.15 51.15 0 012.531-6.44c.949-2.006 2.11-3.696 3.586-5.068 1.371-1.479 3.059-2.534 4.958-3.38 1.898-.844 4.113-1.266 6.75-1.266 3.27 0 6.54.317 9.704.845 3.164.633 6.434 1.267 9.598 2.006 1.583.422 3.165.739 4.747 1.055l4.746.95c3.27.634 6.54.845 9.493.845l2.848-.105c-4.641 5.807-9.282 11.403-13.817 17.104-4.641 5.596-9.388 11.192-14.345 16.577v2.006h32.803l1.055-5.596c-1.371 1.056-3.059 1.9-5.063 2.534-2.004.634-4.008 1.056-6.118 1.478a63.173 63.173 0 01-6.434.634c-2.109.105-4.113.105-5.906.105h-5.274l29.428-35.159v-2.006c-.422.105-.844.211-1.371.317-.422.105-.844.21-1.266.422z" fill="#fff"/><path d="M293.436 75.81c-1.16.633-2.32 1.055-3.481 1.477-1.16.423-2.32.528-3.48.528-1.266 0-2.532-.422-3.692-1.267-1.16-.844-2.215-1.9-3.27-3.167-1.055-1.267-1.898-2.745-2.742-4.435a65.772 65.772 0 01-2.215-4.962c-.633-1.69-1.266-3.379-1.688-4.963-.527-1.583-.844-2.956-1.266-4.117-.316-.95-.527-1.69-.738-2.429-.211-.739-.422-1.372-.633-2.006l-4.746 1.584 4.113 11.614c-1.898 1.267-4.008 2.323-6.434 3.168-2.426.844-4.746 1.267-7.067 1.267-2.742 0-4.852-.74-6.328-2.112-1.477-1.373-2.321-3.484-2.321-6.23 0-1.583.528-3.061 1.477-4.328.949-1.373 2.215-2.535 3.797-3.59 1.582-1.056 3.375-2.006 5.379-2.851 2.004-.845 4.009-1.584 6.118-2.112 2.004-.633 4.008-1.056 5.907-1.478 1.898-.422 3.48-.739 4.852-.845 0-2.322-.211-4.434-.528-6.23-.316-1.794-.949-3.378-1.898-4.75-.95-1.267-2.215-2.323-3.797-2.957-1.583-.633-3.587-1.055-6.118-1.055-1.371 0-2.637.21-3.692.633-1.055.422-2.109 1.056-3.164 2.006l-.211.211c.316-.317.633-.528 1.055-.633.316-.106.527-.211.844-.317.316-.106.527-.211.843-.317.528-.21 1.055-.316 1.688-.422.527-.106 1.16-.211 1.793-.211 2.11 0 3.692.422 4.957 1.267a7.696 7.696 0 012.637 3.484c.528 1.373.739 2.85.844 4.329.106.845.106 1.69.106 2.534v2.428a42.249 42.249 0 00-4.43 1.056c-1.793.422-3.692 1.056-5.802 1.69-2.109.633-4.113 1.478-6.223 2.322-2.109.845-4.008 1.9-5.695 2.957a17.346 17.346 0 00-4.114 3.59c-1.055 1.372-1.582 2.745-1.582 4.223 0 1.795.422 3.273 1.16 4.435.738 1.16 1.793 2.111 3.059 2.85a13.454 13.454 0 004.219 1.584c1.582.317 3.059.422 4.535.422 1.688 0 3.692-.316 5.907-.844 2.215-.634 4.008-1.373 5.59-2.218.633-.316 1.161-.528 1.688-.844.527-.317.949-.634 1.477-1.056 1.476 4.857 3.797 8.552 6.856 10.98 3.059 2.535 7.172 3.802 12.34 3.802 1.794 0 3.587-.212 5.274-.528 1.688-.317 3.481-.74 5.169-1.373v-5.596c-.844.634-1.793 1.267-2.848 2.006-1.266.634-2.321 1.267-3.481 1.795zm69.509-10.242c-.316.21-.527.317-.844.528-.316.21-.527.316-.843.528-.528.21-1.055.528-1.688.633-.527.211-1.16.211-1.793.211-2.11 0-3.692-.633-4.958-2.006-1.265-1.584-2.109-3.484-2.636-5.701-.528-2.218-.739-4.54-.844-6.969 0-1.373-.106-2.745-.106-4.118V43.29c0-2.323-.211-4.435-.633-6.124-.421-1.9-1.16-3.485-2.109-4.646a8.619 8.619 0 00-4.114-2.745c-1.793-.634-3.902-.845-6.645-.845h-1.687c-.528 0-1.055.106-1.583.106-2.32.21-4.113.633-5.484 1.267-1.372.633-2.426 1.161-3.165 1.795-.738.633-1.16 1.161-1.476 1.689-.211.528-.317.74-.317.845h5.591c.211-.95.527-1.69 1.054-2.429.528-.633 1.372-1.161 2.321-1.69 1.055-.527 2.426-.738 4.113-.738 2.11 0 3.798.317 5.063.95a6.517 6.517 0 012.848 2.745c.633 1.162 1.055 2.64 1.266 4.435.211 1.69.316 3.695.316 5.913a244.95 244.95 0 00-7.383 1.9 79.524 79.524 0 00-6.54 2.112c-1.687.633-3.48 1.372-5.168 2.217a29.025 29.025 0 00-4.43 2.745c-1.266 1.056-2.32 2.112-3.164 3.168-.844 1.161-1.266 2.322-1.266 3.695 0 1.584.316 3.062 1.055 4.223 1.055 1.795 2.637 3.062 4.852 3.907 2.109.845 4.535 1.267 7.172 1.267 1.688 0 3.375-.211 4.957-.634a34.354 34.354 0 004.325-1.478c1.266-.528 2.321-1.161 3.27-1.689.527-.317.949-.633 1.371-.845-.105-.316 0-.739 0-1.161-1.582 1.056-3.586 2.006-5.907 2.85-2.426.95-4.852 1.479-7.383 1.479-1.16 0-2.321-.106-3.375-.422-1.055-.317-1.899-.74-2.743-1.479-.738-.633-1.371-1.478-1.898-2.534a10.735 10.735 0 01-.739-3.906 6.64 6.64 0 011.266-3.907c.844-1.161 1.899-2.323 3.164-3.273 1.266-.95 2.743-1.9 4.43-2.64 1.688-.844 3.376-1.478 5.063-2.111 1.688-.634 3.27-1.056 4.852-1.478 1.582-.423 2.954-.74 4.114-.95h.105-.105c0 3.8.211 7.179.527 10.135.317 2.957.949 5.596 1.899 7.708.949 2.112 2.215 3.695 3.797 4.857 1.582 1.056 3.586 1.69 6.118 1.69 1.371 0 2.636-.318 3.691-.951 1.055-.634 2.11-1.69 3.27-3.273l.211-.317c-.316.211-.633.634-1.055.845z" fill="#fff"/></svg>