<svg width="280" height="80" fill="none" xmlns="http://www.w3.org/2000/svg"><path d="M44.3 79.919l-1.136-1.787h-.973v1.787h-.568v-4.63h1.866c.811 0 1.46.569 1.46 1.381s-.568 1.3-1.217 1.3l1.217 1.868H44.3v.08zm0-3.168a.9.9 0 00-.892-.893H42.19v1.787h1.217c.568-.081.892-.406.892-.894zm8.925 3.168v-4.63h3.002v.488h-2.434v1.462h2.353v.487h-2.353v1.624h2.434v.488h-3.002v.08zm14.605 0l-.406-1.056h-2.272l-.406 1.056h-.649l1.867-4.63h.73l1.866 4.63h-.73zm-1.542-3.98l-.974 2.437h1.948l-.974-2.437zm10.223 3.98v-4.63h.568v4.061h2.11v.488H76.51v.08zm20.122 0v-4.63h3.002v.488H97.2v1.462h2.353v.487H97.2v1.624h2.434v.488h-3.002v.08zm11.115-.65l.325-.406c.325.325.811.65 1.46.65.812 0 1.055-.406 1.055-.813 0-1.218-2.758-.568-2.758-2.192 0-.731.649-1.3 1.541-1.3.73 0 1.217.244 1.623.65l-.325.406c-.324-.406-.811-.569-1.298-.569-.568 0-.973.325-.973.731 0 1.056 2.758.406 2.758 2.193 0 .65-.487 1.381-1.704 1.381-.73 0-1.298-.325-1.704-.731zm12.82.65v-4.061h-1.461v-.487h3.489v.487h-1.46v4.06h-.568zm13.55 0l-.406-1.056h-2.272l-.406 1.056h-.649l1.867-4.63h.73l1.866 4.63h-.73zm-1.542-3.98l-.974 2.437h1.948l-.974-2.437zm11.359 3.98v-4.061h-1.46v-.487h3.488v.487h-1.46v4.06h-.568zm10.142 0v-4.63h3.002v.488h-2.434v1.462h2.353v.487h-2.353v1.624h2.434v.488h-3.002v.08zm23.854 0l-.406-1.056h-2.271l-.406 1.056h-.649l1.866-4.63h.73l1.866 4.63h-.73zm-1.542-3.98l-.973 2.437h1.947l-.974-2.437zm10.061 1.706c0-1.462 1.055-2.356 2.353-2.356.812 0 1.38.325 1.785.894l-.487.243c-.324-.406-.811-.65-1.298-.65-.973 0-1.785.813-1.785 1.869s.73 1.868 1.785 1.868c.568 0 .974-.244 1.217-.488v-.974h-1.541v-.487h2.109v1.624a2.323 2.323 0 01-1.785.812c-1.298 0-2.353-.975-2.353-2.355zm12.495 2.274v-4.63h3.002v.488h-2.434v1.462h2.353v.487h-2.353v1.624h2.434v.488h-3.002v.08zm14.605 0l-2.678-3.655v3.655h-.568v-4.63h.568l2.678 3.574v-3.574h.568v4.63h-.568zm8.844-2.274c0-1.381 1.054-2.356 2.352-2.356.812 0 1.38.406 1.704.894l-.487.243c-.243-.406-.73-.65-1.298-.65-.973 0-1.785.813-1.785 1.869s.731 1.868 1.785 1.868c.487 0 .974-.244 1.298-.65l.487.244c-.405.487-.973.893-1.785.893-1.217 0-2.271-.975-2.271-2.355zm13.63 2.274v-1.95l-1.785-2.68h.649l1.461 2.112 1.46-2.112h.649l-1.785 2.68v1.95h-.649z" fill="#000"/><path d="M26.775 49.38c-1.217.65-2.515 1.138-3.976 1.544-1.46.406-2.92.65-4.462.812-1.542.163-3.083.325-4.544.325-1.541.081-2.92.081-4.3.081H3.895V9.015H0v43.777h27.343l.243-1.543c.081-.406.163-.812.244-1.3.08-.406.162-.812.162-1.056.081-.08.081-.162.081-.325v-.162c-.243.163-.406.325-.65.487-.161.244-.405.325-.648.488zm6.735-38.09c-.65 0-1.218.243-1.786.65-.568.405-.811.974-.811 1.623 0 .569.243 1.137.811 1.625.487.487 1.136.73 1.866.73.73 0 1.298-.243 1.866-.73.487-.488.812-.975.812-1.625s-.244-1.137-.812-1.624c-.649-.487-1.217-.65-1.947-.65zm-2.03 41.502h3.895v-29.32H31.4l.08 29.32zm37.81-26.396c-1.38-1.3-3.002-2.355-4.868-3.168-1.866-.73-3.976-1.137-6.166-1.137-1.704 0-3.327.244-4.95.65-1.622.487-3.083 1.137-4.462 2.112-.325.243-.568.406-.812.65-.243.243-.486.487-.73.65-.405.405-.892.893-1.38 1.542v-4.791h-3.894v44.67h3.895V48.812c.811.812 1.785 1.543 2.92 2.03 1.218.732 2.516 1.219 3.895 1.625 1.38.325 2.759.569 4.138.569 2.353 0 4.625-.325 6.653-1.056 2.029-.731 3.814-1.706 5.355-3.005 1.46-1.3 2.678-2.924 3.57-4.873.893-1.95 1.299-4.061 1.299-6.498 0-2.274-.406-4.386-1.136-6.335-.893-1.95-1.948-3.574-3.327-4.873zm0 17.218A11.43 11.43 0 0166.937 48a11.107 11.107 0 01-3.732 3.005c-1.46.731-3.164 1.137-5.112 1.137-1.704 0-3.245-.244-4.706-.65-1.46-.406-2.758-1.137-3.894-2.03-1.136-.894-2.029-2.03-2.678-3.33-.649-1.3-.973-2.843-.973-4.63V29.157c.324-.65.73-1.137 1.136-1.624 1.46-1.462 2.92-2.599 4.462-3.33 1.542-.73 3.327-1.137 5.436-1.137 2.11 0 4.057.406 5.68 1.3a14.108 14.108 0 014.138 3.41c1.136 1.463 1.947 3.087 2.515 4.874.568 1.868.892 3.736.892 5.604 0 1.949-.243 3.655-.81 5.36zM92.738 29.97c.406-.325.812-.569 1.217-.894 1.217-.974 2.272-1.624 3.165-1.95.892-.324 1.622-.486 2.271-.486.487 0 .812.08 1.136.162.325.081.568.244.812.325l.649.487 3.164-3.005-.568-.568c-.243-.163-.487-.325-.73-.407-.325-.08-.649-.162-1.136-.162-.568 0-1.217.081-1.947.325s-1.623.73-2.597 1.38c-.324.244-.892.65-1.703 1.219-.812.569-1.704 1.218-2.759 1.95-1.055.73-2.11 1.461-3.246 2.192-1.135.812-2.19 1.543-3.245 2.193-1.055.73-1.947 1.38-2.758 1.95-.812.568-1.38.974-1.704 1.218V10.64c0-1.625.162-3.087.405-4.467.244-1.381.73-2.437 1.38-3.33.649-.894 1.541-1.3 2.758-1.3.812 0 1.704.244 2.759.65s2.272 1.056 3.651 2.03V.163C92.738 0 91.846 0 91.116 0a12.79 12.79 0 00-4.544.812c-1.542.487-2.84 1.462-4.057 2.762-1.136 1.218-2.028 2.761-2.596 4.548-.568 1.787-.893 3.655-1.055 5.766v38.985h3.895V37.117l5.923-4.305 1.622 1.95c.487.65 1.136 1.299 1.785 2.111.65.812 1.38 1.706 2.19 2.6l11.035 13.319h4.057L91.359 30.944c.487-.325.892-.65 1.38-.974zm21.177-18.68c-.649 0-1.217.243-1.785.65-.568.405-.812.974-.812 1.623 0 .569.244 1.137.812 1.625.487.487 1.136.73 1.866.73.73 0 1.298-.243 1.866-.73.487-.488.811-.975.811-1.625s-.243-1.137-.811-1.624a3.116 3.116 0 00-1.947-.65zm-2.029 41.502h3.895v-29.32h-4.057l.162 29.32zm57.445-39.472c-1.461-1.219-3.408-2.274-6.004-3.087-2.597-.812-6.004-1.218-10.142-1.218h-8.601v43.777h3.895V34.518h2.921c3.407 0 6.247-.244 8.681-.65 2.353-.406 4.381-.975 6.004-1.706 1.623-.73 2.84-1.543 3.814-2.436.892-.893 1.622-1.868 2.028-2.843.487-.974.73-1.949.892-2.842.163-.975.163-1.787.163-2.518 0-1.3-.244-2.68-.73-4.142-.568-1.543-1.542-2.843-2.921-4.061zm-.568 12.264c-.406 1.462-1.217 2.761-2.516 3.98-1.298 1.218-3.083 2.192-5.436 3.005-2.353.812-5.517 1.218-9.411 1.218h-2.921V9.665h3.975c2.272 0 4.463.244 6.491.73 2.029.488 3.814 1.22 5.355 2.194 1.542.974 2.759 2.193 3.651 3.655.893 1.462 1.38 3.248 1.38 5.198 0 1.3-.244 2.68-.568 4.142z" fill="#3C3C3B"/><path d="M178.174 3.817c-1.135-1.38-2.515-2.355-4.056-2.924a14.446 14.446 0 00-4.95-.893c-.811 0-1.622.081-2.596.162v3.98c1.379-.974 2.596-1.624 3.651-2.03 1.055-.406 1.947-.65 2.759-.65 1.136 0 2.109.406 2.758 1.218.649.812 1.136 1.868 1.38 3.168.243 1.3.405 2.761.486 4.304.082 1.625.082 3.168.082 4.63v38.01h3.894V15.025c0-2.274-.243-4.385-.73-6.253-.649-1.95-1.461-3.574-2.678-4.955zm60.771 20.143a8.363 8.363 0 01-2.109.243c-2.029 0-4.219-.325-6.491-1.056-1.704-.568-3.489-1.056-5.436-1.543-1.866-.487-3.814-.975-5.761-1.3-1.947-.405-3.894-.65-5.923-.893-1.947-.244-3.894-.325-5.679-.325-2.11 0-4.057.244-5.923.731a21.267 21.267 0 00-5.031 2.112c-1.541.893-3.002 2.03-4.381 3.33a30.153 30.153 0 00-3.895 4.467l2.434 3.574a39.394 39.394 0 011.948-4.955c.73-1.543 1.622-2.842 2.758-3.898 1.055-1.137 2.353-1.95 3.814-2.6 1.46-.649 3.164-.974 5.192-.974 2.516 0 5.031.244 7.465.65 2.434.487 4.949.974 7.383 1.543 1.217.325 2.434.569 3.651.812l3.652.731c2.515.487 5.03.65 7.302.65l2.19-.081c-3.57 4.467-7.14 8.771-10.628 13.157-3.57 4.305-7.221 8.61-11.035 12.751v1.543h25.233l.812-4.304c-1.055.812-2.353 1.462-3.895 1.95-1.541.486-3.083.811-4.706 1.136a48.616 48.616 0 01-4.949.487c-1.623.082-3.164.082-4.543.082h-4.057l22.637-27.046v-1.543c-.325.081-.649.162-1.055.244-.325.08-.649.162-.974.324z" fill="#3C3C3B"/><path d="M225.72 58.315c-.892.487-1.785.812-2.677 1.137-.893.325-1.785.406-2.678.406-.974 0-1.947-.325-2.84-.975-.892-.65-1.704-1.462-2.515-2.436-.811-.975-1.46-2.112-2.109-3.412a50.715 50.715 0 01-1.704-3.817c-.487-1.3-.974-2.599-1.298-3.817-.406-1.218-.65-2.274-.974-3.168a41.647 41.647 0 01-.568-1.867c-.162-.569-.325-1.056-.487-1.544l-3.651 1.219 3.164 8.934c-1.46.974-3.083 1.786-4.949 2.436-1.866.65-3.651.975-5.436.975-2.11 0-3.732-.569-4.868-1.625-1.136-1.055-1.785-2.68-1.785-4.792 0-1.218.406-2.355 1.136-3.33.73-1.055 1.704-1.949 2.921-2.76 1.217-.813 2.596-1.544 4.138-2.194 1.541-.65 3.083-1.218 4.705-1.624 1.542-.487 3.084-.812 4.544-1.137 1.46-.325 2.678-.569 3.732-.65a27.85 27.85 0 00-.405-4.792c-.244-1.38-.731-2.599-1.461-3.655-.73-.974-1.704-1.786-2.921-2.274-1.217-.487-2.758-.812-4.706-.812-1.054 0-2.028.163-2.839.487-.812.325-1.623.813-2.434 1.544l-.163.162c.244-.244.487-.406.812-.487.243-.081.405-.163.649-.244.243-.081.405-.162.649-.244.405-.162.811-.243 1.298-.325.406-.08.892-.162 1.379-.162 1.623 0 2.84.325 3.814.975a5.93 5.93 0 012.028 2.68c.406 1.056.568 2.193.649 3.33.081.65.081 1.3.081 1.95v1.867c-.892.163-2.028.406-3.407.812-1.38.325-2.84.813-4.463 1.3-1.623.487-3.164 1.137-4.787 1.787-1.623.65-3.083 1.462-4.381 2.274a13.363 13.363 0 00-3.165 2.761c-.811 1.056-1.217 2.112-1.217 3.249 0 1.38.325 2.518.893 3.411.568.893 1.379 1.624 2.353 2.193a10.34 10.34 0 003.245 1.218 17.45 17.45 0 003.489.325c1.298 0 2.84-.244 4.544-.65 1.704-.487 3.083-1.056 4.3-1.705.487-.244.892-.406 1.298-.65s.73-.487 1.136-.812c1.136 3.736 2.921 6.578 5.274 8.447 2.353 1.949 5.517 2.923 9.493 2.923 1.379 0 2.758-.162 4.057-.406 1.298-.243 2.677-.568 3.975-1.056v-4.304c-.649.487-1.379.974-2.19 1.543-.974.487-1.785.975-2.678 1.38zm53.469-7.878c-.244.162-.406.243-.649.406-.244.162-.406.243-.65.406-.405.162-.811.406-1.298.487-.405.163-.892.163-1.379.163-1.623 0-2.84-.488-3.813-1.544-.974-1.218-1.623-2.68-2.029-4.386-.405-1.705-.568-3.492-.649-5.36 0-1.056-.081-2.111-.081-3.167V33.3c0-1.787-.162-3.412-.487-4.711-.324-1.462-.892-2.68-1.623-3.574a6.627 6.627 0 00-3.164-2.111c-1.379-.488-3.002-.65-5.111-.65h-1.299c-.405 0-.811.081-1.217.081-1.785.162-3.164.487-4.219.975-1.054.487-1.866.893-2.434 1.38-.568.488-.892.894-1.136 1.3-.162.406-.243.568-.243.65h4.3c.162-.731.406-1.3.811-1.868.406-.488 1.055-.894 1.785-1.3.812-.406 1.867-.568 3.165-.568 1.622 0 2.921.243 3.894.73a5.013 5.013 0 012.191 2.112c.487.894.811 2.03.974 3.411.162 1.3.243 2.843.243 4.549a189.25 189.25 0 00-5.68 1.461 61.354 61.354 0 00-5.03 1.625c-1.298.487-2.677 1.056-3.976 1.706a22.296 22.296 0 00-3.407 2.111c-.974.812-1.785 1.624-2.434 2.437-.649.893-.974 1.787-.974 2.842 0 1.219.243 2.356.811 3.25.812 1.38 2.029 2.354 3.733 3.004 1.622.65 3.488.975 5.517.975 1.298 0 2.596-.163 3.813-.488a26.476 26.476 0 003.327-1.137c.973-.406 1.785-.893 2.515-1.3.406-.243.73-.486 1.055-.649-.081-.243 0-.568 0-.893-1.217.812-2.759 1.543-4.544 2.193-1.866.73-3.732 1.137-5.679 1.137-.893 0-1.785-.081-2.597-.325-.811-.244-1.46-.569-2.109-1.137-.568-.487-1.055-1.137-1.461-1.95a8.271 8.271 0 01-.568-3.005c0-1.055.325-2.111.974-3.005.649-.893 1.46-1.786 2.434-2.517.974-.731 2.11-1.462 3.408-2.03 1.298-.65 2.596-1.138 3.894-1.625 1.298-.488 2.516-.812 3.733-1.137a40.948 40.948 0 013.164-.731h.081-.081c0 2.924.162 5.523.406 7.797.243 2.274.73 4.304 1.46 5.929.73 1.624 1.704 2.842 2.921 3.736 1.217.812 2.758 1.3 4.706 1.3 1.055 0 2.028-.245 2.84-.732.811-.487 1.622-1.3 2.515-2.517l.162-.244c-.243.162-.487.487-.811.65z" fill="#3C3C3B"/></svg>