<svg width="130" height="100" fill="none" xmlns="http://www.w3.org/2000/svg"><path d="M85.81 43.216v3.387c-.653-.239-1.347-.715-1.347-1.336H82c0 2.071 1.915 3.532 3.81 3.894v1.16h2.465v-1.253a5.375 5.375 0 002.558-1.295 3.8 3.8 0 00.912-4.38c-.705-1.3-2-2.175-3.47-2.341v-3.386c.518.269.974.663.974 1.139h2.465c0-1.937-1.667-3.294-3.439-3.75v-1.387H85.81v1.263a5.49 5.49 0 00-2.971 1.42 3.833 3.833 0 00-.85 4.4 5.031 5.031 0 003.822 2.465zm2.464.352a1.935 1.935 0 011.305.964 1.43 1.43 0 01-.404 1.502 2.95 2.95 0 01-.86.507l-.04-2.973zm-3.707-5.458c.35-.324.778-.552 1.243-.662v3.241a2.458 2.458 0 01-1.626-1.035 1.43 1.43 0 01.383-1.544z" fill="#E49216"/><path d="M72.615 55.425a4.595 4.595 0 002.765.86h22.08c.99.02 1.96-.282 2.765-.86a3.045 3.045 0 001.409-2.703c-.114-1.668-1.7-3.013-2.652-3.625V37.561a10.108 10.108 0 00-4.763-9.072 11.05 11.05 0 00-3.801-1.512l2.765-6.804a1.253 1.253 0 00-.497-1.532 1.232 1.232 0 00-1.575.248c-2.992 3.418-8.885 2.195-8.937 2.185a1.242 1.242 0 00-1.232.445c-.285.36-.342.85-.145 1.264l1.957 4.142c-1.47.243-2.878.774-4.142 1.564a10.15 10.15 0 00-4.774 9.082v11.526c-.953.643-2.537 1.958-2.65 3.625a3.045 3.045 0 001.428 2.703zm3.107-4.557c.379-.211.621-.602.642-1.035V37.56a7.712 7.712 0 013.614-6.99 9.119 9.119 0 014.712-1.367 1.244 1.244 0 001.035-1.771l-1.739-3.614a13.702 13.702 0 005.395-.788l-1.874 4.495a1.224 1.224 0 001.036 1.688c1.522.089 3 .555 4.297 1.357a7.709 7.709 0 013.625 6.99v12.22c.016.431.256.823.631 1.036.819.445 1.989 1.44 2.071 2.07 0 .197-.258.436-.424.56-.377.26-.827.39-1.284.373H75.38a2.166 2.166 0 01-1.284-.373c-.166-.124-.435-.363-.425-.56.031-.548 1.098-1.501 2.02-2.019h.031zM69.416 39.87L47.12 20.474a1.244 1.244 0 00-1.605 0l-23.157 19.45 1.595 1.884 6.442-5.416v17.854c.008.328.137.641.363.88.236.227.551.354.88.352h29.37c.68 0 1.232-.552 1.232-1.232V36.929l5.593 4.805 1.584-1.864zM43.423 52.992v-7.963a2.932 2.932 0 012.91-2.921 2.922 2.922 0 012.92 2.92v5.313h2.465v-5.323a5.385 5.385 0 00-5.386-5.375 5.388 5.388 0 00-5.426 5.396V53H32.89V34.36l13.463-11.299 13.463 11.723V53.01l-16.393-.02zm51.334 6.989H81.585a3.483 3.483 0 00-2.704 1.305l-2.206 2.33-4.142-4.453a12.1 12.1 0 00-2.547-2.206 5.488 5.488 0 00-3.811-.538 3.101 3.101 0 00-1.45.818c-.4-.4-.9-.683-1.45-.818a5.438 5.438 0 00-3.81.548 11.625 11.625 0 00-2.548 2.248l-4.142 4.432-2.206-2.33a3.483 3.483 0 00-2.703-1.305H34.693a4.495 4.495 0 00-3.634 1.843L18.951 77.504l1.947 1.501 12.116-15.71a2.073 2.073 0 011.678-.85h13.173c.306.006.594.146.787.384.022.039.05.074.083.104l1.688 1.791h-12.24v2.465h14.114a1.24 1.24 0 00.901-.394l5.551-5.954c.6-.7 1.298-1.31 2.071-1.813a3.017 3.017 0 011.979-.227.864.864 0 01.424.372L53.209 71.455a2.279 2.279 0 01-1.76.84h-13.99a3.619 3.619 0 00-.487 0 4.946 4.946 0 00-4.06 3.241l-3.262 8.699 2.31.87 3.261-8.71a2.485 2.485 0 012-1.647h14.228a4.732 4.732 0 003.677-1.75l9.6-11.816 9.6 11.785a4.732 4.732 0 003.676 1.75h14.24c.918.135 1.684.77 1.988 1.647l3.262 8.71 2.31-.87-3.263-8.698v-.001a4.946 4.946 0 00-4.06-3.242 3.652 3.652 0 00-.486 0h-13.99a2.279 2.279 0 01-1.761-.839l-9.963-12.25a.865.865 0 01.424-.373 3.104 3.104 0 011.978.217 10.148 10.148 0 012.072 1.843l5.53 5.935c.233.25.559.391.9.393h14.085v-2.465h-12.24l1.687-1.791a.41.41 0 00.083-.104c.192-.238.48-.378.787-.383h13.172c.67.008 1.296.34 1.678.89l12.117 15.669 1.947-1.502-12.065-15.637a4.494 4.494 0 00-3.677-1.885z" fill="#E49216"/></svg>