<svg width="121" height="100" fill="none" xmlns="http://www.w3.org/2000/svg"><path d="M86.796 46.697L70.34 32.399a1.436 1.436 0 00-1.86 0L51.419 46.735l1.84 2.187 3.853-3.275v12.052h.001c.01.362.159.707.414.964.26.251.603.399.964.414h21.658c.364-.014.708-.166.964-.424.259-.254.407-.6.414-.963V46.05l3.237 2.814 2.033-2.168zm-18.99 9.548v-5.348a1.628 1.628 0 113.256 0v3.922h2.89v-3.931a4.49 4.49 0 00-4.49-4.48 4.489 4.489 0 00-4.48 4.499v5.346H60.07V43.237l9.374-7.88 9.423 8.189v12.678l-11.06.02z" fill="#E49216" fill-opacity=".88"/><path d="M40.947 26.792c-.793 0-1.436.643-1.436 1.435v36.169c0 .793.643 1.435 1.436 1.435H100.4v-2.89H42.333V29.654H94.9v23.257h2.89V28.228a1.437 1.437 0 00-1.435-1.436h-9.23v-8.208h11.85v-2.89H32.373V4.816h-2.89v83.82H20.03v2.89h22.304v-2.89h-9.962V18.583H50.89v8.209h-9.943zm12.813-8.209h30.542v8.209H53.76v-8.209z" fill="#E49216" fill-opacity=".88"/></svg>