<svg width="124" height="100" fill="none" xmlns="http://www.w3.org/2000/svg"><path d="M86.42 15.921L72.977 27.24l1.669 1.975 2.804-2.35v9.145c0 .714.58 1.294 1.294 1.294h17.087c.714 0 1.293-.58 1.293-1.294v-8.8l2.282 1.975 1.699-1.975-12.988-11.28a1.283 1.283 0 00-1.699-.009zm8.099 18.766h-8.346v-4.07c0-.616.5-1.115 1.116-1.115a1.115 1.115 0 011.106 1.116v2.054h2.587v-2.054a3.705 3.705 0 00-3.704-3.704 3.7 3.7 0 00-3.693 3.704v4.05l-3.536-.001V24.642l7.23-6.084 7.268 6.321-.028 9.808z" fill="#E49216" fill-opacity=".88"/><path d="M106.172 41.106v-27.23a4.5 4.5 0 00-4.494-4.503H72.385a4.503 4.503 0 00-4.493 4.504v27.229a4.495 4.495 0 004.494 4.494h4.662v7.17h-.001c-.003.506.29.966.75 1.175a1.303 1.303 0 001.393-.197l9.353-8.148h13.136a4.491 4.491 0 004.494-4.494h-.001zm-2.587 0a1.917 1.917 0 01-1.907 1.906h-13.62c-.312 0-.613.112-.849.316l-7.575 6.598v-5.62c0-.714-.58-1.294-1.294-1.294h-5.926a1.916 1.916 0 01-1.906-1.906v-27.23c0-1.053.851-1.91 1.906-1.915h29.265a1.916 1.916 0 011.906 1.916v27.229zM17.382 69.888a1.333 1.333 0 000 1.046l3.724 7.901 3.575 7.576c.153.33.441.579.79.681a1.223 1.223 0 001.037-.129 77.583 77.583 0 019.433-4.404l2.874 6.094c.21.454.664.746 1.165.75.105.01.21.01.316 0l11.15-2.766-.582-2.567-10.143 2.519-2.341-4.939c9.382-3.457 23.437-7.032 38.834-5.48v-.002a1.293 1.293 0 001.304-1.866L67.16 50.203l-2.35 1.156 10.4 22.014c-23.575-1.67-43.665 7.98-48.76 10.676l-3.131-6.656-2.964-6.321c.88-.365 2.183-.939 3.783-1.709l4.385 9.294 2.341-1.096-4.405-9.353c8.533-4.405 22.716-13.323 33.166-27.961l3.19 6.785 2.341-1.106-4.148-8.81a1.313 1.313 0 00-1.077-.742 1.285 1.285 0 00-1.175.573C43.467 59.792 18.39 69.066 18.133 69.134a1.335 1.335 0 00-.75.751v.002z" fill="#E49216" fill-opacity=".88"/><path d="M36.732 65.512l-2.786 1.767 1.393 2.183 2.795-1.777a92.375 92.375 0 0018.134-15.131l-1.927-1.739h.001a89.616 89.616 0 01-17.61 14.697z" fill="#E49216" fill-opacity=".88"/></svg>