<svg width="125" height="100" fill="none" xmlns="http://www.w3.org/2000/svg"><path d="M62.403 17.249l-44.8 37.814 1.607 1.925 14.338-12.117.06 37.152c0 .332.132.651.366.886.234.235.551.367.882.367l56.851-.09a1.247 1.247 0 001.248-1.253V45.79l12.661 11.026 1.637-1.895-43.244-37.664a1.255 1.255 0 00-1.607-.011v.002zM90.459 80.68l-54.355.08-.06-37.995 27.128-22.912L90.41 43.607l.05 37.074z" fill="#E49216" fill-opacity=".88"/><path d="M54.065 57.379c0 2.216.877 4.341 2.439 5.908a8.31 8.31 0 005.886 2.45 8.313 8.313 0 005.888-2.444 8.377 8.377 0 00.009-11.819 8.311 8.311 0 00-5.884-2.454c-2.21 0-4.329.88-5.892 2.447a8.386 8.386 0 00-2.446 5.912zm14.158 0a5.864 5.864 0 01-1.708 4.139 5.819 5.819 0 01-8.249-.004 5.866 5.866 0 01.01-8.28 5.824 5.824 0 014.127-1.71 5.832 5.832 0 014.114 1.722 5.876 5.876 0 011.707 4.133z" fill="#E49216" fill-opacity=".88"/><path d="M63.642 37.083h-2.497v3.428a16.853 16.853 0 00-10.659 4.915 16.974 16.974 0 00-4.897 10.7h-3.454v2.506H45.6a16.954 16.954 0 004.887 10.7 16.836 16.836 0 0010.658 4.914v3.508h2.497v-3.508a16.838 16.838 0 0010.65-4.895 16.952 16.952 0 004.905-10.68h3.455v-2.545h-3.455a16.964 16.964 0 00-4.894-10.702 16.845 16.845 0 00-10.661-4.913v-3.428zM76.7 56.126h-2.706v2.505H76.7a14.461 14.461 0 01-4.182 8.886 14.362 14.362 0 01-8.877 4.142v-2.675h-2.497v2.756a14.354 14.354 0 01-8.874-4.144 14.453 14.453 0 01-4.175-8.885h2.775v-2.585h-2.786a14.469 14.469 0 014.158-8.936 14.366 14.366 0 018.902-4.174v2.756h2.497v-2.756c3.363.3 6.514 1.777 8.901 4.174a14.464 14.464 0 014.158 8.936z" fill="#E49216" fill-opacity=".88"/></svg>