<svg width="119" height="100" fill="none" xmlns="http://www.w3.org/2000/svg"><path d="M71.883 34.322L49.71 14.99a1.235 1.235 0 00-1.605 0L25.06 34.303l1.595 1.9 6.403-5.367V48.96a1.235 1.235 0 001.235 1.245c.314-.002.615-.12.846-.333L55.877 30.53a1.234 1.234 0 00-1.453-1.976s-3.44 1.9-6.403 1.387c-.151-3.02-1.728-5.243-3.8-5.243-2.07 0-3.799 2.45-3.799 5.7 0 3.249 1.634 5.7 3.8 5.7 1.69 0 3.05-1.492 3.572-3.695l-.001-.001a9.501 9.501 0 002.375.048l-14.64 13.67V28.753l13.394-11.2L62.27 29.23v18.105H40.602v2.48h22.912a1.244 1.244 0 001.235-1.245V31.347l5.51 4.797 1.624-1.822zm-26.76-6.137a6.179 6.179 0 01-.513-.807c.222.233.397.507.513.807zm-.893 5.453c-.465 0-1.33-1.225-1.33-3.23a5.95 5.95 0 01.086-.95 7.11 7.11 0 002.442 2.204c-.248 1.236-.837 1.976-1.198 1.976z" fill="#E49216" fill-opacity=".88"/><path d="M57.692 40.402c0-3.258-1.634-5.7-3.8-5.7s-3.8 2.451-3.8 5.7c0 3.25 1.635 5.7 3.8 5.7 2.166 0 3.8-2.403 3.8-5.7zm-5.13 0c0-2.004.855-3.23 1.33-3.23.475 0 1.32 1.226 1.32 3.23 0 2.005-.854 3.23-1.32 3.23-.466 0-1.33-1.225-1.33-3.23zm35.842 41.115c.225.379.632.613 1.074.617a1.26 1.26 0 001.063-.674l5.453-10.697c.086-.175.131-.366.133-.56V32.299h3.03v17.1h2.48V31.036a1.244 1.244 0 00-1.244-1.235h-5.51c-.682 0-1.235.552-1.235 1.235v38.861l-4.285 8.417-4.968-8.454V32.469h4.428v-2.48h-4.39v-5.652H94.75V21.85H83.199c-.684 0-1.24.55-1.245 1.234v47.118c-.001.22.058.437.171.627l6.28 10.689z" fill="#E49216" fill-opacity=".88"/><path d="M22.372 90.246h44.202c.368-.004.716-.171.95-.456l12.064-14.886c.177-.22.272-.496.266-.779v-41h-2.432v39.764H65.928a2.848 2.848 0 00-2.85 2.85v8.853h2.47V75.74a.37.37 0 01.37-.37h10.108L66.022 87.764h-43.65a2.852 2.852 0 01-2.85-2.85V10.05a2.853 2.853 0 012.85-2.85H74.4a2.991 2.991 0 013.02 3.011v18.287h2.48V10.21a5.472 5.472 0 00-5.5-5.462H22.37a5.311 5.311 0 00-5.3 5.3v74.896a5.312 5.312 0 005.3 5.3v.002z" fill="#E49216" fill-opacity=".88"/><path d="M29.088 59.04h38.768v2.48H29.088v-2.48zm0 8.407h38.768v2.48H29.088v-2.48z" fill="#E49216" fill-opacity=".88"/></svg>