<svg width="169" height="169" fill="none" xmlns="http://www.w3.org/2000/svg"><circle cx="84.5" cy="84.5" r="84.5" fill="#3C3C3B" fill-opacity=".09"/><circle cx="84.5" cy="84.5" r="84" stroke="#E1B164" stroke-opacity=".45"/><path d="M121.497 36.322l7.595 29.327a.621.621 0 01-.603.778v.001h-6.983v11.815a.625.625 0 01-1.25 0V66.428h-12.259l.019 2.893a.623.623 0 01-1.246.004l-.072-10.964-22.537-8.112-22.532 8.11v12.614a.625.625 0 01-1.25 0v-4.546h-11.32v11.781a.625.625 0 01-1.251 0V66.427h-7.09v-.002a.621.621 0 01-.603-.778l7.609-29.376a.625.625 0 01.643-.465l.064-.003h72.447c.309 0 .565.224.615.517l.004.002zm6.187 28.86l-7.286-28.131H48.811l-7.286 28.13H60.38v-7.258c0-.29.198-.535.468-.604l23.102-8.315a.624.624 0 01.42 0l23.157 8.336a.62.62 0 01.412.583l.047 7.26h19.697l.001-.002zm-77.707 41.204a2.187 2.187 0 012.194 2.189 2.19 2.19 0 01-2.194 2.19 2.191 2.191 0 01-1.553-3.738 2.187 2.187 0 011.553-.641zm9.71 2.438a.408.408 0 01.363-.729l3.47 1.731a.408.408 0 01-.364.728l-3.47-1.73zm31.17-16.756a.408.408 0 11.202-.79c1.767.447 3.561.746 5.362.767 1.794.021 3.604-.233 5.412-.885a.409.409 0 01.278.767c-1.907.688-3.812.954-5.7.933-1.882-.022-3.737-.329-5.555-.79v-.002h.001zm27.544 12.566a.884.884 0 10.885.883.885.885 0 00-.885-.883zm-1.553-.667a2.188 2.188 0 011.553-.641 2.187 2.187 0 012.194 2.189 2.191 2.191 0 01-2.194 2.19 2.192 2.192 0 01-2.195-2.19c0-.605.245-1.152.642-1.548zm-.576-21.33l-10.126 3.251c.497 4.24 1.637 9.115 3.101 13.658 1.452 4.503 3.222 8.671 5.004 11.556l10.454-3.218c.386-.126.661-.289.792-.499.116-.184.128-.444.014-.797l-7.67-23.782c-.068-.208-.227-.303-.424-.333-.326-.048-.746.035-1.145.162v.001zm-11.036 2.174l10.635-3.416c.567-.182 1.188-.295 1.735-.213.677.1 1.23.453 1.478 1.226l7.671 23.782c.242.75.172 1.376-.153 1.89-.308.487-.827.832-1.511 1.05l-.104.033h-.004l-11.303 3.477-.269-.417c-1.038-1.606-2.075-3.641-3.054-5.93l-3.031.163c-.224 2.357-1.794 3.714-3.392 5.094-.145.126-.292.252-.429.373.368 1.152.412 2.105.225 2.867a2.995 2.995 0 01-1.187 1.774c-.547.388-1.217.599-1.928.647a5.391 5.391 0 01-2.012-.262c.1.532.1 1.017.02 1.454a2.973 2.973 0 01-1.051 1.798c-.518.423-1.177.686-1.907.78-.723.093-1.522.019-2.32-.232.025.395 0 .756-.068 1.085-.162.773-.558 1.367-1.104 1.779-.53.4-1.197.616-1.92.649a4.702 4.702 0 01-1.361-.147c-.016.175-.05.34-.102.497-.184.558-.571.975-1.083 1.254-.459.251-1.02.387-1.61.409a5.03 5.03 0 01-2.184-.423 4.88 4.88 0 01-.314.457c-.666.845-1.508 1.263-2.32 1.402-.814.137-1.605-.016-2.16-.306a2.38 2.38 0 01-.357-.229l.001-.001c-.725-.518-1.107-1.028-1.255-1.527a3.73 3.73 0 01-1.208.385 3.953 3.953 0 01-2.346-.395 3.093 3.093 0 01-.459-.293l.001-.001c-1.153-.822-1.566-1.63-1.58-2.419-.388.2-.784.331-1.173.401-.959.175-1.88-.008-2.562-.365a3.158 3.158 0 01-.477-.305l.002-.002c-1.405-1.001-1.83-2.05-1.758-3.103a3.97 3.97 0 01-.726.211 3.604 3.604 0 01-2.288-.328 2.797 2.797 0 01-.428-.275l.001-.001c-2.34-1.667-1.42-3.101-.469-4.588l.196-.308a32.668 32.668 0 00-2.171-1.162 24.57 24.57 0 00-2.903-1.202.682.682 0 01-.237-.142c-.642 1.319-1.3 2.511-1.96 3.529l-.269.416-11.302-3.477h-.005c-.035-.011-.069-.021-.103-.033-.685-.22-1.204-.563-1.511-1.049-.325-.514-.396-1.14-.153-1.89l7.67-23.783c.249-.772.802-1.127 1.479-1.227.547-.08 1.167.031 1.734.213l11.142 3.578-.056.524c-.102.965-.24 1.963-.405 2.986 1.124.41 2.058.577 2.873.58.912.005 1.69-.197 2.42-.497a78.518 78.518 0 002.882-1.244 53.222 53.222 0 002.479-1.201l.364-.19c3.448-1.802 7.242-3.785 10.26-1.18a.612.612 0 01.094.1c1.097-.283 2.215-.333 3.368.038 3.893.916 6.932 1.215 9.664 1.087 2.597-.12 4.936-.627 7.477-1.354a53.051 53.051 0 01-.28-2.188l-.056-.524.506-.162v.005l.001-.002zm4.593 20.205a77.922 77.922 0 01-1.828-5.071c-1.161-3.601-2.121-7.41-2.729-10.963-2.573.73-4.959 1.237-7.627 1.36-2.854.132-6.008-.175-10.02-1.119a.623.623 0 01-.056-.017c-2.048-.681-4.199.446-6.351 1.575-1.152.604-2.304 1.207-3.493 1.578a.717.717 0 01-.069.022c-.815.204-1.425.535-1.915.969-.502.443-.899 1.01-1.274 1.663a.54.54 0 01-.053.08l-4.555 5.777c-.11.453-.1.878.028 1.237.08.225.208.424.382.586.178.165.411.297.699.377.615.177 1.456.132 2.524-.238.353-.208-.088.052.265-.155 2.07-1.212 4.336-2.539 5.499-5.5a.656.656 0 01.816-.434c1.017.308 2.228.348 3.494.122a10.85 10.85 0 003.736-1.438.656.656 0 01.902.215.653.653 0 01-.216.9c-.165.102-.333.2-.502.292l4.823 4.32c1.522.085 2.798.014 3.985-.208 1.348-.251 2.592-.694 3.964-1.319a.327.327 0 01.433.16.325.325 0 01-.141.422l-.322.174c-2.018 1.1-3.744 2.042-6.44 2.093l9.13 8.176a.26.26 0 01.031.027l.133-.114c1.504-1.299 2.98-2.575 2.968-4.723a.652.652 0 01.62-.654v-.001l3.16-.172-.001.001zm-30.122 18.306l-.014.019c-.666.92-1.388 1.916-.152 2.79l.028.017c.045.036.099.07.158.101.33.173.816.261 1.334.173.52-.089 1.066-.362 1.505-.921.12-.152.23-.322.33-.512.003-.007.007-.011.01-.016-.09-.653-.365-1.166-.737-1.521a2.012 2.012 0 00-.974-.52 1.712 1.712 0 00-1.022.093 1.7 1.7 0 00-.469.296h.001l.002.001zm-5.575-2.531l-.034.057c-.678 1.133-1.4 2.336.176 3.45l.028.017c.076.059.163.115.26.165.406.212.968.34 1.552.257.582-.083 1.188-.379 1.691-1.02a3.77 3.77 0 00.238-.338c.41-1.078.251-2.01-.21-2.651a2.264 2.264 0 00-.814-.699 2.194 2.194 0 00-1.03-.237c-.63.015-1.297.318-1.857.997v.002zm-6.204-2.933c-.34.591-.63 1.19-.674 1.748-.052.639.24 1.305 1.228 2.003l.028.017c.084.066.176.125.277.178a2.696 2.696 0 001.716.237c.66-.12 1.355-.494 1.95-1.251a4.57 4.57 0 00.26-.363c.17-.702.114-1.306-.096-1.799a2.593 2.593 0 00-1.031-1.172 3.333 3.333 0 00-1.574-.492c-.662-.036-1.327.124-1.853.507a6.613 6.613 0 01-.232.384v.003zm-1.1-.71c.068-.117.137-.232.206-.348.109-.584-.1-1.154-.479-1.607a2.757 2.757 0 00-.666-.578 2.632 2.632 0 00-.792-.34c-.534-.13-1.086-.063-1.51.288-.018.016-.039.029-.059.044a.794.794 0 01-.06.134c-.097.161-.217.346-.334.53-.614.958-1.208 1.886.149 2.844l.028.017c.069.053.145.103.228.147.378.197.897.299 1.445.199.558-.101 1.145-.417 1.65-1.06.065-.084.131-.173.194-.268v-.002zm19.385-19.706c-.802.331-1.617.566-2.417.71-1.24.221-2.45.216-3.529-.011-1.365 3.033-3.704 4.403-5.848 5.659-.156.092.349-.204-.317.187a.728.728 0 01-.125.058c-1.369.483-2.5.528-3.368.28a2.988 2.988 0 01-1.231-.68 2.76 2.76 0 01-.726-1.107c-.23-.645-.24-1.39-.022-2.147a.665.665 0 01.13-.243l4.595-5.828c.428-.742.9-1.402 1.522-1.951.644-.57 1.429-1.001 2.461-1.258 1.072-.334 2.173-.91 3.273-1.488.822-.43 1.642-.86 2.472-1.207-2.308-1.386-5.424.242-8.275 1.731l-.365.19c-.786.41-1.658.83-2.54 1.232-.981.448-1.995.883-2.933 1.265-.875.357-1.808.6-2.918.594-.907-.004-1.918-.171-3.093-.577-.61 3.32-1.51 6.826-2.585 10.155-.878 2.726-1.875 5.335-2.922 7.627a.832.832 0 01.127.03 26.07 26.07 0 013.055 1.263c.844.409 1.68.87 2.512 1.362.695-.402 1.495-.464 2.258-.28a3.94 3.94 0 011.181.503c.365.23.698.518.972.85.377.454.65.987.758 1.565a4.401 4.401 0 011.762-.261 4.676 4.676 0 012.2.685 3.892 3.892 0 011.541 1.77c.129.3.22.622.266.965a3.557 3.557 0 011.877-.592c.58-.013 1.143.12 1.646.374.502.254.946.63 1.285 1.102a3.71 3.71 0 01.684 1.896 3.022 3.022 0 011.882-.21 3.32 3.32 0 011.615.853c.514.49.91 1.166 1.08 2.004a3.632 3.632 0 001.895.46c.39-.014.748-.099 1.028-.251.227-.125.396-.298.47-.518.059-.181.063-.404-.002-.675l-6.285-4.631a.651.651 0 01-.136-.912.655.655 0 01.915-.136c2.127 1.567 4.31 3.121 6.41 4.719.598.282 1.204.412 1.75.387.459-.02.871-.149 1.187-.388.3-.226.52-.56.613-1.001.088-.418.069-.933-.089-1.543l-5.98-5.542a.654.654 0 01.892-.954l6.057 5.614c.888.474 1.826.649 2.626.546.487-.063.917-.23 1.24-.495.304-.248.516-.591.596-1.026.101-.553-.005-1.261-.397-2.119l-7.421-7.446a.653.653 0 01.927-.918l7.461 7.486c.77.532 1.744.801 2.62.74.478-.033.916-.165 1.258-.407.32-.228.562-.564.673-1.017.17-.693.057-1.655-.489-2.928L86.214 97.443l-.001-.002v.001zM61.8 91.89l.013-.077c.167-.98.306-1.937.416-2.865l-10.127-3.251c-.402-.13-.82-.211-1.146-.162-.198.03-.356.127-.424.332l-7.67 23.783c-.114.352-.102.613.014.797.132.209.406.374.792.499l10.454 3.217c1.782-2.885 3.552-7.052 5.005-11.555 1.136-3.523 2.075-7.246 2.672-10.717h.002v-.002zm-11.2 16.06a.885.885 0 00-1.51.624.881.881 0 001.51.624.88.88 0 000-1.248z" fill="#C87B00"/></svg>