<svg width="34" height="34" fill="none" xmlns="http://www.w3.org/2000/svg"><path d="M14.167 4.25h-8.5A1.417 1.417 0 004.25 5.667v8.5a1.417 1.417 0 001.417 1.416h8.5a1.417 1.417 0 001.416-1.416v-8.5a1.417 1.417 0 00-1.416-1.417zm-1.417 8.5H7.083V7.083h5.667v5.667zm15.583-8.5h-8.5a1.417 1.417 0 00-1.416 1.417v8.5a1.417 1.417 0 001.416 1.416h8.5a1.417 1.417 0 001.417-1.416v-8.5a1.417 1.417 0 00-1.417-1.417zm-1.416 8.5H21.25V7.083h5.667v5.667zm-12.75 5.667h-8.5a1.417 1.417 0 00-1.417 1.416v8.5a1.417 1.417 0 001.417 1.417h8.5a1.417 1.417 0 001.416-1.417v-8.5a1.417 1.417 0 00-1.416-1.416zm-1.417 8.5H7.083V21.25h5.667v5.667zm11.333-8.5a5.672 5.672 0 00-5.666 5.666 5.672 5.672 0 005.666 5.667 5.672 5.672 0 005.667-5.667 5.672 5.672 0 00-5.667-5.666zm0 8.5a2.836 2.836 0 01-2.833-2.834 2.836 2.836 0 012.833-2.833 2.836 2.836 0 012.834 2.833 2.836 2.836 0 01-2.834 2.834z" fill="#E1B164" stroke="#fff"/></svg>