<svg width="20" height="20" fill="none" xmlns="http://www.w3.org/2000/svg"><path d="M5 14.167h1.25v-1.25h7.5v1.25H15v-3.459c0-.416-.115-.788-.344-1.115a2.009 2.009 0 00-.906-.718V7.5c0-.458-.163-.85-.49-1.177a1.607 1.607 0 00-1.177-.49H7.917c-.459 0-.85.163-1.177.49-.327.326-.49.719-.49 1.177v1.375a2.014 2.014 0 00-.907.718A1.896 1.896 0 005 10.708v3.459zm1.25-2.5v-.959c0-.194.07-.36.208-.5a.682.682 0 01.5-.208h6.084c.194 0 .36.07.5.208a.682.682 0 01.208.5v.959h-7.5zM7.5 8.75V7.083h5V8.75h-5zm-4.167 9.583c-.458 0-.85-.163-1.176-.489a1.605 1.605 0 01-.49-1.177V3.333c0-.458.163-.85.49-1.177.326-.326.718-.49 1.176-.49h13.334c.458 0 .85.164 1.177.49.326.327.49.72.49 1.177v13.334c0 .458-.164.85-.49 1.177-.326.326-.719.49-1.177.49H3.333zm0-1.666h13.334V3.333H3.333v13.334zm0 0V3.333v13.334z" fill="#E1B164" stroke="#fff" stroke-width=".5"/></svg>