<svg width="52" height="53" fill="none" xmlns="http://www.w3.org/2000/svg"><path d="M24.016 53c-2.591 0-5.266-.92-7.607-2.675-3.762-2.759-9.28-12.874-9.53-13.292-.25-.418-6.186-10.282-6.771-14.88-.502-4.263.752-8.025 3.678-10.616 2.508-2.341 6.353-4.097 6.52-4.18.168-.084.418-.168.67-.168.5 0 1.002.251 1.253.753l6.52 11.285c.419.67.168 1.589-.5 2.007l-.084.083c-.502.335-1.422.836-2.76 1.588-1.587.836-2.758 1.087-3.594 1.17.753 1.673 2.508 5.017 4.264 7.775 1.588 2.926 3.51 6.103 4.681 7.608.418-.753 1.254-1.589 2.842-2.508 1.756-1.004 2.508-1.421 2.759-1.589 0 0 .084-.083.167-.083.669-.418 1.588-.167 2.006.501l6.52 11.286c.419.669.168 1.588-.5 2.006-.084.084-3.595 2.508-6.772 3.511-1.505.251-2.675.418-3.762.418zM10.892 8.945c-.836.418-3.93 1.923-5.936 3.845-2.424 2.258-3.51 5.518-3.093 9.196.502 4.263 6.52 14.128 6.52 14.211.084.167 5.602 10.283 9.03 12.79 2.925 2.174 6.352 2.926 9.53 1.923 2.674-.836 5.684-2.842 6.269-3.26l-6.27-10.867c-.084 0-.669.334-2.675 1.504-2.34 1.421-2.508 2.675-2.508 2.675 0 .251-.25.585-.501.67a1.435 1.435 0 01-.836 0c-1.422-.837-4.933-7.107-5.936-8.946-1.087-1.839-4.681-7.941-4.765-9.613 0-.251.167-.585.335-.753.25-.167.585-.167.836-.083 0 0 1.254.418 3.594-.92.92-.501 2.09-1.17 2.675-1.588l-6.27-10.784zm21.149 24.911h-.25a3.172 3.172 0 01-2.425-1.504c-.334-.502-.418-1.087-.418-1.756.335-4.43-2.09-8.61-6.102-10.533-.753-.334-1.254-1.003-1.505-1.755-.25-.753-.25-1.589.167-2.341.502-1.003 1.589-1.756 2.759-1.756.502 0 .92.084 1.338.335a16.883 16.883 0 019.53 16.468c-.168 1.589-1.505 2.842-3.093 2.842zm-7.774-17.89c-.502 0-1.003.335-1.254.753-.167.335-.167.67-.084 1.003.084.335.335.586.67.753 4.68 2.257 7.356 7.022 7.021 12.121 0 .251.084.585.168.753.25.418.668.668 1.086.668h.084c.669 0 1.337-.585 1.337-1.254a15.054 15.054 0 00-8.526-14.796c-.084.083-.251 0-.502 0z" fill="#E1B164" fill-opacity=".74"/><path d="M40.067 34.358h-.251a3.172 3.172 0 01-2.424-1.505c-.335-.502-.418-1.17-.418-1.755.585-7.691-3.511-14.797-10.45-18.14-.752-.335-1.254-1.004-1.505-1.756-.25-.753-.25-1.589.168-2.341.501-1.003 1.588-1.756 2.758-1.756.502 0 .92.084 1.338.335 9.195 4.43 14.63 13.877 13.877 24.076-.167 1.588-1.505 2.842-3.093 2.842zM27.862 8.86c-.502 0-1.003.334-1.254.752-.168.335-.168.67-.084 1.087.084.335.334.585.669.753 7.524 3.678 12.038 11.452 11.453 19.812 0 .25 0 .585.167.752.25.418.668.669 1.087.669h.083c.669 0 1.338-.585 1.338-1.254.668-9.53-4.43-18.308-12.958-22.487-.083-.084-.334-.084-.501-.084z" fill="#E1B164" fill-opacity=".74"/><path d="M48.008 34.86h-.25a3.172 3.172 0 01-2.425-1.505c-.334-.502-.418-1.17-.418-1.756.836-10.867-5.015-21.066-14.88-25.83-.752-.335-1.254-1.004-1.505-1.756-.25-.753-.25-1.589.168-2.341C29.199.669 30.286 0 31.456 0c.502 0 .92.084 1.338.334C44.915 6.186 52.104 18.642 51.1 32.017c-.167 1.589-1.504 2.843-3.093 2.843zM31.456 1.672c-.501 0-1.003.334-1.254.752-.167.335-.167.67-.083 1.087.083.334.334.585.669.752 10.45 5.1 16.719 15.8 15.8 27.42 0 .25 0 .585.166.752.251.418.67.67 1.087.67h.084c.669 0 1.337-.586 1.337-1.255.92-12.707-5.851-24.494-17.388-30.094 0 0-.25-.084-.418-.084z" fill="#E1B164" fill-opacity=".74"/></svg>