<svg width="43" height="43" fill="none" xmlns="http://www.w3.org/2000/svg"><g clip-path="url(#clip0_408_1068)"><path d="M21.5 43C33.374 43 43 33.374 43 21.5S33.374 0 21.5 0 0 9.626 0 21.5 9.626 43 21.5 43z" fill="url(#paint0_linear_408_1068)"/><path d="M14.556 23.06l2.549 7.072s.318.669.668.669c.35 0 5.415-5.288 5.415-5.288l5.638-10.925-14.174 6.657-.096 1.816z" fill="#C8DAEA"/><path d="M17.933 24.876l-.478 5.192s-.191 1.593 1.401 0a45.95 45.95 0 013.122-2.835l-4.045-2.357z" fill="#A9C6D8"/><path d="M14.588 23.316l-5.255-1.72s-.638-.255-.415-.829c.032-.127.128-.223.383-.382 1.178-.796 21.531-8.122 21.531-8.122s.574-.191.924-.064c.16.064.255.128.35.383.032.095.064.286.032.477 0 .128-.031.255-.031.446-.128 2.007-3.823 16.945-3.823 16.945s-.223.86-1.019.892c-.287 0-.637-.063-1.051-.414-1.56-1.338-6.944-4.969-8.154-5.765a.175.175 0 01-.096-.16c-.031-.095.064-.19.064-.19s9.396-8.345 9.651-9.237c.032-.064-.063-.096-.16-.064-.636.223-11.434 7.071-12.644 7.804-.064.032-.287 0-.287 0z" fill="#fff"/></g><defs><linearGradient id="paint0_linear_408_1068" x1="21.5" y1="43" x2="21.5" y2="0" gradientUnits="userSpaceOnUse"><stop stop-color="#1D93D2"/><stop offset="1" stop-color="#38B0E3"/></linearGradient><clipPath id="clip0_408_1068"><path fill="#fff" d="M0 0h43v43H0z"/></clipPath></defs></svg>