<svg width="43" height="43" fill="none" xmlns="http://www.w3.org/2000/svg"><circle cx="21.5" cy="21.5" r="21.5" fill="#E49216" fill-opacity=".88"/><circle cx="21.5" cy="21.5" r="21" stroke="#E1B164" stroke-opacity=".45"/><path d="M18.405 18.364a57.75 57.75 0 00-.484.127h0v.002l.002.004.003.011a2.346 2.346 0 00.053.175c.037.115.094.277.174.473.16.392.413.924.788 1.488.751 1.128 2.01 2.408 4.004 2.924l.04.01.041.004.044-.498-.043.498h.016a1.493 1.493 0 00.41-.028 1.31 1.31 0 00.784-.456v-.001l.532-.672h0l.006-.008c.1-.133.438-.294.827-.074.79.45 1.788 1.15 2.437 1.768l.013.013.014.012a.457.457 0 01.175.282c.016.101.002.243-.091.424l-.05.096c-.272.46-.636.914-1.035 1.218-.368.28-.712.398-1.028.351l-.006-.008-.179-.05c-.528-.15-1.468-.569-2.51-1.139-1.035-.565-2.13-1.258-2.969-1.933l-.001-.001a14.057 14.057 0 01-2.264-2.29h0l-.003-.003a17.684 17.684 0 01-1.657-2.537l-.001-.002a24.738 24.738 0 01-1.139-2.32 9.375 9.375 0 01-.248-.66l-.007-.026-.001-.003h0v-.001h0l-.003-.01-.003-.01c-.118-.37-.012-.777.31-1.21.3-.402.748-.77 1.202-1.044l.099-.052c.175-.093.314-.107.412-.09a.477.477 0 01.29.184l.002.001h0l.002.002.005.007.022.027.081.098.266.327c.209.259.445.558.583.749h0l.001.002c.26.358.62.948.81 1.283.22.4.056.748-.075.85h0l-.008.006-.664.538h-.001a1.324 1.324 0 00-.45.789 1.737 1.737 0 00-.028.41l.001.01v.005h0v.001l.499-.043zm0 0l-.484.127-.01-.041-.004-.043.498-.043zm13.673-8.552l.005.005.006.005c2.14 1.883 3.46 6.203 2.59 13.364h0c-.404 3.35-1.84 5.134-3.243 6.13-1.159.821-2.29 1.115-2.969 1.292-.162.042-.3.078-.404.112-.35.113-3.773.984-8.243.604l-.2-.017a305.483 305.483 0 00.83-1.002c3.807.207 6.815-.545 7.19-.666h.002a3.12 3.12 0 01.24-.06c.524-.122 1.671-.387 2.762-1.137 1.363-.937 2.667-2.616 3.04-5.662h0c.373-3.04.308-5.623-.113-7.68-.418-2.046-1.198-3.616-2.297-4.572-.717-.654-3.412-2.306-8.846-2.332h-.005l-.058-.003-.215-.01a22.243 22.243 0 00-3.36.16c-1.996.252-4.487.869-6.147 2.392l-.008.007-.008.007c-1.857 1.855-2.443 4.57-2.504 7.712l-.007.338c-.034 1.524-.082 3.693.512 5.7.625 2.106 1.966 4.064 4.734 4.967l-.001.323-.004.682h-.22c-3.085-.901-4.602-2.957-5.354-5.263-.768-2.354-.73-4.947-.692-6.817.077-3.678.783-6.519 2.666-8.429 1.703-1.576 4.347-2.29 6.643-2.595a24.946 24.946 0 013.786-.205l.235.008.06.003h.013l.003.001h.001l.014.001h.014c6.226.028 8.948 2.074 9.552 2.637zm-3.358 9.773s0 0 0 0h0z" stroke="url(#paint0_linear_52_1534)" stroke-linecap="round"/><defs><linearGradient id="paint0_linear_52_1534" x1="8.574" y1="-136.672" x2="36.45" y2="-136.673" gradientUnits="userSpaceOnUse"><stop stop-color="#fff"/><stop offset="1" stop-color="#fff" stop-opacity=".45"/></linearGradient></defs></svg>