<svg width="43" height="43" fill="none" xmlns="http://www.w3.org/2000/svg"><g clip-path="url(#clip0_408_1076)"><path d="M0 21.48C0 9.603 9.603 0 21.48 0s21.48 9.603 21.48 21.48-9.603 21.48-21.48 21.48S0 33.358 0 21.48z" fill="#7B519D"/><path d="M30.922 26.431c-.684-.57-1.424-1.082-2.164-1.594-1.48-1.025-2.79-1.082-3.872.57-.626.91-1.48.967-2.334.569-2.448-1.139-4.384-2.847-5.466-5.352-.513-1.082-.513-2.107.683-2.904.626-.399 1.196-.911 1.196-1.822-.057-1.196-2.904-5.125-4.043-5.523-.455-.171-.91-.171-1.423 0-2.677.91-3.758 3.074-2.677 5.637 3.132 7.686 8.655 13.038 16.228 16.34.455.172.91.286 1.139.343 1.708 0 3.758-1.652 4.327-3.303.512-1.594-.626-2.22-1.594-2.96zm-8.541-15.544c5.58.854 8.085 3.473 8.825 9.11.057.513-.113 1.31.627 1.31.797 0 .57-.74.57-1.253.056-5.238-4.556-10.135-9.851-10.306-.399.057-1.253-.284-1.31.627 0 .512.683.455 1.139.512z" fill="#F1F2F2"/><path d="M23.463 12.425c-.513-.058-1.253-.342-1.367.398-.114.797.683.683 1.139.797 3.416.74 4.612 1.993 5.181 5.41.057.512-.057 1.252.74 1.138.627-.114.4-.74.456-1.139.114-3.245-2.676-6.206-6.15-6.604z" fill="#F1F2F2"/><path d="M23.804 15.1c-.341 0-.683.057-.854.456-.17.57.228.683.627.797 1.423.228 2.163 1.082 2.277 2.448.057.399.285.684.627.627.512-.057.569-.513.512-.968.114-1.595-1.651-3.417-3.189-3.36z" fill="#F1F2F2"/></g><defs><clipPath id="clip0_408_1076"><path fill="#fff" d="M0 0h43v43H0z"/></clipPath></defs></svg>