<svg width="43" height="43" fill="none" xmlns="http://www.w3.org/2000/svg"><circle cx="21.5" cy="21.5" r="21.5" fill="#E49216" fill-opacity=".88"/><circle cx="21.5" cy="21.5" r="21" stroke="#E1B164" stroke-opacity=".45"/><mask id="a" fill="#fff"><path fill-rule="evenodd" clip-rule="evenodd" d="M31.572 11.482a13.318 13.318 0 00-9.48-3.931c-7.389 0-13.403 6.012-13.406 13.403 0 2.362.617 4.667 1.79 6.7L8.573 34.6l7.106-1.865a13.41 13.41 0 006.405 1.632h.006c7.386 0 13.4-6.013 13.403-13.403a13.325 13.325 0 00-3.922-9.481zm-9.48 20.622h-.005c-1.996 0-3.955-.537-5.671-1.554l-.406-.242-4.217 1.106 1.125-4.11-.265-.421a11.12 11.12 0 01-1.703-5.93c.003-6.142 5-11.139 11.146-11.139a11.07 11.07 0 017.875 3.267 11.079 11.079 0 013.26 7.882c-.003 6.142-5 11.14-11.14 11.14zm6.11-8.345c-.336-.169-1.981-.978-2.289-1.09-.306-.112-.528-.167-.752.168-.224.334-.866 1.088-1.062 1.312-.195.224-.391.25-.725.084-.335-.168-1.414-.522-2.694-1.662-.996-.889-1.668-1.985-1.863-2.32-.196-.336-.021-.517.148-.684.15-.15.334-.392.501-.587.168-.196.223-.335.335-.558.112-.224.056-.42-.029-.587-.083-.169-.754-1.817-1.033-2.488-.27-.65-.546-.563-.752-.572a14.551 14.551 0 00-.64-.011 1.234 1.234 0 00-.895.418c-.308.335-1.172 1.145-1.172 2.793 0 1.648 1.2 3.241 1.367 3.465.168.224 2.362 3.606 5.722 5.057.8.345 1.424.551 1.91.707.801.255 1.531.218 2.11.133.643-.096 1.98-.81 2.26-1.592.279-.782.279-1.453.195-1.593-.084-.14-.309-.226-.642-.393z"/></mask><path d="M22.091 7.55v1h.003l-.003-1zM8.686 20.955h-1 1zm1.79 6.7l.964.265.11-.402-.209-.362-.866.5zM8.573 34.6l-.964-.264-.457 1.67 1.675-.439-.254-.967zm7.106-1.865l.478-.878-.348-.19-.384.1.254.968zm6.405 1.632v1-1zm13.41-13.403l-1-.003v.002h1zm-13.408 11.14v-1 1zm-5.671-1.553l-.512.859h.002l.51-.86zm-.406-.242l.511-.86-.36-.214-.405.106.254.968zm-4.217 1.106l-.964-.264-.457 1.671 1.675-.44-.254-.967zm1.125-4.11l.964.264.116-.424-.233-.372-.847.532zm-.265-.421l.847-.532-.847.532zm-1.703-5.93l1 .002-1-.001zM22.096 9.815v1h.002l-.002-1zm7.875 3.267l-.709.705.004.003.705-.708zm3.26 7.882l-1-.003v.002h1zm-5.478 3.69a1 1 0 00.898-1.787l-.898 1.787zm-1.84-1.984l-.343.94h.001l.342-.94zm-5.233-.098l-.666.746.666-.746zm-1.715-3.004l-.704-.71.704.71zm.807-1.732l-.896.444.005.01.891-.454zm-1.033-2.488l-.923.385.923-.385zm-.752-.572l.043-.999h-.003l-.04 1zm-.64-.011l-.005-1h-.02l.025 1zm-.895.418l.737.675.007-.007.006-.008-.75-.66zm5.917 11.315l-.397.919h.001l.396-.919zm1.91.707l-.305.952h.001l.303-.952zm2.11.133l.145.989-.146-.99zm2.262-4.471a1 1 0 00-.898 1.787l.898-1.787zm3.63-12.089a14.318 14.318 0 00-4.672-3.135l-.767 1.848a12.316 12.316 0 014.02 2.697l1.42-1.41zM27.61 7.642a14.317 14.317 0 00-5.52-1.091l.005 2c1.63-.005 3.243.315 4.748.939l.767-1.848zm-5.52-1.091c-7.94 0-14.401 6.46-14.405 14.402l2 .001c.003-6.839 5.57-12.403 12.405-12.403v-2zM7.686 20.954c0 2.536.663 5.014 1.923 7.2l1.732-.999a12.401 12.401 0 01-1.655-6.201h-2zm1.825 6.437L7.61 34.335l1.929.528 1.9-6.944-1.928-.528zm-.683 8.175l7.106-1.865-.508-1.934-7.105 1.865.507 1.934zm6.374-1.954a14.41 14.41 0 006.883 1.754v-2a12.412 12.412 0 01-5.927-1.51l-.956 1.756zm6.883 1.754h.006v-2h-.006v2zm.006 0c7.939 0 14.4-6.46 14.403-14.403h-2c-.002 6.838-5.57 12.403-12.403 12.403v2zm14.403-14.4a14.327 14.327 0 00-1.088-5.519l-1.848.765c.623 1.505.94 3.119.936 4.748l2 .006zm-1.088-5.519a14.328 14.328 0 00-3.128-4.674l-1.412 1.417a12.328 12.328 0 012.692 4.022l1.848-.765zM22.091 31.104h-.004v2h.004v-2zm-.005 0c-1.816 0-3.598-.488-5.16-1.415l-1.02 1.72a12.117 12.117 0 006.18 1.695v-2zm-5.158-1.413l-.407-.242-1.023 1.718.406.242 1.024-1.718zm-1.172-.35l-4.216 1.106.507 1.934 4.217-1.106-.508-1.934zm-2.998 2.337l1.124-4.11-1.929-.528-1.124 4.11 1.929.528zm1.007-4.906l-.265-.42-1.694 1.062.265.421 1.694-1.063zm-.265-.421a10.12 10.12 0 01-1.55-5.396l-2-.002a12.12 12.12 0 001.857 6.462L13.5 26.35zm-1.55-5.397c.003-5.59 4.552-10.14 10.146-10.14v-2c-6.698 0-12.143 5.445-12.146 12.14h2zm10.148-10.14c1.331-.003 2.65.258 3.88.768l.766-1.847a12.068 12.068 0 00-4.65-.92l.004 2zm3.88.768c1.23.51 2.346 1.26 3.284 2.204l1.419-1.41a12.068 12.068 0 00-3.937-2.641l-.767 1.847zm3.288 2.207a10.08 10.08 0 012.2 3.289l1.848-.765a12.079 12.079 0 00-2.637-3.94l-1.411 1.416zm2.2 3.289c.509 1.23.769 2.55.765 3.882l2 .006a12.078 12.078 0 00-.917-4.653l-1.848.765zm.765 3.884c-.003 5.591-4.553 10.142-10.14 10.142v2c6.692 0 12.136-5.447 12.14-12.14l-2-.002zm-3.58 1.904c-.174-.088-.674-.334-1.17-.574-.463-.224-1.011-.484-1.226-.562l-.684 1.879.03.012.081.035c.067.03.152.068.25.114a103.127 103.127 0 011.821.883l.898-1.787zm-2.394-1.136c-.124-.045-.473-.183-.865-.138-.5.058-.843.361-1.062.688l1.662 1.113c.008-.013-.017.03-.088.079a.624.624 0 01-.392.109.317.317 0 01-.04-.006l.023.007.075.026.687-1.878zm-1.927.55c-.181.27-.777.974-.984 1.211l1.506 1.316c.184-.21.873-1.016 1.14-1.414L24.33 22.28zm-.984 1.211c-.003.004.023-.027.08-.063a.607.607 0 01.243-.084c.174-.02.254.045.152-.006l-.895 1.789c.233.116.578.252.982.203.445-.053.75-.301.944-.523l-1.506-1.316zm.475-.153c-.432-.216-1.326-.489-2.475-1.514l-1.331 1.493c1.409 1.256 2.674 1.691 2.911 1.81l.895-1.789zm-2.475-1.514c-.878-.782-1.486-1.77-1.665-2.077l-1.728 1.007c.212.365.947 1.569 2.061 2.563l1.332-1.492zm-1.665-2.077a.424.424 0 01.045.152.629.629 0 01-.035.296.481.481 0 01-.071.132.57.57 0 01.049-.05l-1.408-1.42c-.058.056-.314.291-.444.639-.165.443-.08.886.136 1.258l1.728-1.007zm-.013.53c.187-.185.458-.53.558-.647l-1.52-1.3c-.234.274-.33.413-.445.526l1.407 1.421zm.558-.647c.266-.311.38-.584.47-.761l-1.79-.895-.078.158a2.03 2.03 0 01-.047.091.592.592 0 01-.075.107l1.52 1.3zm.47-.761c.315-.631.12-1.189-.032-1.488l-1.783.907c.014.027-.007-.005-.015-.075a.463.463 0 01.04-.239l1.79.895zm-.028-1.478l-.034-.079a146.166 146.166 0 01-.38-.914c-.212-.513-.451-1.098-.592-1.435l-1.846.769c.258.62.957 2.34 1.06 2.547l1.792-.888zm-1.006-2.428c-.179-.43-.447-.834-.897-1.046-.37-.175-.868-.146-.735-.14l-.087 1.998.082.001h.073a.557.557 0 01-.291-.116.34.34 0 01-.05-.048c-.008-.01.016.016.059.12l1.846-.769zm-1.634-1.187a15.677 15.677 0 00-.685-.012l.007 2c.198-.001.397.003.596.01l.081-1.998zm-.707-.012c-.308.008-.61.079-.89.21l.848 1.811a.233.233 0 01.093-.022l-.051-2zm-.89.21c-.278.13-.527.316-.73.547l1.501 1.321a.235.235 0 01.077-.057l-.847-1.812zm-.717.532c-.312.341-1.434 1.404-1.434 3.47h2c0-1.232.607-1.788.91-2.12l-1.476-1.35zm-1.434 3.47c0 1.048.376 2.023.73 2.719.36.71.743 1.22.836 1.344l1.603-1.197c-.075-.1-.375-.498-.657-1.053-.288-.568-.512-1.215-.512-1.814h-2zm1.566 4.063l.036.051.105.15a18.076 18.076 0 001.595 1.953c1.038 1.106 2.536 2.421 4.39 3.223l.793-1.837c-3.063-1.323-5.097-4.443-5.316-4.737l-1.603 1.197zm6.127 5.377a20.79 20.79 0 002 .74l.61-1.905a18.814 18.814 0 01-1.818-.672l-.792 1.837zm2.002.74c1.002.32 1.901.267 2.559.17l-.292-1.979c-.498.074-1.059.095-1.66-.096l-.607 1.905zm2.56.17c.51-.076 1.14-.353 1.66-.686.495-.317 1.14-.843 1.395-1.559l-1.883-.672c-.024.067-.188.289-.591.547-.38.244-.74.372-.875.391l.294 1.979zm3.055-2.245c.17-.473.257-.92.289-1.287.015-.183.019-.36.006-.522a1.465 1.465 0 00-.182-.632l-1.718 1.024c-.067-.114-.087-.205-.09-.217-.005-.025-.005-.034-.004-.02a1.28 1.28 0 01-.005.195 3.242 3.242 0 01-.18.787l1.884.672zm.113-2.44a1.539 1.539 0 00-.604-.551c-.125-.07-.34-.17-.448-.224l-.898 1.787.24.118c.07.033.112.054.141.07.03.017.023.015-.001-.004a.643.643 0 01-.148-.173l1.718-1.024z" fill="url(#paint0_linear_52_1532)" mask="url(#a)"/><defs><linearGradient id="paint0_linear_52_1532" x1="8.574" y1="-127.685" x2="36.496" y2="-127.685" gradientUnits="userSpaceOnUse"><stop stop-color="#fff"/><stop offset="1" stop-color="#fff" stop-opacity=".45"/></linearGradient></defs></svg>