<svg width="620" height="703" viewBox="0 0 620 703" fill="none" xmlns="http://www.w3.org/2000/svg">
<g clip-path="url(#clip0_175_2409)">
<g opacity="0.85">
<path d="M363.148 554.091L363.368 596.322L363.148 596.102C364.248 596.542 365.349 596.762 366.449 596.542C367.55 596.322 368.43 595.443 369.09 594.563V594.783L368.87 552.991H370.191L369.971 594.783V595.003C369.31 596.102 368.21 596.982 366.889 597.202C365.569 597.422 364.248 597.202 363.148 596.762H362.928V596.542L363.148 554.091Z" fill="#D38E1F" fill-opacity="0.4"/>
<path d="M354.564 518.459L363.368 553.871H362.708L362.268 516.479H363.588L363.148 553.871C363.148 554.091 362.928 554.311 362.928 554.311C362.708 554.311 362.708 554.091 362.708 554.091L354.564 518.459Z" fill="#D38E1F" fill-opacity="0.4"/>
<path d="M363.148 516.699L363.588 554.091L363.148 553.651C396.161 549.032 429.175 544.413 462.188 540.014C495.202 535.615 528.215 531.216 561.229 527.257C528.215 532.096 495.422 536.715 462.408 541.334C429.395 545.953 396.381 550.352 363.368 554.531H362.928V554.091L363.148 516.699Z" fill="#D38E1F" fill-opacity="0.4"/>
<path d="M593.142 443.674L496.963 432.677L400.783 421.459H330.135L330.795 420.799L339.818 498.443L339.158 498.003L459.987 486.125L520.292 480.187L580.597 474.468L520.292 480.847L459.987 487.005L339.378 499.323C339.158 499.323 338.718 499.103 338.718 498.883L329.694 421.239C329.694 420.799 329.914 420.579 330.135 420.579H400.783L496.742 432.237L593.142 443.674Z" fill="#D38E1F" fill-opacity="0.4"/>
<path d="M330.355 420.799V428.277C332.116 443.674 333.656 458.851 335.417 474.248L340.039 520.218H338.718V498.443C337.178 485.685 335.857 472.708 334.537 459.731C333.216 447.193 331.895 433.996 330.355 420.799ZM330.355 420.799C331.895 433.556 333.436 446.314 335.197 459.291C336.958 472.268 338.498 485.465 340.039 498.443V520.218H338.718L334.316 474.248C332.996 458.851 331.455 443.454 330.135 428.277L330.355 420.799Z" fill="#D38E1F" fill-opacity="0.4"/>
<path d="M580.816 474.468L520.512 480.847L460.207 487.005L339.378 499.323L340.038 498.663V520.438L339.378 519.778L456.686 505.481L515.45 498.443L573.994 491.404L515.45 499.103L456.686 506.361L339.598 521.098H338.718V520.438V498.663V498.003H339.378L459.987 486.125L520.512 480.187L580.816 474.468Z" fill="#D38E1F" fill-opacity="0.4"/>
<path d="M560.129 622.057L606.347 603.581L652.566 585.325L652.126 585.765C656.308 581.145 658.949 575.647 660.71 569.708C662.47 563.769 663.351 557.61 664.011 551.232C665.111 538.694 665.331 526.157 664.231 513.62V513.18L664.451 512.74C667.752 506.141 671.054 499.543 674.135 492.724C677.216 485.905 680.297 479.307 682.939 472.268C688.661 458.631 693.723 444.554 698.125 430.477L698.345 430.037L698.785 429.817C701.206 429.157 702.967 426.078 702.086 423.658L702.747 424.098L651.906 423.878H626.376C622.194 423.878 617.792 423.658 613.61 423.658C611.409 423.658 609.429 423.878 607.448 424.098C606.347 424.318 605.467 424.318 604.367 424.538C603.266 424.758 602.386 424.978 601.505 425.418C599.965 426.078 599.965 428.497 599.084 430.477C598.424 432.457 597.544 434.436 596.663 436.416C595.123 440.375 593.582 444.334 592.042 448.293L582.798 472.048L573.554 495.803C570.473 503.722 567.171 511.64 564.53 519.558C561.889 527.477 560.349 535.615 560.129 543.973C559.688 552.331 560.129 560.69 560.129 569.268C560.129 577.846 559.468 586.424 557.047 595.003C554.626 603.361 550.665 611.499 544.062 617.658C540.761 620.737 536.799 623.157 532.617 624.696C528.436 626.236 523.814 626.896 519.412 626.896C510.608 626.676 502.025 623.817 494.542 619.198C487.059 614.579 480.896 608.2 475.614 601.601C470.332 594.783 465.71 587.524 461.308 580.486L463.289 580.925C461.748 581.585 460.428 582.025 458.887 582.025C457.347 582.025 455.806 581.805 454.485 581.365C452.945 580.706 451.624 579.386 451.184 577.626C450.744 575.867 450.964 574.327 451.624 572.787C452.945 569.708 456.026 568.388 458.667 567.508C461.308 566.629 463.949 566.409 466.15 565.749L510.828 557.17L555.727 548.812V549.252L511.269 558.93L466.59 568.388H466.81C464.169 569.268 461.528 569.488 459.327 570.368C457.127 571.028 454.926 572.347 454.265 574.107C453.825 574.987 453.825 576.087 454.045 576.966C454.265 577.846 454.926 578.286 455.806 578.726C457.567 579.386 460.208 579.386 461.968 578.506L463.289 577.846L463.949 578.946C468.571 585.984 473.193 593.243 478.255 599.622C483.537 606 489.48 611.939 496.523 616.338C503.565 620.517 511.489 623.377 519.632 623.377C523.594 623.377 527.775 622.717 531.517 621.397C535.258 620.077 538.78 617.878 541.641 615.238C547.583 609.739 551.325 602.261 553.526 594.343C555.947 586.424 556.387 578.066 556.607 569.708C556.827 561.35 556.387 552.771 556.827 544.193C557.267 535.615 558.808 527.037 561.669 518.898C564.53 510.76 567.832 503.062 571.133 495.143L580.817 471.608L590.501 448.073C592.041 444.114 593.582 440.155 595.343 436.416C596.223 434.436 597.104 432.457 597.764 430.697C598.204 429.817 598.424 428.717 598.864 427.618C599.084 427.178 599.304 426.518 599.525 426.078C599.965 425.638 600.405 424.978 601.065 424.758C602.166 424.318 603.266 424.098 604.367 423.878C605.467 423.658 606.567 423.438 607.668 423.438C609.869 423.218 611.85 423.219 614.05 423.219C618.232 423.219 622.634 423.438 626.816 423.658L652.126 423.878L702.967 423.658H703.407L703.627 424.098C704.727 427.398 702.747 431.357 699.445 432.457L700.106 431.797C695.924 446.094 691.082 460.171 685.8 474.028C683.159 481.066 680.298 487.885 677.216 494.704C674.135 501.522 671.054 508.121 667.532 514.939L667.752 514.059C668.193 520.438 668.633 526.817 668.413 533.196C668.413 539.574 667.972 545.953 667.312 552.331C666.652 558.71 665.772 565.089 663.791 571.248C661.81 577.406 658.949 583.345 654.547 588.404L654.327 588.624L654.107 588.844L607.448 606.22L560.789 623.377L560.129 622.057Z" fill="#D38E1F" fill-opacity="0.4"/>
<path d="M422.792 423.439L424.773 407.162V406.722H425.213L443.701 406.942H443.921V407.162C443.04 413.321 442.38 419.479 442.16 425.638C442.38 419.479 442.82 413.101 443.48 406.942L443.701 407.162L425.213 407.382L425.653 406.942L424.113 423.439H422.792Z" fill="#D38E1F" fill-opacity="0.4"/>
<path d="M447.442 426.518C447.662 423.219 447.883 419.919 448.323 416.62C448.543 415.08 448.763 413.321 449.203 411.781C449.643 410.241 449.863 408.482 450.524 406.942L450.744 406.722H450.964L473.193 406.062H473.633L473.413 406.502C472.092 410.021 471.212 413.98 470.772 417.72C470.332 421.459 470.332 425.418 470.552 429.377C470.332 425.418 470.332 421.679 470.552 417.72C470.992 413.761 471.652 410.021 472.973 406.282L473.193 406.502L450.964 407.602L451.404 407.382C450.744 408.702 450.524 410.461 450.083 412.001C449.863 413.541 449.643 415.3 449.423 416.84C448.983 420.139 448.763 423.219 448.763 426.518H447.442Z" fill="#D38E1F" fill-opacity="0.4"/>
<path d="M479.136 430.257C479.356 426.078 479.576 421.899 480.236 417.94C480.456 415.96 480.896 413.761 481.337 411.781C481.997 409.801 482.437 407.602 483.978 406.062L484.198 405.842H484.418L513.47 404.962H513.69V405.182C512.589 409.801 511.929 414.64 511.049 419.479C510.388 424.318 509.948 428.937 509.948 433.776C509.948 428.937 510.389 424.098 510.829 419.479C511.489 414.64 512.149 410.021 513.25 405.182L513.47 405.402L484.638 406.722L484.858 406.502C483.538 407.822 483.097 410.021 482.437 411.781C481.997 413.761 481.557 415.74 481.337 417.72C480.896 421.679 480.676 425.858 480.456 430.037L479.136 430.257Z" fill="#D38E1F" fill-opacity="0.4"/>
<path d="M525.574 435.756C525.794 430.477 526.014 425.418 526.675 420.139C526.895 417.5 527.335 414.86 527.995 412.441C528.655 409.801 529.316 407.382 530.636 404.962L530.856 404.742H531.076L568.712 404.302H569.152L568.932 404.522C567.831 407.382 567.171 410.241 566.511 413.101C565.851 415.96 565.41 419.039 564.97 422.119C564.53 425.198 564.31 428.058 564.31 431.137C564.09 434.216 564.09 437.296 564.09 440.155C564.09 437.076 564.09 433.996 564.09 431.137C564.31 428.058 564.31 424.978 564.75 422.119C565.19 419.039 565.631 416.18 566.071 413.101C566.731 410.021 567.391 407.162 568.492 404.302L568.712 404.522L531.076 405.622L531.517 405.402C530.196 407.602 529.536 410.021 529.096 412.661C528.655 415.08 528.215 417.72 527.775 420.359C527.115 425.418 526.895 430.697 526.895 435.756H525.574Z" fill="#D38E1F" fill-opacity="0.4"/>
<path d="M589.4 443.234C589.62 436.636 590.281 430.037 591.161 423.658C592.042 417.06 593.362 410.681 595.563 404.522V404.302H595.783L660.269 402.543H660.93L660.71 403.203C658.729 409.801 657.188 416.62 656.088 423.438L654.767 423.219C656.088 416.4 657.628 409.581 659.609 402.763L660.049 403.423L595.563 404.522L595.783 404.302C593.582 410.461 592.262 416.84 591.161 423.438C590.281 430.037 589.62 436.636 589.4 443.234Z" fill="#D38E1F" fill-opacity="0.4"/>
<path d="M444.802 463.03L488.82 459.071C496.083 458.411 503.566 457.751 510.829 457.091C518.092 456.652 525.575 456.212 532.838 455.992V456.212C525.575 457.091 518.092 457.751 510.829 458.631C503.566 459.291 496.083 459.731 488.82 460.171L444.802 463.03Z" fill="#D38E1F" fill-opacity="0.4"/>
<path d="M526.234 456.652L548.463 463.47C552.205 464.57 555.946 465.67 559.468 466.989C563.209 468.309 566.731 469.629 570.252 471.168V471.388C566.511 470.509 562.769 469.409 559.028 468.309C555.286 467.209 551.765 465.89 548.023 464.57L526.234 456.652Z" fill="#D38E1F" fill-opacity="0.4"/>
<path d="M439.079 466.549C444.361 468.969 449.643 471.608 454.705 474.028C457.347 475.348 459.988 476.447 462.409 477.767C464.83 479.087 467.471 480.627 469.892 482.166V482.386C467.03 481.506 464.609 480.187 461.968 478.867C459.327 477.547 456.906 476.227 454.265 474.688C449.203 472.268 444.141 469.629 439.079 466.549Z" fill="#D38E1F" fill-opacity="0.4"/>
<path d="M463.729 483.046L515.451 477.327C524.034 476.447 532.618 475.348 541.201 474.468C549.785 473.808 558.368 472.928 567.172 472.488V472.708C558.588 474.028 550.005 474.908 541.421 476.007C532.838 476.887 524.254 477.767 515.671 478.427L463.729 483.046Z" fill="#D38E1F" fill-opacity="0.4"/>
<path d="M488.819 459.511L507.747 467.649C510.828 468.969 514.13 470.289 517.211 471.828C520.292 473.368 523.373 474.908 526.235 476.667V476.887C522.933 475.788 519.852 474.468 516.551 473.148C513.469 471.828 510.388 470.289 507.307 468.749L488.819 459.511Z" fill="#D38E1F" fill-opacity="0.4"/>
<path d="M274.231 411.121L274.452 335.677V335.237H274.892L321.111 335.457H321.331V335.677L321.111 432.017L320.67 335.677L321.111 335.897L274.892 336.117L275.332 335.677L275.552 411.121H274.231Z" fill="#D38E1F" fill-opacity="0.4"/>
<path d="M279.514 355.473L317.369 355.033V355.913L279.514 355.473Z" fill="#D38E1F" fill-opacity="0.4"/>
<path d="M320.891 335.677L325.292 320.06L325.733 318.74V320.06L326.173 387.806C326.173 399.024 326.393 410.461 326.173 421.679C325.953 432.896 325.953 444.334 325.733 455.552H325.512C325.072 444.334 325.072 432.896 325.072 421.679C325.072 410.461 325.072 399.024 325.072 387.806L325.512 320.06H325.953L320.891 335.677Z" fill="#D38E1F" fill-opacity="0.4"/>
<path d="M325.513 320.06C335.637 320.28 345.981 320.5 356.105 320.94C366.229 321.38 376.574 321.82 386.698 322.48C396.822 323.139 407.166 323.799 417.29 324.239L447.883 325.339H448.323V325.779C448.543 339.416 448.543 353.273 448.543 366.91V366.69L449.863 371.969V372.189L449.643 372.409L448.103 374.169L448.323 373.729C448.323 381.867 448.103 390.225 448.103 398.364C448.103 406.502 447.883 414.86 447.662 422.999H447.442C447.222 414.86 447.222 406.502 447.002 398.364C447.002 390.225 446.782 381.867 446.782 373.729V373.509L447.002 373.289L448.323 371.529L448.103 372.189L446.562 366.91C446.562 353.273 446.562 339.416 446.782 325.779L447.222 326.219L416.63 324.459C406.506 324.019 396.161 323.579 386.037 323.359C375.913 323.139 365.569 322.48 355.445 322.04C345.981 321.38 335.637 320.72 325.513 320.06Z" fill="#D38E1F" fill-opacity="0.4"/>
<path d="M333.656 363.611L385.598 364.491H385.818V364.711V400.563V401.003H385.377H359.407C350.823 401.003 342.02 401.003 333.436 401.003H332.996V400.563L333.656 363.611ZM333.656 363.611L334.097 400.563L333.656 400.123C342.24 400.123 351.043 400.123 359.627 400.123H385.598L385.157 400.563V364.711L385.377 364.931L333.656 363.611Z" fill="#D38E1F" fill-opacity="0.4"/>
<path d="M336.077 366.25C343.78 366.25 351.484 366.47 359.407 366.47C363.368 366.47 367.11 366.47 371.072 366.69L382.736 367.13H382.956V367.35L382.736 382.747V398.144V398.364H382.516C366.89 398.584 351.484 398.584 335.857 398.584H335.417V398.144L336.077 366.25ZM336.077 366.25L336.517 398.144L336.077 397.704C351.704 397.704 367.11 397.704 382.736 397.924L382.516 398.144V382.747L382.296 367.35L382.516 367.57L370.851 367.35C367.11 367.35 363.148 367.13 359.187 367.13C351.704 366.69 344 366.47 336.077 366.25Z" fill="#D38E1F" fill-opacity="0.4"/>
<path d="M393.08 323.139L392.42 420.799L391.76 323.139H393.08Z" fill="#D38E1F" fill-opacity="0.4"/>
<path d="M422.572 324.459L421.912 423.219L421.031 324.459H422.572Z" fill="#D38E1F" fill-opacity="0.4"/>
<path d="M424.993 324.459L424.333 413.321L423.673 324.459H424.993Z" fill="#D38E1F" fill-opacity="0.4"/>
<path d="M346.861 420.799C346.641 418.38 346.421 416.18 346.201 413.76C345.981 412.661 345.761 411.561 345.541 410.461C345.321 409.361 344.881 408.262 344.44 407.382V407.162V406.942V406.062V405.622H344.881L371.071 405.842H371.291C372.172 408.262 372.832 410.461 373.052 412.881C373.492 415.3 373.492 417.72 373.272 420.139C373.712 415.3 372.612 410.241 370.851 405.842H371.071L344.881 406.062L345.321 405.622V406.502V406.282C345.981 407.382 346.421 408.482 346.641 409.801C346.861 410.901 347.082 412.221 347.302 413.321C347.742 415.74 347.962 417.94 348.182 420.359L346.861 420.799Z" fill="#D38E1F" fill-opacity="0.4"/>
<path d="M274.892 335.677L263.447 314.781" stroke="#D38E1F" stroke-opacity="0.4" stroke-width="0.606" stroke-miterlimit="10"/>
<path d="M263.667 412.221L263.888 368.89L264.108 369.33L255.304 363.831L255.744 363.611L255.304 413.541L255.084 363.611V362.951L255.524 363.391L264.548 368.67H264.768V368.89L264.988 412.221H263.667Z" fill="#D38E1F" fill-opacity="0.4"/>
<path d="M261.026 366.91L263.227 363.611L262.787 304.223V304.443L254.864 284.867L255.964 284.648C255.964 297.845 256.184 311.042 255.964 324.019L255.744 343.815C255.744 350.414 255.524 357.012 255.304 363.611C255.084 357.012 255.084 350.414 254.864 343.815L254.644 324.019C254.644 310.822 254.644 297.625 254.644 284.648V281.788L255.744 284.428L263.447 304.003L263.007 363.391L261.026 366.91Z" fill="#D38E1F" fill-opacity="0.4"/>
<path d="M255.305 284.648H250.022L250.463 349.094C250.683 370.65 250.683 391.985 250.022 413.541H249.802C249.142 391.985 249.142 370.65 249.362 349.094L249.802 284.648V284.428L255.305 284.648Z" fill="#D38E1F" fill-opacity="0.4"/>
<path d="M250.022 284.647C248.041 281.128 245.84 277.609 243.86 273.87C242.759 272.11 241.659 270.35 240.778 268.371C239.898 266.391 239.018 264.632 238.357 262.652H238.578C239.898 264.192 240.998 266.171 241.879 267.931C242.979 269.691 243.64 271.67 244.74 273.43C246.501 277.169 248.261 280.908 250.022 284.647Z" fill="#D38E1F" fill-opacity="0.4"/>
<path d="M238.357 413.541V347.774V347.994L235.716 345.135H235.496L235.716 344.915L238.357 340.296L238.137 242.416V242.636L214.808 186.328L215.248 186.548H206.004L206.444 186.108L206.664 301.364L206.444 358.992L206.004 416.62L205.564 358.992L205.344 301.364V186.108V185.448H206.004H215.248H215.468L215.688 185.888L239.017 242.416L238.797 340.296V340.516L236.156 345.135L235.936 344.915L238.577 347.554L238.797 347.774L238.577 413.541H238.357Z" fill="#D38E1F" fill-opacity="0.4"/>
<path d="M215.248 186.108L215.688 301.144C215.908 320.28 215.908 339.416 215.908 358.772C215.688 377.908 215.688 397.044 215.248 416.4H215.027C214.587 397.264 214.587 378.128 214.367 358.772C214.367 339.636 214.367 320.5 214.587 301.144L215.248 186.108Z" fill="#D38E1F" fill-opacity="0.4"/>
<path d="M206.004 186.108L191.258 156.194C188.837 151.135 186.196 146.296 183.995 141.238C181.794 136.179 179.373 131.12 177.393 125.841H177.613C180.254 130.68 182.895 135.739 185.316 140.578C187.737 145.637 190.158 150.696 192.359 155.754L206.004 186.108Z" fill="#D38E1F" fill-opacity="0.4"/>
<path d="M93.0977 -62C100.801 -47.9229 108.284 -33.8459 115.767 -19.7688L138.216 22.4623L160.225 64.9135C167.488 78.9905 174.751 93.2875 182.014 107.585C174.311 93.5075 166.828 79.4304 159.345 65.3534L137.116 23.1222L115.107 -19.3289C107.624 -33.6259 100.361 -47.703 93.0977 -62Z" fill="#D38E1F" fill-opacity="0.4"/>
<path d="M177.832 97.4667L177.172 418.819L176.512 97.4667H177.832Z" fill="#D38E1F" fill-opacity="0.4"/>
<path d="M40.2764 207.224H56.1228L177.612 300.704L176.952 301.364L171.45 295.205L171.23 294.985L171.45 294.765L176.732 282.668L176.952 283.328L116.207 225.92L55.9027 168.292H56.1228H40.2764V168.072L56.1228 167.852V168.072L117.088 225.04L177.612 282.448L177.832 282.668L177.612 283.108L172.33 295.205V294.545L177.612 300.704L176.952 301.584L55.9027 207.444H56.1228H40.2764V207.224Z" fill="#D38E1F" fill-opacity="0.4"/>
<path d="M56.1225 129.36L56.5627 351.953L56.7828 463.25C56.5627 500.422 56.5627 537.375 56.1225 574.547H55.9025C55.4623 537.375 55.4623 500.422 55.2422 463.25L55.4623 351.953L56.1225 129.36Z" fill="#D38E1F" fill-opacity="0.4"/>
<path d="M40.2765 133.539L40.7167 186.108V238.677L40.9368 343.815L40.7167 448.953V501.522L40.2765 554.091L40.0564 501.522L39.8363 448.953L39.6162 343.815L39.8363 238.677L40.0564 186.108L40.2765 133.539Z" fill="#D38E1F" fill-opacity="0.4"/>
<path d="M177.833 432.677L177.612 525.497V525.717H177.392L0 693.322L176.952 525.277L176.732 525.497L176.512 432.677H177.833Z" fill="#D38E1F" fill-opacity="0.4"/>
<path d="M177.172 519.558L194.999 503.502" stroke="#D38E1F" stroke-opacity="0.4" stroke-width="0.606" stroke-miterlimit="10"/>
<path d="M448.103 327.099V324.679C453.825 320.5 459.767 316.541 465.71 312.802C471.652 308.842 477.595 305.103 483.537 301.364H483.757H483.977L489.92 302.244H490.14V302.464C489.92 311.042 489.92 319.84 490.14 328.418C490.36 336.997 490.36 345.795 490.36 354.373C490.36 362.951 490.36 371.749 490.36 380.328C490.14 388.906 490.14 397.704 489.92 406.282H489.699C489.479 397.704 489.259 388.906 489.259 380.328C489.039 371.749 489.039 362.951 489.259 354.373C489.259 345.795 489.479 336.997 489.479 328.418C489.699 319.84 489.699 311.042 489.479 302.464L489.699 302.684L483.757 302.024H483.977C478.035 305.983 472.092 309.942 466.15 313.681C460.207 317.421 454.045 321.38 448.103 324.899V324.679V327.099Z" fill="#D38E1F" fill-opacity="0.4"/>
<path d="M483.978 301.144C484.418 309.942 484.638 318.74 484.418 327.319C484.198 336.117 483.978 344.915 484.198 353.493C484.638 371.089 484.638 388.466 483.978 406.062H483.758C482.877 388.466 483.097 371.089 483.537 353.493C483.758 344.695 483.538 335.897 483.317 327.319C483.097 318.74 483.317 309.942 483.978 301.144Z" fill="#D38E1F" fill-opacity="0.4"/>
<path d="M489.479 306.863L526.235 287.507L489.92 307.963L489.479 306.863Z" fill="#D38E1F" fill-opacity="0.4"/>
<path d="M528.435 413.321C528.435 404.083 528.215 394.844 528.215 385.386L527.995 357.452V357.232L528.215 357.012L531.296 353.933L531.076 354.373L527.995 345.795C527.995 335.017 527.995 324.459 527.995 313.681L528.215 281.568V281.348H528.435L547.143 271.01L565.63 260.453L602.826 239.337H603.046H603.266L611.409 240.217H611.849V240.657V322.04L611.629 362.731C611.629 376.368 611.409 389.786 611.189 403.423H610.969C610.749 389.786 610.749 376.368 610.529 362.731L610.309 322.04V240.657L610.749 241.317L602.606 240.217H602.826L565.41 260.892L546.703 271.23L528.215 281.788L528.435 281.568L528.655 313.681C528.655 324.459 528.875 335.017 528.655 345.795V345.575L531.737 354.153L531.957 354.373L531.737 354.593L528.655 357.672L528.875 357.232L528.655 385.166C528.655 394.844 528.655 404.083 528.435 413.321Z" fill="#D38E1F" fill-opacity="0.4"/>
<path d="M603.046 240.217C603.486 253.854 603.706 267.491 603.486 281.348C603.266 294.985 603.046 308.623 603.266 322.48C603.486 336.117 603.706 349.754 603.486 363.611C603.486 370.43 603.486 377.248 603.266 384.067C603.266 390.885 603.046 397.704 602.826 404.522H602.606C602.385 397.704 602.386 390.885 602.165 384.067C602.165 377.248 601.945 370.43 601.945 363.611C601.945 349.974 602.165 336.337 602.165 322.48C602.386 308.842 602.165 295.205 601.945 281.348C602.165 267.711 602.385 253.854 603.046 240.217Z" fill="#D38E1F" fill-opacity="0.4"/>
<path d="M610.749 245.276L703.187 196.886L611.409 246.376L610.749 245.276Z" fill="#D38E1F" fill-opacity="0.4"/>
<path d="M252.663 29.7208L261.687 96.5868L270.49 163.453L288.098 297.185H286.777V285.087L275.993 173.791C272.251 136.618 268.95 99.4462 265.428 62.274C269.39 99.4462 273.131 136.399 276.873 173.571L288.098 284.867V296.965H286.777L269.61 163.013L261.026 96.1469L252.663 29.7208Z" fill="#D38E1F" fill-opacity="0.4"/>
<path d="M287.437 285.307L432.036 296.965H432.476V297.405V307.303V307.963H431.816L359.626 303.124L323.532 300.484L287.437 297.625H287.217V297.405L287.437 285.307ZM287.657 285.527L287.877 297.625L287.657 297.405L323.752 299.604L359.846 301.804L432.036 306.863L431.376 307.303V297.405L431.816 297.845L287.657 285.527Z" fill="#D38E1F" fill-opacity="0.4"/>
<path d="M801.787 -11.6305L432.256 297.845L432.476 297.405V307.303L431.596 306.863L579.496 193.587L727.617 80.7501H727.837L580.157 194.686L432.256 307.743L431.376 308.402V307.303V297.405V297.185L431.596 296.965L801.787 -11.8505V-11.6305Z" fill="#D38E1F" fill-opacity="0.4"/>
<path d="M330.355 31.4804L314.289 271.67L313.848 271.23L417.731 282.228L417.291 282.448L559.909 128.04L702.967 -25.9276H703.187L560.789 128.92L417.951 283.328H417.731H417.511L313.848 272.11L313.408 271.89V271.67L330.355 31.4804Z" fill="#D38E1F" fill-opacity="0.4"/>
<path d="M417.51 282.888L417.29 269.251L417.51 269.471L366.009 264.412C348.842 262.652 331.675 260.892 314.729 258.253V258.033C331.896 259.353 349.062 261.112 366.229 263.092L417.51 269.031H417.731V269.251L417.51 282.888Z" fill="#D38E1F" fill-opacity="0.4"/>
<path d="M417.51 269.251L531.076 133.979L587.859 66.4531C607.007 44.0178 625.935 21.5825 645.303 -0.632843C626.595 22.0224 607.667 44.6777 588.74 67.113L531.736 134.419L417.51 269.251Z" fill="#D38E1F" fill-opacity="0.4"/>
<path d="M316.049 240.217L430.495 253.194V254.514L316.049 240.217Z" fill="#D38E1F" fill-opacity="0.4"/>
<path d="M317.81 216.022L448.103 232.518L447.883 233.838L317.81 216.022Z" fill="#D38E1F" fill-opacity="0.4"/>
<path d="M319.79 184.129L472.092 204.144L471.872 205.464L319.79 184.129Z" fill="#D38E1F" fill-opacity="0.4"/>
<path d="M322.432 147.836L498.063 173.351L497.843 174.67L322.432 147.836Z" fill="#D38E1F" fill-opacity="0.4"/>
<path d="M325.513 103.625L526.455 139.918L526.235 141.237L325.513 103.625Z" fill="#D38E1F" fill-opacity="0.4"/>
<path d="M328.594 56.7752L562.769 96.8068L562.549 98.1265L328.594 56.7752Z" fill="#D38E1F" fill-opacity="0.4"/>
<path d="M264.327 392.645L255.304 391.545L250.021 391.325L255.304 391.105H255.524L264.327 391.765V392.645Z" fill="#D38E1F" fill-opacity="0.4"/>
<path d="M264.327 401.663L250.021 401.223L264.327 400.783V401.663Z" fill="#D38E1F" fill-opacity="0.4"/>
<path d="M238.357 389.126L215.248 385.167L206.004 384.947L215.248 384.727L238.577 387.806L238.357 389.126Z" fill="#D38E1F" fill-opacity="0.4"/>
<path d="M238.577 401.883L206.004 400.123L238.577 400.563V401.883Z" fill="#D38E1F" fill-opacity="0.4"/>
<path d="M177.172 379.888L116.647 370.43L86.2748 365.591C76.1506 364.051 66.0265 362.291 56.1225 360.532C50.8403 360.532 45.7782 360.312 40.4961 360.092V359.872C45.7782 359.652 50.8403 359.652 56.1225 359.432C66.2466 360.972 76.3707 362.511 86.4948 364.051L116.867 369.11L177.172 379.888Z" fill="#D38E1F" fill-opacity="0.4"/>
<path d="M177.172 400.343L108.724 398.364C97.2796 398.144 85.8349 397.704 74.6104 397.264L57.4434 396.384L40.2764 395.944V395.724C45.9987 395.504 51.721 395.284 57.4434 395.284L74.6104 395.724C86.055 396.164 97.4997 396.604 108.724 397.044L177.172 400.343Z" fill="#D38E1F" fill-opacity="0.4"/>
<path d="M263.227 363.831L255.304 356.353L263.447 363.391L263.227 363.831Z" fill="#D38E1F" fill-opacity="0.4"/>
<path d="M238.137 348.434L215.248 332.597L238.798 347.334L238.137 348.434Z" fill="#D38E1F" fill-opacity="0.4"/>
<path d="M238.137 340.736L215.248 319.4L239.018 339.856L238.137 340.736Z" fill="#D38E1F" fill-opacity="0.4"/>
<path d="M447.883 366.47L483.757 357.012H489.7H483.757L448.103 367.35L447.883 366.47Z" fill="#D38E1F" fill-opacity="0.4"/>
<path d="M447.883 373.729L483.757 365.371H489.7H483.757L448.103 374.609L447.883 373.729Z" fill="#D38E1F" fill-opacity="0.4"/>
<path d="M449.423 371.749L483.757 362.511H489.699H483.757L449.643 372.629L449.423 371.749Z" fill="#D38E1F" fill-opacity="0.4"/>
<path d="M528.215 345.575L602.825 325.559L611.189 325.779H602.825L528.655 346.675L528.215 345.575Z" fill="#D38E1F" fill-opacity="0.4"/>
<path d="M528.215 357.012L602.825 340.956H611.189L602.825 341.176L528.655 358.332L528.215 357.012Z" fill="#D38E1F" fill-opacity="0.4"/>
<path d="M531.297 353.933L602.826 335.897H611.189H602.826L531.737 355.253L531.297 353.933Z" fill="#D38E1F" fill-opacity="0.4"/>
<path d="M448.103 394.844L483.757 391.545H489.699L483.757 391.765L448.103 395.724V394.844Z" fill="#D38E1F" fill-opacity="0.4"/>
<path d="M448.103 402.323L489.699 401.223L448.103 403.423V402.323Z" fill="#D38E1F" fill-opacity="0.4"/>
<path d="M528.436 387.806L602.826 381.427L611.189 381.647H602.826L528.436 389.126V387.806Z" fill="#D38E1F" fill-opacity="0.4"/>
<path d="M528.436 398.364L611.189 396.384L528.436 399.683V398.364Z" fill="#D38E1F" fill-opacity="0.4"/>
<path d="M321.111 456.212C318.03 455.112 314.728 454.672 311.647 455.112C308.566 455.552 305.485 456.871 302.403 457.531C299.322 458.411 295.801 458.851 292.499 457.311C290.959 456.652 289.638 455.112 288.978 453.792C288.098 452.252 287.877 450.713 287.437 448.953C285.016 436.196 282.155 423.658 279.294 411.121C279.514 400.783 279.514 390.665 279.514 380.328L279.294 349.534V349.094H279.734L317.59 348.874H318.25V349.534V369.77C318.25 376.588 318.25 383.187 318.03 390.005C317.81 403.423 317.81 416.84 317.59 430.257H317.369C317.149 416.84 316.929 403.423 316.929 390.005C316.929 383.187 316.709 376.588 316.709 369.77V349.534L317.369 350.194L279.514 349.974L279.954 349.534L279.734 380.328C279.734 390.665 279.734 400.783 279.954 411.121C283.256 423.658 286.117 436.196 288.538 448.953C288.758 450.493 289.198 452.033 289.858 453.352C290.519 454.672 291.619 455.772 292.94 456.652C295.581 457.971 299.102 457.971 302.183 457.091C305.265 456.212 308.346 455.112 311.647 454.892C314.728 454.452 318.03 454.892 321.111 456.212Z" fill="#D38E1F" fill-opacity="0.4"/>
<path d="M299.102 410.241C298.662 409.581 298.001 409.581 297.341 409.801L295.36 410.021L291.399 410.241L283.476 410.901L267.849 412.221L236.596 414.64L174.091 419.699L174.311 419.479C172.99 420.579 171.89 422.339 172.33 423.878C172.55 424.758 173.211 425.418 173.871 425.858C174.531 426.518 175.411 426.958 176.292 427.398L176.512 427.618V427.838L190.378 483.926L193.899 498.003C194.999 502.622 196.32 507.241 196.98 512.08C198.301 521.758 197.42 531.436 196.76 540.894C196.32 545.733 195.88 550.572 195.88 555.191C195.88 560.03 196.54 564.869 198.521 569.268C200.502 573.667 203.803 577.186 207.765 580.046C211.506 582.905 215.908 585.325 220.31 586.864C224.932 588.404 229.774 588.844 234.395 588.184C239.017 587.524 243.639 585.985 248.481 584.885L276.653 578.066C280.614 576.746 284.576 575.647 288.538 574.987C292.499 574.107 296.681 573.447 300.863 573.447C302.843 573.447 305.044 573.667 307.025 574.107C309.006 574.547 311.207 575.867 312.307 577.846C313.408 579.606 314.288 581.805 313.848 584.225C313.628 585.325 312.747 586.424 311.867 587.084C310.987 587.744 309.886 588.184 308.786 588.404L309.006 587.304L313.848 589.944H313.628C314.068 589.944 314.728 589.504 315.168 589.064C315.609 588.624 316.049 587.964 316.489 587.084C317.369 585.765 317.809 584.225 318.47 582.685C319.35 579.606 319.35 576.307 319.57 573.007C319.79 566.409 320.01 559.59 320.23 552.991C320.451 539.574 320.451 526.377 320.671 512.96C320.891 486.125 321.111 459.511 321.111 432.677C320.23 431.577 318.69 430.917 317.149 430.697C315.609 430.477 314.068 430.477 312.527 430.917C310.987 431.137 309.446 431.797 307.905 431.797C307.025 431.797 306.145 431.797 305.484 431.137C304.824 430.477 304.604 429.817 304.384 428.937C303.284 425.858 302.623 422.779 301.963 419.699C300.643 416.18 300.642 412.881 299.102 410.241ZM299.102 410.241C300.863 413.101 300.863 416.4 301.743 419.259C302.403 422.339 303.063 425.418 304.164 428.277C304.384 428.937 304.824 429.817 305.264 430.257C305.705 430.697 306.585 430.917 307.245 430.697C308.786 430.477 310.326 429.817 311.867 429.817C313.408 429.597 314.948 429.377 316.709 429.597C318.25 429.817 320.01 430.257 320.891 431.797C321.111 458.631 321.331 485.246 321.331 512.08C321.331 525.497 321.111 538.914 320.891 552.112C320.671 558.71 320.671 565.529 320.23 572.127C320.01 575.427 320.01 578.946 319.13 582.245C318.69 583.785 318.03 585.545 317.149 587.084C316.709 587.744 316.269 588.624 315.609 589.284C314.948 589.944 314.288 590.604 312.747 590.604L307.905 587.964L306.365 587.084L307.905 586.644C309.666 586.204 311.427 585.105 312.087 583.345C312.527 581.585 311.867 579.606 310.767 578.066C309.886 576.307 308.126 575.427 306.365 574.987C304.384 574.547 302.403 574.327 300.422 574.327C296.461 574.327 292.279 574.987 288.317 575.867C284.356 576.746 280.394 577.846 276.433 578.946L248.261 585.545C243.639 586.644 239.017 588.184 234.175 588.844C229.333 589.504 224.271 589.064 219.649 587.304C215.028 585.765 210.846 583.345 206.884 580.486C203.143 577.626 199.621 573.887 197.641 569.488C195.66 565.089 194.999 560.03 194.999 555.191C194.999 550.352 195.44 545.513 195.88 540.674C196.76 530.996 197.42 521.318 196.1 511.86C195.44 507.021 194.119 502.402 193.019 497.783L189.497 483.706L175.191 427.618L175.411 428.058C174.531 427.618 173.651 427.178 172.77 426.518C171.89 425.858 171.23 424.978 170.79 423.878C170.349 422.779 170.569 421.459 171.23 420.579C171.67 419.699 172.33 418.819 173.211 418.16H173.431H173.651L236.376 413.541L267.629 411.341L283.255 410.241L291.179 409.581L295.14 409.361L297.121 409.141C297.341 409.141 297.781 409.141 298.222 409.141C298.662 409.581 299.102 409.801 299.102 410.241Z" fill="#D38E1F" fill-opacity="0.4"/>
<path d="M180.033 423.219C186.196 445.874 191.918 468.749 197.64 491.624C198.961 497.343 200.722 503.062 201.162 509.001C201.822 514.939 201.602 520.878 201.382 526.597C200.942 532.536 200.502 538.255 200.061 544.193C199.621 550.132 199.621 556.071 201.382 561.57C202.262 564.429 203.583 567.068 205.344 569.268C207.104 571.468 209.305 573.447 211.726 575.207C216.348 578.726 221.63 581.366 227.352 582.685C230.214 583.345 233.075 583.565 235.936 583.345C238.797 583.125 241.658 582.465 244.519 581.805C247.381 581.146 250.242 580.266 253.103 579.606L261.686 577.626L278.853 573.667C284.576 572.347 290.518 571.248 296.241 570.808C299.102 570.588 302.183 570.368 305.044 570.588C306.585 570.588 308.125 570.808 309.446 571.028C310.987 571.248 312.527 571.688 313.628 572.787C315.829 574.987 316.709 578.066 316.709 581.146C316.709 584.225 315.608 587.084 314.288 589.724H314.068C315.388 587.084 316.269 584.225 316.049 581.365C316.049 578.506 314.948 575.647 312.967 573.667C311.867 572.787 310.546 572.347 309.226 572.127C307.685 571.907 306.365 571.688 304.824 571.688C301.963 571.688 298.882 571.907 296.02 572.127C290.078 572.787 284.356 573.887 278.853 575.427L261.686 579.606L253.103 581.585L244.519 583.785C241.658 584.445 238.797 585.105 235.716 585.325C232.635 585.545 229.773 585.105 226.692 584.445C220.75 583.125 215.468 580.046 210.846 576.526C208.425 574.767 206.224 572.567 204.463 570.368C202.702 567.948 201.382 565.309 200.502 562.449C198.741 556.731 198.961 550.572 199.401 544.853C199.841 538.914 200.502 533.196 200.722 527.257C200.942 521.318 200.942 515.599 200.281 509.66C199.621 503.942 197.86 498.223 196.32 492.504C190.818 468.969 185.095 446.094 180.033 423.219Z" fill="#D38E1F" fill-opacity="0.4"/>
<path d="M222.291 415.3C226.473 430.037 230.214 445.214 233.296 460.171L237.697 482.826L242.319 505.481C243.2 509.221 244.08 512.96 245.841 516.259C247.601 519.558 250.242 522.418 253.544 524.177C256.845 525.937 260.587 526.597 264.548 526.597C268.29 526.597 272.031 525.937 275.773 525.057C283.036 523.078 290.519 520.218 298.222 519.558C305.925 518.898 313.848 519.998 321.111 523.078V523.298C313.848 520.658 306.145 519.778 298.442 520.658C290.739 521.538 283.696 524.617 276.213 526.597C268.73 528.576 260.367 529.236 253.104 525.717C249.582 523.957 246.721 520.878 244.96 517.359C243.2 513.84 242.319 509.88 241.659 506.141C240.338 498.663 239.018 490.964 237.257 483.486C235.716 476.007 233.956 468.529 232.195 461.051L222.291 415.3Z" fill="#D38E1F" fill-opacity="0.4"/>
<path d="M248.922 413.321C252.003 424.098 254.864 435.096 257.065 446.094C259.266 457.091 261.247 468.089 263.668 479.087C264.328 481.726 264.988 484.586 266.309 487.005C267.63 489.425 269.61 491.404 271.811 492.504C274.232 493.824 276.873 494.264 279.734 494.264C282.376 494.264 285.237 493.824 287.878 493.164C293.16 491.844 298.662 489.645 304.384 489.205C310.107 488.765 315.829 489.645 321.111 491.844V492.064C315.829 490.304 310.107 489.645 304.605 490.305C299.102 490.964 293.82 493.164 288.318 494.704C282.816 496.243 276.653 496.683 271.371 494.044C268.73 492.724 266.749 490.305 265.429 487.885C264.108 485.246 263.448 482.386 263.008 479.747C261.247 468.749 258.826 457.751 256.185 446.754C253.764 435.316 251.123 424.318 248.922 413.321Z" fill="#D38E1F" fill-opacity="0.4"/>
<path d="M267.188 411.561C269.609 419.699 271.81 427.838 273.571 435.976C275.112 444.334 276.652 452.472 278.413 460.831C278.853 462.81 279.514 464.79 280.394 466.769C281.274 468.529 282.815 470.069 284.576 470.949C288.097 472.708 292.499 472.268 296.46 471.388C300.422 470.289 304.384 468.749 308.785 468.309C312.967 467.869 317.369 468.749 321.331 470.509V470.729C317.369 469.409 313.187 468.969 309.006 469.629C304.824 470.069 301.082 471.828 296.901 472.928C292.939 474.028 288.097 474.468 284.135 472.268C282.155 471.168 280.614 469.409 279.734 467.429C278.853 465.45 278.413 463.25 277.973 461.271C276.652 452.912 274.892 444.774 272.691 436.636C270.49 428.058 268.509 419.919 267.188 411.561Z" fill="#D38E1F" fill-opacity="0.4"/>
<path d="M289.638 410.241C291.178 414.86 292.279 419.699 293.379 424.538C293.819 426.958 294.039 429.377 294.7 431.797C295.14 434.216 295.8 436.636 296.46 439.055C297.121 441.475 298.001 443.674 299.982 444.554C301.963 445.434 304.384 445.214 306.805 444.774C309.006 444.114 311.427 443.234 314.068 443.014C316.709 442.794 319.13 443.454 321.331 444.334V444.554C318.91 443.894 316.489 443.674 314.068 444.114C311.647 444.334 309.446 445.434 307.025 446.094C304.604 446.754 301.743 446.974 299.322 445.654C298.001 444.994 297.121 443.894 296.681 442.794C296.02 441.695 295.8 440.375 295.8 439.055C295.14 434.216 293.819 429.377 292.499 424.758C290.958 419.919 290.078 415.08 289.638 410.241Z" fill="#D38E1F" fill-opacity="0.4"/>
<path d="M296.24 409.581C297.561 413.101 298.441 416.84 299.101 420.579C299.321 422.559 299.542 424.318 299.982 426.298C300.422 428.058 300.862 430.037 301.302 431.797C301.742 433.556 302.403 435.316 303.943 435.976C305.484 436.636 307.245 436.416 309.005 435.976C310.766 435.536 312.747 434.876 314.728 434.656C316.709 434.656 318.689 434.876 320.45 435.756V435.976C318.689 435.536 316.709 435.316 314.948 435.756C313.187 435.976 311.426 436.856 309.446 437.296C307.465 437.735 305.264 437.955 303.503 436.856C302.623 436.416 301.742 435.536 301.302 434.436C300.862 433.556 300.642 432.457 300.642 431.577C300.422 429.597 299.982 427.838 299.542 426.078C299.101 424.318 298.441 422.339 298.001 420.579C297.341 417.28 296.46 413.541 296.24 409.581Z" fill="#D38E1F" fill-opacity="0.4"/>
<path d="M250.022 585.105L249.361 622.497L248.701 585.105H250.022Z" fill="#D38E1F" fill-opacity="0.4"/>
<path d="M259.706 582.685L259.046 616.778L258.386 582.685H259.706Z" fill="#D38E1F" fill-opacity="0.4"/>
<path d="M459.987 566.849C461.968 566.849 463.949 567.728 465.71 568.828C467.25 569.928 468.791 571.248 469.891 572.787C472.312 575.647 474.293 578.946 476.274 582.025C480.236 588.184 483.977 594.563 488.599 600.502C493.221 606.22 498.723 611.279 505.326 614.579C508.627 616.118 512.149 617.438 515.89 617.878C519.632 618.318 523.373 618.098 526.895 616.998C523.373 618.098 519.632 618.318 515.89 618.098C512.149 617.658 508.627 616.558 505.326 615.018C498.503 611.939 492.781 606.88 488.159 600.941C483.317 595.223 479.575 588.844 475.394 582.685C473.413 579.606 471.432 576.527 469.011 573.667C466.59 571.028 463.729 568.608 460.207 568.608L459.987 566.849Z" fill="#D38E1F" fill-opacity="0.4"/>
<path d="M699.005 431.797L609.429 432.017L699.005 429.817V431.797Z" fill="#D38E1F" fill-opacity="0.4"/>
<path d="M299.322 410.681C280.394 413.321 261.467 415.96 242.539 418.38C223.611 420.799 204.684 423.438 185.756 425.638C204.684 422.999 223.611 420.359 242.539 417.94C261.467 415.52 280.394 412.881 299.322 410.681Z" fill="#D38E1F" fill-opacity="0.4"/>
<g opacity="0.45">
<path d="M161.766 23.1222L294.26 335.457L293.159 335.897L161.766 23.1222Z" fill="#D38E1F" fill-opacity="0.4"/>
</g>
<g opacity="0.45">
<path d="M437.979 324.679L865.173 56.1153L438.639 325.779L437.979 324.679Z" fill="#D38E1F" fill-opacity="0.4"/>
</g>
<g opacity="0.45">
<path d="M727.616 466.33L664.451 473.808L601.285 481.066L474.953 495.803L348.622 509.88L285.456 516.919L222.07 523.957L285.236 516.479L348.402 509.001L474.953 494.484L601.285 480.187L664.451 473.148L727.616 466.33Z" fill="#D38E1F" fill-opacity="0.4"/>
</g>
<g opacity="0.45">
<path d="M79.8926 -0.412872L80.7729 87.3488L81.2131 175.33L81.6533 351.294L81.2131 527.037L80.7729 615.018L79.8926 703L79.0122 615.018L78.572 527.037L78.1318 351.294L78.572 175.33L79.0122 87.3488L79.8926 -0.412872Z" fill="#D38E1F" fill-opacity="0.4"/>
</g>
<g opacity="0.45">
<path d="M64.9267 -0.412872L65.8071 87.3488L66.2473 175.33L66.6874 351.294L66.2473 527.037L65.8071 615.018L64.9267 703L64.0464 615.018L63.6062 527.037L63.166 351.294L63.6062 175.33L64.0464 87.3488L64.9267 -0.412872Z" fill="#D38E1F" fill-opacity="0.4"/>
</g>
<g opacity="0.45">
<path d="M651.245 580.046C643.322 583.125 635.399 586.204 627.256 589.064L603.266 598.082L579.276 606.88L555.286 615.458C555.066 615.458 554.626 615.458 554.626 615.018C554.626 614.798 554.626 614.579 554.626 614.579C558.588 607.32 561.889 600.062 564.09 592.143C566.291 584.225 567.391 576.087 566.071 567.948C567.611 576.087 566.951 584.445 564.75 592.363C562.549 600.281 559.468 607.98 555.506 615.238L554.846 614.359L578.836 605.56L602.826 596.982L626.815 588.404C635.179 585.545 643.322 582.685 651.245 580.046Z" fill="#D38E1F" fill-opacity="0.4"/>
</g>
<g opacity="0.45">
<path d="M334.977 406.282C340.919 423.878 346.421 441.475 352.364 459.071C357.866 476.667 363.588 494.484 369.09 512.08L402.104 618.318H401.884L367.99 512.52C362.268 494.924 356.765 477.327 351.043 459.511C345.541 441.695 340.039 424.098 334.977 406.282Z" fill="#D38E1F" fill-opacity="0.4"/>
</g>
<path d="M603.926 606L602.826 665.828L601.726 606H603.926Z" fill="#D38E1F" fill-opacity="0.4"/>
<path d="M581.918 614.359L580.817 686.503L579.717 614.359H581.918Z" fill="#D38E1F" fill-opacity="0.4"/>
<path d="M403.425 421.239L403.645 383.847L403.864 421.239H403.425Z" fill="#D38E1F" fill-opacity="0.4"/>
<path d="M395.941 323.359L395.721 408.262L395.501 323.359H395.941Z" fill="#D38E1F" fill-opacity="0.4"/>
<path d="M400.342 323.359L400.122 415.3L399.902 323.359H400.342Z" fill="#D38E1F" fill-opacity="0.4"/>
<path d="M402.543 323.359L402.323 388.466L402.104 323.359H402.543Z" fill="#D38E1F" fill-opacity="0.4"/>
<path d="M408.045 323.799L407.606 416.4L407.386 323.799H408.045Z" fill="#D38E1F" fill-opacity="0.4"/>
<path d="M411.567 324.019L411.347 393.525L411.127 324.019H411.567Z" fill="#D38E1F" fill-opacity="0.4"/>
<path d="M416.409 324.239L416.19 421.459L415.97 324.239H416.409Z" fill="#D38E1F" fill-opacity="0.4"/>
<path d="M418.829 324.239L418.61 402.103L418.17 324.239H418.829Z" fill="#D38E1F" fill-opacity="0.4"/>
<path d="M427.854 324.679L427.634 401.223L427.414 324.679H427.854Z" fill="#D38E1F" fill-opacity="0.4"/>
<path d="M432.915 324.899L432.695 407.162L432.476 324.899H432.915Z" fill="#D38E1F" fill-opacity="0.4"/>
<path d="M434.676 324.899L434.456 386.706L434.017 324.899H434.676Z" fill="#D38E1F" fill-opacity="0.4"/>
<path d="M441.499 325.339L441.06 404.742L440.84 325.339H441.499Z" fill="#D38E1F" fill-opacity="0.4"/>
<path d="M443.92 325.559L443.7 398.144L443.48 325.559H443.92Z" fill="#D38E1F" fill-opacity="0.4"/>
<path d="M413.988 422.339L414.208 343.595L414.428 422.339H413.988Z" fill="#D38E1F" fill-opacity="0.4"/>
<path d="M437.318 407.162L437.758 339.856L437.978 407.162H437.318Z" fill="#D38E1F" fill-opacity="0.4"/>
<path d="M284.576 398.144C286.337 397.924 287.878 397.924 289.638 397.924C291.399 397.924 292.94 397.924 294.7 398.144C292.94 398.364 291.399 398.364 289.638 398.364C287.878 398.364 286.117 398.364 284.576 398.144Z" fill="#D38E1F" fill-opacity="0.4"/>
<path d="M285.456 397.264C285.676 397.924 285.676 398.584 285.676 399.244C285.676 399.903 285.676 400.563 285.456 401.223C285.236 400.563 285.236 399.903 285.236 399.244C285.236 398.584 285.236 397.924 285.456 397.264Z" fill="#D38E1F" fill-opacity="0.4"/>
<path d="M283.916 400.123C285.677 399.903 287.437 399.903 289.198 399.903C290.959 399.903 292.72 399.903 294.48 400.123C292.72 400.343 290.959 400.343 289.198 400.343C287.437 400.563 285.677 400.343 283.916 400.123Z" fill="#D38E1F" fill-opacity="0.4"/>
<path d="M293.6 397.484C293.82 398.144 293.82 398.804 293.82 399.463C293.82 400.123 293.82 400.783 293.6 401.443C293.38 400.783 293.38 400.123 293.38 399.463C293.38 398.804 293.38 398.144 293.6 397.484Z" fill="#D38E1F" fill-opacity="0.4"/>
</g>
</g>
<defs>
<clipPath id="clip0_175_2409">
<rect width="883" height="703" fill="white"/>
</clipPath>
</defs>
</svg>
