<svg width="714" height="703" viewBox="0 0 714 703" fill="none" xmlns="http://www.w3.org/2000/svg">
<g clip-path="url(#clip0_175_1457)">
<g opacity="0.85">
<path d="M194.148 554.091L194.368 596.322L194.148 596.102C195.248 596.542 196.349 596.762 197.449 596.542C198.55 596.322 199.43 595.443 200.09 594.563V594.783L199.87 552.991H201.191L200.971 594.783V595.003C200.31 596.102 199.21 596.982 197.889 597.202C196.569 597.422 195.248 597.202 194.148 596.762H193.928V596.542L194.148 554.091Z" fill="#D38E1F" fill-opacity="0.4"/>
<path d="M502.274 512.3L502.054 552.332L501.833 552.112C502.714 552.552 504.034 552.771 505.135 552.551C506.235 552.332 507.116 551.672 507.776 550.572V550.792L507.996 509.001L508.216 550.792C507.556 551.892 506.455 552.771 505.135 552.991C503.814 553.211 502.494 552.991 501.393 552.551H501.173V552.332L500.953 512.3H502.274Z" fill="#D38E1F" fill-opacity="0.4"/>
<path d="M185.564 518.459L194.368 553.871H193.708L193.268 516.479H194.588L194.148 553.871C194.148 554.091 193.928 554.311 193.928 554.311C193.708 554.311 193.708 554.091 193.708 554.091L185.564 518.459Z" fill="#D38E1F" fill-opacity="0.4"/>
<path d="M496.771 512.96L507.776 511.42V490.305" stroke="#D38E1F" stroke-opacity="0.4" stroke-width="0.606" stroke-miterlimit="10"/>
<path d="M194.148 516.699L194.588 554.091L194.148 553.651C227.161 549.032 260.175 544.413 293.188 540.014C326.202 535.615 359.215 531.216 392.229 527.257C359.215 532.096 326.422 536.715 293.408 541.334C260.395 545.953 227.381 550.352 194.368 554.531H193.928V554.091L194.148 516.699Z" fill="#D38E1F" fill-opacity="0.4"/>
<path d="M424.142 443.674L327.963 432.677L231.783 421.459H161.135L161.795 420.799L170.818 498.443L170.158 498.003L290.987 486.125L351.292 480.187L411.597 474.468L351.292 480.847L290.987 487.005L170.378 499.323C170.158 499.323 169.718 499.103 169.718 498.883L160.694 421.239C160.694 420.799 160.914 420.579 161.135 420.579H231.783L327.742 432.237L424.142 443.674Z" fill="#D38E1F" fill-opacity="0.4"/>
<path d="M518.78 463.69L528.684 462.37L538.588 461.271L548.492 460.171L558.396 459.071V460.391C552.234 459.511 546.071 458.851 540.129 457.971C533.966 457.091 527.804 456.212 521.862 455.332C528.024 455.772 534.187 456.432 540.349 457.091C546.512 457.751 552.674 458.411 558.837 459.071C559.277 459.071 559.497 459.511 559.497 459.731C559.497 459.951 559.277 460.391 558.837 460.391L548.933 461.271L539.029 462.15L529.125 463.03L518.78 463.69Z" fill="#D38E1F" fill-opacity="0.4"/>
<path d="M161.355 420.799V428.277C163.116 443.674 164.656 458.851 166.417 474.248L171.039 520.218H169.718V498.443C168.178 485.685 166.857 472.708 165.537 459.731C164.216 447.193 162.895 433.996 161.355 420.799ZM161.355 420.799C162.895 433.556 164.436 446.314 166.197 459.291C167.958 472.268 169.498 485.465 171.039 498.443V520.218H169.718L165.316 474.248C163.996 458.851 162.455 443.454 161.135 428.277L161.355 420.799Z" fill="#D38E1F" fill-opacity="0.4"/>
<path d="M411.816 474.468L351.512 480.847L291.207 487.005L170.378 499.323L171.038 498.663V520.438L170.378 519.778L287.686 505.481L346.45 498.443L404.994 491.404L346.45 499.103L287.686 506.361L170.598 521.098H169.718V520.438V498.663V498.003H170.378L290.987 486.125L351.512 480.187L411.816 474.468Z" fill="#D38E1F" fill-opacity="0.4"/>
<path d="M513.278 477.327L558.617 472.048L558.397 472.488V459.731L558.837 459.951L518.781 463.69L558.617 459.511H559.057V459.731V472.488V472.708L558.837 472.928L513.278 478.647V477.327Z" fill="#D38E1F" fill-opacity="0.4"/>
<path d="M391.129 622.057L437.347 603.581L483.566 585.325L483.126 585.765C487.308 581.145 489.949 575.647 491.71 569.708C493.47 563.769 494.351 557.61 495.011 551.232C496.111 538.694 496.331 526.157 495.231 513.62V513.18L495.451 512.74C498.752 506.141 502.054 499.543 505.135 492.724C508.216 485.905 511.297 479.307 513.939 472.268C519.661 458.631 524.723 444.554 529.125 430.477L529.345 430.037L529.785 429.817C532.206 429.157 533.967 426.078 533.086 423.658L533.747 424.098L482.906 423.878H457.376C453.194 423.878 448.792 423.658 444.61 423.658C442.409 423.658 440.429 423.878 438.448 424.098C437.347 424.318 436.467 424.318 435.367 424.538C434.266 424.758 433.386 424.978 432.505 425.418C430.965 426.078 430.965 428.497 430.084 430.477C429.424 432.457 428.544 434.436 427.663 436.416C426.123 440.375 424.582 444.334 423.042 448.293L413.798 472.048L404.554 495.803C401.473 503.722 398.171 511.64 395.53 519.558C392.889 527.477 391.349 535.615 391.129 543.973C390.688 552.331 391.129 560.69 391.129 569.268C391.129 577.846 390.468 586.424 388.047 595.003C385.626 603.361 381.665 611.499 375.062 617.658C371.761 620.737 367.799 623.157 363.617 624.696C359.436 626.236 354.814 626.896 350.412 626.896C341.608 626.676 333.025 623.817 325.542 619.198C318.059 614.579 311.896 608.2 306.614 601.601C301.332 594.783 296.71 587.524 292.308 580.486L294.289 580.925C292.748 581.585 291.428 582.025 289.887 582.025C288.347 582.025 286.806 581.805 285.485 581.365C283.945 580.706 282.624 579.386 282.184 577.626C281.744 575.867 281.964 574.327 282.624 572.787C283.945 569.708 287.026 568.388 289.667 567.508C292.308 566.629 294.949 566.409 297.15 565.749L341.828 557.17L386.727 548.812V549.252L342.269 558.93L297.59 568.388H297.81C295.169 569.268 292.528 569.488 290.327 570.368C288.127 571.028 285.926 572.347 285.265 574.107C284.825 574.987 284.825 576.087 285.045 576.966C285.265 577.846 285.926 578.286 286.806 578.726C288.567 579.386 291.208 579.386 292.968 578.506L294.289 577.846L294.949 578.946C299.571 585.984 304.193 593.243 309.255 599.622C314.537 606 320.48 611.939 327.523 616.338C334.565 620.517 342.489 623.377 350.632 623.377C354.594 623.377 358.775 622.717 362.517 621.397C366.258 620.077 369.78 617.878 372.641 615.238C378.583 609.739 382.325 602.261 384.526 594.343C386.947 586.424 387.387 578.066 387.607 569.708C387.827 561.35 387.387 552.771 387.827 544.193C388.267 535.615 389.808 527.037 392.669 518.899C395.53 510.76 398.832 503.062 402.133 495.143L411.817 471.608L421.501 448.073C423.041 444.114 424.582 440.155 426.343 436.416C427.223 434.436 428.104 432.457 428.764 430.697C429.204 429.817 429.424 428.717 429.864 427.618C430.084 427.178 430.304 426.518 430.525 426.078C430.965 425.638 431.405 424.978 432.065 424.758C433.166 424.318 434.266 424.098 435.367 423.878C436.467 423.658 437.567 423.438 438.668 423.438C440.869 423.218 442.85 423.219 445.05 423.219C449.232 423.219 453.634 423.438 457.816 423.658L483.126 423.878L533.967 423.658H534.407L534.627 424.098C535.727 427.398 533.747 431.357 530.445 432.457L531.106 431.797C526.924 446.094 522.082 460.171 516.8 474.028C514.159 481.066 511.298 487.885 508.216 494.704C505.135 501.522 502.054 508.121 498.532 514.939L498.752 514.059C499.193 520.438 499.633 526.817 499.413 533.196C499.413 539.574 498.972 545.953 498.312 552.331C497.652 558.71 496.772 565.089 494.791 571.248C492.81 577.406 489.949 583.345 485.547 588.404L485.327 588.624L485.107 588.844L438.448 606.22L391.789 623.377L391.129 622.057Z" fill="#D38E1F" fill-opacity="0.4"/>
<path d="M253.792 423.439L255.773 407.162V406.722H256.213L274.701 406.942H274.921V407.162C274.04 413.321 273.38 419.479 273.16 425.638C273.38 419.479 273.82 413.101 274.48 406.942L274.701 407.162L256.213 407.382L256.653 406.942L255.113 423.439H253.792Z" fill="#D38E1F" fill-opacity="0.4"/>
<path d="M278.442 426.518C278.662 423.219 278.883 419.919 279.323 416.62C279.543 415.08 279.763 413.321 280.203 411.781C280.643 410.241 280.863 408.482 281.524 406.942L281.744 406.722H281.964L304.193 406.062H304.633L304.413 406.502C303.092 410.021 302.212 413.98 301.772 417.72C301.332 421.459 301.332 425.418 301.552 429.377C301.332 425.418 301.332 421.679 301.552 417.72C301.992 413.761 302.652 410.021 303.973 406.282L304.193 406.502L281.964 407.602L282.404 407.382C281.744 408.702 281.524 410.461 281.083 412.001C280.863 413.541 280.643 415.3 280.423 416.84C279.983 420.139 279.763 423.219 279.763 426.518H278.442Z" fill="#D38E1F" fill-opacity="0.4"/>
<path d="M310.136 430.257C310.356 426.078 310.576 421.899 311.236 417.94C311.456 415.96 311.896 413.761 312.337 411.781C312.997 409.801 313.437 407.602 314.978 406.062L315.198 405.842H315.418L344.47 404.962H344.69V405.182C343.589 409.801 342.929 414.64 342.049 419.479C341.388 424.318 340.948 428.937 340.948 433.776C340.948 428.937 341.389 424.098 341.829 419.479C342.489 414.64 343.149 410.021 344.25 405.182L344.47 405.402L315.638 406.722L315.858 406.502C314.538 407.822 314.097 410.021 313.437 411.781C312.997 413.761 312.557 415.74 312.337 417.72C311.896 421.679 311.676 425.858 311.456 430.037L310.136 430.257Z" fill="#D38E1F" fill-opacity="0.4"/>
<path d="M356.574 435.756C356.794 430.477 357.014 425.418 357.675 420.139C357.895 417.5 358.335 414.86 358.995 412.441C359.655 409.801 360.316 407.382 361.636 404.962L361.856 404.742H362.076L399.712 404.302H400.152L399.932 404.522C398.831 407.382 398.171 410.241 397.511 413.101C396.851 415.96 396.41 419.039 395.97 422.119C395.53 425.198 395.31 428.058 395.31 431.137C395.09 434.216 395.09 437.296 395.09 440.155C395.09 437.076 395.09 433.996 395.09 431.137C395.31 428.058 395.31 424.978 395.75 422.119C396.19 419.039 396.631 416.18 397.071 413.101C397.731 410.021 398.391 407.162 399.492 404.302L399.712 404.522L362.076 405.622L362.517 405.402C361.196 407.602 360.536 410.021 360.096 412.661C359.655 415.08 359.215 417.72 358.775 420.359C358.115 425.418 357.895 430.697 357.895 435.756H356.574Z" fill="#D38E1F" fill-opacity="0.4"/>
<path d="M420.4 443.234C420.62 436.636 421.281 430.037 422.161 423.658C423.042 417.06 424.362 410.681 426.563 404.522V404.302H426.783L491.269 402.543H491.93L491.71 403.203C489.729 409.801 488.188 416.62 487.088 423.438L485.767 423.219C487.088 416.4 488.628 409.581 490.609 402.763L491.049 403.423L426.563 404.522L426.783 404.302C424.582 410.461 423.262 416.84 422.161 423.438C421.281 430.037 420.62 436.636 420.4 443.234Z" fill="#D38E1F" fill-opacity="0.4"/>
<path d="M530.445 476.008C530.665 480.407 529.565 485.026 527.804 489.205C526.924 491.404 525.823 493.824 524.063 495.583C520.101 499.763 513.718 500.422 507.996 500.862" stroke="#D38E1F" stroke-opacity="0.4" stroke-width="0.606" stroke-miterlimit="10"/>
<path d="M553.994 527.257L553.334 567.948L552.674 527.257H553.994Z" fill="#D38E1F" fill-opacity="0.4"/>
<path d="M560.818 527.257L560.157 562.229L559.497 527.257H560.818Z" fill="#D38E1F" fill-opacity="0.4"/>
<path d="M275.802 463.03L319.82 459.071C327.083 458.411 334.566 457.751 341.829 457.091C349.092 456.652 356.575 456.212 363.838 455.992V456.212C356.575 457.091 349.092 457.751 341.829 458.631C334.566 459.291 327.083 459.731 319.82 460.171L275.802 463.03Z" fill="#D38E1F" fill-opacity="0.4"/>
<path d="M357.234 456.652L379.463 463.47C383.205 464.57 386.946 465.67 390.468 466.989C394.209 468.309 397.731 469.629 401.252 471.168V471.388C397.511 470.509 393.769 469.409 390.028 468.309C386.286 467.209 382.765 465.89 379.023 464.57L357.234 456.652Z" fill="#D38E1F" fill-opacity="0.4"/>
<path d="M270.079 466.549C275.361 468.969 280.643 471.608 285.705 474.028C288.347 475.348 290.988 476.447 293.409 477.767C295.83 479.087 298.471 480.627 300.892 482.166V482.386C298.03 481.506 295.609 480.187 292.968 478.867C290.327 477.547 287.906 476.227 285.265 474.688C280.203 472.268 275.141 469.629 270.079 466.549Z" fill="#D38E1F" fill-opacity="0.4"/>
<path d="M294.729 483.046L346.451 477.327C355.034 476.447 363.618 475.348 372.201 474.468C380.785 473.808 389.368 472.928 398.172 472.488V472.708C389.588 474.028 381.005 474.908 372.421 476.007C363.838 476.887 355.254 477.767 346.671 478.427L294.729 483.046Z" fill="#D38E1F" fill-opacity="0.4"/>
<path d="M319.819 459.511L338.747 467.649C341.828 468.969 345.13 470.289 348.211 471.828C351.292 473.368 354.373 474.908 357.235 476.667V476.887C353.933 475.788 350.852 474.468 347.551 473.148C344.469 471.828 341.388 470.289 338.307 468.749L319.819 459.511Z" fill="#D38E1F" fill-opacity="0.4"/>
<path d="M105.231 411.121L105.452 335.677V335.237H105.892L152.111 335.457H152.331V335.677L152.111 432.017L151.67 335.677L152.111 335.897L105.892 336.117L106.332 335.677L106.552 411.121H105.231Z" fill="#D38E1F" fill-opacity="0.4"/>
<path d="M110.514 355.473L148.369 355.033V355.913L110.514 355.473Z" fill="#D38E1F" fill-opacity="0.4"/>
<path d="M151.891 335.677L156.292 320.06L156.733 318.74V320.06L157.173 387.806C157.173 399.024 157.393 410.461 157.173 421.679C156.953 432.896 156.953 444.334 156.733 455.552H156.512C156.072 444.334 156.072 432.896 156.072 421.679C156.072 410.461 156.072 399.024 156.072 387.806L156.512 320.06H156.953L151.891 335.677Z" fill="#D38E1F" fill-opacity="0.4"/>
<path d="M156.513 320.06C166.637 320.28 176.981 320.5 187.105 320.94C197.229 321.38 207.574 321.82 217.698 322.48C227.822 323.139 238.166 323.799 248.29 324.239L278.883 325.339H279.323V325.779C279.543 339.416 279.543 353.273 279.543 366.91V366.69L280.863 371.969V372.189L280.643 372.409L279.103 374.169L279.323 373.729C279.323 381.867 279.103 390.225 279.103 398.364C279.103 406.502 278.883 414.86 278.662 422.999H278.442C278.222 414.86 278.222 406.502 278.002 398.364C278.002 390.225 277.782 381.867 277.782 373.729V373.509L278.002 373.289L279.323 371.529L279.103 372.189L277.562 366.91C277.562 353.273 277.562 339.416 277.782 325.779L278.222 326.219L247.63 324.459C237.506 324.019 227.161 323.579 217.037 323.359C206.913 323.139 196.569 322.48 186.445 322.04C176.981 321.38 166.637 320.72 156.513 320.06Z" fill="#D38E1F" fill-opacity="0.4"/>
<path d="M164.656 363.611L216.598 364.491H216.818V364.711V400.563V401.003H216.377H190.407C181.823 401.003 173.02 401.003 164.436 401.003H163.996V400.563L164.656 363.611ZM164.656 363.611L165.097 400.563L164.656 400.123C173.24 400.123 182.043 400.123 190.627 400.123H216.598L216.157 400.563V364.711L216.377 364.931L164.656 363.611Z" fill="#D38E1F" fill-opacity="0.4"/>
<path d="M167.077 366.25C174.78 366.25 182.484 366.47 190.407 366.47C194.368 366.47 198.11 366.47 202.072 366.69L213.736 367.13H213.956V367.35L213.736 382.747V398.144V398.364H213.516C197.89 398.584 182.484 398.584 166.857 398.584H166.417V398.144L167.077 366.25ZM167.077 366.25L167.517 398.144L167.077 397.704C182.704 397.704 198.11 397.704 213.736 397.924L213.516 398.144V382.747L213.296 367.35L213.516 367.57L201.851 367.35C198.11 367.35 194.148 367.13 190.187 367.13C182.704 366.69 175 366.47 167.077 366.25Z" fill="#D38E1F" fill-opacity="0.4"/>
<path d="M224.08 323.139L223.42 420.799L222.76 323.139H224.08Z" fill="#D38E1F" fill-opacity="0.4"/>
<path d="M253.572 324.459L252.912 423.219L252.031 324.459H253.572Z" fill="#D38E1F" fill-opacity="0.4"/>
<path d="M255.993 324.459L255.333 413.321L254.673 324.459H255.993Z" fill="#D38E1F" fill-opacity="0.4"/>
<path d="M177.861 420.799C177.641 418.38 177.421 416.18 177.201 413.76C176.981 412.661 176.761 411.561 176.541 410.461C176.321 409.361 175.881 408.262 175.44 407.382V407.162V406.942V406.062V405.622H175.881L202.071 405.842H202.291C203.172 408.262 203.832 410.461 204.052 412.881C204.492 415.3 204.492 417.72 204.272 420.139C204.712 415.3 203.612 410.241 201.851 405.842H202.071L175.881 406.062L176.321 405.622V406.502V406.282C176.981 407.382 177.421 408.482 177.641 409.801C177.861 410.901 178.082 412.221 178.302 413.321C178.742 415.74 178.962 417.94 179.182 420.359L177.861 420.799Z" fill="#D38E1F" fill-opacity="0.4"/>
<path d="M105.892 335.677L94.4473 314.781" stroke="#D38E1F" stroke-opacity="0.4" stroke-width="0.606" stroke-miterlimit="10"/>
<path d="M94.6675 412.221L94.8876 368.89L95.1077 369.33L86.3041 363.831L86.7442 363.611L86.3041 413.541L86.084 363.611V362.951L86.5242 363.391L95.5478 368.67H95.7679V368.89L95.988 412.221H94.6675Z" fill="#D38E1F" fill-opacity="0.4"/>
<path d="M92.0262 366.91L94.2271 363.611L93.7869 304.223V304.443L85.8637 284.867L86.9641 284.648C86.9641 297.845 87.1842 311.042 86.9641 324.019L86.744 343.815C86.744 350.414 86.5239 357.012 86.3038 363.611C86.0837 357.012 86.0837 350.414 85.8637 343.815L85.6436 324.019C85.6436 310.822 85.6436 297.625 85.6436 284.648V281.788L86.744 284.428L94.4471 304.003L94.007 363.391L92.0262 366.91Z" fill="#D38E1F" fill-opacity="0.4"/>
<path d="M86.3045 284.648H81.0224L81.4625 349.094C81.6826 370.65 81.6826 391.985 81.0224 413.541H80.8023C80.142 391.985 80.142 370.65 80.3621 349.094L80.8023 284.648V284.428L86.3045 284.648Z" fill="#D38E1F" fill-opacity="0.4"/>
<path d="M81.0222 284.647C79.0414 281.128 76.8405 277.609 74.8597 273.87C73.7592 272.11 72.6588 270.35 71.7784 268.371C70.898 266.391 70.0177 264.632 69.3574 262.652H69.5775C70.898 264.192 71.9985 266.171 72.8789 267.931C73.9793 269.691 74.6396 271.67 75.74 273.43C77.5007 277.169 79.2614 280.908 81.0222 284.647Z" fill="#D38E1F" fill-opacity="0.4"/>
<path d="M69.3572 413.541V347.774V347.994L66.7161 345.135H66.496L66.7161 344.915L69.3572 340.296L69.1371 242.416V242.636L45.8076 186.328L46.2478 186.548H37.004L37.4442 186.108L37.6643 301.364L37.4442 358.992L37.004 416.62L36.5638 358.992L36.3438 301.364V186.108V185.448H37.004H46.2478H46.4679L46.688 185.888L70.0175 242.416L69.7974 340.296V340.516L67.1563 345.135L66.9362 344.915L69.5773 347.554L69.7974 347.774L69.5773 413.541H69.3572Z" fill="#D38E1F" fill-opacity="0.4"/>
<path d="M46.2475 186.108L46.6877 301.144C46.9078 320.28 46.9078 339.416 46.9078 358.772C46.6877 377.908 46.6877 397.044 46.2475 416.4H46.0274C45.5873 397.264 45.5873 378.128 45.3672 358.772C45.3672 339.636 45.3672 320.5 45.5873 301.144L46.2475 186.108Z" fill="#D38E1F" fill-opacity="0.4"/>
<path d="M37.0042 186.108L22.2582 156.194C19.8373 151.135 17.1962 146.296 14.9953 141.238C12.7944 136.179 10.3734 131.12 8.39258 125.841H8.61266C11.2537 130.68 13.8948 135.739 16.3158 140.578C18.7368 145.637 21.1578 150.696 23.3587 155.754L37.0042 186.108Z" fill="#D38E1F" fill-opacity="0.4"/>
<path d="M-75.9023 -62C-68.1992 -47.9229 -60.7162 -33.8459 -53.2331 -19.7688L-30.784 22.4623L-8.77498 64.9135C-1.51202 78.9905 5.75093 93.2875 13.0139 107.585C5.31075 93.5075 -2.17229 79.4304 -9.65534 65.3534L-31.8844 23.1222L-53.8934 -19.3289C-61.3764 -33.6259 -68.6394 -47.703 -75.9023 -62Z" fill="#D38E1F" fill-opacity="0.4"/>
<path d="M8.83227 97.4667L8.17199 418.82L7.51172 97.4667H8.83227Z" fill="#D38E1F" fill-opacity="0.4"/>
<path d="M-128.724 207.224H-112.877L8.61233 300.704L7.95207 301.364L2.44983 295.205L2.22975 294.985L2.44983 294.765L7.73199 282.668L7.95207 283.328L-52.7927 225.92L-113.097 168.292H-112.877H-128.724V168.072L-112.877 167.852V168.072L-51.9123 225.04L8.61233 282.448L8.83244 282.668L8.61233 283.108L3.33019 295.205V294.545L8.61233 300.704L7.95207 301.584L-113.097 207.444H-112.877H-128.724V207.224Z" fill="#D38E1F" fill-opacity="0.4"/>
<path d="M8.8325 432.677L8.6124 525.497V525.717H8.39231L-169 693.322L7.95214 525.277L7.73205 525.497L7.51195 432.677H8.8325Z" fill="#D38E1F" fill-opacity="0.4"/>
<path d="M8.17188 519.558L25.9991 503.502" stroke="#D38E1F" stroke-opacity="0.4" stroke-width="0.606" stroke-miterlimit="10"/>
<path d="M279.103 327.099V324.679C284.825 320.5 290.767 316.541 296.71 312.802C302.652 308.842 308.595 305.103 314.537 301.364H314.757H314.977L320.92 302.244H321.14V302.464C320.92 311.042 320.92 319.84 321.14 328.418C321.36 336.997 321.36 345.795 321.36 354.373C321.36 362.951 321.36 371.749 321.36 380.328C321.14 388.906 321.14 397.704 320.92 406.282H320.699C320.479 397.704 320.259 388.906 320.259 380.328C320.039 371.749 320.039 362.951 320.259 354.373C320.259 345.795 320.479 336.997 320.479 328.418C320.699 319.84 320.699 311.042 320.479 302.464L320.699 302.684L314.757 302.024H314.977C309.035 305.983 303.092 309.942 297.15 313.681C291.207 317.421 285.045 321.38 279.103 324.899V324.679V327.099Z" fill="#D38E1F" fill-opacity="0.4"/>
<path d="M314.978 301.144C315.418 309.942 315.638 318.74 315.418 327.319C315.198 336.117 314.978 344.915 315.198 353.493C315.638 371.089 315.638 388.466 314.978 406.062H314.758C313.877 388.466 314.097 371.089 314.537 353.493C314.758 344.695 314.538 335.897 314.317 327.319C314.097 318.74 314.317 309.942 314.978 301.144Z" fill="#D38E1F" fill-opacity="0.4"/>
<path d="M320.479 306.863L357.235 287.507L320.92 307.963L320.479 306.863Z" fill="#D38E1F" fill-opacity="0.4"/>
<path d="M359.435 413.321C359.435 404.083 359.215 394.844 359.215 385.386L358.995 357.452V357.232L359.215 357.012L362.296 353.933L362.076 354.373L358.995 345.795C358.995 335.017 358.995 324.459 358.995 313.681L359.215 281.568V281.348H359.435L378.143 271.01L396.63 260.453L433.826 239.337H434.046H434.266L442.409 240.217H442.849V240.657V322.04L442.629 362.731C442.629 376.368 442.409 389.786 442.189 403.423H441.969C441.749 389.786 441.749 376.368 441.529 362.731L441.309 322.04V240.657L441.749 241.317L433.606 240.217H433.826L396.41 260.892L377.703 271.23L359.215 281.788L359.435 281.568L359.655 313.681C359.655 324.459 359.875 335.017 359.655 345.795V345.575L362.737 354.153L362.957 354.373L362.737 354.593L359.655 357.672L359.875 357.232L359.655 385.166C359.655 394.844 359.655 404.083 359.435 413.321Z" fill="#D38E1F" fill-opacity="0.4"/>
<path d="M434.046 240.217C434.486 253.854 434.706 267.491 434.486 281.348C434.266 294.985 434.046 308.623 434.266 322.48C434.486 336.117 434.706 349.754 434.486 363.611C434.486 370.43 434.486 377.248 434.266 384.067C434.266 390.885 434.046 397.704 433.826 404.522H433.606C433.385 397.704 433.386 390.885 433.165 384.067C433.165 377.248 432.945 370.43 432.945 363.611C432.945 349.974 433.165 336.337 433.165 322.48C433.386 308.842 433.165 295.205 432.945 281.348C433.165 267.711 433.385 253.854 434.046 240.217Z" fill="#D38E1F" fill-opacity="0.4"/>
<path d="M441.749 245.276L534.187 196.886L442.409 246.376L441.749 245.276Z" fill="#D38E1F" fill-opacity="0.4"/>
<path d="M501.393 529.016L497.651 527.917" stroke="#D38E1F" stroke-opacity="0.4" stroke-width="0.606" stroke-miterlimit="10"/>
<path d="M638.289 130.68L586.348 159.274L534.407 187.648L534.627 187.208C534.627 206.124 534.627 225.04 534.627 243.736L534.407 300.264L538.589 317.201V317.421V317.641L534.187 323.579V323.359C534.187 345.575 533.967 367.79 534.187 390.005L534.407 456.652H533.527C534.187 447.194 535.067 437.955 536.608 428.497C537.488 423.878 538.368 419.259 539.689 414.64C541.01 410.021 542.33 405.622 544.751 401.443L544.971 401.223H545.411L628.825 399.024H629.706L629.486 399.903C626.845 407.162 624.424 414.64 622.223 421.899C620.022 429.377 617.821 436.636 615.84 444.114C613.859 451.593 612.098 459.071 610.778 466.769C609.457 474.248 608.137 481.946 607.917 489.645V489.425C609.017 494.264 609.457 499.103 609.457 503.942C609.457 508.781 609.017 513.84 607.036 518.239C606.156 520.438 604.615 522.638 602.855 524.177C601.094 525.937 598.673 527.037 596.252 527.477C593.831 527.917 591.41 527.917 588.989 528.137C586.568 528.137 584.147 528.137 581.726 528.137C572.042 528.137 562.358 527.037 552.894 527.477C543.431 527.917 533.747 530.336 525.603 535.835L507.996 530.776V530.556L525.603 535.395H525.383C533.306 529.896 543.21 527.257 552.674 526.817C562.358 526.157 572.042 527.257 581.726 527.257C584.147 527.257 586.568 527.257 588.989 527.257C591.41 527.257 593.831 527.257 596.032 526.597C598.233 526.157 600.434 525.057 602.194 523.518C603.955 521.978 605.276 519.998 606.156 517.799C607.917 513.4 608.357 508.561 608.357 503.942C608.357 499.103 607.697 494.484 606.596 489.645C606.816 481.946 607.917 474.248 609.457 466.549C610.778 458.851 612.759 451.373 614.74 443.894C616.72 436.416 618.921 428.937 621.122 421.679C623.323 414.2 625.744 406.942 628.385 399.683L629.045 400.563L545.631 402.543L546.072 402.323C543.871 406.282 542.33 410.901 541.01 415.3C539.689 419.699 538.809 424.318 537.928 428.937C536.168 438.175 535.287 447.413 534.627 456.871H533.747L533.967 390.225C533.967 368.01 533.967 345.795 533.967 323.579L538.148 317.641V317.861L533.747 300.924L533.527 244.396C533.527 225.48 533.527 206.564 533.527 187.868V187.648L533.747 187.428L585.908 159.274L638.289 130.68Z" fill="#D38E1F" fill-opacity="0.4"/>
<path d="M652.815 164.553C653.035 189.187 653.255 213.822 653.255 238.457L653.475 312.362L653.255 386.266C653.255 410.901 653.035 435.536 652.815 460.171C652.594 435.536 652.374 410.901 652.374 386.266L652.154 312.362L652.374 238.457C652.374 213.602 652.594 188.968 652.815 164.553Z" fill="#D38E1F" fill-opacity="0.4"/>
<path d="M660.958 173.571C661.178 195.786 661.398 218.001 661.398 240.217L661.618 306.863L661.398 373.509C661.398 395.724 661.178 417.94 660.958 440.155C660.738 417.94 660.518 395.724 660.518 373.509L660.298 306.863L660.518 240.217C660.518 218.001 660.738 195.786 660.958 173.571Z" fill="#D38E1F" fill-opacity="0.4"/>
<path d="M83.6631 29.7208L92.6868 96.5868L101.49 163.453L119.098 297.185H117.777V285.087L106.993 173.791C103.251 136.618 99.9497 99.4462 96.4283 62.274C100.39 99.4462 104.131 136.399 107.873 173.571L119.098 284.867V296.965H117.777L100.61 163.013L92.0265 96.1469L83.6631 29.7208Z" fill="#D38E1F" fill-opacity="0.4"/>
<path d="M118.437 285.307L263.036 296.965H263.476V297.405V307.303V307.963H262.816L190.626 303.124L154.532 300.484L118.437 297.625H118.217V297.405L118.437 285.307ZM118.657 285.527L118.877 297.625L118.657 297.405L154.752 299.604L190.846 301.804L263.036 306.863L262.376 307.303V297.405L262.816 297.845L118.657 285.527Z" fill="#D38E1F" fill-opacity="0.4"/>
<path d="M632.787 -11.6305L263.256 297.845L263.476 297.405V307.303L262.596 306.863L410.496 193.587L558.617 80.7501H558.837L411.157 194.686L263.256 307.743L262.376 308.402V307.303V297.405V297.185L262.596 296.965L632.787 -11.8505V-11.6305Z" fill="#D38E1F" fill-opacity="0.4"/>
<path d="M161.355 31.4804L145.289 271.67L144.848 271.23L248.731 282.228L248.291 282.448L390.909 128.04L533.967 -25.9276H534.187L391.789 128.92L248.951 283.328H248.731H248.511L144.848 272.11L144.408 271.89V271.67L161.355 31.4804Z" fill="#D38E1F" fill-opacity="0.4"/>
<path d="M248.51 282.888L248.29 269.251L248.51 269.471L197.009 264.412C179.842 262.652 162.675 260.892 145.729 258.253V258.033C162.896 259.353 180.062 261.112 197.229 263.092L248.51 269.031H248.731V269.251L248.51 282.888Z" fill="#D38E1F" fill-opacity="0.4"/>
<path d="M248.51 269.251L362.076 133.979L418.859 66.4531C438.007 44.0178 456.935 21.5825 476.303 -0.632843C457.595 22.0224 438.667 44.6777 419.74 67.113L362.736 134.419L248.51 269.251Z" fill="#D38E1F" fill-opacity="0.4"/>
<path d="M147.049 240.217L261.495 253.194V254.514L147.049 240.217Z" fill="#D38E1F" fill-opacity="0.4"/>
<path d="M148.81 216.022L279.103 232.518L278.883 233.838L148.81 216.022Z" fill="#D38E1F" fill-opacity="0.4"/>
<path d="M150.79 184.129L303.092 204.144L302.872 205.464L150.79 184.129Z" fill="#D38E1F" fill-opacity="0.4"/>
<path d="M153.432 147.836L329.063 173.351L328.843 174.671L153.432 147.836Z" fill="#D38E1F" fill-opacity="0.4"/>
<path d="M156.513 103.625L357.455 139.918L357.235 141.237L156.513 103.625Z" fill="#D38E1F" fill-opacity="0.4"/>
<path d="M159.594 56.7752L393.769 96.8068L393.549 98.1265L159.594 56.7752Z" fill="#D38E1F" fill-opacity="0.4"/>
<path d="M95.3273 392.645L86.3036 391.545L81.0215 391.325L86.3036 391.105H86.5237L95.3273 391.765V392.645Z" fill="#D38E1F" fill-opacity="0.4"/>
<path d="M95.3273 401.663L81.0215 401.223L95.3273 400.783V401.663Z" fill="#D38E1F" fill-opacity="0.4"/>
<path d="M69.3571 389.126L46.2477 385.167L37.0039 384.947L46.2477 384.727L69.5772 387.806L69.3571 389.126Z" fill="#D38E1F" fill-opacity="0.4"/>
<path d="M69.5772 401.883L37.0039 400.123L69.5772 400.563V401.883Z" fill="#D38E1F" fill-opacity="0.4"/>
<path d="M8.17179 379.888L-52.3529 370.43L-82.7252 365.591C-92.8494 364.051 -102.974 362.291 -112.878 360.532C-118.16 360.532 -123.222 360.312 -128.504 360.092V359.872C-123.222 359.652 -118.16 359.652 -112.878 359.432C-102.753 360.972 -92.6293 362.511 -82.5052 364.051L-52.1328 369.11L8.17179 379.888Z" fill="#D38E1F" fill-opacity="0.4"/>
<path d="M8.17218 400.343L-60.2757 398.364C-71.7204 398.144 -83.1651 397.704 -94.3896 397.264L-111.557 396.384L-128.724 395.944V395.724C-123.001 395.504 -117.279 395.284 -111.557 395.284L-94.3896 395.724C-82.945 396.164 -71.5003 396.604 -60.2757 397.044L8.17218 400.343Z" fill="#D38E1F" fill-opacity="0.4"/>
<path d="M94.2269 363.831L86.3037 356.353L94.447 363.391L94.2269 363.831Z" fill="#D38E1F" fill-opacity="0.4"/>
<path d="M69.1374 348.434L46.248 332.597L69.7976 347.334L69.1374 348.434Z" fill="#D38E1F" fill-opacity="0.4"/>
<path d="M69.1374 340.736L46.248 319.4L70.0177 339.856L69.1374 340.736Z" fill="#D38E1F" fill-opacity="0.4"/>
<path d="M278.883 366.47L314.757 357.012H320.7H314.757L279.103 367.35L278.883 366.47Z" fill="#D38E1F" fill-opacity="0.4"/>
<path d="M278.883 373.729L314.757 365.371H320.7H314.757L279.103 374.609L278.883 373.729Z" fill="#D38E1F" fill-opacity="0.4"/>
<path d="M280.423 371.749L314.757 362.511H320.699H314.757L280.643 372.629L280.423 371.749Z" fill="#D38E1F" fill-opacity="0.4"/>
<path d="M359.215 345.575L433.825 325.559L442.189 325.779H433.825L359.655 346.675L359.215 345.575Z" fill="#D38E1F" fill-opacity="0.4"/>
<path d="M359.215 357.012L433.825 340.956H442.189L433.825 341.176L359.655 358.332L359.215 357.012Z" fill="#D38E1F" fill-opacity="0.4"/>
<path d="M362.297 353.933L433.826 335.897H442.189H433.826L362.737 355.253L362.297 353.933Z" fill="#D38E1F" fill-opacity="0.4"/>
<path d="M533.967 299.824L652.815 270.131H660.959L652.815 270.351L534.187 301.144L533.967 299.824Z" fill="#D38E1F" fill-opacity="0.4"/>
<path d="M533.967 322.7L652.815 298.945H660.959H652.815L534.187 324.019L533.967 322.7Z" fill="#D38E1F" fill-opacity="0.4"/>
<path d="M538.148 316.761L652.815 288.167L660.959 288.387H652.815L538.589 318.081L538.148 316.761Z" fill="#D38E1F" fill-opacity="0.4"/>
<path d="M279.103 394.844L314.757 391.545H320.699L314.757 391.765L279.103 395.724V394.844Z" fill="#D38E1F" fill-opacity="0.4"/>
<path d="M279.103 402.323L320.699 401.223L279.103 403.423V402.323Z" fill="#D38E1F" fill-opacity="0.4"/>
<path d="M359.436 387.806L433.826 381.427L442.189 381.647H433.826L359.436 389.126V387.806Z" fill="#D38E1F" fill-opacity="0.4"/>
<path d="M359.436 398.364L442.189 396.384L359.436 399.683V398.364Z" fill="#D38E1F" fill-opacity="0.4"/>
<path d="M533.967 372.409L652.815 363.391H660.959H652.815L534.187 373.729L533.967 372.409Z" fill="#D38E1F" fill-opacity="0.4"/>
<path d="M534.187 392.205L598.013 390.885L629.926 390.225C640.49 390.006 651.274 389.566 661.839 389.786C651.274 389.786 640.49 390.225 629.926 390.665L598.013 391.765L534.187 393.745V392.205Z" fill="#D38E1F" fill-opacity="0.4"/>
<path d="M152.111 456.212C149.03 455.112 145.728 454.672 142.647 455.112C139.566 455.552 136.485 456.871 133.403 457.531C130.322 458.411 126.801 458.851 123.499 457.311C121.959 456.652 120.638 455.112 119.978 453.792C119.098 452.252 118.877 450.713 118.437 448.953C116.016 436.196 113.155 423.658 110.294 411.121C110.514 400.783 110.514 390.665 110.514 380.328L110.294 349.534V349.094H110.734L148.59 348.874H149.25V349.534V369.77C149.25 376.588 149.25 383.187 149.03 390.005C148.81 403.423 148.81 416.84 148.59 430.257H148.369C148.149 416.84 147.929 403.423 147.929 390.005C147.929 383.187 147.709 376.588 147.709 369.77V349.534L148.369 350.194L110.514 349.974L110.954 349.534L110.734 380.328C110.734 390.665 110.734 400.783 110.954 411.121C114.256 423.658 117.117 436.196 119.538 448.953C119.758 450.493 120.198 452.033 120.858 453.352C121.519 454.672 122.619 455.772 123.94 456.652C126.581 457.971 130.102 457.971 133.183 457.091C136.265 456.212 139.346 455.112 142.647 454.892C145.728 454.452 149.03 454.892 152.111 456.212Z" fill="#D38E1F" fill-opacity="0.4"/>
<path d="M130.102 410.241C129.662 409.581 129.001 409.581 128.341 409.801L126.36 410.021L122.399 410.241L114.476 410.901L98.8491 412.221L67.5964 414.64L5.0909 419.699L5.31098 419.479C3.99045 420.579 2.89001 422.339 3.33019 423.878C3.55028 424.758 4.21054 425.418 4.87081 425.858C5.53108 426.518 6.41144 426.958 7.2918 427.398L7.51188 427.618V427.838L21.3775 483.926L24.899 498.003C25.9994 502.622 27.32 507.241 27.9802 512.08C29.3008 521.758 28.4204 531.436 27.7601 540.894C27.32 545.733 26.8798 550.572 26.8798 555.191C26.8798 560.03 27.54 564.869 29.5209 569.268C31.5017 573.667 34.803 577.186 38.7646 580.046C42.5062 582.905 46.9079 585.325 51.3097 586.864C55.9316 588.404 60.7736 588.844 65.3955 588.184C70.0174 587.524 74.6393 585.985 79.4812 584.885L107.653 578.066C111.614 576.746 115.576 575.647 119.538 574.987C123.499 574.107 127.681 573.447 131.863 573.447C133.843 573.447 136.044 573.667 138.025 574.107C140.006 574.547 142.207 575.867 143.307 577.846C144.408 579.606 145.288 581.805 144.848 584.225C144.628 585.325 143.747 586.424 142.867 587.084C141.987 587.744 140.886 588.184 139.786 588.404L140.006 587.304L144.848 589.944H144.628C145.068 589.944 145.728 589.504 146.168 589.064C146.609 588.624 147.049 587.964 147.489 587.084C148.369 585.765 148.809 584.225 149.47 582.685C150.35 579.606 150.35 576.307 150.57 573.007C150.79 566.409 151.01 559.59 151.23 552.991C151.451 539.574 151.451 526.377 151.671 512.96C151.891 486.125 152.111 459.511 152.111 432.677C151.23 431.577 149.69 430.917 148.149 430.697C146.609 430.477 145.068 430.477 143.527 430.917C141.987 431.137 140.446 431.797 138.905 431.797C138.025 431.797 137.145 431.797 136.484 431.137C135.824 430.477 135.604 429.817 135.384 428.937C134.284 425.858 133.623 422.779 132.963 419.699C131.642 416.18 131.642 412.881 130.102 410.241ZM130.102 410.241C131.863 413.101 131.863 416.4 132.743 419.259C133.403 422.339 134.063 425.418 135.164 428.277C135.384 428.937 135.824 429.817 136.264 430.257C136.705 430.697 137.585 430.917 138.245 430.697C139.786 430.477 141.326 429.817 142.867 429.817C144.408 429.597 145.948 429.377 147.709 429.597C149.25 429.817 151.01 430.257 151.891 431.797C152.111 458.631 152.331 485.246 152.331 512.08C152.331 525.497 152.111 538.914 151.891 552.112C151.671 558.71 151.671 565.529 151.23 572.127C151.01 575.427 151.01 578.946 150.13 582.245C149.69 583.785 149.03 585.545 148.149 587.084C147.709 587.744 147.269 588.624 146.609 589.284C145.948 589.944 145.288 590.604 143.747 590.604L138.905 587.964L137.365 587.084L138.905 586.644C140.666 586.204 142.427 585.105 143.087 583.345C143.527 581.585 142.867 579.606 141.767 578.066C140.886 576.307 139.126 575.427 137.365 574.987C135.384 574.547 133.403 574.327 131.422 574.327C127.461 574.327 123.279 574.987 119.317 575.867C115.356 576.746 111.394 577.846 107.433 578.946L79.2612 585.545C74.6393 586.644 70.0174 588.184 65.1754 588.844C60.3334 589.504 55.2714 589.064 50.6495 587.304C46.0276 585.765 41.8459 583.345 37.8843 580.486C34.1427 577.626 30.6213 573.887 28.6405 569.488C26.6597 565.089 25.9994 560.03 25.9994 555.191C25.9994 550.352 26.4396 545.513 26.8798 540.674C27.7601 530.996 28.4204 521.318 27.0999 511.86C26.4396 507.021 25.1191 502.402 24.0186 497.783L20.4972 483.706L6.19135 427.618L6.41143 428.058C5.53107 427.618 4.65072 427.178 3.77036 426.518C2.89 425.858 2.22973 424.978 1.78955 423.878C1.34937 422.779 1.56947 421.459 2.22974 420.579C2.66992 419.699 3.33018 418.819 4.21054 418.16H4.43064H4.65072L67.3763 413.541L98.629 411.341L114.255 410.241L122.179 409.581L126.14 409.361L128.121 409.141C128.341 409.141 128.781 409.141 129.222 409.141C129.662 409.581 130.102 409.801 130.102 410.241Z" fill="#D38E1F" fill-opacity="0.4"/>
<path d="M11.0332 423.219C17.1957 445.874 22.918 468.749 28.6404 491.624C29.9609 497.343 31.7216 503.062 32.1618 509.001C32.8221 514.939 32.602 520.878 32.3819 526.597C31.9417 532.536 31.5015 538.255 31.0614 544.193C30.6212 550.132 30.6212 556.071 32.3819 561.57C33.2623 564.429 34.5828 567.068 36.3435 569.268C38.1042 571.468 40.3051 573.447 42.7261 575.207C47.348 578.726 52.6302 581.366 58.3525 582.685C61.2137 583.345 64.0748 583.565 66.936 583.345C69.7972 583.125 72.6583 582.465 75.5195 581.805C78.3807 581.146 81.2418 580.266 84.103 579.606L92.6865 577.626L109.853 573.667C115.576 572.347 121.518 571.248 127.241 570.808C130.102 570.588 133.183 570.368 136.044 570.588C137.585 570.588 139.125 570.808 140.446 571.028C141.987 571.248 143.527 571.688 144.628 572.787C146.829 574.987 147.709 578.066 147.709 581.146C147.709 584.225 146.608 587.084 145.288 589.724H145.068C146.388 587.084 147.269 584.225 147.049 581.365C147.049 578.506 145.948 575.647 143.967 573.667C142.867 572.787 141.546 572.347 140.226 572.127C138.685 571.907 137.365 571.688 135.824 571.688C132.963 571.688 129.882 571.907 127.02 572.127C121.078 572.787 115.356 573.887 109.853 575.427L92.6865 579.606L84.103 581.585L75.5195 583.785C72.6583 584.445 69.7972 585.105 66.7159 585.325C63.6346 585.545 60.7735 585.105 57.6922 584.445C51.7498 583.125 46.4677 580.046 41.8458 576.526C39.4248 574.767 37.2239 572.567 35.4632 570.368C33.7024 567.948 32.3819 565.309 31.5015 562.449C29.7408 556.731 29.9609 550.572 30.4011 544.853C30.8413 538.914 31.5015 533.196 31.7216 527.257C31.9417 521.318 31.9417 515.599 31.2815 509.66C30.6212 503.942 28.8605 498.223 27.3198 492.504C21.8176 468.969 16.0953 446.094 11.0332 423.219Z" fill="#D38E1F" fill-opacity="0.4"/>
<path d="M53.291 415.3C57.4727 430.037 61.2142 445.214 64.2955 460.171L68.6973 482.826L73.3192 505.481C74.1995 509.221 75.0799 512.96 76.8406 516.259C78.6013 519.558 81.2424 522.418 84.5437 524.177C87.8451 525.937 91.5866 526.597 95.5482 526.597C99.2898 526.597 103.031 525.937 106.773 525.057C114.036 523.078 121.519 520.218 129.222 519.558C136.925 518.898 144.848 519.998 152.111 523.078V523.298C144.848 520.658 137.145 519.778 129.442 520.658C121.739 521.538 114.696 524.617 107.213 526.597C99.7299 528.577 91.3665 529.236 84.1036 525.717C80.5821 523.957 77.721 520.878 75.9603 517.359C74.1995 513.84 73.3192 509.88 72.6589 506.141C71.3384 498.663 70.0178 490.964 68.2571 483.486C66.7165 476.007 64.9558 468.529 63.1951 461.051L53.291 415.3Z" fill="#D38E1F" fill-opacity="0.4"/>
<path d="M79.9219 413.321C83.0031 424.098 85.8643 435.096 88.0652 446.094C90.2661 457.091 92.2469 468.089 94.6679 479.087C95.3282 481.726 95.9884 484.586 97.309 487.005C98.6295 489.425 100.61 491.404 102.811 492.504C105.232 493.824 107.873 494.264 110.734 494.264C113.376 494.264 116.237 493.824 118.878 493.164C124.16 491.844 129.662 489.645 135.384 489.205C141.107 488.765 146.829 489.645 152.111 491.844V492.064C146.829 490.304 141.107 489.645 135.605 490.305C130.102 490.964 124.82 493.164 119.318 494.704C113.816 496.243 107.653 496.683 102.371 494.044C99.73 492.724 97.7491 490.305 96.4286 487.885C95.1081 485.246 94.4478 482.386 94.0076 479.747C92.2469 468.749 89.8259 457.751 87.1848 446.754C84.7639 435.316 82.1228 424.318 79.9219 413.321Z" fill="#D38E1F" fill-opacity="0.4"/>
<path d="M98.1885 411.561C100.609 419.699 102.81 427.838 104.571 435.976C106.112 444.334 107.652 452.472 109.413 460.831C109.853 462.81 110.514 464.79 111.394 466.769C112.274 468.529 113.815 470.069 115.576 470.949C119.097 472.708 123.499 472.268 127.46 471.388C131.422 470.289 135.384 468.749 139.785 468.309C143.967 467.869 148.369 468.749 152.331 470.509V470.729C148.369 469.409 144.187 468.969 140.006 469.629C135.824 470.069 132.082 471.828 127.901 472.928C123.939 474.028 119.097 474.468 115.135 472.268C113.155 471.168 111.614 469.409 110.734 467.429C109.853 465.45 109.413 463.25 108.973 461.271C107.652 452.912 105.892 444.774 103.691 436.636C101.49 428.058 99.509 419.919 98.1885 411.561Z" fill="#D38E1F" fill-opacity="0.4"/>
<path d="M120.638 410.241C122.178 414.86 123.279 419.699 124.379 424.538C124.819 426.958 125.039 429.377 125.7 431.797C126.14 434.216 126.8 436.636 127.46 439.055C128.121 441.475 129.001 443.674 130.982 444.554C132.963 445.434 135.384 445.214 137.805 444.774C140.006 444.114 142.427 443.234 145.068 443.014C147.709 442.794 150.13 443.454 152.331 444.334V444.554C149.91 443.894 147.489 443.674 145.068 444.114C142.647 444.334 140.446 445.434 138.025 446.094C135.604 446.754 132.743 446.974 130.322 445.654C129.001 444.994 128.121 443.894 127.681 442.794C127.02 441.695 126.8 440.375 126.8 439.055C126.14 434.216 124.819 429.377 123.499 424.758C121.958 419.919 121.078 415.08 120.638 410.241Z" fill="#D38E1F" fill-opacity="0.4"/>
<path d="M127.24 409.581C128.561 413.101 129.441 416.84 130.101 420.579C130.321 422.559 130.542 424.318 130.982 426.298C131.422 428.058 131.862 430.037 132.302 431.797C132.742 433.556 133.403 435.316 134.943 435.976C136.484 436.636 138.245 436.416 140.005 435.976C141.766 435.536 143.747 434.876 145.728 434.656C147.709 434.656 149.689 434.876 151.45 435.756V435.976C149.689 435.536 147.709 435.316 145.948 435.756C144.187 435.976 142.426 436.856 140.446 437.296C138.465 437.735 136.264 437.955 134.503 436.856C133.623 436.416 132.742 435.536 132.302 434.436C131.862 433.556 131.642 432.457 131.642 431.577C131.422 429.597 130.982 427.838 130.542 426.078C130.101 424.318 129.441 422.339 129.001 420.579C128.341 417.28 127.46 413.541 127.24 409.581Z" fill="#D38E1F" fill-opacity="0.4"/>
<path d="M81.0217 585.105L80.3614 622.497L79.7012 585.105H81.0217Z" fill="#D38E1F" fill-opacity="0.4"/>
<path d="M90.7063 582.685L90.046 616.778L89.3857 582.685H90.7063Z" fill="#D38E1F" fill-opacity="0.4"/>
<path d="M290.987 566.849C292.968 566.849 294.949 567.728 296.71 568.828C298.25 569.928 299.791 571.248 300.891 572.787C303.312 575.647 305.293 578.946 307.274 582.025C311.236 588.184 314.977 594.563 319.599 600.502C324.221 606.22 329.723 611.279 336.326 614.579C339.627 616.118 343.149 617.438 346.89 617.878C350.632 618.318 354.373 618.098 357.895 616.998C354.373 618.098 350.632 618.318 346.89 618.098C343.149 617.658 339.627 616.558 336.326 615.018C329.503 611.939 323.781 606.88 319.159 600.941C314.317 595.223 310.575 588.844 306.394 582.685C304.413 579.606 302.432 576.527 300.011 573.667C297.59 571.028 294.729 568.608 291.207 568.608L290.987 566.849Z" fill="#D38E1F" fill-opacity="0.4"/>
<path d="M530.005 431.797L440.429 432.017L530.005 429.817V431.797Z" fill="#D38E1F" fill-opacity="0.4"/>
<path d="M496.551 513.62C488.188 515.819 479.824 517.579 471.461 518.899C479.824 517.139 487.968 514.719 496.111 512.08L496.551 513.62Z" fill="#D38E1F" fill-opacity="0.4"/>
<path d="M621.562 404.083C614.519 418.599 609.457 433.776 606.376 449.393C603.294 465.01 602.194 481.066 603.074 497.123C603.294 501.082 603.735 505.261 603.074 509.221C602.414 513.18 600.653 517.359 597.132 519.778C593.611 522.198 589.209 522.198 585.247 522.198C581.286 521.978 577.324 521.758 573.142 521.538C565.219 521.098 557.076 520.878 549.152 521.978C541.229 523.078 533.526 525.057 526.043 528.357C533.306 525.057 541.009 522.638 548.932 521.538C556.856 520.438 564.999 520.438 572.922 520.878L585.027 521.318C588.989 521.318 593.17 521.318 596.252 519.119C599.333 516.919 601.094 513.18 601.534 509.221C602.194 505.261 601.754 501.302 601.534 497.343C600.653 481.286 601.754 465.01 605.055 449.393C608.577 433.556 614.079 418.38 621.562 404.083Z" fill="#D38E1F" fill-opacity="0.4"/>
<path d="M130.322 410.681C111.394 413.321 92.4667 415.96 73.539 418.38C54.6113 420.799 35.6836 423.438 16.7559 425.638C35.6836 422.999 54.6113 420.359 73.539 417.94C92.4667 415.52 111.394 412.881 130.322 410.681Z" fill="#D38E1F" fill-opacity="0.4"/>
<g opacity="0.45">
<path d="M-7.23438 23.1222L125.26 335.457L124.159 335.897L-7.23438 23.1222Z" fill="#D38E1F" fill-opacity="0.4"/>
</g>
<g opacity="0.45">
<path d="M268.979 324.679L696.173 56.1153L269.639 325.779L268.979 324.679Z" fill="#D38E1F" fill-opacity="0.4"/>
</g>
<g opacity="0.45">
<path d="M558.616 466.33L495.451 473.808L432.285 481.066L305.953 495.803L179.622 509.88L116.456 516.919L53.0703 523.957L116.236 516.479L179.402 509.001L305.953 494.484L432.285 480.187L495.451 473.148L558.616 466.33Z" fill="#D38E1F" fill-opacity="0.4"/>
</g>
<g opacity="0.45">
<path d="M638.29 73.4917L638.73 137.938L638.95 202.605L639.17 331.498L638.95 460.391L638.73 524.837L638.29 589.284L637.849 524.837L637.629 460.391L637.409 331.498L637.629 202.605L637.849 137.938L638.29 73.4917Z" fill="#D38E1F" fill-opacity="0.4"/>
</g>
<g opacity="0.45">
<path d="M482.245 580.046C474.322 583.125 466.399 586.204 458.256 589.064L434.266 598.082L410.276 606.88L386.286 615.458C386.066 615.458 385.626 615.458 385.626 615.018C385.626 614.798 385.626 614.579 385.626 614.579C389.588 607.32 392.889 600.062 395.09 592.143C397.291 584.225 398.391 576.087 397.071 567.948C398.611 576.087 397.951 584.445 395.75 592.363C393.549 600.281 390.468 607.98 386.506 615.238L385.846 614.359L409.836 605.56L433.826 596.982L457.815 588.404C466.179 585.545 474.322 582.685 482.245 580.046Z" fill="#D38E1F" fill-opacity="0.4"/>
</g>
<g opacity="0.45">
<path d="M165.977 406.282C171.919 423.878 177.421 441.475 183.364 459.071C188.866 476.667 194.588 494.484 200.09 512.08L233.104 618.318H232.884L198.99 512.52C193.268 494.924 187.765 477.327 182.043 459.511C176.541 441.695 171.039 424.098 165.977 406.282Z" fill="#D38E1F" fill-opacity="0.4"/>
</g>
<path d="M560.598 549.032L714 624.696L559.938 550.352L560.598 549.032Z" fill="#D38E1F" fill-opacity="0.4"/>
<path d="M434.926 606L433.826 665.828L432.726 606H434.926Z" fill="#D38E1F" fill-opacity="0.4"/>
<path d="M412.918 614.359L411.817 686.503L410.717 614.359H412.918Z" fill="#D38E1F" fill-opacity="0.4"/>
<path d="M234.425 421.239L234.645 383.847L234.864 421.239H234.425Z" fill="#D38E1F" fill-opacity="0.4"/>
<path d="M226.941 323.359L226.721 408.262L226.501 323.359H226.941Z" fill="#D38E1F" fill-opacity="0.4"/>
<path d="M231.342 323.359L231.122 415.3L230.902 323.359H231.342Z" fill="#D38E1F" fill-opacity="0.4"/>
<path d="M233.543 323.359L233.323 388.466L233.104 323.359H233.543Z" fill="#D38E1F" fill-opacity="0.4"/>
<path d="M239.045 323.799L238.606 416.4L238.386 323.799H239.045Z" fill="#D38E1F" fill-opacity="0.4"/>
<path d="M242.567 324.019L242.347 393.525L242.127 324.019H242.567Z" fill="#D38E1F" fill-opacity="0.4"/>
<path d="M247.409 324.239L247.19 421.459L246.97 324.239H247.409Z" fill="#D38E1F" fill-opacity="0.4"/>
<path d="M249.829 324.239L249.61 402.103L249.17 324.239H249.829Z" fill="#D38E1F" fill-opacity="0.4"/>
<path d="M258.854 324.679L258.634 401.223L258.414 324.679H258.854Z" fill="#D38E1F" fill-opacity="0.4"/>
<path d="M263.915 324.899L263.695 407.162L263.476 324.899H263.915Z" fill="#D38E1F" fill-opacity="0.4"/>
<path d="M265.676 324.899L265.456 386.706L265.017 324.899H265.676Z" fill="#D38E1F" fill-opacity="0.4"/>
<path d="M272.499 325.339L272.06 404.742L271.84 325.339H272.499Z" fill="#D38E1F" fill-opacity="0.4"/>
<path d="M274.92 325.559L274.7 398.144L274.48 325.559H274.92Z" fill="#D38E1F" fill-opacity="0.4"/>
<path d="M244.988 422.339L245.208 343.595L245.428 422.339H244.988Z" fill="#D38E1F" fill-opacity="0.4"/>
<path d="M268.318 407.162L268.758 339.856L268.978 407.162H268.318Z" fill="#D38E1F" fill-opacity="0.4"/>
<path d="M115.576 398.144C117.337 397.924 118.878 397.924 120.638 397.924C122.399 397.924 123.94 397.924 125.7 398.144C123.94 398.364 122.399 398.364 120.638 398.364C118.878 398.364 117.117 398.364 115.576 398.144Z" fill="#D38E1F" fill-opacity="0.4"/>
<path d="M116.456 397.264C116.676 397.924 116.676 398.584 116.676 399.244C116.676 399.903 116.676 400.563 116.456 401.223C116.236 400.563 116.236 399.903 116.236 399.244C116.236 398.584 116.236 397.924 116.456 397.264Z" fill="#D38E1F" fill-opacity="0.4"/>
<path d="M114.916 400.123C116.677 399.903 118.437 399.903 120.198 399.903C121.959 399.903 123.72 399.903 125.48 400.123C123.72 400.343 121.959 400.343 120.198 400.343C118.437 400.563 116.677 400.343 114.916 400.123Z" fill="#D38E1F" fill-opacity="0.4"/>
<path d="M124.6 397.484C124.82 398.144 124.82 398.804 124.82 399.463C124.82 400.123 124.82 400.783 124.6 401.443C124.38 400.783 124.38 400.123 124.38 399.463C124.38 398.804 124.38 398.144 124.6 397.484Z" fill="#D38E1F" fill-opacity="0.4"/>
</g>
</g>
<defs>
<clipPath id="clip0_175_1457">
<rect width="883" height="703" fill="white" transform="translate(-169)"/>
</clipPath>
</defs>
</svg>
