<svg width="523" height="618" viewBox="0 0 523 618" fill="none" xmlns="http://www.w3.org/2000/svg">
<g clip-path="url(#clip0_175_1822)">
<path d="M283.311 81.0554V420.689" stroke="#D38E1F" stroke-opacity="0.5" stroke-width="0.7016" stroke-miterlimit="10" stroke-linecap="round"/>
<path d="M310.844 83.5289V420.689" stroke="#D38E1F" stroke-opacity="0.5" stroke-width="0.7016" stroke-miterlimit="10" stroke-linecap="round"/>
<path d="M55.6367 454.367C57.7255 454.177 295.843 418.596 295.843 418.596L688.338 473.013V475.297L295.653 424.875L55.6367 457.221V454.367V454.367Z" stroke="#D38E1F" stroke-opacity="0.5" stroke-width="0.7016" stroke-miterlimit="10" stroke-linecap="round"/>
<path d="M57.5356 457.031C59.6243 456.84 295.653 425.065 295.653 425.065L686.439 475.297V477.58L295.463 431.344L57.3457 459.885V457.031H57.5356Z" stroke="#D38E1F" stroke-opacity="0.5" stroke-width="0.5896" stroke-miterlimit="10" stroke-linecap="round"/>
<path d="M61.333 459.314C63.4218 459.124 295.463 431.344 295.463 431.344L682.641 477.009V479.293L295.273 437.623L61.333 462.168V459.314Z" stroke="#D38E1F" stroke-opacity="0.5" stroke-width="0.5823" stroke-miterlimit="10" stroke-linecap="round"/>
<path d="M70.6377 461.217V475.297L294.324 449.8L682.641 489.377V479.292L295.273 437.623L70.6377 461.217Z" stroke="#D38E1F" stroke-opacity="0.5" stroke-width="0.5823" stroke-miterlimit="10" stroke-linecap="round"/>
<path d="M70.6377 475.297H81.2713L294.324 452.464L682.641 489.377L294.324 449.801L70.6377 475.297Z" stroke="#D38E1F" stroke-opacity="0.5" stroke-width="0.3742" stroke-miterlimit="10" stroke-linecap="round"/>
<path d="M279.513 453.987V460.075H282.171V576.902L293.564 577.663L307.996 576.711V461.217H310.844V453.987L294.324 452.464L279.513 453.987Z" stroke="#D38E1F" stroke-opacity="0.5" stroke-width="0.3742" stroke-miterlimit="10" stroke-linecap="round"/>
<path d="M74.2451 483.859L294.323 465.403L307.995 466.544" stroke="#D38E1F" stroke-opacity="0.5" stroke-width="0.3742" stroke-miterlimit="10" stroke-linecap="round"/>
<path d="M74.2451 485.952L294.323 468.447L307.995 469.589" stroke="#D38E1F" stroke-opacity="0.5" stroke-width="0.3742" stroke-miterlimit="10" stroke-linecap="round"/>
<path d="M282.171 566.437H294.134H307.995" stroke="#D38E1F" stroke-opacity="0.5" stroke-width="0.3742" stroke-miterlimit="10" stroke-linecap="round"/>
<path d="M294.323 468.447V566.437" stroke="#D38E1F" stroke-opacity="0.5" stroke-width="0.3742" stroke-miterlimit="10" stroke-linecap="round"/>
<path d="M282.171 574.999L73.4863 568.91V475.297" stroke="#D38E1F" stroke-opacity="0.5" stroke-width="0.3742" stroke-miterlimit="10" stroke-linecap="round"/>
<path d="M229.952 459.314V573.477L225.395 574.809V467.305C225.395 467.305 221.787 462.549 223.116 457.982L229.952 459.314Z" stroke="#D38E1F" stroke-opacity="0.5" stroke-width="0.3742" stroke-miterlimit="10" stroke-linecap="round"/>
<path d="M213.053 459.124C211.724 463.69 215.331 468.447 215.331 468.447V574.238L225.395 574.809" stroke="#D38E1F" stroke-opacity="0.5" stroke-width="0.3742" stroke-miterlimit="10" stroke-linecap="round"/>
<path d="M171.088 465.593V571.764L166.91 572.906V472.823C166.91 472.823 163.492 468.447 164.822 464.071L171.088 465.593Z" stroke="#D38E1F" stroke-opacity="0.5" stroke-width="0.5533" stroke-miterlimit="10" stroke-linecap="round"/>
<path d="M157.606 465.593C156.467 469.779 159.695 474.346 159.695 474.346V572.716L166.72 572.906" stroke="#D38E1F" stroke-opacity="0.5" stroke-width="0.5533" stroke-miterlimit="10" stroke-linecap="round"/>
<path d="M171.088 465.593V571.764L166.91 572.906V472.823C166.91 472.823 163.492 468.447 164.822 464.071L171.088 465.593Z" stroke="#D38E1F" stroke-opacity="0.5" stroke-width="0.5533" stroke-miterlimit="10" stroke-linecap="round"/>
<path d="M157.606 465.593C156.467 469.779 159.695 474.346 159.695 474.346V572.716L166.72 572.906" stroke="#D38E1F" stroke-opacity="0.5" stroke-width="0.5533" stroke-miterlimit="10" stroke-linecap="round"/>
<path d="M120.768 471.111V570.432L117.35 571.574V478.151C117.35 478.151 114.502 474.345 115.641 470.159L120.768 471.111Z" stroke="#D38E1F" stroke-opacity="0.5" stroke-width="0.5024" stroke-miterlimit="10" stroke-linecap="round"/>
<path d="M109.755 470.92C108.805 475.106 111.464 479.673 111.464 479.673V571.383L117.35 571.574" stroke="#D38E1F" stroke-opacity="0.5" stroke-width="0.5024" stroke-miterlimit="10" stroke-linecap="round"/>
<path d="M81.8411 475.297V569.1L78.6131 570.242V482.146C78.6131 482.146 75.9547 478.531 76.9041 474.536L81.8411 475.297Z" stroke="#D38E1F" stroke-opacity="0.5" stroke-width="0.2339" stroke-miterlimit="10"/>
<path d="M71.2078 475.297C70.2584 479.292 72.9168 483.669 72.9168 483.669V570.052L78.4235 570.242" stroke="#D38E1F" stroke-opacity="0.5" stroke-width="0.2339" stroke-miterlimit="10"/>
<path d="M229.953 565.675L72.917 563.583" stroke="#D38E1F" stroke-opacity="0.5" stroke-width="0.2339" stroke-miterlimit="10"/>
<path d="M578.203 489.567L307.995 466.544" stroke="#D38E1F" stroke-opacity="0.5" stroke-width="0.3742" stroke-miterlimit="10" stroke-linecap="round"/>
<path d="M578.203 491.85L307.995 469.589" stroke="#D38E1F" stroke-opacity="0.5" stroke-width="0.3742" stroke-miterlimit="10" stroke-linecap="round"/>
<path d="M308.186 574.999L682.641 561.87V489.377" stroke="#D38E1F" stroke-opacity="0.5" stroke-width="0.3742" stroke-miterlimit="10" stroke-linecap="round"/>
<path d="M392.305 461.787V572.715L396.862 573.857V469.589C396.862 469.589 400.47 464.832 399.141 460.456L392.305 461.787Z" stroke="#D38E1F" stroke-opacity="0.5" stroke-width="0.5866" stroke-miterlimit="10" stroke-linecap="round"/>
<path d="M409.205 460.456C410.534 464.832 406.926 470.92 406.926 470.92V573.476L396.862 574.047" stroke="#D38E1F" stroke-opacity="0.5" stroke-width="0.5866" stroke-miterlimit="10" stroke-linecap="round"/>
<path d="M469.398 469.208V569.671L473.576 570.813V476.438C473.576 476.438 476.804 472.443 475.665 468.447L469.398 469.208Z" stroke="#D38E1F" stroke-opacity="0.5" stroke-width="0.54" stroke-miterlimit="10" stroke-linecap="round"/>
<path d="M482.691 469.018C483.83 473.014 480.602 477.199 480.602 477.199V570.622L473.576 570.813" stroke="#D38E1F" stroke-opacity="0.5" stroke-width="0.54" stroke-miterlimit="10" stroke-linecap="round"/>
<path d="M307.995 566.436L578.203 560.538" stroke="#D38E1F" stroke-opacity="0.5" stroke-width="0.2339" stroke-miterlimit="10"/>
<path d="M62.6621 215.957L294.323 56.891L671.817 309.19V314.137L294.323 64.1213L62.6621 221.095V215.957Z" stroke="#D38E1F" stroke-opacity="0.5" stroke-width="0.7016" stroke-miterlimit="10" stroke-linecap="round" stroke-linejoin="round"/>
<path d="M62.6621 221.095H70.6373L294.323 73.6349L664.981 314.137H671.817" stroke="#D38E1F" stroke-opacity="0.5" stroke-width="0.3742" stroke-miterlimit="10" stroke-linecap="round"/>
<path d="M294.323 73.6349V418.596" stroke="#D38E1F" stroke-opacity="0.5" stroke-width="0.7016" stroke-miterlimit="10" stroke-linecap="round"/>
<path d="M70.6377 221.095V452.464" stroke="#D38E1F" stroke-opacity="0.5" stroke-width="0.3742" stroke-miterlimit="10" stroke-linecap="round"/>
<path d="M113.932 186.466V445.995" stroke="#D38E1F" stroke-opacity="0.5" stroke-width="0.3742" stroke-miterlimit="10" stroke-linecap="round"/>
<path d="M119.628 445.234V182.47L124.755 185.514V444.473" stroke="#D38E1F" stroke-opacity="0.5" stroke-width="0.3742" stroke-miterlimit="10" stroke-linecap="round"/>
<path d="M62.6621 221.285V453.415" stroke="#D38E1F" stroke-opacity="0.5" stroke-width="0.7016" stroke-miterlimit="10" stroke-linecap="round"/>
<path d="M68.5488 452.654V217.479L73.4859 219.192V451.513" stroke="#D38E1F" stroke-opacity="0.5" stroke-width="0.3742" stroke-miterlimit="10" stroke-linecap="round"/>
<path d="M160.454 154.69V439.145" stroke="#D38E1F" stroke-opacity="0.5" stroke-width="0.6766" stroke-miterlimit="10" stroke-linecap="round"/>
<path d="M168.05 438.004V149.743L174.506 152.597V437.052" stroke="#D38E1F" stroke-opacity="0.5" stroke-width="0.6766" stroke-miterlimit="10" stroke-linecap="round"/>
<path d="M217.8 115.875V429.822" stroke="#D38E1F" stroke-opacity="0.5" stroke-width="0.6766" stroke-miterlimit="10" stroke-linecap="round"/>
<path d="M225.205 429.442V110.928L231.661 114.924V428.49" stroke="#D38E1F" stroke-opacity="0.5" stroke-width="0.6766" stroke-miterlimit="10" stroke-linecap="round"/>
<path d="M478.514 186.085V443.902" stroke="#D38E1F" stroke-opacity="0.5" stroke-width="0.6766" stroke-miterlimit="10" stroke-linecap="round"/>
<path d="M471.108 442.951V181.138L464.462 183.992V441.999" stroke="#D38E1F" stroke-opacity="0.5" stroke-width="0.6766" stroke-miterlimit="10" stroke-linecap="round"/>
<path d="M406.356 138.327V434.008" stroke="#D38E1F" stroke-opacity="0.5" stroke-width="0.6766" stroke-miterlimit="10" stroke-linecap="round"/>
<path d="M398.761 432.866V133.38L392.305 137.376V432.105" stroke="#D38E1F" stroke-opacity="0.5" stroke-width="0.6766" stroke-miterlimit="10" stroke-linecap="round"/>
<path d="M111.463 504.408L81.8408 505.93" stroke="#D38E1F" stroke-opacity="0.5" stroke-width="0.2339" stroke-miterlimit="10"/>
<path d="M111.463 549.312L81.8408 548.551" stroke="#D38E1F" stroke-opacity="0.5" stroke-width="0.2339" stroke-miterlimit="10"/>
<path d="M111.463 551.786H81.8408" stroke="#D38E1F" stroke-opacity="0.5" stroke-width="0.2339" stroke-miterlimit="10"/>
<path d="M85.2588 505.93V548.741" stroke="#D38E1F" stroke-opacity="0.5" stroke-width="0.2339" stroke-miterlimit="10"/>
<path d="M120.768 548.932L159.884 548.741" stroke="#D38E1F" stroke-opacity="0.5" stroke-width="0.2339" stroke-miterlimit="10"/>
<path d="M120.768 551.215H159.884" stroke="#D38E1F" stroke-opacity="0.5" stroke-width="0.2339" stroke-miterlimit="10"/>
<path d="M120.768 503.647L159.884 502.125" stroke="#D38E1F" stroke-opacity="0.5" stroke-width="0.2339" stroke-miterlimit="10"/>
<path d="M125.135 503.457L125.325 548.932" stroke="#D38E1F" stroke-opacity="0.5" stroke-width="0.2339" stroke-miterlimit="10"/>
<path d="M171.088 501.744L215.901 500.603" stroke="#D38E1F" stroke-opacity="0.5" stroke-width="0.2339" stroke-miterlimit="10"/>
<path d="M171.088 548.171L214.762 547.98" stroke="#D38E1F" stroke-opacity="0.5" stroke-width="0.2339" stroke-miterlimit="10"/>
<path d="M171.088 550.644L215.331 550.454" stroke="#D38E1F" stroke-opacity="0.5" stroke-width="0.2339" stroke-miterlimit="10"/>
<path d="M175.455 501.554V547.6" stroke="#D38E1F" stroke-opacity="0.5" stroke-width="0.2339" stroke-miterlimit="10"/>
<path d="M229.952 499.271L282.171 498.51" stroke="#D38E1F" stroke-opacity="0.5" stroke-width="0.2339" stroke-miterlimit="10"/>
<path d="M253.688 498.89V574.238" stroke="#D38E1F" stroke-opacity="0.5" stroke-width="0.2339" stroke-miterlimit="10"/>
<path d="M233.75 502.886H250.08V553.689H234.699L233.75 502.886Z" stroke="#D38E1F" stroke-opacity="0.5" stroke-width="0.2339" stroke-miterlimit="10"/>
<path d="M256.727 502.886V553.688H278.563V502.315L256.727 502.886Z" stroke="#D38E1F" stroke-opacity="0.5" stroke-width="0.2339" stroke-miterlimit="10"/>
<path d="M392.305 556.542L307.995 558.255" stroke="#D38E1F" stroke-opacity="0.5" stroke-width="0.2339" stroke-miterlimit="10"/>
<path d="M308.186 553.688L392.305 552.356" stroke="#D38E1F" stroke-opacity="0.5" stroke-width="0.2339" stroke-miterlimit="10"/>
<path d="M308.186 497.178L392.305 498.51" stroke="#D38E1F" stroke-opacity="0.5" stroke-width="0.2339" stroke-miterlimit="10"/>
<path d="M388.697 497.749V552.357" stroke="#D38E1F" stroke-opacity="0.5" stroke-width="0.2339" stroke-miterlimit="10"/>
<path d="M406.926 498.51L468.829 500.603" stroke="#D38E1F" stroke-opacity="0.5" stroke-width="0.2339" stroke-miterlimit="10"/>
<path d="M406.926 551.786L469.398 551.405" stroke="#D38E1F" stroke-opacity="0.5" stroke-width="0.2339" stroke-miterlimit="10"/>
<path d="M406.926 555.211L469.398 554.83" stroke="#D38E1F" stroke-opacity="0.5" stroke-width="0.2339" stroke-miterlimit="10"/>
<path d="M465.411 500.603V551.405" stroke="#D38E1F" stroke-opacity="0.5" stroke-width="0.2339" stroke-miterlimit="10"/>
<path d="M480.602 551.405H525.415" stroke="#D38E1F" stroke-opacity="0.5" stroke-width="0.2339" stroke-miterlimit="10"/>
<path d="M480.602 555.211L525.415 554.83" stroke="#D38E1F" stroke-opacity="0.5" stroke-width="0.2339" stroke-miterlimit="10"/>
<path d="M480.602 500.603L525.415 501.744" stroke="#D38E1F" stroke-opacity="0.5" stroke-width="0.2339" stroke-miterlimit="10"/>
<path d="M522.567 501.744V551.405" stroke="#D38E1F" stroke-opacity="0.5" stroke-width="0.2339" stroke-miterlimit="10"/>
<path d="M103.298 227.945V265.428" stroke="#D38E1F" stroke-opacity="0.5" stroke-width="0.3742" stroke-miterlimit="10" stroke-linecap="round"/>
<path d="M103.298 282.172V319.655" stroke="#D38E1F" stroke-opacity="0.5" stroke-width="0.3742" stroke-miterlimit="10" stroke-linecap="round"/>
<path d="M103.298 341.156V378.639" stroke="#D38E1F" stroke-opacity="0.5" stroke-width="0.3742" stroke-miterlimit="10" stroke-linecap="round"/>
<path d="M103.298 395.763V433.247" stroke="#D38E1F" stroke-opacity="0.5" stroke-width="0.3742" stroke-miterlimit="10" stroke-linecap="round"/>
<path d="M315.021 477.199L314.262 491.85L384.52 493.182V480.244L315.021 477.199Z" stroke="#D38E1F" stroke-opacity="0.5" stroke-width="0.2339" stroke-miterlimit="10"/>
<path d="M276.095 477.199V491.85C276.095 491.85 235.459 493.563 236.029 492.992C236.599 492.421 235.649 481.195 236.029 480.624C236.409 480.244 276.095 477.199 276.095 477.199Z" stroke="#D38E1F" stroke-opacity="0.5" stroke-width="0.2339" stroke-miterlimit="10"/>
<path d="M209.444 495.846L176.594 497.749V483.859L209.444 479.292V495.846Z" stroke="#D38E1F" stroke-opacity="0.5" stroke-width="0.2339" stroke-miterlimit="10"/>
<path d="M154.377 497.749L125.135 498.89L124.755 486.903L154.377 485.191V497.749Z" stroke="#D38E1F" stroke-opacity="0.5" stroke-width="0.2339" stroke-miterlimit="10"/>
<path d="M107.286 501.554L85.2591 502.315L84.6895 490.899L107.286 488.616V501.554Z" stroke="#D38E1F" stroke-opacity="0.5" stroke-width="0.2339" stroke-miterlimit="10"/>
<path d="M410.914 493.182L464.462 495.656V486.903L410.914 482.527V493.182Z" stroke="#D38E1F" stroke-opacity="0.5" stroke-width="0.2339" stroke-miterlimit="10"/>
<path d="M486.299 496.036L521.048 497.749V490.518L486.299 488.426V496.036Z" stroke="#D38E1F" stroke-opacity="0.5" stroke-width="0.2339" stroke-miterlimit="10"/>
<path d="M537.568 196.74L522.567 208.537" stroke="#D38E1F" stroke-opacity="0.5" stroke-width="0.3742" stroke-miterlimit="10" stroke-linecap="round"/>
<path d="M113.932 221.285L100.45 229.466V266.76L113.932 260.481" stroke="#D38E1F" stroke-opacity="0.5" stroke-width="0.2339" stroke-miterlimit="10" stroke-linecap="round"/>
<path d="M92.0953 270.755V233.652L77.2842 241.454V277.415L92.0953 270.755Z" stroke="#D38E1F" stroke-opacity="0.5" stroke-width="0.2339" stroke-miterlimit="10" stroke-linecap="round"/>
<path d="M79.9424 240.122V276.273" stroke="#D38E1F" stroke-opacity="0.5" stroke-width="0.2339" stroke-miterlimit="10" stroke-linecap="round"/>
<path d="M160.454 193.886L146.972 202.448V242.976L160.454 236.126" stroke="#D38E1F" stroke-opacity="0.5" stroke-width="0.2339" stroke-miterlimit="10" stroke-linecap="round"/>
<path d="M143.744 204.161V244.498L129.692 250.777V212.723L143.744 204.161Z" stroke="#D38E1F" stroke-opacity="0.5" stroke-width="0.2339" stroke-miterlimit="10" stroke-linecap="round"/>
<path d="M131.971 211.391V249.825" stroke="#D38E1F" stroke-opacity="0.5" stroke-width="0.2339" stroke-miterlimit="10" stroke-linecap="round"/>
<path d="M149.631 200.736V241.644" stroke="#D38E1F" stroke-opacity="0.5" stroke-width="0.2339" stroke-miterlimit="10" stroke-linecap="round"/>
<path d="M194.064 174.098L176.595 184.943V227.374L194.824 217.479L194.064 174.098Z" stroke="#D38E1F" stroke-opacity="0.5" stroke-width="0.2339" stroke-miterlimit="10" stroke-linecap="round"/>
<path d="M217.8 205.873L198.432 215.577V171.244L217.8 159.256" stroke="#D38E1F" stroke-opacity="0.5" stroke-width="0.2339" stroke-miterlimit="10" stroke-linecap="round"/>
<path d="M178.684 183.611V226.042" stroke="#D38E1F" stroke-opacity="0.5" stroke-width="0.2339" stroke-miterlimit="10" stroke-linecap="round"/>
<path d="M200.9 169.721V214.245" stroke="#D38E1F" stroke-opacity="0.5" stroke-width="0.2339" stroke-miterlimit="10" stroke-linecap="round"/>
<path d="M236.029 148.221V196.169L253.689 186.465V136.995L236.029 148.221Z" stroke="#D38E1F" stroke-opacity="0.5" stroke-width="0.2339" stroke-miterlimit="10" stroke-linecap="round"/>
<path d="M280.652 171.053L259.195 183.231V133.189L280.652 118.539V171.053Z" stroke="#D38E1F" stroke-opacity="0.5" stroke-width="0.2339" stroke-miterlimit="10" stroke-linecap="round"/>
<path d="M238.308 146.889V195.218" stroke="#D38E1F" stroke-opacity="0.5" stroke-width="0.2339" stroke-miterlimit="10" stroke-linecap="round"/>
<path d="M261.095 131.858V182.089" stroke="#D38E1F" stroke-opacity="0.5" stroke-width="0.2339" stroke-miterlimit="10" stroke-linecap="round"/>
<path d="M113.932 277.034L100.45 283.503V320.796L113.932 316.04" stroke="#D38E1F" stroke-opacity="0.5" stroke-width="0.2339" stroke-miterlimit="10" stroke-linecap="round"/>
<path d="M92.0953 323.651V286.738L77.2842 292.636V328.598L92.0953 323.651Z" stroke="#D38E1F" stroke-opacity="0.5" stroke-width="0.2339" stroke-miterlimit="10" stroke-linecap="round"/>
<path d="M79.9424 291.685V327.837" stroke="#D38E1F" stroke-opacity="0.5" stroke-width="0.2339" stroke-miterlimit="10" stroke-linecap="round"/>
<path d="M160.454 254.963L146.972 262.003V302.531L160.454 297.203" stroke="#D38E1F" stroke-opacity="0.5" stroke-width="0.2339" stroke-miterlimit="10" stroke-linecap="round"/>
<path d="M143.744 263.335V303.672L129.692 308.239V270.375L143.744 263.335Z" stroke="#D38E1F" stroke-opacity="0.5" stroke-width="0.2339" stroke-miterlimit="10" stroke-linecap="round"/>
<path d="M131.971 269.233V307.478" stroke="#D38E1F" stroke-opacity="0.5" stroke-width="0.2339" stroke-miterlimit="10" stroke-linecap="round"/>
<path d="M149.631 260.671V301.579" stroke="#D38E1F" stroke-opacity="0.5" stroke-width="0.2339" stroke-miterlimit="10" stroke-linecap="round"/>
<path d="M194.064 239.361L176.595 247.923V290.543L194.824 282.742L194.064 239.361Z" stroke="#D38E1F" stroke-opacity="0.5" stroke-width="0.2339" stroke-miterlimit="10" stroke-linecap="round"/>
<path d="M217.8 273.8L198.432 281.41V237.077L217.8 227.374" stroke="#D38E1F" stroke-opacity="0.5" stroke-width="0.2339" stroke-miterlimit="10" stroke-linecap="round"/>
<path d="M178.684 246.971V289.402" stroke="#D38E1F" stroke-opacity="0.5" stroke-width="0.2339" stroke-miterlimit="10" stroke-linecap="round"/>
<path d="M200.9 235.936V280.269" stroke="#D38E1F" stroke-opacity="0.5" stroke-width="0.2339" stroke-miterlimit="10" stroke-linecap="round"/>
<path d="M236.029 218.431V266.379L253.689 258.768V209.298L236.029 218.431Z" stroke="#D38E1F" stroke-opacity="0.5" stroke-width="0.2339" stroke-miterlimit="10" stroke-linecap="round"/>
<path d="M280.652 246.591L259.195 256.295V206.253L280.652 194.266V246.591Z" stroke="#D38E1F" stroke-opacity="0.5" stroke-width="0.2339" stroke-miterlimit="10" stroke-linecap="round"/>
<path d="M238.308 217.289V265.808" stroke="#D38E1F" stroke-opacity="0.5" stroke-width="0.2339" stroke-miterlimit="10" stroke-linecap="round"/>
<path d="M261.095 205.112V255.153" stroke="#D38E1F" stroke-opacity="0.5" stroke-width="0.2339" stroke-miterlimit="10" stroke-linecap="round"/>
<path d="M113.932 337.541L100.45 342.107V379.4L113.932 376.736" stroke="#D38E1F" stroke-opacity="0.5" stroke-width="0.2339" stroke-miterlimit="10" stroke-linecap="round"/>
<path d="M92.0953 380.922V343.819L77.2842 347.625V383.586L92.0953 380.922Z" stroke="#D38E1F" stroke-opacity="0.5" stroke-width="0.2339" stroke-miterlimit="10" stroke-linecap="round"/>
<path d="M79.9424 346.864V383.206" stroke="#D38E1F" stroke-opacity="0.5" stroke-width="0.2339" stroke-miterlimit="10" stroke-linecap="round"/>
<path d="M160.454 322.89L146.972 327.837V368.364L160.454 365.13" stroke="#D38E1F" stroke-opacity="0.5" stroke-width="0.2339" stroke-miterlimit="10" stroke-linecap="round"/>
<path d="M143.744 328.598V368.935L129.692 371.409V333.355L143.744 328.598Z" stroke="#D38E1F" stroke-opacity="0.5" stroke-width="0.2339" stroke-miterlimit="10" stroke-linecap="round"/>
<path d="M131.971 332.594V371.028" stroke="#D38E1F" stroke-opacity="0.5" stroke-width="0.2339" stroke-miterlimit="10" stroke-linecap="round"/>
<path d="M149.631 326.885V367.794" stroke="#D38E1F" stroke-opacity="0.5" stroke-width="0.2339" stroke-miterlimit="10" stroke-linecap="round"/>
<path d="M194.064 312.425L176.595 318.513V360.944L194.824 355.997L194.064 312.425Z" stroke="#D38E1F" stroke-opacity="0.5" stroke-width="0.2339" stroke-miterlimit="10" stroke-linecap="round"/>
<path d="M217.8 350.859L198.432 355.236V310.902L217.8 304.243" stroke="#D38E1F" stroke-opacity="0.5" stroke-width="0.2339" stroke-miterlimit="10" stroke-linecap="round"/>
<path d="M178.684 317.752V360.183" stroke="#D38E1F" stroke-opacity="0.5" stroke-width="0.2339" stroke-miterlimit="10" stroke-linecap="round"/>
<path d="M200.9 310.141V354.474" stroke="#D38E1F" stroke-opacity="0.5" stroke-width="0.2339" stroke-miterlimit="10" stroke-linecap="round"/>
<path d="M236.029 298.345V346.103L253.689 341.346V291.875L236.029 298.345Z" stroke="#D38E1F" stroke-opacity="0.5" stroke-width="0.2339" stroke-miterlimit="10" stroke-linecap="round"/>
<path d="M280.652 333.355L259.195 339.633V289.592L280.652 281.03V333.355Z" stroke="#D38E1F" stroke-opacity="0.5" stroke-width="0.2339" stroke-miterlimit="10" stroke-linecap="round"/>
<path d="M238.308 297.393V345.912" stroke="#D38E1F" stroke-opacity="0.5" stroke-width="0.2339" stroke-miterlimit="10" stroke-linecap="round"/>
<path d="M261.095 288.831V338.872" stroke="#D38E1F" stroke-opacity="0.5" stroke-width="0.2339" stroke-miterlimit="10" stroke-linecap="round"/>
<path d="M113.932 392.338L100.45 396.714V434.007L113.932 431.534" stroke="#D38E1F" stroke-opacity="0.5" stroke-width="0.2339" stroke-miterlimit="10" stroke-linecap="round"/>
<path d="M92.0953 435.34V398.237L77.2842 401.662V437.623L92.0953 435.34Z" stroke="#D38E1F" stroke-opacity="0.5" stroke-width="0.2339" stroke-miterlimit="10" stroke-linecap="round"/>
<path d="M79.9424 401.091V437.433" stroke="#D38E1F" stroke-opacity="0.5" stroke-width="0.2339" stroke-miterlimit="10" stroke-linecap="round"/>
<path d="M160.454 383.206L146.972 387.392V427.919L160.454 425.446" stroke="#D38E1F" stroke-opacity="0.5" stroke-width="0.2339" stroke-miterlimit="10" stroke-linecap="round"/>
<path d="M143.744 388.153V428.49L129.692 430.202V392.148L143.744 388.153Z" stroke="#D38E1F" stroke-opacity="0.5" stroke-width="0.2339" stroke-miterlimit="10" stroke-linecap="round"/>
<path d="M131.971 391.577V429.822" stroke="#D38E1F" stroke-opacity="0.5" stroke-width="0.2339" stroke-miterlimit="10" stroke-linecap="round"/>
<path d="M149.631 386.63V427.539" stroke="#D38E1F" stroke-opacity="0.5" stroke-width="0.2339" stroke-miterlimit="10" stroke-linecap="round"/>
<path d="M194.064 376.927L176.595 381.112V423.733L194.824 420.689L194.064 376.927Z" stroke="#D38E1F" stroke-opacity="0.5" stroke-width="0.2339" stroke-miterlimit="10" stroke-linecap="round"/>
<path d="M217.8 417.645L198.432 420.118V375.785L217.8 371.219" stroke="#D38E1F" stroke-opacity="0.5" stroke-width="0.2339" stroke-miterlimit="10" stroke-linecap="round"/>
<path d="M178.684 380.732V423.162" stroke="#D38E1F" stroke-opacity="0.5" stroke-width="0.2339" stroke-miterlimit="10" stroke-linecap="round"/>
<path d="M200.9 375.214V419.738" stroke="#D38E1F" stroke-opacity="0.5" stroke-width="0.2339" stroke-miterlimit="10" stroke-linecap="round"/>
<path d="M236.029 367.032V414.79L253.689 411.936V362.466L236.029 367.032Z" stroke="#D38E1F" stroke-opacity="0.5" stroke-width="0.2339" stroke-miterlimit="10" stroke-linecap="round"/>
<path d="M280.652 406.609L259.195 410.795V360.753L280.652 354.284V406.609Z" stroke="#D38E1F" stroke-opacity="0.5" stroke-width="0.2339" stroke-miterlimit="10" stroke-linecap="round"/>
<path d="M238.308 366.461V414.79" stroke="#D38E1F" stroke-opacity="0.5" stroke-width="0.2339" stroke-miterlimit="10" stroke-linecap="round"/>
<path d="M261.095 360.183V410.224" stroke="#D38E1F" stroke-opacity="0.5" stroke-width="0.2339" stroke-miterlimit="10" stroke-linecap="round"/>
<path d="M436.549 187.797L459.525 202.829L459.905 243.356L435.789 229.276L436.549 187.797Z" stroke="#D38E1F" stroke-opacity="0.5" stroke-width="0.2339" stroke-miterlimit="10" stroke-linecap="round"/>
<path d="M405.787 212.152L431.042 226.803L430.662 183.611L406.357 166.867" stroke="#D38E1F" stroke-opacity="0.5" stroke-width="0.2339" stroke-miterlimit="10" stroke-linecap="round"/>
<path d="M456.677 201.116L457.057 241.454" stroke="#D38E1F" stroke-opacity="0.5" stroke-width="0.2339" stroke-miterlimit="10" stroke-linecap="round"/>
<path d="M427.435 181.518L427.814 224.71" stroke="#D38E1F" stroke-opacity="0.5" stroke-width="0.2339" stroke-miterlimit="10" stroke-linecap="round"/>
<path d="M437.118 250.777L460.095 262.764L460.474 303.101L436.169 292.636L437.118 250.777Z" stroke="#D38E1F" stroke-opacity="0.5" stroke-width="0.2339" stroke-miterlimit="10" stroke-linecap="round"/>
<path d="M406.167 279.698L431.612 290.543L431.232 247.542L405.787 233.462" stroke="#D38E1F" stroke-opacity="0.5" stroke-width="0.2339" stroke-miterlimit="10" stroke-linecap="round"/>
<path d="M457.246 261.242L457.626 301.769" stroke="#D38E1F" stroke-opacity="0.5" stroke-width="0.2339" stroke-miterlimit="10" stroke-linecap="round"/>
<path d="M428.004 245.83L428.384 289.212" stroke="#D38E1F" stroke-opacity="0.5" stroke-width="0.2339" stroke-miterlimit="10" stroke-linecap="round"/>
<path d="M437.689 321.558L460.665 329.549L460.855 370.077L436.739 363.608L437.689 321.558Z" stroke="#D38E1F" stroke-opacity="0.5" stroke-width="0.2339" stroke-miterlimit="10" stroke-linecap="round"/>
<path d="M406.927 355.997L432.182 362.466L431.802 319.465L406.547 309.951" stroke="#D38E1F" stroke-opacity="0.5" stroke-width="0.2339" stroke-miterlimit="10" stroke-linecap="round"/>
<path d="M457.816 328.598L458.196 368.935" stroke="#D38E1F" stroke-opacity="0.5" stroke-width="0.2339" stroke-miterlimit="10" stroke-linecap="round"/>
<path d="M428.573 318.323L428.953 361.515" stroke="#D38E1F" stroke-opacity="0.5" stroke-width="0.2339" stroke-miterlimit="10" stroke-linecap="round"/>
<path d="M477.944 217.479L497.503 229.847L497.693 266.569L478.134 256.295" stroke="#D38E1F" stroke-opacity="0.5" stroke-width="0.2339" stroke-miterlimit="10" stroke-linecap="round"/>
<path d="M502.25 232.321V268.853L522.568 278.366V244.498L502.25 232.321Z" stroke="#D38E1F" stroke-opacity="0.5" stroke-width="0.2339" stroke-miterlimit="10" stroke-linecap="round"/>
<path d="M519.34 242.595L519.53 276.844" stroke="#D38E1F" stroke-opacity="0.5" stroke-width="0.2339" stroke-miterlimit="10" stroke-linecap="round"/>
<path d="M493.895 227.374L494.084 264.667" stroke="#D38E1F" stroke-opacity="0.5" stroke-width="0.2339" stroke-miterlimit="10" stroke-linecap="round"/>
<path d="M478.134 273.8L497.692 283.884L497.882 320.606L478.324 312.615" stroke="#D38E1F" stroke-opacity="0.5" stroke-width="0.2339" stroke-miterlimit="10" stroke-linecap="round"/>
<path d="M502.439 285.787V322.319L522.757 329.359V295.681L502.439 285.787Z" stroke="#D38E1F" stroke-opacity="0.5" stroke-width="0.2339" stroke-miterlimit="10" stroke-linecap="round"/>
<path d="M519.529 294.159V328.217" stroke="#D38E1F" stroke-opacity="0.5" stroke-width="0.2339" stroke-miterlimit="10" stroke-linecap="round"/>
<path d="M494.084 281.981L494.274 319.084" stroke="#D38E1F" stroke-opacity="0.5" stroke-width="0.2339" stroke-miterlimit="10" stroke-linecap="round"/>
<path d="M478.514 336.208L498.072 343.439V380.161L478.514 375.024" stroke="#D38E1F" stroke-opacity="0.5" stroke-width="0.2339" stroke-miterlimit="10" stroke-linecap="round"/>
<path d="M502.629 344.771V381.303L522.947 385.489V351.811L502.629 344.771Z" stroke="#D38E1F" stroke-opacity="0.5" stroke-width="0.2339" stroke-miterlimit="10" stroke-linecap="round"/>
<path d="M519.719 350.669L519.909 384.918" stroke="#D38E1F" stroke-opacity="0.5" stroke-width="0.2339" stroke-miterlimit="10" stroke-linecap="round"/>
<path d="M494.274 342.107L494.464 379.21" stroke="#D38E1F" stroke-opacity="0.5" stroke-width="0.2339" stroke-miterlimit="10" stroke-linecap="round"/>
<path d="M478.704 391.768L498.262 397.476V434.198L478.704 430.583" stroke="#D38E1F" stroke-opacity="0.5" stroke-width="0.2339" stroke-miterlimit="10" stroke-linecap="round"/>
<path d="M502.819 398.427V434.959L523.137 437.623V403.945L502.819 398.427Z" stroke="#D38E1F" stroke-opacity="0.5" stroke-width="0.2339" stroke-miterlimit="10" stroke-linecap="round"/>
<path d="M519.909 403.184L520.099 437.242" stroke="#D38E1F" stroke-opacity="0.5" stroke-width="0.2339" stroke-miterlimit="10" stroke-linecap="round"/>
<path d="M494.465 396.334L494.655 433.627" stroke="#D38E1F" stroke-opacity="0.5" stroke-width="0.2339" stroke-miterlimit="10" stroke-linecap="round"/>
<path d="M438.258 383.967L461.044 389.104L461.424 429.441L437.309 426.207L438.258 383.967Z" stroke="#D38E1F" stroke-opacity="0.5" stroke-width="0.2339" stroke-miterlimit="10" stroke-linecap="round"/>
<path d="M407.496 422.592L432.751 425.636L432.371 382.444L407.116 376.356" stroke="#D38E1F" stroke-opacity="0.5" stroke-width="0.2339" stroke-miterlimit="10" stroke-linecap="round"/>
<path d="M458.386 388.533L458.576 428.87" stroke="#D38E1F" stroke-opacity="0.5" stroke-width="0.2339" stroke-miterlimit="10" stroke-linecap="round"/>
<path d="M429.143 381.683L429.522 425.065" stroke="#D38E1F" stroke-opacity="0.5" stroke-width="0.2339" stroke-miterlimit="10" stroke-linecap="round"/>
<path d="M387.558 162.301L387.748 208.537L358.885 193.505L358.695 144.796L387.558 162.301Z" stroke="#D38E1F" stroke-opacity="0.5" stroke-width="0.2339" stroke-miterlimit="10" stroke-linecap="round"/>
<path d="M314.642 168.96L349.96 188.558V139.088L314.642 115.875V168.96Z" stroke="#D38E1F" stroke-opacity="0.5" stroke-width="0.2339" stroke-miterlimit="10" stroke-linecap="round"/>
<path d="M384.14 160.208L384.33 207.015" stroke="#D38E1F" stroke-opacity="0.5" stroke-width="0.2339" stroke-miterlimit="10" stroke-linecap="round"/>
<path d="M346.732 137.185L346.922 186.656" stroke="#D38E1F" stroke-opacity="0.5" stroke-width="0.2339" stroke-miterlimit="10" stroke-linecap="round"/>
<path d="M387.747 230.037L387.937 276.273L359.075 264.667L358.885 215.957L387.747 230.037Z" stroke="#D38E1F" stroke-opacity="0.5" stroke-width="0.2339" stroke-miterlimit="10" stroke-linecap="round"/>
<path d="M314.831 245.449L350.15 260.861L349.96 211.391L314.642 192.364L314.831 245.449Z" stroke="#D38E1F" stroke-opacity="0.5" stroke-width="0.2339" stroke-miterlimit="10" stroke-linecap="round"/>
<path d="M384.33 228.325V275.131" stroke="#D38E1F" stroke-opacity="0.5" stroke-width="0.2339" stroke-miterlimit="10" stroke-linecap="round"/>
<path d="M346.922 209.678L347.112 259.339" stroke="#D38E1F" stroke-opacity="0.5" stroke-width="0.2339" stroke-miterlimit="10" stroke-linecap="round"/>
<path d="M387.937 307.097L388.127 353.143L359.264 345.912L359.074 297.203L387.937 307.097Z" stroke="#D38E1F" stroke-opacity="0.5" stroke-width="0.2339" stroke-miterlimit="10" stroke-linecap="round"/>
<path d="M315.021 333.164L350.34 343.248L350.15 293.778L314.831 280.269L315.021 333.164Z" stroke="#D38E1F" stroke-opacity="0.5" stroke-width="0.2339" stroke-miterlimit="10" stroke-linecap="round"/>
<path d="M384.52 305.955V352.762" stroke="#D38E1F" stroke-opacity="0.5" stroke-width="0.2339" stroke-miterlimit="10" stroke-linecap="round"/>
<path d="M347.111 292.636L347.301 342.297" stroke="#D38E1F" stroke-opacity="0.5" stroke-width="0.2339" stroke-miterlimit="10" stroke-linecap="round"/>
<path d="M388.127 373.311V419.547L359.265 415.171V366.652L388.127 373.311Z" stroke="#D38E1F" stroke-opacity="0.5" stroke-width="0.2339" stroke-miterlimit="10" stroke-linecap="round"/>
<path d="M315.211 407.37L350.53 413.649L350.34 364.178L315.021 354.284L315.211 407.37Z" stroke="#D38E1F" stroke-opacity="0.5" stroke-width="0.2339" stroke-miterlimit="10" stroke-linecap="round"/>
<path d="M384.52 372.55L384.709 419.357" stroke="#D38E1F" stroke-opacity="0.5" stroke-width="0.2339" stroke-miterlimit="10" stroke-linecap="round"/>
<path d="M347.302 363.227V412.888" stroke="#D38E1F" stroke-opacity="0.5" stroke-width="0.2339" stroke-miterlimit="10" stroke-linecap="round"/>
<g opacity="0.5">
<path d="M13.292 227.945L50.6996 199.214L88.1072 170.483L163.302 113.401L238.687 56.7007L276.284 28.1601L314.262 0L276.854 28.7309L239.257 57.2715L164.062 114.543L88.6768 171.244L51.0793 199.594L13.292 227.945Z" fill="#D38E1F" fill-opacity="0.5"/>
</g>
<g opacity="0.5">
<path d="M217.8 5.70813L280.462 47.1872L343.125 89.0468L468.64 172.385L593.775 256.295L656.247 298.155L718.72 340.204L655.867 298.725L593.205 256.866L467.88 173.527L342.745 89.6176L280.082 47.758L217.8 5.70813Z" fill="#D38E1F" fill-opacity="0.5"/>
</g>
<g opacity="0.5">
<path d="M34.3691 457.602L116.97 444.854L199.38 432.296L364.202 407.18L529.213 382.635L611.813 370.267L694.414 358.28L611.813 371.028L529.403 383.586L364.581 408.512L199.57 433.247L116.97 445.424L34.3691 457.602Z" fill="#D38E1F" fill-opacity="0.5"/>
</g>
<g opacity="0.5">
<path d="M750.431 558.826L209.635 617.049L750.241 557.494C750.621 557.494 751 557.684 751 558.065C751 558.445 750.81 558.826 750.431 558.826Z" fill="#D38E1F" fill-opacity="0.5"/>
</g>
<g opacity="0.5">
<path d="M0.759545 570.813L384.14 617.81L0.569659 572.145C0.189886 572.145 0 571.764 0 571.384C0 571.193 0.379772 570.813 0.759545 570.813Z" fill="#D38E1F" fill-opacity="0.5"/>
</g>
<g opacity="0.5">
<path d="M38.3572 81.0554L38.9269 145.177V209.488L39.3066 337.921L38.9269 466.354V530.475L38.3572 594.787L37.9774 530.475L37.7875 466.354L37.5977 337.921L37.7875 209.488L37.9774 145.177L38.3572 81.0554Z" fill="#D38E1F" fill-opacity="0.5"/>
</g>
</g>
<defs>
<clipPath id="clip0_175_1822">
<rect width="751" height="618" fill="white"/>
</clipPath>
</defs>
</svg>
