<svg width="40" height="40" viewBox="0 0 40 40" fill="none" xmlns="http://www.w3.org/2000/svg">
<path fill-rule="evenodd" clip-rule="evenodd" d="M2.5 20.0001C2.5 19.6686 2.6317 19.3507 2.86612 19.1162C3.10054 18.8818 3.41848 18.7501 3.75 18.7501H33.2325L25.365 10.8851C25.1303 10.6504 24.9984 10.3321 24.9984 10.0001C24.9984 9.66817 25.1303 9.34983 25.365 9.11511C25.5997 8.8804 25.9181 8.74854 26.25 8.74854C26.5819 8.74854 26.9003 8.8804 27.135 9.11511L37.135 19.1151C37.2514 19.2312 37.3438 19.3692 37.4068 19.521C37.4698 19.6729 37.5022 19.8357 37.5022 20.0001C37.5022 20.1645 37.4698 20.3273 37.4068 20.4792C37.3438 20.6311 37.2514 20.769 37.135 20.8851L27.135 30.8851C26.9003 31.1198 26.5819 31.2517 26.25 31.2517C25.9181 31.2517 25.5997 31.1198 25.365 30.8851C25.1303 30.6504 24.9984 30.3321 24.9984 30.0001C24.9984 29.6682 25.1303 29.3498 25.365 29.1151L33.2325 21.2501H3.75C3.41848 21.2501 3.10054 21.1184 2.86612 20.884C2.6317 20.6496 2.5 20.3316 2.5 20.0001Z" fill="white" fill-opacity="0.56"/>
</svg>
