<svg width="40" height="40" viewBox="0 0 40 40" fill="none" xmlns="http://www.w3.org/2000/svg">
<path fill-rule="evenodd" clip-rule="evenodd" d="M37.5 20C37.5 19.6685 37.3683 19.3505 37.1339 19.1161C36.8995 18.8817 36.5815 18.75 36.25 18.75H6.7675L14.635 10.885C14.8697 10.6503 15.0016 10.3319 15.0016 9.99999C15.0016 9.66805 14.8697 9.34971 14.635 9.11499C14.4003 8.88028 14.0819 8.74841 13.75 8.74841C13.4181 8.74841 13.0997 8.88028 12.865 9.11499L2.865 19.115C2.74859 19.2311 2.65623 19.369 2.59322 19.5209C2.5302 19.6728 2.49776 19.8356 2.49776 20C2.49776 20.1644 2.5302 20.3272 2.59322 20.4791C2.65623 20.6309 2.74859 20.7689 2.865 20.885L12.865 30.885C13.0997 31.1197 13.4181 31.2516 13.75 31.2516C14.0819 31.2516 14.4003 31.1197 14.635 30.885C14.8697 30.6503 15.0016 30.3319 15.0016 30C15.0016 29.6681 14.8697 29.3497 14.635 29.115L6.7675 21.25H36.25C36.5815 21.25 36.8995 21.1183 37.1339 20.8839C37.3683 20.6495 37.5 20.3315 37.5 20Z" fill="#E1B164" fill-opacity="0.46"/>
</svg>
