<svg width="20" height="20" viewBox="0 0 20 20" fill="none" xmlns="http://www.w3.org/2000/svg">
<path d="M10.4526 13.2751L17.0901 6.30887C17.2009 6.19263 17.2627 6.03821 17.2627 5.87762C17.2627 5.71703 17.2009 5.5626 17.0901 5.44637L17.0826 5.43887C17.0289 5.38232 16.9642 5.3373 16.8925 5.30653C16.8209 5.27577 16.7437 5.2599 16.6657 5.2599C16.5877 5.2599 16.5105 5.27577 16.4389 5.30653C16.3672 5.3373 16.3025 5.38232 16.2488 5.43887L9.99883 11.9989L3.75133 5.43887C3.69761 5.38232 3.63295 5.3373 3.56129 5.30653C3.48962 5.27576 3.41244 5.2599 3.33445 5.2599C3.25646 5.2599 3.17928 5.27576 3.10762 5.30653C3.03595 5.3373 2.97129 5.38232 2.91758 5.43887L2.91008 5.44637C2.79927 5.5626 2.73746 5.71703 2.73746 5.87762C2.73746 6.0382 2.79927 6.19263 2.91008 6.30887L9.54758 13.2751C9.60595 13.3364 9.67615 13.3852 9.75393 13.4185C9.83172 13.4518 9.91546 13.469 10.0001 13.469C10.0847 13.469 10.1684 13.4518 10.2462 13.4185C10.324 13.3852 10.3942 13.3364 10.4526 13.2751Z" fill="white"/>
</svg>
