<svg width="20" height="20" viewBox="0 0 20 20" fill="none" xmlns="http://www.w3.org/2000/svg">
<path d="M10.4525 13.275L17.09 6.30875C17.2008 6.19251 17.2626 6.03808 17.2626 5.8775C17.2626 5.71691 17.2008 5.56248 17.09 5.44625L17.0825 5.43875C17.0288 5.3822 16.9641 5.33718 16.8925 5.30641C16.8208 5.27564 16.7436 5.25978 16.6656 5.25978C16.5876 5.25978 16.5105 5.27564 16.4388 5.30641C16.3671 5.33718 16.3025 5.3822 16.2488 5.43875L9.99875 11.9987L3.75125 5.43874C3.69753 5.3822 3.63288 5.33718 3.56121 5.30641C3.48954 5.27564 3.41237 5.25978 3.33438 5.25978C3.25638 5.25978 3.17921 5.27564 3.10754 5.30641C3.03588 5.33718 2.97122 5.3822 2.9175 5.43874L2.91 5.44624C2.79919 5.56248 2.73738 5.71691 2.73738 5.87749C2.73738 6.03808 2.79919 6.19251 2.91 6.30874L9.5475 13.275C9.60587 13.3363 9.67608 13.385 9.75386 13.4184C9.83164 13.4517 9.91538 13.4689 10 13.4689C10.0846 13.4689 10.1684 13.4517 10.2461 13.4184C10.3239 13.385 10.3941 13.3363 10.4525 13.275Z" fill="#D38E1F"/>
</svg>
