<svg width="24" height="16" viewBox="0 0 24 16" fill="none" xmlns="http://www.w3.org/2000/svg">
<path fill-rule="evenodd" clip-rule="evenodd" d="M23.5137 8.00001C23.5137 7.7819 23.427 7.57273 23.2728 7.41851C23.1186 7.26429 22.9094 7.17764 22.6913 7.17764H3.29492L8.47091 2.0033C8.62533 1.84888 8.71208 1.63944 8.71208 1.42106C8.71208 1.20268 8.62533 0.993245 8.47091 0.838826C8.31649 0.684408 8.10705 0.597656 7.88867 0.597656C7.67029 0.597656 7.46085 0.684408 7.30643 0.838826L0.727487 7.41777C0.650903 7.49416 0.590142 7.58491 0.548684 7.68482C0.507226 7.78473 0.485886 7.89184 0.485886 8.00001C0.485886 8.10818 0.507226 8.21529 0.548684 8.3152C0.590142 8.41511 0.650903 8.50586 0.727487 8.58225L7.30643 15.1612C7.46085 15.3156 7.67029 15.4024 7.88867 15.4024C8.10705 15.4024 8.31649 15.3156 8.47091 15.1612C8.62533 15.0068 8.71208 14.7973 8.71208 14.579C8.71208 14.3606 8.62533 14.1511 8.47091 13.9967L3.29492 8.82238H22.6913C22.9094 8.82238 23.1186 8.73574 23.2728 8.58151C23.427 8.42729 23.5137 8.21812 23.5137 8.00001V8.00001Z" fill="#E1B164" fill-opacity="0.8"/>
</svg>
