<svg width="32" height="30" viewBox="0 0 32 30" fill="none" xmlns="http://www.w3.org/2000/svg">
<g clip-path="url(#clip0_500_9017)">
<path d="M22.6711 3.03125H9.37239C9.23095 3.03125 9.11597 3.14605 9.11597 3.28767V27.6411C9.11597 27.7825 9.23077 27.8975 9.37239 27.8975H22.6711C22.8125 27.8975 22.9275 27.7827 22.9275 27.6411L22.9273 3.28767C22.9273 3.14623 22.8125 3.03125 22.6711 3.03125ZM13.7148 21.8626H15.7657L15.7655 27.3846H13.7146L13.7148 21.8626ZM16.2783 27.3846V21.8626H18.3292L18.329 27.3846H16.2783ZM22.4147 27.3846H18.8418V21.8626H20.1343C20.2757 21.8626 20.3907 21.7478 20.3907 21.6061C20.3907 21.4647 20.2759 21.3497 20.1343 21.3497L18.5853 21.3499H11.9092C11.7678 21.3499 11.6528 21.4647 11.6528 21.6063C11.6528 21.7478 11.7676 21.8627 11.9092 21.8627L13.2017 21.8626V27.3846H9.62856L9.62874 3.54395H22.4143L22.4147 27.3846Z" fill="#E49216"/>
<path d="M11.6427 9.20522H14.9536C15.0951 9.20522 15.21 9.09042 15.21 8.9488V5.63728C15.21 5.49584 15.0952 5.38086 14.9536 5.38086H11.6427C11.5012 5.38086 11.3862 5.49566 11.3862 5.63728V8.9488C11.3864 9.09042 11.5012 9.20522 11.6427 9.20522ZM11.8991 5.89371H14.6974V8.69256H11.8991V5.89371Z" fill="#E49216"/>
<path d="M17.0909 9.20522H20.4015C20.5429 9.20522 20.6579 9.09042 20.6579 8.9488V5.63728C20.6579 5.49584 20.5431 5.38086 20.4015 5.38086H17.0909C16.9495 5.38086 16.8345 5.49566 16.8345 5.63728V8.9488C16.8347 9.09042 16.9495 9.20522 17.0909 9.20522ZM17.3473 5.89371H20.1451V8.69256H17.3473V5.89371Z" fill="#E49216"/>
<path d="M11.6427 14.439H14.9536C15.0951 14.439 15.21 14.3242 15.21 14.1826V10.8717C15.21 10.7302 15.0952 10.6152 14.9536 10.6152H11.6427C11.5012 10.6152 11.3862 10.73 11.3862 10.8717L11.3864 14.1826C11.3864 14.3241 11.5012 14.439 11.6427 14.439ZM11.8991 11.1279H14.6974V13.9262H11.8991V11.1279Z" fill="#E49216"/>
<path d="M17.0909 14.439H20.4015C20.5429 14.439 20.6579 14.3242 20.6579 14.1826V10.8717C20.6579 10.7302 20.5431 10.6152 20.4015 10.6152H17.0909C16.9495 10.6152 16.8345 10.73 16.8345 10.8717L16.8347 14.1826C16.8347 14.3241 16.9495 14.439 17.0909 14.439ZM17.3473 11.1279H20.1451V13.9262H17.3473V11.1279Z" fill="#E49216"/>
<path d="M11.6427 19.6724H14.9536C15.0951 19.6724 15.21 19.5576 15.21 19.416V16.1051C15.21 15.9636 15.0952 15.8486 14.9536 15.8486H11.6427C11.5012 15.8486 11.3862 15.9634 11.3862 16.1051V19.416C11.3864 19.5576 11.5012 19.6724 11.6427 19.6724ZM11.8991 16.3615H14.6974V19.1598H11.8991V16.3615Z" fill="#E49216"/>
<path d="M17.0908 19.6724H20.4014C20.5429 19.6724 20.6579 19.5576 20.6579 19.416L20.6577 16.1051C20.6577 15.9636 20.5429 15.8486 20.4013 15.8486H17.0907C16.9492 15.8486 16.8342 15.9634 16.8342 16.1051V19.416C16.8346 19.5576 16.9494 19.6724 17.0908 19.6724ZM17.3473 16.3615H20.145V19.1598H17.3473V16.3615Z" fill="#E49216"/>
</g>
<defs>
<clipPath id="clip0_500_9017">
<rect width="31.7647" height="30" fill="white"/>
</clipPath>
</defs>
</svg>
