<svg width="34" height="34" viewBox="0 0 34 34" fill="none" xmlns="http://www.w3.org/2000/svg">
<path d="M31.8372 16.3294L17.6706 2.16276C17.4936 1.98686 17.2542 1.88812 17.0047 1.88812C16.7552 1.88812 16.5158 1.98686 16.3389 2.16276L2.17222 16.3294C2.0175 16.5101 1.93665 16.7425 1.94583 16.9802C1.95501 17.2179 2.05354 17.4434 2.22174 17.6116C2.38994 17.7798 2.61542 17.8783 2.85311 17.8875C3.09081 17.8967 3.32321 17.8158 3.50389 17.6611L17 4.16498L30.4961 17.6705C30.6768 17.8253 30.9092 17.9061 31.1469 17.8969C31.3846 17.8878 31.6101 17.7892 31.7783 17.621C31.9465 17.4528 32.045 17.2273 32.0542 16.9896C32.0634 16.7519 31.9825 16.5195 31.8278 16.3389L31.8372 16.3294Z" fill="#E1B164"/>
<path d="M26.4444 30.2222H21.7222V20.7778H12.2778V30.2222H7.55555V17L5.66666 18.8889V30.2222C5.66666 30.7232 5.86567 31.2036 6.21991 31.5579C6.57414 31.9121 7.05459 32.1111 7.55555 32.1111H14.1667V22.6666H19.8333V32.1111H26.4444C26.9454 32.1111 27.4259 31.9121 27.7801 31.5579C28.1343 31.2036 28.3333 30.7232 28.3333 30.2222V18.6622L26.4444 16.7733V30.2222Z" fill="#E1B164"/>
</svg>
