<svg width="656" height="578" viewBox="0 0 656 578" fill="none" xmlns="http://www.w3.org/2000/svg">
<path d="M217.58 75.8096V393.46" stroke="#C07B0B" stroke-opacity="0.41" stroke-width="0.7016" stroke-miterlimit="10" stroke-linecap="round"/>
<path d="M243.39 78.1226V393.46" stroke="#C07B0B" stroke-opacity="0.41" stroke-width="0.7016" stroke-miterlimit="10" stroke-linecap="round"/>
<path d="M4.15479 424.959C6.11281 424.781 229.328 391.503 229.328 391.503L597.259 442.398V444.534L229.15 397.375L4.15479 427.628V424.959V424.959Z" stroke="#C07B0B" stroke-opacity="0.41" stroke-width="0.7016" stroke-miterlimit="10" stroke-linecap="round"/>
<path d="M5.93484 427.45C7.89286 427.272 229.15 397.553 229.15 397.553L595.479 444.534V446.669L228.972 403.426L5.75684 430.119V427.45H5.93484Z" stroke="#C07B0B" stroke-opacity="0.41" stroke-width="0.5896" stroke-miterlimit="10" stroke-linecap="round"/>
<path d="M9.49487 429.585C11.4529 429.407 228.972 403.426 228.972 403.426L591.919 446.135V448.271L228.794 409.298L9.49487 432.255V429.585Z" stroke="#C07B0B" stroke-opacity="0.41" stroke-width="0.5823" stroke-miterlimit="10" stroke-linecap="round"/>
<path d="M18.217 431.365V444.534L227.904 420.687L591.919 457.702V448.271L228.794 409.298L18.217 431.365Z" stroke="#C07B0B" stroke-opacity="0.41" stroke-width="0.5823" stroke-miterlimit="10" stroke-linecap="round"/>
<path d="M18.217 444.534H28.1852L227.904 423.179L591.919 457.702L227.904 420.688L18.217 444.534Z" stroke="#C07B0B" stroke-opacity="0.41" stroke-width="0.3742" stroke-miterlimit="10" stroke-linecap="round"/>
<path d="M214.02 424.602V430.297H216.512V539.562L227.192 540.274L240.72 539.384V431.365H243.39V424.602L227.904 423.179L214.02 424.602Z" stroke="#C07B0B" stroke-opacity="0.41" stroke-width="0.3742" stroke-miterlimit="10" stroke-linecap="round"/>
<path d="M21.599 452.541L227.904 435.28L240.72 436.348" stroke="#C07B0B" stroke-opacity="0.41" stroke-width="0.3742" stroke-miterlimit="10" stroke-linecap="round"/>
<path d="M21.599 454.499L227.904 438.127L240.72 439.195" stroke="#C07B0B" stroke-opacity="0.41" stroke-width="0.3742" stroke-miterlimit="10" stroke-linecap="round"/>
<path d="M216.512 529.774H227.726H240.72" stroke="#C07B0B" stroke-opacity="0.41" stroke-width="0.3742" stroke-miterlimit="10" stroke-linecap="round"/>
<path d="M227.904 438.127V529.774" stroke="#C07B0B" stroke-opacity="0.41" stroke-width="0.3742" stroke-miterlimit="10" stroke-linecap="round"/>
<path d="M216.512 537.782L20.8871 532.088V444.534" stroke="#C07B0B" stroke-opacity="0.41" stroke-width="0.3742" stroke-miterlimit="10" stroke-linecap="round"/>
<path d="M167.561 429.585V536.358L163.289 537.604V437.059C163.289 437.059 159.907 432.61 161.153 428.339L167.561 429.585Z" stroke="#C07B0B" stroke-opacity="0.41" stroke-width="0.3742" stroke-miterlimit="10" stroke-linecap="round"/>
<path d="M151.719 429.407C150.473 433.678 153.855 438.127 153.855 438.127V537.07L163.289 537.604" stroke="#C07B0B" stroke-opacity="0.41" stroke-width="0.3742" stroke-miterlimit="10" stroke-linecap="round"/>
<path d="M112.38 435.458V534.757L108.464 535.825V442.22C108.464 442.22 105.26 438.127 106.506 434.034L112.38 435.458Z" stroke="#C07B0B" stroke-opacity="0.41" stroke-width="0.5533" stroke-miterlimit="10" stroke-linecap="round"/>
<path d="M99.7421 435.458C98.6741 439.373 101.7 443.644 101.7 443.644V535.647L108.286 535.825" stroke="#C07B0B" stroke-opacity="0.41" stroke-width="0.5533" stroke-miterlimit="10" stroke-linecap="round"/>
<path d="M112.38 435.458V534.757L108.464 535.825V442.22C108.464 442.22 105.26 438.127 106.506 434.034L112.38 435.458Z" stroke="#C07B0B" stroke-opacity="0.41" stroke-width="0.5533" stroke-miterlimit="10" stroke-linecap="round"/>
<path d="M99.7421 435.458C98.6741 439.373 101.7 443.644 101.7 443.644V535.647L108.286 535.825" stroke="#C07B0B" stroke-opacity="0.41" stroke-width="0.5533" stroke-miterlimit="10" stroke-linecap="round"/>
<path d="M65.2096 440.618V533.511L62.0056 534.579V447.203C62.0056 447.203 59.3355 443.644 60.4035 439.729L65.2096 440.618Z" stroke="#C07B0B" stroke-opacity="0.41" stroke-width="0.5024" stroke-miterlimit="10" stroke-linecap="round"/>
<path d="M54.8855 440.44C53.9955 444.355 56.4875 448.626 56.4875 448.626V534.401L62.0056 534.579" stroke="#C07B0B" stroke-opacity="0.41" stroke-width="0.5024" stroke-miterlimit="10" stroke-linecap="round"/>
<path d="M28.7192 444.534V532.266L25.6931 533.334V450.94C25.6931 450.94 23.2011 447.559 24.0911 443.822L28.7192 444.534Z" stroke="#C07B0B" stroke-opacity="0.41" stroke-width="0.2339" stroke-miterlimit="10"/>
<path d="M18.751 444.534C17.861 448.271 20.353 452.364 20.353 452.364V533.156L25.5151 533.334" stroke="#C07B0B" stroke-opacity="0.41" stroke-width="0.2339" stroke-miterlimit="10"/>
<path d="M167.561 529.062L20.353 527.105" stroke="#C07B0B" stroke-opacity="0.41" stroke-width="0.2339" stroke-miterlimit="10"/>
<path d="M494.018 457.88L240.72 436.348" stroke="#C07B0B" stroke-opacity="0.41" stroke-width="0.3742" stroke-miterlimit="10" stroke-linecap="round"/>
<path d="M591.919 466.244L536.916 461.617" stroke="#C07B0B" stroke-opacity="0.41" stroke-width="0.3742" stroke-miterlimit="10" stroke-linecap="round"/>
<path d="M494.018 460.016L240.72 439.195" stroke="#C07B0B" stroke-opacity="0.41" stroke-width="0.3742" stroke-miterlimit="10" stroke-linecap="round"/>
<path d="M591.919 468.202L536.916 463.575" stroke="#C07B0B" stroke-opacity="0.41" stroke-width="0.3742" stroke-miterlimit="10" stroke-linecap="round"/>
<path d="M240.898 537.782L591.919 525.503V457.702" stroke="#C07B0B" stroke-opacity="0.41" stroke-width="0.3742" stroke-miterlimit="10" stroke-linecap="round"/>
<path d="M319.753 431.899V535.647L324.025 536.714V439.195C324.025 439.195 327.407 434.746 326.161 430.653L319.753 431.899Z" stroke="#C07B0B" stroke-opacity="0.41" stroke-width="0.5866" stroke-miterlimit="10" stroke-linecap="round"/>
<path d="M335.595 430.653C336.841 434.746 333.459 440.44 333.459 440.44V536.358L324.025 536.892" stroke="#C07B0B" stroke-opacity="0.41" stroke-width="0.5866" stroke-miterlimit="10" stroke-linecap="round"/>
<path d="M392.022 438.839V532.799L395.938 533.867V445.601C395.938 445.601 398.964 441.864 397.896 438.127L392.022 438.839Z" stroke="#C07B0B" stroke-opacity="0.41" stroke-width="0.54" stroke-miterlimit="10" stroke-linecap="round"/>
<path d="M404.482 438.661C405.55 442.398 402.524 446.313 402.524 446.313V533.689L395.938 533.867" stroke="#C07B0B" stroke-opacity="0.41" stroke-width="0.54" stroke-miterlimit="10" stroke-linecap="round"/>
<path d="M444.533 443.644V531.02L447.737 532.088V450.05C447.737 450.05 450.407 447.381 449.339 443.466L444.533 443.644Z" stroke="#C07B0B" stroke-opacity="0.41" stroke-width="0.4913" stroke-miterlimit="10" stroke-linecap="round"/>
<path d="M454.857 443.466C455.747 447.203 453.255 450.406 453.255 450.406V531.732L447.737 531.91" stroke="#C07B0B" stroke-opacity="0.41" stroke-width="0.4913" stroke-miterlimit="10" stroke-linecap="round"/>
<path d="M536.916 523.368L591.919 522.122" stroke="#C07B0B" stroke-opacity="0.41" stroke-width="0.2339" stroke-miterlimit="10"/>
<path d="M240.72 529.774L494.018 524.258" stroke="#C07B0B" stroke-opacity="0.41" stroke-width="0.2339" stroke-miterlimit="10"/>
<path d="M10.7408 201.98L227.904 53.209L581.773 289.178V293.805L227.904 59.9713L10.7408 206.785V201.98Z" stroke="#C07B0B" stroke-opacity="0.41" stroke-width="0.7016" stroke-miterlimit="10" stroke-linecap="round" stroke-linejoin="round"/>
<path d="M10.7408 206.785H18.217L227.904 68.8691L575.365 293.805H581.773" stroke="#C07B0B" stroke-opacity="0.41" stroke-width="0.3742" stroke-miterlimit="10" stroke-linecap="round"/>
<path d="M227.904 68.8691V391.503" stroke="#C07B0B" stroke-opacity="0.41" stroke-width="0.7016" stroke-miterlimit="10" stroke-linecap="round"/>
<path d="M18.217 206.785V423.179" stroke="#C07B0B" stroke-opacity="0.41" stroke-width="0.3742" stroke-miterlimit="10" stroke-linecap="round"/>
<path d="M575.365 293.805V439.373" stroke="#C07B0B" stroke-opacity="0.41" stroke-width="0.3742" stroke-miterlimit="10" stroke-linecap="round"/>
<path d="M58.8016 174.397V417.129" stroke="#C07B0B" stroke-opacity="0.41" stroke-width="0.3742" stroke-miterlimit="10" stroke-linecap="round"/>
<path d="M64.1417 416.416V170.66L68.9477 173.507V415.705" stroke="#C07B0B" stroke-opacity="0.41" stroke-width="0.3742" stroke-miterlimit="10" stroke-linecap="round"/>
<path d="M10.7408 206.962V424.068" stroke="#C07B0B" stroke-opacity="0.41" stroke-width="0.7016" stroke-miterlimit="10" stroke-linecap="round"/>
<path d="M16.2589 423.357V203.403L20.887 205.005V422.289" stroke="#C07B0B" stroke-opacity="0.41" stroke-width="0.3742" stroke-miterlimit="10" stroke-linecap="round"/>
<path d="M102.412 144.678V410.722" stroke="#C07B0B" stroke-opacity="0.41" stroke-width="0.6766" stroke-miterlimit="10" stroke-linecap="round"/>
<path d="M109.532 409.654V140.051L115.584 142.721V408.764" stroke="#C07B0B" stroke-opacity="0.41" stroke-width="0.6766" stroke-miterlimit="10" stroke-linecap="round"/>
<path d="M156.169 108.375V402.002" stroke="#C07B0B" stroke-opacity="0.41" stroke-width="0.6766" stroke-miterlimit="10" stroke-linecap="round"/>
<path d="M163.111 401.646V103.749L169.163 107.486V400.757" stroke="#C07B0B" stroke-opacity="0.41" stroke-width="0.6766" stroke-miterlimit="10" stroke-linecap="round"/>
<path d="M454.501 209.454V422.645" stroke="#C07B0B" stroke-opacity="0.41" stroke-width="0.3742" stroke-miterlimit="10" stroke-linecap="round"/>
<path d="M448.983 421.933V205.895L444.355 209.098V421.399" stroke="#C07B0B" stroke-opacity="0.41" stroke-width="0.3742" stroke-miterlimit="10" stroke-linecap="round"/>
<path d="M502.384 240.952V429.229" stroke="#C07B0B" stroke-opacity="0.41" stroke-width="0.3742" stroke-miterlimit="10" stroke-linecap="round"/>
<path d="M497.044 428.517V237.749L492.238 239.884V427.806" stroke="#C07B0B" stroke-opacity="0.41" stroke-width="0.3742" stroke-miterlimit="10" stroke-linecap="round"/>
<path d="M536.916 263.553V434.034" stroke="#C07B0B" stroke-opacity="0.41" stroke-width="0.3742" stroke-miterlimit="10" stroke-linecap="round"/>
<path d="M531.576 433.323V260.35L526.948 262.485V432.611" stroke="#C07B0B" stroke-opacity="0.41" stroke-width="0.3742" stroke-miterlimit="10" stroke-linecap="round"/>
<path d="M581.773 293.271V440.44" stroke="#C07B0B" stroke-opacity="0.41" stroke-width="0.7016" stroke-miterlimit="10" stroke-linecap="round"/>
<path d="M576.433 439.551V290.068L571.805 292.203V439.195" stroke="#C07B0B" stroke-opacity="0.41" stroke-width="0.3742" stroke-miterlimit="10" stroke-linecap="round"/>
<path d="M400.566 174.041V415.171" stroke="#C07B0B" stroke-opacity="0.41" stroke-width="0.6766" stroke-miterlimit="10" stroke-linecap="round"/>
<path d="M393.624 414.281V169.414L387.394 172.083V413.391" stroke="#C07B0B" stroke-opacity="0.41" stroke-width="0.6766" stroke-miterlimit="10" stroke-linecap="round"/>
<path d="M332.925 129.374V405.917" stroke="#C07B0B" stroke-opacity="0.41" stroke-width="0.6766" stroke-miterlimit="10" stroke-linecap="round"/>
<path d="M325.805 404.849V124.747L319.753 128.484V404.137" stroke="#C07B0B" stroke-opacity="0.41" stroke-width="0.6766" stroke-miterlimit="10" stroke-linecap="round"/>
<path d="M562.015 454.855V526.749L565.041 527.817V461.795C565.041 461.795 567.533 459.126 566.643 455.389L562.015 454.855Z" stroke="#C07B0B" stroke-opacity="0.41" stroke-width="0.2339" stroke-miterlimit="10"/>
<path d="M571.805 455.567C572.873 459.66 570.203 461.973 570.203 461.973V527.461L565.041 527.639" stroke="#C07B0B" stroke-opacity="0.41" stroke-width="0.2339" stroke-miterlimit="10"/>
<path d="M56.4875 471.761L28.7191 473.184" stroke="#C07B0B" stroke-opacity="0.41" stroke-width="0.2339" stroke-miterlimit="10"/>
<path d="M56.4875 513.758L28.7191 513.046" stroke="#C07B0B" stroke-opacity="0.41" stroke-width="0.2339" stroke-miterlimit="10"/>
<path d="M56.4875 516.072H28.7191" stroke="#C07B0B" stroke-opacity="0.41" stroke-width="0.2339" stroke-miterlimit="10"/>
<path d="M31.9232 473.185V513.225" stroke="#C07B0B" stroke-opacity="0.41" stroke-width="0.2339" stroke-miterlimit="10"/>
<path d="M65.2097 513.403L101.878 513.225" stroke="#C07B0B" stroke-opacity="0.41" stroke-width="0.2339" stroke-miterlimit="10"/>
<path d="M65.2097 515.538H101.878" stroke="#C07B0B" stroke-opacity="0.41" stroke-width="0.2339" stroke-miterlimit="10"/>
<path d="M65.2097 471.049L101.878 469.625" stroke="#C07B0B" stroke-opacity="0.41" stroke-width="0.2339" stroke-miterlimit="10"/>
<path d="M69.3037 470.871L69.4817 513.402" stroke="#C07B0B" stroke-opacity="0.41" stroke-width="0.2339" stroke-miterlimit="10"/>
<path d="M112.38 469.269L154.389 468.202" stroke="#C07B0B" stroke-opacity="0.41" stroke-width="0.2339" stroke-miterlimit="10"/>
<path d="M112.38 512.691L153.321 512.513" stroke="#C07B0B" stroke-opacity="0.41" stroke-width="0.2339" stroke-miterlimit="10"/>
<path d="M112.38 515.004L153.855 514.826" stroke="#C07B0B" stroke-opacity="0.41" stroke-width="0.2339" stroke-miterlimit="10"/>
<path d="M116.474 469.091V512.157" stroke="#C07B0B" stroke-opacity="0.41" stroke-width="0.2339" stroke-miterlimit="10"/>
<path d="M167.561 466.956L216.512 466.244" stroke="#C07B0B" stroke-opacity="0.41" stroke-width="0.2339" stroke-miterlimit="10"/>
<path d="M189.811 466.6V537.071" stroke="#C07B0B" stroke-opacity="0.41" stroke-width="0.2339" stroke-miterlimit="10"/>
<path d="M171.121 470.337H186.429V517.851H172.011L171.121 470.337Z" stroke="#C07B0B" stroke-opacity="0.41" stroke-width="0.2339" stroke-miterlimit="10"/>
<path d="M192.659 470.337V517.851H213.13V469.803L192.659 470.337Z" stroke="#C07B0B" stroke-opacity="0.41" stroke-width="0.2339" stroke-miterlimit="10"/>
<path d="M319.753 520.521L240.72 522.122" stroke="#C07B0B" stroke-opacity="0.41" stroke-width="0.2339" stroke-miterlimit="10"/>
<path d="M240.898 517.851L319.753 516.605" stroke="#C07B0B" stroke-opacity="0.41" stroke-width="0.2339" stroke-miterlimit="10"/>
<path d="M240.898 464.999L319.753 466.244" stroke="#C07B0B" stroke-opacity="0.41" stroke-width="0.2339" stroke-miterlimit="10"/>
<path d="M316.371 465.532V516.605" stroke="#C07B0B" stroke-opacity="0.41" stroke-width="0.2339" stroke-miterlimit="10"/>
<path d="M333.459 466.244L391.488 468.202" stroke="#C07B0B" stroke-opacity="0.41" stroke-width="0.2339" stroke-miterlimit="10"/>
<path d="M333.459 516.072L392.022 515.716" stroke="#C07B0B" stroke-opacity="0.41" stroke-width="0.2339" stroke-miterlimit="10"/>
<path d="M333.459 519.275L392.022 518.919" stroke="#C07B0B" stroke-opacity="0.41" stroke-width="0.2339" stroke-miterlimit="10"/>
<path d="M388.284 468.202V515.716" stroke="#C07B0B" stroke-opacity="0.41" stroke-width="0.2339" stroke-miterlimit="10"/>
<path d="M402.524 515.716H444.533" stroke="#C07B0B" stroke-opacity="0.41" stroke-width="0.2339" stroke-miterlimit="10"/>
<path d="M402.524 519.275L444.533 518.919" stroke="#C07B0B" stroke-opacity="0.41" stroke-width="0.2339" stroke-miterlimit="10"/>
<path d="M402.524 468.202L444.533 469.269" stroke="#C07B0B" stroke-opacity="0.41" stroke-width="0.2339" stroke-miterlimit="10"/>
<path d="M441.863 469.27V515.716" stroke="#C07B0B" stroke-opacity="0.41" stroke-width="0.2339" stroke-miterlimit="10"/>
<path d="M494.018 448.271V528.884" stroke="#C07B0B" stroke-opacity="0.41" stroke-width="0.3742" stroke-miterlimit="10" stroke-linecap="round"/>
<path d="M536.916 452.008V527.461" stroke="#C07B0B" stroke-opacity="0.41" stroke-width="0.3742" stroke-miterlimit="10" stroke-linecap="round"/>
<path d="M501.494 528.707V456.812L530.686 459.126V527.461" stroke="#C07B0B" stroke-opacity="0.41" stroke-width="0.2339" stroke-miterlimit="10"/>
<path d="M453.255 515.716H494.018" stroke="#C07B0B" stroke-opacity="0.41" stroke-width="0.2339" stroke-miterlimit="10"/>
<path d="M453.255 518.919L494.018 518.385" stroke="#C07B0B" stroke-opacity="0.41" stroke-width="0.2339" stroke-miterlimit="10"/>
<path d="M453.255 469.27L494.018 471.227" stroke="#C07B0B" stroke-opacity="0.41" stroke-width="0.2339" stroke-miterlimit="10"/>
<path d="M491.17 471.049V515.716" stroke="#C07B0B" stroke-opacity="0.41" stroke-width="0.2339" stroke-miterlimit="10"/>
<path d="M536.916 473.362L562.015 474.43" stroke="#C07B0B" stroke-opacity="0.41" stroke-width="0.2339" stroke-miterlimit="10"/>
<path d="M536.916 514.292H562.015" stroke="#C07B0B" stroke-opacity="0.41" stroke-width="0.2339" stroke-miterlimit="10"/>
<path d="M536.916 516.428L562.015 516.072" stroke="#C07B0B" stroke-opacity="0.41" stroke-width="0.2339" stroke-miterlimit="10"/>
<path d="M559.345 474.43V513.936" stroke="#C07B0B" stroke-opacity="0.41" stroke-width="0.2339" stroke-miterlimit="10"/>
<path d="M48.8334 213.191V248.248" stroke="#C07B0B" stroke-opacity="0.41" stroke-width="0.3742" stroke-miterlimit="10" stroke-linecap="round"/>
<path d="M48.8334 263.909V298.966" stroke="#C07B0B" stroke-opacity="0.41" stroke-width="0.3742" stroke-miterlimit="10" stroke-linecap="round"/>
<path d="M48.8334 319.075V354.132" stroke="#C07B0B" stroke-opacity="0.41" stroke-width="0.3742" stroke-miterlimit="10" stroke-linecap="round"/>
<path d="M48.8334 370.148V405.205" stroke="#C07B0B" stroke-opacity="0.41" stroke-width="0.3742" stroke-miterlimit="10" stroke-linecap="round"/>
<path d="M526.948 527.817V458.77" stroke="#C07B0B" stroke-opacity="0.41" stroke-width="0.2339" stroke-miterlimit="10"/>
<path d="M247.306 446.313L246.594 460.016L312.455 461.261V449.16L247.306 446.313Z" stroke="#C07B0B" stroke-opacity="0.41" stroke-width="0.2339" stroke-miterlimit="10"/>
<path d="M210.816 446.313V460.016C210.816 460.016 172.723 461.617 173.257 461.083C173.791 460.549 172.901 450.05 173.257 449.516C173.613 449.16 210.816 446.313 210.816 446.313Z" stroke="#C07B0B" stroke-opacity="0.41" stroke-width="0.2339" stroke-miterlimit="10"/>
<path d="M148.337 463.753L117.542 465.532V452.541L148.337 448.271V463.753Z" stroke="#C07B0B" stroke-opacity="0.41" stroke-width="0.2339" stroke-miterlimit="10"/>
<path d="M96.7161 465.532L69.3037 466.6L68.9477 455.389L96.7161 453.787V465.532Z" stroke="#C07B0B" stroke-opacity="0.41" stroke-width="0.2339" stroke-miterlimit="10"/>
<path d="M52.5715 469.091L31.9232 469.803L31.3892 459.126L52.5715 456.99V469.091Z" stroke="#C07B0B" stroke-opacity="0.41" stroke-width="0.2339" stroke-miterlimit="10"/>
<path d="M337.198 461.261L387.394 463.575V455.389L337.198 451.296V461.261Z" stroke="#C07B0B" stroke-opacity="0.41" stroke-width="0.2339" stroke-miterlimit="10"/>
<path d="M407.865 463.931L440.439 465.532V458.77L407.865 456.812V463.931Z" stroke="#C07B0B" stroke-opacity="0.41" stroke-width="0.2339" stroke-miterlimit="10"/>
<path d="M456.815 466.244L489.568 468.202V462.507L456.815 460.016V466.244Z" stroke="#C07B0B" stroke-opacity="0.41" stroke-width="0.2339" stroke-miterlimit="10"/>
<path d="M539.764 471.049L558.633 472.294V468.202L539.764 467.134V471.049Z" stroke="#C07B0B" stroke-opacity="0.41" stroke-width="0.2339" stroke-miterlimit="10"/>
<path d="M469.809 214.437V197.175L455.925 184.006V205.183" stroke="#C07B0B" stroke-opacity="0.41" stroke-width="0.3742" stroke-miterlimit="10" stroke-linecap="round"/>
<path d="M455.925 184.006L441.863 195.04" stroke="#C07B0B" stroke-opacity="0.41" stroke-width="0.3742" stroke-miterlimit="10" stroke-linecap="round"/>
<path d="M58.8015 206.962L46.1633 214.614V249.494L58.8015 243.621" stroke="#C07B0B" stroke-opacity="0.41" stroke-width="0.2339" stroke-miterlimit="10" stroke-linecap="round"/>
<path d="M38.3312 253.231V218.53L24.447 225.826V259.46L38.3312 253.231Z" stroke="#C07B0B" stroke-opacity="0.41" stroke-width="0.2339" stroke-miterlimit="10" stroke-linecap="round"/>
<path d="M26.9391 224.58V258.392" stroke="#C07B0B" stroke-opacity="0.41" stroke-width="0.2339" stroke-miterlimit="10" stroke-linecap="round"/>
<path d="M102.412 181.337L89.774 189.345V227.249L102.412 220.843" stroke="#C07B0B" stroke-opacity="0.41" stroke-width="0.2339" stroke-miterlimit="10" stroke-linecap="round"/>
<path d="M86.7479 190.946V228.673L73.5757 234.545V198.954L86.7479 190.946Z" stroke="#C07B0B" stroke-opacity="0.41" stroke-width="0.2339" stroke-miterlimit="10" stroke-linecap="round"/>
<path d="M75.7118 197.709V233.656" stroke="#C07B0B" stroke-opacity="0.41" stroke-width="0.2339" stroke-miterlimit="10" stroke-linecap="round"/>
<path d="M92.266 187.743V226.004" stroke="#C07B0B" stroke-opacity="0.41" stroke-width="0.2339" stroke-miterlimit="10" stroke-linecap="round"/>
<path d="M133.919 162.829L117.542 172.973V212.657L134.631 203.403L133.919 162.829Z" stroke="#C07B0B" stroke-opacity="0.41" stroke-width="0.2339" stroke-miterlimit="10" stroke-linecap="round"/>
<path d="M156.169 192.548L138.013 201.624V160.16L156.169 148.949" stroke="#C07B0B" stroke-opacity="0.41" stroke-width="0.2339" stroke-miterlimit="10" stroke-linecap="round"/>
<path d="M119.5 171.727V211.411" stroke="#C07B0B" stroke-opacity="0.41" stroke-width="0.2339" stroke-miterlimit="10" stroke-linecap="round"/>
<path d="M140.327 158.736V200.378" stroke="#C07B0B" stroke-opacity="0.41" stroke-width="0.2339" stroke-miterlimit="10" stroke-linecap="round"/>
<path d="M173.257 138.627V183.472L189.811 174.396V128.128L173.257 138.627Z" stroke="#C07B0B" stroke-opacity="0.41" stroke-width="0.2339" stroke-miterlimit="10" stroke-linecap="round"/>
<path d="M215.088 159.982L194.973 171.371V124.569L215.088 110.866V159.982Z" stroke="#C07B0B" stroke-opacity="0.41" stroke-width="0.2339" stroke-miterlimit="10" stroke-linecap="round"/>
<path d="M175.393 137.382V182.583" stroke="#C07B0B" stroke-opacity="0.41" stroke-width="0.2339" stroke-miterlimit="10" stroke-linecap="round"/>
<path d="M196.753 123.323V170.304" stroke="#C07B0B" stroke-opacity="0.41" stroke-width="0.2339" stroke-miterlimit="10" stroke-linecap="round"/>
<path d="M58.8015 259.104L46.1633 265.154V300.033L58.8015 295.584" stroke="#C07B0B" stroke-opacity="0.41" stroke-width="0.2339" stroke-miterlimit="10" stroke-linecap="round"/>
<path d="M38.3312 302.703V268.179L24.447 273.696V307.329L38.3312 302.703Z" stroke="#C07B0B" stroke-opacity="0.41" stroke-width="0.2339" stroke-miterlimit="10" stroke-linecap="round"/>
<path d="M26.9391 272.806V306.618" stroke="#C07B0B" stroke-opacity="0.41" stroke-width="0.2339" stroke-miterlimit="10" stroke-linecap="round"/>
<path d="M102.412 238.46L89.774 245.045V282.949L102.412 277.967" stroke="#C07B0B" stroke-opacity="0.41" stroke-width="0.2339" stroke-miterlimit="10" stroke-linecap="round"/>
<path d="M86.7479 246.291V284.017L73.5757 288.288V252.875L86.7479 246.291Z" stroke="#C07B0B" stroke-opacity="0.41" stroke-width="0.2339" stroke-miterlimit="10" stroke-linecap="round"/>
<path d="M75.7118 251.807V287.576" stroke="#C07B0B" stroke-opacity="0.41" stroke-width="0.2339" stroke-miterlimit="10" stroke-linecap="round"/>
<path d="M92.266 243.799V282.06" stroke="#C07B0B" stroke-opacity="0.41" stroke-width="0.2339" stroke-miterlimit="10" stroke-linecap="round"/>
<path d="M133.919 223.869L117.542 231.877V271.739L134.631 264.443L133.919 223.869Z" stroke="#C07B0B" stroke-opacity="0.41" stroke-width="0.2339" stroke-miterlimit="10" stroke-linecap="round"/>
<path d="M156.169 256.078L138.013 263.197V221.733L156.169 212.657" stroke="#C07B0B" stroke-opacity="0.41" stroke-width="0.2339" stroke-miterlimit="10" stroke-linecap="round"/>
<path d="M119.5 230.987V270.671" stroke="#C07B0B" stroke-opacity="0.41" stroke-width="0.2339" stroke-miterlimit="10" stroke-linecap="round"/>
<path d="M140.327 220.665V262.129" stroke="#C07B0B" stroke-opacity="0.41" stroke-width="0.2339" stroke-miterlimit="10" stroke-linecap="round"/>
<path d="M173.257 204.293V249.138L189.811 242.02V195.751L173.257 204.293Z" stroke="#C07B0B" stroke-opacity="0.41" stroke-width="0.2339" stroke-miterlimit="10" stroke-linecap="round"/>
<path d="M215.088 230.631L194.973 239.706V192.904L215.088 181.693V230.631Z" stroke="#C07B0B" stroke-opacity="0.41" stroke-width="0.2339" stroke-miterlimit="10" stroke-linecap="round"/>
<path d="M175.393 203.226V248.604" stroke="#C07B0B" stroke-opacity="0.41" stroke-width="0.2339" stroke-miterlimit="10" stroke-linecap="round"/>
<path d="M196.753 191.836V238.639" stroke="#C07B0B" stroke-opacity="0.41" stroke-width="0.2339" stroke-miterlimit="10" stroke-linecap="round"/>
<path d="M58.8015 315.693L46.1633 319.964V354.844L58.8015 352.352" stroke="#C07B0B" stroke-opacity="0.41" stroke-width="0.2339" stroke-miterlimit="10" stroke-linecap="round"/>
<path d="M38.3312 356.267V321.566L24.447 325.125V358.759L38.3312 356.267Z" stroke="#C07B0B" stroke-opacity="0.41" stroke-width="0.2339" stroke-miterlimit="10" stroke-linecap="round"/>
<path d="M26.9391 324.413V358.403" stroke="#C07B0B" stroke-opacity="0.41" stroke-width="0.2339" stroke-miterlimit="10" stroke-linecap="round"/>
<path d="M102.412 301.991L89.774 306.618V344.522L102.412 341.497" stroke="#C07B0B" stroke-opacity="0.41" stroke-width="0.2339" stroke-miterlimit="10" stroke-linecap="round"/>
<path d="M86.7479 307.33V345.056L73.5757 347.37V311.778L86.7479 307.33Z" stroke="#C07B0B" stroke-opacity="0.41" stroke-width="0.2339" stroke-miterlimit="10" stroke-linecap="round"/>
<path d="M75.7118 311.066V347.013" stroke="#C07B0B" stroke-opacity="0.41" stroke-width="0.2339" stroke-miterlimit="10" stroke-linecap="round"/>
<path d="M92.266 305.728V343.988" stroke="#C07B0B" stroke-opacity="0.41" stroke-width="0.2339" stroke-miterlimit="10" stroke-linecap="round"/>
<path d="M133.919 292.203L117.542 297.898V337.582L134.631 332.955L133.919 292.203Z" stroke="#C07B0B" stroke-opacity="0.41" stroke-width="0.2339" stroke-miterlimit="10" stroke-linecap="round"/>
<path d="M156.169 328.15L138.013 332.243V290.78L156.169 284.551" stroke="#C07B0B" stroke-opacity="0.41" stroke-width="0.2339" stroke-miterlimit="10" stroke-linecap="round"/>
<path d="M119.5 297.186V336.87" stroke="#C07B0B" stroke-opacity="0.41" stroke-width="0.2339" stroke-miterlimit="10" stroke-linecap="round"/>
<path d="M140.327 290.068V331.532" stroke="#C07B0B" stroke-opacity="0.41" stroke-width="0.2339" stroke-miterlimit="10" stroke-linecap="round"/>
<path d="M173.257 279.034V323.701L189.811 319.252V272.984L173.257 279.034Z" stroke="#C07B0B" stroke-opacity="0.41" stroke-width="0.2339" stroke-miterlimit="10" stroke-linecap="round"/>
<path d="M215.088 311.778L194.973 317.651V270.848L215.088 262.84V311.778Z" stroke="#C07B0B" stroke-opacity="0.41" stroke-width="0.2339" stroke-miterlimit="10" stroke-linecap="round"/>
<path d="M175.393 278.145V323.523" stroke="#C07B0B" stroke-opacity="0.41" stroke-width="0.2339" stroke-miterlimit="10" stroke-linecap="round"/>
<path d="M196.753 270.137V316.939" stroke="#C07B0B" stroke-opacity="0.41" stroke-width="0.2339" stroke-miterlimit="10" stroke-linecap="round"/>
<path d="M58.8015 366.944L46.1633 371.037V405.917L58.8015 403.603" stroke="#C07B0B" stroke-opacity="0.41" stroke-width="0.2339" stroke-miterlimit="10" stroke-linecap="round"/>
<path d="M38.3312 407.163V372.461L24.447 375.665V409.298L38.3312 407.163Z" stroke="#C07B0B" stroke-opacity="0.41" stroke-width="0.2339" stroke-miterlimit="10" stroke-linecap="round"/>
<path d="M26.9391 375.13V409.12" stroke="#C07B0B" stroke-opacity="0.41" stroke-width="0.2339" stroke-miterlimit="10" stroke-linecap="round"/>
<path d="M102.412 358.403L89.774 362.318V400.222L102.412 397.909" stroke="#C07B0B" stroke-opacity="0.41" stroke-width="0.2339" stroke-miterlimit="10" stroke-linecap="round"/>
<path d="M86.7479 363.03V400.756L73.5757 402.358V366.767L86.7479 363.03Z" stroke="#C07B0B" stroke-opacity="0.41" stroke-width="0.2339" stroke-miterlimit="10" stroke-linecap="round"/>
<path d="M75.7118 366.233V402.002" stroke="#C07B0B" stroke-opacity="0.41" stroke-width="0.2339" stroke-miterlimit="10" stroke-linecap="round"/>
<path d="M92.266 361.606V399.866" stroke="#C07B0B" stroke-opacity="0.41" stroke-width="0.2339" stroke-miterlimit="10" stroke-linecap="round"/>
<path d="M133.919 352.53L117.542 356.445V396.307L134.631 393.46L133.919 352.53Z" stroke="#C07B0B" stroke-opacity="0.41" stroke-width="0.2339" stroke-miterlimit="10" stroke-linecap="round"/>
<path d="M156.169 390.613L138.013 392.926V351.462L156.169 347.191" stroke="#C07B0B" stroke-opacity="0.41" stroke-width="0.2339" stroke-miterlimit="10" stroke-linecap="round"/>
<path d="M119.5 356.089V395.773" stroke="#C07B0B" stroke-opacity="0.41" stroke-width="0.2339" stroke-miterlimit="10" stroke-linecap="round"/>
<path d="M140.327 350.928V392.57" stroke="#C07B0B" stroke-opacity="0.41" stroke-width="0.2339" stroke-miterlimit="10" stroke-linecap="round"/>
<path d="M173.257 343.276V387.943L189.811 385.274V339.005L173.257 343.276Z" stroke="#C07B0B" stroke-opacity="0.41" stroke-width="0.2339" stroke-miterlimit="10" stroke-linecap="round"/>
<path d="M215.088 380.291L194.973 384.206V337.404L215.088 331.354V380.291Z" stroke="#C07B0B" stroke-opacity="0.41" stroke-width="0.2339" stroke-miterlimit="10" stroke-linecap="round"/>
<path d="M175.393 342.743V387.943" stroke="#C07B0B" stroke-opacity="0.41" stroke-width="0.2339" stroke-miterlimit="10" stroke-linecap="round"/>
<path d="M196.753 336.87V383.672" stroke="#C07B0B" stroke-opacity="0.41" stroke-width="0.2339" stroke-miterlimit="10" stroke-linecap="round"/>
<path d="M361.228 175.642L382.766 189.701L383.122 227.605L360.516 214.436L361.228 175.642Z" stroke="#C07B0B" stroke-opacity="0.41" stroke-width="0.2339" stroke-miterlimit="10" stroke-linecap="round"/>
<path d="M332.391 198.42L356.066 212.123L355.71 171.727L332.925 156.067" stroke="#C07B0B" stroke-opacity="0.41" stroke-width="0.2339" stroke-miterlimit="10" stroke-linecap="round"/>
<path d="M380.096 188.099L380.452 225.826" stroke="#C07B0B" stroke-opacity="0.41" stroke-width="0.2339" stroke-miterlimit="10" stroke-linecap="round"/>
<path d="M352.684 169.77L353.04 210.165" stroke="#C07B0B" stroke-opacity="0.41" stroke-width="0.2339" stroke-miterlimit="10" stroke-linecap="round"/>
<path d="M361.762 234.545L383.3 245.757L383.656 283.483L360.872 273.696L361.762 234.545Z" stroke="#C07B0B" stroke-opacity="0.41" stroke-width="0.2339" stroke-miterlimit="10" stroke-linecap="round"/>
<path d="M332.747 261.595L356.6 271.738L356.244 231.52L332.391 218.352" stroke="#C07B0B" stroke-opacity="0.41" stroke-width="0.2339" stroke-miterlimit="10" stroke-linecap="round"/>
<path d="M380.63 244.333L380.986 282.238" stroke="#C07B0B" stroke-opacity="0.41" stroke-width="0.2339" stroke-miterlimit="10" stroke-linecap="round"/>
<path d="M353.218 229.918L353.574 270.492" stroke="#C07B0B" stroke-opacity="0.41" stroke-width="0.2339" stroke-miterlimit="10" stroke-linecap="round"/>
<path d="M362.296 300.745L383.834 308.219L384.012 346.124L361.406 340.073L362.296 300.745Z" stroke="#C07B0B" stroke-opacity="0.41" stroke-width="0.2339" stroke-miterlimit="10" stroke-linecap="round"/>
<path d="M333.459 332.955L357.134 339.005L356.778 298.787L333.103 289.89" stroke="#C07B0B" stroke-opacity="0.41" stroke-width="0.2339" stroke-miterlimit="10" stroke-linecap="round"/>
<path d="M381.164 307.329L381.52 345.056" stroke="#C07B0B" stroke-opacity="0.41" stroke-width="0.2339" stroke-miterlimit="10" stroke-linecap="round"/>
<path d="M353.752 297.72L354.108 338.116" stroke="#C07B0B" stroke-opacity="0.41" stroke-width="0.2339" stroke-miterlimit="10" stroke-linecap="round"/>
<path d="M454.501 232.232L466.783 240.418V271.56L454.501 264.976" stroke="#C07B0B" stroke-opacity="0.41" stroke-width="0.2339" stroke-miterlimit="10" stroke-linecap="round"/>
<path d="M474.437 275.653V244.689L488.144 252.697V282.594L474.437 275.653Z" stroke="#C07B0B" stroke-opacity="0.41" stroke-width="0.2339" stroke-miterlimit="10" stroke-linecap="round"/>
<path d="M485.652 251.273V281.347" stroke="#C07B0B" stroke-opacity="0.41" stroke-width="0.2339" stroke-miterlimit="10" stroke-linecap="round"/>
<path d="M464.291 238.816V270.137" stroke="#C07B0B" stroke-opacity="0.41" stroke-width="0.2339" stroke-miterlimit="10" stroke-linecap="round"/>
<path d="M454.501 278.856L466.783 285.619V316.761L454.501 311.778" stroke="#C07B0B" stroke-opacity="0.41" stroke-width="0.2339" stroke-miterlimit="10" stroke-linecap="round"/>
<path d="M474.437 319.964V289L488.144 295.228V325.125L474.437 319.964Z" stroke="#C07B0B" stroke-opacity="0.41" stroke-width="0.2339" stroke-miterlimit="10" stroke-linecap="round"/>
<path d="M485.652 294.161V324.235" stroke="#C07B0B" stroke-opacity="0.41" stroke-width="0.2339" stroke-miterlimit="10" stroke-linecap="round"/>
<path d="M464.291 284.195V315.693" stroke="#C07B0B" stroke-opacity="0.41" stroke-width="0.2339" stroke-miterlimit="10" stroke-linecap="round"/>
<path d="M454.501 329.93L466.783 334.557V365.877L454.501 362.674" stroke="#C07B0B" stroke-opacity="0.41" stroke-width="0.2339" stroke-miterlimit="10" stroke-linecap="round"/>
<path d="M474.437 367.656V336.692L488.144 340.785V370.681L474.437 367.656Z" stroke="#C07B0B" stroke-opacity="0.41" stroke-width="0.2339" stroke-miterlimit="10" stroke-linecap="round"/>
<path d="M485.652 340.073V370.326" stroke="#C07B0B" stroke-opacity="0.41" stroke-width="0.2339" stroke-miterlimit="10" stroke-linecap="round"/>
<path d="M464.291 333.667V365.165" stroke="#C07B0B" stroke-opacity="0.41" stroke-width="0.2339" stroke-miterlimit="10" stroke-linecap="round"/>
<path d="M454.501 376.02L466.783 380.291V411.611L454.501 408.764" stroke="#C07B0B" stroke-opacity="0.41" stroke-width="0.2339" stroke-miterlimit="10" stroke-linecap="round"/>
<path d="M474.437 413.035V382.249L488.144 385.808V415.704L474.437 413.035Z" stroke="#C07B0B" stroke-opacity="0.41" stroke-width="0.2339" stroke-miterlimit="10" stroke-linecap="round"/>
<path d="M485.652 385.096V415.348" stroke="#C07B0B" stroke-opacity="0.41" stroke-width="0.2339" stroke-miterlimit="10" stroke-linecap="round"/>
<path d="M464.291 379.401V410.9" stroke="#C07B0B" stroke-opacity="0.41" stroke-width="0.2339" stroke-miterlimit="10" stroke-linecap="round"/>
<path d="M502.384 263.196L510.394 268.535V296.118L502.384 292.025" stroke="#C07B0B" stroke-opacity="0.41" stroke-width="0.2339" stroke-miterlimit="10" stroke-linecap="round"/>
<path d="M515.378 298.787V271.204L524.456 276.543V303.414L515.378 298.787Z" stroke="#C07B0B" stroke-opacity="0.41" stroke-width="0.2339" stroke-miterlimit="10" stroke-linecap="round"/>
<path d="M522.854 275.475V302.702" stroke="#C07B0B" stroke-opacity="0.41" stroke-width="0.2339" stroke-miterlimit="10" stroke-linecap="round"/>
<path d="M508.792 267.289V295.228" stroke="#C07B0B" stroke-opacity="0.41" stroke-width="0.2339" stroke-miterlimit="10" stroke-linecap="round"/>
<path d="M502.384 304.304L510.394 308.575V336.336L502.384 333.311" stroke="#C07B0B" stroke-opacity="0.41" stroke-width="0.2339" stroke-miterlimit="10" stroke-linecap="round"/>
<path d="M515.378 338.294V310.71L524.456 314.803V341.675L515.378 338.294Z" stroke="#C07B0B" stroke-opacity="0.41" stroke-width="0.2339" stroke-miterlimit="10" stroke-linecap="round"/>
<path d="M522.854 314.092V341.141" stroke="#C07B0B" stroke-opacity="0.41" stroke-width="0.2339" stroke-miterlimit="10" stroke-linecap="round"/>
<path d="M508.792 307.686V335.625" stroke="#C07B0B" stroke-opacity="0.41" stroke-width="0.2339" stroke-miterlimit="10" stroke-linecap="round"/>
<path d="M502.384 349.149L510.394 352.174V379.935L502.384 378.156" stroke="#C07B0B" stroke-opacity="0.41" stroke-width="0.2339" stroke-miterlimit="10" stroke-linecap="round"/>
<path d="M515.378 380.825V353.242L524.456 355.733V382.782L515.378 380.825Z" stroke="#C07B0B" stroke-opacity="0.41" stroke-width="0.2339" stroke-miterlimit="10" stroke-linecap="round"/>
<path d="M522.854 355.377V382.427" stroke="#C07B0B" stroke-opacity="0.41" stroke-width="0.2339" stroke-miterlimit="10" stroke-linecap="round"/>
<path d="M508.792 351.462V379.401" stroke="#C07B0B" stroke-opacity="0.41" stroke-width="0.2339" stroke-miterlimit="10" stroke-linecap="round"/>
<path d="M502.384 389.723L510.394 392.748V420.509L502.384 418.729" stroke="#C07B0B" stroke-opacity="0.41" stroke-width="0.2339" stroke-miterlimit="10" stroke-linecap="round"/>
<path d="M515.378 421.399V393.815L524.456 396.307V423.178L515.378 421.399Z" stroke="#C07B0B" stroke-opacity="0.41" stroke-width="0.2339" stroke-miterlimit="10" stroke-linecap="round"/>
<path d="M522.854 395.773V423" stroke="#C07B0B" stroke-opacity="0.41" stroke-width="0.2339" stroke-miterlimit="10" stroke-linecap="round"/>
<path d="M508.792 392.036V419.975" stroke="#C07B0B" stroke-opacity="0.41" stroke-width="0.2339" stroke-miterlimit="10" stroke-linecap="round"/>
<path d="M537.094 279.746L548.664 288.11V313.558L537.094 306.795" stroke="#C07B0B" stroke-opacity="0.41" stroke-width="0.2339" stroke-miterlimit="10" stroke-linecap="round"/>
<path d="M555.785 317.651V292.559L568.601 300.567V324.591L555.785 317.651Z" stroke="#C07B0B" stroke-opacity="0.41" stroke-width="0.2339" stroke-miterlimit="10" stroke-linecap="round"/>
<path d="M566.287 299.143V323.345" stroke="#C07B0B" stroke-opacity="0.41" stroke-width="0.2339" stroke-miterlimit="10" stroke-linecap="round"/>
<path d="M546.172 286.331V312.134" stroke="#C07B0B" stroke-opacity="0.41" stroke-width="0.2339" stroke-miterlimit="10" stroke-linecap="round"/>
<path d="M537.094 318.185L548.664 324.947V350.395L537.094 345.234" stroke="#C07B0B" stroke-opacity="0.41" stroke-width="0.2339" stroke-miterlimit="10" stroke-linecap="round"/>
<path d="M555.785 353.42V328.328L568.601 334.557V358.581L555.785 353.42Z" stroke="#C07B0B" stroke-opacity="0.41" stroke-width="0.2339" stroke-miterlimit="10" stroke-linecap="round"/>
<path d="M566.287 333.489V357.691" stroke="#C07B0B" stroke-opacity="0.41" stroke-width="0.2339" stroke-miterlimit="10" stroke-linecap="round"/>
<path d="M546.172 323.523V349.327" stroke="#C07B0B" stroke-opacity="0.41" stroke-width="0.2339" stroke-miterlimit="10" stroke-linecap="round"/>
<path d="M537.094 360.182L548.664 364.809V390.257L537.094 387.231" stroke="#C07B0B" stroke-opacity="0.41" stroke-width="0.2339" stroke-miterlimit="10" stroke-linecap="round"/>
<path d="M555.785 392.036V366.944L568.601 371.037V395.061L555.785 392.036Z" stroke="#C07B0B" stroke-opacity="0.41" stroke-width="0.2339" stroke-miterlimit="10" stroke-linecap="round"/>
<path d="M566.287 370.326V394.528" stroke="#C07B0B" stroke-opacity="0.41" stroke-width="0.2339" stroke-miterlimit="10" stroke-linecap="round"/>
<path d="M546.172 363.919V389.545" stroke="#C07B0B" stroke-opacity="0.41" stroke-width="0.2339" stroke-miterlimit="10" stroke-linecap="round"/>
<path d="M537.094 398.086L548.664 402.001V427.449L537.094 425.314" stroke="#C07B0B" stroke-opacity="0.41" stroke-width="0.2339" stroke-miterlimit="10" stroke-linecap="round"/>
<path d="M555.785 428.873V403.781L568.601 406.984V430.83L555.785 428.873Z" stroke="#C07B0B" stroke-opacity="0.41" stroke-width="0.2339" stroke-miterlimit="10" stroke-linecap="round"/>
<path d="M566.287 406.45V430.652" stroke="#C07B0B" stroke-opacity="0.41" stroke-width="0.2339" stroke-miterlimit="10" stroke-linecap="round"/>
<path d="M546.172 401.29V426.915" stroke="#C07B0B" stroke-opacity="0.41" stroke-width="0.2339" stroke-miterlimit="10" stroke-linecap="round"/>
<path d="M400.032 203.403L418.367 214.97L418.545 249.316L400.21 239.706" stroke="#C07B0B" stroke-opacity="0.41" stroke-width="0.2339" stroke-miterlimit="10" stroke-linecap="round"/>
<path d="M422.817 217.284V251.451L441.863 260.349V228.673L422.817 217.284Z" stroke="#C07B0B" stroke-opacity="0.41" stroke-width="0.2339" stroke-miterlimit="10" stroke-linecap="round"/>
<path d="M438.837 226.894L439.015 258.926" stroke="#C07B0B" stroke-opacity="0.41" stroke-width="0.2339" stroke-miterlimit="10" stroke-linecap="round"/>
<path d="M414.985 212.657L415.163 247.537" stroke="#C07B0B" stroke-opacity="0.41" stroke-width="0.2339" stroke-miterlimit="10" stroke-linecap="round"/>
<path d="M400.21 256.078L418.545 265.51L418.723 299.855L400.388 292.381" stroke="#C07B0B" stroke-opacity="0.41" stroke-width="0.2339" stroke-miterlimit="10" stroke-linecap="round"/>
<path d="M422.995 267.29V301.457L442.041 308.041V276.543L422.995 267.29Z" stroke="#C07B0B" stroke-opacity="0.41" stroke-width="0.2339" stroke-miterlimit="10" stroke-linecap="round"/>
<path d="M439.015 275.12V306.974" stroke="#C07B0B" stroke-opacity="0.41" stroke-width="0.2339" stroke-miterlimit="10" stroke-linecap="round"/>
<path d="M415.163 263.73L415.341 298.432" stroke="#C07B0B" stroke-opacity="0.41" stroke-width="0.2339" stroke-miterlimit="10" stroke-linecap="round"/>
<path d="M400.566 314.448L418.901 321.21V355.556L400.566 350.751" stroke="#C07B0B" stroke-opacity="0.41" stroke-width="0.2339" stroke-miterlimit="10" stroke-linecap="round"/>
<path d="M423.173 322.456V356.623L442.219 360.538V329.04L423.173 322.456Z" stroke="#C07B0B" stroke-opacity="0.41" stroke-width="0.2339" stroke-miterlimit="10" stroke-linecap="round"/>
<path d="M439.193 327.972L439.371 360.004" stroke="#C07B0B" stroke-opacity="0.41" stroke-width="0.2339" stroke-miterlimit="10" stroke-linecap="round"/>
<path d="M415.341 319.964L415.519 354.666" stroke="#C07B0B" stroke-opacity="0.41" stroke-width="0.2339" stroke-miterlimit="10" stroke-linecap="round"/>
<path d="M400.744 366.411L419.079 371.749V406.095L400.744 402.714" stroke="#C07B0B" stroke-opacity="0.41" stroke-width="0.2339" stroke-miterlimit="10" stroke-linecap="round"/>
<path d="M423.351 372.639V406.807L442.397 409.298V377.8L423.351 372.639Z" stroke="#C07B0B" stroke-opacity="0.41" stroke-width="0.2339" stroke-miterlimit="10" stroke-linecap="round"/>
<path d="M439.371 377.088L439.549 408.942" stroke="#C07B0B" stroke-opacity="0.41" stroke-width="0.2339" stroke-miterlimit="10" stroke-linecap="round"/>
<path d="M415.519 370.682L415.697 405.561" stroke="#C07B0B" stroke-opacity="0.41" stroke-width="0.2339" stroke-miterlimit="10" stroke-linecap="round"/>
<path d="M362.83 359.114L384.19 363.919L384.546 401.646L361.94 398.62L362.83 359.114Z" stroke="#C07B0B" stroke-opacity="0.41" stroke-width="0.2339" stroke-miterlimit="10" stroke-linecap="round"/>
<path d="M333.993 395.239L357.668 398.087L357.312 357.691L333.637 351.996" stroke="#C07B0B" stroke-opacity="0.41" stroke-width="0.2339" stroke-miterlimit="10" stroke-linecap="round"/>
<path d="M381.698 363.385L381.876 401.112" stroke="#C07B0B" stroke-opacity="0.41" stroke-width="0.2339" stroke-miterlimit="10" stroke-linecap="round"/>
<path d="M354.286 356.979L354.642 397.553" stroke="#C07B0B" stroke-opacity="0.41" stroke-width="0.2339" stroke-miterlimit="10" stroke-linecap="round"/>
<path d="M315.303 151.796L315.481 195.039L288.425 180.981L288.247 135.424L315.303 151.796Z" stroke="#C07B0B" stroke-opacity="0.41" stroke-width="0.2339" stroke-miterlimit="10" stroke-linecap="round"/>
<path d="M246.95 158.025L280.059 176.354V130.086L246.95 108.375V158.025Z" stroke="#C07B0B" stroke-opacity="0.41" stroke-width="0.2339" stroke-miterlimit="10" stroke-linecap="round"/>
<path d="M312.099 149.839L312.277 193.616" stroke="#C07B0B" stroke-opacity="0.41" stroke-width="0.2339" stroke-miterlimit="10" stroke-linecap="round"/>
<path d="M277.033 128.306L277.211 174.575" stroke="#C07B0B" stroke-opacity="0.41" stroke-width="0.2339" stroke-miterlimit="10" stroke-linecap="round"/>
<path d="M315.481 215.148L315.659 258.391L288.603 247.536L288.425 201.979L315.481 215.148Z" stroke="#C07B0B" stroke-opacity="0.41" stroke-width="0.2339" stroke-miterlimit="10" stroke-linecap="round"/>
<path d="M247.128 229.563L280.237 243.977L280.059 197.709L246.95 179.913L247.128 229.563Z" stroke="#C07B0B" stroke-opacity="0.41" stroke-width="0.2339" stroke-miterlimit="10" stroke-linecap="round"/>
<path d="M312.277 213.547V257.324" stroke="#C07B0B" stroke-opacity="0.41" stroke-width="0.2339" stroke-miterlimit="10" stroke-linecap="round"/>
<path d="M277.211 196.107L277.389 242.553" stroke="#C07B0B" stroke-opacity="0.41" stroke-width="0.2339" stroke-miterlimit="10" stroke-linecap="round"/>
<path d="M315.659 287.22L315.837 330.286L288.781 323.523L288.603 277.967L315.659 287.22Z" stroke="#C07B0B" stroke-opacity="0.41" stroke-width="0.2339" stroke-miterlimit="10" stroke-linecap="round"/>
<path d="M247.306 311.601L280.415 321.032L280.237 274.764L247.128 262.129L247.306 311.601Z" stroke="#C07B0B" stroke-opacity="0.41" stroke-width="0.2339" stroke-miterlimit="10" stroke-linecap="round"/>
<path d="M312.455 286.153V329.93" stroke="#C07B0B" stroke-opacity="0.41" stroke-width="0.2339" stroke-miterlimit="10" stroke-linecap="round"/>
<path d="M277.389 273.696L277.567 320.142" stroke="#C07B0B" stroke-opacity="0.41" stroke-width="0.2339" stroke-miterlimit="10" stroke-linecap="round"/>
<path d="M315.837 349.149V392.392L288.781 388.299V342.92L315.837 349.149Z" stroke="#C07B0B" stroke-opacity="0.41" stroke-width="0.2339" stroke-miterlimit="10" stroke-linecap="round"/>
<path d="M247.484 381.003L280.593 386.876L280.415 340.607L247.306 331.354L247.484 381.003Z" stroke="#C07B0B" stroke-opacity="0.41" stroke-width="0.2339" stroke-miterlimit="10" stroke-linecap="round"/>
<path d="M312.455 348.438L312.633 392.215" stroke="#C07B0B" stroke-opacity="0.41" stroke-width="0.2339" stroke-miterlimit="10" stroke-linecap="round"/>
<path d="M277.567 339.717V386.164" stroke="#C07B0B" stroke-opacity="0.41" stroke-width="0.2339" stroke-miterlimit="10" stroke-linecap="round"/>
<g opacity="0.5">
<path d="M-35.5398 213.191L-0.473297 186.32L34.5932 159.448L105.082 106.062L175.749 53.0308L210.994 26.3374L246.594 0L211.528 26.8713L176.283 53.5647L105.794 107.129L35.1272 160.16L-0.117294 186.676L-35.5398 213.191Z" fill="#C07B0B" fill-opacity="0.41"/>
</g>
<g opacity="0.5">
<path d="M156.169 5.33887L214.91 44.1332L273.651 83.2834L391.31 161.228L508.614 239.706L567.177 278.857L625.74 318.185L566.821 279.391L508.08 240.24L390.598 162.296L273.295 83.8173L214.554 44.6671L156.169 5.33887Z" fill="#C07B0B" fill-opacity="0.41"/>
</g>
<g opacity="0.5">
<path d="M-15.7815 427.983L61.6496 416.06L138.903 404.315L293.409 380.825L448.093 357.869L525.524 346.302L602.955 335.09L525.524 347.013L448.271 358.758L293.765 382.071L139.081 405.205L61.6496 416.594L-15.7815 427.983Z" fill="#C07B0B" fill-opacity="0.41"/>
</g>
<g opacity="0.5">
<path d="M655.466 522.656L148.515 577.11L655.288 521.41C655.644 521.41 656 521.588 656 521.944C656 522.3 655.822 522.656 655.466 522.656Z" fill="#C07B0B" fill-opacity="0.41"/>
</g>
<g opacity="0.5">
<path d="M-47.288 533.867L312.099 577.822L-47.466 535.113C-47.822 535.113 -48 534.757 -48 534.401C-48 534.223 -47.644 533.867 -47.288 533.867Z" fill="#C07B0B" fill-opacity="0.41"/>
</g>
<g opacity="0.5">
<path d="M586.223 440.974L586.935 47.8701L587.647 440.974C587.647 441.33 587.291 441.686 586.935 441.686C586.579 441.686 586.223 441.33 586.223 440.974Z" fill="#C07B0B" fill-opacity="0.41"/>
</g>
</svg>
