<svg width="488" height="251" viewBox="0 0 488 251" fill="none" xmlns="http://www.w3.org/2000/svg">
<g clip-path="url(#clip0_180_6455)">
<g opacity="0.85">
<path d="M200.698 189.814L200.819 213.122L200.698 213.001C201.306 213.244 201.914 213.365 202.522 213.244C203.131 213.122 203.617 212.637 203.982 212.151V212.273L203.86 189.207H204.59L204.469 212.273V212.394C204.104 213.001 203.495 213.487 202.766 213.608C202.036 213.729 201.306 213.608 200.698 213.365H200.576V213.244L200.698 189.814Z" fill="#D38E1F" fill-opacity="0.7"/>
<path d="M370.987 166.749L370.865 188.843L370.743 188.722C371.23 188.964 371.96 189.086 372.568 188.964C373.176 188.843 373.663 188.479 374.028 187.872V187.993L374.149 164.928L374.271 187.993C373.906 188.6 373.298 189.086 372.568 189.207C371.838 189.329 371.108 189.207 370.5 188.964H370.378V188.843L370.257 166.749H370.987Z" fill="#D38E1F" fill-opacity="0.7"/>
<path d="M195.954 170.148L200.82 189.693H200.455L200.211 169.055H200.941L200.698 189.693C200.698 189.814 200.576 189.936 200.576 189.936C200.455 189.936 200.455 189.814 200.455 189.814L195.954 170.148Z" fill="#D38E1F" fill-opacity="0.7"/>
<path d="M367.946 167.113L374.028 166.263V154.609" stroke="#D38E1F" stroke-opacity="0.7" stroke-width="0.606" stroke-miterlimit="10"/>
<path d="M200.698 169.177L200.941 189.814L200.698 189.571C218.943 187.022 237.188 184.473 255.434 182.045C273.679 179.617 291.924 177.189 310.169 175.004C291.924 177.674 273.801 180.224 255.555 182.773C237.31 185.322 219.065 187.75 200.819 190.057H200.576V189.814L200.698 169.177Z" fill="#D38E1F" fill-opacity="0.7"/>
<path d="M327.806 128.873L274.652 122.803L221.497 116.612H182.452L182.817 116.248L187.804 159.101L187.439 158.858L254.217 152.302L287.545 149.025L320.873 145.868L287.545 149.389L254.217 152.788L187.561 159.586C187.439 159.586 187.196 159.465 187.196 159.344L182.209 116.49C182.209 116.248 182.331 116.126 182.452 116.126H221.497L274.53 122.56L327.806 128.873Z" fill="#D38E1F" fill-opacity="0.7"/>
<path d="M380.109 139.92L385.583 139.192L391.057 138.585L396.53 137.978L402.004 137.371V138.099C398.598 137.613 395.192 137.249 391.908 136.764C388.502 136.278 385.096 135.792 381.812 135.307C385.218 135.55 388.624 135.914 392.03 136.278C395.435 136.642 398.841 137.006 402.247 137.371C402.49 137.371 402.612 137.613 402.612 137.735C402.612 137.856 402.49 138.099 402.247 138.099L396.773 138.585L391.3 139.07L385.826 139.556L380.109 139.92Z" fill="#D38E1F" fill-opacity="0.7"/>
<path d="M182.575 116.248V120.375C183.548 128.873 184.399 137.249 185.372 145.747L187.927 171.119H187.197V159.101C186.345 152.06 185.616 144.897 184.886 137.735C184.156 130.815 183.426 123.531 182.575 116.248ZM182.575 116.248C183.426 123.289 184.278 130.33 185.251 137.492C186.224 144.654 187.075 151.938 187.927 159.101V171.119H187.197L184.764 145.747C184.034 137.249 183.183 128.751 182.453 120.375L182.575 116.248Z" fill="#D38E1F" fill-opacity="0.7"/>
<path d="M320.995 145.868L287.667 149.389L254.339 152.788L187.561 159.586L187.926 159.222V171.24L187.561 170.876L252.393 162.985L284.869 159.101L317.224 155.216L284.869 159.465L252.393 163.471L187.683 171.605H187.196V171.24V159.222V158.858H187.561L254.217 152.302L287.667 149.025L320.995 145.868Z" fill="#D38E1F" fill-opacity="0.7"/>
<path d="M377.068 147.447L402.125 144.533L402.004 144.776V137.735L402.247 137.856L380.109 139.92L402.125 137.613H402.368V137.735V144.776V144.897L402.247 145.019L377.068 148.175V147.447Z" fill="#D38E1F" fill-opacity="0.7"/>
<path d="M309.562 227.326L335.105 217.129L360.648 207.053L360.405 207.295C362.716 204.746 364.176 201.711 365.149 198.433C366.122 195.156 366.608 191.757 366.973 188.236C367.581 181.316 367.703 174.397 367.095 167.477V167.234L367.217 166.992C369.041 163.35 370.866 159.708 372.568 155.944C374.271 152.181 375.974 148.539 377.434 144.654C380.596 137.128 383.394 129.358 385.827 121.589L385.948 121.346L386.192 121.225C387.53 120.861 388.503 119.161 388.016 117.826L388.381 118.069L360.283 117.947H346.174C343.863 117.947 341.43 117.826 339.119 117.826C337.902 117.826 336.808 117.947 335.713 118.069C335.105 118.19 334.618 118.19 334.01 118.311C333.402 118.433 332.915 118.554 332.429 118.797C331.577 119.161 331.577 120.496 331.091 121.589C330.726 122.682 330.239 123.774 329.753 124.867C328.902 127.052 328.05 129.237 327.199 131.422L322.09 144.533L316.981 157.644C315.278 162.014 313.454 166.385 311.994 170.755C310.535 175.125 309.683 179.617 309.562 184.23C309.318 188.843 309.562 193.456 309.562 198.191C309.562 202.925 309.197 207.66 307.859 212.394C306.521 217.007 304.331 221.499 300.682 224.898C298.858 226.598 296.668 227.933 294.357 228.783C292.046 229.632 289.492 229.997 287.059 229.997C282.194 229.875 277.45 228.297 273.314 225.748C269.179 223.198 265.773 219.678 262.854 216.036C259.934 212.273 257.38 208.267 254.947 204.382L256.042 204.625C255.191 204.989 254.461 205.232 253.609 205.232C252.758 205.232 251.906 205.11 251.177 204.867C250.325 204.503 249.595 203.775 249.352 202.804C249.109 201.833 249.231 200.983 249.595 200.133C250.325 198.433 252.028 197.705 253.488 197.219C254.947 196.734 256.407 196.612 257.623 196.248L282.315 191.514L307.129 186.901V187.143L282.559 192.485L257.867 197.705H257.988C256.529 198.191 255.069 198.312 253.853 198.798C252.636 199.162 251.42 199.89 251.055 200.861C250.812 201.347 250.812 201.954 250.933 202.44C251.055 202.925 251.42 203.168 251.906 203.411C252.88 203.775 254.339 203.775 255.312 203.289L256.042 202.925L256.407 203.532C258.961 207.417 261.516 211.423 264.313 214.943C267.233 218.464 270.517 221.742 274.409 224.17C278.301 226.476 282.68 228.054 287.181 228.054C289.37 228.054 291.681 227.69 293.749 226.962C295.817 226.233 297.763 225.019 299.344 223.563C302.628 220.528 304.696 216.4 305.912 212.03C307.25 207.66 307.494 203.047 307.615 198.433C307.737 193.82 307.494 189.086 307.737 184.351C307.98 179.617 308.832 174.882 310.413 170.391C311.994 165.899 313.819 161.65 315.643 157.28L320.995 144.29L326.347 131.301C327.199 129.116 328.05 126.931 329.023 124.867C329.51 123.774 329.996 122.682 330.361 121.71C330.604 121.225 330.726 120.618 330.969 120.011C331.091 119.768 331.213 119.404 331.334 119.161C331.577 118.918 331.821 118.554 332.186 118.433C332.794 118.19 333.402 118.069 334.01 117.947C334.618 117.826 335.227 117.704 335.835 117.704C337.051 117.583 338.146 117.583 339.362 117.583C341.673 117.583 344.106 117.704 346.417 117.826L360.405 117.947L388.503 117.826H388.746L388.868 118.069C389.476 119.889 388.381 122.075 386.557 122.682L386.921 122.317C384.61 130.208 381.934 137.978 379.015 145.626C377.556 149.51 375.974 153.274 374.271 157.037C372.569 160.8 370.866 164.442 368.919 168.206L369.041 167.72C369.284 171.24 369.528 174.761 369.406 178.281C369.406 181.802 369.163 185.323 368.798 188.843C368.433 192.364 367.946 195.884 366.852 199.283C365.757 202.682 364.176 205.96 361.743 208.752L361.621 208.874L361.5 208.995L335.713 218.585L309.926 228.054L309.562 227.326Z" fill="#D38E1F" fill-opacity="0.7"/>
<path d="M233.661 117.704L234.756 108.721V108.478H234.999L245.216 108.6H245.338V108.721C244.852 112.12 244.487 115.519 244.365 118.918C244.487 115.519 244.73 111.999 245.095 108.6L245.216 108.721L234.999 108.842L235.242 108.6L234.391 117.704H233.661Z" fill="#D38E1F" fill-opacity="0.7"/>
<path d="M247.284 119.404C247.406 117.583 247.527 115.762 247.771 113.941C247.892 113.091 248.014 112.12 248.257 111.27C248.501 110.42 248.622 109.449 248.987 108.6L249.109 108.478H249.23L261.515 108.114H261.759L261.637 108.357C260.907 110.299 260.421 112.484 260.177 114.548C259.934 116.612 259.934 118.797 260.056 120.982C259.934 118.797 259.934 116.733 260.056 114.548C260.299 112.363 260.664 110.299 261.394 108.235L261.515 108.357L249.23 108.964L249.474 108.842C249.109 109.571 248.987 110.542 248.744 111.392C248.622 112.241 248.501 113.213 248.379 114.062C248.136 115.883 248.014 117.583 248.014 119.404H247.284Z" fill="#D38E1F" fill-opacity="0.7"/>
<path d="M264.8 121.468C264.921 119.161 265.043 116.855 265.408 114.669C265.53 113.577 265.773 112.363 266.016 111.27C266.381 110.178 266.624 108.964 267.476 108.114L267.597 107.993H267.719L283.775 107.507H283.897V107.628C283.288 110.178 282.923 112.848 282.437 115.519C282.072 118.19 281.829 120.739 281.829 123.41C281.829 120.739 282.072 118.069 282.315 115.519C282.68 112.848 283.045 110.299 283.653 107.628L283.775 107.75L267.841 108.478L267.962 108.357C267.233 109.085 266.989 110.299 266.624 111.27C266.381 112.363 266.138 113.455 266.016 114.548C265.773 116.733 265.651 119.04 265.53 121.346L264.8 121.468Z" fill="#D38E1F" fill-opacity="0.7"/>
<path d="M290.465 124.503C290.586 121.589 290.708 118.797 291.073 115.883C291.195 114.427 291.438 112.97 291.803 111.634C292.168 110.178 292.533 108.842 293.262 107.507L293.384 107.386H293.506L314.305 107.143H314.549L314.427 107.264C313.819 108.842 313.454 110.42 313.089 111.999C312.724 113.577 312.481 115.276 312.238 116.976C311.994 118.675 311.873 120.254 311.873 121.953C311.751 123.653 311.751 125.352 311.751 126.93C311.751 125.231 311.751 123.531 311.751 121.953C311.873 120.254 311.873 118.554 312.116 116.976C312.359 115.276 312.602 113.698 312.846 111.999C313.211 110.299 313.575 108.721 314.184 107.143L314.305 107.264L293.506 107.871L293.749 107.75C293.019 108.964 292.654 110.299 292.411 111.756C292.168 113.091 291.924 114.548 291.681 116.005C291.316 118.797 291.195 121.71 291.195 124.503H290.465Z" fill="#D38E1F" fill-opacity="0.7"/>
<path d="M325.738 128.63C325.86 124.988 326.225 121.346 326.711 117.826C327.198 114.184 327.928 110.663 329.144 107.264V107.143H329.266L364.905 106.172H365.27L365.148 106.536C364.053 110.178 363.202 113.941 362.594 117.704L361.864 117.583C362.594 113.82 363.445 110.056 364.54 106.293L364.783 106.657L329.144 107.264L329.266 107.143C328.049 110.542 327.32 114.062 326.711 117.704C326.225 121.346 325.86 124.988 325.738 128.63Z" fill="#D38E1F" fill-opacity="0.7"/>
<path d="M386.556 146.718C386.678 149.146 386.07 151.696 385.097 154.002C384.61 155.216 384.002 156.551 383.029 157.523C380.839 159.829 377.312 160.193 374.149 160.436" stroke="#D38E1F" stroke-opacity="0.7" stroke-width="0.606" stroke-miterlimit="10"/>
<path d="M399.572 175.004L399.207 197.462L398.842 175.004H399.572Z" fill="#D38E1F" fill-opacity="0.7"/>
<path d="M403.342 175.004L402.977 194.306L402.612 175.004H403.342Z" fill="#D38E1F" fill-opacity="0.7"/>
<path d="M245.824 139.556L270.151 137.371C274.165 137.006 278.301 136.642 282.315 136.278C286.329 136.035 290.464 135.792 294.478 135.671V135.792C290.464 136.278 286.329 136.642 282.315 137.128C278.301 137.492 274.165 137.735 270.151 137.978L245.824 139.556Z" fill="#D38E1F" fill-opacity="0.7"/>
<path d="M290.83 136.035L303.115 139.799C305.183 140.406 307.251 141.013 309.197 141.741C311.265 142.469 313.211 143.198 315.157 144.047V144.169C313.089 143.683 311.021 143.076 308.954 142.469C306.886 141.862 304.94 141.134 302.872 140.406L290.83 136.035Z" fill="#D38E1F" fill-opacity="0.7"/>
<path d="M242.662 141.498C245.581 142.834 248.501 144.29 251.298 145.626C252.758 146.354 254.217 146.961 255.555 147.689C256.893 148.418 258.353 149.268 259.691 150.117V150.239C258.11 149.753 256.772 149.025 255.312 148.296C253.853 147.568 252.515 146.84 251.055 145.99C248.257 144.654 245.46 143.198 242.662 141.498Z" fill="#D38E1F" fill-opacity="0.7"/>
<path d="M256.285 150.603L284.869 147.447C289.613 146.961 294.357 146.354 299.101 145.868C303.844 145.504 308.588 145.019 313.454 144.776V144.897C308.71 145.626 303.966 146.111 299.222 146.718C294.479 147.204 289.735 147.689 284.991 148.054L256.285 150.603Z" fill="#D38E1F" fill-opacity="0.7"/>
<path d="M270.151 137.613L280.612 142.105C282.315 142.834 284.139 143.562 285.842 144.412C287.545 145.261 289.248 146.111 290.829 147.082V147.204C289.005 146.597 287.302 145.868 285.477 145.14C283.774 144.412 282.072 143.562 280.369 142.712L270.151 137.613Z" fill="#D38E1F" fill-opacity="0.7"/>
<path d="M151.558 110.906L151.679 69.2669V69.0241H151.923L177.466 69.1455H177.588V69.2669L177.466 122.439L177.223 69.2669L177.466 69.3883L151.923 69.5097L152.166 69.2669L152.287 110.906H151.558Z" fill="#D38E1F" fill-opacity="0.7"/>
<path d="M154.477 80.1926L175.398 79.9498V80.4354L154.477 80.1926Z" fill="#D38E1F" fill-opacity="0.7"/>
<path d="M177.344 69.2669L179.776 60.6477L180.02 59.9193V60.6477L180.263 98.038C180.263 104.229 180.385 110.542 180.263 116.733C180.141 122.924 180.141 129.237 180.02 135.428H179.898C179.655 129.237 179.655 122.924 179.655 116.733C179.655 110.542 179.655 104.229 179.655 98.038L179.898 60.6477H180.141L177.344 69.2669Z" fill="#D38E1F" fill-opacity="0.7"/>
<path d="M179.898 60.6477C185.494 60.7691 191.211 60.8905 196.806 61.1333C202.401 61.3761 208.118 61.6189 213.713 61.983C219.308 62.3472 225.025 62.7114 230.62 62.9542L247.528 63.5612H247.771V63.804C247.892 71.3306 247.892 78.9786 247.892 86.5053V86.3839L248.622 89.2974V89.4188L248.501 89.5402L247.649 90.5114L247.771 90.2686C247.771 94.7603 247.649 99.3733 247.649 103.865C247.649 108.357 247.528 112.97 247.406 117.462H247.284C247.163 112.97 247.163 108.357 247.041 103.865C247.041 99.3733 246.919 94.7603 246.919 90.2686V90.1472L247.041 90.0258L247.771 89.0546L247.649 89.4188L246.798 86.5053C246.798 78.9786 246.798 71.3306 246.919 63.804L247.163 64.0468L230.255 63.0756C224.66 62.8328 218.943 62.59 213.348 62.4686C207.753 62.3472 202.036 61.9831 196.441 61.7403C191.211 61.3761 185.494 61.0119 179.898 60.6477Z" fill="#D38E1F" fill-opacity="0.7"/>
<path d="M184.399 84.6843L213.105 85.1699H213.227V85.2913V105.079V105.322H212.983H198.63C193.887 105.322 189.021 105.322 184.277 105.322H184.034V105.079L184.399 84.6843ZM184.399 84.6843L184.642 105.079L184.399 104.836C189.143 104.836 194.008 104.836 198.752 104.836H213.105L212.862 105.079V85.2913L212.983 85.4127L184.399 84.6843Z" fill="#D38E1F" fill-opacity="0.7"/>
<path d="M185.737 86.1411C189.994 86.1411 194.251 86.2625 198.63 86.2625C200.82 86.2625 202.888 86.2625 205.077 86.3839L211.524 86.6267H211.645V86.7481L211.524 95.2459V103.744V103.865H211.402C202.766 103.986 194.251 103.986 185.615 103.986H185.372V103.744L185.737 86.1411ZM185.737 86.1411L185.98 103.744L185.737 103.501C194.373 103.501 202.888 103.501 211.524 103.622L211.402 103.744V95.2459L211.28 86.7481L211.402 86.8695L204.955 86.7481C202.888 86.7481 200.698 86.6267 198.509 86.6267C194.373 86.3839 190.116 86.2625 185.737 86.1411Z" fill="#D38E1F" fill-opacity="0.7"/>
<path d="M217.241 62.3472L216.876 116.248L216.511 62.3472H217.241Z" fill="#D38E1F" fill-opacity="0.7"/>
<path d="M233.539 63.0756L233.174 117.583L232.688 63.0756H233.539Z" fill="#D38E1F" fill-opacity="0.7"/>
<path d="M234.877 63.0756L234.512 112.12L234.147 63.0756H234.877Z" fill="#D38E1F" fill-opacity="0.7"/>
<path d="M191.697 116.248C191.576 114.912 191.454 113.698 191.332 112.363C191.211 111.756 191.089 111.149 190.968 110.542C190.846 109.935 190.603 109.328 190.359 108.842V108.721V108.6V108.114V107.871H190.603L205.077 107.993H205.199C205.685 109.328 206.05 110.542 206.172 111.877C206.415 113.213 206.415 114.548 206.294 115.883C206.537 113.213 205.929 110.42 204.956 107.993H205.077L190.603 108.114L190.846 107.871V108.357V108.235C191.211 108.842 191.454 109.449 191.576 110.178C191.697 110.785 191.819 111.513 191.941 112.12C192.184 113.455 192.306 114.669 192.427 116.005L191.697 116.248Z" fill="#D38E1F" fill-opacity="0.7"/>
<path d="M151.923 69.2669L145.598 57.7342" stroke="#D38E1F" stroke-opacity="0.7" stroke-width="0.606" stroke-miterlimit="10"/>
<path d="M145.718 111.513L145.84 87.5978L145.962 87.8406L141.096 84.8057L141.34 84.6843L141.096 112.241L140.975 84.6843V84.3201L141.218 84.5629L146.205 87.4764H146.327V87.5978L146.448 111.513H145.718Z" fill="#D38E1F" fill-opacity="0.7"/>
<path d="M144.259 86.5053L145.475 84.6843L145.232 51.9071V52.0285L140.853 41.2242L141.461 41.1028C141.461 48.3866 141.583 55.6704 141.461 62.8329L141.34 73.7586C141.34 77.4005 141.218 81.0424 141.096 84.6843C140.975 81.0424 140.975 77.4005 140.853 73.7586L140.731 62.8329C140.731 55.549 140.731 48.2652 140.731 41.1028V39.5246L141.34 40.9814L145.597 51.7857L145.354 84.5629L144.259 86.5053Z" fill="#D38E1F" fill-opacity="0.7"/>
<path d="M141.097 41.1027H138.178L138.421 76.6721C138.543 88.569 138.543 100.344 138.178 112.241H138.056C137.691 100.344 137.691 88.569 137.813 76.6721L138.056 41.1027V40.9813L141.097 41.1027Z" fill="#D38E1F" fill-opacity="0.7"/>
<path d="M138.177 41.1028C137.082 39.1604 135.866 37.218 134.771 35.1543C134.163 34.1831 133.555 33.2119 133.068 32.1194C132.582 31.0268 132.095 30.0556 131.73 28.963H131.852C132.582 29.8128 133.19 30.9054 133.677 31.8766C134.285 32.8477 134.65 33.9403 135.258 34.9115C136.231 36.9752 137.204 39.039 138.177 41.1028Z" fill="#D38E1F" fill-opacity="0.7"/>
<path d="M131.731 112.241V75.9437V76.0651L130.271 74.487H130.149L130.271 74.3656L131.731 71.8162L131.609 17.7945V17.9159L118.716 -13.1617L118.959 -13.0403H113.85L114.094 -13.2831L114.215 50.3289L114.094 82.135L113.85 113.941L113.607 82.135L113.485 50.3289V-13.2831V-13.6473H113.85H118.959H119.081L119.202 -13.4045L132.096 17.7945L131.974 71.8162V71.9376L130.514 74.487L130.393 74.3656L131.852 75.8223L131.974 75.9437L131.852 112.241H131.731Z" fill="#D38E1F" fill-opacity="0.7"/>
<path d="M118.959 -13.2831L119.202 50.2076C119.324 60.7691 119.324 71.3306 119.324 82.0136C119.202 92.5751 119.202 103.137 118.959 113.82H118.838C118.594 103.258 118.594 92.6965 118.473 82.0136C118.473 71.452 118.473 60.8905 118.594 50.2076L118.959 -13.2831Z" fill="#D38E1F" fill-opacity="0.7"/>
<path d="M98.2806 -62.2062L97.9157 115.155L97.5508 -62.2062H98.2806Z" fill="#D38E1F" fill-opacity="0.7"/>
<path d="M22.2588 -1.62901H31.0165L98.1591 49.9647L97.7942 50.3289L94.7533 46.9298L94.6317 46.8084L94.7533 46.687L97.6726 40.0102L97.7942 40.3744L64.2229 8.68973L30.8949 -23.1163H31.0165H22.2588V-23.2377L31.0165 -23.3591V-23.2377L64.7094 8.20415L98.1591 39.8888L98.2807 40.0102L98.1591 40.253L95.2398 46.9298V46.5656L98.1591 49.9647L97.7942 50.4503L30.8949 -1.50762H31.0165H22.2588V-1.62901Z" fill="#D38E1F" fill-opacity="0.7"/>
<path d="M31.0168 -44.6036L31.2601 78.2503L31.3817 139.677C31.2601 160.193 31.2601 180.588 31.0168 201.104H30.8952C30.6519 180.588 30.6519 160.193 30.5303 139.677L30.6519 78.2503L31.0168 -44.6036Z" fill="#D38E1F" fill-opacity="0.7"/>
<path d="M22.2594 -42.297L22.5027 -13.2831V15.7308L22.6243 73.7586L22.5027 131.786V160.8L22.2594 189.814L22.1378 160.8L22.0162 131.786L21.8945 73.7586L22.0162 15.7308L22.1378 -13.2831L22.2594 -42.297Z" fill="#D38E1F" fill-opacity="0.7"/>
<path d="M98.2812 122.803L98.1595 174.033V174.154H98.0379L0 266.659L97.7946 173.911L97.673 174.033L97.5513 122.803H98.2812Z" fill="#D38E1F" fill-opacity="0.7"/>
<path d="M97.916 170.755L107.768 161.893" stroke="#D38E1F" stroke-opacity="0.7" stroke-width="0.606" stroke-miterlimit="10"/>
<path d="M247.649 64.5324V63.197C250.812 60.8905 254.096 58.7053 257.38 56.6416C260.664 54.4564 263.949 52.3927 267.233 50.3289H267.354H267.476L270.76 50.8145H270.882V50.9359C270.76 55.6704 270.76 60.5263 270.882 65.2608C271.003 69.9953 271.003 74.8511 271.003 79.5856C271.003 84.3201 271.003 89.176 271.003 93.9105C270.882 98.645 270.882 103.501 270.76 108.235H270.638C270.517 103.501 270.395 98.645 270.395 93.9105C270.274 89.176 270.274 84.3201 270.395 79.5856C270.395 74.8511 270.517 69.9953 270.517 65.2608C270.638 60.5263 270.638 55.6704 270.517 50.9359L270.638 51.0573L267.354 50.6931H267.476C264.192 52.8783 260.908 55.0634 257.623 57.1272C254.339 59.1909 250.934 61.376 247.649 63.3184V63.197V64.5324Z" fill="#D38E1F" fill-opacity="0.7"/>
<path d="M267.476 50.2076C267.719 55.0634 267.841 59.9193 267.719 64.6538C267.597 69.5097 267.476 74.3656 267.597 79.1C267.841 88.8118 267.841 98.4022 267.476 108.114H267.354C266.867 98.4022 266.989 88.8118 267.232 79.1C267.354 74.2442 267.232 69.3883 267.111 64.6538C266.989 59.9193 267.111 55.0634 267.476 50.2076Z" fill="#D38E1F" fill-opacity="0.7"/>
<path d="M270.517 53.3639L290.83 42.6809L270.76 53.9709L270.517 53.3639Z" fill="#D38E1F" fill-opacity="0.7"/>
<path d="M292.046 112.12C292.046 107.021 291.924 101.923 291.924 96.7026L291.803 81.2852V81.1638L291.924 81.0424L293.627 79.3428L293.506 79.5856L291.803 74.8511C291.803 68.9027 291.803 63.0756 291.803 57.1272L291.924 39.4032V39.2818H292.046L302.385 33.5761L312.602 27.7491L333.159 16.095H333.28H333.402L337.902 16.5805H338.146V16.8233V61.7403L338.024 84.1987C338.024 91.7253 337.902 99.1306 337.781 106.657H337.659C337.538 99.1306 337.538 91.7253 337.416 84.1987L337.294 61.7403V16.8233L337.538 17.1875L333.037 16.5805H333.159L312.481 27.9919L302.142 33.6975L291.924 39.5246L292.046 39.4032L292.168 57.1272C292.168 63.0756 292.289 68.9027 292.168 74.8511V74.7297L293.871 79.4642L293.992 79.5856L293.871 79.707L292.168 81.4066L292.289 81.1638L292.168 96.5812C292.168 101.923 292.168 107.021 292.046 112.12Z" fill="#D38E1F" fill-opacity="0.7"/>
<path d="M333.28 16.5806C333.523 24.1072 333.645 31.6338 333.523 39.2818C333.402 46.8084 333.28 54.3351 333.402 61.9831C333.523 69.5097 333.645 77.0363 333.523 84.6843C333.523 88.4476 333.523 92.211 333.402 95.9743C333.402 99.7376 333.28 103.501 333.158 107.264H333.037C332.915 103.501 332.915 99.7376 332.794 95.9743C332.794 92.211 332.672 88.4476 332.672 84.6843C332.672 77.1577 332.794 69.6311 332.794 61.9831C332.915 54.4565 332.794 46.9298 332.672 39.2818C332.794 31.7552 332.915 24.1072 333.28 16.5806Z" fill="#D38E1F" fill-opacity="0.7"/>
<path d="M337.537 19.3727L388.624 -7.33469L337.902 19.9797L337.537 19.3727Z" fill="#D38E1F" fill-opacity="0.7"/>
<path d="M370.5 175.975L368.433 175.368" stroke="#D38E1F" stroke-opacity="0.7" stroke-width="0.606" stroke-miterlimit="10"/>
<path d="M446.157 -43.8752L417.452 -28.0936L388.746 -12.4334L388.867 -12.6761C388.867 -2.23599 388.867 8.20415 388.867 18.5229L388.746 49.722L391.057 59.0695V59.1909V59.3123L388.624 62.5901V62.4687C388.624 74.7298 388.502 86.9909 388.624 99.252L388.746 136.035H388.259C388.624 130.815 389.111 125.717 389.962 120.496C390.449 117.947 390.935 115.398 391.665 112.848C392.395 110.299 393.124 107.871 394.462 105.565L394.584 105.443H394.827L440.927 104.229H441.414L441.292 104.715C439.832 108.721 438.494 112.848 437.278 116.855C436.062 120.982 434.845 124.988 433.751 129.116C432.656 133.243 431.683 137.371 430.953 141.62C430.223 145.747 429.493 149.996 429.372 154.245V154.123C429.98 156.794 430.223 159.465 430.223 162.136C430.223 164.806 429.98 167.599 428.885 170.026C428.399 171.24 427.547 172.454 426.574 173.304C425.601 174.275 424.263 174.882 422.925 175.125C421.587 175.368 420.249 175.368 418.911 175.489C417.573 175.489 416.235 175.489 414.897 175.489C409.545 175.489 404.193 174.882 398.963 175.125C393.733 175.368 388.381 176.703 383.88 179.738L374.149 176.946V176.825L383.88 179.495H383.759C388.137 176.461 393.611 175.004 398.841 174.761C404.193 174.397 409.545 175.004 414.897 175.004C416.235 175.004 417.573 175.004 418.911 175.004C420.249 175.004 421.587 175.004 422.803 174.64C424.02 174.397 425.236 173.79 426.209 172.94C427.182 172.09 427.912 170.998 428.399 169.784C429.372 167.356 429.615 164.685 429.615 162.136C429.615 159.465 429.25 156.916 428.642 154.245C428.764 149.996 429.372 145.747 430.223 141.498C430.953 137.249 432.048 133.122 433.142 128.994C434.237 124.867 435.453 120.739 436.67 116.733C437.886 112.606 439.224 108.6 440.684 104.593L441.049 105.079L394.949 106.172L395.192 106.05C393.976 108.235 393.124 110.785 392.395 113.213C391.665 115.641 391.178 118.19 390.692 120.739C389.719 125.838 389.232 130.937 388.867 136.157H388.381L388.502 99.3734C388.502 87.1123 388.502 74.8512 388.502 62.5901L390.813 59.3123V59.4337L388.381 50.0862L388.259 18.8871C388.259 8.44695 388.259 -1.99321 388.259 -12.312V-12.4334L388.381 -12.5548L417.208 -28.0936L446.157 -43.8752Z" fill="#D38E1F" fill-opacity="0.7"/>
<path d="M454.185 -25.1801C454.307 -11.5836 454.428 2.0129 454.428 15.6094L454.55 56.3988L454.428 97.1882C454.428 110.785 454.307 124.381 454.185 137.978C454.064 124.381 453.942 110.785 453.942 97.1882L453.82 56.3988L453.942 15.6094C453.942 1.8915 454.064 -11.705 454.185 -25.1801Z" fill="#D38E1F" fill-opacity="0.7"/>
<path d="M458.686 -20.2028C458.808 -7.94168 458.929 4.31942 458.929 16.5805L459.051 53.3638L458.929 90.1472C458.929 102.408 458.808 114.669 458.686 126.93C458.565 114.669 458.443 102.408 458.443 90.1472L458.321 53.3638L458.443 16.5805C458.443 4.31942 458.565 -7.94168 458.686 -20.2028Z" fill="#D38E1F" fill-opacity="0.7"/>
<path d="M139.637 -99.5965L144.624 -62.6917L149.489 -25.787L159.22 48.0224H158.49V41.3456L152.53 -20.0814C150.462 -40.5975 148.638 -61.1136 146.692 -81.6297C148.881 -61.1136 150.949 -40.7189 153.017 -20.2028L159.22 41.2242V47.901H158.49L149.003 -26.0298L144.259 -62.9345L139.637 -99.5965Z" fill="#D38E1F" fill-opacity="0.7"/>
<path d="M158.855 41.4669L238.769 47.901H239.013V48.1438V53.6067V53.9709H238.648L198.751 51.3001L178.803 49.8434L158.855 48.2652H158.733V48.1438L158.855 41.4669ZM158.977 41.5884L159.098 48.2652L158.977 48.1438L178.925 49.3578L198.873 50.5717L238.769 53.3639L238.404 53.6067V48.1438L238.648 48.3866L158.977 41.5884Z" fill="#D38E1F" fill-opacity="0.7"/>
<path d="M443.116 -122.419L238.891 48.3866L239.012 48.1438V53.6066L238.526 53.3638L320.265 -9.15565L402.125 -71.4323H402.247L320.63 -8.54867L238.891 53.8494L238.404 54.2136V53.6066V48.1438V48.0224L238.526 47.901L443.116 -122.541V-122.419Z" fill="#D38E1F" fill-opacity="0.7"/>
<path d="M182.574 -98.6253L173.695 33.9404L173.451 33.6976L230.863 39.7674L230.62 39.8888L309.439 -45.332L388.502 -130.31H388.624L309.926 -44.8464L230.985 40.3744H230.863H230.741L173.451 34.1831L173.208 34.0618V33.9404L182.574 -98.6253Z" fill="#D38E1F" fill-opacity="0.7"/>
<path d="M230.742 40.1316L230.62 32.605L230.742 32.7263L202.279 29.9342C192.792 28.963 183.304 27.9919 173.938 26.5351V26.4137C183.426 27.1421 192.914 28.1133 202.401 29.2058L230.742 32.4836H230.864V32.605L230.742 40.1316Z" fill="#D38E1F" fill-opacity="0.7"/>
<path d="M230.742 32.605L293.506 -42.0543L324.888 -79.3232C335.47 -91.7057 345.931 -104.088 356.635 -116.349C346.296 -103.845 335.835 -91.3415 325.374 -78.959L293.871 -41.8115L230.742 32.605Z" fill="#D38E1F" fill-opacity="0.7"/>
<path d="M174.668 16.5806L237.918 23.743V24.4714L174.668 16.5806Z" fill="#D38E1F" fill-opacity="0.7"/>
<path d="M175.641 3.22687L247.649 12.3316L247.527 13.06L175.641 3.22687Z" fill="#D38E1F" fill-opacity="0.7"/>
<path d="M146.084 100.709L141.097 100.102L138.178 99.9804L141.097 99.8589H141.219L146.084 100.223V100.709Z" fill="#D38E1F" fill-opacity="0.7"/>
<path d="M146.084 105.686L138.178 105.443L146.084 105.2V105.686Z" fill="#D38E1F" fill-opacity="0.7"/>
<path d="M131.731 98.7664L118.959 96.5813L113.851 96.4599L118.959 96.3385L131.853 98.038L131.731 98.7664Z" fill="#D38E1F" fill-opacity="0.7"/>
<path d="M131.853 105.807L113.851 104.836L131.853 105.079V105.807Z" fill="#D38E1F" fill-opacity="0.7"/>
<path d="M97.9162 93.6677L64.4666 88.4476L47.681 85.7769C42.0857 84.9271 36.4905 83.9559 31.017 82.9848C28.0977 82.9848 25.3001 82.8634 22.3809 82.742V82.6206C25.3001 82.4992 28.0977 82.4992 31.017 82.3778C36.6122 83.2276 42.2074 84.0773 47.8026 84.9271L64.5882 87.7192L97.9162 93.6677Z" fill="#D38E1F" fill-opacity="0.7"/>
<path d="M97.9158 104.958L60.0873 103.865C53.7623 103.744 47.4373 103.501 41.2339 103.258L31.7463 102.772L22.2588 102.53V102.408C25.4213 102.287 28.5838 102.165 31.7463 102.165L41.2339 102.408C47.5589 102.651 53.8839 102.894 60.0873 103.137L97.9158 104.958Z" fill="#D38E1F" fill-opacity="0.7"/>
<path d="M145.476 84.8057L141.097 80.6782L145.597 84.5629L145.476 84.8057Z" fill="#D38E1F" fill-opacity="0.7"/>
<path d="M131.609 76.3079L118.959 67.5673L131.974 75.7009L131.609 76.3079Z" fill="#D38E1F" fill-opacity="0.7"/>
<path d="M131.609 72.059L118.959 60.2835L132.096 71.5734L131.609 72.059Z" fill="#D38E1F" fill-opacity="0.7"/>
<path d="M247.527 86.2625L267.354 81.0424H270.638H267.354L247.649 86.748L247.527 86.2625Z" fill="#D38E1F" fill-opacity="0.7"/>
<path d="M247.527 90.2686L267.354 85.6555H270.638H267.354L247.649 90.7541L247.527 90.2686Z" fill="#D38E1F" fill-opacity="0.7"/>
<path d="M248.379 89.176L267.354 84.0773H270.638H267.354L248.501 89.6616L248.379 89.176Z" fill="#D38E1F" fill-opacity="0.7"/>
<path d="M291.924 74.7297L333.158 63.6826L337.78 63.804H333.158L292.167 75.3367L291.924 74.7297Z" fill="#D38E1F" fill-opacity="0.7"/>
<path d="M291.924 81.0424L333.158 72.1804H337.78L333.158 72.3018L292.167 81.7708L291.924 81.0424Z" fill="#D38E1F" fill-opacity="0.7"/>
<path d="M293.627 79.3428L333.158 69.3883H337.781H333.158L293.87 80.0712L293.627 79.3428Z" fill="#D38E1F" fill-opacity="0.7"/>
<path d="M388.503 49.4792L454.186 33.0905H458.686L454.186 33.212L388.625 50.2075L388.503 49.4792Z" fill="#D38E1F" fill-opacity="0.7"/>
<path d="M388.503 62.1044L454.186 48.9936H458.686H454.186L388.625 62.8328L388.503 62.1044Z" fill="#D38E1F" fill-opacity="0.7"/>
<path d="M390.813 58.8267L454.185 43.0451L458.686 43.1665H454.185L391.057 59.5551L390.813 58.8267Z" fill="#D38E1F" fill-opacity="0.7"/>
<path d="M247.649 101.923L267.354 100.102H270.638L267.354 100.223L247.649 102.408V101.923Z" fill="#D38E1F" fill-opacity="0.7"/>
<path d="M247.649 106.05L270.638 105.443L247.649 106.657V106.05Z" fill="#D38E1F" fill-opacity="0.7"/>
<path d="M292.046 98.038L333.159 94.5175L337.781 94.6389H333.159L292.046 98.7664V98.038Z" fill="#D38E1F" fill-opacity="0.7"/>
<path d="M292.046 103.865L337.781 102.772L292.046 104.593V103.865Z" fill="#D38E1F" fill-opacity="0.7"/>
<path d="M388.503 89.5402L454.186 84.5629H458.686H454.186L388.625 90.2686L388.503 89.5402Z" fill="#D38E1F" fill-opacity="0.7"/>
<path d="M388.624 100.466L423.898 99.7376L441.535 99.3734C447.374 99.252 453.334 99.0092 459.172 99.1306C453.334 99.1306 447.374 99.3734 441.535 99.6162L423.898 100.223L388.624 101.316V100.466Z" fill="#D38E1F" fill-opacity="0.7"/>
<path d="M177.466 135.792C175.763 135.186 173.939 134.943 172.236 135.186C170.533 135.428 168.83 136.157 167.127 136.521C165.424 137.006 163.478 137.249 161.654 136.399C160.802 136.035 160.072 135.185 159.707 134.457C159.221 133.607 159.099 132.758 158.856 131.786C157.518 124.745 155.937 117.826 154.355 110.906C154.477 105.2 154.477 99.6162 154.477 93.9105L154.355 76.9149V76.6721H154.599L175.52 76.5507H175.885V76.9149V88.0834C175.885 91.8467 175.885 95.4886 175.763 99.252C175.642 106.657 175.642 114.062 175.52 121.468H175.398C175.277 114.062 175.155 106.657 175.155 99.252C175.155 95.4886 175.033 91.8467 175.033 88.0834V76.9149L175.398 77.2791L154.477 77.1577L154.72 76.9149L154.599 93.9105C154.599 99.6162 154.599 105.2 154.72 110.906C156.545 117.826 158.126 124.745 159.464 131.786C159.586 132.636 159.829 133.486 160.194 134.214C160.559 134.943 161.167 135.55 161.897 136.035C163.356 136.764 165.303 136.764 167.006 136.278C168.708 135.792 170.411 135.185 172.236 135.064C173.939 134.821 175.763 135.064 177.466 135.792Z" fill="#D38E1F" fill-opacity="0.7"/>
<path d="M165.303 110.42C165.059 110.056 164.694 110.056 164.329 110.178L163.235 110.299L161.045 110.42L156.666 110.785L148.03 111.513L130.758 112.848L96.2138 115.641L96.3354 115.519C95.6056 116.126 94.9974 117.097 95.2407 117.947C95.3623 118.433 95.7272 118.797 96.0922 119.04C96.4571 119.404 96.9436 119.647 97.4301 119.889L97.5518 120.011V120.132L105.215 151.088L107.161 158.858C107.769 161.407 108.499 163.957 108.864 166.627C109.594 171.969 109.107 177.31 108.742 182.53C108.499 185.201 108.256 187.872 108.256 190.421C108.256 193.092 108.621 195.763 109.715 198.191C110.81 200.619 112.635 202.561 114.824 204.139C116.892 205.717 119.324 207.053 121.757 207.902C124.311 208.752 126.987 208.995 129.542 208.631C132.096 208.267 134.65 207.417 137.326 206.81L152.896 203.046C155.085 202.318 157.275 201.711 159.464 201.347C161.653 200.861 163.965 200.497 166.276 200.497C167.37 200.497 168.587 200.619 169.681 200.861C170.776 201.104 171.992 201.832 172.601 202.925C173.209 203.896 173.695 205.11 173.452 206.446C173.33 207.053 172.844 207.66 172.357 208.024C171.871 208.388 171.263 208.631 170.654 208.752L170.776 208.145L173.452 209.602H173.33C173.574 209.602 173.939 209.359 174.182 209.116C174.425 208.874 174.668 208.509 174.912 208.024C175.398 207.295 175.641 206.446 176.006 205.596C176.493 203.896 176.493 202.075 176.615 200.254C176.736 196.612 176.858 192.849 176.979 189.207C177.101 181.802 177.101 174.518 177.223 167.113C177.344 152.302 177.466 137.613 177.466 122.803C176.979 122.196 176.128 121.832 175.277 121.71C174.425 121.589 173.574 121.589 172.722 121.832C171.871 121.953 171.019 122.317 170.168 122.317C169.681 122.317 169.195 122.317 168.83 121.953C168.465 121.589 168.343 121.225 168.222 120.739C167.614 119.04 167.249 117.34 166.884 115.641C166.154 113.698 166.154 111.877 165.303 110.42ZM165.303 110.42C166.276 111.999 166.276 113.82 166.762 115.398C167.127 117.097 167.492 118.797 168.1 120.375C168.222 120.739 168.465 121.225 168.708 121.468C168.952 121.71 169.438 121.832 169.803 121.71C170.654 121.589 171.506 121.225 172.357 121.225C173.209 121.103 174.06 120.982 175.033 121.103C175.885 121.225 176.858 121.468 177.344 122.317C177.466 137.128 177.588 151.817 177.588 166.627C177.588 174.033 177.466 181.438 177.344 188.722C177.223 192.364 177.223 196.127 176.979 199.769C176.858 201.59 176.858 203.532 176.371 205.353C176.128 206.203 175.763 207.174 175.277 208.024C175.033 208.388 174.79 208.874 174.425 209.238C174.06 209.602 173.695 209.966 172.844 209.966L170.168 208.509L169.316 208.024L170.168 207.781C171.141 207.538 172.114 206.931 172.479 205.96C172.722 204.989 172.357 203.896 171.749 203.046C171.263 202.075 170.29 201.59 169.316 201.347C168.222 201.104 167.127 200.983 166.032 200.983C163.843 200.983 161.532 201.347 159.342 201.832C157.153 202.318 154.964 202.925 152.774 203.532L137.205 207.174C134.65 207.781 132.096 208.631 129.42 208.995C126.744 209.359 123.947 209.116 121.392 208.145C118.838 207.295 116.527 205.96 114.337 204.382C112.27 202.804 110.323 200.74 109.229 198.312C108.134 195.884 107.769 193.092 107.769 190.421C107.769 187.75 108.012 185.08 108.256 182.409C108.742 177.067 109.107 171.726 108.377 166.506C108.012 163.835 107.283 161.286 106.674 158.737L104.728 150.967L96.822 120.011L96.9436 120.254C96.4571 120.011 95.9705 119.768 95.484 119.404C94.9974 119.04 94.6325 118.554 94.3893 117.947C94.146 117.34 94.2676 116.612 94.6325 116.126C94.8758 115.641 95.2407 115.155 95.7272 114.791H95.8489H95.9705L130.637 112.241L147.909 111.027L156.545 110.42L160.924 110.056L163.113 109.935L164.208 109.813C164.329 109.813 164.573 109.813 164.816 109.813C165.059 110.056 165.303 110.178 165.303 110.42Z" fill="#D38E1F" fill-opacity="0.7"/>
<path d="M99.498 117.583C102.904 130.087 106.066 142.712 109.229 155.337C109.959 158.494 110.932 161.65 111.175 164.928C111.54 168.206 111.418 171.483 111.297 174.64C111.053 177.917 110.81 181.074 110.567 184.351C110.324 187.629 110.324 190.907 111.297 193.942C111.783 195.52 112.513 196.977 113.486 198.191C114.459 199.405 115.676 200.497 117.013 201.468C119.568 203.411 122.487 204.867 125.65 205.596C127.231 205.96 128.812 206.081 130.393 205.96C131.975 205.839 133.556 205.474 135.137 205.11C136.718 204.746 138.3 204.26 139.881 203.896L144.625 202.804L154.112 200.619C157.275 199.89 160.559 199.283 163.721 199.04C165.303 198.919 167.006 198.798 168.587 198.919C169.438 198.919 170.29 199.04 171.019 199.162C171.871 199.283 172.722 199.526 173.331 200.133C174.547 201.347 175.033 203.046 175.033 204.746C175.033 206.446 174.425 208.024 173.695 209.48H173.574C174.304 208.024 174.79 206.446 174.669 204.867C174.669 203.289 174.06 201.711 172.966 200.619C172.357 200.133 171.628 199.89 170.898 199.769C170.046 199.647 169.317 199.526 168.465 199.526C166.884 199.526 165.181 199.647 163.6 199.769C160.316 200.133 157.153 200.74 154.112 201.59L144.625 203.896L139.881 204.989L135.137 206.203C133.556 206.567 131.975 206.931 130.272 207.053C128.569 207.174 126.988 206.931 125.285 206.567C122.001 205.839 119.081 204.139 116.527 202.197C115.189 201.225 113.973 200.012 113 198.798C112.026 197.462 111.297 196.005 110.81 194.427C109.837 191.271 109.959 187.872 110.202 184.715C110.445 181.438 110.81 178.281 110.932 175.004C111.053 171.726 111.053 168.57 110.688 165.292C110.324 162.136 109.35 158.979 108.499 155.823C105.458 142.834 102.296 130.208 99.498 117.583Z" fill="#D38E1F" fill-opacity="0.7"/>
<path d="M122.852 113.213C125.163 121.346 127.23 129.723 128.933 137.978L131.366 150.482L133.92 162.985C134.407 165.049 134.893 167.113 135.867 168.934C136.84 170.755 138.299 172.333 140.124 173.304C141.948 174.275 144.016 174.64 146.205 174.64C148.273 174.64 150.341 174.275 152.409 173.79C156.423 172.697 160.558 171.119 164.816 170.755C169.073 170.391 173.452 170.998 177.466 172.697V172.819C173.452 171.362 169.195 170.876 164.937 171.362C160.68 171.847 156.788 173.547 152.652 174.64C148.517 175.732 143.894 176.096 139.88 174.154C137.934 173.183 136.353 171.483 135.38 169.541C134.407 167.599 133.92 165.413 133.555 163.35C132.826 159.222 132.096 154.973 131.123 150.846C130.271 146.718 129.298 142.591 128.325 138.463L122.852 113.213Z" fill="#D38E1F" fill-opacity="0.7"/>
<path d="M137.569 112.12C139.272 118.069 140.853 124.138 142.07 130.208C143.286 136.278 144.381 142.348 145.719 148.418C146.084 149.875 146.449 151.453 147.179 152.788C147.908 154.123 149.003 155.216 150.219 155.823C151.557 156.551 153.017 156.794 154.598 156.794C156.058 156.794 157.639 156.551 159.099 156.187C162.018 155.459 165.059 154.245 168.221 154.002C171.384 153.759 174.546 154.245 177.466 155.459V155.58C174.546 154.609 171.384 154.245 168.343 154.609C165.302 154.973 162.383 156.187 159.342 157.037C156.301 157.887 152.895 158.13 149.976 156.673C148.516 155.944 147.422 154.609 146.692 153.274C145.962 151.817 145.597 150.239 145.354 148.782C144.381 142.712 143.043 136.642 141.583 130.572C140.245 124.26 138.786 118.19 137.569 112.12Z" fill="#D38E1F" fill-opacity="0.7"/>
<path d="M147.665 111.149C149.003 115.641 150.219 120.132 151.192 124.624C152.044 129.237 152.895 133.729 153.868 138.342C154.112 139.434 154.477 140.527 154.963 141.62C155.45 142.591 156.301 143.44 157.274 143.926C159.22 144.897 161.653 144.654 163.843 144.169C166.032 143.562 168.221 142.712 170.654 142.469C172.965 142.227 175.398 142.712 177.587 143.683V143.805C175.398 143.076 173.087 142.833 170.776 143.198C168.465 143.44 166.397 144.412 164.086 145.019C161.896 145.626 159.22 145.868 157.031 144.654C155.936 144.047 155.085 143.076 154.598 141.984C154.112 140.891 153.868 139.677 153.625 138.585C152.895 133.972 151.922 129.48 150.706 124.988C149.49 120.254 148.395 115.762 147.665 111.149Z" fill="#D38E1F" fill-opacity="0.7"/>
<path d="M160.072 110.42C160.924 112.97 161.532 115.641 162.14 118.311C162.383 119.647 162.505 120.982 162.87 122.317C163.113 123.653 163.478 124.988 163.843 126.323C164.208 127.659 164.694 128.873 165.789 129.358C166.884 129.844 168.222 129.723 169.56 129.48C170.776 129.116 172.114 128.63 173.574 128.509C175.033 128.387 176.371 128.751 177.588 129.237V129.358C176.25 128.994 174.912 128.873 173.574 129.116C172.236 129.237 171.019 129.844 169.681 130.208C168.343 130.572 166.762 130.694 165.424 129.965C164.694 129.601 164.208 128.994 163.965 128.387C163.6 127.78 163.478 127.052 163.478 126.323C163.113 123.653 162.383 120.982 161.654 118.433C160.802 115.762 160.316 113.091 160.072 110.42Z" fill="#D38E1F" fill-opacity="0.7"/>
<path d="M163.722 110.056C164.451 111.999 164.938 114.062 165.303 116.126C165.425 117.219 165.546 118.19 165.789 119.282C166.033 120.254 166.276 121.346 166.519 122.317C166.763 123.289 167.127 124.26 167.979 124.624C168.83 124.988 169.803 124.867 170.777 124.624C171.75 124.381 172.844 124.017 173.939 123.896C175.034 123.896 176.128 124.017 177.102 124.503V124.624C176.128 124.381 175.034 124.26 174.061 124.503C173.088 124.624 172.115 125.11 171.02 125.352C169.925 125.595 168.709 125.717 167.736 125.11C167.249 124.867 166.763 124.381 166.519 123.774C166.276 123.289 166.154 122.682 166.154 122.196C166.033 121.103 165.789 120.132 165.546 119.161C165.303 118.19 164.938 117.097 164.695 116.126C164.33 114.305 163.843 112.241 163.722 110.056Z" fill="#D38E1F" fill-opacity="0.7"/>
<path d="M138.178 206.931L137.813 227.569L137.448 206.931H138.178Z" fill="#D38E1F" fill-opacity="0.7"/>
<path d="M143.53 205.596L143.165 224.412L142.8 205.596H143.53Z" fill="#D38E1F" fill-opacity="0.7"/>
<path d="M254.218 196.855C255.312 196.855 256.407 197.341 257.38 197.948C258.232 198.555 259.083 199.283 259.691 200.133C261.029 201.711 262.124 203.532 263.219 205.232C265.408 208.631 267.476 212.151 270.03 215.429C272.585 218.585 275.626 221.377 279.275 223.198C281.099 224.048 283.045 224.777 285.113 225.019C287.181 225.262 289.249 225.141 291.195 224.534C289.249 225.141 287.181 225.262 285.113 225.141C283.045 224.898 281.099 224.291 279.275 223.441C275.504 221.742 272.341 218.949 269.787 215.672C267.111 212.515 265.043 208.995 262.732 205.596C261.638 203.896 260.543 202.197 259.205 200.619C257.867 199.162 256.286 197.826 254.339 197.826L254.218 196.855Z" fill="#D38E1F" fill-opacity="0.7"/>
<path d="M386.313 122.317L336.808 122.439L386.313 121.225V122.317Z" fill="#D38E1F" fill-opacity="0.7"/>
<path d="M367.824 167.477C363.202 168.691 358.58 169.662 353.958 170.391C358.58 169.419 363.081 168.084 367.581 166.627L367.824 167.477Z" fill="#D38E1F" fill-opacity="0.7"/>
<path d="M436.914 107.021C433.021 115.034 430.224 123.41 428.521 132.029C426.818 140.648 426.21 149.51 426.696 158.372C426.818 160.557 427.061 162.864 426.696 165.049C426.331 167.234 425.358 169.541 423.412 170.876C421.466 172.212 419.033 172.212 416.844 172.212C414.654 172.09 412.465 171.969 410.154 171.847C405.775 171.605 401.275 171.483 396.896 172.09C392.517 172.697 388.26 173.79 384.124 175.611C388.138 173.79 392.395 172.454 396.774 171.847C401.153 171.24 405.653 171.24 410.032 171.483L416.722 171.726C418.912 171.726 421.223 171.726 422.926 170.512C424.629 169.298 425.602 167.234 425.845 165.049C426.21 162.864 425.967 160.679 425.845 158.494C425.358 149.632 425.967 140.648 427.791 132.029C429.737 123.289 432.778 114.912 436.914 107.021Z" fill="#D38E1F" fill-opacity="0.7"/>
<path d="M165.424 110.663C154.963 112.12 144.503 113.577 134.042 114.912C123.581 116.248 113.121 117.704 102.66 118.918C113.121 117.462 123.581 116.005 134.042 114.669C144.503 113.334 154.963 111.877 165.424 110.663Z" fill="#D38E1F" fill-opacity="0.7"/>
<g opacity="0.45">
<path d="M89.4014 -103.238L162.626 69.1455L162.018 69.3883L89.4014 -103.238Z" fill="#D38E1F" fill-opacity="0.7"/>
</g>
<g opacity="0.45">
<path d="M242.054 63.1971L478.147 -85.0288L242.419 63.804L242.054 63.1971Z" fill="#D38E1F" fill-opacity="0.7"/>
</g>
<g opacity="0.45">
<path d="M402.125 141.377L367.216 145.504L332.307 149.51L262.488 157.644L192.67 165.413L157.76 169.298L122.729 173.183L157.639 169.055L192.548 164.928L262.488 156.916L332.307 149.025L367.216 145.14L402.125 141.377Z" fill="#D38E1F" fill-opacity="0.7"/>
</g>
<g opacity="0.45">
<path d="M44.1537 -116.228L44.6403 -67.7904L44.8836 -19.2316L45.1268 77.8861L44.8836 174.882L44.6403 223.441L44.1537 272L43.6672 223.441L43.4239 174.882L43.1807 77.8861L43.4239 -19.2316L43.6672 -67.7904L44.1537 -116.228Z" fill="#D38E1F" fill-opacity="0.7"/>
</g>
<g opacity="0.45">
<path d="M35.8823 -116.228L36.3688 -67.7904L36.6121 -19.2316L36.8553 77.8861L36.6121 174.882L36.3688 223.441L35.8823 272L35.3957 223.441L35.1524 174.882L34.9092 77.8861L35.1524 -19.2316L35.3957 -67.7904L35.8823 -116.228Z" fill="#D38E1F" fill-opacity="0.7"/>
</g>
<g opacity="0.45">
<path d="M446.157 -75.4384L446.401 -39.8691L446.522 -4.17835L446.644 66.9603L446.522 138.099L446.401 173.668L446.157 209.238L445.914 173.668L445.793 138.099L445.671 66.9603L445.793 -4.17835L445.914 -39.8691L446.157 -75.4384Z" fill="#D38E1F" fill-opacity="0.7"/>
</g>
<g opacity="0.45">
<path d="M359.918 204.139C355.539 205.839 351.161 207.538 346.66 209.116L333.402 214.094L320.144 218.95L306.885 223.684C306.764 223.684 306.521 223.684 306.521 223.441C306.521 223.32 306.521 223.198 306.521 223.198C308.71 219.192 310.534 215.186 311.751 210.816C312.967 206.446 313.575 201.954 312.846 197.462C313.697 201.954 313.332 206.567 312.116 210.937C310.899 215.308 309.196 219.556 307.007 223.563L306.642 223.077L319.9 218.221L333.159 213.487L346.417 208.752C351.039 207.174 355.539 205.596 359.918 204.139Z" fill="#D38E1F" fill-opacity="0.7"/>
</g>
<g opacity="0.45">
<path d="M185.129 108.235C188.413 117.947 191.454 127.659 194.738 137.371C197.779 147.082 200.941 156.916 203.982 166.627L222.228 225.262H222.106L203.374 166.87C200.212 157.158 197.171 147.447 194.008 137.613C190.967 127.78 187.927 118.069 185.129 108.235Z" fill="#D38E1F" fill-opacity="0.7"/>
</g>
<path d="M403.22 187.022L488 228.783L402.855 187.75L403.22 187.022Z" fill="#D38E1F" fill-opacity="0.7"/>
<path d="M333.767 218.464L333.159 251.484L332.551 218.464H333.767Z" fill="#D38E1F" fill-opacity="0.7"/>
<path d="M321.603 223.077L320.995 262.895L320.387 223.077H321.603Z" fill="#D38E1F" fill-opacity="0.7"/>
<path d="M222.957 116.49L223.079 95.8528L223.2 116.49H222.957Z" fill="#D38E1F" fill-opacity="0.7"/>
<path d="M218.821 62.4686L218.7 109.328L218.578 62.4686H218.821Z" fill="#D38E1F" fill-opacity="0.7"/>
<path d="M221.254 62.4686L221.132 113.213L221.011 62.4686H221.254Z" fill="#D38E1F" fill-opacity="0.7"/>
<path d="M222.471 62.4686L222.349 98.4022L222.228 62.4686H222.471Z" fill="#D38E1F" fill-opacity="0.7"/>
<path d="M225.511 62.7114L225.268 113.82L225.146 62.7114H225.511Z" fill="#D38E1F" fill-opacity="0.7"/>
<path d="M227.457 62.8328L227.335 101.194L227.214 62.8328H227.457Z" fill="#D38E1F" fill-opacity="0.7"/>
<path d="M230.134 62.9542L230.012 116.612L229.891 62.9542H230.134Z" fill="#D38E1F" fill-opacity="0.7"/>
<path d="M231.471 62.9542L231.349 105.929L231.106 62.9542H231.471Z" fill="#D38E1F" fill-opacity="0.7"/>
<path d="M236.458 63.197L236.336 105.443L236.215 63.197H236.458Z" fill="#D38E1F" fill-opacity="0.7"/>
<path d="M239.256 63.3184L239.134 108.721L239.013 63.3184H239.256Z" fill="#D38E1F" fill-opacity="0.7"/>
<path d="M240.229 63.3184L240.107 97.431L239.864 63.3184H240.229Z" fill="#D38E1F" fill-opacity="0.7"/>
<path d="M243.999 63.5612L243.756 107.386L243.635 63.5612H243.999Z" fill="#D38E1F" fill-opacity="0.7"/>
<path d="M245.338 63.6826L245.216 103.744L245.095 63.6826H245.338Z" fill="#D38E1F" fill-opacity="0.7"/>
<path d="M228.796 117.097L228.917 73.6372L229.039 117.097H228.796Z" fill="#D38E1F" fill-opacity="0.7"/>
<path d="M241.688 108.721L241.931 71.5734L242.053 108.721H241.688Z" fill="#D38E1F" fill-opacity="0.7"/>
<path d="M157.274 103.744C158.247 103.622 159.099 103.622 160.072 103.622C161.045 103.622 161.897 103.622 162.87 103.744C161.897 103.865 161.045 103.865 160.072 103.865C159.099 103.865 158.126 103.865 157.274 103.744Z" fill="#D38E1F" fill-opacity="0.7"/>
<path d="M157.76 103.258C157.882 103.622 157.882 103.986 157.882 104.351C157.882 104.715 157.882 105.079 157.76 105.443C157.639 105.079 157.639 104.715 157.639 104.351C157.639 103.986 157.639 103.622 157.76 103.258Z" fill="#D38E1F" fill-opacity="0.7"/>
<path d="M156.909 104.836C157.882 104.715 158.855 104.715 159.828 104.715C160.801 104.715 161.775 104.715 162.748 104.836C161.775 104.958 160.801 104.958 159.828 104.958C158.855 105.079 157.882 104.958 156.909 104.836Z" fill="#D38E1F" fill-opacity="0.7"/>
<path d="M162.261 103.379C162.383 103.744 162.383 104.108 162.383 104.472C162.383 104.836 162.383 105.2 162.261 105.565C162.14 105.2 162.14 104.836 162.14 104.472C162.14 104.108 162.14 103.744 162.261 103.379Z" fill="#D38E1F" fill-opacity="0.7"/>
</g>
</g>
<defs>
<clipPath id="clip0_180_6455">
<rect width="488" height="251" fill="white"/>
</clipPath>
</defs>
</svg>
