<svg width="37" height="37" viewBox="0 0 37 37" fill="none" xmlns="http://www.w3.org/2000/svg">
<g clip-path="url(#clip0_89_567)">
<path d="M32.8889 5.13892H4.11111C3.02078 5.13892 1.9751 5.57205 1.20412 6.34303C0.433134 7.11402 0 8.15969 0 9.25003L0 18.5H37V9.25003C37 8.15969 36.5669 7.11402 35.7959 6.34303C35.0249 5.57205 33.9792 5.13892 32.8889 5.13892Z" fill="#EEEEEE"/>
<path d="M0 27.75C0 28.8403 0.433134 29.886 1.20412 30.657C1.9751 31.428 3.02078 31.8611 4.11111 31.8611H32.8889C33.9792 31.8611 35.0249 31.428 35.7959 30.657C36.5669 29.886 37 28.8403 37 27.75V18.5H0V27.75Z" fill="#DC143C"/>
</g>
<defs>
<clipPath id="clip0_89_567">
<rect width="37" height="37" fill="white"/>
</clipPath>
</defs>
</svg>
