<svg width="37" height="37" viewBox="0 0 37 37" fill="none" xmlns="http://www.w3.org/2000/svg">
<path d="M37 27.75C37 28.8404 36.5669 29.886 35.7959 30.657C35.0249 31.428 33.9792 31.8611 32.8889 31.8611H4.11111C3.02078 31.8611 1.9751 31.428 1.20412 30.657C0.433134 29.886 0 28.8404 0 27.75V9.25003C0 8.15969 0.433134 7.11402 1.20412 6.34303C1.9751 5.57205 3.02078 5.13892 4.11111 5.13892H32.8889C33.9792 5.13892 35.0249 5.57205 35.7959 6.34303C36.5669 7.11402 37 8.15969 37 9.25003V27.75Z" fill="#E30917"/>
<path d="M16.4443 24.6667C14.8088 24.6667 13.2403 24.017 12.0839 22.8605C10.9274 21.704 10.2777 20.1355 10.2777 18.5C10.2777 16.8645 10.9274 15.296 12.0839 14.1395C13.2403 12.983 14.8088 12.3333 16.4443 12.3333C17.7907 12.3333 19.0343 12.7701 20.0488 13.5029C19.3415 12.6984 18.4709 12.054 17.4949 11.6125C16.5189 11.171 15.46 10.9427 14.3888 10.9427C12.3845 10.9427 10.4623 11.739 9.04501 13.1562C7.62775 14.5735 6.83154 16.4957 6.83154 18.5C6.83141 19.4925 7.02678 20.4753 7.40651 21.3923C7.78624 22.3094 8.34288 23.1426 9.04465 23.8444C9.74642 24.5463 10.5796 25.1031 11.4965 25.4829C12.4135 25.8628 13.3963 26.0583 14.3888 26.0583C16.6448 26.0583 18.6643 25.0644 20.0488 23.4971C19.001 24.2579 17.7392 24.6674 16.4443 24.6667ZM20.466 18.7364L22.9738 19.314L23.1999 21.8762L24.5237 19.6706L27.0315 20.2472L25.3418 18.3068L26.6646 16.1001L24.2976 17.1074L22.6079 15.1659L22.834 17.7292L20.466 18.7364Z" fill="#EEEEEE"/>
</svg>
