<svg width="47" height="47" viewBox="0 0 47 47" fill="none" xmlns="http://www.w3.org/2000/svg">
<circle cx="23.45" cy="23.45" r="22.95" stroke="#E49216" stroke-opacity="0.88"/>
<g clip-path="url(#clip0_217_1440)">
<path d="M25.7798 35.651H26.2798V35.151V26.5046C26.2798 26.3519 26.4036 26.228 26.5564 26.228H29.8331H30.2235L30.3182 25.8493L30.7065 24.296L30.8618 23.6748H30.2214H26.5564C26.4036 23.6748 26.2798 23.5509 26.2798 23.3981V20.2916C26.2798 19.2831 27.1011 18.4618 28.1096 18.4618H30.4395H30.9395V17.9618V16.4085V15.9085H30.4395H28.1096C25.6923 15.9085 23.7265 17.8744 23.7265 20.2916V23.3981C23.7265 23.5509 23.6027 23.6748 23.4499 23.6748H21.12H20.62V24.1748V25.728V26.228H21.12H23.4499C23.6027 26.228 23.7265 26.3519 23.7265 26.5046V35.151V35.651H24.2265H25.7798ZM26.833 35.151V35.651H27.333H32.8211C34.382 35.651 35.651 34.382 35.651 32.8211V14.0787C35.651 12.5178 34.382 11.2488 32.8211 11.2488H14.0787C12.5178 11.2488 11.2488 12.5178 11.2488 14.0787V32.8211C11.2488 34.382 12.5178 35.651 14.0787 35.651H22.6733H23.1733V35.151V27.2761V26.7761H22.6733H20.3434C20.1863 26.7761 20.0668 26.653 20.0668 26.5046V23.3981C20.0668 23.2454 20.1907 23.1215 20.3434 23.1215H22.6733H23.1733V22.6215V20.2916C23.1733 17.5702 25.3882 15.3553 28.1096 15.3553H31.2161C31.3689 15.3553 31.4927 15.4792 31.4927 15.6319V18.7384C31.4927 18.8912 31.3689 19.015 31.2161 19.015H28.1096C27.4053 19.015 26.833 19.5873 26.833 20.2916V22.6215V23.1215H27.333H31.2161C31.3957 23.1215 31.528 23.2911 31.4845 23.4652L31.4845 23.4652L30.7079 26.5717L30.7079 26.5717C30.6771 26.6948 30.5664 26.7812 30.4395 26.7812H27.333H26.833V27.2812V35.151ZM14.0787 10.6956H32.8211C34.6861 10.6956 36.2043 12.2137 36.2043 14.0787V32.8211C36.2043 34.6861 34.6861 36.2043 32.8211 36.2043H14.0787C12.2137 36.2043 10.6956 34.6861 10.6956 32.8211V14.0787C10.6956 12.2137 12.2137 10.6956 14.0787 10.6956Z" stroke="url(#paint0_linear_217_1440)" stroke-linecap="round"/>
</g>
<defs>
<linearGradient id="paint0_linear_217_1440" x1="10.1956" y1="-122.342" x2="37.6909" y2="-122.342" gradientUnits="userSpaceOnUse">
<stop stop-color="#D38E1F"/>
<stop offset="1" stop-color="#F8F0E3" stop-opacity="0.88"/>
</linearGradient>
<clipPath id="clip0_217_1440">
<rect width="26.5087" height="26.5087" fill="white" transform="translate(10.1956 10.1956)"/>
</clipPath>
</defs>
</svg>
