<svg width="36" height="36" viewBox="0 0 36 36" fill="none" xmlns="http://www.w3.org/2000/svg">
<path d="M9.255 8.00001H9.60879L9.72651 7.66638C10.002 6.88564 10.5129 6.20957 11.1887 5.73136C11.8645 5.25314 12.6721 4.99634 13.5 4.99634C14.3279 4.99634 15.1355 5.25314 15.8113 5.73136C16.4871 6.20957 16.998 6.88564 17.2735 7.66638L17.3912 8.00001H17.745H28.5C28.7652 8.00001 29.0196 8.10537 29.2071 8.29291C29.3946 8.48044 29.5 8.7348 29.5 9.00001C29.5 9.26523 29.3946 9.51958 29.2071 9.70712C29.0196 9.89466 28.7652 10 28.5 10H17.745H17.3912L17.2735 10.3336C16.998 11.1144 16.4871 11.7905 15.8113 12.2687C15.1355 12.7469 14.3279 13.0037 13.5 13.0037C12.6721 13.0037 11.8645 12.7469 11.1887 12.2687C10.5129 11.7905 10.002 11.1144 9.72651 10.3336L9.60879 10H9.255H7.5C7.23478 10 6.98043 9.89466 6.79289 9.70712C6.60536 9.51958 6.5 9.26523 6.5 9.00001C6.5 8.7348 6.60536 8.48044 6.79289 8.29291C6.98043 8.10537 7.23478 8.00001 7.5 8.00001H9.255ZM18.255 17H18.6088L18.7265 16.6664C19.002 15.8856 19.5129 15.2096 20.1887 14.7314C20.8645 14.2531 21.6721 13.9963 22.5 13.9963C23.3279 13.9963 24.1355 14.2531 24.8113 14.7314C25.4871 15.2096 25.998 15.8856 26.2735 16.6664L26.3912 17H26.745H28.5C28.7652 17 29.0196 17.1054 29.2071 17.2929C29.3946 17.4804 29.5 17.7348 29.5 18C29.5 18.2652 29.3946 18.5196 29.2071 18.7071C29.0196 18.8947 28.7652 19 28.5 19H26.745H26.3912L26.2735 19.3336C25.998 20.1144 25.4871 20.7905 24.8113 21.2687C24.1355 21.7469 23.3279 22.0037 22.5 22.0037C21.6721 22.0037 20.8645 21.7469 20.1887 21.2687C19.5129 20.7905 19.002 20.1144 18.7265 19.3336L18.6088 19H18.255H7.5C7.23479 19 6.98043 18.8947 6.79289 18.7071C6.60536 18.5196 6.5 18.2652 6.5 18C6.5 17.7348 6.60536 17.4804 6.79289 17.2929C6.98043 17.1054 7.23478 17 7.5 17H18.255ZM12.0858 28.4142L12.4393 28.0607L12.0858 28.4142C12.4609 28.7893 12.9696 29 13.5 29C14.0304 29 14.5391 28.7893 14.9142 28.4142C15.2893 28.0392 15.5 27.5304 15.5 27C15.5 26.4696 15.2893 25.9609 14.9142 25.5858C14.5391 25.2107 14.0304 25 13.5 25C12.9696 25 12.4609 25.2107 12.0858 25.5858C11.7107 25.9609 11.5 26.4696 11.5 27C11.5 27.5304 11.7107 28.0392 12.0858 28.4142ZM9.255 26H9.60879L9.72651 25.6664C10.002 24.8856 10.5129 24.2096 11.1887 23.7314C11.8645 23.2531 12.6721 22.9963 13.5 22.9963C14.3279 22.9963 15.1355 23.2531 15.8113 23.7314C16.4871 24.2096 16.998 24.8856 17.2735 25.6664L17.3912 26H17.745H28.5C28.7652 26 29.0196 26.1054 29.2071 26.2929C29.3946 26.4804 29.5 26.7348 29.5 27C29.5 27.2652 29.3946 27.5196 29.2071 27.7071C29.0196 27.8947 28.7652 28 28.5 28H17.745H17.3912L17.2735 28.3336C16.998 29.1144 16.4871 29.7905 15.8113 30.2687C15.1355 30.7469 14.3279 31.0037 13.5 31.0037C12.6721 31.0037 11.8645 30.7469 11.1887 30.2687C10.5129 29.7905 10.002 29.1144 9.72651 28.3336L9.60879 28H9.255H7.5C7.23478 28 6.98043 27.8947 6.79289 27.7071C6.60536 27.5196 6.5 27.2652 6.5 27C6.5 26.7348 6.60536 26.4804 6.79289 26.2929C6.98043 26.1054 7.23478 26 7.5 26H9.255ZM13.5 7.00001C12.9696 7.00001 12.4609 7.21073 12.0858 7.5858C11.7107 7.96087 11.5 8.46958 11.5 9.00001C11.5 9.53045 11.7107 10.0392 12.0858 10.4142C12.4609 10.7893 12.9696 11 13.5 11C14.0304 11 14.5391 10.7893 14.9142 10.4142C15.2893 10.0392 15.5 9.53045 15.5 9.00001C15.5 8.46958 15.2893 7.96087 14.9142 7.5858C14.5391 7.21073 14.0304 7.00001 13.5 7.00001ZM22.5 16C21.9696 16 21.4609 16.2107 21.0858 16.5858C20.7107 16.9609 20.5 17.4696 20.5 18C20.5 18.5304 20.7107 19.0392 21.0858 19.4142C21.4609 19.7893 21.9696 20 22.5 20C23.0304 20 23.5391 19.7893 23.9142 19.4142C24.2893 19.0392 24.5 18.5304 24.5 18C24.5 17.4696 24.2893 16.9609 23.9142 16.5858C23.5391 16.2107 23.0304 16 22.5 16Z" fill="#D38E1F" stroke="white"/>
</svg>
