<svg width="249" height="206" viewBox="0 0 249 206" fill="none" xmlns="http://www.w3.org/2000/svg">
<path d="M89.9097 10.7402V143.736" stroke="#D38E1F" stroke-opacity="0.4" stroke-width="0.7016" stroke-miterlimit="10" stroke-linecap="round"/>
<path d="M100.688 11.709V143.736" stroke="#D38E1F" stroke-opacity="0.4" stroke-width="0.7016" stroke-miterlimit="10" stroke-linecap="round"/>
<path d="M0.780518 156.924C1.59822 156.849 94.8159 142.917 94.8159 142.917L248.469 164.226V165.12L94.7416 145.375L0.780518 158.042V156.924V156.924Z" stroke="#D38E1F" stroke-opacity="0.4" stroke-width="0.7016" stroke-miterlimit="10" stroke-linecap="round"/>
<path d="M1.52386 157.967C2.34156 157.892 94.7415 145.45 94.7415 145.45L247.726 165.12V166.014L94.6672 147.908L1.44952 159.085V157.967H1.52386Z" stroke="#D38E1F" stroke-opacity="0.4" stroke-width="0.5896" stroke-miterlimit="10" stroke-linecap="round"/>
<path d="M3.01062 158.861C3.82832 158.787 94.6672 147.908 94.6672 147.908L246.239 165.79V166.684L94.5929 150.367L3.01062 159.979V158.861Z" stroke="#D38E1F" stroke-opacity="0.4" stroke-width="0.5823" stroke-miterlimit="10" stroke-linecap="round"/>
<path d="M6.65308 159.606V165.12L94.2212 155.136L246.239 170.633V166.684L94.5929 150.367L6.65308 159.606Z" stroke="#D38E1F" stroke-opacity="0.4" stroke-width="0.5823" stroke-miterlimit="10" stroke-linecap="round"/>
<path d="M6.65308 165.119H10.8159L94.2212 156.179L246.239 170.633L94.2212 155.135L6.65308 165.119Z" stroke="#D38E1F" stroke-opacity="0.4" stroke-width="0.3742" stroke-miterlimit="10" stroke-linecap="round"/>
<path d="M88.423 156.775V159.159H89.4637V204.907L93.9239 205.205L99.5734 204.832V159.606H100.688V156.775L94.2212 156.179L88.423 156.775Z" stroke="#D38E1F" stroke-opacity="0.4" stroke-width="0.3742" stroke-miterlimit="10" stroke-linecap="round"/>
<path d="M8.06549 168.472L94.2212 161.245L99.5735 161.692" stroke="#D38E1F" stroke-opacity="0.4" stroke-width="0.3742" stroke-miterlimit="10" stroke-linecap="round"/>
<path d="M8.06549 169.292L94.2212 162.437L99.5735 162.884" stroke="#D38E1F" stroke-opacity="0.4" stroke-width="0.3742" stroke-miterlimit="10" stroke-linecap="round"/>
<path d="M89.4637 200.809H94.1469H99.5734" stroke="#D38E1F" stroke-opacity="0.4" stroke-width="0.3742" stroke-miterlimit="10" stroke-linecap="round"/>
<path d="M94.2212 162.437V200.809" stroke="#D38E1F" stroke-opacity="0.4" stroke-width="0.3742" stroke-miterlimit="10" stroke-linecap="round"/>
<path d="M89.4637 204.162L7.76813 201.777V165.12" stroke="#D38E1F" stroke-opacity="0.4" stroke-width="0.3742" stroke-miterlimit="10" stroke-linecap="round"/>
<path d="M69.0212 158.861V203.565L67.2371 204.087V161.99C67.2371 161.99 65.8247 160.128 66.3451 158.339L69.0212 158.861Z" stroke="#D38E1F" stroke-opacity="0.4" stroke-width="0.3742" stroke-miterlimit="10" stroke-linecap="round"/>
<path d="M62.4053 158.786C61.8849 160.575 63.2973 162.437 63.2973 162.437V203.863L67.2371 204.087" stroke="#D38E1F" stroke-opacity="0.4" stroke-width="0.3742" stroke-miterlimit="10" stroke-linecap="round"/>
<path d="M45.9769 161.32V202.895L44.3416 203.342V164.151C44.3416 164.151 43.0035 162.437 43.5239 160.724L45.9769 161.32Z" stroke="#D38E1F" stroke-opacity="0.4" stroke-width="0.5533" stroke-miterlimit="10" stroke-linecap="round"/>
<path d="M40.6991 161.32C40.2531 162.959 41.5168 164.747 41.5168 164.747V203.267L44.2672 203.342" stroke="#D38E1F" stroke-opacity="0.4" stroke-width="0.5533" stroke-miterlimit="10" stroke-linecap="round"/>
<path d="M45.9769 161.32V202.895L44.3416 203.342V164.151C44.3416 164.151 43.0035 162.437 43.5239 160.724L45.9769 161.32Z" stroke="#D38E1F" stroke-opacity="0.4" stroke-width="0.5533" stroke-miterlimit="10" stroke-linecap="round"/>
<path d="M40.6991 161.32C40.2531 162.959 41.5168 164.747 41.5168 164.747V203.267L44.2672 203.342" stroke="#D38E1F" stroke-opacity="0.4" stroke-width="0.5533" stroke-miterlimit="10" stroke-linecap="round"/>
<path d="M26.2779 163.48V202.373L24.9398 202.82V166.237C24.9398 166.237 23.8248 164.747 24.2708 163.108L26.2779 163.48Z" stroke="#D38E1F" stroke-opacity="0.4" stroke-width="0.5024" stroke-miterlimit="10" stroke-linecap="round"/>
<path d="M21.9664 163.406C21.5947 165.045 22.6354 166.833 22.6354 166.833V202.746L24.9398 202.82" stroke="#D38E1F" stroke-opacity="0.4" stroke-width="0.5024" stroke-miterlimit="10" stroke-linecap="round"/>
<path d="M11.039 165.12V201.852L9.77524 202.299V167.802C9.77524 167.802 8.73453 166.386 9.10621 164.822L11.039 165.12Z" stroke="#D38E1F" stroke-opacity="0.4" stroke-width="0.2339" stroke-miterlimit="10"/>
<path d="M6.87611 165.12C6.50442 166.684 7.54513 168.398 7.54513 168.398V202.224L9.70088 202.299" stroke="#D38E1F" stroke-opacity="0.4" stroke-width="0.2339" stroke-miterlimit="10"/>
<path d="M69.0212 200.51L7.5451 199.691" stroke="#D38E1F" stroke-opacity="0.4" stroke-width="0.2339" stroke-miterlimit="10"/>
<path d="M205.354 170.708L99.5734 161.692" stroke="#D38E1F" stroke-opacity="0.4" stroke-width="0.3742" stroke-miterlimit="10" stroke-linecap="round"/>
<path d="M246.239 174.209L223.269 172.272" stroke="#D38E1F" stroke-opacity="0.4" stroke-width="0.3742" stroke-miterlimit="10" stroke-linecap="round"/>
<path d="M205.354 171.602L99.5734 162.884" stroke="#D38E1F" stroke-opacity="0.4" stroke-width="0.3742" stroke-miterlimit="10" stroke-linecap="round"/>
<path d="M246.239 175.029L223.269 173.092" stroke="#D38E1F" stroke-opacity="0.4" stroke-width="0.3742" stroke-miterlimit="10" stroke-linecap="round"/>
<path d="M99.6478 204.161L246.239 199.02V170.633" stroke="#D38E1F" stroke-opacity="0.4" stroke-width="0.3742" stroke-miterlimit="10" stroke-linecap="round"/>
<path d="M132.579 159.83V203.267L134.363 203.715V162.884C134.363 162.884 135.775 161.022 135.255 159.308L132.579 159.83Z" stroke="#D38E1F" stroke-opacity="0.4" stroke-width="0.5866" stroke-miterlimit="10" stroke-linecap="round"/>
<path d="M139.195 159.308C139.715 161.022 138.303 163.406 138.303 163.406V203.565L134.363 203.789" stroke="#D38E1F" stroke-opacity="0.4" stroke-width="0.5866" stroke-miterlimit="10" stroke-linecap="round"/>
<path d="M162.759 162.735V202.075L164.395 202.522V165.567C164.395 165.567 165.658 164.002 165.212 162.437L162.759 162.735Z" stroke="#D38E1F" stroke-opacity="0.4" stroke-width="0.54" stroke-miterlimit="10" stroke-linecap="round"/>
<path d="M167.963 162.661C168.409 164.226 167.145 165.865 167.145 165.865V202.448L164.395 202.522" stroke="#D38E1F" stroke-opacity="0.4" stroke-width="0.54" stroke-miterlimit="10" stroke-linecap="round"/>
<path d="M184.688 164.747V201.33L186.027 201.777V167.429C186.027 167.429 187.142 166.312 186.696 164.673L184.688 164.747Z" stroke="#D38E1F" stroke-opacity="0.4" stroke-width="0.4913" stroke-miterlimit="10" stroke-linecap="round"/>
<path d="M189 164.673C189.372 166.237 188.331 167.578 188.331 167.578V201.628L186.026 201.703" stroke="#D38E1F" stroke-opacity="0.4" stroke-width="0.4913" stroke-miterlimit="10" stroke-linecap="round"/>
<path d="M223.269 198.126L246.239 197.605" stroke="#D38E1F" stroke-opacity="0.4" stroke-width="0.2339" stroke-miterlimit="10"/>
<path d="M99.5734 200.809L205.354 198.499" stroke="#D38E1F" stroke-opacity="0.4" stroke-width="0.2339" stroke-miterlimit="10"/>
<path d="M3.53094 63.566L94.2212 1.27783L242.002 100.075V102.012L94.2212 4.10911L3.53094 65.5777V63.566Z" stroke="#D38E1F" stroke-opacity="0.4" stroke-width="0.7016" stroke-miterlimit="10" stroke-linecap="round" stroke-linejoin="round"/>
<path d="M3.53094 65.5777H6.65307L94.2212 7.83447L239.326 102.012H242.002" stroke="#D38E1F" stroke-opacity="0.4" stroke-width="0.3742" stroke-miterlimit="10" stroke-linecap="round"/>
<path d="M94.2212 7.83447V142.916" stroke="#D38E1F" stroke-opacity="0.4" stroke-width="0.7016" stroke-miterlimit="10" stroke-linecap="round"/>
<path d="M6.65308 65.5776V156.179" stroke="#D38E1F" stroke-opacity="0.4" stroke-width="0.3742" stroke-miterlimit="10" stroke-linecap="round"/>
<path d="M239.326 102.012V162.959" stroke="#D38E1F" stroke-opacity="0.4" stroke-width="0.3742" stroke-miterlimit="10" stroke-linecap="round"/>
<path d="M23.6017 52.0173V153.645" stroke="#D38E1F" stroke-opacity="0.4" stroke-width="0.3742" stroke-miterlimit="10" stroke-linecap="round"/>
<path d="M25.8318 153.347V50.4526L27.8389 51.6448V153.049" stroke="#D38E1F" stroke-opacity="0.4" stroke-width="0.3742" stroke-miterlimit="10" stroke-linecap="round"/>
<path d="M3.53094 65.6521V156.551" stroke="#D38E1F" stroke-opacity="0.4" stroke-width="0.7016" stroke-miterlimit="10" stroke-linecap="round"/>
<path d="M5.83539 156.253V64.1619L7.76813 64.8324V155.806" stroke="#D38E1F" stroke-opacity="0.4" stroke-width="0.3742" stroke-miterlimit="10" stroke-linecap="round"/>
<path d="M41.8141 39.5747V150.963" stroke="#D38E1F" stroke-opacity="0.4" stroke-width="0.6766" stroke-miterlimit="10" stroke-linecap="round"/>
<path d="M44.7876 150.516V37.6375L47.315 38.7551V150.144" stroke="#D38E1F" stroke-opacity="0.4" stroke-width="0.6766" stroke-miterlimit="10" stroke-linecap="round"/>
<path d="M64.2637 24.3752V147.312" stroke="#D38E1F" stroke-opacity="0.4" stroke-width="0.6766" stroke-miterlimit="10" stroke-linecap="round"/>
<path d="M67.1628 147.163V22.438L69.6902 24.0026V146.791" stroke="#D38E1F" stroke-opacity="0.4" stroke-width="0.6766" stroke-miterlimit="10" stroke-linecap="round"/>
<path d="M188.851 66.6953V155.955" stroke="#D38E1F" stroke-opacity="0.4" stroke-width="0.3742" stroke-miterlimit="10" stroke-linecap="round"/>
<path d="M186.547 155.657V65.2051L184.614 66.5462V155.434" stroke="#D38E1F" stroke-opacity="0.4" stroke-width="0.3742" stroke-miterlimit="10" stroke-linecap="round"/>
<path d="M208.848 79.8831V158.712" stroke="#D38E1F" stroke-opacity="0.4" stroke-width="0.3742" stroke-miterlimit="10" stroke-linecap="round"/>
<path d="M206.618 158.414V78.542L204.611 79.4361V158.116" stroke="#D38E1F" stroke-opacity="0.4" stroke-width="0.3742" stroke-miterlimit="10" stroke-linecap="round"/>
<path d="M223.269 89.3455V160.724" stroke="#D38E1F" stroke-opacity="0.4" stroke-width="0.3742" stroke-miterlimit="10" stroke-linecap="round"/>
<path d="M221.039 160.426V88.0044L219.106 88.8985V160.128" stroke="#D38E1F" stroke-opacity="0.4" stroke-width="0.3742" stroke-miterlimit="10" stroke-linecap="round"/>
<path d="M242.002 101.788V163.406" stroke="#D38E1F" stroke-opacity="0.4" stroke-width="0.7016" stroke-miterlimit="10" stroke-linecap="round"/>
<path d="M239.772 163.033V100.447L237.839 101.341V162.884" stroke="#D38E1F" stroke-opacity="0.4" stroke-width="0.3742" stroke-miterlimit="10" stroke-linecap="round"/>
<path d="M166.327 51.8684V152.826" stroke="#D38E1F" stroke-opacity="0.4" stroke-width="0.6766" stroke-miterlimit="10" stroke-linecap="round"/>
<path d="M163.428 152.453V49.9312L160.827 51.0488V152.081" stroke="#D38E1F" stroke-opacity="0.4" stroke-width="0.6766" stroke-miterlimit="10" stroke-linecap="round"/>
<path d="M138.08 33.167V148.951" stroke="#D38E1F" stroke-opacity="0.4" stroke-width="0.6766" stroke-miterlimit="10" stroke-linecap="round"/>
<path d="M135.106 148.504V31.2297L132.579 32.7944V148.206" stroke="#D38E1F" stroke-opacity="0.4" stroke-width="0.6766" stroke-miterlimit="10" stroke-linecap="round"/>
<path d="M233.75 169.441V199.542L235.014 199.989V172.347C235.014 172.347 236.055 171.229 235.683 169.664L233.75 169.441Z" stroke="#D38E1F" stroke-opacity="0.4" stroke-width="0.2339" stroke-miterlimit="10"/>
<path d="M237.839 169.739C238.285 171.453 237.17 172.421 237.17 172.421V199.84L235.014 199.915" stroke="#D38E1F" stroke-opacity="0.4" stroke-width="0.2339" stroke-miterlimit="10"/>
<path d="M22.6354 176.519L11.0389 177.115" stroke="#D38E1F" stroke-opacity="0.4" stroke-width="0.2339" stroke-miterlimit="10"/>
<path d="M22.6354 194.103L11.0389 193.805" stroke="#D38E1F" stroke-opacity="0.4" stroke-width="0.2339" stroke-miterlimit="10"/>
<path d="M22.6354 195.072H11.0389" stroke="#D38E1F" stroke-opacity="0.4" stroke-width="0.2339" stroke-miterlimit="10"/>
<path d="M12.377 177.115V193.879" stroke="#D38E1F" stroke-opacity="0.4" stroke-width="0.2339" stroke-miterlimit="10"/>
<path d="M26.2778 193.954L41.5911 193.879" stroke="#D38E1F" stroke-opacity="0.4" stroke-width="0.2339" stroke-miterlimit="10"/>
<path d="M26.2778 194.848H41.5911" stroke="#D38E1F" stroke-opacity="0.4" stroke-width="0.2339" stroke-miterlimit="10"/>
<path d="M26.2778 176.221L41.5911 175.625" stroke="#D38E1F" stroke-opacity="0.4" stroke-width="0.2339" stroke-miterlimit="10"/>
<path d="M27.9876 176.147L28.0619 193.954" stroke="#D38E1F" stroke-opacity="0.4" stroke-width="0.2339" stroke-miterlimit="10"/>
<path d="M45.977 175.476L63.5204 175.029" stroke="#D38E1F" stroke-opacity="0.4" stroke-width="0.2339" stroke-miterlimit="10"/>
<path d="M45.977 193.656L63.0743 193.581" stroke="#D38E1F" stroke-opacity="0.4" stroke-width="0.2339" stroke-miterlimit="10"/>
<path d="M45.977 194.625L63.2973 194.55" stroke="#D38E1F" stroke-opacity="0.4" stroke-width="0.2339" stroke-miterlimit="10"/>
<path d="M47.6867 175.402V193.432" stroke="#D38E1F" stroke-opacity="0.4" stroke-width="0.2339" stroke-miterlimit="10"/>
<path d="M69.0212 174.507L89.4637 174.209" stroke="#D38E1F" stroke-opacity="0.4" stroke-width="0.2339" stroke-miterlimit="10"/>
<path d="M78.3133 174.359V203.864" stroke="#D38E1F" stroke-opacity="0.4" stroke-width="0.2339" stroke-miterlimit="10"/>
<path d="M70.5079 175.923H76.9009V195.817H70.8796L70.5079 175.923Z" stroke="#D38E1F" stroke-opacity="0.4" stroke-width="0.2339" stroke-miterlimit="10"/>
<path d="M79.5026 175.923V195.817H88.0513V175.7L79.5026 175.923Z" stroke="#D38E1F" stroke-opacity="0.4" stroke-width="0.2339" stroke-miterlimit="10"/>
<path d="M132.579 196.934L99.5734 197.605" stroke="#D38E1F" stroke-opacity="0.4" stroke-width="0.2339" stroke-miterlimit="10"/>
<path d="M99.6478 195.817L132.579 195.295" stroke="#D38E1F" stroke-opacity="0.4" stroke-width="0.2339" stroke-miterlimit="10"/>
<path d="M99.6478 173.688L132.579 174.21" stroke="#D38E1F" stroke-opacity="0.4" stroke-width="0.2339" stroke-miterlimit="10"/>
<path d="M131.166 173.911V195.295" stroke="#D38E1F" stroke-opacity="0.4" stroke-width="0.2339" stroke-miterlimit="10"/>
<path d="M138.303 174.209L162.536 175.029" stroke="#D38E1F" stroke-opacity="0.4" stroke-width="0.2339" stroke-miterlimit="10"/>
<path d="M138.303 195.072L162.759 194.923" stroke="#D38E1F" stroke-opacity="0.4" stroke-width="0.2339" stroke-miterlimit="10"/>
<path d="M138.303 196.413L162.759 196.264" stroke="#D38E1F" stroke-opacity="0.4" stroke-width="0.2339" stroke-miterlimit="10"/>
<path d="M161.198 175.029V194.923" stroke="#D38E1F" stroke-opacity="0.4" stroke-width="0.2339" stroke-miterlimit="10"/>
<path d="M167.145 194.923H184.689" stroke="#D38E1F" stroke-opacity="0.4" stroke-width="0.2339" stroke-miterlimit="10"/>
<path d="M167.145 196.413L184.689 196.264" stroke="#D38E1F" stroke-opacity="0.4" stroke-width="0.2339" stroke-miterlimit="10"/>
<path d="M167.145 175.029L184.689 175.476" stroke="#D38E1F" stroke-opacity="0.4" stroke-width="0.2339" stroke-miterlimit="10"/>
<path d="M183.573 175.476V194.922" stroke="#D38E1F" stroke-opacity="0.4" stroke-width="0.2339" stroke-miterlimit="10"/>
<path d="M205.354 166.684V200.436" stroke="#D38E1F" stroke-opacity="0.4" stroke-width="0.3742" stroke-miterlimit="10" stroke-linecap="round"/>
<path d="M223.269 168.249V199.84" stroke="#D38E1F" stroke-opacity="0.4" stroke-width="0.3742" stroke-miterlimit="10" stroke-linecap="round"/>
<path d="M208.476 200.361V170.26L220.667 171.229V199.84" stroke="#D38E1F" stroke-opacity="0.4" stroke-width="0.2339" stroke-miterlimit="10"/>
<path d="M188.331 194.923H205.354" stroke="#D38E1F" stroke-opacity="0.4" stroke-width="0.2339" stroke-miterlimit="10"/>
<path d="M188.331 196.264L205.354 196.04" stroke="#D38E1F" stroke-opacity="0.4" stroke-width="0.2339" stroke-miterlimit="10"/>
<path d="M188.331 175.476L205.354 176.296" stroke="#D38E1F" stroke-opacity="0.4" stroke-width="0.2339" stroke-miterlimit="10"/>
<path d="M204.165 176.221V194.923" stroke="#D38E1F" stroke-opacity="0.4" stroke-width="0.2339" stroke-miterlimit="10"/>
<path d="M223.269 177.19L233.75 177.637" stroke="#D38E1F" stroke-opacity="0.4" stroke-width="0.2339" stroke-miterlimit="10"/>
<path d="M223.269 194.326H233.75" stroke="#D38E1F" stroke-opacity="0.4" stroke-width="0.2339" stroke-miterlimit="10"/>
<path d="M223.269 195.221L233.75 195.072" stroke="#D38E1F" stroke-opacity="0.4" stroke-width="0.2339" stroke-miterlimit="10"/>
<path d="M232.635 177.637V194.177" stroke="#D38E1F" stroke-opacity="0.4" stroke-width="0.2339" stroke-miterlimit="10"/>
<path d="M19.4389 68.26V82.938" stroke="#D38E1F" stroke-opacity="0.4" stroke-width="0.3742" stroke-miterlimit="10" stroke-linecap="round"/>
<path d="M19.4389 89.4946V104.173" stroke="#D38E1F" stroke-opacity="0.4" stroke-width="0.3742" stroke-miterlimit="10" stroke-linecap="round"/>
<path d="M19.4389 112.592V127.27" stroke="#D38E1F" stroke-opacity="0.4" stroke-width="0.3742" stroke-miterlimit="10" stroke-linecap="round"/>
<path d="M19.4389 133.976V148.654" stroke="#D38E1F" stroke-opacity="0.4" stroke-width="0.3742" stroke-miterlimit="10" stroke-linecap="round"/>
<path d="M219.106 199.989V171.08" stroke="#D38E1F" stroke-opacity="0.4" stroke-width="0.2339" stroke-miterlimit="10"/>
<path d="M102.324 165.865L102.027 171.602L129.531 172.123V167.057L102.324 165.865Z" stroke="#D38E1F" stroke-opacity="0.4" stroke-width="0.2339" stroke-miterlimit="10"/>
<path d="M87.0849 165.865V171.602C87.0849 171.602 71.177 172.272 71.4 172.049C71.623 171.825 71.2513 167.429 71.4 167.206C71.5487 167.057 87.0849 165.865 87.0849 165.865Z" stroke="#D38E1F" stroke-opacity="0.4" stroke-width="0.2339" stroke-miterlimit="10"/>
<path d="M60.9929 173.166L48.1328 173.912V168.473L60.9929 166.684V173.166Z" stroke="#D38E1F" stroke-opacity="0.4" stroke-width="0.2339" stroke-miterlimit="10"/>
<path d="M39.4354 173.911L27.9876 174.358L27.8389 169.664L39.4354 168.994V173.911Z" stroke="#D38E1F" stroke-opacity="0.4" stroke-width="0.2339" stroke-miterlimit="10"/>
<path d="M21 175.402L12.377 175.7L12.154 171.229L21 170.335V175.402Z" stroke="#D38E1F" stroke-opacity="0.4" stroke-width="0.2339" stroke-miterlimit="10"/>
<path d="M139.864 172.123L160.826 173.092V169.665L139.864 167.951V172.123Z" stroke="#D38E1F" stroke-opacity="0.4" stroke-width="0.2339" stroke-miterlimit="10"/>
<path d="M169.375 173.241L182.979 173.911V171.08L169.375 170.26V173.241Z" stroke="#D38E1F" stroke-opacity="0.4" stroke-width="0.2339" stroke-miterlimit="10"/>
<path d="M189.818 174.21L203.496 175.029V172.645L189.818 171.602V174.21Z" stroke="#D38E1F" stroke-opacity="0.4" stroke-width="0.2339" stroke-miterlimit="10"/>
<path d="M224.458 176.221L232.338 176.743V175.029L224.458 174.582V176.221Z" stroke="#D38E1F" stroke-opacity="0.4" stroke-width="0.2339" stroke-miterlimit="10"/>
<path d="M195.244 68.7815V61.5543L189.446 56.0408V64.9072" stroke="#D38E1F" stroke-opacity="0.4" stroke-width="0.3742" stroke-miterlimit="10" stroke-linecap="round"/>
<path d="M189.446 56.0408L183.573 60.6602" stroke="#D38E1F" stroke-opacity="0.4" stroke-width="0.3742" stroke-miterlimit="10" stroke-linecap="round"/>
<path d="M23.6017 65.6521L18.3239 68.8559V83.4594L23.6017 81.0006" stroke="#D38E1F" stroke-opacity="0.4" stroke-width="0.2339" stroke-miterlimit="10" stroke-linecap="round"/>
<path d="M15.0531 85.0241V70.4951L9.25482 73.5499V87.6318L15.0531 85.0241Z" stroke="#D38E1F" stroke-opacity="0.4" stroke-width="0.2339" stroke-miterlimit="10" stroke-linecap="round"/>
<path d="M10.2955 73.0283V87.1847" stroke="#D38E1F" stroke-opacity="0.4" stroke-width="0.2339" stroke-miterlimit="10" stroke-linecap="round"/>
<path d="M41.8141 54.9231L36.5362 58.2759V74.146L41.8141 71.4637" stroke="#D38E1F" stroke-opacity="0.4" stroke-width="0.2339" stroke-miterlimit="10" stroke-linecap="round"/>
<path d="M35.2725 58.9465V74.7421L29.7716 77.2008V62.2994L35.2725 58.9465Z" stroke="#D38E1F" stroke-opacity="0.4" stroke-width="0.2339" stroke-miterlimit="10" stroke-linecap="round"/>
<path d="M30.6636 61.7778V76.8283" stroke="#D38E1F" stroke-opacity="0.4" stroke-width="0.2339" stroke-miterlimit="10" stroke-linecap="round"/>
<path d="M37.5769 57.6055V73.6246" stroke="#D38E1F" stroke-opacity="0.4" stroke-width="0.2339" stroke-miterlimit="10" stroke-linecap="round"/>
<path d="M54.9716 47.1743L48.1327 51.4212V68.0364L55.269 64.162L54.9716 47.1743Z" stroke="#D38E1F" stroke-opacity="0.4" stroke-width="0.2339" stroke-miterlimit="10" stroke-linecap="round"/>
<path d="M64.2636 59.6171L56.6813 63.417V46.0568L64.2636 41.3628" stroke="#D38E1F" stroke-opacity="0.4" stroke-width="0.2339" stroke-miterlimit="10" stroke-linecap="round"/>
<path d="M48.9504 50.8997V67.5148" stroke="#D38E1F" stroke-opacity="0.4" stroke-width="0.2339" stroke-miterlimit="10" stroke-linecap="round"/>
<path d="M57.6477 45.4607V62.8954" stroke="#D38E1F" stroke-opacity="0.4" stroke-width="0.2339" stroke-miterlimit="10" stroke-linecap="round"/>
<path d="M71.4 37.0414V55.8173L78.3132 52.0174V32.6455L71.4 37.0414Z" stroke="#D38E1F" stroke-opacity="0.4" stroke-width="0.2339" stroke-miterlimit="10" stroke-linecap="round"/>
<path d="M88.869 45.9823L80.469 50.7507V31.1553L88.869 25.4182V45.9823Z" stroke="#D38E1F" stroke-opacity="0.4" stroke-width="0.2339" stroke-miterlimit="10" stroke-linecap="round"/>
<path d="M72.292 36.5198V55.4447" stroke="#D38E1F" stroke-opacity="0.4" stroke-width="0.2339" stroke-miterlimit="10" stroke-linecap="round"/>
<path d="M81.2123 30.6338V50.3037" stroke="#D38E1F" stroke-opacity="0.4" stroke-width="0.2339" stroke-miterlimit="10" stroke-linecap="round"/>
<path d="M23.6017 87.4827L18.3239 90.0159V104.619L23.6017 102.757" stroke="#D38E1F" stroke-opacity="0.4" stroke-width="0.2339" stroke-miterlimit="10" stroke-linecap="round"/>
<path d="M15.0531 105.737V91.2827L9.25482 93.5924V107.674L15.0531 105.737Z" stroke="#D38E1F" stroke-opacity="0.4" stroke-width="0.2339" stroke-miterlimit="10" stroke-linecap="round"/>
<path d="M10.2955 93.2197V107.376" stroke="#D38E1F" stroke-opacity="0.4" stroke-width="0.2339" stroke-miterlimit="10" stroke-linecap="round"/>
<path d="M41.8141 78.8398L36.5362 81.5966V97.4667L41.8141 95.3805" stroke="#D38E1F" stroke-opacity="0.4" stroke-width="0.2339" stroke-miterlimit="10" stroke-linecap="round"/>
<path d="M35.2725 82.1182V97.9137L29.7716 99.7019V84.8749L35.2725 82.1182Z" stroke="#D38E1F" stroke-opacity="0.4" stroke-width="0.2339" stroke-miterlimit="10" stroke-linecap="round"/>
<path d="M30.6636 84.428V99.404" stroke="#D38E1F" stroke-opacity="0.4" stroke-width="0.2339" stroke-miterlimit="10" stroke-linecap="round"/>
<path d="M37.5769 81.075V97.094" stroke="#D38E1F" stroke-opacity="0.4" stroke-width="0.2339" stroke-miterlimit="10" stroke-linecap="round"/>
<path d="M54.9716 72.7302L48.1327 76.0831V92.7727L55.269 89.7179L54.9716 72.7302Z" stroke="#D38E1F" stroke-opacity="0.4" stroke-width="0.2339" stroke-miterlimit="10" stroke-linecap="round"/>
<path d="M64.2636 86.2162L56.6813 89.1965V71.8363L64.2636 68.0364" stroke="#D38E1F" stroke-opacity="0.4" stroke-width="0.2339" stroke-miterlimit="10" stroke-linecap="round"/>
<path d="M48.9504 75.7107V92.3258" stroke="#D38E1F" stroke-opacity="0.4" stroke-width="0.2339" stroke-miterlimit="10" stroke-linecap="round"/>
<path d="M57.6477 71.3892V88.7494" stroke="#D38E1F" stroke-opacity="0.4" stroke-width="0.2339" stroke-miterlimit="10" stroke-linecap="round"/>
<path d="M71.4 64.5344V83.3102L78.3132 80.3299V60.958L71.4 64.5344Z" stroke="#D38E1F" stroke-opacity="0.4" stroke-width="0.2339" stroke-miterlimit="10" stroke-linecap="round"/>
<path d="M88.869 75.5616L80.469 79.3614V59.766L88.869 55.072V75.5616Z" stroke="#D38E1F" stroke-opacity="0.4" stroke-width="0.2339" stroke-miterlimit="10" stroke-linecap="round"/>
<path d="M72.292 64.0874V83.0868" stroke="#D38E1F" stroke-opacity="0.4" stroke-width="0.2339" stroke-miterlimit="10" stroke-linecap="round"/>
<path d="M81.2123 59.3188V78.9143" stroke="#D38E1F" stroke-opacity="0.4" stroke-width="0.2339" stroke-miterlimit="10" stroke-linecap="round"/>
<path d="M23.6017 111.176L18.3239 112.964V127.568L23.6017 126.525" stroke="#D38E1F" stroke-opacity="0.4" stroke-width="0.2339" stroke-miterlimit="10" stroke-linecap="round"/>
<path d="M15.0531 128.164V113.635L9.25482 115.125V129.207L15.0531 128.164Z" stroke="#D38E1F" stroke-opacity="0.4" stroke-width="0.2339" stroke-miterlimit="10" stroke-linecap="round"/>
<path d="M10.2955 114.827V129.058" stroke="#D38E1F" stroke-opacity="0.4" stroke-width="0.2339" stroke-miterlimit="10" stroke-linecap="round"/>
<path d="M41.8141 105.439L36.5362 107.376V123.246L41.8141 121.98" stroke="#D38E1F" stroke-opacity="0.4" stroke-width="0.2339" stroke-miterlimit="10" stroke-linecap="round"/>
<path d="M35.2725 107.674V123.47L29.7716 124.438V109.537L35.2725 107.674Z" stroke="#D38E1F" stroke-opacity="0.4" stroke-width="0.2339" stroke-miterlimit="10" stroke-linecap="round"/>
<path d="M30.6636 109.239V124.289" stroke="#D38E1F" stroke-opacity="0.4" stroke-width="0.2339" stroke-miterlimit="10" stroke-linecap="round"/>
<path d="M37.5769 107.004V123.023" stroke="#D38E1F" stroke-opacity="0.4" stroke-width="0.2339" stroke-miterlimit="10" stroke-linecap="round"/>
<path d="M54.9716 101.341L48.1327 103.725V120.34L55.269 118.403L54.9716 101.341Z" stroke="#D38E1F" stroke-opacity="0.4" stroke-width="0.2339" stroke-miterlimit="10" stroke-linecap="round"/>
<path d="M64.2636 116.392L56.6813 118.105V100.745L64.2636 98.1372" stroke="#D38E1F" stroke-opacity="0.4" stroke-width="0.2339" stroke-miterlimit="10" stroke-linecap="round"/>
<path d="M48.9504 103.427V120.042" stroke="#D38E1F" stroke-opacity="0.4" stroke-width="0.2339" stroke-miterlimit="10" stroke-linecap="round"/>
<path d="M57.6477 100.447V117.807" stroke="#D38E1F" stroke-opacity="0.4" stroke-width="0.2339" stroke-miterlimit="10" stroke-linecap="round"/>
<path d="M71.4 95.8274V114.529L78.3132 112.666V93.2942L71.4 95.8274Z" stroke="#D38E1F" stroke-opacity="0.4" stroke-width="0.2339" stroke-miterlimit="10" stroke-linecap="round"/>
<path d="M88.869 109.537L80.469 111.996V92.4002L88.869 89.0474V109.537Z" stroke="#D38E1F" stroke-opacity="0.4" stroke-width="0.2339" stroke-miterlimit="10" stroke-linecap="round"/>
<path d="M72.292 95.4551V114.454" stroke="#D38E1F" stroke-opacity="0.4" stroke-width="0.2339" stroke-miterlimit="10" stroke-linecap="round"/>
<path d="M81.2123 92.1021V111.697" stroke="#D38E1F" stroke-opacity="0.4" stroke-width="0.2339" stroke-miterlimit="10" stroke-linecap="round"/>
<path d="M23.6017 132.634L18.3239 134.348V148.951L23.6017 147.983" stroke="#D38E1F" stroke-opacity="0.4" stroke-width="0.2339" stroke-miterlimit="10" stroke-linecap="round"/>
<path d="M15.0531 149.473V134.944L9.25482 136.285V150.367L15.0531 149.473Z" stroke="#D38E1F" stroke-opacity="0.4" stroke-width="0.2339" stroke-miterlimit="10" stroke-linecap="round"/>
<path d="M10.2955 136.062V150.292" stroke="#D38E1F" stroke-opacity="0.4" stroke-width="0.2339" stroke-miterlimit="10" stroke-linecap="round"/>
<path d="M41.8141 129.058L36.5362 130.697V146.567L41.8141 145.599" stroke="#D38E1F" stroke-opacity="0.4" stroke-width="0.2339" stroke-miterlimit="10" stroke-linecap="round"/>
<path d="M35.2725 130.995V146.791L29.7716 147.461V132.56L35.2725 130.995Z" stroke="#D38E1F" stroke-opacity="0.4" stroke-width="0.2339" stroke-miterlimit="10" stroke-linecap="round"/>
<path d="M30.6636 132.336V147.312" stroke="#D38E1F" stroke-opacity="0.4" stroke-width="0.2339" stroke-miterlimit="10" stroke-linecap="round"/>
<path d="M37.5769 130.399V146.418" stroke="#D38E1F" stroke-opacity="0.4" stroke-width="0.2339" stroke-miterlimit="10" stroke-linecap="round"/>
<path d="M54.9716 126.599L48.1327 128.238V144.928L55.269 143.736L54.9716 126.599Z" stroke="#D38E1F" stroke-opacity="0.4" stroke-width="0.2339" stroke-miterlimit="10" stroke-linecap="round"/>
<path d="M64.2636 142.544L56.6813 143.512V126.152L64.2636 124.364" stroke="#D38E1F" stroke-opacity="0.4" stroke-width="0.2339" stroke-miterlimit="10" stroke-linecap="round"/>
<path d="M48.9504 128.089V144.704" stroke="#D38E1F" stroke-opacity="0.4" stroke-width="0.2339" stroke-miterlimit="10" stroke-linecap="round"/>
<path d="M57.6477 125.929V143.363" stroke="#D38E1F" stroke-opacity="0.4" stroke-width="0.2339" stroke-miterlimit="10" stroke-linecap="round"/>
<path d="M71.4 122.725V141.426L78.3132 140.308V120.937L71.4 122.725Z" stroke="#D38E1F" stroke-opacity="0.4" stroke-width="0.2339" stroke-miterlimit="10" stroke-linecap="round"/>
<path d="M88.869 138.222L80.469 139.861V120.266L88.869 117.733V138.222Z" stroke="#D38E1F" stroke-opacity="0.4" stroke-width="0.2339" stroke-miterlimit="10" stroke-linecap="round"/>
<path d="M72.292 122.501V141.426" stroke="#D38E1F" stroke-opacity="0.4" stroke-width="0.2339" stroke-miterlimit="10" stroke-linecap="round"/>
<path d="M81.2123 120.042V139.638" stroke="#D38E1F" stroke-opacity="0.4" stroke-width="0.2339" stroke-miterlimit="10" stroke-linecap="round"/>
<path d="M149.899 52.5388L158.894 58.4249L159.042 74.295L149.602 68.7814L149.899 52.5388Z" stroke="#D38E1F" stroke-opacity="0.4" stroke-width="0.2339" stroke-miterlimit="10" stroke-linecap="round"/>
<path d="M137.857 62.0758L147.743 67.8128L147.595 50.8997L138.08 44.343" stroke="#D38E1F" stroke-opacity="0.4" stroke-width="0.2339" stroke-miterlimit="10" stroke-linecap="round"/>
<path d="M157.779 57.7544L157.927 73.55" stroke="#D38E1F" stroke-opacity="0.4" stroke-width="0.2339" stroke-miterlimit="10" stroke-linecap="round"/>
<path d="M146.331 50.0801L146.48 66.9933" stroke="#D38E1F" stroke-opacity="0.4" stroke-width="0.2339" stroke-miterlimit="10" stroke-linecap="round"/>
<path d="M150.122 77.2009L159.117 81.8949L159.265 97.6905L149.75 93.5926L150.122 77.2009Z" stroke="#D38E1F" stroke-opacity="0.4" stroke-width="0.2339" stroke-miterlimit="10" stroke-linecap="round"/>
<path d="M138.005 88.526L147.966 92.7729L147.818 75.9342L137.857 70.4207" stroke="#D38E1F" stroke-opacity="0.4" stroke-width="0.2339" stroke-miterlimit="10" stroke-linecap="round"/>
<path d="M158.002 81.2988L158.15 97.1689" stroke="#D38E1F" stroke-opacity="0.4" stroke-width="0.2339" stroke-miterlimit="10" stroke-linecap="round"/>
<path d="M146.554 75.2637L146.703 92.2514" stroke="#D38E1F" stroke-opacity="0.4" stroke-width="0.2339" stroke-miterlimit="10" stroke-linecap="round"/>
<path d="M150.345 104.917L159.34 108.047L159.414 123.917L149.973 121.384L150.345 104.917Z" stroke="#D38E1F" stroke-opacity="0.4" stroke-width="0.2339" stroke-miterlimit="10" stroke-linecap="round"/>
<path d="M138.303 118.403L148.189 120.937L148.041 104.098L138.154 100.373" stroke="#D38E1F" stroke-opacity="0.4" stroke-width="0.2339" stroke-miterlimit="10" stroke-linecap="round"/>
<path d="M158.225 107.674L158.373 123.47" stroke="#D38E1F" stroke-opacity="0.4" stroke-width="0.2339" stroke-miterlimit="10" stroke-linecap="round"/>
<path d="M146.777 103.651L146.926 120.564" stroke="#D38E1F" stroke-opacity="0.4" stroke-width="0.2339" stroke-miterlimit="10" stroke-linecap="round"/>
<path d="M188.851 76.2322L193.981 79.6595V92.6983L188.851 89.9415" stroke="#D38E1F" stroke-opacity="0.4" stroke-width="0.2339" stroke-miterlimit="10" stroke-linecap="round"/>
<path d="M197.177 94.412V81.4478L202.901 84.8006V97.3178L197.177 94.412Z" stroke="#D38E1F" stroke-opacity="0.4" stroke-width="0.2339" stroke-miterlimit="10" stroke-linecap="round"/>
<path d="M201.86 84.2043V96.7961" stroke="#D38E1F" stroke-opacity="0.4" stroke-width="0.2339" stroke-miterlimit="10" stroke-linecap="round"/>
<path d="M192.94 78.989V92.1023" stroke="#D38E1F" stroke-opacity="0.4" stroke-width="0.2339" stroke-miterlimit="10" stroke-linecap="round"/>
<path d="M188.851 95.7532L193.981 98.5845V111.623L188.851 109.537" stroke="#D38E1F" stroke-opacity="0.4" stroke-width="0.2339" stroke-miterlimit="10" stroke-linecap="round"/>
<path d="M197.177 112.964V100L202.901 102.608V115.125L197.177 112.964Z" stroke="#D38E1F" stroke-opacity="0.4" stroke-width="0.2339" stroke-miterlimit="10" stroke-linecap="round"/>
<path d="M201.86 102.161V114.753" stroke="#D38E1F" stroke-opacity="0.4" stroke-width="0.2339" stroke-miterlimit="10" stroke-linecap="round"/>
<path d="M192.94 97.9883V111.176" stroke="#D38E1F" stroke-opacity="0.4" stroke-width="0.2339" stroke-miterlimit="10" stroke-linecap="round"/>
<path d="M188.851 117.137L193.981 119.074V132.187L188.851 130.846" stroke="#D38E1F" stroke-opacity="0.4" stroke-width="0.2339" stroke-miterlimit="10" stroke-linecap="round"/>
<path d="M197.177 132.932V119.968L202.901 121.682V134.199L197.177 132.932Z" stroke="#D38E1F" stroke-opacity="0.4" stroke-width="0.2339" stroke-miterlimit="10" stroke-linecap="round"/>
<path d="M201.86 121.384V134.05" stroke="#D38E1F" stroke-opacity="0.4" stroke-width="0.2339" stroke-miterlimit="10" stroke-linecap="round"/>
<path d="M192.94 118.701V131.889" stroke="#D38E1F" stroke-opacity="0.4" stroke-width="0.2339" stroke-miterlimit="10" stroke-linecap="round"/>
<path d="M188.851 136.434L193.981 138.222V151.336L188.851 150.143" stroke="#D38E1F" stroke-opacity="0.4" stroke-width="0.2339" stroke-miterlimit="10" stroke-linecap="round"/>
<path d="M197.177 151.932V139.042L202.901 140.532V153.049L197.177 151.932Z" stroke="#D38E1F" stroke-opacity="0.4" stroke-width="0.2339" stroke-miterlimit="10" stroke-linecap="round"/>
<path d="M201.86 140.234V152.9" stroke="#D38E1F" stroke-opacity="0.4" stroke-width="0.2339" stroke-miterlimit="10" stroke-linecap="round"/>
<path d="M192.94 137.85V151.037" stroke="#D38E1F" stroke-opacity="0.4" stroke-width="0.2339" stroke-miterlimit="10" stroke-linecap="round"/>
<path d="M208.848 89.1965L212.193 91.4318V102.98L208.848 101.267" stroke="#D38E1F" stroke-opacity="0.4" stroke-width="0.2339" stroke-miterlimit="10" stroke-linecap="round"/>
<path d="M214.274 104.098V92.5493L218.065 94.7845V106.035L214.274 104.098Z" stroke="#D38E1F" stroke-opacity="0.4" stroke-width="0.2339" stroke-miterlimit="10" stroke-linecap="round"/>
<path d="M217.396 94.3376V105.737" stroke="#D38E1F" stroke-opacity="0.4" stroke-width="0.2339" stroke-miterlimit="10" stroke-linecap="round"/>
<path d="M211.524 90.9102V102.608" stroke="#D38E1F" stroke-opacity="0.4" stroke-width="0.2339" stroke-miterlimit="10" stroke-linecap="round"/>
<path d="M208.848 106.408L212.193 108.196V119.819L208.848 118.552" stroke="#D38E1F" stroke-opacity="0.4" stroke-width="0.2339" stroke-miterlimit="10" stroke-linecap="round"/>
<path d="M214.274 120.639V109.09L218.065 110.804V122.054L214.274 120.639Z" stroke="#D38E1F" stroke-opacity="0.4" stroke-width="0.2339" stroke-miterlimit="10" stroke-linecap="round"/>
<path d="M217.396 110.506V121.831" stroke="#D38E1F" stroke-opacity="0.4" stroke-width="0.2339" stroke-miterlimit="10" stroke-linecap="round"/>
<path d="M211.524 107.823V119.521" stroke="#D38E1F" stroke-opacity="0.4" stroke-width="0.2339" stroke-miterlimit="10" stroke-linecap="round"/>
<path d="M208.848 125.184L212.193 126.45V138.073L208.848 137.328" stroke="#D38E1F" stroke-opacity="0.4" stroke-width="0.2339" stroke-miterlimit="10" stroke-linecap="round"/>
<path d="M214.274 138.446V126.897L218.065 127.94V139.265L214.274 138.446Z" stroke="#D38E1F" stroke-opacity="0.4" stroke-width="0.2339" stroke-miterlimit="10" stroke-linecap="round"/>
<path d="M217.396 127.791V139.116" stroke="#D38E1F" stroke-opacity="0.4" stroke-width="0.2339" stroke-miterlimit="10" stroke-linecap="round"/>
<path d="M211.524 126.152V137.85" stroke="#D38E1F" stroke-opacity="0.4" stroke-width="0.2339" stroke-miterlimit="10" stroke-linecap="round"/>
<path d="M208.848 142.171L212.193 143.438V155.061L208.848 154.316" stroke="#D38E1F" stroke-opacity="0.4" stroke-width="0.2339" stroke-miterlimit="10" stroke-linecap="round"/>
<path d="M214.274 155.434V143.885L218.065 144.928V156.179L214.274 155.434Z" stroke="#D38E1F" stroke-opacity="0.4" stroke-width="0.2339" stroke-miterlimit="10" stroke-linecap="round"/>
<path d="M217.396 144.705V156.104" stroke="#D38E1F" stroke-opacity="0.4" stroke-width="0.2339" stroke-miterlimit="10" stroke-linecap="round"/>
<path d="M211.524 143.14V154.838" stroke="#D38E1F" stroke-opacity="0.4" stroke-width="0.2339" stroke-miterlimit="10" stroke-linecap="round"/>
<path d="M223.343 96.1257L228.175 99.6276V110.282L223.343 107.451" stroke="#D38E1F" stroke-opacity="0.4" stroke-width="0.2339" stroke-miterlimit="10" stroke-linecap="round"/>
<path d="M231.149 111.996V101.49L236.501 104.843V114.902L231.149 111.996Z" stroke="#D38E1F" stroke-opacity="0.4" stroke-width="0.2339" stroke-miterlimit="10" stroke-linecap="round"/>
<path d="M235.534 104.247V114.38" stroke="#D38E1F" stroke-opacity="0.4" stroke-width="0.2339" stroke-miterlimit="10" stroke-linecap="round"/>
<path d="M227.134 98.8826V109.686" stroke="#D38E1F" stroke-opacity="0.4" stroke-width="0.2339" stroke-miterlimit="10" stroke-linecap="round"/>
<path d="M223.343 112.219L228.175 115.051V125.705L223.343 123.544" stroke="#D38E1F" stroke-opacity="0.4" stroke-width="0.2339" stroke-miterlimit="10" stroke-linecap="round"/>
<path d="M231.149 126.972V116.466L236.501 119.074V129.132L231.149 126.972Z" stroke="#D38E1F" stroke-opacity="0.4" stroke-width="0.2339" stroke-miterlimit="10" stroke-linecap="round"/>
<path d="M235.534 118.627V128.76" stroke="#D38E1F" stroke-opacity="0.4" stroke-width="0.2339" stroke-miterlimit="10" stroke-linecap="round"/>
<path d="M227.134 114.454V125.258" stroke="#D38E1F" stroke-opacity="0.4" stroke-width="0.2339" stroke-miterlimit="10" stroke-linecap="round"/>
<path d="M223.343 129.803L228.175 131.74V142.395L223.343 141.128" stroke="#D38E1F" stroke-opacity="0.4" stroke-width="0.2339" stroke-miterlimit="10" stroke-linecap="round"/>
<path d="M231.149 143.14V132.634L236.501 134.348V144.406L231.149 143.14Z" stroke="#D38E1F" stroke-opacity="0.4" stroke-width="0.2339" stroke-miterlimit="10" stroke-linecap="round"/>
<path d="M235.534 134.05V144.183" stroke="#D38E1F" stroke-opacity="0.4" stroke-width="0.2339" stroke-miterlimit="10" stroke-linecap="round"/>
<path d="M227.134 131.368V142.097" stroke="#D38E1F" stroke-opacity="0.4" stroke-width="0.2339" stroke-miterlimit="10" stroke-linecap="round"/>
<path d="M223.343 145.673L228.175 147.312V157.967L223.343 157.073" stroke="#D38E1F" stroke-opacity="0.4" stroke-width="0.2339" stroke-miterlimit="10" stroke-linecap="round"/>
<path d="M231.149 158.563V148.057L236.501 149.399V159.383L231.149 158.563Z" stroke="#D38E1F" stroke-opacity="0.4" stroke-width="0.2339" stroke-miterlimit="10" stroke-linecap="round"/>
<path d="M235.534 149.175V159.308" stroke="#D38E1F" stroke-opacity="0.4" stroke-width="0.2339" stroke-miterlimit="10" stroke-linecap="round"/>
<path d="M227.134 147.014V157.743" stroke="#D38E1F" stroke-opacity="0.4" stroke-width="0.2339" stroke-miterlimit="10" stroke-linecap="round"/>
<path d="M166.104 64.1619L173.761 69.0048L173.835 83.3848L166.179 79.3614" stroke="#D38E1F" stroke-opacity="0.4" stroke-width="0.2339" stroke-miterlimit="10" stroke-linecap="round"/>
<path d="M175.619 69.9734V84.2788L183.573 88.0042V74.7419L175.619 69.9734Z" stroke="#D38E1F" stroke-opacity="0.4" stroke-width="0.2339" stroke-miterlimit="10" stroke-linecap="round"/>
<path d="M182.31 73.9968L182.384 87.4082" stroke="#D38E1F" stroke-opacity="0.4" stroke-width="0.2339" stroke-miterlimit="10" stroke-linecap="round"/>
<path d="M172.349 68.0361L172.423 82.6396" stroke="#D38E1F" stroke-opacity="0.4" stroke-width="0.2339" stroke-miterlimit="10" stroke-linecap="round"/>
<path d="M166.179 86.2161L173.835 90.165L173.91 104.545L166.253 101.416" stroke="#D38E1F" stroke-opacity="0.4" stroke-width="0.2339" stroke-miterlimit="10" stroke-linecap="round"/>
<path d="M175.694 90.9102V105.216L183.648 107.972V94.7845L175.694 90.9102Z" stroke="#D38E1F" stroke-opacity="0.4" stroke-width="0.2339" stroke-miterlimit="10" stroke-linecap="round"/>
<path d="M182.384 94.1885V107.525" stroke="#D38E1F" stroke-opacity="0.4" stroke-width="0.2339" stroke-miterlimit="10" stroke-linecap="round"/>
<path d="M172.423 89.4199L172.497 103.949" stroke="#D38E1F" stroke-opacity="0.4" stroke-width="0.2339" stroke-miterlimit="10" stroke-linecap="round"/>
<path d="M166.327 110.655L173.984 113.486V127.866L166.327 125.854" stroke="#D38E1F" stroke-opacity="0.4" stroke-width="0.2339" stroke-miterlimit="10" stroke-linecap="round"/>
<path d="M175.768 114.007V128.313L183.722 129.952V116.764L175.768 114.007Z" stroke="#D38E1F" stroke-opacity="0.4" stroke-width="0.2339" stroke-miterlimit="10" stroke-linecap="round"/>
<path d="M182.458 116.317L182.533 129.728" stroke="#D38E1F" stroke-opacity="0.4" stroke-width="0.2339" stroke-miterlimit="10" stroke-linecap="round"/>
<path d="M172.497 112.964L172.572 127.493" stroke="#D38E1F" stroke-opacity="0.4" stroke-width="0.2339" stroke-miterlimit="10" stroke-linecap="round"/>
<path d="M166.402 132.411L174.058 134.646V149.026L166.402 147.61" stroke="#D38E1F" stroke-opacity="0.4" stroke-width="0.2339" stroke-miterlimit="10" stroke-linecap="round"/>
<path d="M175.842 135.018V149.324L183.796 150.367V137.179L175.842 135.018Z" stroke="#D38E1F" stroke-opacity="0.4" stroke-width="0.2339" stroke-miterlimit="10" stroke-linecap="round"/>
<path d="M182.533 136.881L182.607 150.218" stroke="#D38E1F" stroke-opacity="0.4" stroke-width="0.2339" stroke-miterlimit="10" stroke-linecap="round"/>
<path d="M172.572 134.199L172.646 148.802" stroke="#D38E1F" stroke-opacity="0.4" stroke-width="0.2339" stroke-miterlimit="10" stroke-linecap="round"/>
<path d="M150.568 129.356L159.488 131.368L159.637 147.163L150.196 145.897L150.568 129.356Z" stroke="#D38E1F" stroke-opacity="0.4" stroke-width="0.2339" stroke-miterlimit="10" stroke-linecap="round"/>
<path d="M138.526 144.481L148.412 145.673L148.264 128.76L138.377 126.376" stroke="#D38E1F" stroke-opacity="0.4" stroke-width="0.2339" stroke-miterlimit="10" stroke-linecap="round"/>
<path d="M158.448 131.144L158.522 146.94" stroke="#D38E1F" stroke-opacity="0.4" stroke-width="0.2339" stroke-miterlimit="10" stroke-linecap="round"/>
<path d="M147 128.462L147.149 145.45" stroke="#D38E1F" stroke-opacity="0.4" stroke-width="0.2339" stroke-miterlimit="10" stroke-linecap="round"/>
<path d="M130.72 42.5549L130.795 60.6602L119.496 54.7741L119.421 35.7002L130.72 42.5549Z" stroke="#D38E1F" stroke-opacity="0.4" stroke-width="0.2339" stroke-miterlimit="10" stroke-linecap="round"/>
<path d="M102.175 45.1626L116.002 52.8368V33.4649L102.175 24.375V45.1626Z" stroke="#D38E1F" stroke-opacity="0.4" stroke-width="0.2339" stroke-miterlimit="10" stroke-linecap="round"/>
<path d="M129.382 41.7351L129.457 60.0639" stroke="#D38E1F" stroke-opacity="0.4" stroke-width="0.2339" stroke-miterlimit="10" stroke-linecap="round"/>
<path d="M114.738 32.7197L114.812 52.0916" stroke="#D38E1F" stroke-opacity="0.4" stroke-width="0.2339" stroke-miterlimit="10" stroke-linecap="round"/>
<path d="M130.795 69.0795L130.869 87.1848L119.57 82.6398L119.496 63.5659L130.795 69.0795Z" stroke="#D38E1F" stroke-opacity="0.4" stroke-width="0.2339" stroke-miterlimit="10" stroke-linecap="round"/>
<path d="M102.25 75.1145L116.076 81.1496L116.002 61.7776L102.175 54.3269L102.25 75.1145Z" stroke="#D38E1F" stroke-opacity="0.4" stroke-width="0.2339" stroke-miterlimit="10" stroke-linecap="round"/>
<path d="M129.457 68.4087V86.7375" stroke="#D38E1F" stroke-opacity="0.4" stroke-width="0.2339" stroke-miterlimit="10" stroke-linecap="round"/>
<path d="M114.812 61.1072L114.887 80.5536" stroke="#D38E1F" stroke-opacity="0.4" stroke-width="0.2339" stroke-miterlimit="10" stroke-linecap="round"/>
<path d="M130.869 99.255L130.943 117.286L119.644 114.455L119.57 95.3806L130.869 99.255Z" stroke="#D38E1F" stroke-opacity="0.4" stroke-width="0.2339" stroke-miterlimit="10" stroke-linecap="round"/>
<path d="M102.324 109.463L116.15 113.411L116.076 94.0395L102.25 88.7495L102.324 109.463Z" stroke="#D38E1F" stroke-opacity="0.4" stroke-width="0.2339" stroke-miterlimit="10" stroke-linecap="round"/>
<path d="M129.531 98.8081V117.137" stroke="#D38E1F" stroke-opacity="0.4" stroke-width="0.2339" stroke-miterlimit="10" stroke-linecap="round"/>
<path d="M114.887 93.5925L114.961 113.039" stroke="#D38E1F" stroke-opacity="0.4" stroke-width="0.2339" stroke-miterlimit="10" stroke-linecap="round"/>
<path d="M130.943 125.183V143.289L119.644 141.575V122.576L130.943 125.183Z" stroke="#D38E1F" stroke-opacity="0.4" stroke-width="0.2339" stroke-miterlimit="10" stroke-linecap="round"/>
<path d="M102.398 138.52L116.225 140.979L116.15 121.607L102.324 117.733L102.398 138.52Z" stroke="#D38E1F" stroke-opacity="0.4" stroke-width="0.2339" stroke-miterlimit="10" stroke-linecap="round"/>
<path d="M129.531 124.885L129.605 143.214" stroke="#D38E1F" stroke-opacity="0.4" stroke-width="0.2339" stroke-miterlimit="10" stroke-linecap="round"/>
<path d="M114.961 121.235V140.681" stroke="#D38E1F" stroke-opacity="0.4" stroke-width="0.2339" stroke-miterlimit="10" stroke-linecap="round"/>
</svg>
