<svg width="35" height="30" viewBox="0 0 35 30" fill="none" xmlns="http://www.w3.org/2000/svg">
<g clip-path="url(#clip0_498_8519)">
<path d="M26.9824 18.6501C27.0543 18.6501 27.1235 18.6215 27.1744 18.5706C27.2252 18.5196 27.2538 18.4507 27.2538 18.3785V3.07042C27.2538 2.99844 27.2252 2.92932 27.1744 2.87837C27.1235 2.82742 27.0543 2.79883 26.9824 2.79883H16.0214C15.8716 2.79883 15.75 2.92042 15.75 3.07042V18.3785C15.75 18.4507 15.7786 18.5196 15.8295 18.5706C15.8805 18.6215 15.9494 18.6501 16.0214 18.6501L26.9824 18.6501ZM16.2929 3.342H26.7109V18.1071H16.2929V3.342Z" fill="#E49216"/>
<path d="M24.449 7.05965L18.9833 12.5195C18.9259 12.5688 18.8915 12.6398 18.8886 12.7154C18.8858 12.7909 18.9144 12.8642 18.968 12.9178C19.0214 12.9712 19.0949 13 19.1704 12.9972C19.246 12.9942 19.317 12.9599 19.3661 12.9025L24.8318 7.43679C24.9121 7.32827 24.9002 7.17694 24.8039 7.08206C24.7077 6.98717 24.5564 6.97751 24.4488 7.05952L24.449 7.05965Z" fill="#E49216"/>
<path d="M24.4489 10.9589L23.295 12.1129H23.2951C23.2325 12.1606 23.1936 12.233 23.1885 12.3116C23.1836 12.3902 23.213 12.4671 23.269 12.5222C23.3251 12.5775 23.4023 12.6057 23.4808 12.5996C23.5592 12.5934 23.6311 12.5536 23.6779 12.4904L24.8319 11.3364C24.9241 11.2286 24.9179 11.068 24.8177 10.9678C24.7173 10.8674 24.5567 10.8612 24.449 10.9534L24.4489 10.9589Z" fill="#E49216"/>
<path d="M19.5263 9.85918C19.5985 9.85956 19.668 9.83134 19.7191 9.78039L22.4695 7.0408C22.562 6.93303 22.5557 6.77262 22.4553 6.67224C22.3552 6.57205 22.1945 6.5658 22.0868 6.65803L19.3445 9.39762C19.2693 9.47414 19.2462 9.58777 19.2854 9.6874C19.3248 9.78721 19.4191 9.85463 19.5263 9.85918L19.5263 9.85918Z" fill="#E49216"/>
<path d="M26.0998 26.9316H28.1714C28.2434 26.9316 28.3125 26.903 28.3635 26.852C28.4144 26.8011 28.443 26.732 28.443 26.66V25.9459H28.9182H28.918C28.9902 25.9459 29.0591 25.9173 29.1101 25.8664C29.161 25.8155 29.1896 25.7463 29.1896 25.6744V20.7192C29.1896 20.6472 29.161 20.5781 29.1101 20.5272C29.0591 20.4762 28.9902 20.4476 28.918 20.4476H13.7132L13.7134 1.03428C13.7134 0.962312 13.6848 0.893183 13.6338 0.84224C13.5829 0.791292 13.5137 0.762695 13.4418 0.762695H6.82213C6.67213 0.762695 6.55054 0.884286 6.55054 1.03429V25.6743C6.55054 25.7463 6.57914 25.8154 6.63008 25.8663C6.68103 25.9173 6.75016 25.9459 6.82213 25.9459H7.12894V26.6599C7.12894 26.7319 7.15754 26.801 7.20849 26.852C7.25943 26.9029 7.32837 26.9315 7.40053 26.9315H9.48029C9.55226 26.9315 9.62139 26.9029 9.67233 26.852C9.72328 26.801 9.75188 26.7319 9.75188 26.6599V25.9459H25.828V26.6599C25.828 26.7319 25.8566 26.801 25.9075 26.852C25.9585 26.9029 26.0274 26.9315 26.0996 26.9315L26.0998 26.9316ZM27.9 26.3886H26.3712V25.946H27.8998L27.9 26.3886ZM28.1716 25.4057H21.4511V23.5377H28.6463V25.4057H28.1716ZM28.6468 22.9973H21.4512V20.9909H28.6463L28.6468 22.9973ZM20.9086 20.9962V23H13.7135V20.9909L20.9086 20.9962ZM13.1704 7.7545H12.831V6.29637H13.1704V7.7545ZM13.1704 19.8723L12.831 19.8721V18.4113H13.1704V19.8723ZM13.1704 1.30893V5.75344H12.5594C12.4094 5.75344 12.2878 5.87503 12.2878 6.02503V8.02881C12.2878 8.10078 12.3164 8.16972 12.3674 8.22066C12.4183 8.27161 12.4874 8.30021 12.5594 8.30021H13.1704V13.0843H7.09381V1.30588L13.1704 1.30893ZM7.09382 13.6275H13.1704V17.8686H12.5594C12.4094 17.8686 12.2878 17.9902 12.2878 18.1402V20.144C12.2878 20.2159 12.3164 20.2851 12.3674 20.3358C12.4183 20.3868 12.4874 20.4154 12.5594 20.4154H13.1704V25.4035H7.09381L7.09382 13.6275ZM9.19796 26.3887L7.672 26.3889V25.9463H9.20873L9.19796 26.3887ZM13.7133 23.5377H20.9085V25.4057L13.7133 25.4059V23.5377Z" fill="#E49216"/>
</g>
<defs>
<clipPath id="clip0_498_8519">
<rect width="33.9273" height="30" fill="white" transform="translate(0.656006)"/>
</clipPath>
</defs>
</svg>
