<svg width="47" height="30" viewBox="0 0 47 30" fill="none" xmlns="http://www.w3.org/2000/svg">
<g clip-path="url(#clip0_497_8167)">
<path d="M6.90773 26.0241H39.4322V25.0519H33.8996V5.81011H36.946V4.83789H9.39372V5.81011H12.4401V25.0519H6.90747L6.90773 26.0241ZM26.6322 25.0519H19.5161V23.9358H26.6425L26.6322 25.0519ZM27.8681 20.1659H28.2296H28.2293C28.5298 20.1659 28.8179 20.2845 29.0304 20.4957C29.2432 20.7069 29.3632 20.9937 29.3642 21.2928V22.96H16.9939V21.2928C16.9949 20.9937 17.1149 20.7069 17.3274 20.4957C17.5402 20.2845 17.8283 20.1659 18.1285 20.1659H27.8681ZM19.231 19.1902L20.431 16.3999L25.9095 16.3996L27.1094 19.1899L19.231 19.1902ZM13.4128 9.75671H29.5885V8.78449L13.4128 8.78474V5.81055H32.9275V25.0523H27.6224V23.9362H29.8342C29.964 23.9362 30.0888 23.8845 30.1803 23.7926C30.272 23.7006 30.3229 23.5761 30.3219 23.4465V21.286C30.3192 20.733 30.0981 20.2033 29.7066 19.8112C29.3151 19.4191 28.7845 19.1961 28.2294 19.1906H28.1933L26.6791 15.7197C26.6012 15.5428 26.4247 15.4296 26.2311 15.4316H20.1091C19.9137 15.4308 19.737 15.5474 19.6611 15.7269L18.165 19.1979H18.129L18.1287 19.1976C17.5693 19.1986 17.0331 19.4207 16.6374 19.8147C16.2419 20.2088 16.0193 20.743 16.0183 21.3005V23.461V23.4607C16.0173 23.5903 16.0682 23.7149 16.16 23.8068C16.2515 23.8988 16.3763 23.9505 16.5061 23.9505H18.5371V25.0666H13.4128L13.4128 9.75671Z" fill="#E49216"/>
<path d="M18.0891 21.2681H19.7733V22.2438H18.0891V21.2681Z" fill="#E49216"/>
<path d="M26.7004 21.2681H28.3846V22.2438H26.7004V21.2681Z" fill="#E49216"/>
</g>
<defs>
<clipPath id="clip0_497_8167">
<rect width="45.4286" height="30" fill="white" transform="translate(0.583252)"/>
</clipPath>
</defs>
</svg>
