<svg width="34" height="34" viewBox="0 0 34 34" fill="none" xmlns="http://www.w3.org/2000/svg">
<path d="M15.5684 3.88164C15.6116 3.65076 15.5614 3.41217 15.4287 3.21836C15.296 3.02455 15.0917 2.89139 14.8608 2.84819C14.6299 2.80498 14.3913 2.85526 14.1975 2.98796C14.0037 3.12067 13.8706 3.32493 13.8274 3.55581L12.5077 10.625H5.1354C4.90057 10.625 4.67536 10.7183 4.50931 10.8843C4.34326 11.0504 4.24998 11.2756 4.24998 11.5104C4.24998 11.7452 4.34326 11.9704 4.50931 12.1365C4.67536 12.3025 4.90057 12.3958 5.1354 12.3958H12.1776L10.5244 21.25H3.71873C3.4839 21.25 3.25869 21.3433 3.09265 21.5093C2.9266 21.6754 2.83331 21.9006 2.83331 22.1354C2.83331 22.3702 2.9266 22.5954 3.09265 22.7615C3.25869 22.9275 3.4839 23.0208 3.71873 23.0208H10.1943L8.86973 30.1183C8.83056 30.3474 8.88304 30.5827 9.01584 30.7734C9.14864 30.9642 9.35111 31.095 9.57955 31.1378C9.80799 31.1806 10.0441 31.1318 10.2369 31.002C10.4297 30.8723 10.5637 30.6719 10.6101 30.4441L11.9956 23.0208H20.111L18.7864 30.1183C18.7472 30.3474 18.7997 30.5827 18.9325 30.7734C19.0653 30.9642 19.2678 31.095 19.4962 31.1378C19.7247 31.1806 19.9608 31.1318 20.1536 31.002C20.3464 30.8723 20.4804 30.6719 20.5268 30.4441L21.9123 23.0208H28.8646C29.0994 23.0208 29.3246 22.9275 29.4907 22.7615C29.6567 22.5954 29.75 22.3702 29.75 22.1354C29.75 21.9006 29.6567 21.6754 29.4907 21.5093C29.3246 21.3433 29.0994 21.25 28.8646 21.25H22.2431L23.8956 12.3958H30.2812C30.5161 12.3958 30.7413 12.3025 30.9073 12.1365C31.0734 11.9704 31.1666 11.7452 31.1666 11.5104C31.1666 11.2756 31.0734 11.0504 30.9073 10.8843C30.7413 10.7183 30.5161 10.625 30.2812 10.625H24.2264L25.4851 3.88164C25.5283 3.65076 25.478 3.41217 25.3453 3.21836C25.2126 3.02455 25.0084 2.89139 24.7775 2.84819C24.5466 2.80498 24.308 2.85526 24.1142 2.98796C23.9204 3.12067 23.7872 3.32493 23.744 3.55581L22.4244 10.625H14.3097L15.5684 3.88164ZM20.4418 21.25H12.3257L13.9782 12.3958H22.0936L20.4411 21.25H20.4418Z" fill="#E1B164"/>
</svg>
