<svg width="34" height="34" viewBox="0 0 34 34" fill="none" xmlns="http://www.w3.org/2000/svg">
<path d="M31.8372 16.3294L17.6706 2.16276C17.4936 1.98686 17.2542 1.88812 17.0047 1.88812C16.7552 1.88812 16.5158 1.98686 16.3389 2.16276L2.17223 16.3294C2.0175 16.5101 1.93665 16.7425 1.94583 16.9802C1.95501 17.2179 2.05355 17.4434 2.22175 17.6116C2.38995 17.7798 2.61543 17.8783 2.85312 17.8875C3.09082 17.8967 3.32322 17.8158 3.50389 17.6611L17 4.16498L30.4961 17.6705C30.6768 17.8253 30.9092 17.9061 31.1469 17.8969C31.3846 17.8878 31.6101 17.7892 31.7783 17.621C31.9465 17.4528 32.045 17.2273 32.0542 16.9896C32.0634 16.7519 31.9825 16.5195 31.8278 16.3389L31.8372 16.3294Z" fill="#E1B164"/>
<path d="M26.4444 30.2222H21.7222V20.7778H12.2778V30.2222H7.55555V17L5.66666 18.8889V30.2222C5.66666 30.7232 5.86566 31.2036 6.2199 31.5579C6.57413 31.9121 7.05458 32.1111 7.55555 32.1111H14.1667V22.6666H19.8333V32.1111H26.4444C26.9454 32.1111 27.4258 31.9121 27.7801 31.5579C28.1343 31.2036 28.3333 30.7232 28.3333 30.2222V18.6622L26.4444 16.7733V30.2222Z" fill="#E1B164"/>
<g clip-path="url(#clip0_25_39)">
<path d="M19.7808 15.5479C19.6469 15.3103 19.4656 15.1026 19.2482 14.9378C19.0308 14.773 18.7819 14.6546 18.5169 14.5898C18.2682 14.5152 18.0158 14.4536 17.7608 14.4051V11.7877C18.2679 11.8421 18.7516 12.0292 19.1633 12.3302C19.1917 12.3554 19.2248 12.3748 19.2607 12.3872C19.2966 12.3996 19.3346 12.4048 19.3725 12.4026C19.4105 12.4003 19.4476 12.3906 19.4817 12.3739C19.5159 12.3573 19.5464 12.3341 19.5716 12.3057C19.5968 12.2773 19.6162 12.2442 19.6286 12.2083C19.641 12.1724 19.6462 12.1344 19.6439 12.0965C19.6417 12.0586 19.6319 12.0215 19.6153 11.9873C19.5987 11.9531 19.5755 11.9226 19.5471 11.8974C19.0306 11.4996 18.4104 11.2591 17.7608 11.2048V10.3102C17.7608 10.2337 17.7304 10.1602 17.6763 10.1061C17.6221 10.052 17.5487 10.0216 17.4722 10.0216C17.3957 10.0216 17.3223 10.052 17.2681 10.1061C17.214 10.1602 17.1836 10.2337 17.1836 10.3102V11.1759C15.9139 11.2048 15.2126 11.8368 14.9991 12.3822C14.8566 12.7334 14.8431 13.1237 14.9609 13.484C15.0787 13.8442 15.3202 14.1511 15.6426 14.3503C16.112 14.6364 16.6377 14.8176 17.1836 14.8813V17.5247C16.4302 17.4868 15.7085 17.2098 15.1232 16.734C15.097 16.7029 15.0647 16.6777 15.0281 16.66C14.9916 16.6422 14.9517 16.6324 14.9111 16.6312C14.8705 16.6299 14.8301 16.6373 14.7926 16.6527C14.755 16.6681 14.7211 16.6913 14.6932 16.7207C14.6652 16.7501 14.6437 16.7851 14.6302 16.8234C14.6166 16.8617 14.6113 16.9024 14.6146 16.9429C14.6179 16.9834 14.6296 17.0227 14.6491 17.0583C14.6687 17.0939 14.6955 17.125 14.7278 17.1495C15.4181 17.7307 16.282 18.0657 17.1836 18.1019V18.9676C17.1836 19.0441 17.214 19.1175 17.2681 19.1717C17.3223 19.2258 17.3957 19.2562 17.4722 19.2562C17.5487 19.2562 17.6221 19.2258 17.6763 19.1717C17.7304 19.1175 17.7608 19.0441 17.7608 18.9676V18.1019C18.5746 18.047 19.5125 17.7873 19.8674 16.7282C19.9316 16.5355 19.9571 16.332 19.9422 16.1294C19.9273 15.9268 19.8725 15.7292 19.7808 15.5479ZM15.9687 13.8655C15.758 13.7401 15.5989 13.5436 15.5201 13.3114C15.4413 13.0791 15.4479 12.8264 15.5387 12.5986C15.5705 12.5121 15.8937 11.7877 17.1836 11.7531V14.2926C16.7531 14.2372 16.3392 14.0917 15.9687 13.8655ZM19.3191 16.532C19.1113 17.1495 18.6496 17.4468 17.7608 17.5131V14.9938C17.9455 15.0342 18.1359 15.0804 18.3379 15.141C18.5288 15.1844 18.7088 15.2661 18.867 15.3812C19.0253 15.4963 19.1585 15.6423 19.2585 15.8105C19.3717 16.034 19.3934 16.2928 19.3191 16.532Z" fill="#E1B164"/>
</g>
<defs>
<clipPath id="clip0_25_39">
<rect width="10.3889" height="10.3889" fill="white" transform="translate(12.2778 9.44446)"/>
</clipPath>
</defs>
</svg>
