<svg width="48" height="47" viewBox="0 0 48 47" fill="none" xmlns="http://www.w3.org/2000/svg">
<circle cx="23.8" cy="23.45" r="22.95" stroke="#E49216" stroke-opacity="0.88"/>
<g clip-path="url(#clip0_217_1434)">
<path d="M29.3785 10.6956H29.8785C33.5591 10.6956 36.5542 13.6906 36.5542 17.3712V29.5288C36.5542 33.2091 33.5591 36.2042 29.8787 36.2042H17.7212C14.0406 36.2042 11.0455 33.2091 11.0455 29.5288V17.3712C11.0455 13.6906 14.0406 10.6956 17.7212 10.6956H29.3785ZM29.8785 35.6501C33.2545 35.6501 36.0001 32.9045 36.0001 29.5288V17.3712C36.0001 13.9953 33.2545 11.2496 29.8787 11.2496H17.7212C14.3452 11.2496 11.5996 13.9953 11.5996 17.3712V29.5288C11.5996 32.9045 14.3452 35.6501 17.7212 35.6501H29.8785Z" stroke="url(#paint0_linear_217_1434)" stroke-linecap="round"/>
<path d="M17.0516 23.4499C17.0516 19.7293 20.0792 16.7017 23.7998 16.7017C27.5205 16.7017 30.5481 19.7293 30.5481 23.4499C30.5481 27.1705 27.5205 30.1982 23.7998 30.1982C20.0792 30.1982 17.0516 27.1705 17.0516 23.4499ZM17.6056 23.4499C17.6056 26.8659 20.3841 29.6441 23.7998 29.6441C27.2158 29.6441 29.994 26.8659 29.994 23.4499C29.994 20.0341 27.2158 17.2557 23.7998 17.2557C20.384 17.2557 17.6056 20.0341 17.6056 23.4499Z" stroke="url(#paint1_linear_217_1434)" stroke-linecap="round"/>
<path d="M29.5797 15.7692C29.5797 14.8644 30.3165 14.1274 31.2214 14.1274C32.1264 14.1274 32.8634 14.8643 32.8634 15.7692C32.8634 16.6742 32.1264 17.4112 31.2214 17.4112C30.3165 17.4112 29.5797 16.6742 29.5797 15.7692ZM30.1337 15.7692C30.1337 16.3694 30.6213 16.8569 31.2214 16.8569C31.8217 16.8569 32.3093 16.3695 32.3093 15.7692C32.3093 15.1687 31.8215 14.6815 31.2214 14.6815C30.6214 14.6815 30.1337 15.1688 30.1337 15.7692Z" stroke="url(#paint2_linear_217_1434)" stroke-linecap="round"/>
</g>
<defs>
<linearGradient id="paint0_linear_217_1434" x1="10.5455" y1="-122.342" x2="38.0408" y2="-122.342" gradientUnits="userSpaceOnUse">
<stop stop-color="#D38E1F"/>
<stop offset="1" stop-color="#F8F0E3" stop-opacity="0.88"/>
</linearGradient>
<linearGradient id="paint1_linear_217_1434" x1="16.5516" y1="-56.2777" x2="31.5876" y2="-56.2778" gradientUnits="userSpaceOnUse">
<stop stop-color="#D38E1F"/>
<stop offset="1" stop-color="#F8F0E3" stop-opacity="0.88"/>
</linearGradient>
<linearGradient id="paint2_linear_217_1434" x1="29.0797" y1="-7.79038" x2="33.5228" y2="-7.7904" gradientUnits="userSpaceOnUse">
<stop stop-color="#D38E1F"/>
<stop offset="1" stop-color="#F8F0E3" stop-opacity="0.88"/>
</linearGradient>
<clipPath id="clip0_217_1434">
<rect width="26.5087" height="26.5087" fill="white" transform="translate(10.5455 10.1956)"/>
</clipPath>
</defs>
</svg>
