<svg width="45" height="45" viewBox="0 0 45 45" fill="none" xmlns="http://www.w3.org/2000/svg">
<circle cx="22.5" cy="22.5" r="22.5" fill="#E49216" fill-opacity="0.88"/>
<path fill-rule="evenodd" clip-rule="evenodd" d="M12.1387 22.5C12.1387 22.3037 12.2166 22.1155 12.3555 21.9767C12.4943 21.8379 12.6825 21.7599 12.8788 21.7599H30.3355L25.6772 17.103C25.5382 16.964 25.4601 16.7755 25.4601 16.579C25.4601 16.3824 25.5382 16.1939 25.6772 16.0549C25.8161 15.916 26.0046 15.8379 26.2012 15.8379C26.3977 15.8379 26.5862 15.916 26.7252 16.0549L32.6462 21.976C32.7152 22.0447 32.7698 22.1264 32.8072 22.2163C32.8445 22.3063 32.8637 22.4027 32.8637 22.5C32.8637 22.5974 32.8445 22.6938 32.8072 22.7837C32.7698 22.8736 32.7152 22.9553 32.6462 23.024L26.7252 28.9451C26.5862 29.0841 26.3977 29.1621 26.2012 29.1621C26.0046 29.1621 25.8161 29.0841 25.6772 28.9451C25.5382 28.8061 25.4601 28.6176 25.4601 28.4211C25.4601 28.2245 25.5382 28.036 25.6772 27.897L30.3355 23.2401H12.8788C12.6825 23.2401 12.4943 23.1622 12.3555 23.0234C12.2166 22.8846 12.1387 22.6963 12.1387 22.5Z" fill="white"/>
</svg>
