<svg width="9" height="16" viewBox="0 0 9 16" fill="none" xmlns="http://www.w3.org/2000/svg">
<path d="M8.275 7.54742L1.30875 0.909924C1.19251 0.799118 1.03808 0.737305 0.877496 0.737305C0.716908 0.737305 0.562482 0.799118 0.446246 0.909924L0.438746 0.917424C0.382202 0.971141 0.337177 1.0358 0.306411 1.10746C0.275643 1.17913 0.259777 1.25631 0.259777 1.3343C0.259777 1.41229 0.275643 1.48947 0.306411 1.56113C0.337177 1.6328 0.382202 1.69746 0.438746 1.75117L6.99875 8.00117L0.438746 14.2487C0.382202 14.3024 0.337177 14.367 0.306411 14.4387C0.275644 14.5104 0.259777 14.5876 0.259777 14.6655C0.259777 14.7435 0.275644 14.8207 0.306411 14.8924C0.337177 14.964 0.382202 15.0287 0.438746 15.0824L0.446246 15.0899C0.562482 15.2007 0.716908 15.2625 0.877496 15.2625C1.03808 15.2625 1.19251 15.2007 1.30875 15.0899L8.275 8.45242C8.33626 8.39405 8.38504 8.32385 8.41836 8.24607C8.45169 8.16828 8.46887 8.08454 8.46887 7.99992C8.46887 7.9153 8.45169 7.83156 8.41836 7.75378C8.38504 7.676 8.33626 7.6058 8.275 7.54742Z" fill="#D38E1F" fill-opacity="0.7"/>
</svg>
