<svg width="34" height="34" viewBox="0 0 34 34" fill="none" xmlns="http://www.w3.org/2000/svg">
<path d="M26.5625 13.8125C26.5625 11.2764 25.555 8.84411 23.7617 7.05079C21.9684 5.25747 19.5361 4.25 17 4.25C14.4639 4.25 12.0316 5.25747 10.2383 7.05079C8.44497 8.84411 7.4375 11.2764 7.4375 13.8125C7.4375 17.7352 10.5761 22.848 17 28.9722C23.4239 22.848 26.5625 17.7352 26.5625 13.8125ZM17 31.875C9.20762 24.7924 5.3125 18.7701 5.3125 13.8125C5.3125 10.7128 6.54386 7.74002 8.73569 5.54819C10.9275 3.35636 13.9003 2.125 17 2.125C20.0997 2.125 23.0725 3.35636 25.2643 5.54819C27.4561 7.74002 28.6875 10.7128 28.6875 13.8125C28.6875 18.7701 24.7924 24.7924 17 31.875Z" fill="#E1B164"/>
<path d="M17 14.875C17.5636 14.875 18.1041 14.6511 18.5026 14.2526C18.9011 13.8541 19.125 13.3136 19.125 12.75C19.125 12.1864 18.9011 11.6459 18.5026 11.2474C18.1041 10.8489 17.5636 10.625 17 10.625C16.4364 10.625 15.8959 10.8489 15.4974 11.2474C15.0989 11.6459 14.875 12.1864 14.875 12.75C14.875 13.3136 15.0989 13.8541 15.4974 14.2526C15.8959 14.6511 16.4364 14.875 17 14.875ZM17 17C15.8728 17 14.7918 16.5522 13.9948 15.7552C13.1978 14.9582 12.75 13.8772 12.75 12.75C12.75 11.6228 13.1978 10.5418 13.9948 9.7448C14.7918 8.94777 15.8728 8.5 17 8.5C18.1272 8.5 19.2082 8.94777 20.0052 9.7448C20.8022 10.5418 21.25 11.6228 21.25 12.75C21.25 13.8772 20.8022 14.9582 20.0052 15.7552C19.2082 16.5522 18.1272 17 17 17ZM28.475 23.375L31.875 31.875H22.3125V29.75H11.6875V31.875H2.125L5.525 23.375H28.475ZM26.1864 23.375H7.81363L5.26362 29.75H28.7364L26.1864 23.375Z" fill="#E1B164"/>
</svg>
