<svg width="48" height="74" viewBox="0 0 48 74" fill="none" xmlns="http://www.w3.org/2000/svg">
<path fill-rule="evenodd" clip-rule="evenodd" d="M41.6033 43.8705C45.5731 39.2111 48 32.9728 48 26.1176C48 11.6933 37.2548 0 24 0C10.7452 0 0 11.6933 0 26.1176C0 32.9549 2.41428 39.1786 6.36573 43.8341H6.35742L24.0009 73.4119L41.6033 43.8705Z" fill="#3C3C3B"/>
<g clip-path="url(#clip0_180_7006)">
<path d="M9.80279 30.9879L9.62834 30.7199H9.47882V30.9879H9.3916V30.2935H9.67819C9.80279 30.2935 9.90247 30.3787 9.90247 30.5006C9.90247 30.6224 9.81525 30.6955 9.71557 30.6955L9.90247 30.9757H9.80279V30.9879ZM9.80279 30.5127C9.80279 30.4397 9.74049 30.3787 9.66573 30.3787H9.47882V30.6468H9.66573C9.75295 30.6346 9.80279 30.5858 9.80279 30.5127Z" fill="white"/>
<path d="M11.1738 30.9879V30.2935H11.6349V30.3666H11.261V30.5858H11.6224V30.6589H11.261V30.9026H11.6349V30.9757H11.1738V30.9879Z" fill="white"/>
<path d="M13.4159 30.9879L13.3536 30.8295H13.0048L12.9425 30.9879H12.8428L13.1294 30.2935H13.2415L13.5281 30.9879H13.4159ZM13.1792 30.3909L13.0297 30.7564H13.3287L13.1792 30.3909Z" fill="white"/>
<path d="M14.749 30.9879V30.2935H14.8362V30.9026H15.1602V30.9757H14.749V30.9879Z" fill="white"/>
<path d="M17.8398 30.9879V30.2935H18.3009V30.3666H17.9271V30.5858H18.2884V30.6589H17.9271V30.9026H18.3009V30.9757H17.8398V30.9879Z" fill="white"/>
<path d="M19.5469 30.8904L19.5967 30.8295C19.6466 30.8782 19.7213 30.9269 19.821 30.9269C19.9456 30.9269 19.983 30.866 19.983 30.8051C19.983 30.6224 19.5593 30.7198 19.5593 30.4762C19.5593 30.3665 19.659 30.2812 19.7961 30.2812C19.9082 30.2812 19.983 30.3178 20.0453 30.3787L19.9954 30.4396C19.9456 30.3787 19.8708 30.3543 19.7961 30.3543C19.7089 30.3543 19.6466 30.4031 19.6466 30.464C19.6466 30.6224 20.0702 30.5249 20.0702 30.7929C20.0702 30.8904 19.9954 31 19.8085 31C19.6964 31 19.6092 30.9513 19.5469 30.8904Z" fill="white"/>
<path d="M21.5153 30.9879V30.3788H21.291V30.3057H21.8268V30.3788H21.6025V30.9879H21.5153Z" fill="white"/>
<path d="M23.5966 30.9879L23.5343 30.8295H23.1854L23.1231 30.9879H23.0234L23.31 30.2935H23.4222L23.7087 30.9879H23.5966ZM23.3599 30.3909L23.2103 30.7564H23.5094L23.3599 30.3909Z" fill="white"/>
<path d="M25.1042 30.9879V30.3788H24.8799V30.3057H25.4157V30.3788H25.1914V30.9879H25.1042Z" fill="white"/>
<path d="M26.6611 30.9879V30.2935H27.1222V30.3666H26.7484V30.5858H27.1097V30.6589H26.7484V30.9026H27.1222V30.9757H26.6611V30.9879Z" fill="white"/>
<path d="M30.3251 30.9879L30.2628 30.8295H29.9139L29.8516 30.9879H29.752L30.0385 30.2935H30.1507L30.4373 30.9879H30.3251ZM30.0884 30.3909L29.9389 30.7564H30.2379L30.0884 30.3909Z" fill="white"/>
<path d="M31.6328 30.6468C31.6328 30.4275 31.7948 30.2935 31.9942 30.2935C32.1188 30.2935 32.206 30.3422 32.2683 30.4275L32.1935 30.464C32.1437 30.4031 32.0689 30.3666 31.9942 30.3666C31.8446 30.3666 31.72 30.4884 31.72 30.6468C31.72 30.8051 31.8322 30.927 31.9942 30.927C32.0814 30.927 32.1437 30.8904 32.1811 30.8539V30.7077H31.9443V30.6346H32.2683V30.8782C32.206 30.9513 32.1063 31.0001 31.9942 31.0001C31.7948 31.0001 31.6328 30.8539 31.6328 30.6468Z" fill="white"/>
<path d="M33.5518 30.9879V30.2935H34.0128V30.3666H33.639V30.5858H34.0003V30.6589H33.639V30.9026H34.0128V30.9757H33.5518V30.9879Z" fill="white"/>
<path d="M35.7943 30.9879L35.3831 30.4397V30.9879H35.2959V30.2935H35.3831L35.7943 30.8295V30.2935H35.8815V30.9879H35.7943Z" fill="white"/>
<path d="M37.1523 30.6468C37.1523 30.4397 37.3143 30.2935 37.5137 30.2935C37.6383 30.2935 37.7255 30.3544 37.7754 30.4275L37.7006 30.464C37.6632 30.4031 37.5884 30.3666 37.5012 30.3666C37.3517 30.3666 37.2271 30.4884 37.2271 30.6468C37.2271 30.8051 37.3392 30.927 37.5012 30.927C37.576 30.927 37.6507 30.8904 37.7006 30.8295L37.7754 30.866C37.7131 30.9391 37.6258 31.0001 37.5012 31.0001C37.3143 31.0001 37.1523 30.8539 37.1523 30.6468Z" fill="white"/>
<path d="M39.2458 30.9879V30.6955L38.9717 30.2935H39.0714L39.2956 30.6102L39.5199 30.2935H39.6196L39.3455 30.6955V30.9879H39.2458Z" fill="white"/>
<path d="M7.11185 26.4071C6.92495 26.5046 6.72559 26.5777 6.5013 26.6386C6.27702 26.6995 6.05274 26.7361 5.816 26.7604C5.57925 26.7848 5.34251 26.8091 5.11823 26.8091C4.88148 26.8213 4.66966 26.8213 4.45784 26.8213H3.59809V20.3523H3V26.9188H7.19907L7.23645 26.6873C7.24891 26.6264 7.26137 26.5655 7.27383 26.4924C7.28629 26.4315 7.29875 26.3706 7.29875 26.334C7.31121 26.3218 7.31121 26.3097 7.31121 26.2853V26.2609C7.27383 26.2853 7.24891 26.3097 7.21153 26.334C7.18661 26.3706 7.14923 26.3828 7.11185 26.4071Z" fill="white"/>
<path d="M8.1458 20.6934C8.04611 20.6934 7.95889 20.7299 7.87167 20.7908C7.78445 20.8517 7.74707 20.937 7.74707 21.0345C7.74707 21.1198 7.78445 21.205 7.87167 21.2781C7.94643 21.3512 8.04611 21.3878 8.15826 21.3878C8.2704 21.3878 8.35762 21.3512 8.44484 21.2781C8.5196 21.205 8.56944 21.1319 8.56944 21.0345C8.56944 20.937 8.53206 20.8639 8.44484 20.7908C8.34516 20.7177 8.25794 20.6934 8.1458 20.6934Z" fill="white"/>
<path d="M7.83473 26.9187H8.43281V22.5208H7.82227L7.83473 26.9187Z" fill="white"/>
<path d="M13.6407 22.9594C13.4289 22.7645 13.1797 22.6061 12.8931 22.4843C12.6065 22.3746 12.2826 22.3137 11.9461 22.3137C11.6845 22.3137 11.4353 22.3503 11.1861 22.4112C10.9369 22.4843 10.7126 22.5817 10.5008 22.7279C10.4509 22.7645 10.4135 22.7888 10.3762 22.8254C10.3388 22.8619 10.3014 22.8985 10.264 22.9229C10.2017 22.9838 10.1269 23.0569 10.0522 23.1543V22.4355H9.4541V29.1361H10.0522V26.3218C10.1768 26.4437 10.3263 26.5533 10.5008 26.6264C10.6877 26.7361 10.887 26.8092 11.0988 26.8701C11.3107 26.9188 11.5225 26.9553 11.7343 26.9553C12.0957 26.9553 12.4445 26.9066 12.756 26.797C13.0675 26.6873 13.3417 26.5411 13.5784 26.3462C13.8027 26.1513 13.9896 25.9076 14.1267 25.6152C14.2637 25.3229 14.326 25.0061 14.326 24.6406C14.326 24.2995 14.2637 23.9828 14.1516 23.6904C14.0145 23.398 13.8525 23.1543 13.6407 22.9594ZM13.6407 25.5421C13.566 25.798 13.4414 26.0173 13.2794 26.2C13.1174 26.3949 12.9305 26.5411 12.7062 26.6508C12.4819 26.7604 12.2203 26.8213 11.9212 26.8213C11.6595 26.8213 11.4228 26.7848 11.1985 26.7239C10.9742 26.663 10.7749 26.5533 10.6004 26.4193C10.426 26.2853 10.2889 26.1147 10.1893 25.9198C10.0896 25.7249 10.0397 25.4934 10.0397 25.2254V23.3736C10.0896 23.2762 10.1519 23.2031 10.2142 23.13C10.4385 22.9107 10.6627 22.7401 10.8995 22.6305C11.1362 22.5208 11.4103 22.4599 11.7343 22.4599C12.0583 22.4599 12.3573 22.5208 12.6065 22.6548C12.8557 22.7888 13.0675 22.9594 13.242 23.1665C13.4164 23.3858 13.541 23.6295 13.6283 23.8975C13.7155 24.1777 13.7653 24.4579 13.7653 24.7381C13.7653 25.0305 13.7279 25.2863 13.6407 25.5421Z" fill="white"/>
<path d="M17.242 23.4954C17.3043 23.4467 17.3666 23.4102 17.4289 23.3614C17.6158 23.2152 17.7778 23.1178 17.9149 23.069C18.0519 23.0203 18.1641 22.9959 18.2637 22.9959C18.3385 22.9959 18.3883 23.0081 18.4382 23.0203C18.488 23.0325 18.5254 23.0569 18.5628 23.069L18.6625 23.1421L19.1484 22.6914C19.1235 22.667 19.0986 22.6426 19.0612 22.6061C19.0238 22.5817 18.9864 22.5574 18.9491 22.5452C18.8992 22.533 18.8494 22.5208 18.7746 22.5208C18.6874 22.5208 18.5877 22.533 18.4756 22.5695C18.3634 22.6061 18.2264 22.6792 18.0768 22.7767C18.027 22.8132 17.9398 22.8741 17.8152 22.9594C17.6906 23.0447 17.5535 23.1421 17.3915 23.2518C17.2296 23.3614 17.0676 23.4711 16.8931 23.5807C16.7187 23.7025 16.5567 23.8122 16.3947 23.9096C16.2327 24.0193 16.0957 24.1168 15.9711 24.202C15.8465 24.2873 15.7593 24.3482 15.7094 24.3848V21.3147C15.7094 21.0832 15.7094 20.8396 15.7094 20.5959C15.7094 20.3523 15.7343 20.133 15.7717 19.9259C15.8091 19.7188 15.8839 19.5604 15.9835 19.4264C16.0832 19.2924 16.2203 19.2315 16.4072 19.2315C16.5318 19.2315 16.6688 19.268 16.8308 19.3289C16.9928 19.3898 17.1797 19.4873 17.3915 19.6335V19.0244C17.242 19 17.105 19 16.9928 19C16.7561 19 16.5318 19.0365 16.295 19.1218C16.0583 19.1949 15.8589 19.3411 15.672 19.536C15.4976 19.7188 15.3605 19.9503 15.2733 20.2183C15.1861 20.4863 15.1362 20.7665 15.1113 21.0832V26.931H15.7094V24.5675L16.619 23.9218L16.8682 24.2142C16.943 24.3117 17.0427 24.4091 17.1423 24.531C17.242 24.6528 17.3542 24.7868 17.4788 24.9208L19.1733 26.9188H19.7963L17.0302 23.6416C17.105 23.5929 17.1673 23.5442 17.242 23.4954Z" fill="white"/>
<path d="M20.4944 20.6934C20.3947 20.6934 20.3075 20.7299 20.2203 20.7908C20.1331 20.8517 20.0957 20.937 20.0957 21.0345C20.0957 21.1198 20.1331 21.205 20.2203 21.2781C20.2951 21.3512 20.3947 21.3878 20.5069 21.3878C20.619 21.3878 20.7063 21.3512 20.7935 21.2781C20.8682 21.205 20.9181 21.1319 20.9181 21.0345C20.9181 20.937 20.8807 20.8639 20.7935 20.7908C20.6938 20.7177 20.5941 20.6934 20.4944 20.6934Z" fill="white"/>
<path d="M20.1821 26.9187H20.7802V22.5208H20.1572L20.1821 26.9187Z" fill="white"/>
<path d="M29.0044 20.998C28.7802 20.8152 28.4811 20.6569 28.0824 20.535C27.6837 20.4132 27.1603 20.3523 26.5249 20.3523H25.2041V26.9188H25.8022V24.1777H26.2508C26.7741 24.1777 27.2102 24.1411 27.584 24.0802C27.9453 24.0193 28.2568 23.934 28.506 23.8244C28.7552 23.7147 28.9421 23.5929 29.0917 23.4589C29.2287 23.3249 29.3409 23.1787 29.4032 23.0325C29.4779 22.8863 29.5153 22.7401 29.5402 22.6061C29.5652 22.4599 29.5652 22.3381 29.5652 22.2284C29.5652 22.0335 29.5278 21.8264 29.453 21.6071C29.3658 21.3756 29.2163 21.1807 29.0044 20.998ZM28.9172 22.8376C28.8549 23.0569 28.7303 23.2518 28.531 23.4345C28.3316 23.6173 28.0575 23.7635 27.6961 23.8853C27.3348 24.0071 26.8488 24.068 26.2508 24.068H25.8022V20.4498H26.4127C26.7616 20.4498 27.098 20.4863 27.4095 20.5594C27.7211 20.6325 27.9952 20.7421 28.2319 20.8883C28.4687 21.0345 28.6556 21.2173 28.7926 21.4366C28.9297 21.6558 29.0044 21.9239 29.0044 22.2163C29.0044 22.4112 28.9671 22.6183 28.9172 22.8376Z" fill="white"/>
<path d="M30.3629 19.5726C30.1884 19.3655 29.9766 19.2193 29.7398 19.134C29.5031 19.0487 29.2414 19 28.9798 19C28.8552 19 28.7306 19.0122 28.5811 19.0244V19.6213C28.7929 19.4751 28.9798 19.3777 29.1418 19.3168C29.3037 19.2558 29.4408 19.2193 29.5654 19.2193C29.7398 19.2193 29.8894 19.2802 29.9891 19.402C30.0887 19.5239 30.1635 19.6822 30.2009 19.8772C30.2383 20.0721 30.2632 20.2914 30.2756 20.5228C30.2881 20.7665 30.2881 20.998 30.2881 21.2173V26.9188H30.8862V21.2538C30.8862 20.9127 30.8488 20.5959 30.774 20.3157C30.6744 20.0234 30.5498 19.7797 30.3629 19.5726Z" fill="white"/>
<path d="M39.6951 22.594C39.5954 22.6184 39.4957 22.6305 39.3711 22.6305C39.0596 22.6305 38.7232 22.5818 38.3743 22.4722C38.1126 22.3869 37.8385 22.3138 37.5395 22.2407C37.2529 22.1676 36.9538 22.0945 36.6548 22.0458C36.3557 21.9849 36.0567 21.9483 35.7452 21.9118C35.4461 21.8752 35.1471 21.863 34.873 21.863C34.549 21.863 34.25 21.8996 33.9634 21.9727C33.6893 22.0458 33.4276 22.1554 33.1909 22.2894C32.9541 22.4234 32.7298 22.594 32.518 22.7889C32.3062 22.9838 32.1068 23.2031 31.9199 23.459L32.2937 23.995C32.3809 23.727 32.4806 23.4833 32.5928 23.2519C32.7049 23.0204 32.842 22.8255 33.0164 22.6671C33.1784 22.4965 33.3778 22.3747 33.602 22.2773C33.8263 22.1798 34.088 22.1311 34.3995 22.1311C34.7858 22.1311 35.172 22.1676 35.5458 22.2285C35.9196 22.3016 36.3059 22.3747 36.6797 22.46C36.8666 22.5087 37.0535 22.5453 37.2404 22.5818C37.4273 22.6184 37.6142 22.6549 37.8011 22.6915C38.1874 22.7646 38.5736 22.7889 38.9225 22.7889L39.259 22.7767C38.7107 23.4468 38.1625 24.0925 37.6267 24.7503C37.0784 25.396 36.5177 26.0417 35.9321 26.663V26.8945H39.8072L39.9318 26.2488C39.7698 26.3707 39.5705 26.4681 39.3337 26.5412C39.097 26.6143 38.8602 26.663 38.611 26.7118C38.3618 26.7483 38.1126 26.7727 37.851 26.7849C37.6018 26.797 37.365 26.797 37.1532 26.797H36.5302L40.0066 22.7402V22.5087C39.9567 22.5209 39.9069 22.5331 39.8446 22.5453C39.7947 22.5575 39.7449 22.5696 39.6951 22.594Z" fill="white"/>
<path d="M37.6638 27.7472C37.5267 27.8203 37.3896 27.869 37.2526 27.9177C37.1155 27.9665 36.9785 27.9786 36.8414 27.9786C36.6919 27.9786 36.5424 27.9299 36.4053 27.8325C36.2682 27.735 36.1436 27.6132 36.019 27.467C35.8944 27.3208 35.7947 27.1502 35.6951 26.9553C35.5954 26.7604 35.5082 26.5654 35.4334 26.3827C35.3586 26.1878 35.2839 25.9929 35.234 25.8101C35.1717 25.6274 35.1344 25.469 35.0845 25.335C35.0471 25.2253 35.0222 25.1401 34.9973 25.0548C34.9724 24.9695 34.9475 24.8964 34.9225 24.8233L34.3618 25.0061L34.8478 26.3462C34.6235 26.4924 34.3743 26.6142 34.0877 26.7116C33.8011 26.8091 33.527 26.8578 33.2529 26.8578C32.9289 26.8578 32.6797 26.7726 32.5053 26.6142C32.3308 26.4558 32.2311 26.2121 32.2311 25.8954C32.2311 25.7127 32.2934 25.5421 32.4056 25.3959C32.5177 25.2375 32.6672 25.1035 32.8541 24.9817C33.041 24.8599 33.2529 24.7502 33.4896 24.6528C33.7264 24.5553 33.9631 24.47 34.2123 24.4091C34.449 24.336 34.6858 24.2873 34.9101 24.2385C35.1344 24.1898 35.3213 24.1533 35.4832 24.1411C35.4832 23.8731 35.4583 23.6294 35.4209 23.4223C35.3836 23.2152 35.3088 23.0325 35.1967 22.8741C35.0845 22.7279 34.935 22.6061 34.7481 22.533C34.5612 22.4599 34.3244 22.4111 34.0254 22.4111C33.8634 22.4111 33.7139 22.4355 33.5893 22.4842C33.4647 22.533 33.3401 22.6061 33.2155 22.7157L33.1906 22.7401C33.2279 22.7035 33.2653 22.6792 33.3152 22.667C33.3526 22.6548 33.3775 22.6426 33.4149 22.6304C33.4522 22.6182 33.4772 22.6061 33.5145 22.5939C33.5768 22.5695 33.6391 22.5573 33.7139 22.5451C33.7762 22.533 33.851 22.5208 33.9257 22.5208C34.1749 22.5208 34.3618 22.5695 34.5113 22.667C34.6609 22.7766 34.7605 22.9106 34.8228 23.069C34.8851 23.2274 34.9101 23.3979 34.9225 23.5685C34.935 23.666 34.935 23.7634 34.935 23.8609C34.935 23.9583 34.935 24.0436 34.935 24.1411C34.7979 24.1654 34.6235 24.202 34.4117 24.2629C34.1998 24.3116 33.9756 24.3847 33.7264 24.4578C33.4772 24.5309 33.2404 24.6284 32.9912 24.7259C32.742 24.8233 32.5177 24.9451 32.3184 25.067C32.119 25.1888 31.957 25.335 31.8324 25.4812C31.7078 25.6396 31.6455 25.7979 31.6455 25.9685C31.6455 26.1756 31.6953 26.3462 31.7826 26.4802C31.8698 26.6142 31.9944 26.7238 32.1439 26.8091C32.2934 26.8944 32.4554 26.9553 32.6423 26.9918C32.8292 27.0284 33.0037 27.0406 33.1781 27.0406C33.3775 27.0406 33.6142 27.004 33.8759 26.9431C34.1375 26.87 34.3494 26.7847 34.5363 26.6873C34.611 26.6507 34.6733 26.6264 34.7356 26.5898C34.7979 26.5533 34.8478 26.5167 34.9101 26.468C35.0845 27.0284 35.3586 27.4548 35.72 27.735C36.0813 28.0274 36.5673 28.1736 37.1778 28.1736C37.3896 28.1736 37.6015 28.1492 37.8008 28.1127C38.0002 28.0761 38.212 28.0274 38.4114 27.9543V27.3086C38.3117 27.3817 38.1996 27.4548 38.0749 27.5401C37.9254 27.6132 37.8008 27.6863 37.6638 27.7472Z" fill="white"/>
<path d="M45.8753 26.5655C45.8379 26.5899 45.813 26.6021 45.7756 26.6265C45.7382 26.6508 45.7133 26.663 45.6759 26.6874C45.6136 26.7117 45.5513 26.7483 45.4766 26.7605C45.4143 26.7848 45.3395 26.7848 45.2647 26.7848C45.0155 26.7848 44.8286 26.7117 44.6791 26.5534C44.5296 26.3706 44.4299 26.1513 44.3676 25.8955C44.3053 25.6397 44.2804 25.3716 44.2679 25.0914C44.2679 24.9331 44.2555 24.7747 44.2555 24.6163C44.2555 24.4945 44.2555 24.3727 44.2555 24.2508C44.2555 24.2508 44.2555 24.2508 44.2555 24.2386V24.1534V24.0315C44.2555 24.0194 44.2555 24.0194 44.2555 24.0072V23.995C44.2555 23.727 44.2305 23.4833 44.1807 23.2884C44.1309 23.0691 44.0436 22.8864 43.9315 22.7523C43.8069 22.6062 43.6449 22.4965 43.4456 22.4356C43.2337 22.3625 42.9845 22.3381 42.6606 22.3381C42.5858 22.3381 42.5235 22.3381 42.4612 22.3381C42.3989 22.3381 42.3366 22.3503 42.2743 22.3503C42.0002 22.3747 41.7883 22.4234 41.6264 22.4965C41.4644 22.5696 41.3398 22.6305 41.2526 22.7036C41.1653 22.7767 41.1155 22.8376 41.0781 22.8985C41.0532 22.9595 41.0407 22.9838 41.0407 22.996H41.7011C41.726 22.8864 41.7634 22.8011 41.8257 22.7158C41.888 22.6427 41.9877 22.5818 42.0999 22.5209C42.2245 22.46 42.3864 22.4356 42.5858 22.4356C42.835 22.4356 43.0344 22.4721 43.1839 22.5452C43.3334 22.6183 43.4456 22.728 43.5203 22.862C43.5951 22.996 43.6449 23.1666 43.6698 23.3737C43.6948 23.5686 43.7072 23.8001 43.7072 24.0559C43.3957 24.129 43.1091 24.2021 42.835 24.2752C42.5609 24.3483 42.2992 24.4336 42.0625 24.5188C41.8631 24.5919 41.6513 24.6772 41.4519 24.7747C41.2526 24.8721 41.0781 24.9818 40.9286 25.0914C40.7791 25.2133 40.6545 25.3351 40.5548 25.4569C40.4551 25.5909 40.4053 25.7249 40.4053 25.8833C40.4053 26.0661 40.4427 26.2366 40.5299 26.3706C40.6545 26.5777 40.8414 26.7239 41.103 26.8214C41.3522 26.9188 41.6388 26.9676 41.9503 26.9676C42.1497 26.9676 42.3491 26.9432 42.536 26.8945C42.7229 26.8457 42.8973 26.7848 43.0468 26.7239C43.1963 26.663 43.3209 26.5899 43.4331 26.529C43.4954 26.4924 43.5452 26.4559 43.5951 26.4315C43.5826 26.395 43.5951 26.3463 43.5951 26.2975C43.4082 26.4194 43.1714 26.529 42.8973 26.6265C42.6107 26.7361 42.3241 26.797 42.0251 26.797C41.888 26.797 41.751 26.7848 41.6264 26.7483C41.5018 26.7117 41.4021 26.663 41.3024 26.5777C41.2152 26.5046 41.1404 26.4072 41.0781 26.2853C41.0283 26.1635 40.9909 26.0051 40.9909 25.8346C40.9909 25.6762 41.0407 25.5178 41.1404 25.3838C41.2401 25.2498 41.3647 25.1158 41.5142 25.0062C41.6637 24.8965 41.8382 24.7869 42.0376 24.7016C42.2369 24.6041 42.4363 24.531 42.6356 24.4579C42.835 24.3848 43.0219 24.3361 43.2088 24.2874C43.3957 24.2386 43.5577 24.2021 43.6948 24.1777H43.7072H43.6948C43.6948 24.6163 43.7197 25.0062 43.7571 25.3473C43.7944 25.6884 43.8692 25.993 43.9813 26.2366C44.0935 26.4803 44.243 26.663 44.4299 26.797C44.6168 26.9188 44.8535 26.9919 45.1526 26.9919C45.3146 26.9919 45.4641 26.9554 45.5887 26.8823C45.7133 26.8092 45.8379 26.6874 45.975 26.5046L45.9999 26.4681C45.9625 26.4924 45.9251 26.5412 45.8753 26.5655Z" fill="white"/>
</g>
<defs>
<clipPath id="clip0_180_7006">
<rect width="43" height="12" fill="white" transform="translate(3 19)"/>
</clipPath>
</defs>
</svg>
