<svg width="364" height="104" viewBox="0 0 364 104" fill="none" xmlns="http://www.w3.org/2000/svg">
<path d="M57.5903 103.894L56.1136 101.571H54.8479V103.894H54.1096V97.876H56.5355C57.5903 97.876 58.4341 98.6151 58.4341 99.6709C58.4341 100.727 57.6958 101.36 56.852 101.36L58.4341 103.789H57.5903V103.894ZM57.5903 99.7765C57.5903 99.143 57.0629 98.6151 56.43 98.6151H54.8479V100.938H56.43C57.1684 100.832 57.5903 100.41 57.5903 99.7765Z" fill="white"/>
<path d="M69.1927 103.894V97.876H73.0954V98.5095H69.9311V100.41H72.9899V101.043H69.9311V103.155H73.0954V103.789H69.1927V103.894Z" fill="white"/>
<path d="M88.1785 103.894L87.6511 102.522H84.6978L84.1704 103.894H83.3266L85.7526 97.876H86.7018L89.1278 103.894H88.1785ZM86.1745 98.7206L84.9087 101.888H87.4402L86.1745 98.7206Z" fill="white"/>
<path d="M99.4645 103.894V97.876H100.203V103.155H102.945V103.789H99.4645V103.894Z" fill="white"/>
<path d="M125.623 103.894V97.876H129.525V98.5095H126.361V100.41H129.42V101.043H126.361V103.155H129.525V103.789H125.623V103.894Z" fill="white"/>
<path d="M140.073 103.05L140.495 102.522C140.917 102.944 141.55 103.366 142.394 103.366C143.448 103.366 143.765 102.839 143.765 102.311C143.765 100.727 140.179 101.572 140.179 99.4598C140.179 98.5096 141.022 97.7705 142.183 97.7705C143.132 97.7705 143.765 98.0873 144.292 98.6152L143.87 99.1431C143.448 98.6152 142.815 98.404 142.183 98.404C141.444 98.404 140.917 98.8263 140.917 99.3543C140.917 100.727 144.503 99.8822 144.503 102.205C144.503 103.05 143.87 104 142.288 104C141.339 104 140.6 103.578 140.073 103.05Z" fill="white"/>
<path d="M156.738 103.894V98.6149H154.84V97.9814H159.375V98.6149H157.477V103.894H156.738Z" fill="white"/>
<path d="M174.353 103.894L173.826 102.522H170.872L170.345 103.894H169.501L171.927 97.876H172.876L175.302 103.894H174.353ZM172.349 98.7206L171.083 101.888H173.615L172.349 98.7206Z" fill="white"/>
<path d="M187.116 103.894V98.6149H185.217V97.9814H189.753V98.6149H187.854V103.894H187.116Z" fill="white"/>
<path d="M200.3 103.894V97.876H204.203V98.5095H201.039V100.41H204.097V101.043H201.039V103.155H204.203V103.789H200.3V103.894Z" fill="white"/>
<path d="M231.31 103.894L230.783 102.522H227.83L227.302 103.894H226.458L228.884 97.876H229.834L232.26 103.894H231.31ZM229.306 98.7206L228.041 101.888H230.572L229.306 98.7206Z" fill="white"/>
<path d="M242.385 100.938C242.385 99.0374 243.757 97.876 245.444 97.876C246.499 97.876 247.237 98.2983 247.765 99.0374L247.132 99.3542C246.71 98.8262 246.077 98.5095 245.444 98.5095C244.179 98.5095 243.124 99.5653 243.124 100.938C243.124 102.31 244.073 103.366 245.444 103.366C246.183 103.366 246.71 103.05 247.026 102.733V101.466H245.022V100.832H247.765V102.944C247.237 103.578 246.394 104 245.444 104C243.757 104 242.385 102.733 242.385 100.938Z" fill="white"/>
<path d="M258.629 103.894V97.876H262.531V98.5095H259.367V100.41H262.426V101.043H259.367V103.155H262.531V103.789H258.629V103.894Z" fill="white"/>
<path d="M277.615 103.894L274.134 99.143V103.894H273.396V97.876H274.134L277.615 102.522V97.876H278.353V103.894H277.615Z" fill="white"/>
<path d="M289.112 100.938C289.112 99.143 290.483 97.876 292.17 97.876C293.225 97.876 293.963 98.4039 294.385 99.0374L293.753 99.3542C293.436 98.8262 292.803 98.5095 292.065 98.5095C290.799 98.5095 289.744 99.5653 289.744 100.938C289.744 102.31 290.694 103.366 292.065 103.366C292.698 103.366 293.331 103.05 293.753 102.522L294.385 102.838C293.858 103.472 293.12 104 292.065 104C290.483 104 289.112 102.733 289.112 100.938Z" fill="white"/>
<path d="M306.832 103.894V101.36L304.511 97.876H305.355L307.254 100.621L309.152 97.876H309.996L307.675 101.36V103.894H306.832Z" fill="white"/>
<path d="M34.8073 64.1949C33.2252 65.0395 31.5375 65.673 29.6389 66.2009C27.7404 66.7289 25.8418 67.0456 23.8377 67.2568C21.8337 67.468 19.8296 67.6791 17.931 67.6791C15.927 67.7847 14.1339 67.7847 12.3408 67.7847H5.06288V11.7197H0V68.6294H35.5456L35.8621 66.6233C35.9675 66.0954 36.073 65.5674 36.1785 64.9339C36.284 64.406 36.3895 63.8781 36.3895 63.5614C36.4949 63.4558 36.4949 63.3502 36.4949 63.139V62.9279C36.1785 63.139 35.9675 63.3502 35.6511 63.5614C35.4402 63.8781 35.1237 63.9837 34.8073 64.1949Z" fill="white"/>
<path d="M43.5618 14.6763C42.718 14.6763 41.9797 14.993 41.2414 15.5209C40.503 16.0489 40.1866 16.7879 40.1866 17.6326C40.1866 18.3717 40.503 19.1108 41.2414 19.7443C41.8742 20.3778 42.718 20.6945 43.6673 20.6945C44.6166 20.6945 45.3549 20.3778 46.0933 19.7443C46.7261 19.1108 47.148 18.4773 47.148 17.6326C47.148 16.7879 46.8316 16.1544 46.0933 15.5209C45.2495 14.8874 44.5111 14.6763 43.5618 14.6763Z" fill="white"/>
<path d="M40.9249 68.6294H45.9878V30.5137H40.8195L40.9249 68.6294Z" fill="white"/>
<path d="M90.0771 34.3147C88.284 32.6253 86.1744 31.2528 83.7485 30.1969C81.3225 29.2467 78.5801 28.7188 75.7322 28.7188C73.5172 28.7188 71.4077 29.0355 69.2982 29.5634C67.1886 30.1969 65.29 31.0416 63.4969 32.3086C63.075 32.6253 62.7586 32.8365 62.4422 33.1533C62.1257 33.47 61.8093 33.7868 61.4929 33.9979C60.9655 34.5259 60.3326 35.1594 59.6998 36.004V29.7746H54.6369V87.8456H59.6998V63.4558C60.7545 64.5116 62.0203 65.4619 63.4969 66.0954C65.0791 67.0457 66.7667 67.6792 68.5598 68.2071C70.3529 68.6294 72.146 68.9462 73.9391 68.9462C76.998 68.9462 79.9513 68.5238 82.5882 67.5736C85.2251 66.6233 87.5456 65.3563 89.5497 63.667C91.4483 61.9776 93.0304 59.866 94.1907 57.3319C95.3509 54.7979 95.8783 52.0528 95.8783 48.8852C95.8783 45.9289 95.3509 43.1837 94.4016 40.6497C93.2414 38.1157 91.8702 36.004 90.0771 34.3147ZM90.0771 56.6984C89.4442 58.9157 88.3894 60.8162 87.0182 62.4C85.647 64.0893 84.0649 65.3563 82.1663 66.3066C80.2677 67.2568 78.0527 67.7847 75.5213 67.7847C73.3063 67.7847 71.3022 67.468 69.4036 66.9401C67.5051 66.4122 65.8174 65.4619 64.3408 64.3005C62.8641 63.1391 61.7038 61.6609 60.86 59.9715C60.0162 58.2822 59.5943 56.2761 59.5943 53.9533V37.9045C60.0162 37.0599 60.5436 36.4264 61.071 35.7929C62.9696 33.8924 64.8681 32.4142 66.8722 31.4639C68.8763 30.5137 71.1967 29.9858 73.9391 29.9858C76.6815 29.9858 79.213 30.5137 81.3225 31.6751C83.432 32.8365 85.2251 34.3147 86.7018 36.1096C88.1785 38.0101 89.2333 40.1218 89.9716 42.4446C90.7099 44.8731 91.1318 47.3015 91.1318 49.7299C91.1318 52.2639 90.8154 54.4812 90.0771 56.6984Z" fill="white"/>
<path d="M120.56 38.9604C121.087 38.5381 121.615 38.2213 122.142 37.799C123.724 36.532 125.095 35.6873 126.256 35.265C127.416 34.8426 128.365 34.6315 129.209 34.6315C129.842 34.6315 130.264 34.7371 130.686 34.8426C131.107 34.9482 131.424 35.1594 131.74 35.265L132.584 35.8985L136.698 31.9919C136.487 31.7807 136.276 31.5695 135.959 31.2528C135.643 31.0416 135.327 30.8305 135.01 30.7249C134.588 30.6193 134.166 30.5137 133.533 30.5137C132.795 30.5137 131.951 30.6193 131.002 30.936C130.053 31.2528 128.892 31.8863 127.627 32.731C127.205 33.0477 126.467 33.5756 125.412 34.3147C124.357 35.0538 123.197 35.8985 121.826 36.8487C120.454 37.799 119.083 38.7492 117.606 39.6995C116.13 40.7553 114.759 41.7056 113.387 42.5503C112.016 43.5005 110.856 44.3452 109.801 45.0843C108.746 45.8234 108.008 46.3513 107.586 46.668V20.0609C107.586 18.0548 107.586 15.9431 107.586 13.8315C107.586 11.7198 107.797 9.81929 108.114 8.02437C108.43 6.22944 109.063 4.85685 109.907 3.69543C110.75 2.53401 111.911 2.00609 113.493 2.00609C114.548 2.00609 115.708 2.32284 117.079 2.85076C118.45 3.37868 120.032 4.22335 121.826 5.49036V0.211168C120.56 0 119.4 0 118.45 0C116.446 0 114.548 0.316751 112.544 1.05584C110.54 1.68934 108.852 2.95635 107.27 4.64569C105.793 6.22944 104.633 8.23553 103.895 10.5584C103.156 12.8812 102.734 15.3096 102.523 18.0548V68.735H107.586V48.2518L115.286 42.6558L117.396 45.1898C118.028 46.0345 118.872 46.8792 119.716 47.935C120.56 48.9909 121.509 50.1523 122.564 51.3137L136.909 68.6294H142.183L118.767 40.2274C119.4 39.8051 119.927 39.3827 120.56 38.9604Z" fill="white"/>
<path d="M148.089 14.6763C147.245 14.6763 146.507 14.993 145.769 15.5209C145.03 16.0489 144.714 16.7879 144.714 17.6326C144.714 18.3717 145.03 19.1108 145.769 19.7443C146.402 20.3778 147.245 20.6945 148.195 20.6945C149.144 20.6945 149.882 20.3778 150.621 19.7443C151.254 19.1108 151.675 18.4773 151.675 17.6326C151.675 16.7879 151.359 16.1544 150.621 15.5209C149.777 14.8874 148.933 14.6763 148.089 14.6763Z" fill="white"/>
<path d="M145.452 68.6294H150.515V30.5137H145.241L145.452 68.6294Z" fill="white"/>
<path d="M220.13 17.3157C218.231 15.7319 215.7 14.3593 212.325 13.3035C208.949 12.2476 204.519 11.7197 199.14 11.7197H187.959V68.6294H193.022V44.873H196.82C201.25 44.873 204.941 44.5563 208.106 44.0284C211.164 43.5004 213.801 42.7614 215.911 41.8111C218.02 40.8608 219.602 39.805 220.868 38.6436C222.028 37.4822 222.978 36.2152 223.505 34.9482C224.138 33.6811 224.454 32.4141 224.665 31.2527C224.876 29.9857 224.876 28.9299 224.876 27.9796C224.876 26.2903 224.56 24.4954 223.927 22.5949C223.189 20.5888 221.923 18.8994 220.13 17.3157ZM219.392 33.2588C218.864 35.1593 217.809 36.8487 216.122 38.4324C214.434 40.0162 212.114 41.2832 209.055 42.339C205.996 43.3949 201.882 43.9228 196.82 43.9228H193.022V12.5644H198.191C201.144 12.5644 203.992 12.8811 206.629 13.5147C209.266 14.1482 211.586 15.0984 213.59 16.3654C215.594 17.6324 217.177 19.2162 218.337 21.1167C219.497 23.0172 220.13 25.34 220.13 27.874C220.13 29.5634 219.813 31.3583 219.392 33.2588Z" fill="white"/>
<path d="M231.627 4.96244C230.15 3.16751 228.357 1.90051 226.353 1.16142C224.349 0.422335 222.134 0 219.919 0C218.864 0 217.809 0.105584 216.544 0.211167V5.38477C218.337 4.11777 219.919 3.2731 221.29 2.74518C222.661 2.21726 223.821 1.90051 224.876 1.90051C226.353 1.90051 227.619 2.42843 228.462 3.48426C229.306 4.5401 229.939 5.91269 230.256 7.60203C230.572 9.29137 230.783 11.1919 230.888 13.198C230.994 15.3096 230.994 17.3157 230.994 19.2162V68.6294H236.057V19.533C236.057 16.5766 235.74 13.8315 235.107 11.403C234.264 8.86903 233.209 6.75736 231.627 4.96244Z" fill="white"/>
<path d="M310.629 31.147C309.785 31.3582 308.941 31.4638 307.886 31.4638C305.249 31.4638 302.402 31.0415 299.448 30.0912C297.233 29.3521 294.913 28.7186 292.381 28.0851C289.955 27.4516 287.424 26.8181 284.892 26.3958C282.361 25.8678 279.83 25.5511 277.193 25.2343C274.661 24.9176 272.13 24.812 269.809 24.812C267.067 24.812 264.535 25.1288 262.11 25.7623C259.789 26.3958 257.574 27.346 255.57 28.5074C253.566 29.6689 251.667 31.147 249.874 32.8364C248.081 34.5257 246.393 36.4262 244.811 38.6435L247.976 43.2892C248.714 40.9663 249.558 38.8547 250.507 36.8486C251.456 34.8425 252.617 33.1531 254.093 31.7805C255.464 30.3024 257.152 29.2465 259.051 28.4019C260.949 27.5572 263.164 27.1349 265.801 27.1349C269.071 27.1349 272.341 27.4516 275.505 27.9795C278.669 28.613 281.939 29.2465 285.103 29.9856C286.686 30.4079 288.268 30.7247 289.85 31.0415C291.432 31.3582 293.014 31.675 294.596 31.9917C297.866 32.6252 301.136 32.8364 304.089 32.8364L306.937 32.7308C302.296 38.5379 297.655 44.1338 293.12 49.8354C288.479 55.4313 283.732 61.0272 278.775 66.412V68.4181H311.578L312.633 62.8222C311.262 63.878 309.574 64.7227 307.57 65.3562C305.566 65.9897 303.562 66.412 301.452 66.8343C299.343 67.1511 297.233 67.3623 295.018 67.4678C292.909 67.5734 290.905 67.5734 289.112 67.5734H283.838L313.266 32.414V30.4079C312.844 30.5135 312.422 30.6191 311.895 30.7247C311.473 30.8303 311.051 30.9359 310.629 31.147Z" fill="white"/>
<path d="M293.436 75.8092C292.276 76.4427 291.116 76.865 289.955 77.2873C288.795 77.7097 287.635 77.8153 286.475 77.8153C285.209 77.8153 283.943 77.3929 282.783 76.5483C281.623 75.7036 280.568 74.6477 279.513 73.3807C278.458 72.1137 277.615 70.6356 276.771 68.9462C275.927 67.2569 275.189 65.5675 274.556 63.9838C273.923 62.2944 273.29 60.6051 272.868 59.0213C272.341 57.4376 272.024 56.065 271.602 54.9036C271.286 53.9533 271.075 53.2142 270.864 52.4752C270.653 51.7361 270.442 51.1026 270.231 50.4691L265.485 52.0528L269.598 63.667C267.7 64.934 265.59 65.9899 263.164 66.8345C260.738 67.6792 258.418 68.1016 256.097 68.1016C253.355 68.1016 251.245 67.3625 249.769 65.9899C248.292 64.6173 247.448 62.5056 247.448 59.7604C247.448 58.1767 247.976 56.6985 248.925 55.4315C249.874 54.0589 251.14 52.8975 252.722 51.8416C254.304 50.7858 256.097 49.8356 258.101 48.9909C260.105 48.1462 262.11 47.4071 264.219 46.8792C266.223 46.2457 268.227 45.8234 270.126 45.401C272.024 44.9787 273.606 44.662 274.978 44.5564C274.978 42.2335 274.767 40.1219 274.45 38.3269C274.134 36.532 273.501 34.9482 272.552 33.5757C271.602 32.3087 270.337 31.2528 268.755 30.6193C267.172 29.9858 265.168 29.5635 262.637 29.5635C261.266 29.5635 260 29.7746 258.945 30.197C257.89 30.6193 256.836 31.2528 255.781 32.2031L255.57 32.4142C255.886 32.0975 256.203 31.8863 256.625 31.7807C256.941 31.6752 257.152 31.5696 257.469 31.464C257.785 31.3584 257.996 31.2528 258.312 31.1472C258.84 30.9361 259.367 30.8305 260 30.7249C260.527 30.6193 261.16 30.5137 261.793 30.5137C263.903 30.5137 265.485 30.9361 266.75 31.7807C268.016 32.731 268.86 33.8924 269.387 35.265C269.915 36.6376 270.126 38.1158 270.231 39.5939C270.337 40.4386 270.337 41.2833 270.337 42.1279C270.337 42.9726 270.337 43.7117 270.337 44.5564C269.176 44.7675 267.7 45.0843 265.907 45.6122C264.114 46.0345 262.215 46.668 260.105 47.3015C257.996 47.9351 255.992 48.7797 253.882 49.6244C251.773 50.4691 249.874 51.5249 248.187 52.5807C246.499 53.6366 245.128 54.9036 244.073 56.1706C243.018 57.5432 242.491 58.9158 242.491 60.3939C242.491 62.1889 242.913 63.667 243.651 64.8285C244.389 65.9899 245.444 66.9401 246.71 67.6792C247.976 68.4183 249.347 68.9462 250.929 69.263C252.511 69.5797 253.988 69.6853 255.464 69.6853C257.152 69.6853 259.156 69.3686 261.371 68.8406C263.586 68.2071 265.379 67.468 266.961 66.6234C267.594 66.3066 268.122 66.0955 268.649 65.7787C269.176 65.462 269.598 65.1452 270.126 64.7229C271.602 69.5797 273.923 73.2752 276.982 75.7036C280.041 78.2376 284.154 79.5046 289.322 79.5046C291.116 79.5046 292.909 79.2934 294.596 78.9767C296.284 78.6599 298.077 78.2376 299.765 77.6041V72.0081C298.921 72.6416 297.972 73.2752 296.917 74.0142C295.651 74.6477 294.596 75.2812 293.436 75.8092Z" fill="white"/>
<path d="M362.945 65.5677C362.629 65.7789 362.418 65.8845 362.101 66.0957C361.785 66.3068 361.574 66.4124 361.258 66.6236C360.73 66.8347 360.203 67.1515 359.57 67.2571C359.043 67.4683 358.41 67.4683 357.777 67.4683C355.667 67.4683 354.085 66.8347 352.819 65.4622C351.554 63.8784 350.71 61.9779 350.183 59.7606C349.655 57.5434 349.444 55.2205 349.339 52.7921C349.339 51.4195 349.233 50.0469 349.233 48.6743C349.233 47.6185 349.233 46.5627 349.233 45.5068C349.233 45.5068 349.233 45.5068 349.233 45.4012V44.6622V43.6063C349.233 43.5007 349.233 43.5007 349.233 43.3952V43.2896C349.233 40.9667 349.022 38.8551 348.6 37.1657C348.179 35.2652 347.44 33.6814 346.491 32.52C345.436 31.253 344.065 30.3028 342.377 29.7748C340.584 29.1413 338.475 28.9302 335.732 28.9302C335.099 28.9302 334.572 28.9302 334.045 28.9302C333.517 28.9302 332.99 29.0358 332.462 29.0358C330.142 29.2469 328.349 29.6693 326.978 30.3028C325.606 30.9363 324.552 31.4642 323.813 32.0977C323.075 32.7312 322.653 33.2591 322.337 33.787C322.126 34.3149 322.02 34.5261 322.02 34.6317H327.611C327.822 33.6814 328.138 32.9424 328.665 32.2033C329.193 31.5698 330.037 31.0419 330.986 30.5139C332.041 29.986 333.412 29.7748 335.099 29.7748C337.209 29.7748 338.897 30.0916 340.162 30.7251C341.428 31.3586 342.377 32.3089 343.01 33.4703C343.643 34.6317 344.065 36.1099 344.276 37.9048C344.487 39.5941 344.592 41.6002 344.592 43.8175C341.955 44.451 339.529 45.0845 337.209 45.718C334.888 46.3515 332.673 47.0906 330.669 47.8297C328.982 48.4632 327.189 49.2023 325.501 50.0469C323.813 50.8916 322.337 51.8419 321.071 52.7921C319.805 53.8479 318.751 54.9038 317.907 55.9596C317.063 57.121 316.641 58.2825 316.641 59.6551C316.641 61.2388 316.957 62.717 317.696 63.8784C318.751 65.6733 320.333 66.9403 322.548 67.785C324.657 68.6297 327.083 69.052 329.72 69.052C331.408 69.052 333.095 68.8408 334.677 68.4185C336.26 67.9962 337.736 67.4683 339.002 66.9403C340.268 66.4124 341.323 65.7789 342.272 65.251C342.799 64.9342 343.221 64.6175 343.643 64.4063C343.538 64.0896 343.643 63.6672 343.643 63.2449C342.061 64.3007 340.057 65.251 337.736 66.0957C335.31 67.0459 332.884 67.5738 330.353 67.5738C329.193 67.5738 328.032 67.4682 326.978 67.1515C325.923 66.8347 325.079 66.4124 324.235 65.6733C323.497 65.0398 322.864 64.1952 322.337 63.1393C321.915 62.0835 321.598 60.7109 321.598 59.2327C321.598 57.8601 322.02 56.4875 322.864 55.3261C323.708 54.1647 324.763 53.0033 326.028 52.053C327.294 51.1028 328.771 50.1525 330.458 49.4134C332.146 48.5688 333.834 47.9353 335.521 47.3018C337.209 46.6682 338.791 46.2459 340.373 45.8236C341.955 45.4012 343.327 45.0845 344.487 44.8733H344.592H344.487C344.487 48.6743 344.698 52.053 345.014 55.0094C345.331 57.9657 345.963 60.6053 346.913 62.717C347.862 64.8287 349.128 66.4124 350.71 67.5738C352.292 68.6297 354.296 69.2632 356.828 69.2632C358.199 69.2632 359.464 68.9464 360.519 68.3129C361.574 67.6794 362.629 66.6236 363.789 65.0398L364 64.7231C363.684 64.9342 363.367 65.3566 362.945 65.5677Z" fill="white"/>
</svg>
