<svg width="280" height="80" viewBox="0 0 280 80" fill="none" xmlns="http://www.w3.org/2000/svg">
<path d="M44.3002 79.9188L43.1643 78.132H42.1907V79.9188H41.6227V75.2893H43.4888C44.3002 75.2893 44.9493 75.8579 44.9493 76.6701C44.9493 77.4822 44.3813 77.9695 43.7322 77.9695L44.9493 79.8376H44.3002V79.9188ZM44.3002 76.7513C44.3002 76.264 43.8945 75.8579 43.4077 75.8579H42.1907V77.6447H43.4077C43.9757 77.5635 44.3002 77.2386 44.3002 76.7513Z" fill="black"/>
<path d="M53.2251 79.9188V75.2893H56.2272V75.7767H53.7931V77.2386H56.146V77.7259H53.7931V79.3503H56.2272V79.8376H53.2251V79.9188Z" fill="black"/>
<path d="M67.8296 79.9188L67.4239 78.8629H65.1521L64.7464 79.9188H64.0974L65.9635 75.2893H66.6937L68.5598 79.9188H67.8296ZM66.288 75.9391L65.3144 78.3756H67.2617L66.288 75.9391Z" fill="black"/>
<path d="M76.5112 79.9188V75.2893H77.0791V79.3503H79.1886V79.8376H76.5112V79.9188Z" fill="black"/>
<path d="M96.6329 79.9188V75.2893H99.6349V75.7767H97.2008V77.2386H99.5537V77.7259H97.2008V79.3503H99.6349V79.8376H96.6329V79.9188Z" fill="black"/>
<path d="M107.748 79.269L108.073 78.8629C108.398 79.1878 108.884 79.5127 109.533 79.5127C110.345 79.5127 110.588 79.1066 110.588 78.7005C110.588 77.4822 107.83 78.132 107.83 76.5076C107.83 75.7766 108.479 75.2081 109.371 75.2081C110.101 75.2081 110.588 75.4518 110.994 75.8579L110.669 76.264C110.345 75.8579 109.858 75.6954 109.371 75.6954C108.803 75.6954 108.398 76.0203 108.398 76.4264C108.398 77.4822 111.156 76.8325 111.156 78.6193C111.156 79.269 110.669 80 109.452 80C108.722 80 108.154 79.6751 107.748 79.269Z" fill="black"/>
<path d="M120.568 79.9188V75.8579H119.107V75.3706H122.596V75.8579H121.136V79.9188H120.568Z" fill="black"/>
<path d="M134.118 79.9188L133.712 78.8629H131.44L131.034 79.9188H130.385L132.252 75.2893H132.982L134.848 79.9188H134.118ZM132.576 75.9391L131.602 78.3756H133.55L132.576 75.9391Z" fill="black"/>
<path d="M143.935 79.9188V75.8579H142.475V75.3706H145.963V75.8579H144.503V79.9188H143.935Z" fill="black"/>
<path d="M154.077 79.9188V75.2893H157.079V75.7767H154.645V77.2386H156.998V77.7259H154.645V79.3503H157.079V79.8376H154.077V79.9188Z" fill="black"/>
<path d="M177.931 79.9188L177.525 78.8629H175.254L174.848 79.9188H174.199L176.065 75.2893H176.795L178.661 79.9188H177.931ZM176.389 75.9391L175.416 78.3756H177.363L176.389 75.9391Z" fill="black"/>
<path d="M186.45 77.6447C186.45 76.1827 187.505 75.2893 188.803 75.2893C189.615 75.2893 190.183 75.6142 190.588 76.1827L190.101 76.4264C189.777 76.0203 189.29 75.7767 188.803 75.7767C187.83 75.7767 187.018 76.5888 187.018 77.6447C187.018 78.7005 187.748 79.5127 188.803 79.5127C189.371 79.5127 189.777 79.269 190.02 79.0254V78.0508H188.479V77.5635H190.588V79.1878C190.183 79.6751 189.533 80 188.803 80C187.505 80 186.45 79.0254 186.45 77.6447Z" fill="black"/>
<path d="M198.945 79.9188V75.2893H201.947V75.7767H199.513V77.2386H201.866V77.7259H199.513V79.3503H201.947V79.8376H198.945V79.9188Z" fill="black"/>
<path d="M213.55 79.9188L210.872 76.264V79.9188H210.304V75.2893H210.872L213.55 78.8629V75.2893H214.118V79.9188H213.55Z" fill="black"/>
<path d="M222.394 77.6447C222.394 76.264 223.448 75.2893 224.746 75.2893C225.558 75.2893 226.126 75.6954 226.45 76.1827L225.963 76.4264C225.72 76.0203 225.233 75.7767 224.665 75.7767C223.692 75.7767 222.88 76.5888 222.88 77.6447C222.88 78.7005 223.611 79.5127 224.665 79.5127C225.152 79.5127 225.639 79.269 225.963 78.8629L226.45 79.1066C226.045 79.5939 225.477 80 224.665 80C223.448 80 222.394 79.0254 222.394 77.6447Z" fill="black"/>
<path d="M236.024 79.9188V77.9695L234.239 75.2893H234.888L236.349 77.401L237.809 75.2893H238.458L236.673 77.9695V79.9188H236.024Z" fill="black"/>
<path d="M26.7748 49.3807C25.5578 50.0305 24.2596 50.5178 22.7992 50.9239C21.3387 51.3299 19.8783 51.5736 18.3367 51.736C16.7951 51.8985 15.2536 52.0609 13.7931 52.0609C12.2515 52.1421 10.8722 52.1421 9.4929 52.1421H3.89452V9.01523H0V52.7919H27.3428L27.5862 51.2487C27.6673 50.8426 27.7485 50.4366 27.8296 49.9492C27.9108 49.5432 27.9919 49.1371 27.9919 48.8934C28.073 48.8122 28.073 48.731 28.073 48.5685V48.4061C27.8296 48.5685 27.6673 48.731 27.4239 48.8934C27.2617 49.1371 27.0183 49.2183 26.7748 49.3807Z" fill="#3C3C3B"/>
<path d="M33.5091 11.2893C32.86 11.2893 32.2921 11.533 31.7241 11.9391C31.1562 12.3452 30.9128 12.9137 30.9128 13.5634C30.9128 14.132 31.1562 14.7005 31.7241 15.1878C32.211 15.6751 32.86 15.9188 33.5903 15.9188C34.3205 15.9188 34.8884 15.6751 35.4564 15.1878C35.9432 14.7005 36.2678 14.2132 36.2678 13.5634C36.2678 12.9137 36.0243 12.4264 35.4564 11.9391C34.8073 11.4518 34.2394 11.2893 33.5091 11.2893Z" fill="#3C3C3B"/>
<path d="M31.4807 52.7919H35.3753V23.4721H31.3996L31.4807 52.7919Z" fill="#3C3C3B"/>
<path d="M69.2901 26.3959C67.9107 25.0964 66.288 24.0406 64.4219 23.2284C62.5558 22.4975 60.4462 22.0914 58.2556 22.0914C56.5517 22.0914 54.929 22.335 53.3063 22.7411C51.6836 23.2284 50.2231 23.8782 48.8438 24.8528C48.5193 25.0964 48.2759 25.2589 48.0325 25.5025C47.789 25.7462 47.5456 25.9898 47.3022 26.1523C46.8966 26.5584 46.4097 27.0457 45.9229 27.6954V22.9036H42.0284V67.5736H45.9229V48.8122C46.7343 49.6244 47.7079 50.3553 48.8438 50.8426C50.0609 51.5736 51.359 52.0609 52.7383 52.467C54.1176 52.7919 55.497 53.0355 56.8763 53.0355C59.2292 53.0355 61.501 52.7107 63.5294 51.9797C65.5578 51.2487 67.3428 50.2741 68.8844 48.9746C70.3448 47.6751 71.5619 46.0508 72.4544 44.1015C73.3469 42.1523 73.7525 40.0406 73.7525 37.6041C73.7525 35.3299 73.3469 33.2183 72.6166 31.269C71.7241 29.3198 70.6694 27.6954 69.2901 26.3959ZM69.2901 43.6142C68.8032 45.3198 67.9919 46.7817 66.9371 48C65.8824 49.2995 64.6653 50.2741 63.2049 51.0051C61.7444 51.736 60.0406 52.1421 58.0933 52.1421C56.3895 52.1421 54.8479 51.8985 53.3874 51.4924C51.927 51.0863 50.6288 50.3553 49.4929 49.4619C48.357 48.5685 47.4645 47.4315 46.8154 46.132C46.1663 44.8325 45.8418 43.2893 45.8418 41.5025V29.1574C46.1663 28.5076 46.572 28.0203 46.9777 27.533C48.4381 26.0711 49.8986 24.934 51.4402 24.203C52.9817 23.4721 54.7667 23.066 56.8763 23.066C58.9858 23.066 60.9331 23.4721 62.5558 24.3655C64.1785 25.2589 65.5578 26.3959 66.6937 27.7766C67.8296 29.2386 68.641 30.8629 69.2089 32.6497C69.7769 34.5178 70.1014 36.3858 70.1014 38.2538C70.1014 40.203 69.858 41.9086 69.2901 43.6142Z" fill="#3C3C3B"/>
<path d="M92.7383 29.9695C93.144 29.6447 93.5497 29.401 93.9554 29.0761C95.1724 28.1015 96.2272 27.4518 97.1197 27.1269C98.0122 26.802 98.7424 26.6396 99.3915 26.6396C99.8783 26.6396 100.203 26.7208 100.527 26.802C100.852 26.8832 101.095 27.0457 101.339 27.1269L101.988 27.6142L105.152 24.6091C104.99 24.4467 104.828 24.2843 104.584 24.0406C104.341 23.8782 104.097 23.7157 103.854 23.6345C103.529 23.5533 103.205 23.4721 102.718 23.4721C102.15 23.4721 101.501 23.5533 100.771 23.797C100.041 24.0406 99.1481 24.5279 98.1745 25.1777C97.8499 25.4213 97.282 25.8274 96.4706 26.3959C95.6592 26.9645 94.7667 27.6142 93.712 28.3452C92.6572 29.0761 91.6024 29.8071 90.4665 30.5381C89.3306 31.3503 88.2759 32.0812 87.2211 32.731C86.1663 33.4619 85.2738 34.1117 84.4625 34.6802C83.6511 35.2487 83.0832 35.6548 82.7586 35.8985V15.4315C82.7586 13.8883 82.7586 12.264 82.7586 10.6396C82.7586 9.01523 82.9209 7.5533 83.1643 6.17259C83.4077 4.79188 83.8945 3.73604 84.5436 2.84264C85.1927 1.94924 86.0852 1.54315 87.3022 1.54315C88.1136 1.54315 89.0061 1.7868 90.0609 2.19289C91.1156 2.59898 92.3327 3.24873 93.712 4.22335V0.162437C92.7383 0 91.8459 0 91.1156 0C89.574 0 88.1136 0.243655 86.572 0.812183C85.0304 1.29949 83.7323 2.27411 82.5152 3.5736C81.3793 4.79188 80.4868 6.33503 79.9189 8.12183C79.3509 9.90863 79.0264 11.7767 78.8641 13.8883V52.8731H82.7586V37.1168L88.6816 32.8122L90.3043 34.7614C90.7911 35.4112 91.4402 36.0609 92.0893 36.8731C92.7383 37.6853 93.4686 38.5787 94.2799 39.4721L105.314 52.7919H109.371L91.359 30.9442C91.8458 30.6193 92.2515 30.2944 92.7383 29.9695Z" fill="#3C3C3B"/>
<path d="M113.915 11.2893C113.266 11.2893 112.698 11.533 112.13 11.9391C111.562 12.3452 111.318 12.9137 111.318 13.5634C111.318 14.132 111.562 14.7005 112.13 15.1878C112.617 15.6751 113.266 15.9188 113.996 15.9188C114.726 15.9188 115.294 15.6751 115.862 15.1878C116.349 14.7005 116.673 14.2132 116.673 13.5634C116.673 12.9137 116.43 12.4264 115.862 11.9391C115.213 11.4518 114.564 11.2893 113.915 11.2893Z" fill="#3C3C3B"/>
<path d="M111.886 52.7919H115.781V23.4721H111.724L111.886 52.7919Z" fill="#3C3C3B"/>
<path d="M169.331 13.3198C167.87 12.1015 165.923 11.0457 163.327 10.2335C160.73 9.42132 157.323 9.01523 153.185 9.01523H144.584V52.7919H148.479V34.5178H151.4C154.807 34.5178 157.647 34.2741 160.081 33.868C162.434 33.4619 164.462 32.8934 166.085 32.1624C167.708 31.4315 168.925 30.6193 169.899 29.7259C170.791 28.8325 171.521 27.8579 171.927 26.8832C172.414 25.9086 172.657 24.934 172.819 24.0406C172.982 23.066 172.982 22.2538 172.982 21.5228C172.982 20.2234 172.738 18.8426 172.252 17.3807C171.684 15.8376 170.71 14.5381 169.331 13.3198ZM168.763 25.5838C168.357 27.0457 167.546 28.3452 166.247 29.5635C164.949 30.7817 163.164 31.7563 160.811 32.5685C158.458 33.3807 155.294 33.7868 151.4 33.7868H148.479V9.66497H152.454C154.726 9.66497 156.917 9.90863 158.945 10.3959C160.974 10.8832 162.759 11.6142 164.3 12.5888C165.842 13.5635 167.059 14.7817 167.951 16.2437C168.844 17.7056 169.331 19.4924 169.331 21.4416C169.331 22.7411 169.087 24.1218 168.763 25.5838Z" fill="#3C3C3B"/>
<path d="M178.174 3.81726C177.039 2.43655 175.659 1.46193 174.118 0.893401C172.576 0.324873 170.872 0 169.168 0C168.357 0 167.546 0.0812183 166.572 0.162437V4.14213C167.951 3.16751 169.168 2.51777 170.223 2.11168C171.278 1.70558 172.17 1.46193 172.982 1.46193C174.118 1.46193 175.091 1.86802 175.74 2.6802C176.389 3.49239 176.876 4.54822 177.12 5.84772C177.363 7.14721 177.525 8.60914 177.606 10.1523C177.688 11.7767 177.688 13.3198 177.688 14.7817V52.7919H181.582V15.0254C181.582 12.7513 181.339 10.6396 180.852 8.77157C180.203 6.82234 179.391 5.19797 178.174 3.81726Z" fill="#3C3C3B"/>
<path d="M238.945 23.9594C238.296 24.1218 237.647 24.203 236.836 24.203C234.807 24.203 232.617 23.8782 230.345 23.1472C228.641 22.5787 226.856 22.0914 224.909 21.6041C223.043 21.1167 221.095 20.6294 219.148 20.3046C217.201 19.8985 215.254 19.6548 213.225 19.4112C211.278 19.1675 209.331 19.0863 207.546 19.0863C205.436 19.0863 203.489 19.3299 201.623 19.8173C199.838 20.3046 198.134 21.0355 196.592 21.9289C195.051 22.8223 193.59 23.9594 192.211 25.2589C190.832 26.5584 189.533 28.0203 188.316 29.7259L190.75 33.2995C191.318 31.5127 191.968 29.8883 192.698 28.3452C193.428 26.802 194.32 25.5025 195.456 24.4467C196.511 23.3096 197.809 22.4975 199.27 21.8477C200.73 21.198 202.434 20.8731 204.462 20.8731C206.978 20.8731 209.493 21.1167 211.927 21.5228C214.361 22.0101 216.876 22.4975 219.31 23.066C220.527 23.3909 221.744 23.6345 222.961 23.8782C224.178 24.1218 225.396 24.3655 226.613 24.6091C229.128 25.0964 231.643 25.2589 233.915 25.2589L236.105 25.1777C232.535 29.6447 228.965 33.9492 225.477 38.335C221.907 42.6396 218.256 46.9442 214.442 51.0863V52.6294H239.675L240.487 48.3249C239.432 49.137 238.134 49.7868 236.592 50.2741C235.051 50.7614 233.509 51.0863 231.886 51.4112C230.264 51.6548 228.641 51.8173 226.937 51.8985C225.314 51.9797 223.773 51.9797 222.394 51.9797H218.337L240.974 24.934V23.3909C240.649 23.4721 240.325 23.5533 239.919 23.6345C239.594 23.7157 239.27 23.7969 238.945 23.9594Z" fill="#3C3C3B"/>
<path d="M225.72 58.3147C224.828 58.802 223.935 59.1269 223.043 59.4518C222.15 59.7767 221.258 59.8579 220.365 59.8579C219.391 59.8579 218.418 59.533 217.525 58.8833C216.633 58.2335 215.821 57.4213 215.01 56.4467C214.199 55.4721 213.55 54.335 212.901 53.0355C212.252 51.736 211.684 50.4366 211.197 49.2183C210.71 47.9188 210.223 46.6193 209.899 45.401C209.493 44.1827 209.249 43.1269 208.925 42.2335C208.682 41.5025 208.519 40.934 208.357 40.3655C208.195 39.797 208.032 39.3096 207.87 38.8223L204.219 40.0406L207.383 48.9746C205.923 49.9492 204.3 50.7614 202.434 51.4112C200.568 52.0609 198.783 52.3858 196.998 52.3858C194.888 52.3858 193.266 51.8173 192.13 50.7614C190.994 49.7056 190.345 48.0812 190.345 45.9695C190.345 44.7513 190.751 43.6142 191.481 42.6396C192.211 41.5838 193.185 40.6904 194.402 39.8782C195.619 39.066 196.998 38.335 198.54 37.6853C200.081 37.0355 201.623 36.467 203.245 36.0609C204.787 35.5736 206.329 35.2487 207.789 34.9239C209.249 34.599 210.467 34.3553 211.521 34.2741C211.521 32.4873 211.359 30.8629 211.116 29.4822C210.872 28.1015 210.385 26.8833 209.655 25.8274C208.925 24.8528 207.951 24.0406 206.734 23.5533C205.517 23.066 203.976 22.7411 202.028 22.7411C200.974 22.7411 200 22.9036 199.189 23.2284C198.377 23.5533 197.566 24.0406 196.755 24.7716L196.592 24.934C196.836 24.6904 197.079 24.5279 197.404 24.4467C197.647 24.3655 197.809 24.2843 198.053 24.203C198.296 24.1218 198.458 24.0406 198.702 23.9594C199.107 23.797 199.513 23.7157 200 23.6345C200.406 23.5533 200.892 23.4721 201.379 23.4721C203.002 23.4721 204.219 23.797 205.193 24.4467C206.166 25.1777 206.815 26.0711 207.221 27.1269C207.627 28.1827 207.789 29.3198 207.87 30.4569C207.951 31.1066 207.951 31.7563 207.951 32.4061C207.951 33.0558 207.951 33.6244 207.951 34.2741C207.059 34.4366 205.923 34.6802 204.544 35.0863C203.164 35.4112 201.704 35.8985 200.081 36.3858C198.458 36.8731 196.917 37.5228 195.294 38.1726C193.671 38.8223 192.211 39.6345 190.913 40.4467C189.615 41.2589 188.56 42.2335 187.748 43.2081C186.937 44.264 186.531 45.3198 186.531 46.4569C186.531 47.8376 186.856 48.9746 187.424 49.868C187.992 50.7614 188.803 51.4924 189.777 52.0609C190.75 52.6294 191.805 53.0355 193.022 53.2792C194.239 53.5228 195.375 53.6041 196.511 53.6041C197.809 53.6041 199.351 53.3604 201.055 52.9543C202.759 52.467 204.138 51.8985 205.355 51.2487C205.842 51.0051 206.247 50.8426 206.653 50.599C207.059 50.3553 207.383 50.1117 207.789 49.7868C208.925 53.5228 210.71 56.3655 213.063 58.2335C215.416 60.1827 218.58 61.1574 222.556 61.1574C223.935 61.1574 225.314 60.9949 226.613 60.7513C227.911 60.5076 229.29 60.1827 230.588 59.6954V55.3909C229.939 55.8782 229.209 56.3655 228.398 56.934C227.424 57.4213 226.613 57.9086 225.72 58.3147Z" fill="#3C3C3B"/>
<path d="M279.189 50.4365C278.945 50.599 278.783 50.6802 278.54 50.8426C278.296 51.0051 278.134 51.0863 277.89 51.2487C277.485 51.4112 277.079 51.6548 276.592 51.736C276.187 51.8985 275.7 51.8985 275.213 51.8985C273.59 51.8985 272.373 51.4112 271.4 50.3553C270.426 49.1371 269.777 47.6751 269.371 45.9695C268.966 44.264 268.803 42.4772 268.722 40.6091C268.722 39.5533 268.641 38.4975 268.641 37.4416C268.641 36.6294 268.641 35.8173 268.641 35.0051C268.641 35.0051 268.641 35.0051 268.641 34.9239V34.3553V33.5431C268.641 33.4619 268.641 33.4619 268.641 33.3807V33.2995C268.641 31.5127 268.479 29.8883 268.154 28.5888C267.83 27.1269 267.262 25.9086 266.531 25.0152C265.72 24.0406 264.665 23.3096 263.367 22.9036C261.988 22.4162 260.365 22.2538 258.256 22.2538C257.769 22.2538 257.363 22.2538 256.957 22.2538C256.552 22.2538 256.146 22.335 255.74 22.335C253.955 22.4975 252.576 22.8223 251.521 23.3096C250.467 23.797 249.655 24.203 249.087 24.6904C248.519 25.1777 248.195 25.5838 247.951 25.9898C247.789 26.3959 247.708 26.5584 247.708 26.6396H252.008C252.17 25.9086 252.414 25.3401 252.819 24.7716C253.225 24.2843 253.874 23.8782 254.604 23.4721C255.416 23.066 256.471 22.9036 257.769 22.9036C259.391 22.9036 260.69 23.1472 261.663 23.6345C262.637 24.1218 263.367 24.8528 263.854 25.7462C264.341 26.6396 264.665 27.7767 264.828 29.1574C264.99 30.4569 265.071 32 265.071 33.7056C263.043 34.1929 261.176 34.6802 259.391 35.1675C257.607 35.6548 255.903 36.2233 254.361 36.7919C253.063 37.2792 251.684 37.8477 250.385 38.4975C249.087 39.1472 247.951 39.8782 246.978 40.6091C246.004 41.4213 245.193 42.2335 244.544 43.0457C243.895 43.9391 243.57 44.8325 243.57 45.8883C243.57 47.1066 243.813 48.2437 244.381 49.1371C245.193 50.5178 246.41 51.4924 248.114 52.1421C249.736 52.7919 251.602 53.1168 253.631 53.1168C254.929 53.1168 256.227 52.9543 257.444 52.6294C258.661 52.3046 259.797 51.8985 260.771 51.4924C261.744 51.0863 262.556 50.599 263.286 50.1929C263.692 49.9492 264.016 49.7056 264.341 49.5431C264.26 49.2995 264.341 48.9746 264.341 48.6497C263.124 49.4619 261.582 50.1929 259.797 50.8426C257.931 51.5736 256.065 51.9797 254.118 51.9797C253.225 51.9797 252.333 51.8985 251.521 51.6548C250.71 51.4112 250.061 51.0863 249.412 50.5178C248.844 50.0305 248.357 49.3807 247.951 48.5685C247.627 47.7563 247.383 46.7005 247.383 45.5634C247.383 44.5076 247.708 43.4518 248.357 42.5584C249.006 41.665 249.817 40.7716 250.791 40.0406C251.765 39.3096 252.901 38.5787 254.199 38.0102C255.497 37.3604 256.795 36.8731 258.093 36.3858C259.391 35.8985 260.609 35.5736 261.826 35.2487C263.043 34.9239 264.097 34.6802 264.99 34.5178H265.071H264.99C264.99 37.4416 265.152 40.0406 265.396 42.3147C265.639 44.5888 266.126 46.6193 266.856 48.2437C267.586 49.868 268.56 51.0863 269.777 51.9797C270.994 52.7919 272.535 53.2792 274.483 53.2792C275.538 53.2792 276.511 53.0355 277.323 52.5482C278.134 52.0609 278.945 51.2487 279.838 50.0305L280 49.7868C279.757 49.9492 279.513 50.2741 279.189 50.4365Z" fill="#3C3C3B"/>
</svg>
