<svg width="20" height="20" viewBox="0 0 20 20" fill="none" xmlns="http://www.w3.org/2000/svg">
<path d="M17.5 1.25H2.5C1.8125 1.25 1.25 1.8125 1.25 2.5V17.5C1.25 18.1875 1.8125 18.75 2.5 18.75H11.875V17.5C11.875 15.75 13.25 14.375 15 14.375V13.125C12.5625 13.125 10.625 15.0625 10.625 17.5H8.75V15H7.5V17.5H2.5V2.5H7.5V11.25H8.75V8.125H11.25V6.875H8.75V2.5H17.5V6.875H15V8.125H17.5V17.5H15V18.75H17.5C18.1875 18.75 18.75 18.1875 18.75 17.5V2.5C18.75 1.8125 18.1875 1.25 17.5 1.25Z" fill="#E1B164"/>
</svg>
