<svg width="36" height="30" viewBox="0 0 36 30" fill="none" xmlns="http://www.w3.org/2000/svg">
<g clip-path="url(#clip0_498_8353)">
<path d="M9.55925 15.3634V25.9386C9.56064 26.1425 9.72644 26.3069 9.93007 26.3069H26.218C26.3157 26.3069 26.4092 26.2681 26.4783 26.199C26.5474 26.1299 26.5862 26.0364 26.5862 25.9386V15.6518L30.1901 18.7907L30.6752 18.2201L18.3165 7.46236C18.1785 7.34393 17.9749 7.34393 17.837 7.46236L4.99365 18.2313L5.46738 18.8019L9.55925 15.3634ZM10.2983 14.7441L18.071 8.22694L25.8468 15.0066V25.5645H16.1449V20.8307C16.1248 20.3058 16.3191 19.7955 16.6833 19.4169C17.0476 19.0385 17.5502 18.8245 18.0752 18.8245C18.6005 18.8245 19.1031 19.0385 19.4673 19.4169C19.8314 19.7954 20.0258 20.3058 20.0057 20.8307V23.7869H20.7448V20.8307C20.7448 19.8764 20.2356 18.9947 19.4092 18.5175C18.5829 18.0404 17.5649 18.0404 16.7384 18.5175C15.912 18.9947 15.403 19.8764 15.403 20.8307V25.5675H10.3009L10.2983 14.7441Z" fill="#E49216"/>
<path d="M26.5376 6.06382V6.03237C26.5364 5.86239 26.418 5.71569 26.2522 5.67867C26.2351 5.67867 24.4116 5.13069 23.9693 2.53971C23.9377 2.36296 23.7838 2.23438 23.6041 2.23438C23.4319 2.23975 23.2868 2.36455 23.256 2.53394C22.8165 5.10199 21.0446 5.65577 20.9731 5.67289H20.9733C20.8141 5.71668 20.7042 5.86178 20.705 6.02679V6.05824V6.05804C20.7024 6.22564 20.8123 6.37412 20.9733 6.4205C20.9932 6.4205 22.8167 6.96547 23.2562 9.55946H23.256C23.2854 9.73681 23.4385 9.86718 23.6184 9.86758C23.7986 9.86619 23.952 9.73661 23.9837 9.55946C24.4202 6.99141 26.1895 6.44063 26.2665 6.4205C26.426 6.37492 26.5364 6.22962 26.5376 6.06382ZM23.6184 8.14682C23.284 7.28415 22.6845 6.54988 21.9062 6.0495C22.6847 5.54811 23.284 4.81281 23.6184 3.94937C23.9538 4.81225 24.553 5.54708 25.3306 6.0495C24.553 6.55069 23.9537 7.28476 23.6184 8.14682Z" fill="#E49216"/>
<path d="M25.5903 10.6808C25.6444 10.6979 26.9116 11.0946 27.2255 12.9466V12.9464C27.2569 13.1235 27.4108 13.2525 27.5907 13.2525C27.7705 13.2525 27.9245 13.1235 27.956 12.9464C28.2699 11.0972 29.531 10.6978 29.5881 10.6806V10.6808C29.7489 10.6257 29.857 10.4742 29.8564 10.304C29.8558 10.1398 29.7481 9.99512 29.5909 9.94735C29.5368 9.94735 28.2696 9.53354 27.9557 7.68162L27.9559 7.68182C27.9245 7.50467 27.7704 7.37549 27.5907 7.37549C27.4108 7.37549 27.2569 7.50467 27.2254 7.68182C26.9116 9.53374 25.6447 9.93323 25.5933 9.94755V9.94735C25.4255 9.99651 25.3097 10.1494 25.3079 10.3241C25.3104 10.4931 25.4263 10.6394 25.5903 10.6808ZM27.5877 8.98299C27.8355 9.51782 28.2205 9.9778 28.7035 10.3156C28.2197 10.6514 27.8345 11.1106 27.5877 11.6452C27.3401 11.1112 26.9551 10.6522 26.472 10.3156C26.9555 9.97721 27.3413 9.51762 27.5907 8.98299H27.5877Z" fill="#E49216"/>
</g>
<defs>
<clipPath id="clip0_498_8353">
<rect width="35.656" height="30" fill="white"/>
</clipPath>
</defs>
</svg>
