<svg width="130" height="100" viewBox="0 0 130 100" fill="none" xmlns="http://www.w3.org/2000/svg">
<path d="M85.8097 43.2162V46.6027C85.1574 46.3643 84.4632 45.8882 84.4632 45.267H81.9985C81.9985 47.338 83.9141 48.7987 85.8096 49.1606V50.3208H88.2744V49.0675C89.2286 48.8753 90.1128 48.4282 90.8323 47.773C91.4283 47.2333 91.8371 46.5182 92.0011 45.7308C92.1644 44.9441 92.0748 44.1249 91.7439 43.3924C91.0389 42.0921 89.7438 41.218 88.2743 41.0519V37.6655C88.7923 37.9349 89.2481 38.3286 89.2481 38.8047H91.7128C91.7128 36.868 90.0456 35.5113 88.2742 35.0557V33.668H85.8095V34.9314C84.6971 35.0889 83.6597 35.5844 82.8377 36.3502C82.2519 36.9021 81.8546 37.6237 81.7021 38.414C81.5497 39.2042 81.6501 40.022 81.9882 40.7516C82.7973 42.135 84.216 43.0503 85.8096 43.2164L85.8097 43.2162ZM88.2744 43.568V43.5688C88.8292 43.6829 89.306 44.0354 89.579 44.5317C89.7524 45.0677 89.5942 45.6564 89.1752 46.0335C88.9195 46.2502 88.6291 46.4214 88.3156 46.5406L88.2744 43.568ZM84.5672 38.1104C84.9168 37.7861 85.3451 37.5578 85.8096 37.448V40.6893C85.1494 40.5802 84.5621 40.206 84.1836 39.6541C83.9871 39.1094 84.1388 38.4997 84.5672 38.1104V38.1104Z" fill="#E49216"/>
<path d="M72.6151 55.4248C73.4198 56.0019 74.39 56.3032 75.3803 56.2844H97.4589C98.4493 56.3046 99.4195 56.0034 100.224 55.4248C100.676 55.138 101.043 54.7371 101.291 54.2625C101.538 53.7879 101.656 53.2569 101.633 52.7224C101.519 51.0544 99.9338 49.7086 98.9809 49.0974V37.561C99.0676 35.7616 98.6718 33.9715 97.8345 32.3765C96.9966 30.7815 95.7483 29.4393 94.2175 28.4888C93.0559 27.7527 91.7665 27.2398 90.417 26.9768L93.1823 20.1728L93.1816 20.1735C93.4098 19.6093 93.2003 18.9628 92.6846 18.6406C92.1695 18.3271 91.5042 18.4326 91.1105 18.8891C88.1176 22.3066 82.2253 21.0844 82.1733 21.0742C81.7117 20.976 81.2342 21.1486 80.9409 21.5192C80.6556 21.8782 80.5992 22.3687 80.7957 22.7826L82.7534 26.9254C81.2826 27.1681 79.8748 27.6991 78.6113 28.4886C77.0799 29.4421 75.8309 30.7858 74.9916 32.3823C74.1529 33.9787 73.7541 35.7694 73.8372 37.5712V49.0974C72.8844 49.7396 71.3002 51.0551 71.1861 52.7224C71.1644 53.2584 71.2858 53.7915 71.5364 54.2661C71.7878 54.7407 72.1598 55.1402 72.6149 55.4248L72.6151 55.4248ZM75.7221 50.8679C76.1006 50.657 76.3433 50.2655 76.3643 49.8328V37.5611C76.2841 36.1785 76.5767 34.8001 77.2131 33.57C77.8488 32.3405 78.8038 31.3039 79.9783 30.5706C81.3949 29.6929 83.0246 29.2205 84.6903 29.2039C85.0991 29.1743 85.4683 28.9453 85.6749 28.5913C85.8822 28.2374 85.901 27.8032 85.7254 27.4326L83.986 23.8186C85.8186 23.9204 87.6535 23.6524 89.3814 23.0312L87.5068 27.5259C87.3566 27.8878 87.3883 28.3003 87.5935 28.6347C87.7987 28.9685 88.1519 29.1845 88.5427 29.2141C90.0655 29.3029 91.5428 29.7689 92.8401 30.5707C94.0161 31.3032 94.974 32.3383 95.611 33.5686C96.2489 34.7988 96.5436 36.1777 96.4649 37.5612V49.7809C96.4808 50.2121 96.7206 50.6044 97.0963 50.8168C97.9147 51.2617 99.085 52.2565 99.1673 52.8878C99.1673 53.0843 98.9087 53.3226 98.7425 53.4469H98.7432C98.3661 53.7062 97.9161 53.837 97.4588 53.8196H75.3802C74.9237 53.8341 74.4737 53.7033 74.0959 53.4469C73.9304 53.3226 73.661 53.0843 73.6711 52.8878C73.7022 52.3388 74.7691 51.3859 75.6909 50.868L75.7221 50.8679Z" fill="#E49216"/>
<path d="M69.4161 39.8705L47.1193 20.4733C46.6555 20.0818 45.9772 20.0818 45.5142 20.4733L22.3574 39.9222L23.9524 41.8069L30.3939 36.3905V54.2448C30.4018 54.5727 30.5311 54.8862 30.7565 55.1253C30.9927 55.3522 31.3084 55.4786 31.6363 55.4771H61.0067C61.6879 55.4771 62.239 54.9252 62.239 54.2447V36.9294L67.8316 41.7345L69.4161 39.8705ZM43.4226 52.991V45.0276C43.4254 44.2553 43.7325 43.5156 44.2771 42.9688C44.8218 42.4226 45.5608 42.1127 46.3322 42.107C47.1066 42.107 47.8499 42.4147 48.3975 42.9622C48.9451 43.5098 49.2528 44.2531 49.2528 45.0275V50.34H51.7175V45.0175C51.7146 43.5909 51.1461 42.2242 50.1362 41.2163C49.1271 40.2086 47.759 39.6423 46.3323 39.6423C44.8955 39.6315 43.5136 40.1956 42.4943 41.2084C41.475 42.2219 40.9029 43.601 40.9058 45.0377V53.0011L32.8902 53.0018V34.361L46.3532 23.0623L59.8162 34.7851V53.0114L43.4226 52.991Z" fill="#E49216"/>
<path d="M94.757 59.981H81.5845C80.5328 59.9854 79.5389 60.465 78.8814 61.2856L76.6752 63.6161L72.5332 59.1634C71.7913 58.3124 70.9339 57.5706 69.9862 56.9572C68.8224 56.3237 67.4688 56.1323 66.175 56.419C65.626 56.5541 65.1254 56.8373 64.7252 57.2368C64.325 56.8373 63.8244 56.5541 63.2754 56.419C61.9809 56.1308 60.625 56.3258 59.4642 56.9673C58.51 57.5878 57.6511 58.3449 56.9172 59.2146L52.7752 63.6471L50.569 61.3166C49.9116 60.496 48.9176 60.0164 47.8659 60.012H34.6934C33.2566 60.0106 31.9058 60.6954 31.0585 61.8555L18.9521 77.5036L20.8989 79.0054L33.0154 63.2952C33.4069 62.76 34.0303 62.4443 34.6935 62.4457H47.8659C48.1722 62.4508 48.4604 62.5909 48.6533 62.8293C48.675 62.8676 48.7024 62.903 48.7357 62.9326L50.4239 64.7241H38.1833V67.1888H52.2985C52.6402 67.1874 52.9659 67.045 53.1993 66.7951L58.7501 60.8406C59.3504 60.1406 60.0482 59.5302 60.8211 59.0281C61.4358 58.7305 62.1329 58.6503 62.7996 58.8006C62.9788 58.8736 63.1283 59.005 63.2237 59.1733L53.2094 71.4552C52.7782 71.9847 52.1324 72.2924 51.449 72.2946H37.4581C37.2963 72.2837 37.1337 72.2837 36.9719 72.2946C36.061 72.4051 35.1992 72.767 34.4826 73.3398C33.7653 73.912 33.2221 74.6726 32.9122 75.5359L29.6498 84.2347L31.9592 85.1045L35.2215 76.3947V76.3954C35.5264 75.5148 36.2979 74.8799 37.2204 74.7484H51.449C52.8757 74.7491 54.2266 74.1062 55.1259 72.9981L64.7256 61.1821L74.3252 72.967C75.2246 74.0752 76.5754 74.7181 78.0021 74.7173H92.2416C93.1597 74.8524 93.9262 75.4874 94.2296 76.3644L97.4919 85.0741L99.8013 84.2044L96.539 75.5055V75.5048C96.2291 74.6416 95.6858 73.8809 94.9685 73.3088C94.2519 72.7359 93.3901 72.374 92.4792 72.2635C92.3174 72.2527 92.1549 72.2527 91.993 72.2635H78.0021C77.3187 72.2613 76.6729 71.9536 76.2417 71.4241L66.2787 59.1733C66.3747 59.005 66.5243 58.8735 66.7034 58.8006C67.3687 58.654 68.0637 58.7305 68.6812 59.018C69.4527 59.5345 70.1498 60.155 70.753 60.8615L76.2827 66.7959V66.7952C76.516 67.0451 76.8418 67.1874 77.1835 67.1889H91.2677V64.7241H79.0271L80.7153 62.9327C80.7485 62.903 80.7759 62.8676 80.7976 62.8294C80.9905 62.591 81.2787 62.4508 81.585 62.4458H94.7574C95.4278 62.4537 96.0534 62.7853 96.4355 63.3365L108.552 79.0049L110.499 77.5031L98.4344 61.8657C97.5871 60.6781 96.2168 59.9752 94.7575 59.9811L94.757 59.981Z" fill="#E49216"/>
</svg>
