<svg width="121" height="100" viewBox="0 0 121 100" fill="none" xmlns="http://www.w3.org/2000/svg">
<path d="M86.7957 46.697L70.3401 32.3993C69.8038 31.9437 69.0169 31.9437 68.4805 32.3993L51.418 46.7354L53.258 48.9222L57.1114 45.6467V57.6991H57.1121C57.1228 58.0614 57.2707 58.4061 57.526 58.6628C57.7854 58.9142 58.1289 59.062 58.4897 59.0768H80.1482C80.5118 59.0627 80.8559 58.9115 81.112 58.6534C81.3707 58.3987 81.5192 58.0526 81.5259 57.6897V46.0514L84.7631 48.8646L86.7957 46.697ZM67.8056 56.2447V50.8972C67.8056 49.998 68.5341 49.2689 69.4339 49.2689C70.3331 49.2689 71.0616 49.9981 71.0616 50.8972V54.8186H73.9521V50.8878C73.9494 49.6983 73.4756 48.5592 72.6336 47.7191C71.7922 46.879 70.6516 46.4079 69.4628 46.4079C68.2719 46.41 67.1308 46.8857 66.2907 47.7292C65.4506 48.5732 64.9802 49.7164 64.9822 50.9066V56.2534H60.0688V43.2373L69.4431 35.3562L78.8659 43.5458V56.2245L67.8056 56.2447Z" fill="#E49216" fill-opacity="0.88"/>
<path d="M40.9466 26.7918C40.1536 26.7918 39.5111 27.435 39.5111 28.2273V64.3959C39.5111 65.1889 40.1536 65.8314 40.9466 65.8314H100.4V62.9409H42.3333V29.654H94.8993V52.9108H97.7898L97.7891 28.2278C97.7891 27.8474 97.6379 27.4825 97.3691 27.213C97.0996 26.9435 96.7347 26.7923 96.3537 26.7923H87.1239V18.584H98.9741V15.6935H32.3728V4.81641H29.4823V88.6358H20.0312V91.5263H42.3349V88.6358H32.3733V18.5833H50.8903V26.7916L40.9466 26.7918ZM53.7604 18.5835H84.3015V26.7918H53.7604V18.5835Z" fill="#E49216" fill-opacity="0.88"/>
</svg>
