<svg width="124" height="100" viewBox="0 0 124 100" fill="none" xmlns="http://www.w3.org/2000/svg">
<path d="M86.4193 15.9212L72.9775 27.2397L74.6468 29.2148L77.4514 26.8642V36.0097C77.4514 36.7242 78.0308 37.3035 78.7452 37.3035H95.8315C96.5459 37.3035 97.1253 36.7241 97.1253 36.0097V27.2099L99.4071 29.185L101.106 27.2099L88.1182 15.9307C87.6352 15.4995 86.907 15.4953 86.4193 15.9211L86.4193 15.9212ZM94.5185 34.6866H86.1728V30.6178C86.1728 30.0013 86.6723 29.5018 87.2888 29.5018C87.9013 29.5073 88.3946 30.0047 88.3946 30.6178V32.6722H90.9822V30.6178C90.9822 29.6354 90.5923 28.693 89.8979 27.9985C89.2027 27.304 88.261 26.9141 87.2785 26.9141C86.2981 26.9161 85.3584 27.3075 84.6661 28.0019C83.9737 28.6964 83.5852 29.6367 83.5852 30.6178V34.6673L80.0488 34.6666V24.642L87.2785 18.558L94.5474 24.879L94.5185 34.6866Z" fill="#E49216" fill-opacity="0.88"/>
<path d="M106.172 41.1059V13.8766C106.172 12.684 105.699 11.5397 104.856 10.6958C104.014 9.85116 102.871 9.3758 101.678 9.37305H72.3854C71.1922 9.3758 70.0493 9.85116 69.2068 10.6958C68.3642 11.5397 67.8916 12.684 67.8916 13.8766V41.1059C67.8916 42.2977 68.3649 43.4413 69.2075 44.284C70.05 45.1267 71.1937 45.5998 72.3856 45.5998H77.0477V52.7702H77.047C77.0442 53.2759 77.3377 53.7361 77.7979 53.9455C78.2609 54.157 78.8044 54.0806 79.1902 53.7485L88.5432 45.6005H101.679V45.5998C102.871 45.5998 104.014 45.1265 104.856 44.284C105.7 43.4414 106.173 42.2977 106.173 41.1058L106.172 41.1059ZM103.585 41.1059C103.579 42.1565 102.729 43.0066 101.678 43.0122H88.0586C87.7465 43.0122 87.4448 43.1238 87.2092 43.3284L79.6337 49.9256V44.306C79.6337 43.5916 79.0543 43.0122 78.3399 43.0122H72.4136H72.4143C71.3637 43.0067 70.5136 42.1566 70.5079 41.1059V13.8766C70.5079 12.8225 71.3594 11.9662 72.4143 11.9607H101.679C102.734 11.9662 103.585 12.8226 103.585 13.8766L103.585 41.1059Z" fill="#E49216" fill-opacity="0.88"/>
<path d="M17.3823 69.8875C17.2397 70.2217 17.2397 70.5999 17.3823 70.934L21.106 78.8354L24.6815 86.4109C24.8344 86.7409 25.1224 86.9896 25.4717 87.0923C25.5922 87.1315 25.719 87.1515 25.8465 87.1515C26.0807 87.1536 26.3101 87.0881 26.5085 86.9634C29.5501 85.2859 32.7013 83.8144 35.9406 82.559L38.8149 88.6527H38.8142C39.025 89.1074 39.479 89.3995 39.9799 89.4029C40.0853 89.4126 40.1907 89.4126 40.2961 89.4029L51.4465 86.6375L50.8637 84.0698L40.7205 86.5885L38.3796 81.6502C47.7621 78.1931 61.817 74.6183 77.2138 76.1691L77.2145 76.1684C77.6864 76.2228 78.1507 76.0141 78.4229 75.6241C78.695 75.2342 78.7315 74.7265 78.5179 74.3021L67.1603 50.2033L64.8096 51.3586L75.2098 73.3728C51.6349 71.7035 31.5449 81.3534 26.4497 84.0491L23.3185 77.3927L20.3553 71.0717C21.2344 70.7066 22.5379 70.1334 24.1382 69.3631L28.5232 78.6568L30.8641 77.5607L26.459 68.2078C34.9922 63.8027 49.1751 54.8845 59.6248 40.2466L62.8153 47.032L65.1562 45.9255L61.0081 37.1155H61.0074C60.8055 36.6946 60.3963 36.4128 59.9312 36.3742C59.4642 36.337 59.0136 36.5561 58.7559 36.9474C43.467 59.7922 18.3908 69.0656 18.1333 69.1343C17.7903 69.2701 17.5181 69.5415 17.3824 69.8853L17.3823 69.8875Z" fill="#E49216" fill-opacity="0.88"/>
<path d="M36.7317 65.5118L33.9463 67.2795L35.3386 69.4621L38.1337 67.6847C44.8012 63.4374 50.8954 58.3524 56.2677 52.5536L54.3414 50.8154H54.3421C49.1255 56.4482 43.2076 61.3877 36.7323 65.5117L36.7317 65.5118Z" fill="#E49216" fill-opacity="0.88"/>
</svg>
