<svg width="125" height="100" viewBox="0 0 125 100" fill="none" xmlns="http://www.w3.org/2000/svg">
<path d="M62.4027 17.2487L17.6025 55.0634L19.21 56.9881L33.5481 44.8705L33.608 82.0231C33.608 82.3552 33.7396 82.674 33.9736 82.9089C34.2077 83.1438 34.5253 83.2759 34.8561 83.2759L91.7072 83.1857C92.038 83.1857 92.3556 83.0536 92.5896 82.8187C92.8236 82.5838 92.9553 82.265 92.9553 81.9329V45.7915L105.616 56.8165L107.253 54.9219L64.0094 17.2575C63.5462 16.866 62.8699 16.8618 62.4019 17.247L62.4027 17.2487ZM90.4592 80.6813L36.1042 80.7617L36.0443 42.7662L63.1719 19.8544L90.41 43.6074L90.4592 80.6813Z" fill="#E49216" fill-opacity="0.88"/>
<path d="M54.0654 57.3785C54.0654 59.5947 54.9423 61.72 56.5038 63.2874C58.0646 64.8548 60.1818 65.7365 62.3897 65.7372C64.5975 65.7379 66.7155 64.8584 68.2775 63.2925C69.8395 61.7265 70.718 59.6012 70.72 57.385C70.7214 55.1688 69.8466 53.0428 68.2866 51.4741C66.7272 49.9053 64.6107 49.0224 62.4029 49.0195C60.1936 49.0195 58.0744 49.9004 56.5115 51.4671C54.9479 53.0345 54.0683 55.1606 54.0654 57.3787V57.3785ZM68.2231 57.3785H68.2238C68.2238 58.9313 67.6088 60.4203 66.5147 61.518C65.4206 62.6163 63.9364 63.2322 62.3895 63.2315C60.8426 63.2308 59.3592 62.6128 58.2664 61.5138C57.173 60.4148 56.5601 58.9242 56.5615 57.3715C56.5636 55.8188 57.1799 54.3304 58.2755 53.2335C59.371 52.1373 60.8559 51.5228 62.4026 51.5249C63.9467 51.5305 65.4253 52.1492 66.5166 53.2461C67.6073 54.343 68.2209 55.8286 68.2237 57.3785L68.2231 57.3785Z" fill="#E49216" fill-opacity="0.88"/>
<path d="M63.6416 37.083H61.1455V40.5107C57.1214 40.8176 53.3395 42.5611 50.4861 45.4261C47.632 48.2903 45.895 52.0865 45.5892 56.1259H42.1348V58.6315H45.5998C45.9006 62.6701 47.6355 66.467 50.4875 69.332C53.3402 72.1976 57.1214 73.9405 61.1455 74.246V77.7542H63.6416V74.246C67.6609 73.9439 71.4391 72.2073 74.2926 69.3507C77.1467 66.4935 78.8865 62.705 79.1971 58.6712H82.6516V56.1257H79.1971C78.8935 52.0856 77.1572 48.2887 74.3031 45.4238C71.449 42.5588 67.6664 40.8153 63.6416 40.5105V37.083ZM76.701 56.1255H73.9952V58.6311H76.701C76.3848 61.9924 74.9056 65.1371 72.5194 67.5167C70.1333 69.8971 66.9923 71.3631 63.6416 71.6595V68.984H61.1455V71.7398C57.7955 71.4427 54.6552 69.9767 52.2712 67.5963C49.8872 65.2158 48.4093 62.072 48.0959 58.7108H50.8712V56.1255H48.0854C48.3841 52.7496 49.8558 49.5861 52.2432 47.1895C54.6306 44.7929 57.7821 43.3157 61.1455 43.0159V45.7717H63.6416V43.0159C67.0048 43.3158 70.1556 44.793 72.5432 47.1895C74.9307 49.586 76.4029 52.7494 76.701 56.1255Z" fill="#E49216" fill-opacity="0.88"/>
</svg>
