<svg width="118" height="100" viewBox="0 0 118 100" fill="none" xmlns="http://www.w3.org/2000/svg">
<path d="M16.7761 45.9012C16.5386 46.1662 16.4192 46.5165 16.4461 46.8713C16.4724 47.2269 16.6429 47.5555 16.9171 47.7818L33.6657 62.0666L36.2049 64.6997L36.3086 64.7935H36.3079C37.9117 66.154 39.166 67.8791 39.9662 69.8247L41.2263 72.8435C41.9196 74.5123 42.9141 76.0393 44.1604 77.348L46.474 79.7646L53.1883 86.3471H53.1877C54.0594 87.2366 55.3143 87.6368 56.5403 87.417C57.7657 87.1966 58.8028 86.3839 59.3098 85.2471L61.3314 87.2222V87.2216C62.2898 88.1432 63.6575 88.4994 64.9432 88.1642C66.2288 87.8283 67.2476 86.8477 67.6327 85.5764C67.9711 85.6775 68.3228 85.7312 68.6763 85.7358C69.7035 85.7595 70.6953 85.3619 71.4222 84.6358C72.0447 83.966 72.4324 83.112 72.5256 82.2022C72.6187 81.2924 72.4134 80.3773 71.9391 79.5955C72.3058 79.4092 72.6423 79.1684 72.9362 78.8805C73.6407 78.1563 74.0297 77.1829 74.0179 76.1727L79.3403 70.2578V70.2572C80.3642 69.0771 81.0182 67.6216 81.2209 66.0728L81.4938 64.013C81.6355 62.8985 82.1222 61.8562 82.8857 61.0323L85.3403 59.0289L100.631 46.4279C101.189 45.9681 101.269 45.1429 100.809 44.5846C100.349 44.0264 99.5242 43.9464 98.9659 44.4062L84.6062 56.2174L76.5281 47.5187L89.383 33.7887H89.3837C89.6179 33.5329 89.7431 33.1958 89.7313 32.8487C89.7156 32.4847 89.5483 32.1436 89.2709 31.9081L81.7476 25.5793V7.10069C81.7476 6.37323 81.1579 5.78418 80.4311 5.78418H74.6573C73.9298 5.78418 73.3401 6.37323 73.3401 7.10069V13.4857C73.3401 14.2125 73.9298 14.8022 74.6573 14.8022C75.3841 14.8022 75.9738 14.2125 75.9738 13.4857V8.40732H79.1709V23.3318L59.6479 6.7996C59.1585 6.38897 58.4448 6.38897 57.9555 6.7996L28.2863 31.5133C28.0056 31.7481 27.835 32.0886 27.816 32.4539C27.7963 32.7983 27.9144 33.1368 28.1453 33.3939L42.9654 50.1426L34.5023 59.3207L18.6188 45.76C18.3578 45.5291 18.0147 45.4143 17.6677 45.4406C17.3207 45.4675 16.9986 45.6334 16.7756 45.9011L16.7761 45.9012ZM82.6031 57.8908L81.1646 59.0662L81.0517 59.1791C79.8684 60.4103 79.1134 61.9898 78.8983 63.6835L78.6254 65.7433C78.504 66.785 78.075 67.767 77.3935 68.5646L72.8798 73.5013L72.8234 73.4357L65.3001 66.3546C66.6324 65.9387 67.8301 65.1758 68.7702 64.1447L70.0112 62.7718H70.0119C70.4999 62.2365 70.4619 61.4074 69.9266 60.9194C69.392 60.4307 68.5629 60.4687 68.0742 61.004L66.8233 62.3769H66.824C65.8866 63.4068 64.5786 64.0234 63.188 64.0903C61.7967 64.1572 60.4355 63.6698 59.4045 62.7337C59.1467 62.4897 58.8003 62.3605 58.4455 62.3763C58.0913 62.3927 57.758 62.5521 57.5232 62.8184L52.5391 68.3008C52.3542 68.5081 52.0924 68.6308 51.815 68.6393C51.5395 68.6452 51.2712 68.5481 51.0626 68.3671C50.8592 68.1795 50.7379 67.919 50.7241 67.6429C50.7136 67.3661 50.8113 67.0958 50.997 66.8905L59.7803 57.139C59.8079 57.1128 59.8328 57.0846 59.8558 57.0544L60.7964 56.0482H60.7958C61.5265 55.2407 62.5335 54.7375 63.6171 54.6372L67.1246 54.3361C68.7809 54.2023 70.3316 53.4702 71.488 52.277L74.6759 49.362L82.6031 57.8908ZM31.0044 32.6599L58.7744 9.51627L86.5057 33.0259L73.82 46.5767L69.6449 50.3944L69.6442 50.395C68.9155 51.1592 67.9322 51.6308 66.88 51.7207L63.3725 52.0218H63.3719C61.6035 52.1596 59.9556 52.9743 58.7736 54.2974L58.3597 54.7487L54.7111 54.4102C52.004 54.1577 49.4418 53.074 47.3761 51.3069L45.693 49.3135L31.0044 32.6599ZM44.6681 52.1443L45.4578 53.085L45.5989 53.2352C48.0954 55.3867 51.2034 56.7025 54.4859 56.9964L56.1881 57.1565L49.0316 65.1027C48.3757 65.8223 48.0333 66.7741 48.0811 67.7462C48.129 68.719 48.562 69.632 49.2855 70.2841C50.0037 70.9407 50.9562 71.2798 51.9276 71.2247C52.8998 71.1808 53.8134 70.7511 54.4668 70.0302L58.6329 65.4319C59.5539 66.0124 60.5844 66.3968 61.6608 66.5602L70.999 75.3343C71.2273 75.56 71.3558 75.8683 71.3558 76.1897C71.3558 76.5111 71.2273 76.8194 70.999 77.0457C70.6376 77.415 70.0793 77.5095 69.6162 77.2805L60.4006 68.9111C60.1461 68.6553 59.7978 68.5149 59.437 68.5228C59.0762 68.5307 58.7345 68.6868 58.4918 68.9538C58.2497 69.2214 58.127 69.5763 58.1539 69.9364C58.1802 70.2958 58.3534 70.6291 58.6328 70.858L67.3033 78.7289C67.3479 78.8096 67.4017 78.8857 67.4627 78.9545C67.6589 79.1415 67.8734 79.3088 68.1023 79.4531L69.569 80.7886H69.5697C69.9803 81.3928 69.9462 82.1956 69.4851 82.7631C69.2581 82.9946 68.9485 83.1252 68.6244 83.1252C68.3004 83.1252 67.9901 82.9946 67.7638 82.7631L66.692 81.7477C66.673 81.7201 66.6507 81.6952 66.6264 81.6722L56.1881 71.2155C55.6686 70.6959 54.8263 70.6959 54.3068 71.2155C53.788 71.7343 53.788 72.5766 54.3068 73.0961L56.1874 74.9767H56.1881C56.2202 75.2725 56.3527 75.548 56.5639 75.7573L64.8016 83.5816V83.5809C65.1315 83.9293 65.2227 84.4396 65.0351 84.8804C64.8475 85.3212 64.4159 85.6092 63.9363 85.6125C63.6143 85.6112 63.3047 85.4865 63.0718 85.2648L58.4919 80.7604L52.3516 74.5162V74.5155C51.832 73.9967 50.9898 73.9967 50.4703 74.5155C49.9514 75.0351 49.9514 75.8773 50.4703 76.3968L51.4109 77.3375V77.3368C51.4726 77.5415 51.5821 77.7284 51.7304 77.8826L56.6671 82.6784H56.6677C56.9012 82.8981 57.0338 83.2045 57.0344 83.5246C57.0443 83.8473 56.9216 84.1595 56.6959 84.3898C56.2191 84.8621 55.4516 84.8621 54.9747 84.3898L48.2976 77.8919L46.0221 75.5035C44.9994 74.4297 44.1834 73.1768 43.6147 71.8077L42.3546 68.7799C41.3883 66.4722 39.8941 64.4237 37.9912 62.7988L36.3742 61.1248L44.6681 52.1443Z" fill="#E49216" fill-opacity="0.88"/>
<path d="M51.6922 42.1294H65.8544C66.2014 42.1294 66.5334 41.9917 66.7787 41.747C67.024 41.5017 67.1618 41.1691 67.1618 40.8228V29.6412C67.1618 26.6441 65.5625 23.8753 62.9675 22.3771C60.3718 20.8782 57.1747 20.8782 54.5791 22.3771C51.9841 23.8753 50.3848 26.6441 50.3848 29.6412V40.8228C50.3848 41.5443 50.9699 42.1294 51.6921 42.1294H51.6922ZM60.0899 24.0371C61.3611 24.3336 62.4939 25.0532 63.3028 26.0791C64.1109 27.1043 64.5465 28.3736 64.538 29.6791V31.3157H60.09L60.0899 24.0371ZM60.0899 33.9395H64.5379V39.4969H60.0899V33.9395ZM53.0088 29.6416C53.0002 28.3362 53.4358 27.0663 54.2439 26.0411C55.0527 25.0158 56.1855 24.2955 57.4569 23.9991V31.3157H53.0088L53.0088 29.6416ZM53.0088 33.9395H57.4568V39.4969H53.0088V33.9395Z" fill="#E49216" fill-opacity="0.88"/>
</svg>
