<svg width="119" height="100" viewBox="0 0 119 100" fill="none" xmlns="http://www.w3.org/2000/svg">
<path d="M71.8832 34.3222L49.7101 14.9905C49.2483 14.5956 48.5671 14.5956 48.1052 14.9905L25.0586 34.3035L26.6542 36.2033L33.0566 30.8358L33.0573 48.9614C33.0539 49.455 33.3455 49.9036 33.7981 50.1011C33.9545 50.1687 34.1221 50.2038 34.2924 50.2058C34.6059 50.2045 34.9073 50.0859 35.1379 49.8732L55.8759 30.5313C56.3337 30.104 56.3987 29.4015 56.0276 28.8973C55.6565 28.393 54.9667 28.2459 54.4227 28.5554C54.4227 28.5554 50.9837 30.4551 48.0203 29.9423C47.8686 26.9212 46.2916 24.6988 44.2208 24.6988C42.1501 24.6988 40.4213 27.1499 40.4213 30.3989C40.4213 33.648 42.0554 36.099 44.2208 36.099C45.9119 36.099 47.2704 34.6074 47.7925 32.4035L47.7918 32.4028C48.5784 32.5181 49.3762 32.534 50.1667 32.4506L35.5284 46.1201V28.7545L48.9223 17.5547L62.2692 29.2297V47.3349H40.6017V49.8144H63.5143C64.1982 49.8091 64.7495 49.2538 64.7495 48.57V31.3469L70.2592 36.1444L71.8832 34.3222ZM45.1232 28.1854C44.9317 27.9297 44.7601 27.66 44.6103 27.3777C44.8323 27.6109 45.0066 27.8853 45.1232 28.1854ZM44.23 33.6384C43.7648 33.6384 42.9001 32.4131 42.9001 30.4087C42.9034 30.09 42.9319 29.7726 42.9856 29.4585C43.6164 30.3736 44.452 31.129 45.4275 31.6624C45.1803 32.8975 44.5912 33.6383 44.2301 33.6383L44.23 33.6384Z" fill="#E49216" fill-opacity="0.88"/>
<path d="M57.6918 40.4022C57.6918 37.144 56.0577 34.7021 53.8923 34.7021C51.726 34.7021 50.0928 37.1532 50.0928 40.4022C50.0928 43.6511 51.7268 46.1023 53.8923 46.1023C56.0577 46.1023 57.6918 43.6989 57.6918 40.4022ZM52.5623 40.4022C52.5623 38.3978 53.4171 37.1725 53.8922 37.1725C54.3673 37.1725 55.2129 38.3978 55.2129 40.4022C55.2129 42.4066 54.3581 43.6319 53.8922 43.6319C53.4264 43.6319 52.5616 42.4067 52.5616 40.4022H52.5623Z" fill="#E49216" fill-opacity="0.88"/>
<path d="M88.4042 81.5168C88.6295 81.8958 89.0364 82.1304 89.4777 82.1344C89.927 82.1151 90.3325 81.858 90.5412 81.4598L95.9942 70.7634C96.0796 70.5885 96.1254 70.397 96.1273 70.2028V32.2995H99.1575V49.3988H101.637V31.0357C101.632 30.3519 101.076 29.8006 100.393 29.8006H94.8829C94.2011 29.8006 93.6478 30.3532 93.6478 31.0357V69.8975L89.3631 78.3143L84.3947 69.8597L84.3953 32.4687H88.8225V29.9898H84.4332V24.3375H94.7497V21.8486H83.1986C82.5147 21.8486 81.9594 22.3999 81.9541 23.0831V70.201C81.9528 70.4217 82.0118 70.6384 82.1251 70.8279L88.4042 81.5168Z" fill="#E49216" fill-opacity="0.88"/>
<path d="M22.3719 90.2459H66.5738C66.9422 90.242 67.2901 90.075 67.5233 89.7901L79.588 74.9039C79.7649 74.6839 79.8596 74.4082 79.8537 74.1253V33.1244H77.4218V72.8886H65.9276C65.1716 72.8886 64.4466 73.1888 63.9125 73.7236C63.3778 74.2577 63.0776 74.9826 63.0776 75.7387V84.5921H65.5473V75.7387C65.5473 75.5339 65.7136 75.3683 65.9184 75.3683H76.0256L66.0224 87.7649H22.3718C21.6164 87.7649 20.8915 87.4647 20.3567 86.9306C19.8227 86.3959 19.5218 85.6709 19.5218 84.9155V10.0487C19.5218 9.29326 19.8226 8.56832 20.3567 8.03356C20.8915 7.49948 21.6164 7.19929 22.3718 7.19929H74.4007C75.2025 7.19134 75.9738 7.5061 76.5416 8.07198C77.1095 8.63787 77.4263 9.40852 77.421 10.2102V28.4969H79.9005V10.2102C79.8979 8.75575 79.3167 7.36223 78.2844 6.33712C77.2526 5.31268 75.8552 4.74082 74.4006 4.74812H22.3717C20.9669 4.75077 19.6197 5.31003 18.6265 6.30333C17.6332 7.29729 17.074 8.64379 17.0713 10.0485V84.9442C17.0739 86.349 17.6332 87.6955 18.6265 88.6894C19.6198 89.6827 20.967 90.242 22.3717 90.2446L22.3719 90.2459Z" fill="#E49216" fill-opacity="0.88"/>
<path d="M29.0879 59.04H67.8563V61.5196H29.0879V59.04Z" fill="#E49216" fill-opacity="0.88"/>
<path d="M29.0879 67.4473H67.8563V69.9268H29.0879V67.4473Z" fill="#E49216" fill-opacity="0.88"/>
</svg>
