<svg width="169" height="169" viewBox="0 0 169 169" fill="none" xmlns="http://www.w3.org/2000/svg">
<circle cx="84.5" cy="84.5" r="84.5" fill="#3C3C3B" fill-opacity="0.09"/>
<circle cx="84.5" cy="84.5" r="84" stroke="#E1B164" stroke-opacity="0.45"/>
<path d="M121.497 36.3223L129.092 65.6489C129.178 65.9811 128.979 66.3212 128.646 66.4067C128.594 66.421 128.541 66.4269 128.489 66.4269V66.4282H121.506V78.2429C121.506 78.5875 121.226 78.8669 120.881 78.8669C120.536 78.8669 120.256 78.5875 120.256 78.2429V66.4282H107.997L108.016 69.3208C108.017 69.6641 107.739 69.9428 107.395 69.9447C107.051 69.946 106.772 69.6687 106.77 69.3253L106.698 58.3611L84.1608 50.249L61.629 58.3584V70.9726C61.629 71.3172 61.3491 71.5966 61.0037 71.5966C60.6583 71.5966 60.3784 71.3172 60.3784 70.9726V66.4268H49.0586V78.2082C49.0586 78.5528 48.7786 78.8322 48.4333 78.8322C48.0879 78.8322 47.8079 78.5528 47.8079 78.2082V66.4268H40.7189V66.4255C40.6672 66.4255 40.6142 66.4189 40.5625 66.4052C40.2296 66.3197 40.0294 65.9797 40.1158 65.6475L47.7236 36.2707C47.8001 35.9776 48.0755 35.7871 48.3672 35.806C48.3888 35.8047 48.4098 35.8027 48.4313 35.8027H120.878C121.187 35.8027 121.443 36.0273 121.493 36.3203L121.497 36.3223ZM127.684 65.1811L120.398 37.0507H48.8109L41.5249 65.1811H60.3796V57.9233C60.3796 57.6335 60.5777 57.3881 60.8485 57.3195L83.9497 49.0044C84.0903 48.9548 84.2388 48.9574 84.3702 49.0044L107.527 57.3398C107.78 57.4305 107.939 57.6687 107.939 57.9232L107.986 65.1822H127.683L127.684 65.1811ZM49.9767 106.386C50.583 106.386 51.1318 106.63 51.5288 107.027C51.9259 107.423 52.1712 107.97 52.1712 108.575C52.1712 109.18 51.9259 109.728 51.5288 110.124C51.1318 110.52 50.583 110.765 49.9767 110.765C49.3703 110.765 48.8216 110.52 48.4245 110.124C48.0275 109.728 47.7822 109.18 47.7822 108.575C47.7822 107.97 48.0275 107.423 48.4245 107.027C48.8216 106.63 49.3703 106.386 49.9767 106.386ZM59.6867 108.824C59.4852 108.724 59.4041 108.479 59.5035 108.278C59.6036 108.077 59.8489 107.996 60.0503 108.095L63.5197 109.826C63.7211 109.926 63.8022 110.171 63.7028 110.372C63.6028 110.573 63.3575 110.654 63.156 110.554L59.6867 108.824ZM90.8571 92.0683C90.638 92.0122 90.5052 91.7909 90.5615 91.5722C90.6177 91.3536 90.8395 91.2211 91.0586 91.2772C92.826 91.725 94.6202 92.0239 96.4208 92.0448C98.215 92.0663 100.025 91.8125 101.833 91.1604C102.045 91.0841 102.279 91.1931 102.356 91.4052C102.432 91.6173 102.323 91.8509 102.111 91.9273C100.204 92.6152 98.2986 92.8815 96.4109 92.86C94.5291 92.8384 92.6741 92.531 90.8563 92.0696V92.0683L90.8571 92.0683ZM118.401 104.634C118.157 104.634 117.935 104.733 117.775 104.893C117.616 105.053 117.516 105.274 117.516 105.517C117.516 105.761 117.614 105.982 117.775 106.141C117.935 106.3 118.157 106.4 118.401 106.4C118.645 106.4 118.866 106.302 119.026 106.141C119.186 105.982 119.286 105.761 119.286 105.517C119.286 105.274 119.187 105.053 119.026 104.893C118.866 104.734 118.645 104.634 118.401 104.634ZM116.848 103.967C117.245 103.57 117.794 103.326 118.401 103.326C119.007 103.326 119.556 103.57 119.953 103.967C120.35 104.363 120.595 104.91 120.595 105.515C120.595 106.12 120.35 106.668 119.953 107.064C119.556 107.46 119.007 107.705 118.401 107.705C117.794 107.705 117.245 107.46 116.848 107.064C116.451 106.668 116.206 106.12 116.206 105.515C116.206 104.91 116.451 104.363 116.848 103.967ZM116.272 82.6365L106.146 85.8882C106.643 90.1286 107.783 95.0034 109.247 99.546C110.699 104.049 112.469 108.217 114.251 111.102L124.705 107.884C125.091 107.758 125.366 107.595 125.497 107.385C125.613 107.201 125.625 106.941 125.511 106.588L117.841 82.8055C117.773 82.5979 117.614 82.5026 117.417 82.4733C117.091 82.425 116.671 82.5079 116.272 82.6351L116.272 82.6365ZM105.236 84.8106L115.871 81.3953C116.438 81.2125 117.059 81.1003 117.606 81.1818C118.283 81.2817 118.836 81.6354 119.084 82.4076L126.755 106.19C126.997 106.94 126.927 107.566 126.602 108.08C126.294 108.567 125.775 108.912 125.091 109.13L124.987 109.163H124.983L113.68 112.64L113.411 112.223C112.373 110.617 111.336 108.582 110.357 106.293L107.326 106.456C107.102 108.813 105.532 110.17 103.934 111.55C103.789 111.676 103.642 111.802 103.505 111.923C103.873 113.075 103.917 114.028 103.73 114.79C103.537 115.575 103.111 116.16 102.543 116.564C101.996 116.952 101.326 117.163 100.615 117.211C99.9612 117.256 99.2659 117.164 98.6033 116.949C98.7034 117.481 98.7034 117.966 98.6236 118.403C98.4842 119.159 98.1081 119.761 97.5718 120.201C97.0544 120.624 96.3951 120.887 95.6651 120.981C94.9416 121.074 94.143 121 93.3456 120.749C93.3704 121.144 93.3456 121.505 93.2769 121.834C93.1147 122.607 92.719 123.201 92.1734 123.613C91.6436 124.013 90.9765 124.229 90.253 124.262C89.8154 124.281 89.3543 124.233 88.8918 124.115C88.8761 124.29 88.8421 124.455 88.7904 124.612C88.606 125.17 88.2188 125.587 87.7072 125.866C87.2481 126.117 86.6869 126.253 86.0962 126.275C85.3806 126.302 84.6082 126.159 83.9129 125.852C83.8128 126.017 83.7081 126.168 83.5989 126.309C82.933 127.154 82.0906 127.572 81.2794 127.711C80.4651 127.848 79.6743 127.695 79.1197 127.405C78.9869 127.335 78.8665 127.258 78.7619 127.176L78.7632 127.175C78.0378 126.657 77.6565 126.147 77.508 125.648C77.1109 125.854 76.7028 125.977 76.2999 126.033C75.4214 126.158 74.5732 125.963 73.9543 125.638C73.7842 125.548 73.6292 125.45 73.4951 125.345L73.4964 125.344C72.3432 124.522 71.9305 123.714 71.9161 122.925C71.5282 123.125 71.1318 123.256 70.7427 123.326C69.7844 123.501 68.8627 123.318 68.1812 122.961C68.0059 122.869 67.845 122.766 67.7044 122.656L67.7057 122.654C66.3007 121.653 65.8768 120.604 65.9475 119.551C65.7068 119.647 65.4628 119.716 65.2221 119.762C64.3672 119.918 63.5438 119.754 62.9341 119.434C62.7764 119.351 62.6325 119.259 62.5056 119.159L62.507 119.158C60.1672 117.491 61.0863 116.057 62.038 114.57C62.1021 114.471 62.1662 114.369 62.2335 114.262C61.5317 113.853 60.8096 113.463 60.0626 113.1C59.1187 112.64 58.1527 112.233 57.1604 111.898C57.0695 111.866 56.9903 111.818 56.9229 111.756C56.2806 113.075 55.6226 114.267 54.9633 115.285L54.6945 115.701L43.3917 112.224H43.3871C43.3525 112.213 43.3185 112.203 43.2838 112.191C42.599 111.971 42.0803 111.628 41.7728 111.142C41.4478 110.628 41.3771 110.002 41.6198 109.252L49.2904 85.4691C49.539 84.697 50.0923 84.3419 50.7687 84.2421C51.3155 84.1611 51.9362 84.2734 52.5032 84.4555L63.6451 88.0328L63.5888 88.5569C63.4874 89.5221 63.3494 90.5201 63.1839 91.5435C64.3077 91.9521 65.2424 92.1204 66.0567 92.1237C66.9691 92.1283 67.7462 91.926 68.4775 91.6264C69.3762 91.2602 70.3698 90.8327 71.3594 90.3817C72.228 89.9856 73.0803 89.5757 73.8378 89.1808L74.2021 88.9909C77.6499 87.1895 81.4443 85.2061 84.4622 87.8102C84.4981 87.8415 84.5295 87.8742 84.5557 87.9101C85.6526 87.6281 86.7705 87.5778 87.9236 87.9492C91.8168 88.8649 94.8563 89.1638 97.5885 89.0359C100.185 88.9158 102.524 88.4087 105.065 87.6823C104.954 86.9369 104.861 86.2072 104.785 85.4945L104.729 84.9704L105.235 84.8085V84.8131L105.236 84.8106ZM109.829 105.016C109.184 103.41 108.568 101.701 108.001 99.9448C106.84 96.344 105.88 92.5343 105.272 88.9819C102.699 89.7116 100.313 90.2187 97.645 90.3414C94.7912 90.4739 91.6371 90.1665 87.6256 89.2234V89.2221C87.6066 89.2175 87.5883 89.2129 87.5693 89.2064C85.5207 88.525 83.37 89.6522 81.218 90.7813C80.0661 91.385 78.9143 91.9881 77.7252 92.3595C77.7036 92.3673 77.6801 92.3751 77.6565 92.381C76.8409 92.5853 76.2313 92.9162 75.7407 93.3496C75.2391 93.7927 74.842 94.3599 74.4672 95.0132C74.4515 95.0413 74.4345 95.0681 74.4142 95.0929L69.8585 100.87C69.7493 101.323 69.7584 101.748 69.8866 102.107C69.9664 102.332 70.0946 102.531 70.2693 102.693C70.4472 102.858 70.68 102.99 70.9678 103.07C71.5833 103.247 72.4245 103.202 73.492 102.832C73.8452 102.624 73.4043 102.884 73.7575 102.677C75.8263 101.465 78.0929 100.138 79.2558 97.1768C79.3618 96.8335 79.7261 96.6403 80.0715 96.7434C81.0886 97.0508 82.3 97.0913 83.5663 96.8648C84.8117 96.6436 86.0996 96.1632 87.3019 95.427C87.61 95.2384 88.0149 95.3336 88.2039 95.6424C88.3929 95.9498 88.2974 96.3538 87.988 96.5424C87.8225 96.6436 87.6551 96.7421 87.4863 96.8341L92.309 101.154C93.8311 101.239 95.1066 101.168 96.2944 100.946C97.6419 100.695 98.886 100.252 100.258 99.627C100.422 99.552 100.615 99.6238 100.691 99.7876C100.763 99.9436 100.7 100.128 100.55 100.209L100.228 100.383C98.2102 101.483 96.4835 102.425 93.7879 102.476L102.918 110.652C102.929 110.66 102.939 110.669 102.949 110.679L103.082 110.565C104.586 109.266 106.062 107.99 106.05 105.842C106.048 105.493 106.323 105.205 106.67 105.188V105.187L109.83 105.015L109.829 105.016ZM79.7073 123.322L79.6929 123.341C79.027 124.261 78.3049 125.257 79.5411 126.131L79.5693 126.148C79.6144 126.184 79.668 126.218 79.7269 126.249C80.0566 126.422 80.5426 126.51 81.0613 126.422C81.5819 126.333 82.1274 126.06 82.5663 125.501C82.6854 125.349 82.7959 125.179 82.896 124.989C82.8993 124.982 82.9025 124.978 82.9052 124.973C82.8162 124.32 82.5408 123.807 82.1693 123.452C81.8848 123.181 81.546 123.005 81.1954 122.932C80.8513 122.86 80.4968 122.888 80.173 123.025C80.0088 123.093 79.8512 123.192 79.704 123.321H79.7053L79.7073 123.322ZM74.1324 120.791L74.0978 120.848C73.4195 121.981 72.6973 123.184 74.2744 124.298L74.3025 124.315C74.3777 124.374 74.4647 124.43 74.5622 124.48C74.9684 124.692 75.5296 124.82 76.1143 124.737C76.6958 124.654 77.3022 124.358 77.8052 123.717C77.8883 123.613 77.9661 123.5 78.0427 123.379C78.4534 122.301 78.2945 121.369 77.8334 120.728C77.6175 120.428 77.3382 120.191 77.019 120.029C76.7018 119.869 76.3486 119.785 75.9888 119.792C75.3589 119.807 74.6917 120.11 74.1318 120.789V120.79L74.1324 120.791ZM67.9276 117.858C67.5888 118.449 67.2978 119.048 67.2539 119.606C67.2023 120.245 67.4946 120.911 68.4823 121.609L68.5104 121.626C68.5935 121.692 68.6857 121.751 68.7871 121.804C69.2391 122.041 69.8546 122.16 70.5028 122.041C71.1621 121.921 71.8581 121.547 72.4532 120.79C72.5422 120.678 72.6285 120.557 72.7129 120.427C72.883 119.725 72.8267 119.121 72.6174 118.628C72.4061 118.134 72.0379 117.738 71.5859 117.456C71.1189 117.164 70.5668 116.994 70.0121 116.964C69.3496 116.928 68.685 117.088 68.1585 117.471C68.0833 117.605 68.0068 117.733 67.927 117.855V117.856L67.9276 117.858ZM66.8288 117.148C66.8961 117.031 66.9648 116.916 67.0335 116.8C67.1427 116.216 66.9334 115.646 66.5554 115.193C66.3696 114.968 66.1413 114.772 65.8895 114.615C65.6396 114.457 65.3708 114.34 65.0974 114.275C64.563 114.145 64.0109 114.212 63.5877 114.563C63.5688 114.579 63.5485 114.592 63.5282 114.607C63.5125 114.652 63.4922 114.698 63.4674 114.741C63.3706 114.902 63.2515 115.087 63.1344 115.271C62.5202 116.229 61.9263 117.157 63.2829 118.115L63.311 118.132C63.3797 118.185 63.4563 118.235 63.5393 118.279C63.9174 118.476 64.4361 118.578 64.9836 118.478C65.5415 118.377 66.1289 118.061 66.6338 117.418C66.6993 117.334 66.7653 117.245 66.8275 117.15L66.8288 117.148ZM86.2125 97.4424C85.4106 97.7733 84.5963 98.0082 83.7963 98.1518C82.5554 98.3731 81.346 98.3685 80.2675 98.1407C78.9017 101.174 76.5634 102.544 74.4192 103.8C74.2629 103.892 74.7678 103.596 74.102 103.987C74.0614 104.011 74.0189 104.03 73.977 104.045C72.608 104.528 71.4777 104.573 70.6091 104.325C70.1186 104.185 69.7058 103.951 69.3775 103.645C69.0445 103.337 68.8025 102.959 68.6521 102.538C68.4225 101.893 68.4127 101.148 68.6305 100.391C68.6573 100.299 68.7025 100.216 68.76 100.148L73.355 94.3199C73.7834 93.5778 74.255 92.9179 74.877 92.369C75.5207 91.7999 76.3056 91.3678 77.3383 91.1106C78.4104 90.7771 79.5106 90.2002 80.6108 89.6232C81.433 89.1931 82.2532 88.7623 83.0833 88.4164C80.775 87.0301 77.6588 88.6579 74.8077 90.1472L74.4434 90.3372C73.6572 90.747 72.7853 91.1667 71.9035 91.5694C70.9217 92.0171 69.9079 92.4518 68.9698 92.8343C68.0947 93.1913 67.1619 93.4334 66.0519 93.4282C65.1453 93.4237 64.1341 93.2566 62.9593 92.8513C62.3497 96.1701 61.4483 99.677 60.3742 103.006C59.4958 105.732 58.499 108.341 57.4518 110.633C57.4943 110.64 57.5361 110.649 57.5786 110.663C58.635 111.02 59.6495 111.447 60.6339 111.926C61.4777 112.335 62.3142 112.796 63.1456 113.288C63.8409 112.886 64.6415 112.824 65.4042 113.008C65.8182 113.107 66.2198 113.28 66.5855 113.511C66.9498 113.741 67.2827 114.029 67.5574 114.361C67.9342 114.815 68.2063 115.348 68.3155 115.926C68.8767 115.717 69.4798 115.634 70.0771 115.665C70.8535 115.708 71.6227 115.943 72.2762 116.35C72.9453 116.768 73.4967 117.365 73.8185 118.12C73.9467 118.42 74.0376 118.742 74.0841 119.085C74.6826 118.694 75.3282 118.507 75.9613 118.493C76.5409 118.48 77.104 118.613 77.607 118.867C78.1087 119.121 78.5528 119.497 78.8917 119.969C79.2717 120.496 79.5203 121.14 79.5765 121.865C79.6059 121.851 79.6373 121.837 79.6674 121.825C80.2424 121.583 80.8631 121.532 81.4583 121.655C82.0476 121.776 82.6088 122.067 83.0726 122.508C83.5867 122.998 83.9824 123.674 84.1525 124.512C84.7261 124.841 85.4169 124.995 86.048 124.972C86.4385 124.958 86.7963 124.873 87.0762 124.721C87.3026 124.596 87.472 124.423 87.5452 124.203C87.6047 124.022 87.6093 123.799 87.5439 123.528L81.2594 118.897C80.969 118.682 80.9095 118.275 81.1234 117.985C81.3392 117.695 81.7467 117.636 82.0378 117.849C84.1649 119.416 86.3482 120.97 88.4472 122.568C89.0457 122.85 89.652 122.98 90.1975 122.955C90.6567 122.935 91.0694 122.806 91.3854 122.567C91.6856 122.341 91.9041 122.007 91.9983 121.566C92.0859 121.148 92.0669 120.633 91.9093 120.023L85.9296 114.481C85.6653 114.236 85.6496 113.823 85.8969 113.559C86.1421 113.295 86.5562 113.28 86.8217 113.527L92.878 119.141C93.7656 119.615 94.7035 119.79 95.5036 119.687C95.9909 119.624 96.4213 119.457 96.7444 119.192C97.0479 118.944 97.2598 118.601 97.3396 118.166C97.441 117.613 97.3351 116.905 96.9426 116.047L89.522 108.601C89.2675 108.345 89.2688 107.932 89.5252 107.679C89.7816 107.425 90.1957 107.427 90.4488 107.683L97.9101 115.169C98.6794 115.701 99.6539 115.97 100.53 115.909C101.008 115.876 101.446 115.744 101.788 115.502C102.108 115.274 102.35 114.938 102.461 114.485C102.631 113.792 102.518 112.83 101.972 111.557L86.2138 97.4427L86.2125 97.4414L86.2125 97.4424ZM61.8003 91.8895C61.8036 91.8647 61.8082 91.8379 61.8127 91.8131C61.9802 90.8334 62.1188 89.8759 62.2287 88.9484L52.1015 85.6968C51.6999 85.5676 51.2826 85.486 50.9562 85.535C50.758 85.5643 50.5997 85.6616 50.5323 85.8672L42.8617 109.65C42.7479 110.002 42.7603 110.263 42.8761 110.447C43.0076 110.656 43.2823 110.821 43.6682 110.946L54.122 114.163C55.9038 111.278 57.6744 107.111 59.1265 102.608C60.2627 99.0845 61.202 95.3624 61.7991 91.8914L61.8005 91.8901L61.8003 91.8895ZM50.5995 107.95C50.4399 107.791 50.2182 107.691 49.9742 107.691C49.7302 107.691 49.5085 107.79 49.3489 107.95C49.1893 108.11 49.0892 108.331 49.0892 108.574C49.0892 108.818 49.188 109.039 49.3489 109.198C49.5085 109.358 49.7302 109.457 49.9742 109.457C50.2182 109.457 50.4399 109.359 50.5995 109.198C50.7591 109.039 50.8592 108.818 50.8592 108.574C50.8592 108.331 50.7605 108.11 50.5995 107.95Z" fill="#C87B00"/>
</svg>
