<svg width="169" height="169" viewBox="0 0 169 169" fill="none" xmlns="http://www.w3.org/2000/svg">
<circle cx="84.5" cy="84.5" r="84.5" fill="#3C3C3B" fill-opacity="0.09"/>
<circle cx="84.5" cy="84.5" r="84" stroke="#E1B164" stroke-opacity="0.45"/>
<path d="M91.7082 90.1807C91.7438 89.9745 91.9377 89.8364 92.1444 89.8714C92.3497 89.9072 92.4873 90.1019 92.4524 90.3094C92.3692 90.7891 92.2954 91.285 92.2216 91.7789C91.8559 94.2355 91.4808 96.7454 89.8582 98.5774C89.7187 98.7337 89.4798 98.7478 89.3241 98.6097C89.1684 98.4696 89.1543 98.2297 89.2919 98.0734C90.7654 96.4105 91.1231 94.0164 91.4719 91.6711C91.5457 91.1739 91.6196 90.676 91.7041 90.1821H91.7075L91.7082 90.1807ZM68.4872 122.553H71.79C72.1684 121.32 73.5279 120.254 75.5301 119.484C76.6682 119.046 78.0283 118.693 79.5381 118.457C79.1019 118.057 78.7543 117.592 78.5389 117.072C78.1833 116.209 78.196 115.219 78.7711 114.139C78.8208 114.045 78.8691 113.961 78.9154 113.884C79.6528 112.674 80.1661 110.228 80.6821 107.765C80.913 106.657 81.1471 105.548 81.4082 104.516C80.5775 104.292 79.7709 103.966 79.0146 103.536C76.6513 102.196 74.7624 99.865 74.0591 96.5439C74.0578 96.5358 74.0558 96.529 74.0544 96.5196L73.737 94.6809C73.1949 92.8132 71.5067 91.8281 69.7318 90.7965C66.8666 89.1268 63.8027 87.3432 64.0034 81.9147C63.274 81.813 62.8157 81.4417 62.5956 80.9889C62.3708 80.5254 62.4064 79.9877 62.6728 79.5497C62.9741 79.0538 63.5592 78.6886 64.361 78.7445H70.9858L70.545 76.1964H70.3222V76.193H70.3095C68.8554 76.1627 67.9576 75.6762 67.5515 75.0658C67.1489 74.4607 67.1986 73.733 67.6348 73.1596C68.0998 72.5491 69.0345 72.097 70.3188 72.1664C79.5055 72.0714 88.742 72.1664 97.9356 72.1664C98.8878 72.1132 100.012 72.3578 100.621 73.1596C101.057 73.733 101.107 74.4607 100.704 75.0658C100.304 75.6695 99.4233 76.1506 98.0027 76.191C97.9805 76.1943 97.9577 76.1957 97.9356 76.1957H97.8041L97.3585 78.7777H104.005C104.807 78.7197 105.392 79.0849 105.694 79.5828C105.958 80.0208 105.997 80.5598 105.771 81.022C105.551 81.4742 105.09 81.8461 104.363 81.9478C104.564 87.3765 101.5 89.1599 98.6347 90.8296C96.7686 91.9164 94.9971 92.9479 94.5563 95.0138L94.2966 96.5204C94.2933 96.5352 94.2899 96.5507 94.2872 96.5642C93.5786 99.8739 91.693 102.199 89.3345 103.535C88.6112 103.945 87.8435 104.261 87.0531 104.485C87.3161 105.519 87.5517 106.644 87.7872 107.764C88.3032 110.228 88.8165 112.673 89.5539 113.884C89.621 113.995 89.6774 114.095 89.7271 114.186C90.28 115.256 90.282 116.237 89.9223 117.094C89.6995 117.623 89.3405 118.094 88.8916 118.496C90.3055 118.731 91.5817 119.071 92.6606 119.484C94.6629 120.254 96.0223 121.321 96.4008 122.554H99.9458C100.281 122.554 100.55 122.826 100.55 123.161V129.108C100.55 129.444 100.279 129.715 99.9458 129.715H68.4931C68.1596 129.715 67.8885 129.443 67.8885 129.108V123.161C67.8885 122.826 68.1596 122.554 68.4931 122.554L68.4884 122.557L68.4872 122.553ZM73.0984 122.553H95.0895C94.6762 121.838 93.6576 121.169 92.2263 120.617C90.1548 119.82 87.2803 119.327 84.0929 119.327C80.9056 119.327 78.0324 119.822 75.9596 120.617C74.5297 121.167 73.5097 121.837 73.0964 122.553H73.0984ZM99.3376 123.769H69.0943V128.502H99.3376V123.769ZM81.6547 118.208C82.4438 118.145 83.2598 118.113 84.0952 118.113C85.0151 118.113 85.9116 118.154 86.7746 118.229C87.1577 118.218 87.1644 118.216 87.4463 118.065C88.0717 117.68 88.5736 117.192 88.8104 116.624C89.0352 116.093 89.0218 115.462 88.6534 114.748C88.6098 114.663 88.5655 114.586 88.5232 114.518C87.6784 113.132 87.1443 110.583 86.6055 108.014C86.37 106.89 86.1345 105.763 85.8741 104.747C85.3111 104.839 84.7441 104.884 84.1765 104.884C83.6477 104.884 83.1183 104.844 82.5922 104.765C82.3372 105.771 82.0997 106.895 81.8662 108.014C81.3273 110.582 80.7939 113.13 79.9484 114.518C79.9035 114.592 79.8666 114.656 79.8364 114.711C79.4499 115.434 79.4337 116.073 79.6565 116.614C79.8921 117.187 80.3953 117.68 81.0254 118.068C81.3106 118.243 81.3334 118.238 81.6541 118.213L81.6555 118.211L81.6547 118.208ZM71.5378 81.9442H65.2143C65.0492 86.6675 67.7829 88.2595 70.3368 89.7472C71.3788 90.3543 72.3953 90.9452 73.2228 91.7033L71.5378 81.9442ZM74.9177 94.4179C74.9479 94.529 74.9754 94.6416 74.9996 94.7561C75.0124 94.8188 75.0144 94.8814 75.009 94.9414L75.2445 96.3065C75.8733 99.2495 77.5326 101.309 79.6068 102.484C80.9999 103.274 82.5841 103.669 84.1744 103.669C85.7634 103.669 87.3489 103.275 88.742 102.484C90.8147 101.309 92.4761 99.2508 93.1043 96.3065L96.5768 76.1961H71.7703L74.9159 94.4177L74.9177 94.4179ZM71.1936 79.9592H64.3412C64.3251 79.9592 64.3076 79.9592 64.2915 79.9579C63.9882 79.9323 63.7882 80.0333 63.703 80.1769C63.652 80.2638 63.6373 80.3682 63.6836 80.4585C63.7507 80.5986 63.9513 80.7132 64.315 80.732H71.3277L71.1928 79.9592L71.1936 79.9592ZM97.0136 80.7624H104.051C104.414 80.7448 104.615 80.6303 104.682 80.4888C104.728 80.3972 104.712 80.2927 104.662 80.2072C104.576 80.0637 104.377 79.9626 104.074 79.9882C104.058 79.9896 104.04 79.9896 104.024 79.9896H97.1479L97.013 80.7624L97.0136 80.7624ZM95.1139 91.7624C95.946 90.993 96.9719 90.394 98.0268 89.7809C100.583 88.2918 103.314 86.7011 103.149 81.9779H96.8035L95.1139 91.7624ZM84.1268 74.9813H97.9328C97.9456 74.9813 97.957 74.9813 97.9697 74.9826C98.9427 74.955 99.4942 74.7043 99.6995 74.3937C99.8136 74.2246 99.7747 74.0521 99.6593 73.8978C99.2613 73.3763 98.5159 73.3824 97.9327 73.3824V73.3837H70.3193C69.7342 73.3837 68.99 73.3756 68.5928 73.8971C68.4727 74.0548 68.4404 74.2205 68.5525 74.393C68.7625 74.7084 69.3235 74.961 70.3206 74.9839V74.9826L84.1294 74.9813H84.1268ZM119.228 36.8821C119.528 36.8821 119.775 37.0997 119.825 37.3861L127.175 65.9466C127.259 66.2701 127.065 66.6002 126.743 66.6838C126.692 66.6966 126.641 66.7033 126.592 66.7033V66.7046H119.834V107.888C119.834 108.223 119.563 108.495 119.229 108.495H94.5276C94.1941 108.495 93.923 108.223 93.923 107.888C93.923 107.553 94.1941 107.281 94.5276 107.281H118.625V66.7047H106.761L106.778 69.5218C106.779 69.8567 106.51 70.1289 106.178 70.1289C105.845 70.1302 105.574 69.86 105.574 69.5265L105.505 58.8485L83.6955 50.949L61.8917 58.8471V71.1322C61.8917 71.4671 61.6206 71.7393 61.2871 71.7393C60.9536 71.7393 60.6825 71.4671 60.6825 71.1322V66.7048H49.7277V107.281H73.0827C73.4162 107.281 73.6873 107.553 73.6873 107.888C73.6873 108.223 73.4162 108.495 73.0827 108.495H49.123C48.7895 108.495 48.5184 108.223 48.5184 107.888V66.7047H41.6579V66.7034C41.6083 66.7034 41.5566 66.6966 41.507 66.6838C41.1849 66.6003 40.991 66.2701 41.0742 65.9467L48.4378 37.3361C48.5116 37.0497 48.778 36.8644 49.0612 36.884C49.082 36.8826 49.1028 36.8806 49.1236 36.8806H119.235L119.228 36.8821ZM125.813 65.4927L118.762 38.0981H49.4816L42.4306 65.4927H60.677V58.4253C60.677 58.1417 60.8695 57.9038 61.1306 57.8378L83.4875 49.7403C83.6237 49.6905 83.7667 49.6952 83.8948 49.7403L106.305 57.8575C106.551 57.9457 106.704 58.1775 106.704 58.4255L106.751 65.4947H125.811L125.813 65.4927Z" fill="#C87B00"/>
</svg>
