<svg width="169" height="169" viewBox="0 0 169 169" fill="none" xmlns="http://www.w3.org/2000/svg">
<circle cx="84.5" cy="84.5" r="84.5" fill="#3C3C3B" fill-opacity="0.09"/>
<circle cx="84.5" cy="84.5" r="84" stroke="#E1B164" stroke-opacity="0.45"/>
<path d="M78.3798 71.7319V92.0687C78.3798 92.4821 78.0466 92.8162 77.6343 92.8162H71.1677C71.1745 93.3198 71.079 93.8778 70.8949 94.3918C70.7094 94.9119 70.427 95.4073 70.0642 95.7828L70.0491 95.7979C69.6747 96.1617 69.1807 96.4434 68.6619 96.6308C68.1253 96.8237 67.5393 96.9209 67.0185 96.9023C66.6901 96.8906 66.4606 96.8809 66.2552 96.8727C65.395 96.8348 64.9663 96.8169 64.712 96.9223C64.4592 97.0277 64.172 97.3418 63.5956 97.9708C63.3723 98.2147 63.1263 98.4841 63.0755 98.5385C62.721 98.9202 62.2366 99.2674 61.7178 99.5126C61.219 99.7497 60.6721 99.8991 60.1534 99.9074H60.1307C59.612 99.8991 59.0651 99.7496 58.5663 99.5126C58.0462 99.266 57.5632 98.9181 57.2087 98.5385C56.9655 98.2767 56.7855 98.0776 56.624 97.9033C56.0771 97.3026 55.805 97.0029 55.5769 96.9071C55.344 96.81 54.9366 96.8279 54.1238 96.8658C53.8888 96.8775 53.6229 96.8885 53.2636 96.9023C52.7414 96.9202 52.1574 96.8231 51.6201 96.6308C51.1014 96.4448 50.6074 96.1617 50.233 95.7979L50.2179 95.7828C49.8551 95.4073 49.5741 94.9119 49.3872 94.3918C49.2031 93.8785 49.1083 93.3219 49.1144 92.8162H42.643C42.2308 92.8162 41.8976 92.4821 41.8976 92.0687V71.7336L38.9954 71.7205C38.5853 71.7192 38.2534 71.385 38.2548 70.973C38.2548 70.9007 38.2665 70.8318 38.2843 70.7657L42.0006 56.2389C42.0858 55.9013 42.3881 55.6774 42.72 55.6774V55.6739H77.2026C77.575 55.6739 77.8821 55.9474 77.9398 56.3043L81.6465 70.792C81.7482 71.1902 81.5084 71.5953 81.1113 71.6972C81.0508 71.7124 80.9897 71.7199 80.9306 71.7199L78.3781 71.7317L78.3798 71.7319ZM76.8889 91.3209V71.7371L71.4109 71.7619C71.0007 71.7633 70.6674 71.4313 70.6654 71.0193C70.664 70.608 70.9952 70.2739 71.406 70.2718L79.9751 70.2339L76.6325 57.169H43.3002L39.9576 70.2339L48.8763 70.2732C49.2865 70.2745 49.6183 70.6087 49.617 71.0207C49.6156 71.4319 49.2824 71.7647 48.8715 71.7633L43.3935 71.7385V91.3205H49.1798C49.1977 90.8528 49.1915 90.5848 49.1207 90.4167C49.0321 90.2024 48.7449 89.9406 48.1733 89.4205C47.9844 89.2475 47.7659 89.0498 47.4855 88.788C47.1049 88.4325 46.7586 87.9469 46.514 87.4267C46.2777 86.9265 46.1286 86.3781 46.1204 85.858V85.8353C46.1286 85.3151 46.2777 84.7667 46.514 84.2666C46.76 83.745 47.107 83.2607 47.4855 82.9052L47.7562 82.6517C48.5264 81.9338 48.9105 81.5749 49.0479 81.2428C49.1874 80.9039 49.1695 80.3768 49.1297 79.322L49.1166 78.95C49.0988 78.4264 49.1956 77.8408 49.3873 77.3021C49.5728 76.7819 49.8552 76.2866 50.218 75.9111L50.2331 75.8959C50.6076 75.5322 51.1016 75.2504 51.6203 75.063C52.1569 74.8701 52.7429 74.773 53.2637 74.7916C53.4884 74.7998 53.6547 74.8067 53.8086 74.8115C54.7753 74.8494 55.2583 74.8673 55.5585 74.7426C55.8574 74.6193 56.181 74.2666 56.8289 73.5639C57.0982 73.2711 57.011 73.3634 57.2068 73.1526C57.5613 72.7709 58.0457 72.4237 58.5644 72.1785C59.0632 71.9415 59.6101 71.792 60.1288 71.7837H60.1515C60.6702 71.792 61.2171 71.9415 61.7159 72.1785C62.236 72.4251 62.719 72.773 63.0736 73.1526C63.2391 73.3303 63.3594 73.4606 63.4707 73.5825C64.111 74.2769 64.4312 74.6262 64.7198 74.7447C65.0152 74.868 65.4927 74.8487 66.4518 74.8122C66.6009 74.8053 66.7624 74.8005 67.018 74.7909C67.5402 74.773 68.1242 74.8701 68.6614 75.0623C69.1802 75.2483 69.6742 75.5315 70.0486 75.8952L70.0637 75.9104C70.4265 76.2859 70.7075 76.7812 70.8944 77.3014C71.0868 77.8394 71.1836 78.4271 71.1651 78.9493C71.1568 79.1945 71.1404 79.3819 71.1239 79.5783C71.073 80.1887 71.0139 80.9003 71.1994 81.2641C71.2077 81.2793 71.2146 81.2951 71.2207 81.3116C71.475 81.7808 71.8906 82.128 72.2926 82.4656C72.4602 82.6055 72.6258 82.7439 72.7969 82.9052C73.1775 83.2606 73.5238 83.7463 73.7684 84.2665C74.0047 84.7667 74.1538 85.315 74.1621 85.8352V85.8579C74.1538 86.3781 74.0047 86.9265 73.7684 87.4266C73.5224 87.9481 73.1754 88.4325 72.7969 88.788C72.5358 89.0318 72.3386 89.2123 72.1634 89.3722C71.5643 89.9206 71.264 90.1955 71.1699 90.4242C71.0978 90.5971 71.0895 90.8651 71.104 91.3212H76.8855L76.8889 91.3209ZM49.5578 67.9417C49.5578 68.3551 49.2246 68.6892 48.8123 68.6892C48.4001 68.6892 48.0668 68.3551 48.0668 67.9417V66.1788C48.0668 65.846 48.2833 65.5649 48.5821 65.4678L59.8933 61.1482C60.0705 61.0807 60.2595 61.0855 60.4237 61.1482L71.7691 65.4808C72.0659 65.5945 72.2487 65.8777 72.2487 66.1787V67.9417C72.2487 68.3551 71.9154 68.6892 71.5032 68.6892C71.091 68.6892 70.7577 68.3551 70.7577 67.9417V66.692L60.1577 62.6445L49.5577 66.692L49.5578 67.9417ZM52.1204 95.2222C52.4928 95.3558 52.8824 95.4226 53.217 95.4116C53.5008 95.402 53.7983 95.3889 54.0593 95.3751C55.0886 95.3276 55.6038 95.3041 56.1411 95.528C56.6825 95.7533 57.0309 96.1357 57.7255 96.8976C57.9014 97.0905 58.0999 97.3089 58.2985 97.5218C58.5266 97.7684 58.8481 97.9958 59.2033 98.1639C59.5221 98.3155 59.8533 98.4105 60.1453 98.4188C60.4373 98.4119 60.7692 98.3148 61.0873 98.1639C61.4404 97.9958 61.762 97.7671 61.9921 97.5218C62.3302 97.1594 62.4236 97.0561 62.5074 96.9652C63.233 96.1701 63.5978 95.7733 64.1543 95.5432C64.7094 95.3124 65.2495 95.3358 66.3262 95.382C66.5673 95.3916 66.838 95.4034 67.073 95.4116C67.4062 95.4233 67.7971 95.3558 68.1695 95.2222C68.5014 95.1037 68.803 94.9376 69.0132 94.7351C69.2132 94.5243 69.3794 94.2218 69.499 93.8891C69.6323 93.5157 69.6989 93.1251 69.6879 92.7895C69.6783 92.505 69.6653 92.2088 69.6536 91.947C69.6062 90.9129 69.5828 90.3962 69.8061 89.8581C70.0308 89.3132 70.4121 88.9659 71.172 88.2694C71.3644 88.093 71.5821 87.8939 71.7945 87.6969C72.0404 87.4682 72.2672 87.1458 72.4348 86.7896C72.5859 86.4699 72.6808 86.1379 72.689 85.8451C72.6821 85.5523 72.5853 85.2195 72.4348 84.9005C72.2671 84.5464 72.039 84.224 71.7945 83.9932C71.6612 83.8699 71.5052 83.7397 71.3479 83.6067C70.836 83.1768 70.307 82.7345 69.9167 82.0001C69.9037 81.9801 69.892 81.9608 69.8824 81.9395C69.5045 81.1989 69.5835 80.2585 69.6495 79.4538C69.6673 79.2285 69.6859 79.0142 69.6907 78.9006C69.7024 78.5664 69.635 78.1744 69.5017 77.801C69.3836 77.4683 69.218 77.1658 69.016 76.955C68.8058 76.7545 68.5041 76.5878 68.1723 76.4679C67.7999 76.3343 67.4103 76.2675 67.0757 76.2785C66.928 76.2833 66.7164 76.2916 66.5206 76.2998C65.3471 76.346 64.761 76.3687 64.1667 76.1221C63.569 75.8734 63.1732 75.4456 62.3873 74.5913C62.2574 74.4501 62.1166 74.2985 61.9963 74.1683C61.7682 73.9217 61.4467 73.6943 61.0915 73.5262C60.7727 73.3746 60.4415 73.2796 60.1495 73.2713C59.8575 73.2782 59.5257 73.3753 59.2075 73.5262C58.8544 73.6943 58.5329 73.923 58.3027 74.1683C57.8348 74.6719 57.9626 74.5321 57.9248 74.5734C57.1271 75.4373 56.728 75.872 56.1302 76.1194C55.5325 76.3681 54.9437 76.3446 53.7633 76.2985C53.5826 76.2916 53.3889 76.2833 53.2233 76.2785C52.8901 76.2668 52.4991 76.3343 52.1268 76.4679C51.7949 76.5864 51.4933 76.7525 51.283 76.955C51.0831 77.1658 50.9168 77.4683 50.7973 77.801C50.664 78.1744 50.5974 78.5651 50.6084 78.9006L50.6214 79.2657C50.6674 80.5347 50.6901 81.1685 50.4277 81.8057C50.1631 82.4478 49.7007 82.8791 48.7746 83.7417L48.5039 83.9952C48.2579 84.224 48.0312 84.5464 47.8636 84.9026C47.7124 85.2222 47.6176 85.5543 47.6093 85.8471C47.6162 86.1399 47.7131 86.4727 47.8636 86.7916C48.0312 87.1457 48.2593 87.4682 48.5039 87.699C48.7416 87.9215 48.9752 88.1351 49.1786 88.3197C49.9124 88.9879 50.2799 89.3221 50.4984 89.8539C50.7169 90.3823 50.6922 90.888 50.6448 91.9014C50.6317 92.1728 50.6166 92.4842 50.607 92.7922C50.5953 93.1263 50.6626 93.5183 50.7959 93.8917C50.9141 94.2244 51.0797 94.5269 51.2817 94.7377C51.4919 94.9382 51.7935 95.1049 52.1254 95.2248L52.1204 95.2222ZM57.2521 85.805C56.9876 85.4909 57.0288 85.0217 57.3421 84.7565C57.6554 84.4913 58.1233 84.5326 58.3878 84.8454L59.6238 86.3204L62.7087 82.3914C62.9616 82.069 63.4295 82.0098 63.7544 82.2661C64.076 82.5196 64.1351 82.9888 63.8795 83.3146L60.2305 87.9628L60.2291 87.9614C60.1982 88.0007 60.1618 88.0385 60.1227 88.0716C59.8094 88.3369 59.3415 88.2955 59.077 87.9814L57.2514 85.805L57.2528 85.8036L57.2521 85.805ZM99.6057 73.4987H92.7111C91.844 73.4987 91.291 73.7805 90.9646 74.2593C90.5936 74.8056 90.4473 75.6275 90.4473 76.6065C90.4473 76.6265 90.4473 76.6479 90.4459 76.6672C90.538 91.925 90.538 107.036 90.4459 122.293H90.4493C90.4493 123.273 90.5922 124.094 90.9667 124.641C91.293 125.119 91.8468 125.401 92.7132 125.401H124.767C125.634 125.401 126.187 125.119 126.513 124.641C126.884 124.094 127.031 123.272 127.031 122.293C127.031 122.273 127.031 122.252 127.032 122.233C126.94 106.975 126.94 91.864 127.032 76.6065H127.029C127.029 75.6269 126.886 74.8057 126.511 74.2593C126.185 73.7805 125.631 73.4987 124.765 73.4987H117.863V75.2224C117.863 75.6358 117.53 75.9699 117.118 75.9699H100.35C99.9379 75.9699 99.6047 75.6358 99.6047 75.2224V73.4987H99.6057ZM129.12 48.6186C129.289 48.4257 129.584 48.4078 129.776 48.5794C129.969 48.7488 129.987 49.0451 129.816 49.238L125.012 54.6964C124.843 54.8893 124.548 54.9072 124.355 54.7356C124.163 54.5661 124.145 54.2699 124.316 54.077L129.12 48.6186ZM129.824 57.1565C130.124 56.8782 130.594 56.8961 130.873 57.1979C131.15 57.4989 131.133 57.9702 130.832 58.2499L125.503 63.195C125.203 63.4733 124.733 63.4554 124.454 63.1537C124.176 62.8526 124.194 62.3814 124.495 62.1017L129.824 57.1565ZM120.784 48.5276C120.92 48.3085 121.207 48.241 121.425 48.3781C121.644 48.5145 121.711 48.8025 121.574 49.0216L117.734 55.2027C117.598 55.4218 117.311 55.4893 117.093 55.3522C116.874 55.2158 116.807 54.9278 116.944 54.7088L120.784 48.5276ZM87.4406 49.2324C87.2716 49.0395 87.2881 48.7467 87.4798 48.5738C87.6722 48.4043 87.9642 48.4208 88.1366 48.613L92.9399 54.0714C93.109 54.2643 93.0925 54.5571 92.9008 54.73C92.7084 54.8995 92.4164 54.883 92.2439 54.6908L87.4406 49.2324ZM86.4231 58.2477C86.1229 57.9694 86.1043 57.4989 86.3819 57.1958C86.6594 56.8947 87.1287 56.8761 87.431 57.1544L92.7599 62.0996C93.0601 62.3779 93.0787 62.8484 92.8011 63.1516C92.5235 63.4526 92.0542 63.4712 91.7519 63.1929L86.4231 58.2477ZM95.6799 49.0216C95.5438 48.8026 95.6112 48.5146 95.829 48.3782C96.0474 48.2418 96.3346 48.3093 96.4707 48.5277L100.311 54.7088C100.447 54.9279 100.379 55.2159 100.162 55.3523C99.943 55.4887 99.6559 55.4212 99.5198 55.2028L95.6799 49.0216ZM107.881 42.6201C107.881 42.2067 108.214 41.8726 108.626 41.8726C109.038 41.8726 109.372 42.2067 109.372 42.6201V54.686C109.372 55.0994 109.038 55.4335 108.626 55.4335C108.214 55.4335 107.881 55.0994 107.881 54.686V42.6201ZM39.0314 98.1703L45.296 100.03C45.6897 100.146 45.915 100.56 45.8003 100.956C45.7625 101.082 45.6938 101.193 45.6052 101.282L44.0634 102.87C46.4488 104.958 49.1965 106.643 52.201 107.824C55.3367 109.055 58.7528 109.73 62.3296 109.73C65.1107 109.73 67.793 109.32 70.3209 108.562C72.9393 107.775 75.3934 106.613 77.623 105.136L78.4454 106.38C76.0929 107.937 73.5054 109.166 70.7475 109.994C68.0797 110.796 65.2532 111.227 62.331 111.227C58.57 111.227 54.9698 110.513 51.6624 109.214C48.478 107.963 45.5619 106.167 43.0309 103.94L41.3627 105.657C41.0755 105.952 40.6063 105.958 40.3122 105.672C40.2222 105.585 40.1597 105.479 40.1233 105.368L38.0909 99.1129C37.9645 98.7209 38.1781 98.2999 38.5684 98.1732C38.7278 98.1208 38.8886 98.127 39.0363 98.1745L39.0328 98.1732L39.0314 98.1703ZM41.7302 100.528L39.939 99.998L41.1503 103.73L43.6931 101.111L41.7281 100.528H41.7294L41.7302 100.528ZM97.7379 112.414C97.4734 112.1 97.5146 111.631 97.8265 111.366C98.1398 111.1 98.6077 111.142 98.8722 111.456L100.108 112.931L103.193 109.002C103.446 108.679 103.914 108.62 104.239 108.876C104.56 109.13 104.619 109.599 104.364 109.925L100.715 114.573L100.714 114.572C100.683 114.611 100.646 114.649 100.607 114.682C100.294 114.947 99.8259 114.906 99.5614 114.593L97.7358 112.417L97.7372 112.415L97.7379 112.414ZM108.538 115.122C108.28 115.122 108.073 114.913 108.073 114.656C108.073 114.398 108.281 114.19 108.538 114.19L119.139 114.221C119.397 114.221 119.603 114.43 119.603 114.687C119.603 114.945 119.395 115.153 119.139 115.153L108.538 115.122ZM108.538 112.88C108.28 112.88 108.073 112.671 108.073 112.414C108.073 112.156 108.281 111.948 108.538 111.948L119.139 111.979C119.397 111.979 119.603 112.188 119.603 112.445C119.603 112.703 119.395 112.911 119.139 112.911L108.538 112.88ZM108.538 110.355C108.128 110.355 107.796 110.022 107.796 109.611C107.796 109.2 108.128 108.867 108.538 108.867L120.768 108.898C121.178 108.898 121.51 109.231 121.51 109.642C121.51 110.053 121.178 110.386 120.768 110.386L108.538 110.355ZM97.7379 97.7606C97.4734 97.4465 97.5146 96.9773 97.8265 96.7121C98.1398 96.4468 98.6077 96.4882 98.8722 96.8009L100.108 98.276L103.193 94.347C103.446 94.0246 103.914 93.9654 104.239 94.2216C104.56 94.4752 104.619 94.9443 104.364 95.2702L100.715 99.9183L100.714 99.917C100.683 99.9562 100.646 99.9941 100.607 100.027C100.294 100.292 99.8259 100.251 99.5614 99.9369L97.7358 97.7606L97.7372 97.7592L97.7379 97.7606ZM108.538 100.468C108.28 100.468 108.073 100.259 108.073 100.002C108.073 99.7442 108.281 99.5368 108.538 99.5368L119.139 99.5678C119.397 99.5678 119.603 99.7765 119.603 100.033C119.603 100.292 119.395 100.499 119.139 100.499L108.538 100.468ZM108.538 98.2264C108.28 98.2264 108.073 98.0177 108.073 97.7607C108.073 97.5023 108.281 97.295 108.538 97.295L119.139 97.326C119.397 97.326 119.603 97.5347 119.603 97.7917C119.603 98.05 119.395 98.2574 119.139 98.2574L108.538 98.2264ZM108.538 95.7015C108.128 95.7015 107.796 95.3688 107.796 94.9575C107.796 94.5462 108.128 94.2134 108.538 94.2134L120.768 94.2444C121.178 94.2444 121.51 94.5772 121.51 94.9885C121.51 95.3998 121.178 95.7325 120.768 95.7325L108.538 95.7015ZM97.7379 83.7051C97.4734 83.3909 97.5146 82.9217 97.8265 82.6565C98.1398 82.3913 98.6077 82.4326 98.8722 82.7468L100.108 84.2218L103.193 80.2928C103.446 79.9704 103.914 79.9112 104.239 80.1675C104.56 80.421 104.619 80.8902 104.364 81.216L100.715 85.8642L100.714 85.8628C100.683 85.9021 100.646 85.9399 100.607 85.973C100.294 86.2383 99.8259 86.1969 99.5614 85.8841L97.7358 83.7078L97.7372 83.7064L97.7379 83.7051ZM108.538 86.4126C108.28 86.4126 108.073 86.2039 108.073 85.9469C108.073 85.6886 108.281 85.4812 108.538 85.4812L119.139 85.5122C119.397 85.5122 119.603 85.721 119.603 85.9779C119.603 86.2363 119.395 86.4436 119.139 86.4436L108.538 86.4126ZM108.538 84.1708C108.28 84.1708 108.073 83.9621 108.073 83.7051C108.073 83.4468 108.281 83.2394 108.538 83.2394L119.139 83.2704C119.397 83.2704 119.603 83.4792 119.603 83.7361C119.603 83.9945 119.395 84.2019 119.139 84.2019L108.538 84.1708ZM108.538 81.646C108.128 81.646 107.796 81.3132 107.796 80.9019C107.796 80.4906 108.128 80.1579 108.538 80.1579L120.768 80.1889C121.178 80.1889 121.51 80.5216 121.51 80.9329C121.51 81.3442 121.178 81.677 120.768 81.677L108.538 81.646ZM117.86 71.9968H124.762C126.182 71.9968 127.131 72.5217 127.738 73.4105C128.3 74.2337 128.515 75.3396 128.515 76.5988H128.511L128.375 99.4436L128.511 122.216C128.513 122.239 128.515 122.262 128.515 122.287C128.515 123.546 128.298 124.652 127.738 125.475C127.132 126.364 126.182 126.889 124.762 126.889H92.7083C91.2881 126.889 90.3392 126.364 89.7319 125.475C89.1706 124.652 88.9555 123.546 88.9555 122.287H88.9589L89.095 99.4423L88.9589 76.6698C88.9576 76.647 88.9555 76.6236 88.9555 76.5988C88.9555 75.3395 89.1719 74.2337 89.7319 73.4105C90.3379 72.5217 91.2881 71.9968 92.7083 71.9968H99.6028V69.1818C99.6028 68.7684 99.9361 68.4343 100.348 68.4343H104.247C104.246 68.3785 104.244 68.3227 104.244 68.2662C104.244 65.7639 106.267 63.7364 108.761 63.7364C111.257 63.7364 113.279 65.7646 113.279 68.2662C113.279 68.322 113.278 68.3778 113.275 68.4343H117.113C117.526 68.4343 117.859 68.7684 117.859 69.1818V71.9968H117.86ZM105.1 69.9292H101.093V74.4671H116.369V69.9292H112.422V69.9278C112.365 69.9278 112.304 69.9196 112.245 69.9051C111.846 69.8066 111.601 69.4029 111.7 69.0033C111.728 68.8917 111.751 68.7698 111.766 68.6361C111.781 68.5128 111.789 68.3895 111.789 68.2654C111.789 66.59 110.433 65.23 108.762 65.23C107.091 65.23 105.735 66.5899 105.735 68.2654C105.735 68.4962 105.757 68.7277 105.809 68.9537C105.831 69.0246 105.845 69.1018 105.845 69.179C105.845 69.5923 105.512 69.9265 105.1 69.9265V69.9278L105.1 69.9292Z" fill="#C87B00"/>
</svg>
