<svg width="169" height="169" viewBox="0 0 169 169" fill="none" xmlns="http://www.w3.org/2000/svg">
<circle cx="84.5" cy="84.5" r="84.5" fill="#3C3C3B" fill-opacity="0.09"/>
<circle cx="84.5" cy="84.5" r="84" stroke="#E1B164" stroke-opacity="0.45"/>
<path d="M118.718 65.843V105.655C118.718 105.979 118.456 106.242 118.133 106.242H112.306C111.927 106.242 111.588 106.113 111.572 105.675C111.554 105.207 111.864 105.067 112.26 105.067H117.549V65.8416H106.041L104.872 65.8301V58.2439L83.8101 50.6091L62.7483 58.2439V65.3552C62.7483 65.6734 62.6972 65.8395 62.382 65.8395H50.9969V105.065H56.0254C56.631 105.065 56.713 106.227 56.008 106.24H50.4128C50.0902 106.24 49.8281 105.977 49.8281 105.652V65.8403H43.2019V65.839C43.1535 65.839 43.1037 65.8322 43.056 65.8194C42.7441 65.739 42.5579 65.4188 42.6386 65.106L49.75 37.4467C49.8206 37.1704 50.0774 36.9914 50.3523 37.009C50.3718 37.0076 50.3926 37.0056 50.4134 37.0056H118.131C118.42 37.0056 118.659 37.2171 118.708 37.4933L125.808 65.1042C125.888 65.4177 125.702 65.7372 125.39 65.8176C125.342 65.8304 125.292 65.8372 125.245 65.8372V65.8385H118.718L118.718 65.843ZM62.0196 57.2671L83.6147 49.439C83.7465 49.3924 83.8843 49.3951 84.0066 49.439L105.652 57.2853C105.89 57.3711 106.037 57.5954 106.037 57.8358H106.038V64.6682H124.491L117.682 38.1848H50.7659L43.9563 64.6682H61.5817V57.8358C61.5817 57.5616 61.7679 57.3326 62.02 57.2677L62.0196 57.2671ZM100.696 83.2542L107.318 90.0351C108.198 90.9356 108.819 91.4929 109.394 91.5828C109.945 91.6699 110.562 91.3308 111.486 90.458C112.368 89.5474 112.716 88.936 112.64 88.3821C112.56 87.7978 112.018 87.1648 111.14 86.2643L97.8967 72.7031C97.0168 71.8026 96.3951 71.2453 95.8204 71.1554C95.2693 71.0683 94.6529 71.4074 93.728 72.2802C92.8462 73.1908 92.498 73.8022 92.5746 74.3561C92.6546 74.9404 93.1964 75.5734 94.0749 76.4739L100.696 83.2549V83.2535L100.696 83.2542ZM78.1635 125.106L86.6018 119.888C86.8074 119.76 87.0736 119.825 87.2007 120.032C87.2363 120.088 87.2551 120.149 87.2632 120.211L87.8479 123.101C92.9967 121.936 97.4954 119.042 100.706 115.055C103.915 111.072 105.837 105.996 105.837 100.469C105.837 100.227 106.031 100.031 106.273 100.031C106.513 100.031 106.708 100.227 106.708 100.469C106.708 106.204 104.712 111.471 101.379 115.606C98.0452 119.744 93.3717 122.749 88.0206 123.956L88.6632 127.14C88.7096 127.377 88.557 127.606 88.3224 127.653C88.2679 127.664 88.2148 127.664 88.1617 127.654V127.656L78.3166 125.907C78.0807 125.866 77.9214 125.639 77.963 125.401C77.9852 125.273 78.0612 125.167 78.164 125.104V125.105L78.1635 125.106ZM86.5278 120.961L79.5944 125.248L87.6825 126.683L86.5264 120.959L86.5278 120.96V120.961ZM86.9001 75.953L78.4619 81.1715C78.2562 81.2992 77.99 81.2343 77.863 81.0276C77.8273 80.9709 77.8085 80.9101 77.8004 80.8486L77.213 77.9431C72.1939 79.1841 67.8229 82.0766 64.6974 86.0137C61.551 89.9777 59.6703 95.0023 59.6703 100.469C59.6703 100.711 59.476 100.907 59.2347 100.907C58.9941 100.907 58.7992 100.712 58.7992 100.469C58.7992 94.7976 60.7505 89.5839 64.0171 85.4699C67.2664 81.3748 71.8175 78.3715 77.0403 77.0865L76.4011 73.9198C76.3547 73.6826 76.5073 73.453 76.7419 73.4063C76.7963 73.3949 76.8494 73.3949 76.9025 73.405V73.4036L86.7477 75.1518C86.9836 75.1937 87.1429 75.42 87.1013 75.6585C87.0791 75.7862 87.0031 75.8922 86.9003 75.9557L86.9001 75.953ZM78.5358 80.0981L85.4692 75.8112L77.3811 74.3764L78.5372 80.1002L78.5358 80.0988L78.5358 80.0981ZM109.92 101.359L109.922 101.33L109.926 101.188L109.93 101.044L109.934 100.612V100.468H109.062V100.607L109.058 101.022L109.055 101.161L109.05 101.298L109.048 101.327L109.92 101.355V101.353V101.359ZM73.0364 74.9498L72.9093 74.9998L72.7857 75.0484L72.2963 75.2484L72.211 75.2842L72.5497 76.0914L72.6297 76.0577L72.7467 76.0077L72.9806 75.9104L73.2185 75.8172L73.3422 75.7685L73.0303 74.9505H73.0317L73.0364 74.9498ZM69.8195 76.4366L69.7039 76.4995L69.4753 76.6251L69.2468 76.7548L69.1325 76.821L69.0425 76.8744L69.4841 77.6296L69.5708 77.5796L69.6797 77.5168L69.9015 77.3912L70.2342 77.2067L69.8202 76.4367L69.8215 76.4353L69.8195 76.4366ZM66.823 78.3329L66.7444 78.3896L66.6402 78.4653L66.536 78.543L66.4331 78.6207L66.2275 78.7787L66.1166 78.8659L66.6529 79.5549L66.7571 79.4745L67.0556 79.2476L67.1571 79.1719L67.2586 79.0976L67.3372 79.0408L66.823 78.3336L66.823 78.3329ZM64.0974 80.6006L64.0604 80.6364L63.6867 80.9985L63.4622 81.2241L64.0819 81.8388L64.2083 81.7118L64.2983 81.6233L64.6586 81.2748L64.6956 81.239L64.0967 80.6033V80.6019L64.0974 80.6006ZM61.687 83.2041L61.6036 83.3075L61.5216 83.4095L61.3616 83.6135L61.2017 83.8202L61.1371 83.904L61.8295 84.4349L61.8906 84.3546L61.9659 84.2546L62.0432 84.1546L62.1205 84.056L62.2778 83.8587L62.3598 83.7588L61.6836 83.2048H61.6849L61.687 83.2041ZM59.6295 86.1015L59.5797 86.1805L59.4453 86.4035L59.2477 86.7419L59.1751 86.8662L59.9313 87.3006L59.9985 87.183L60.061 87.0736L60.1255 86.9641L60.1901 86.8561L60.3218 86.6399L60.3715 86.5609L59.6295 86.1022V86.1035V86.1015ZM57.9659 89.2406L57.9356 89.3102L57.7763 89.673L57.6742 89.9148L57.615 90.0587L58.4229 90.3897L58.4794 90.2539L58.6286 89.9013L58.6797 89.7837L58.7308 89.6676L58.761 89.598L57.9659 89.2399L57.9659 89.2406ZM56.7244 92.5736L56.6968 92.6641L56.6585 92.7918L56.6216 92.9195L56.5859 93.0472L56.5147 93.3052L56.4824 93.4282L57.324 93.6524L57.3562 93.5349L57.3898 93.4106L57.5323 92.9134L57.5599 92.8229L56.7251 92.5729H56.7264L56.7244 92.5736ZM55.9279 96.0391L55.9232 96.0728L55.901 96.2066L55.8802 96.3404L55.8217 96.7416L55.8022 96.8774L55.7975 96.9159L56.6632 97.0253L56.6679 96.9916L56.6854 96.8605L56.7634 96.3363L56.7842 96.2052L56.7889 96.1715L55.9279 96.031H55.9292L55.9279 96.0391ZM55.5858 99.5803L55.5844 99.6303L55.5797 99.7687L55.5764 99.9072L55.5723 100.329V100.469H56.4441V100.333L56.4481 99.9261L56.4549 99.6586L56.4562 99.6086L55.5844 99.583H55.5858V99.5803ZM92.4696 125.989L92.5819 125.945L92.957 125.795L93.082 125.744L93.2057 125.693L93.289 125.657L92.9482 124.85L92.8696 124.882L92.5086 125.032L92.3883 125.081L92.266 125.129L92.1537 125.173L92.4683 125.99H92.4696L92.4696 125.989ZM95.6847 124.502L95.7472 124.469L95.8641 124.404L96.215 124.205L96.3306 124.139L96.4576 124.065L96.0147 123.311L95.8944 123.38L95.6699 123.51L95.3271 123.699L95.2646 123.732L95.682 124.5V124.502L95.6847 124.502ZM98.6811 122.606L98.7826 122.532L98.8888 122.453L99.3136 122.131L99.3876 122.073L98.8525 121.381L98.782 121.435L98.6791 121.515L98.4734 121.67L98.2678 121.821L98.1663 121.896L98.6805 122.603V122.604L98.6811 122.606ZM101.407 120.338L101.434 120.313L101.627 120.129L101.911 119.847L102.043 119.715L101.423 119.1L101.297 119.227L101.114 119.408L100.928 119.589L100.834 119.677L100.807 119.703L101.405 120.338L101.404 120.34L101.407 120.338ZM103.819 117.734L103.868 117.674L104.034 117.468L104.118 117.363L104.282 117.153L104.372 117.036L103.676 116.506L103.593 116.616L103.514 116.718L103.354 116.922L103.194 117.122L103.146 117.181L103.822 117.733L103.821 117.734L103.819 117.734ZM105.877 114.836L105.943 114.73L106.15 114.385L106.285 114.153L106.331 114.072L105.575 113.637L105.53 113.712L105.266 114.158L105.199 114.27L105.133 114.376L105.877 114.835L105.877 114.836ZM107.54 111.697L107.566 111.64L107.675 111.392L107.834 111.019L107.892 110.878L107.084 110.547L107.029 110.68L106.927 110.922L106.874 111.043L106.768 111.282L106.742 111.339L107.538 111.697L107.539 111.698L107.54 111.697ZM108.782 108.365L108.793 108.33L108.87 108.068L108.907 107.936L108.944 107.804L109.015 107.539L109.023 107.507L108.18 107.284L108.172 107.312L108.03 107.822L107.956 108.078L107.944 108.113L108.779 108.365V108.367L108.782 108.365ZM109.578 104.899L109.588 104.836L109.61 104.699L109.652 104.424L109.671 104.287L109.691 104.149L109.707 104.023L108.843 103.91L108.827 104.031L108.768 104.432L108.727 104.7L108.717 104.763L109.578 104.901V104.899ZM65.02 120.736C64.9138 120.629 64.9171 120.455 65.0233 120.35C65.1295 120.243 65.3029 120.247 65.4071 120.353L71.3813 126.474C71.4875 126.58 71.4842 126.755 71.378 126.859C71.2718 126.966 71.0984 126.963 70.9942 126.856L65.02 120.736ZM63.7644 117.592C63.6582 117.485 63.6615 117.311 63.7677 117.206C63.8739 117.099 64.0473 117.103 64.1515 117.209L70.1257 123.33C70.2319 123.436 70.2286 123.611 70.1224 123.715C70.0162 123.822 69.8428 123.819 69.7386 123.712L63.7644 117.592ZM63.1635 120.615L69.7848 127.396C70.6647 128.296 71.2864 128.853 71.8611 128.943C72.4122 129.03 73.0286 128.691 73.9535 127.819C74.8353 126.908 75.1835 126.297 75.1069 125.743C75.0269 125.158 74.4851 124.525 73.6066 123.625L60.3637 110.064C59.4838 109.163 58.8621 108.606 58.2875 108.516C57.7363 108.429 57.1199 108.768 56.1951 109.641C55.3132 110.551 54.965 111.163 55.0416 111.717C55.1216 112.301 55.6634 112.934 56.5419 113.834L63.1633 120.615V120.614L63.1635 120.615ZM69.1652 128.007L55.9223 114.446C54.9167 113.416 54.2956 112.666 54.18 111.835C54.0631 110.98 54.4818 110.155 55.5728 109.03C55.5795 109.022 55.5875 109.014 55.5949 109.008C56.7383 107.928 57.5703 107.518 58.42 107.653C58.99 107.744 59.517 108.076 60.1206 108.614C65.0529 102.818 68.6195 99.9981 71.3497 98.7166C74.1924 97.3818 76.1375 97.6898 77.7641 98.0857C78.1284 98.1742 78.4497 98.2681 78.7435 98.3552C79.8888 98.691 80.5354 98.8815 81.8031 97.8499C82.8436 96.6022 82.6688 95.947 82.3556 94.7931C82.2803 94.5141 82.1983 94.2074 82.1069 93.8021C81.7426 92.1592 81.4744 90.2009 82.8537 87.3705C84.1704 84.6684 87.013 81.1657 92.7881 76.3721C92.1765 75.6831 91.8021 75.1021 91.7167 74.4759C91.5997 73.6207 92.0185 72.7958 93.1094 71.6703C93.1161 71.6622 93.1242 71.6555 93.1316 71.6481C94.2749 70.5686 95.107 70.1585 95.9567 70.2936C96.7808 70.4247 97.5161 71.0637 98.5216 72.0918L111.765 85.6531C112.77 86.6826 113.391 87.4331 113.507 88.2634C113.624 89.1186 113.205 89.9434 112.114 91.0689C112.107 91.077 112.099 91.0851 112.092 91.0912C110.949 92.1707 110.116 92.5807 109.267 92.4456C108.684 92.3537 108.146 92.0079 107.526 91.4499C102.643 97.1682 99.1038 99.9609 96.393 101.234C93.5503 102.569 91.6073 102.261 89.9786 101.865C89.6143 101.777 89.293 101.683 88.9992 101.596C87.8539 101.26 87.2073 101.069 85.9396 102.101C84.8991 103.349 85.0739 104.004 85.3871 105.158C85.4624 105.437 85.5444 105.743 85.6358 106.149C86.0001 107.792 86.2683 109.75 84.889 112.58C83.5642 115.3 80.6941 118.828 74.8463 123.669C75.4869 124.386 75.8821 124.982 75.9709 125.624C76.0878 126.479 75.6691 127.304 74.5781 128.429C74.5714 128.437 74.5634 128.445 74.556 128.451C73.4126 129.531 72.5806 129.941 71.7309 129.806C70.9068 129.675 70.1715 129.036 69.1659 128.008V128.006L69.1652 128.007ZM60.7512 109.216C60.8264 109.291 60.9051 109.37 60.9824 109.452L74.2253 123.013L74.2428 123.03C80.0167 118.258 82.827 114.818 84.1067 112.195C85.3643 109.617 85.117 107.83 84.7863 106.334C84.717 106.016 84.627 105.685 84.5456 105.385C84.1551 103.937 83.934 103.12 85.3038 101.5L85.3327 101.466L85.3603 101.444C86.997 100.097 87.8063 100.337 89.2407 100.756C89.5237 100.84 89.8315 100.929 90.1838 101.014C91.6679 101.376 93.439 101.655 96.0261 100.441C98.6456 99.2131 102.09 96.4786 106.897 90.8426C106.833 90.7778 106.769 90.7116 106.703 90.6441L93.4599 77.0828C93.4357 77.0571 93.4115 77.0328 93.3873 77.0085C87.6894 81.7345 84.906 85.1453 83.6355 87.7514C82.3779 90.3292 82.6253 92.116 82.956 93.6124C83.0252 93.9305 83.1153 94.2616 83.1966 94.5615C83.5885 96.0092 83.8083 96.8259 82.4384 98.4465L82.4095 98.4803L82.382 98.5026C80.7453 99.8489 79.9359 99.6097 78.5015 99.1903C78.2186 99.1065 77.9107 99.0173 77.5585 98.9322C76.0744 98.5708 74.3032 98.2911 71.7161 99.505C69.0806 100.741 65.6068 103.501 60.7504 109.214L60.7517 109.215L60.7512 109.216ZM97.2479 77.3386C97.1417 77.2318 97.145 77.0575 97.2512 76.9528C97.3574 76.8461 97.5308 76.8495 97.635 76.9562L103.609 83.0766C103.715 83.1833 103.712 83.3576 103.606 83.4623C103.5 83.569 103.326 83.5656 103.222 83.4589L97.2479 77.3386ZM95.9923 74.1946C95.8861 74.0879 95.8894 73.9136 95.9956 73.8089C96.1018 73.7021 96.2752 73.7055 96.3794 73.8122L102.354 79.9326C102.46 80.0393 102.456 80.2136 102.35 80.3183C102.244 80.4251 102.071 80.4217 101.966 80.3149L95.9923 74.1946Z" fill="#C87B00"/>
</svg>
