<svg width="28" height="18" viewBox="0 0 28 18" fill="none" xmlns="http://www.w3.org/2000/svg">
<path fill-rule="evenodd" clip-rule="evenodd" d="M0.875 9.00021C0.875 8.75157 0.973772 8.51311 1.14959 8.3373C1.3254 8.16148 1.56386 8.06271 1.8125 8.06271H23.9244L18.0238 2.16396C17.8477 1.98792 17.7488 1.74916 17.7488 1.50021C17.7488 1.25125 17.8477 1.01249 18.0238 0.836457C18.1998 0.66042 18.4385 0.561523 18.6875 0.561523C18.9365 0.561523 19.1752 0.66042 19.3513 0.836457L26.8513 8.33646C26.9386 8.42354 27.0078 8.527 27.0551 8.64089C27.1024 8.75479 27.1267 8.87689 27.1267 9.00021C27.1267 9.12352 27.1024 9.24562 27.0551 9.35952C27.0078 9.47342 26.9386 9.57687 26.8513 9.66396L19.3513 17.164C19.1752 17.34 18.9365 17.4389 18.6875 17.4389C18.4385 17.4389 18.1998 17.34 18.0238 17.164C17.8477 16.9879 17.7488 16.7492 17.7488 16.5002C17.7488 16.2513 17.8477 16.0125 18.0238 15.8365L23.9244 9.93771H1.8125C1.56386 9.93771 1.3254 9.83894 1.14959 9.66312C0.973772 9.4873 0.875 9.24885 0.875 9.00021Z" fill="#E1B164"/>
</svg>
