<svg width="19" height="19" viewBox="0 0 19 19" fill="none" xmlns="http://www.w3.org/2000/svg">
<path d="M14.25 7.71875H13.0625C13.062 7.24648 12.8742 6.79368 12.5403 6.45974C12.2063 6.12579 11.7535 5.93797 11.2812 5.9375V4.75C12.0683 4.75094 12.8229 5.06402 13.3794 5.62057C13.936 6.17711 14.2491 6.93168 14.25 7.71875Z" fill="#E1B164" fill-opacity="0.93"/>
<path d="M16.625 7.71875H15.4375C15.4362 6.61683 14.9979 5.5604 14.2188 4.78123C13.4396 4.00205 12.3832 3.56376 11.2812 3.5625V2.375C12.698 2.37657 14.0563 2.94008 15.0581 3.94188C16.0599 4.94369 16.6234 6.30198 16.625 7.71875ZM15.4375 17.2188H15.3366C3.66937 16.5478 2.0128 6.70344 1.78124 3.69906C1.74505 3.22807 1.89743 2.76199 2.20486 2.40334C2.51229 2.04469 2.94959 1.82284 3.42058 1.78659C3.46769 1.78303 3.51499 1.78125 3.56249 1.78125H6.69155C6.92938 1.78102 7.1618 1.85221 7.35871 1.9856C7.55561 2.11898 7.70793 2.30842 7.79593 2.52938L8.69843 4.75C8.78532 4.96586 8.80689 5.20248 8.76044 5.43049C8.714 5.6585 8.60159 5.86784 8.43718 6.0325L7.17249 7.30906C7.36924 8.43204 7.90659 9.46733 8.71169 10.2746C9.51679 11.0818 10.5507 11.6219 11.6731 11.8216L12.9616 10.545C13.1287 10.3824 13.34 10.2726 13.5691 10.2293C13.7983 10.186 14.0351 10.2112 14.25 10.3016L16.4884 11.1981C16.706 11.2889 16.8917 11.4424 17.0218 11.6391C17.1518 11.8358 17.2204 12.0667 17.2187 12.3025V15.4375C17.2187 15.9099 17.0311 16.363 16.697 16.697C16.363 17.0311 15.9099 17.2188 15.4375 17.2188ZM3.56249 2.96875C3.48452 2.96852 3.40726 2.98364 3.33514 3.01326C3.26301 3.04289 3.19742 3.08643 3.14212 3.1414C3.08682 3.19636 3.04289 3.26169 3.01284 3.33364C2.98278 3.40558 2.96719 3.48275 2.96696 3.56072C2.96696 3.57734 2.96755 3.59377 2.96874 3.61C3.24187 7.125 4.99343 15.4375 15.4019 16.0312C15.559 16.0407 15.7135 15.9873 15.8313 15.8828C15.9491 15.7784 16.0206 15.6315 16.0301 15.4743L16.0312 15.4375V12.3025L13.7928 11.4059L12.0887 13.0981L11.8037 13.0625C6.63812 12.4153 5.93749 7.24969 5.93749 7.19625L5.90187 6.91125L7.58812 5.20719L6.69749 2.96875H3.56249Z" fill="#E1B164" fill-opacity="0.93"/>
</svg>
