<svg width="50" height="50" viewBox="0 0 50 50" fill="none" xmlns="http://www.w3.org/2000/svg">
<circle cx="25" cy="25" r="25" fill="#D9D9D9" fill-opacity="0.7"/>
<path fill-rule="evenodd" clip-rule="evenodd" d="M13.4868 24.9995C13.4868 24.7814 13.5735 24.5722 13.7277 24.418C13.8819 24.2638 14.0911 24.1772 14.3092 24.1772H33.7056L28.5296 19.0028C28.3752 18.8484 28.2884 18.639 28.2884 18.4206C28.2884 18.2022 28.3752 17.9928 28.5296 17.8383C28.684 17.6839 28.8934 17.5972 29.1118 17.5972C29.3302 17.5972 29.5396 17.6839 29.6941 17.8383L36.273 24.4173C36.3496 24.4937 36.4103 24.5844 36.4518 24.6843C36.4933 24.7842 36.5146 24.8914 36.5146 24.9995C36.5146 25.1077 36.4933 25.2148 36.4518 25.3147C36.4103 25.4146 36.3496 25.5054 36.273 25.5818L29.6941 32.1607C29.5396 32.3151 29.3302 32.4019 29.1118 32.4019C28.8934 32.4019 28.684 32.3151 28.5296 32.1607C28.3752 32.0063 28.2884 31.7969 28.2884 31.5785C28.2884 31.3601 28.3752 31.1507 28.5296 30.9962L33.7056 25.8219H14.3092C14.0911 25.8219 13.8819 25.7352 13.7277 25.581C13.5735 25.4268 13.4868 25.2176 13.4868 24.9995Z" fill="white"/>
</svg>
