<svg width="34" height="34" viewBox="0 0 34 34" fill="none" xmlns="http://www.w3.org/2000/svg">
<path d="M14.1667 4.25H5.66667C5.29094 4.25 4.93061 4.39926 4.66493 4.66493C4.39926 4.93061 4.25 5.29094 4.25 5.66667V14.1667C4.25 14.5424 4.39926 14.9027 4.66493 15.1684C4.93061 15.4341 5.29094 15.5833 5.66667 15.5833H14.1667C14.5424 15.5833 14.9027 15.4341 15.1684 15.1684C15.4341 14.9027 15.5833 14.5424 15.5833 14.1667V5.66667C15.5833 5.29094 15.4341 4.93061 15.1684 4.66493C14.9027 4.39926 14.5424 4.25 14.1667 4.25ZM12.75 12.75H7.08333V7.08333H12.75V12.75ZM28.3333 4.25H19.8333C19.4576 4.25 19.0973 4.39926 18.8316 4.66493C18.5659 4.93061 18.4167 5.29094 18.4167 5.66667V14.1667C18.4167 14.5424 18.5659 14.9027 18.8316 15.1684C19.0973 15.4341 19.4576 15.5833 19.8333 15.5833H28.3333C28.7091 15.5833 29.0694 15.4341 29.3351 15.1684C29.6007 14.9027 29.75 14.5424 29.75 14.1667V5.66667C29.75 5.29094 29.6007 4.93061 29.3351 4.66493C29.0694 4.39926 28.7091 4.25 28.3333 4.25ZM26.9167 12.75H21.25V7.08333H26.9167V12.75ZM14.1667 18.4167H5.66667C5.29094 18.4167 4.93061 18.5659 4.66493 18.8316C4.39926 19.0973 4.25 19.4576 4.25 19.8333V28.3333C4.25 28.7091 4.39926 29.0694 4.66493 29.3351C4.93061 29.6007 5.29094 29.75 5.66667 29.75H14.1667C14.5424 29.75 14.9027 29.6007 15.1684 29.3351C15.4341 29.0694 15.5833 28.7091 15.5833 28.3333V19.8333C15.5833 19.4576 15.4341 19.0973 15.1684 18.8316C14.9027 18.5659 14.5424 18.4167 14.1667 18.4167ZM12.75 26.9167H7.08333V21.25H12.75V26.9167ZM24.0833 18.4167C20.9582 18.4167 18.4167 20.9582 18.4167 24.0833C18.4167 27.2085 20.9582 29.75 24.0833 29.75C27.2085 29.75 29.75 27.2085 29.75 24.0833C29.75 20.9582 27.2085 18.4167 24.0833 18.4167ZM24.0833 26.9167C22.5208 26.9167 21.25 25.6459 21.25 24.0833C21.25 22.5208 22.5208 21.25 24.0833 21.25C25.6459 21.25 26.9167 22.5208 26.9167 24.0833C26.9167 25.6459 25.6459 26.9167 24.0833 26.9167Z" fill="#E1B164" stroke="white"/>
</svg>
