<svg width="20" height="20" viewBox="0 0 20 20" fill="none" xmlns="http://www.w3.org/2000/svg">
<path d="M5.00008 14.1667H6.25008V12.9167H13.7501V14.1667H15.0001V10.7084C15.0001 10.2917 14.8854 9.92008 14.6559 9.59341C14.427 9.2673 14.1251 9.02786 13.7501 8.87508V7.50008C13.7501 7.04175 13.587 6.64925 13.2609 6.32258C12.9342 5.99647 12.5417 5.83341 12.0834 5.83341H7.91675C7.45841 5.83341 7.06619 5.99647 6.74008 6.32258C6.41341 6.64925 6.25008 7.04175 6.25008 7.50008V8.87508C5.87508 9.02786 5.57286 9.2673 5.34341 9.59341C5.11453 9.92008 5.00008 10.2917 5.00008 10.7084V14.1667ZM6.25008 11.6667V10.7084C6.25008 10.514 6.31953 10.3473 6.45841 10.2084C6.5973 10.0695 6.76397 10.0001 6.95842 10.0001H13.0417C13.2362 10.0001 13.4029 10.0695 13.5417 10.2084C13.6806 10.3473 13.7501 10.514 13.7501 10.7084V11.6667H6.25008ZM7.50008 8.75008V7.08341H12.5001V8.75008H7.50008ZM3.33341 18.3334C2.87508 18.3334 2.48286 18.1704 2.15675 17.8442C1.83008 17.5176 1.66675 17.1251 1.66675 16.6667V3.33341C1.66675 2.87508 1.83008 2.48258 2.15675 2.15591C2.48286 1.8298 2.87508 1.66675 3.33341 1.66675H16.6667C17.1251 1.66675 17.5176 1.8298 17.8442 2.15591C18.1704 2.48258 18.3334 2.87508 18.3334 3.33341V16.6667C18.3334 17.1251 18.1704 17.5176 17.8442 17.8442C17.5176 18.1704 17.1251 18.3334 16.6667 18.3334H3.33341ZM3.33341 16.6667H16.6667V3.33341H3.33341V16.6667ZM3.33341 16.6667V3.33341V16.6667Z" fill="#E1B164" stroke="white" stroke-width="0.5"/>
</svg>
