<svg width="40" height="40" viewBox="0 0 40 40" fill="none" xmlns="http://www.w3.org/2000/svg">
<path d="M18.1444 5.61109C20.5512 5.60889 22.9046 6.32059 24.9069 7.65614C26.9092 8.99169 28.4703 10.8911 29.3929 13.1141C30.3155 15.337 30.558 17.7837 30.0898 20.1445C29.6216 22.5054 28.4637 24.6743 26.7626 26.377C25.0615 28.0796 22.8936 29.2395 20.5332 29.7098C18.1728 30.1802 15.7259 29.9399 13.5021 29.0194C11.2783 28.0988 9.37749 26.5394 8.0401 24.5383C6.70272 22.5373 5.98888 20.1846 5.98888 17.7778C6.00347 14.5574 7.28847 11.4729 9.56461 9.19466C11.8407 6.91645 14.9241 5.62862 18.1444 5.61109ZM18.1444 3.33331C15.2876 3.33331 12.4949 4.18046 10.1195 5.76764C7.74415 7.35482 5.89277 9.61073 4.79951 12.2501C3.70624 14.8895 3.42019 17.7938 3.97753 20.5957C4.53488 23.3977 5.91058 25.9714 7.93067 27.9915C9.95076 30.0116 12.5245 31.3873 15.3265 31.9447C18.1284 32.502 21.0327 32.216 23.6721 31.1227C26.3115 30.0294 28.5674 28.178 30.1546 25.8027C31.7417 23.4273 32.5889 20.6346 32.5889 17.7778C32.5889 13.9469 31.0671 10.2729 28.3582 7.56399C25.6493 4.85513 21.9753 3.33331 18.1444 3.33331Z" fill="white"/>
<path d="M38.8889 36.9889L30.7 28.7444L29.1222 30.3111L37.3111 38.5556C37.414 38.6592 37.5363 38.7415 37.6709 38.7978C37.8056 38.8542 37.9501 38.8834 38.0961 38.884C38.2421 38.8845 38.3867 38.8562 38.5218 38.8008C38.6569 38.7454 38.7797 38.664 38.8833 38.5611C38.9869 38.4582 39.0693 38.336 39.1256 38.2013C39.1819 38.0666 39.2112 37.9221 39.2117 37.7762C39.2122 37.6302 39.184 37.4855 39.1286 37.3504C39.0732 37.2153 38.9918 37.0925 38.8889 36.9889Z" fill="white"/>
</svg>
