<svg width="52" height="53" viewBox="0 0 52 53" fill="none" xmlns="http://www.w3.org/2000/svg">
<path d="M24.0162 53.0002C21.4248 53.0002 18.7497 52.0806 16.409 50.3251C12.6472 47.5664 7.12981 37.4513 6.87902 37.0333C6.62823 36.6153 0.692899 26.751 0.107726 22.1532C-0.393851 17.8898 0.860092 14.1279 3.78596 11.5365C6.29385 9.19576 10.1393 7.44024 10.3065 7.35665C10.4737 7.27305 10.7244 7.18945 10.9752 7.18945C11.4768 7.18945 11.9784 7.44024 12.2292 7.94182L18.7497 19.2273C19.1677 19.8961 18.9169 20.8156 18.2481 21.2336L18.1645 21.3172C17.6629 21.6516 16.7434 22.1532 15.4058 22.9055C13.8175 23.7415 12.6472 23.9923 11.8112 24.0759C12.5636 25.7478 14.3191 29.0917 16.0746 31.8503C17.6629 34.7762 19.5856 37.9529 20.756 39.4576C21.174 38.7052 22.0099 37.8693 23.5983 36.9497C25.3538 35.9465 26.1061 35.5286 26.3569 35.3614C26.3569 35.3614 26.4405 35.2778 26.5241 35.2778C27.1929 34.8598 28.1125 35.1106 28.5304 35.7794L35.0509 47.0648C35.4689 47.7336 35.2181 48.6532 34.5494 49.0712C34.4658 49.1548 30.9547 51.579 27.7781 52.5822C26.2733 52.833 25.103 53.0002 24.0162 53.0002ZM10.8916 8.94497C10.0557 9.36295 6.96262 10.8677 4.95631 12.7904C2.53202 15.0475 1.44527 18.3077 1.86325 21.986C2.36482 26.2494 8.38375 36.1137 8.38375 36.1973C8.46735 36.3645 13.9847 46.4797 17.4121 48.9876C20.338 51.1611 23.7655 51.9134 26.9421 50.9103C29.6172 50.0743 32.6267 48.068 33.2118 47.65L26.9421 36.7825C26.8585 36.7825 26.2733 37.1169 24.267 38.2872C21.9263 39.7084 21.7591 40.9623 21.7591 40.9623C21.7591 41.2131 21.5084 41.5475 21.2576 41.6311C21.0068 41.7147 20.6724 41.7147 20.4216 41.6311C19.0005 40.7951 15.4894 34.5254 14.4863 32.6863C13.3995 30.8472 9.80489 24.7447 9.72129 23.0727C9.72129 22.8219 9.88848 22.4876 10.0557 22.3204C10.3065 22.1532 10.6408 22.1532 10.8916 22.2368C10.8916 22.2368 12.1456 22.6548 14.4863 21.3172C15.4058 20.8156 16.5762 20.1469 17.1614 19.7289L10.8916 8.94497Z" fill="#E1B164" fill-opacity="0.74"/>
<path d="M32.0415 33.8565C31.9579 33.8565 31.8743 33.8565 31.7907 33.8565C30.7875 33.7729 29.868 33.1878 29.3664 32.3518C29.032 31.8502 28.9484 31.2651 28.9484 30.5963C29.2828 26.1657 26.8585 21.9859 22.8459 20.0632C22.0935 19.7288 21.592 19.06 21.3412 18.3076C21.0904 17.5553 21.0904 16.7193 21.5084 15.9669C22.0099 14.9638 23.0967 14.2114 24.267 14.2114C24.7686 14.2114 25.1866 14.295 25.6046 14.5458C31.8743 17.5553 35.6361 24.0758 35.1345 31.0143C34.9673 32.6026 33.6298 33.8565 32.0415 33.8565ZM24.267 15.9669C23.7655 15.9669 23.2639 16.3013 23.0131 16.7193C22.8459 17.0537 22.8459 17.3881 22.9295 17.7225C23.0131 18.0569 23.2639 18.3076 23.5983 18.4748C28.2797 20.7319 30.9547 25.4969 30.6203 30.5963C30.6203 30.8471 30.7039 31.1815 30.7875 31.3486C31.0383 31.7666 31.4563 32.0174 31.8743 32.0174H31.9579C32.6267 32.0174 33.2954 31.4322 33.2954 30.7635C33.797 24.4938 30.3696 18.642 24.7686 15.9669C24.685 16.0505 24.5178 15.9669 24.267 15.9669Z" fill="#E1B164" fill-opacity="0.74"/>
<path d="M40.0667 34.3578C39.9831 34.3578 39.8995 34.3578 39.8159 34.3578C38.8128 34.2742 37.8932 33.6891 37.3916 32.8531C37.0572 32.3515 36.9736 31.6828 36.9736 31.0976C37.5588 23.4067 33.4626 16.3011 26.5241 12.9572C25.7718 12.6228 25.2702 11.954 25.0194 11.2017C24.7686 10.4493 24.7686 9.61336 25.1866 8.86099C25.6882 7.85783 26.7749 7.10547 27.9453 7.10547C28.4468 7.10547 28.8648 7.18906 29.2828 7.43985C38.4784 11.8705 43.9121 21.3168 43.1598 31.5156C42.9926 33.1039 41.655 34.3578 40.0667 34.3578ZM27.8617 8.86099C27.3601 8.86099 26.8585 9.19537 26.6077 9.61336C26.4405 9.94774 26.4405 10.2821 26.5241 10.7001C26.6077 11.0345 26.8585 11.2853 27.1929 11.4525C34.7165 15.1307 39.2307 22.9052 38.6456 31.2648C38.6456 31.5156 38.6456 31.8499 38.8128 32.0171C39.0636 32.4351 39.4815 32.6859 39.8995 32.6859H39.9831C40.6519 32.6859 41.3207 32.1007 41.3207 31.432C41.9894 21.902 36.8901 13.1244 28.3632 8.94459C28.2796 8.86099 28.0289 8.86099 27.8617 8.86099Z" fill="#E1B164" fill-opacity="0.74"/>
<path d="M48.0084 34.8596C47.9248 34.8596 47.8412 34.8596 47.7576 34.8596C46.7544 34.776 45.8349 34.1909 45.3333 33.3549C44.9989 32.8533 44.9153 32.1845 44.9153 31.5994C45.7513 20.7319 39.8995 10.5331 30.0352 5.76814C29.2828 5.43375 28.7812 4.76498 28.5304 4.01262C28.2796 3.26025 28.2796 2.42429 28.6976 1.67192C29.1992 0.66877 30.286 0 31.4563 0C31.9579 0 32.3759 0.0835962 32.7938 0.334385C44.9153 6.18612 52.1046 18.642 51.1014 32.0173C50.9342 33.6057 49.5967 34.8596 48.0084 34.8596ZM31.4563 1.67192C30.9547 1.67192 30.4531 2.00631 30.2024 2.42429C30.0352 2.75868 30.0352 3.09306 30.1188 3.51104C30.2024 3.84543 30.4531 4.09621 30.7875 4.26341C41.2371 9.36278 47.5068 20.0631 46.5872 31.683C46.5872 31.9338 46.5872 32.2681 46.7544 32.4353C47.0052 32.8533 47.4232 33.1041 47.8412 33.1041H47.9248C48.5935 33.1041 49.2623 32.5189 49.2623 31.8502C50.1819 19.1435 43.4106 7.35647 31.8743 1.75552C31.8743 1.75552 31.6235 1.67192 31.4563 1.67192Z" fill="#E1B164" fill-opacity="0.74"/>
</svg>
