<svg width="43" height="43" viewBox="0 0 43 43" fill="none" xmlns="http://www.w3.org/2000/svg">
<circle cx="21.5" cy="21.5" r="21.5" fill="#E49216" fill-opacity="0.88"/>
<circle cx="21.5" cy="21.5" r="21" stroke="#E1B164" stroke-opacity="0.45"/>
<path d="M27.4015 33.4279C28.5291 33.9228 29.6713 33.6474 30.2748 33.1614C30.8829 32.672 31.1192 32.046 31.1192 32.046L27.4015 33.4279ZM27.4015 33.4279L27.2783 33.3752M27.4015 33.4279L27.2783 33.3752M27.2783 33.3752L21.8675 29.2242L18.6391 32.1636L27.2783 33.3752ZM32.8734 9.41659C32.8736 9.41646 32.8744 9.416 32.8755 9.41539L32.8749 9.41572L32.8734 9.41659ZM32.8734 9.41659C32.8733 9.41663 32.8733 9.41664 32.8734 9.41661L32.8734 9.41659ZM29.4762 9.49123C30.9678 8.86541 31.9749 8.44285 32.3359 8.29583H32.3439L32.4366 8.25702C32.7174 8.13943 33.0153 8.06791 33.3188 8.04522C33.6353 8.03028 33.9491 8.10987 34.2203 8.27388C34.5403 8.47559 34.7739 8.78918 34.8755 9.15366C34.9771 9.52693 34.9602 9.93253 34.8518 10.4152L34.8516 10.4152L34.8489 10.429L30.6762 31.8057L30.6532 31.8648L30.6531 31.8648L30.6524 31.8669L30.652 31.8677L30.652 31.8678L30.6474 31.879C30.6424 31.8907 30.6339 31.9102 30.6215 31.9362C30.5966 31.9883 30.5567 32.0654 30.5002 32.1566C30.3861 32.3404 30.2101 32.5717 29.9614 32.7718L29.9613 32.7719C29.5018 33.1419 28.5578 33.3894 27.6024 32.97L27.6024 32.97L27.5979 32.9681L27.5327 32.9402L22.1718 28.8275L21.84 28.5729L21.5308 28.8545L18.3143 31.7832L18.2952 31.7984L18.2857 31.8051C18.2736 31.8134 18.2528 31.8271 18.2242 31.8439C18.1667 31.8777 18.0809 31.9223 17.9745 31.9606C17.7609 32.0376 17.4847 32.083 17.1838 31.9919L17.1506 31.9819L17.1164 31.9765L17.1131 31.976C17.0994 31.9738 17.0893 31.9722 17.0813 31.971C17.0747 31.9679 17.0677 31.9649 17.0602 31.9618L17.0617 31.9562C17.0066 31.9399 16.9536 31.9174 16.9037 31.8892C16.7948 31.8192 16.7021 31.732 16.619 31.6222L16.6191 31.6221L16.6109 31.6118C16.4204 31.3735 16.2474 31.0375 16.0547 30.4228L16.0542 30.4211C15.8412 29.7502 15.2117 27.6915 14.707 26.0407C14.4011 25.0404 14.141 24.1899 14.0472 23.8886L13.9713 23.6449L13.7294 23.5635L8.26148 21.7214L8.20284 21.7016C8.17159 21.6888 8.12887 21.6704 8.07794 21.6462C7.95856 21.5897 7.79969 21.5045 7.63929 21.3904L7.63917 21.3903C7.30939 21.1557 6.91974 20.7791 6.84442 20.1749L6.84416 20.1728C6.80145 19.8412 6.91876 19.4998 7.07137 19.2757C7.20671 19.0778 7.38079 18.9094 7.58307 18.7807L7.59026 18.7761L7.5973 18.7713C7.77662 18.6484 7.95463 18.5572 8.08865 18.4967C8.1551 18.4668 8.20926 18.445 8.24544 18.4312C8.24598 18.431 8.24651 18.4308 8.24704 18.4306L8.24763 18.4321L8.31706 18.4052L8.31639 18.4033L8.32836 18.3983L8.52354 18.316L9.26513 18.0033L11.9182 16.8849C14.1173 15.958 17.0578 14.7189 20.0234 13.4704L20.0235 13.4704L28.2891 9.98924C28.2893 9.98918 28.2894 9.98911 28.2896 9.98905C28.7128 9.81152 29.1092 9.64522 29.4762 9.49123ZM33.6751 9.84169L33.1751 9.82583V9.34281L33.1484 9.34293C33.1399 9.34304 33.1216 9.34334 33.1002 9.34514C33.0769 9.34711 33.042 9.35144 33.0011 9.36274C32.9581 9.37461 32.9242 9.38981 32.9012 9.4015C32.8931 9.40563 32.8863 9.40933 32.8821 9.41168C32.8812 9.41203 32.8802 9.41242 32.8791 9.41286L32.8791 9.41275L32.8692 9.41686C31.5009 9.98491 30.134 10.5563 28.7685 11.1311L28.7679 11.1313C26.7638 11.9778 24.2357 13.0426 21.6543 14.1298C21.272 14.2908 20.8885 14.4523 20.5054 14.6137C17.5396 15.8623 14.5979 17.1013 12.3977 18.0282L9.74303 19.1467L9.0009 19.4594L8.80555 19.5417L8.75549 19.5628L8.7519 19.5643L8.73082 19.5718L8.70188 19.5821L8.67442 19.5958L8.65703 19.6045L6.88017 20.1945L8.68329 20.5552L8.68584 20.5561L14.9469 22.6642L15.036 23.1094L15.6483 22.73L28.1545 14.9825L18.2422 24.2214L18.1158 24.3391L18.0891 24.5098L17.2493 29.8736L17.0294 31.2782L18.0801 30.3204L21.7686 26.9584L28.0547 31.7777L28.1098 31.82L28.1744 31.8456C28.3644 31.921 28.5526 31.9804 28.7334 31.9767C28.9745 31.9716 29.1219 31.8583 29.1907 31.8037L29.1913 31.8032C29.2745 31.7369 29.3343 31.6677 29.3779 31.606C29.4129 31.5564 29.4525 31.4849 29.4407 31.5048L29.4848 31.4305L29.5013 31.3458L33.6054 10.3428H33.6751V9.84281V9.84169Z" stroke="url(#paint0_linear_52_1533)" stroke-linecap="round"/>
<defs>
<linearGradient id="paint0_linear_52_1533" x1="6.33523" y1="-123.18" x2="36.5265" y2="-123.18" gradientUnits="userSpaceOnUse">
<stop stop-color="white"/>
<stop offset="1" stop-color="white" stop-opacity="0.45"/>
</linearGradient>
</defs>
</svg>
