<svg width="43" height="43" viewBox="0 0 43 43" fill="none" xmlns="http://www.w3.org/2000/svg">
<g clip-path="url(#clip0_408_1068)">
<path d="M21.5 43C33.3741 43 43 33.3741 43 21.5C43 9.62588 33.3741 0 21.5 0C9.62588 0 0 9.62588 0 21.5C0 33.3741 9.62588 43 21.5 43Z" fill="url(#paint0_linear_408_1068)"/>
<path d="M14.5564 23.0607L17.1045 30.1318C17.1045 30.1318 17.4231 30.8007 17.7734 30.8007C18.1238 30.8007 23.1882 25.5133 23.1882 25.5133L28.826 14.5881L14.652 21.2452L14.5564 23.0607Z" fill="#C8DAEA"/>
<path d="M17.9327 24.8762L17.4549 30.0681C17.4549 30.0681 17.2638 31.6607 18.8564 30.0681C20.449 28.4755 21.9779 27.2333 21.9779 27.2333L17.9327 24.8762Z" fill="#A9C6D8"/>
<path d="M14.5881 23.3156L9.33251 21.5956C9.33251 21.5956 8.69547 21.3408 8.91843 20.7675C8.95028 20.6401 9.04584 20.5445 9.30065 20.3852C10.4792 19.5889 30.8325 12.263 30.8325 12.263C30.8325 12.263 31.4058 12.0719 31.7562 12.1993C31.9155 12.263 32.011 12.3267 32.1066 12.5815C32.1384 12.6771 32.1703 12.8682 32.1384 13.0593C32.1384 13.1867 32.1066 13.3141 32.1066 13.5052C31.9792 15.5119 28.2844 30.4504 28.2844 30.4504C28.2844 30.4504 28.0614 31.3104 27.2651 31.3423C26.9784 31.3423 26.6281 31.2786 26.214 30.9282C24.6532 29.5904 19.2703 25.9593 18.0599 25.163C17.9962 25.1312 17.9644 25.0675 17.9644 25.0038C17.9325 24.9082 18.0281 24.8126 18.0281 24.8126C18.0281 24.8126 27.4244 16.4675 27.6792 15.5756C27.711 15.5119 27.6155 15.4801 27.5199 15.5119C26.8829 15.7349 16.0851 22.583 14.8747 23.3156C14.811 23.3475 14.5881 23.3156 14.5881 23.3156Z" fill="white"/>
</g>
<defs>
<linearGradient id="paint0_linear_408_1068" x1="21.5" y1="43" x2="21.5" y2="0" gradientUnits="userSpaceOnUse">
<stop stop-color="#1D93D2"/>
<stop offset="1" stop-color="#38B0E3"/>
</linearGradient>
<clipPath id="clip0_408_1068">
<rect width="43" height="43" fill="white"/>
</clipPath>
</defs>
</svg>
