<svg width="37" height="30" viewBox="0 0 37 30" fill="none" xmlns="http://www.w3.org/2000/svg">
<g clip-path="url(#clip0_499_8665)">
<path d="M18.1573 2.03956C18.0144 2.05742 17.8971 2.19561 17.9028 2.33948V2.63027V2.6394C16.0428 2.68242 13.4132 3.1463 11.0301 4.32039C8.5248 5.55478 6.29856 7.59472 5.69347 10.7173C5.66181 10.8835 5.80609 11.0602 5.97533 11.0626H17.9026V16.8782H12.9026C12.7693 16.9036 12.6638 17.0333 12.6662 17.169V18.9135C12.6662 19.0657 12.8048 19.2043 12.9572 19.2043H17.9026V26.4734H15.5207C15.3683 26.4876 15.2427 26.6392 15.2571 26.7914C15.2713 26.9436 15.4229 27.0692 15.5753 27.055H20.8116C20.9652 27.0578 21.1067 26.9178 21.1067 26.7642C21.1067 26.6106 20.9652 26.4712 20.8116 26.4734H18.4843V19.2043H23.4297C23.5821 19.2043 23.7207 19.0657 23.7207 18.9135V17.169C23.7207 17.0168 23.5821 16.8782 23.4297 16.8782H18.4843V11.0626H30.4116C30.5808 11.0604 30.7251 10.8837 30.6934 10.7173C30.0885 7.59472 27.8623 5.55472 25.3568 4.32038C22.9737 3.14625 20.344 2.68241 18.4841 2.63939V2.63026V2.33947C18.4906 2.17125 18.3238 2.01845 18.1568 2.03956L18.1573 2.03956ZM18.1936 3.21161C19.9647 3.21161 22.7009 3.65479 25.1027 4.83805C27.4057 5.9726 29.3825 7.7727 30.0392 10.4807H6.34826C7.00493 7.77265 8.98176 5.97255 11.2847 4.83805C13.6867 3.65463 16.4227 3.21161 18.1938 3.21161H18.1936ZM5.95724 16.8682C5.77279 16.8778 5.63318 17.0969 5.70278 17.268C6.3832 19.0629 6.9767 20.7128 7.60273 22.4019H7.08446C6.93207 22.4161 6.80646 22.5677 6.82087 22.7199C6.83507 22.8721 6.98666 22.9977 7.13905 22.9835H7.90264L6.86632 26.0819C6.79449 26.229 6.87728 26.4297 7.03171 26.4839C7.18613 26.5379 7.37606 26.4326 7.41178 26.2729L8.51183 22.9835H10.9209V26.4728C10.9187 26.6264 11.0581 26.7676 11.2119 26.7676C11.3655 26.7676 11.5049 26.6264 11.5029 26.4728V22.9835H12.0847C12.2383 22.9864 12.3797 22.8464 12.3797 22.6927C12.3797 22.5391 12.2383 22.3997 12.0847 22.402H8.22104C7.96414 21.7057 7.70947 21 7.47548 20.3666H11.2119C11.3655 20.3695 11.5069 20.2295 11.5069 20.0758C11.5069 19.9222 11.3655 19.783 11.2119 19.785H7.25735C6.89127 18.7954 6.49579 17.7212 6.2482 17.0592C6.20559 16.9425 6.0814 16.8609 5.95721 16.8684L5.95724 16.8682ZM30.3941 16.8682C30.2821 16.8755 30.178 16.9537 30.1397 17.059C29.8921 17.7209 29.4966 18.7954 29.1305 19.7849H25.176C25.1579 19.782 25.1397 19.782 25.1214 19.7849C24.969 19.7991 24.8434 19.9506 24.8578 20.1028C24.872 20.255 25.0236 20.3806 25.176 20.3664H28.9124C28.6543 21.0628 28.3887 21.7993 28.1668 22.4018H24.3032C24.1496 22.3989 24.0081 22.5389 24.0081 22.6925C24.0081 22.8462 24.1496 22.9856 24.3032 22.9833H24.885V26.4726C24.8827 26.6262 25.0221 26.7674 25.176 26.7674C25.3296 26.7674 25.469 26.6262 25.4669 26.4726V22.9833C26.2738 22.9862 27.0719 22.9833 27.876 22.9833L28.9761 26.2727C29.0118 26.4324 29.2017 26.5379 29.3562 26.4837C29.5106 26.4297 29.5934 26.2289 29.5215 26.0817L28.4852 22.9833H29.2488C29.4024 22.9861 29.5439 22.8461 29.5439 22.6925C29.5439 22.5389 29.4024 22.3995 29.2488 22.4017H28.7851C29.4108 20.6848 30.0373 18.9999 30.6851 17.2678C30.7596 17.0854 30.5907 16.8534 30.3941 16.868L30.3941 16.8682ZM13.2487 17.4587H23.1396V18.6219H13.2487V17.4587Z" fill="#E49216"/>
</g>
<defs>
<clipPath id="clip0_499_8665">
<rect width="36.3507" height="30" fill="white" transform="translate(0.0117188)"/>
</clipPath>
</defs>
</svg>
