<svg width="43" height="43" viewBox="0 0 43 43" fill="none" xmlns="http://www.w3.org/2000/svg">
<circle cx="21.5" cy="21.5" r="21.5" fill="#E49216" fill-opacity="0.88"/>
<circle cx="21.5" cy="21.5" r="21" stroke="#E1B164" stroke-opacity="0.45"/>
<path d="M18.4047 18.3642C17.921 18.4907 17.921 18.4909 17.9211 18.4911L17.9212 18.4917L17.9216 18.493L17.9226 18.4967L17.9257 18.5081C17.9283 18.5175 17.9319 18.5304 17.9367 18.5467C17.9461 18.5792 17.96 18.6251 17.9788 18.6827C18.0162 18.7977 18.0731 18.96 18.1531 19.1563C18.3126 19.5482 18.5655 20.0799 18.9412 20.6441C19.6922 21.772 20.9502 23.0517 22.9453 23.5676L22.9852 23.5779L23.0262 23.5816L23.0705 23.0835C23.0262 23.5816 23.0264 23.5816 23.0266 23.5816L23.0269 23.5816L23.0277 23.5817L23.0294 23.5818L23.0334 23.5822L23.0437 23.5829C23.0516 23.5834 23.0615 23.5839 23.0732 23.5844C23.0965 23.5853 23.1275 23.5859 23.1645 23.5851C23.2375 23.5835 23.3385 23.5763 23.4529 23.5538C23.6735 23.5103 23.9985 23.3979 24.2369 23.0978L24.2375 23.097L24.7689 22.4252L24.7689 22.4253L24.7752 22.4171C24.8758 22.2843 25.213 22.1229 25.6018 22.3426C26.3911 22.7934 27.3899 23.4923 28.0387 24.1114L28.0519 24.124L28.066 24.1357C28.174 24.2246 28.2246 24.3212 28.2406 24.4184C28.2573 24.5193 28.2429 24.6612 28.1498 24.8417L28.1003 24.9376C27.8284 25.3971 27.4639 25.8519 27.065 26.1562C26.6971 26.4368 26.3532 26.5536 26.0366 26.5072L26.0312 26.499L25.8522 26.4484C25.3238 26.299 24.3839 25.8802 23.3415 25.3103C22.3067 24.7446 21.2117 24.0524 20.3732 23.3771L20.3717 23.3759C19.5067 22.6846 18.7151 21.8675 18.1076 21.086L18.1076 21.086L18.1053 21.083C17.5532 20.3836 16.9932 19.551 16.4476 18.5456L16.4468 18.5441C15.8649 17.4803 15.513 16.7167 15.3081 16.2245C15.2057 15.9785 15.14 15.8004 15.1008 15.6867C15.0812 15.6299 15.0681 15.5892 15.0604 15.5641L15.0526 15.5382L15.0517 15.5349L15.0516 15.5345L15.0515 15.5341L15.0514 15.534L15.0514 15.5339L15.0489 15.5247L15.0455 15.5141C14.9275 15.1435 15.034 14.7374 15.3563 14.3045C15.6559 13.9018 16.1036 13.5345 16.5577 13.2603L16.6566 13.2081C16.8325 13.1153 16.9706 13.1014 17.0693 13.1182C17.165 13.1345 17.2648 13.1862 17.3597 13.3017L17.361 13.3032L17.361 13.3032L17.3611 13.3033L17.3614 13.3037L17.3628 13.3054L17.3684 13.3122L17.3904 13.3388L17.4712 13.4371C17.5395 13.5205 17.6336 13.6357 17.7367 13.7635C17.9455 14.0225 18.1821 14.3216 18.3195 14.513L18.3195 14.5131L18.3213 14.5155C18.5814 14.8733 18.9405 15.463 19.1307 15.798C19.3509 16.1984 19.1869 16.5463 19.0558 16.6479L19.0557 16.6478L19.0477 16.6543L18.3835 17.1918L18.3827 17.1924C18.086 17.4335 17.9762 17.7605 17.9338 17.9806C17.9117 18.0952 17.9048 18.1963 17.9032 18.2695C17.9024 18.3065 17.9029 18.3375 17.9038 18.3608C17.9043 18.3725 17.9048 18.3824 17.9053 18.3902L17.906 18.4004L17.9063 18.4043L17.9064 18.406L17.9065 18.4068L17.9065 18.4071C17.9066 18.4073 17.9066 18.4075 18.4047 18.3642ZM18.4047 18.3642L17.921 18.4907L17.9102 18.4497L17.9066 18.4075L18.4047 18.3642ZM32.0778 9.81198L32.0831 9.81686L32.0885 9.8216C34.229 11.7045 35.5484 16.0252 34.6786 23.1856L34.6786 23.186C34.2746 26.5359 32.8386 28.3204 31.4362 29.3152C30.2775 30.1371 29.1462 30.4312 28.4673 30.6077C28.3046 30.65 28.1679 30.6855 28.063 30.72C27.7132 30.8325 24.2902 31.7038 19.8196 31.3242L19.6201 31.3073C19.8174 31.07 19.9969 30.8534 20.1473 30.6715C20.2694 30.5238 20.3724 30.3989 20.4501 30.3046C24.2574 30.5117 27.2645 29.7596 27.6397 29.6394L27.6418 29.6387C27.6904 29.6229 27.7726 29.6039 27.8822 29.5785C28.4056 29.4574 29.5533 29.1917 30.6437 28.4423C32.0073 27.5051 33.3109 25.8257 33.6843 22.7805L33.6843 22.7805C34.057 19.7395 33.9918 17.1566 33.5713 15.1003C33.153 13.0544 32.3729 11.4843 31.2736 10.5284C30.5566 9.87438 27.8624 8.22165 22.4283 8.19608L22.4228 8.19574L22.365 8.19262C22.315 8.1901 22.2425 8.18684 22.1496 8.18376C21.964 8.1776 21.6972 8.17213 21.368 8.17459C20.7104 8.17951 19.8002 8.21612 18.7898 8.34338C16.7935 8.59481 14.3034 9.21179 12.6427 10.7347L12.6349 10.7419L12.6274 10.7494C10.7701 12.6037 10.1845 15.3184 10.1229 18.4608C10.1208 18.5694 10.1183 18.6821 10.1157 18.7986C10.0818 20.3231 10.0336 22.4916 10.6284 24.4985C11.2527 26.605 12.5945 28.563 15.3624 29.4664L15.3608 29.7889L15.3575 30.4715H15.1379C12.0515 29.57 10.5352 27.5141 9.78299 25.2077C9.01525 22.8538 9.05256 20.2611 9.09147 18.3914C9.16804 14.7126 9.87416 11.872 11.7568 9.96209C13.4599 8.38612 16.1037 7.67215 18.4001 7.36661C19.5381 7.21519 20.5661 7.1671 21.3096 7.15697C21.681 7.15191 21.9805 7.15634 22.186 7.16197C22.2887 7.16478 22.3679 7.1679 22.4208 7.17027L22.4801 7.17314L22.4943 7.17392L22.4974 7.17409L22.4978 7.17412L22.4979 7.17413L22.498 7.17413L22.5118 7.17497L22.5259 7.17503C28.7522 7.20251 31.4735 9.24883 32.0778 9.81198ZM28.7196 19.5848C28.7196 19.5847 28.7196 19.5847 28.7196 19.5846L28.7196 19.5848Z" stroke="url(#paint0_linear_52_1534)" stroke-linecap="round"/>
<defs>
<linearGradient id="paint0_linear_52_1534" x1="8.5744" y1="-136.672" x2="36.4497" y2="-136.673" gradientUnits="userSpaceOnUse">
<stop stop-color="white"/>
<stop offset="1" stop-color="white" stop-opacity="0.45"/>
</linearGradient>
</defs>
</svg>
