<svg width="43" height="43" viewBox="0 0 43 43" fill="none" xmlns="http://www.w3.org/2000/svg">
<g clip-path="url(#clip0_408_1076)">
<path d="M0 21.4804C0 9.60346 9.60346 0 21.4804 0C33.3573 0 42.9608 9.60346 42.9608 21.4804C42.9608 33.3573 33.3573 42.9608 21.4804 42.9608C9.60346 42.9608 0 33.3573 0 21.4804Z" fill="#7B519D"/>
<path d="M30.9217 26.4313C30.2385 25.8619 29.4983 25.3495 28.7581 24.837C27.2777 23.8121 25.9681 23.7552 24.8863 25.4064C24.26 26.3174 23.4059 26.3743 22.5518 25.9758C20.1035 24.837 18.1676 23.1289 17.0857 20.6236C16.5733 19.5418 16.5733 18.5169 17.769 17.7197C18.3953 17.3212 18.9647 16.8087 18.9647 15.8977C18.9078 14.702 16.0608 10.7733 14.9221 10.3747C14.4666 10.2039 14.0111 10.2039 13.4986 10.3747C10.8225 11.2857 9.7407 13.4494 10.8225 16.0116C13.9541 23.6983 19.4771 29.0504 27.0499 32.3529C27.5054 32.5237 27.9609 32.6376 28.1887 32.6945C29.8968 32.6945 31.9466 31.0433 32.516 29.3921C33.0284 27.7978 31.8897 27.1715 30.9217 26.4313Z" fill="#F1F2F2"/>
<path d="M22.381 10.887C27.9609 11.7411 30.4662 14.3603 31.2064 19.9972C31.2633 20.5096 31.0925 21.3068 31.8327 21.3068C32.6298 21.3068 32.4021 20.5666 32.4021 20.0541C32.459 14.8158 27.847 9.9191 22.5518 9.74828C22.1532 9.80522 21.2991 9.46359 21.2422 10.3746C21.2422 10.887 21.9254 10.8301 22.381 10.887Z" fill="#F1F2F2"/>
<path d="M23.4627 12.4245C22.9503 12.3675 22.2101 12.0828 22.0962 12.823C21.9823 13.6202 22.7795 13.5063 23.235 13.6202C26.6513 14.3604 27.847 15.613 28.4164 19.0293C28.4733 19.5418 28.3594 20.282 29.1566 20.1681C29.7829 20.0542 29.5551 19.4279 29.6121 19.0293C29.7259 15.7838 26.936 12.823 23.4627 12.4245Z" fill="#F1F2F2"/>
<path d="M23.8044 15.1004C23.4627 15.1004 23.1211 15.1574 22.9503 15.5559C22.7795 16.1253 23.178 16.2392 23.5766 16.3531C25.0001 16.5808 25.7403 17.4349 25.8541 18.8014C25.9111 19.2 26.1388 19.4847 26.4805 19.4277C26.9929 19.3708 27.0498 18.9153 26.9929 18.4598C27.1068 16.8655 25.3417 15.0435 23.8044 15.1004Z" fill="#F1F2F2"/>
</g>
<defs>
<clipPath id="clip0_408_1076">
<rect width="43" height="43" fill="white"/>
</clipPath>
</defs>
</svg>
