<svg width="193" height="121" viewBox="0 0 193 121" fill="none" xmlns="http://www.w3.org/2000/svg">
<rect width="193" height="121" rx="10" fill="white"/>
<rect x="0.5" y="0.5" width="192" height="120" rx="9.5" stroke="#D9D9D9" stroke-opacity="0.65"/>
<path d="M79.3177 36.168C82.0757 36.168 83.9517 34.096 83.9517 31.338C83.9517 28.58 82.0757 26.508 79.3177 26.508C76.5457 26.508 74.6837 28.58 74.6837 31.338C74.6837 34.096 76.5457 36.168 79.3177 36.168ZM79.3177 35.132C77.2177 35.132 75.8877 33.508 75.8877 31.338C75.8877 29.154 77.2177 27.544 79.3177 27.544C81.4037 27.544 82.7477 29.154 82.7477 31.338C82.7477 33.508 81.4037 35.132 79.3177 35.132ZM86.9288 36V27.698H91.8848V26.662H85.7668V36H86.9288ZM91.8767 36.168C93.5427 36.168 94.6627 35.538 95.1667 31.436L95.6287 27.698H99.1427V36H100.305V26.662H94.5927L94.0187 31.352C93.6267 34.516 92.9967 35.132 91.8767 35.132V36.168ZM103.412 36L105.792 32.29H107.668V36H108.83V26.662H105.078C103.356 26.662 102.138 27.754 102.138 29.476C102.138 31.156 103.3 32.08 104.574 32.192L102.054 36H103.412ZM105.204 31.268C104.112 31.268 103.342 30.526 103.342 29.476C103.342 28.426 104.112 27.698 105.204 27.698H107.668V31.268H105.204ZM110.361 37.722H111.523V36H118.481V37.722H119.643V34.964H118.789V26.662H113.077L112.503 31.352C112.111 34.516 111.481 34.992 110.361 35.062V37.722ZM113.651 31.436L114.113 27.698H117.627V34.964H112.223C112.909 34.446 113.413 33.41 113.651 31.436ZM24.4473 53V51.964H19.8693C22.4733 49.906 24.4053 48.17 24.4053 46.266C24.4053 44.404 22.8233 43.522 21.2693 43.522C19.9533 43.522 18.7353 44.054 18.0213 44.992L18.7353 45.734C19.2813 45.034 20.1493 44.558 21.2693 44.558C22.2353 44.558 23.2153 45.076 23.2153 46.266C23.2153 47.876 21.3953 49.43 18.0353 52.076V53H24.4473ZM37.2951 53L33.0671 48.1L36.9591 43.662H35.5031L31.3731 48.492V43.662H30.2111V53H31.3731V49.864L32.3111 48.8L35.8531 53H37.2951ZM39.7813 53V43.662H38.6193V53H39.7813ZM51.111 53V43.662H49.445L46.533 50.69L43.635 43.662H41.969V53H43.131V45.314L46.295 53H46.771L49.949 45.314V53H51.111ZM61.0733 53V43.662H59.9113V47.68H54.4513V43.662H53.2893V53H54.4513V48.716H59.9113V53H61.0733ZM71.2501 53L67.4841 43.662H66.0421L62.2901 53H63.6201L64.4461 50.928H69.0941L69.9201 53H71.2501ZM68.7441 49.892H64.7821L66.7701 44.866L68.7441 49.892ZM74.9995 53V44.698H77.9675V43.662H70.8835V44.698H73.8375V53H74.9995ZM87.2959 53V43.662H86.1339V47.68H80.6739V43.662H79.5119V53H80.6739V48.716H86.1339V53H87.2959ZM93.7347 53.168C96.4927 53.168 98.3687 51.096 98.3687 48.338C98.3687 45.58 96.4927 43.508 93.7347 43.508C90.9627 43.508 89.1007 45.58 89.1007 48.338C89.1007 51.096 90.9627 53.168 93.7347 53.168ZM93.7347 52.132C91.6347 52.132 90.3047 50.508 90.3047 48.338C90.3047 46.154 91.6347 44.544 93.7347 44.544C95.8207 44.544 97.1647 46.154 97.1647 48.338C97.1647 50.508 95.8207 52.132 93.7347 52.132ZM101.346 53V43.662H100.184V53H101.346ZM102.858 42.206C102.858 41.856 102.55 41.562 102.2 41.562C101.85 41.562 101.542 41.856 101.542 42.206C101.542 42.57 101.85 42.864 102.2 42.864C102.55 42.864 102.858 42.57 102.858 42.206ZM99.9598 42.206C99.9598 41.856 99.6658 41.562 99.3158 41.562C98.9518 41.562 98.6578 41.856 98.6578 42.206C98.6578 42.57 98.9518 42.864 99.3158 42.864C99.6658 42.864 99.9598 42.57 99.9598 42.206ZM114.227 53L109.999 48.1L113.891 43.662H112.435L108.305 48.492V43.662H107.143V53H108.305V49.864L109.243 48.8L112.785 53H114.227ZM119.807 53C121.515 53 122.509 51.978 122.509 50.48C122.509 49.36 121.683 48.338 120.689 48.184C121.543 48.002 122.327 47.218 122.327 46.042C122.327 44.642 121.333 43.662 119.709 43.662H115.551V53H119.807ZM119.513 47.708H116.713V44.698H119.513C120.563 44.698 121.123 45.37 121.123 46.21C121.123 47.064 120.563 47.708 119.513 47.708ZM119.569 51.964H116.713V48.744H119.569C120.717 48.744 121.305 49.5 121.305 50.354C121.305 51.348 120.661 51.964 119.569 51.964ZM132.35 53L128.584 43.662H127.142L123.39 53H124.72L125.546 50.928H130.194L131.02 53H132.35ZM129.844 49.892H125.882L127.87 44.866L129.844 49.892ZM134.733 53V49.29H137.323C139.171 49.29 140.249 48.002 140.249 46.476C140.249 44.95 139.199 43.662 137.323 43.662H133.571V53H134.733ZM137.183 48.254H134.733V44.698H137.183C138.289 44.698 139.045 45.426 139.045 46.476C139.045 47.526 138.289 48.254 137.183 48.254ZM145.259 53V44.698H148.227V43.662H141.143V44.698H144.097V53H145.259ZM150.892 53L156.338 45.552V53H157.5V43.662H156.31L150.934 50.956V43.662H149.772V53H150.892ZM160.846 53V49.29H163.436C165.284 49.29 166.362 48.002 166.362 46.476C166.362 44.95 165.312 43.662 163.436 43.662H159.684V53H160.846ZM163.296 48.254H160.846V44.698H163.296C164.402 44.698 165.158 45.426 165.158 46.476C165.158 47.526 164.402 48.254 163.296 48.254ZM169.021 53L174.467 45.552V53H175.629V43.662H174.439L169.063 50.956V43.662H167.901V53H169.021Z" fill="#C07B0B"/>
<path d="M51.5352 76.144C52.8072 76.144 53.7432 75.592 54.4512 74.716L53.8752 74.356C53.3712 75.052 52.4952 75.52 51.5352 75.52C49.6512 75.52 48.1992 74.068 48.1992 72.004C48.1992 69.916 49.6512 68.488 51.5352 68.488C52.4952 68.488 53.3712 68.956 53.8752 69.652L54.4512 69.28C53.7672 68.428 52.8072 67.864 51.5352 67.864C49.2672 67.864 47.4792 69.544 47.4792 72.004C47.4792 74.464 49.2672 76.144 51.5352 76.144ZM60.1257 76V71.92C60.1257 70.624 59.1897 70.06 58.0137 70.06C57.0537 70.06 56.3817 70.384 55.7817 71.032L56.1297 71.464C56.6577 70.864 57.2217 70.612 57.9417 70.612C58.8057 70.612 59.5017 71.08 59.5017 71.944V73.12C58.9977 72.556 58.3377 72.292 57.5337 72.292C56.5257 72.292 55.5057 72.952 55.5057 74.212C55.5057 75.46 56.5377 76.144 57.5337 76.144C58.3377 76.144 58.9857 75.88 59.5017 75.316V76H60.1257ZM57.7497 75.652C56.7897 75.652 56.1657 75.04 56.1657 74.224C56.1657 73.396 56.7897 72.784 57.7497 72.784C58.4457 72.784 59.0937 73.06 59.5017 73.588V74.86C59.0937 75.388 58.4457 75.652 57.7497 75.652ZM66.9355 76L64.2475 72.82L66.9475 70.204H66.1195L62.6995 73.516V70.204H62.0755V76H62.6995V74.26L63.7795 73.24L66.0955 76H66.9355ZM70.6064 76.144C71.6144 76.144 72.1904 75.748 72.6584 75.148L72.2264 74.764C71.8064 75.34 71.2784 75.58 70.6424 75.58C69.2864 75.58 68.4584 74.488 68.4584 73.096C68.4584 71.704 69.2864 70.624 70.6424 70.624C71.2784 70.624 71.8064 70.852 72.2264 71.428L72.6584 71.044C72.1904 70.456 71.6144 70.06 70.6064 70.06C68.9024 70.06 67.7864 71.404 67.7864 73.096C67.7864 74.788 68.9024 76.144 70.6064 76.144ZM78.3601 76V71.92C78.3601 70.624 77.4241 70.06 76.2481 70.06C75.2881 70.06 74.6161 70.384 74.0161 71.032L74.3641 71.464C74.8921 70.864 75.4561 70.612 76.1761 70.612C77.0401 70.612 77.7361 71.08 77.7361 71.944V73.12C77.2321 72.556 76.5721 72.292 75.7681 72.292C74.7601 72.292 73.7401 72.952 73.7401 74.212C73.7401 75.46 74.7721 76.144 75.7681 76.144C76.5721 76.144 77.2201 75.88 77.7361 75.316V76H78.3601ZM75.9841 75.652C75.0241 75.652 74.4001 75.04 74.4001 74.224C74.4001 73.396 75.0241 72.784 75.9841 72.784C76.6801 72.784 77.3281 73.06 77.7361 73.588V74.86C77.3281 75.388 76.6801 75.652 75.9841 75.652ZM84.1139 70.204H80.3099V76H80.9339V70.756H84.1139V70.204ZM89.7155 76V71.92C89.7155 70.624 88.7795 70.06 87.6035 70.06C86.6435 70.06 85.9715 70.384 85.3715 71.032L85.7195 71.464C86.2475 70.864 86.8115 70.612 87.5315 70.612C88.3955 70.612 89.0915 71.08 89.0915 71.944V73.12C88.5875 72.556 87.9275 72.292 87.1235 72.292C86.1155 72.292 85.0955 72.952 85.0955 74.212C85.0955 75.46 86.1275 76.144 87.1235 76.144C87.9275 76.144 88.5755 75.88 89.0915 75.316V76H89.7155ZM87.3395 75.652C86.3795 75.652 85.7555 75.04 85.7555 74.224C85.7555 73.396 86.3795 72.784 87.3395 72.784C88.0355 72.784 88.6835 73.06 89.0915 73.588V74.86C88.6835 75.388 88.0355 75.652 87.3395 75.652ZM92.2894 76V73.276H95.5774V76H96.2014V70.204H95.5774V72.724H92.2894V70.204H91.6654V76H92.2894ZM100.63 76.144C101.638 76.144 102.214 75.748 102.682 75.148L102.25 74.764C101.83 75.34 101.302 75.58 100.666 75.58C99.3098 75.58 98.4818 74.488 98.4818 73.096C98.4818 71.704 99.3098 70.624 100.666 70.624C101.302 70.624 101.83 70.852 102.25 71.428L102.682 71.044C102.214 70.456 101.638 70.06 100.63 70.06C98.9258 70.06 97.8098 71.404 97.8098 73.096C97.8098 74.788 98.9258 76.144 100.63 76.144ZM104.076 70.204V76H106.956C108.108 76 108.72 75.208 108.72 74.284C108.72 73.36 108.108 72.568 106.956 72.568H104.7V70.204H104.076ZM106.908 73.12C107.676 73.12 108.06 73.612 108.06 74.284C108.06 74.956 107.664 75.436 106.908 75.436H104.7V73.12H106.908ZM115.041 76L112.353 72.82L115.053 70.204H114.225L110.805 73.516V70.204H110.181V76H110.805V74.26L111.885 73.24L114.201 76H115.041ZM118.676 76.144C120.392 76.144 121.472 74.788 121.472 73.096C121.472 71.404 120.392 70.06 118.676 70.06C116.984 70.06 115.892 71.404 115.892 73.096C115.892 74.788 116.984 76.144 118.676 76.144ZM118.676 75.58C117.332 75.58 116.564 74.392 116.564 73.096C116.564 71.812 117.332 70.624 118.676 70.624C120.044 70.624 120.8 71.812 120.8 73.096C120.8 74.392 120.044 75.58 118.676 75.58ZM126.887 70.204H123.083V76H123.707V70.756H126.887V70.204ZM130.629 76.144C132.345 76.144 133.425 74.788 133.425 73.096C133.425 71.404 132.345 70.06 130.629 70.06C128.937 70.06 127.845 71.404 127.845 73.096C127.845 74.788 128.937 76.144 130.629 76.144ZM130.629 75.58C129.285 75.58 128.517 74.392 128.517 73.096C128.517 71.812 129.285 70.624 130.629 70.624C131.997 70.624 132.753 71.812 132.753 73.096C132.753 74.392 131.997 75.58 130.629 75.58ZM135.867 75.832C135.867 75.34 135.579 75.064 135.255 75.064C134.967 75.064 134.739 75.304 134.739 75.58C134.739 75.868 134.943 76.084 135.231 76.084C135.267 76.084 135.351 76.072 135.351 76.072C135.327 76.444 135.039 76.912 134.655 77.176L135.003 77.476C135.471 77.14 135.867 76.504 135.867 75.832ZM142.797 76.144C144.501 76.144 145.497 75.172 145.497 73.852C145.497 72.532 144.357 71.932 143.661 71.86C144.345 71.74 145.377 71.212 145.377 69.988C145.377 68.632 144.189 67.876 142.797 67.876C141.633 67.876 140.745 68.404 140.181 69.088L140.613 69.52C141.201 68.86 141.849 68.5 142.761 68.5C143.793 68.5 144.681 69.052 144.681 70.048C144.681 71.116 143.709 71.572 142.653 71.572C142.329 71.572 142.029 71.572 141.909 71.56V72.208C142.029 72.196 142.329 72.196 142.653 72.196C143.853 72.196 144.801 72.664 144.801 73.816C144.801 74.872 144.021 75.52 142.785 75.52C141.765 75.52 140.985 75.04 140.541 74.404L140.073 74.812C140.529 75.532 141.489 76.144 142.797 76.144ZM40.7519 91L44.0519 87.232L44.5919 87.832V91H45.2879V87.832L45.8279 87.232L49.1279 91H50.0039L46.2719 86.812L49.6799 82.996H48.7919L45.2879 86.992V82.996H44.5919V86.992L41.0759 82.996H40.1999L43.6079 86.812L39.8759 91H40.7519ZM57.0311 91L53.2991 86.812L56.7071 82.996H55.8311L51.9671 87.376V82.996H51.2831V91H51.9671V88.204L52.8551 87.232L56.1551 91H57.0311ZM67.8758 91V82.996H61.4198V91H62.1038V83.62H67.1798V91H67.8758ZM72.4013 91.144C73.3613 91.144 74.0933 90.808 74.6693 90.208L74.3453 89.8C73.8533 90.328 73.1813 90.604 72.4493 90.604C71.0813 90.604 70.2413 89.56 70.1813 88.3H75.0293V88.132C75.0293 86.464 74.0573 85.06 72.2933 85.06C70.6853 85.06 69.4973 86.416 69.4973 88.096C69.4973 89.884 70.7093 91.144 72.4013 91.144ZM74.3933 87.808H70.1813C70.2293 86.8 70.9133 85.6 72.2813 85.6C73.7333 85.6 74.3813 86.824 74.3933 87.808ZM76.5819 85.204V87.028C76.5819 88.444 77.2179 88.984 78.6459 88.984C79.2939 88.984 80.0259 88.792 80.4939 88.552V91H81.1179V85.204H80.4939V88.036C80.1099 88.252 79.3899 88.432 78.7659 88.432C77.7579 88.432 77.2059 88.108 77.2059 86.884V85.204H76.5819ZM85.6318 91.144C86.5918 91.144 87.3238 90.808 87.8998 90.208L87.5758 89.8C87.0838 90.328 86.4118 90.604 85.6798 90.604C84.3118 90.604 83.4718 89.56 83.4118 88.3H88.2598V88.132C88.2598 86.464 87.2878 85.06 85.5238 85.06C83.9158 85.06 82.7278 86.416 82.7278 88.096C82.7278 89.884 83.9398 91.144 85.6318 91.144ZM87.6238 87.808H83.4118C83.4598 86.8 84.1438 85.6 85.5118 85.6C86.9638 85.6 87.6118 86.824 87.6238 87.808ZM92.5124 91.144C94.0604 91.144 95.1044 89.944 95.1044 88.096C95.1044 86.236 94.0604 85.06 92.5124 85.06C91.6484 85.06 90.9044 85.528 90.4964 86.116V85.204H89.8724V93.208H90.4964V90.064C90.9644 90.724 91.6964 91.144 92.5124 91.144ZM92.4044 90.58C91.6004 90.58 90.8324 90.076 90.4964 89.524V86.656C90.8324 86.104 91.6004 85.624 92.4044 85.624C93.7004 85.624 94.4324 86.692 94.4324 88.096C94.4324 89.5 93.7004 90.58 92.4044 90.58ZM99.165 91.144C100.173 91.144 100.749 90.748 101.217 90.148L100.785 89.764C100.365 90.34 99.837 90.58 99.201 90.58C97.845 90.58 97.017 89.488 97.017 88.096C97.017 86.704 97.845 85.624 99.201 85.624C99.837 85.624 100.365 85.852 100.785 86.428L101.217 86.044C100.749 85.456 100.173 85.06 99.165 85.06C97.461 85.06 96.345 86.404 96.345 88.096C96.345 89.788 97.461 91.144 99.165 91.144ZM102.611 85.204V91H105.491C106.643 91 107.255 90.208 107.255 89.284C107.255 88.36 106.643 87.568 105.491 87.568H103.235V85.204H102.611ZM105.443 88.12C106.211 88.12 106.595 88.612 106.595 89.284C106.595 89.956 106.199 90.436 105.443 90.436H103.235V88.12H105.443ZM113.576 91L110.888 87.82L113.588 85.204H112.76L109.34 88.516V85.204H108.716V91H109.34V89.26L110.42 88.24L112.736 91H113.576ZM115.087 84.292C115.351 84.292 115.567 84.076 115.567 83.812C115.567 83.548 115.351 83.344 115.087 83.344C114.835 83.344 114.607 83.548 114.607 83.812C114.607 84.076 114.835 84.292 115.087 84.292ZM115.399 91V85.204H114.775V91H115.399ZM119.895 91.144C121.227 91.144 122.139 90.592 122.607 87.004L123.039 83.62H126.231V91H126.927V82.996H122.427L121.911 86.944C121.527 89.908 120.915 90.52 119.895 90.52V91.144ZM129.484 91L132.796 86.104V91H133.42V85.204H132.808L129.508 90.028V85.204H128.884V91H129.484ZM139.901 91V85.204H135.365V91H135.989V85.756H139.277V91H139.901ZM146.705 91L144.017 87.82L146.717 85.204H145.889L142.469 88.516V85.204H141.845V91H142.469V89.26L143.549 88.24L145.865 91H146.705ZM148.504 91L151.816 86.104V91H152.44V85.204H151.828L148.528 90.028V85.204H147.904V91H148.504Z" fill="#353534"/>
<circle cx="96.5" cy="60.5" r="21.5" fill="#3C3C3B" fill-opacity="0.26"/>
<path d="M91 67L102 60.5L91 54V67Z" fill="#E49216" fill-opacity="0.88"/>
</svg>
