<svg width="43" height="43" viewBox="0 0 43 43" fill="none" xmlns="http://www.w3.org/2000/svg">
<circle cx="21.5" cy="21.5" r="21.5" fill="#4AC459"/>
<g clip-path="url(#clip0_398_9186)">
<path d="M7.6001 21.3264C7.59944 23.763 8.22162 26.1421 9.40469 28.2391L7.48695 35.4039L14.6526 33.4814C16.6345 34.5854 18.8551 35.1639 21.1117 35.1641H21.1176C28.567 35.1641 34.631 28.9613 34.6341 21.3373C34.6356 17.643 33.2308 14.1691 30.6786 11.5555C28.1268 8.94209 24.7331 7.5021 21.1171 7.50041C13.6668 7.50041 7.60328 13.7028 7.60021 21.3264" fill="url(#paint0_linear_398_9186)"/>
<path d="M7.11754 21.322C7.11677 23.8462 7.76125 26.3104 8.9865 28.4825L7 35.9041L14.4226 33.9127C16.4677 35.0537 18.7704 35.6553 21.1134 35.6562H21.1195C28.8361 35.6562 35.1179 29.2303 35.1212 21.3334C35.1225 17.5063 33.6673 13.9075 31.0239 11.2003C28.3801 8.49339 24.865 7.00157 21.1195 7C13.4015 7 7.12072 13.425 7.11765 21.322H7.11754ZM11.5378 28.1084L11.2607 27.6582C10.0956 25.7627 9.48071 23.5722 9.48159 21.3229C9.48411 14.7591 14.7046 9.41891 21.1239 9.41891C24.2326 9.42026 27.1541 10.6603 29.3515 12.9102C31.5488 15.1602 32.7579 18.1513 32.7572 21.3325C32.7543 27.8963 27.5338 33.2371 21.1195 33.2371H21.1149C19.0263 33.236 16.978 32.6621 15.1916 31.5775L14.7665 31.3195L10.3618 32.5012L11.5378 28.1083V28.1084Z" fill="url(#paint1_linear_398_9186)"/>
<path d="M17.6199 15.3345C17.3578 14.7384 17.082 14.7264 16.8328 14.7159C16.6287 14.7069 16.3953 14.7076 16.1622 14.7076C15.9289 14.7076 15.5498 14.7974 15.2294 15.1554C14.9087 15.5137 14.0048 16.3797 14.0048 18.1409C14.0048 19.9023 15.2585 21.6044 15.4333 21.8435C15.6083 22.0821 17.8536 25.8121 21.4096 27.2471C24.365 28.4395 24.9664 28.2024 25.6078 28.1426C26.2493 28.083 27.6778 27.2768 27.9692 26.4409C28.2608 25.6051 28.2608 24.8886 28.1734 24.7389C28.086 24.5897 27.8527 24.5001 27.5028 24.3212C27.1528 24.1421 25.4328 23.2761 25.1122 23.1566C24.7914 23.0372 24.5582 22.9777 24.3249 23.3361C24.0915 23.694 23.4216 24.5001 23.2174 24.7389C23.0134 24.9782 22.8092 25.008 22.4594 24.8289C22.1093 24.6493 20.9826 24.2717 19.6459 23.0523C18.6058 22.1034 17.9037 20.9316 17.6996 20.5731C17.4955 20.2152 17.6777 20.0212 17.8531 19.8428C18.0103 19.6824 18.2031 19.4248 18.3782 19.2159C18.5527 19.0068 18.6109 18.8576 18.7275 18.6189C18.8443 18.3799 18.7859 18.1708 18.6985 17.9918C18.6109 17.8127 17.931 16.0424 17.6199 15.3346" fill="white"/>
</g>
<defs>
<linearGradient id="paint0_linear_398_9186" x1="21.0605" y1="35.4039" x2="21.0605" y2="7.50041" gradientUnits="userSpaceOnUse">
<stop stop-color="#1FAF38"/>
<stop offset="1" stop-color="#60D669"/>
</linearGradient>
<linearGradient id="paint1_linear_398_9186" x1="21.0606" y1="35.9041" x2="21.0606" y2="7" gradientUnits="userSpaceOnUse">
<stop stop-color="#F9F9F9"/>
<stop offset="1" stop-color="white"/>
</linearGradient>
<clipPath id="clip0_398_9186">
<rect width="28.1212" height="29" fill="white" transform="translate(7 7)"/>
</clipPath>
</defs>
</svg>
