<svg width="43" height="43" viewBox="0 0 43 43" fill="none" xmlns="http://www.w3.org/2000/svg">
<circle cx="21.5" cy="21.5" r="21.5" fill="#E49216" fill-opacity="0.88"/>
<circle cx="21.5" cy="21.5" r="21" stroke="#E1B164" stroke-opacity="0.45"/>
<mask id="path-3-inside-1_52_1532" fill="white">
<path fill-rule="evenodd" clip-rule="evenodd" d="M31.572 11.4818C30.3303 10.232 28.8529 9.24091 27.2255 8.5661C25.598 7.89128 23.8528 7.54612 22.0911 7.5506C14.7034 7.5506 8.68938 13.5631 8.6864 20.9538C8.6864 23.3158 9.30303 25.621 10.4751 27.6546L8.57442 34.5988L15.6799 32.734C17.6453 33.8039 19.8473 34.3649 22.0851 34.3659H22.0911C29.4772 34.3659 35.4912 28.3533 35.4942 20.9627C35.4993 19.2016 35.1553 17.457 34.482 15.8297C33.8088 14.2024 32.8197 12.7246 31.572 11.4818ZM22.0911 32.1039H22.0866C20.0911 32.1041 18.1324 31.5672 16.4159 30.5496L16.0098 30.3078L11.7934 31.4141L12.9177 27.3037L12.6534 26.8827C11.5378 25.1066 10.9472 23.0512 10.9499 20.9538C10.9529 14.8113 15.9501 9.81407 22.0955 9.81407C23.5591 9.81082 25.0088 10.0979 26.3607 10.6586C27.7126 11.2194 28.9398 12.0427 29.9714 13.0809C31.0085 14.1141 31.8305 15.3427 32.39 16.6956C32.9494 18.0484 33.2352 19.4987 33.2307 20.9627C33.2278 27.1051 28.2305 32.1039 22.0911 32.1039ZM28.2021 23.7592C27.8662 23.5905 26.2208 22.7813 25.9133 22.6693C25.6072 22.5573 25.3847 22.5021 25.1608 22.8365C24.9368 23.1709 24.2948 23.9249 24.0992 24.1489C23.9036 24.3729 23.708 24.3997 23.3736 24.2325C23.0391 24.0653 21.9597 23.7114 20.6801 22.5707C19.6842 21.6824 19.0124 20.5865 18.8168 20.2505C18.6212 19.9146 18.7959 19.7339 18.9646 19.5667C19.1154 19.4174 19.299 19.1755 19.4663 18.9799C19.6335 18.7843 19.6887 18.6455 19.8007 18.4215C19.9127 18.1976 19.8574 18.002 19.7723 17.8348C19.6887 17.666 19.0183 16.0177 18.7391 15.3473C18.4689 14.6979 18.1927 14.7845 17.9866 14.7755C17.7732 14.7668 17.5597 14.7628 17.3461 14.7635C17.1763 14.7679 17.0092 14.8072 16.8553 14.8792C16.7014 14.9511 16.564 15.0541 16.4518 15.1816C16.1442 15.5175 15.2797 16.3268 15.2797 17.9751C15.2797 19.6234 16.4801 21.2165 16.6474 21.4405C16.8146 21.6645 19.0094 25.0462 22.3688 26.4975C23.169 26.8424 23.7931 27.0484 24.2784 27.2037C25.0802 27.459 25.8103 27.4217 26.3881 27.3366C27.0316 27.241 28.3694 26.5273 28.6486 25.745C28.9278 24.9626 28.9278 24.2922 28.8441 24.1519C28.7605 24.0115 28.5351 23.9264 28.2021 23.7592Z"/>
</mask>
<path d="M22.0911 7.5506V8.5506L22.0936 8.55059L22.0911 7.5506ZM8.6864 20.9538L7.6864 20.9534V20.9538H8.6864ZM10.4751 27.6546L11.4396 27.9186L11.5497 27.5165L11.3415 27.1552L10.4751 27.6546ZM8.57442 34.5988L7.60989 34.3348L7.15252 36.0058L8.82827 35.566L8.57442 34.5988ZM15.6799 32.734L16.158 31.8557L15.8096 31.666L15.426 31.7667L15.6799 32.734ZM22.0851 34.3659L22.0846 35.3659H22.0851V34.3659ZM35.4942 20.9627L34.4942 20.9598V20.9623L35.4942 20.9627ZM22.0866 32.1039V31.1039H22.0865L22.0866 32.1039ZM16.4159 30.5496L15.9042 31.4088L15.906 31.4098L16.4159 30.5496ZM16.0098 30.3078L16.5215 29.4486L16.1614 29.2341L15.756 29.3405L16.0098 30.3078ZM11.7934 31.4141L10.8289 31.1503L10.3719 32.821L12.0472 32.3814L11.7934 31.4141ZM12.9177 27.3037L13.8823 27.5676L13.9981 27.144L13.7647 26.7721L12.9177 27.3037ZM12.6534 26.8827L13.5004 26.3511L13.5002 26.3508L12.6534 26.8827ZM10.9499 20.9538L11.9499 20.955L11.9499 20.9542L10.9499 20.9538ZM22.0955 9.81407V10.8141L22.0978 10.8141L22.0955 9.81407ZM29.9714 13.0809L29.262 13.7857L29.2656 13.7893L29.9714 13.0809ZM33.2307 20.9627L32.2307 20.9597V20.9622L33.2307 20.9627ZM27.7533 24.6528C28.2469 24.9007 28.8479 24.7015 29.0958 24.208C29.3436 23.7145 29.1445 23.1134 28.6509 22.8656L27.7533 24.6528ZM25.9133 22.6693L25.5697 23.6084L25.5712 23.6089L25.9133 22.6693ZM20.6801 22.5707L20.0144 23.317L20.0147 23.3172L20.6801 22.5707ZM18.9646 19.5667L18.261 18.8561L18.2606 18.8565L18.9646 19.5667ZM19.7723 17.8348L18.8763 18.2788L18.8811 18.2883L19.7723 17.8348ZM18.7391 15.3473L17.8159 15.7315L17.816 15.7318L18.7391 15.3473ZM17.9866 14.7755L18.0301 13.7764L18.0275 13.7763L17.9866 14.7755ZM17.3461 14.7635L17.3425 13.7636L17.3316 13.7636L17.3206 13.7639L17.3461 14.7635ZM16.4518 15.1816L17.1893 15.8569L17.196 15.8497L17.2024 15.8423L16.4518 15.1816ZM22.3688 26.4975L21.9722 27.4155L21.973 27.4158L22.3688 26.4975ZM24.2784 27.2037L23.9736 28.1561L23.975 28.1565L24.2784 27.2037ZM26.3881 27.3366L26.5338 28.3259L26.5349 28.3257L26.3881 27.3366ZM28.6509 22.8656C28.1574 22.6177 27.5564 22.8169 27.3085 23.3104C27.0606 23.8039 27.2598 24.405 27.7533 24.6528L28.6509 22.8656ZM32.2814 10.777C30.9464 9.43331 29.3581 8.36784 27.6085 7.64236L26.8424 9.48983C28.3477 10.114 29.7141 11.0306 30.8625 12.1866L32.2814 10.777ZM27.6085 7.64236C25.8588 6.91687 23.9826 6.54578 22.0885 6.5506L22.0936 8.55059C23.7231 8.54645 25.3372 8.8657 26.8424 9.48983L27.6085 7.64236ZM22.0911 6.5506C14.151 6.5506 7.68961 13.0108 7.6864 20.9534L9.6864 20.9542C9.68916 14.1154 15.2558 8.5506 22.0911 8.5506V6.5506ZM7.6864 20.9538C7.6864 23.4904 8.3488 25.968 9.60868 28.1539L11.3415 27.1552C10.2573 25.2741 9.6864 23.1411 9.6864 20.9538H7.6864ZM9.51055 27.3906L7.60989 34.3348L9.53894 34.8628L11.4396 27.9186L9.51055 27.3906ZM8.82827 35.566L15.9337 33.7012L15.426 31.7667L8.32056 33.6315L8.82827 35.566ZM15.2018 33.6123C17.3138 34.762 19.68 35.3648 22.0846 35.3659L22.0855 33.3659C20.0146 33.365 17.9769 32.8458 16.158 31.8557L15.2018 33.6123ZM22.0851 35.3659H22.0911V33.3659H22.0851V35.3659ZM22.0911 35.3659C30.0296 35.3659 36.491 28.9056 36.4942 20.9631L34.4942 20.9623C34.4915 27.8011 28.9248 33.3659 22.0911 33.3659V35.3659ZM36.4942 20.9656C36.4997 19.0724 36.1298 17.1968 35.4061 15.4474L33.558 16.212C34.1807 17.7172 34.4989 19.3309 34.4942 20.9598L36.4942 20.9656ZM35.4061 15.4474C34.6823 13.698 33.619 12.1093 32.2776 10.7733L30.8663 12.1903C32.0204 13.3399 32.9353 14.7067 33.558 16.212L35.4061 15.4474ZM22.0911 31.1039H22.0866V33.1039H22.0911V31.1039ZM22.0865 31.1039C20.2705 31.1041 18.488 30.6155 16.9259 29.6894L15.906 31.4098C17.7768 32.519 19.9117 33.1041 22.0867 33.1039L22.0865 31.1039ZM16.9276 29.6905L16.5215 29.4486L15.4981 31.1669L15.9042 31.4088L16.9276 29.6905ZM15.756 29.3405L11.5396 30.4468L12.0472 32.3814L16.2636 31.275L15.756 29.3405ZM12.758 31.6779L13.8823 27.5676L11.9531 27.0399L10.8289 31.1503L12.758 31.6779ZM13.7647 26.7721L13.5004 26.3511L11.8065 27.4143L12.0707 27.8353L13.7647 26.7721ZM13.5002 26.3508C12.4849 24.7344 11.9475 22.8638 11.9499 20.955L9.94987 20.9525C9.94699 23.2385 10.5907 25.4788 11.8066 27.4146L13.5002 26.3508ZM11.9499 20.9542C11.9526 15.3638 16.5023 10.8141 22.0955 10.8141V8.81407C15.3979 8.81407 9.95312 14.2589 9.94987 20.9533L11.9499 20.9542ZM22.0978 10.8141C23.4291 10.8111 24.7478 11.0722 25.9775 11.5823L26.7438 9.73492C25.2698 9.12351 23.6891 8.81052 22.0933 8.81407L22.0978 10.8141ZM25.9775 11.5823C27.2073 12.0924 28.3237 12.8413 29.262 13.7857L30.6808 12.376C29.556 11.244 28.2178 10.3463 26.7438 9.73492L25.9775 11.5823ZM29.2656 13.7893C30.2091 14.7293 30.9569 15.847 31.4659 17.0777L33.3141 16.3134C32.7041 14.8384 31.8079 13.499 30.6772 12.3725L29.2656 13.7893ZM31.4659 17.0777C31.9748 18.3084 32.2348 19.6279 32.2307 20.9597L34.2307 20.9657C34.2356 19.3696 33.924 17.7884 33.3141 16.3134L31.4659 17.0777ZM32.2307 20.9622C32.228 26.5532 27.6778 31.1039 22.0911 31.1039V33.1039C28.7832 33.1039 34.2275 27.6571 34.2307 20.9632L32.2307 20.9622ZM28.6509 22.8656C28.4772 22.7783 27.977 22.5315 27.4818 22.2924C27.0179 22.0685 26.4696 21.8076 26.2554 21.7296L25.5712 23.6089C25.5698 23.6084 25.5783 23.6116 25.6007 23.6209C25.6215 23.6296 25.6485 23.6413 25.682 23.656C25.749 23.6856 25.8335 23.7242 25.9319 23.7699C26.1283 23.8612 26.3684 23.9758 26.6123 24.0935C27.1006 24.3292 27.5911 24.5714 27.7533 24.6528L28.6509 22.8656ZM26.2569 21.7302C26.133 21.6848 25.7839 21.547 25.3921 21.592C24.8913 21.6495 24.5488 21.9532 24.3299 22.2801L25.9917 23.3929C26.0001 23.3803 25.975 23.4224 25.9043 23.472C25.824 23.5284 25.7239 23.5671 25.6203 23.5789C25.5741 23.5843 25.5367 23.5831 25.5115 23.5809C25.487 23.5787 25.4725 23.5754 25.4712 23.5751C25.47 23.5748 25.4767 23.5763 25.4947 23.5821C25.5129 23.588 25.5363 23.5962 25.5697 23.6084L26.2569 21.7302ZM24.3299 22.2801C24.1487 22.5507 23.5534 23.2536 23.346 23.4911L24.8524 24.8067C25.0362 24.5962 25.7249 23.7912 25.9917 23.3929L24.3299 22.2801ZM23.346 23.4911C23.3429 23.4947 23.3688 23.4636 23.4266 23.4281C23.4908 23.3886 23.5746 23.3559 23.6694 23.3445C23.8425 23.3238 23.9229 23.3891 23.8208 23.3381L22.9264 25.1269C23.1587 25.2431 23.5042 25.3787 23.9076 25.3303C24.3527 25.2769 24.6583 25.0289 24.8524 24.8067L23.346 23.4911ZM23.8208 23.3381C23.3889 23.1222 22.4955 22.8495 21.3456 21.8243L20.0147 23.3172C21.4238 24.5734 22.6893 25.0084 22.9264 25.1269L23.8208 23.3381ZM21.3458 21.8245C20.4684 21.0418 19.8597 20.0543 19.681 19.7474L17.9526 20.7537C18.1651 21.1186 18.9001 22.323 20.0144 23.317L21.3458 21.8245ZM19.681 19.7474C19.6836 19.7519 19.7137 19.805 19.7256 19.8993C19.7386 20.0014 19.7245 20.1051 19.691 20.1949C19.661 20.2752 19.6244 20.3207 19.6196 20.3266C19.6178 20.3289 19.6233 20.3218 19.6685 20.277L18.2606 18.8565C18.2032 18.9134 17.9468 19.1483 17.8171 19.4958C17.6517 19.9393 17.7361 20.3818 17.9526 20.7537L19.681 19.7474ZM19.6682 20.2773C19.8553 20.0921 20.1262 19.7469 20.2263 19.6298L18.7062 18.3301C18.4718 18.6042 18.3755 18.7427 18.261 18.8561L19.6682 20.2773ZM20.2263 19.6298C20.4921 19.319 20.6064 19.0462 20.6951 18.8687L18.9063 17.9743C18.8791 18.0286 18.8443 18.1003 18.8285 18.1322C18.8075 18.1747 18.7935 18.2017 18.7813 18.2235C18.7625 18.2572 18.744 18.2859 18.7062 18.3301L20.2263 19.6298ZM20.6951 18.8687C21.0106 18.2378 20.8159 17.6805 20.6636 17.3812L18.8811 18.2883C18.8947 18.315 18.8736 18.2831 18.8661 18.2131C18.8621 18.1755 18.8625 18.1318 18.8706 18.0854C18.8788 18.0389 18.8928 18.0012 18.9063 17.9743L20.6951 18.8687ZM20.6683 17.3907C20.6721 17.3984 20.6634 17.3801 20.6341 17.312C20.6091 17.2538 20.5764 17.1764 20.5374 17.0832C20.4596 16.8972 20.3601 16.6566 20.2537 16.3983C20.0423 15.8851 19.8028 15.3004 19.6623 14.9629L17.816 15.7318C18.0743 16.352 18.7735 18.0712 18.8763 18.2788L20.6683 17.3907ZM19.6624 14.9632C19.4832 14.5326 19.2152 14.129 18.7654 13.9168C18.3946 13.7418 17.8969 13.7706 18.0301 13.7764L17.9432 15.7745C17.9753 15.7759 18.0037 15.7762 18.0249 15.7763C18.0447 15.7763 18.0656 15.776 18.0758 15.776C18.1033 15.7757 18.1034 15.7761 18.0976 15.7757C18.0889 15.7753 18.0643 15.7734 18.0303 15.766C17.9952 15.7583 17.9545 15.7456 17.9122 15.7256C17.8698 15.7056 17.8343 15.6824 17.8063 15.6597C17.779 15.6375 17.7634 15.6195 17.7576 15.6124C17.7486 15.6012 17.7727 15.6279 17.8159 15.7315L19.6624 14.9632ZM18.0275 13.7763C17.7993 13.767 17.5709 13.7627 17.3425 13.7636L17.3497 15.7635C17.5485 15.7628 17.7472 15.7665 17.9458 15.7747L18.0275 13.7763ZM17.3206 13.7639C17.0131 13.7717 16.7105 13.843 16.4318 13.9733L17.2788 15.7851C17.3079 15.7715 17.3395 15.764 17.3716 15.7632L17.3206 13.7639ZM16.4318 13.9733C16.1531 14.1035 15.9044 14.29 15.7011 14.5209L17.2024 15.8423C17.2237 15.8182 17.2497 15.7987 17.2788 15.7851L16.4318 13.9733ZM15.7142 14.5063C15.402 14.8474 14.2797 15.9098 14.2797 17.9751H16.2797C16.2797 16.7438 16.8865 16.1877 17.1893 15.8569L15.7142 14.5063ZM14.2797 17.9751C14.2797 19.0243 14.6557 19.9985 15.0092 20.6946C15.3698 21.4049 15.753 21.9141 15.8461 22.0388L17.4487 20.8422C17.3745 20.7429 17.0739 20.3436 16.7925 19.7893C16.5039 19.2208 16.2797 18.5742 16.2797 17.9751H14.2797ZM15.8461 22.0388C15.844 22.036 15.85 22.0443 15.8818 22.09C15.9078 22.1273 15.9435 22.1785 15.987 22.2401C16.0745 22.3637 16.1938 22.5292 16.3429 22.7257C16.6408 23.118 17.0581 23.6348 17.5817 24.1929C18.6196 25.2994 20.1176 26.6143 21.9722 27.4155L22.7653 25.5795C19.7018 24.256 17.6677 21.1356 17.4487 20.8422L15.8461 22.0388ZM21.973 27.4158C22.8166 27.7794 23.4758 27.9968 23.9736 28.1561L24.5832 26.2513C24.1105 26.1 23.5215 25.9054 22.7645 25.5791L21.973 27.4158ZM23.975 28.1565C24.9772 28.4757 25.8761 28.4228 26.5338 28.3259L26.2424 26.3472C25.7444 26.4206 25.1831 26.4423 24.5818 26.2508L23.975 28.1565ZM26.5349 28.3257C27.0446 28.2501 27.6748 27.9732 28.1944 27.6403C28.6901 27.3227 29.335 26.7967 29.5904 26.0811L27.7067 25.4089C27.6829 25.4756 27.5193 25.6976 27.1155 25.9563C26.7355 26.1997 26.3751 26.3275 26.2412 26.3474L26.5349 28.3257ZM29.5904 26.0811C29.7592 25.608 29.847 25.1607 29.8787 24.7938C29.8945 24.6113 29.8977 24.4336 29.8851 24.2722C29.8767 24.1652 29.8525 23.8907 29.7032 23.6401L27.985 24.6637C27.9175 24.5503 27.898 24.459 27.8954 24.4471C27.8897 24.4218 27.89 24.4133 27.8911 24.4278C27.8933 24.456 27.8948 24.5211 27.8861 24.6216C27.8689 24.8205 27.8171 25.0996 27.7067 25.4089L29.5904 26.0811ZM29.7032 23.6401C29.5146 23.3235 29.2265 23.1599 29.0991 23.0897C28.9735 23.0205 28.7593 22.92 28.6509 22.8656L27.7533 24.6528C27.8441 24.6984 27.9307 24.74 27.9938 24.7707C28.0631 24.8044 28.1046 24.8252 28.1342 24.8416C28.1647 24.8584 28.1567 24.8564 28.1326 24.8372C28.1063 24.8163 28.043 24.7609 27.985 24.6637L29.7032 23.6401Z" fill="url(#paint0_linear_52_1532)" mask="url(#path-3-inside-1_52_1532)"/>
<defs>
<linearGradient id="paint0_linear_52_1532" x1="8.57441" y1="-127.685" x2="36.4962" y2="-127.685" gradientUnits="userSpaceOnUse">
<stop stop-color="white"/>
<stop offset="1" stop-color="white" stop-opacity="0.45"/>
</linearGradient>
</defs>
</svg>
