<svg width="36" height="36" fill="none" xmlns="http://www.w3.org/2000/svg"><path d="M9.255 8h.354l.118-.334a4.002 4.002 0 017.546 0l.118.334H28.5a1 1 0 110 2H17.391l-.117.334a4.002 4.002 0 01-7.547 0L9.609 10H7.5a1 1 0 110-2h1.755zm9 9h.354l.117-.334a4.001 4.001 0 017.547 0l.118.334H28.5a1 1 0 010 2h-2.109l-.117.334a4.002 4.002 0 01-7.547 0L18.609 19H7.5a1 1 0 110-2h10.755zm-6.17 11.414l.354-.353-.353.353a2 2 0 102.828-2.828 2 2 0 00-2.828 2.828zM9.256 26h.354l.118-.334a4.001 4.001 0 017.546 0l.118.334H28.5a1 1 0 010 2H17.391l-.117.334a4.002 4.002 0 01-7.547 0L9.609 28H7.5a1 1 0 110-2h1.755zM13.5 7a2 2 0 100 4 2 2 0 000-4zm9 9a2 2 0 100 4 2 2 0 000-4z" fill="#D38E1F" stroke="#fff"/></svg>