<svg width="47" height="30" fill="none" xmlns="http://www.w3.org/2000/svg"><g clip-path="url(#clip0_497_8167)" fill="#E49216"><path d="M6.908 26.024h32.524v-.972H33.9V5.81h3.046v-.972H9.394v.972h3.046v19.242H6.907v.972zm19.724-.972h-7.116v-1.116h7.127l-.01 1.116zm1.236-4.886h.362a1.136 1.136 0 011.134 1.127v1.667h-12.37v-1.667a1.13 1.13 0 011.134-1.127h9.74zm-8.637-.976l1.2-2.79h5.479l1.2 2.79h-7.88zm-5.818-9.433h16.175v-.973H13.413V5.812h19.515v19.241h-5.306v-1.116h2.212a.489.489 0 00.488-.49v-2.16a2.102 2.102 0 00-.615-1.475 2.117 2.117 0 00-1.478-.62h-.036L26.68 15.72a.484.484 0 00-.448-.288H20.11a.484.484 0 00-.448.295l-1.496 3.47h-.036a2.12 2.12 0 00-1.492.618 2.103 2.103 0 00-.619 1.485v2.161a.484.484 0 00.488.49h2.031v1.116h-5.124V9.757z"/><path d="M18.09 21.268h1.683v.976H18.09v-.976zm8.61 0h1.685v.976H26.7v-.976z"/></g><defs><clipPath id="clip0_497_8167"><path fill="#fff" transform="translate(.583)" d="M0 0h45.429v30H0z"/></clipPath></defs></svg>