<svg width="34" height="34" fill="none" xmlns="http://www.w3.org/2000/svg"><path d="M31.837 16.33L17.671 2.162a.945.945 0 00-1.332 0L2.172 16.329a.945.945 0 001.332 1.332L17 4.165l13.496 13.506a.944.944 0 001.332-1.332l.01-.01z" fill="#E1B164"/><path d="M26.444 30.222h-4.722v-9.444h-9.444v9.444H7.556V17l-1.89 1.889v11.333a1.889 1.889 0 001.89 1.89h6.61v-9.445h5.667v9.444h6.611a1.89 1.89 0 001.89-1.889v-11.56l-1.89-1.889v13.45z" fill="#E1B164"/><g clip-path="url(#clip0_25_39)"><path d="M19.78 15.548a1.994 1.994 0 00-1.263-.958 7.526 7.526 0 00-.756-.185v-2.617a2.9 2.9 0 011.402.542.289.289 0 10.384-.433 3.39 3.39 0 00-1.786-.692v-.895a.289.289 0 00-.577 0v.866c-1.27.029-1.971.66-2.185 1.206a1.604 1.604 0 00.644 1.968c.469.286.995.468 1.54.531v2.644a3.55 3.55 0 01-2.06-.791.289.289 0 10-.395.415 4.06 4.06 0 002.456.953v.866a.289.289 0 00.577 0v-.866c.814-.055 1.752-.315 2.106-1.374a1.538 1.538 0 00-.086-1.18zm-3.811-1.682a1.03 1.03 0 01-.43-1.267c.031-.087.355-.811 1.645-.846v2.54a3.1 3.1 0 01-1.215-.427zm3.35 2.666c-.208.617-.67.915-1.558.981v-2.52c.184.041.375.087.577.148a1.443 1.443 0 01.92.67.964.964 0 01.061.721z" fill="#E1B164"/></g><defs><clipPath id="clip0_25_39"><path fill="#fff" transform="translate(12.278 9.444)" d="M0 0h10.389v10.389H0z"/></clipPath></defs></svg>