<svg width="48" height="47" fill="none" xmlns="http://www.w3.org/2000/svg"><circle cx="23.8" cy="23.45" r="22.95" stroke="#E49216" stroke-opacity=".88"/><g clip-path="url(#clip0_217_1434)" stroke-linecap="round"><path d="M29.378 10.696h.5a6.684 6.684 0 016.676 6.675V29.53a6.684 6.684 0 01-6.675 6.675H17.72a6.684 6.684 0 01-6.675-6.675V17.37a6.684 6.684 0 016.675-6.675h11.657zm.5 24.954A6.128 6.128 0 0036 29.53V17.37a6.128 6.128 0 00-6.121-6.121H17.72a6.128 6.128 0 00-6.12 6.121v12.16a6.128 6.128 0 006.121 6.121h12.157z" stroke="url(#paint0_linear_217_1434)"/><path d="M17.052 23.45a6.756 6.756 0 016.748-6.748 6.756 6.756 0 016.748 6.748 6.756 6.756 0 01-6.748 6.748 6.756 6.756 0 01-6.748-6.748zm.554 0a6.2 6.2 0 006.194 6.194 6.2 6.2 0 006.194-6.194 6.2 6.2 0 00-6.194-6.194 6.2 6.2 0 00-6.194 6.194z" stroke="url(#paint1_linear_217_1434)"/><path d="M29.58 15.77c0-.906.737-1.643 1.641-1.643.905 0 1.642.737 1.642 1.642 0 .905-.737 1.642-1.642 1.642a1.644 1.644 0 01-1.641-1.642zm.554 0a1.088 1.088 0 102.177-.002 1.088 1.088 0 00-2.177.001z" stroke="url(#paint2_linear_217_1434)"/></g><defs><linearGradient id="paint0_linear_217_1434" x1="10.546" y1="-122.342" x2="38.041" y2="-122.342" gradientUnits="userSpaceOnUse"><stop stop-color="#D38E1F"/><stop offset="1" stop-color="#F8F0E3" stop-opacity=".88"/></linearGradient><linearGradient id="paint1_linear_217_1434" x1="16.552" y1="-56.278" x2="31.588" y2="-56.278" gradientUnits="userSpaceOnUse"><stop stop-color="#D38E1F"/><stop offset="1" stop-color="#F8F0E3" stop-opacity=".88"/></linearGradient><linearGradient id="paint2_linear_217_1434" x1="29.08" y1="-7.79" x2="33.523" y2="-7.79" gradientUnits="userSpaceOnUse"><stop stop-color="#D38E1F"/><stop offset="1" stop-color="#F8F0E3" stop-opacity=".88"/></linearGradient><clipPath id="clip0_217_1434"><path fill="#fff" transform="translate(10.546 10.196)" d="M0 0h26.509v26.509H0z"/></clipPath></defs></svg>