<svg width="36" height="30" fill="none" xmlns="http://www.w3.org/2000/svg"><g clip-path="url(#clip0_498_8353)" fill="#E49216"><path d="M9.56 15.363V25.94a.37.37 0 00.37.368h16.288a.368.368 0 00.368-.368V15.652l3.604 3.139.485-.57-12.358-10.76a.368.368 0 00-.48 0L4.994 18.232l.473.57 4.092-3.439zm.738-.619l7.773-6.517 7.776 6.78v10.557h-9.702v-4.733a1.932 1.932 0 113.86 0v2.956h.74V20.83a2.671 2.671 0 00-5.342 0v4.736h-5.102l-.003-10.823zm16.24-8.68v-.032a.365.365 0 00-.286-.353c-.017 0-1.84-.548-2.283-3.14a.37.37 0 00-.365-.305.365.365 0 00-.348.3c-.44 2.568-2.211 3.122-2.283 3.139a.365.365 0 00-.268.354v.031a.371.371 0 00.268.362c.02 0 1.844.545 2.283 3.14a.368.368 0 00.728 0c.436-2.569 2.205-3.12 2.282-3.14.16-.045.27-.19.272-.356zm-2.92 2.083a4.372 4.372 0 00-1.712-2.098 4.379 4.379 0 001.712-2.1 4.397 4.397 0 001.713 2.1 4.388 4.388 0 00-1.713 2.098zm1.972 2.533c.054.018 1.322.415 1.636 2.267a.37.37 0 00.73 0c.314-1.85 1.575-2.25 1.632-2.266a.397.397 0 00.268-.377.374.374 0 00-.265-.357c-.054 0-1.321-.413-1.635-2.265a.371.371 0 00-.73 0c-.314 1.852-1.581 2.251-1.633 2.266a.397.397 0 00-.285.376.374.374 0 00.282.357zm1.998-1.697a3.34 3.34 0 001.115 1.333 3.305 3.305 0 00-1.115 1.33 3.326 3.326 0 00-1.116-1.33 3.36 3.36 0 001.119-1.333h-.003z"/></g><defs><clipPath id="clip0_498_8353"><path fill="#fff" d="M0 0h35.656v30H0z"/></clipPath></defs></svg>