<svg width="118" height="100" fill="none" xmlns="http://www.w3.org/2000/svg"><path d="M16.776 45.901a1.306 1.306 0 00.141 1.88l16.749 14.286 2.539 2.633.104.093h-.001a13.162 13.162 0 013.658 5.032l1.26 3.019a14.721 14.721 0 002.934 4.504l2.314 2.417 6.714 6.582a3.763 3.763 0 006.122-1.1l2.021 1.975a3.82 3.82 0 006.302-1.646 3.8 3.8 0 001.043.16 3.763 3.763 0 002.746-1.1 4.204 4.204 0 00.517-5.04c.367-.187.703-.428.997-.716a3.82 3.82 0 001.082-2.707l5.322-5.915a7.962 7.962 0 001.88-4.185l.274-2.06a5.384 5.384 0 011.392-2.98l2.454-2.004 15.291-12.601a1.31 1.31 0 00-1.665-2.022l-14.36 11.811-8.078-8.698 12.855-13.73c.235-.256.36-.593.348-.94a1.309 1.309 0 00-.46-.94l-7.523-6.33V7.101c0-.728-.59-1.317-1.317-1.317h-5.774c-.727 0-1.317.59-1.317 1.317v6.385a1.317 1.317 0 002.634 0V8.407h3.197v14.925L59.648 6.8a1.317 1.317 0 00-1.693 0L28.287 31.513a1.315 1.315 0 00-.14 1.88l14.82 16.75-8.464 9.178L18.62 45.76a1.288 1.288 0 00-1.843.141zm65.827 11.99l-1.438 1.175-.113.113a7.945 7.945 0 00-2.154 4.505l-.273 2.06a5.285 5.285 0 01-1.231 2.82l-4.514 4.937-.057-.065-7.523-7.081a7.87 7.87 0 003.47-2.21l1.241-1.373a1.311 1.311 0 00-1.937-1.768l-1.25 1.373a5.26 5.26 0 01-7.42.357 1.311 1.311 0 00-1.88.084l-4.985 5.483c-.185.207-.447.33-.724.338a1.112 1.112 0 01-.752-.272 1.057 1.057 0 01-.339-.724 1.06 1.06 0 01.273-.752l8.783-9.752a.704.704 0 00.076-.085l.94-1.006a4.345 4.345 0 012.821-1.41l3.508-.302a6.844 6.844 0 004.363-2.059l3.188-2.915 7.927 8.529zM31.004 32.66l27.77-23.144 27.732 23.51-12.686 13.55-4.175 3.818v.001a4.33 4.33 0 01-2.765 1.326l-3.507.3h-.001a6.883 6.883 0 00-4.598 2.276l-.414.452-3.649-.339a13.164 13.164 0 01-7.335-3.103l-1.683-1.994L31.004 32.66zm13.664 19.484l.79.941.14.15a15.768 15.768 0 008.888 3.761l1.702.16-7.156 7.947a3.659 3.659 0 00.254 5.181c.718.657 1.67.996 2.642.94a3.648 3.648 0 002.539-1.194l4.166-4.598c.92.58 1.951.965 3.028 1.128l9.338 8.774a1.203 1.203 0 010 1.712c-.361.369-.92.463-1.383.234l-9.215-8.369a1.319 1.319 0 00-1.91.043 1.319 1.319 0 00.142 1.904l8.67 7.87c.045.082.099.158.16.227.196.186.41.354.64.498l1.466 1.336a1.655 1.655 0 01-.084 1.974 1.205 1.205 0 01-1.721 0l-1.072-1.015a.476.476 0 00-.066-.076L56.188 71.216a1.33 1.33 0 00-1.881 1.88l1.88 1.88h.001c.032.296.165.572.376.781l8.238 7.825v-.001a1.204 1.204 0 01-.866 2.031 1.262 1.262 0 01-.864-.347l-4.58-4.505-6.14-6.244a1.331 1.331 0 00-1.881 1.881l.94.94c.062.204.171.391.32.546l4.936 4.795c.234.22.367.526.367.847.01.322-.112.634-.338.865a1.223 1.223 0 01-1.721 0l-6.677-6.498-2.276-2.388a12.075 12.075 0 01-2.407-3.696l-1.26-3.028a15.98 15.98 0 00-4.364-5.981l-1.617-1.674 8.294-8.98z" fill="#E49216" fill-opacity=".88"/><path d="M51.692 42.13h14.162a1.308 1.308 0 001.308-1.307V29.64a8.388 8.388 0 00-16.777 0v11.182c0 .721.585 1.306 1.307 1.306zm8.398-18.093a5.756 5.756 0 014.448 5.642v1.637H60.09v-7.279zm0 9.903h4.448v5.557H60.09V33.94zm-7.081-4.298a5.756 5.756 0 014.448-5.643v7.317h-4.448v-1.674zm0 4.298h4.448v5.557h-4.448V33.94z" fill="#E49216" fill-opacity=".88"/></svg>