<svg width="169" height="169" fill="none" xmlns="http://www.w3.org/2000/svg"><circle cx="84.5" cy="84.5" r="84.5" fill="#3C3C3B" fill-opacity=".09"/><circle cx="84.5" cy="84.5" r="84" stroke="#E1B164" stroke-opacity=".45"/><path d="M91.708 90.18a.378.378 0 11.744.13c-.083.48-.157.975-.23 1.469-.366 2.457-.741 4.966-2.364 6.798a.379.379 0 11-.566-.504c1.473-1.662 1.831-4.057 2.18-6.402.074-.497.148-.995.232-1.489h.004v-.001zm-23.22 32.373h3.302c.378-1.233 1.738-2.299 3.74-3.069 1.138-.438 2.498-.791 4.008-1.027a3.946 3.946 0 01-1-1.385c-.355-.863-.342-1.853.233-2.933.05-.094.098-.178.144-.255.738-1.21 1.251-3.656 1.767-6.119.231-1.108.465-2.217.726-3.249-.83-.224-1.637-.55-2.393-.98-2.364-1.34-4.253-3.671-4.956-6.992l-.005-.024-.317-1.84c-.542-1.867-2.23-2.852-4.005-3.884-2.865-1.67-5.93-3.453-5.729-8.881-.729-.102-1.187-.473-1.407-.926a1.5 1.5 0 01.077-1.44c.301-.495.886-.86 1.688-.805h6.625l-.441-2.548h-.223v-.003h-.013c-1.454-.03-2.351-.517-2.757-1.127-.403-.605-.353-1.333.083-1.906.465-.61 1.4-1.063 2.684-.994 9.186-.095 18.423 0 27.617 0 .952-.053 2.076.192 2.685.994.436.573.486 1.3.083 1.906-.4.603-1.28 1.085-2.701 1.125a.46.46 0 01-.067.005h-.132l-.445 2.582h6.646c.802-.058 1.387.307 1.689.805.264.438.303.977.077 1.439-.22.452-.681.824-1.408.926.201 5.428-2.863 7.212-5.728 8.882-1.866 1.086-3.638 2.118-4.079 4.184l-.26 1.506a2.13 2.13 0 00-.009.044c-.708 3.31-2.594 5.635-4.953 6.971-.723.41-1.49.726-2.28.95.262 1.034.498 2.159.733 3.279.516 2.464 1.03 4.909 1.767 6.12.067.111.123.211.173.302.553 1.07.555 2.051.195 2.908-.222.529-.581 1-1.03 1.402 1.413.235 2.69.575 3.769.988 2.002.77 3.361 1.837 3.74 3.07h3.545c.335 0 .604.272.604.607v5.947a.605.605 0 01-.604.607H68.493a.606.606 0 01-.605-.607v-5.947c0-.335.272-.607.605-.607l-.005.003v-.004zm4.61 0H95.09c-.414-.715-1.432-1.384-2.864-1.936-2.071-.797-4.946-1.29-8.133-1.29-3.187 0-6.06.495-8.133 1.29-1.43.55-2.45 1.22-2.864 1.936h.002zm26.24 1.216H69.094v4.733h30.244v-4.733zm-17.683-5.561a30.987 30.987 0 015.12.021c.383-.011.39-.013.671-.164.626-.385 1.128-.873 1.364-1.441.225-.531.212-1.162-.157-1.876a3.21 3.21 0 00-.13-.23c-.845-1.386-1.379-3.935-1.917-6.504-.236-1.124-.471-2.251-.732-3.267a10.519 10.519 0 01-3.282.018 80.935 80.935 0 00-.726 3.249c-.539 2.568-1.072 5.116-1.918 6.504a5.19 5.19 0 00-.112.193c-.386.723-.402 1.362-.18 1.903.236.573.74 1.066 1.37 1.454.285.175.307.17.628.145l.002-.002-.001-.003zM71.538 81.944h-6.324c-.165 4.724 2.569 6.316 5.123 7.803 1.042.607 2.058 1.198 2.886 1.956l-1.685-9.759zm3.38 12.474c.03.111.057.224.082.338a.64.64 0 01.009.185l.236 1.365c.628 2.944 2.288 5.003 4.362 6.178a9.269 9.269 0 004.567 1.185 9.262 9.262 0 004.568-1.185c2.073-1.175 3.734-3.233 4.362-6.177l3.473-20.11H71.77l3.146 18.22h.002zm-3.724-14.459H64.34l-.05-.001c-.303-.026-.503.075-.588.219a.291.291 0 00-.02.281c.068.14.268.255.632.274h7.013l-.135-.773zm25.82.803h7.037c.363-.017.564-.132.631-.273a.294.294 0 00-.02-.282c-.086-.143-.285-.244-.588-.219-.016.002-.034.002-.05.002h-6.876l-.135.772zm-1.9 11c.832-.769 1.858-1.368 2.913-1.981 2.556-1.49 5.287-3.08 5.122-7.803h-6.346l-1.69 9.784zm-10.987-16.78H97.97c.973-.027 1.524-.278 1.73-.588.114-.17.075-.342-.04-.496-.399-.522-1.144-.516-1.727-.516v.002H70.319c-.585 0-1.329-.008-1.726.513-.12.158-.153.323-.04.496.21.315.77.568 1.768.59l13.808-.002h-.002zm35.101-38.1c.3 0 .547.218.597.504l7.35 28.56a.604.604 0 01-.583.757v.002h-6.758v41.183a.606.606 0 01-.605.607H94.528a.606.606 0 010-1.214h24.097V66.705h-11.864l.017 2.817a.603.603 0 11-1.204.004l-.069-10.677-21.81-7.9-21.803 7.898v12.285a.606.606 0 01-.605.607.606.606 0 01-.605-.607v-4.427H49.728v40.576h23.355a.606.606 0 010 1.214h-23.96a.606.606 0 01-.605-.607V66.705h-6.86v-.002a.605.605 0 01-.584-.757l7.364-28.61a.603.603 0 01.623-.452l.063-.003h70.111l-.007.001zm6.585 28.61l-7.051-27.394h-69.28L42.43 65.493h18.246v-7.068c0-.283.193-.521.454-.587l22.356-8.098a.6.6 0 01.408 0l22.41 8.117c.246.089.399.32.399.569l.047 7.069h19.06l.002-.002z" fill="#C87B00"/></svg>