<svg width="169" height="169" fill="none" xmlns="http://www.w3.org/2000/svg"><circle cx="84.5" cy="84.5" r="84.5" fill="#3C3C3B" fill-opacity=".09"/><circle cx="84.5" cy="84.5" r="84" stroke="#E1B164" stroke-opacity=".45"/><path d="M78.38 71.732v20.337a.746.746 0 01-.746.747h-6.466a4.607 4.607 0 01-.273 1.576c-.186.52-.468 1.015-.83 1.39l-.016.016c-.374.364-.868.645-1.387.833a4.524 4.524 0 01-1.644.271 68.547 68.547 0 01-.763-.03c-.86-.037-1.289-.055-1.543.05-.253.106-.54.42-1.116 1.049l-.52.567a4.54 4.54 0 01-1.358.975c-.499.237-1.046.386-1.565.394h-.022c-.519-.008-1.066-.157-1.565-.394a4.584 4.584 0 01-1.357-.975c-.244-.261-.424-.46-.585-.635-.547-.6-.819-.9-1.047-.996-.233-.097-.64-.08-1.453-.041a77 77 0 01-.86.036 4.55 4.55 0 01-1.644-.271c-.519-.186-1.013-.47-1.387-.833l-.015-.015c-.363-.376-.644-.871-.83-1.391a4.613 4.613 0 01-.274-1.576h-6.471a.746.746 0 01-.745-.747V71.734l-2.903-.013a.744.744 0 01-.71-.955L42 56.239a.743.743 0 01.719-.562v-.003h34.483c.372 0 .68.273.737.63l3.707 14.488a.744.744 0 01-.716.928l-2.553.012h.002zM76.889 91.32V71.737l-5.478.025a.744.744 0 01-.005-1.49l8.57-.038-3.344-13.065H43.3l-3.342 13.065 8.918.04a.744.744 0 01-.005 1.49l-5.477-.025V91.32h5.786c.018-.467.011-.735-.06-.903-.088-.215-.375-.476-.947-.996-.189-.174-.407-.371-.688-.633a4.554 4.554 0 01-.971-1.361c-.236-.5-.385-1.049-.394-1.569v-.023c.009-.52.158-1.068.394-1.568a4.598 4.598 0 01.971-1.362l.271-.253c.77-.718 1.154-1.077 1.292-1.41.14-.338.121-.865.082-1.92l-.013-.372a4.587 4.587 0 01.27-1.648c.186-.52.468-1.015.831-1.39l.015-.016c.375-.364.869-.646 1.387-.833a4.524 4.524 0 011.644-.271l.545.02c.966.037 1.45.055 1.75-.07.298-.123.622-.475 1.27-1.178.27-.293.182-.2.378-.411a4.54 4.54 0 011.357-.975c.5-.236 1.046-.386 1.565-.394h.023c.518.008 1.065.157 1.564.394.52.247 1.003.595 1.358.975.165.177.285.308.397.43.64.694.96 1.043 1.249 1.162.295.123.773.104 1.732.067.149-.007.31-.011.566-.021a4.55 4.55 0 011.643.271c.52.186 1.013.47 1.388.833l.015.015c.363.376.644.871.83 1.391.193.538.29 1.126.271 1.648-.008.246-.025.433-.041.63-.051.61-.11 1.321.075 1.685a.356.356 0 01.022.048c.254.469.67.816 1.072 1.154.167.14.333.278.504.44.38.355.727.84.971 1.36.237.5.386 1.049.394 1.57v.022c-.008.52-.157 1.069-.394 1.569a4.6 4.6 0 01-.971 1.361c-.261.244-.458.424-.634.584-.599.549-.899.823-.993 1.052-.072.173-.08.441-.066.897h5.785zM49.558 67.94a.746.746 0 11-1.491 0v-1.76c0-.333.216-.614.515-.711l11.311-4.32a.744.744 0 01.53 0l11.346 4.333c.297.114.48.397.48.698v1.763a.746.746 0 11-1.491 0v-1.25l-10.6-4.047-10.6 4.047v1.25zm2.562 27.281c.373.134.762.2 1.097.19.284-.01.581-.023.842-.037 1.03-.047 1.545-.07 2.082.153.541.225.89.608 1.584 1.37.176.193.375.41.573.624.229.246.55.474.905.642.32.151.65.246.942.255.292-.007.624-.104.942-.255a3.08 3.08 0 00.905-.642c.338-.363.432-.466.515-.557.726-.795 1.09-1.192 1.647-1.422.555-.23 1.096-.207 2.172-.161l.747.03c.333.011.724-.056 1.097-.19.331-.118.633-.284.843-.487.2-.21.366-.513.486-.846.133-.373.2-.764.189-1.1a78.4 78.4 0 00-.034-.842c-.048-1.034-.071-1.55.152-2.089.225-.545.606-.892 1.366-1.589.192-.176.41-.375.623-.572a3.01 3.01 0 00.64-.907c.15-.32.246-.652.254-.945-.007-.293-.104-.626-.254-.945a3.092 3.092 0 00-.64-.907c-.134-.123-.29-.253-.447-.386-.512-.43-1.041-.873-1.431-1.607a.45.45 0 01-.035-.06c-.378-.741-.299-1.681-.233-2.486.018-.225.037-.44.042-.553a3.065 3.065 0 00-.19-1.1c-.117-.333-.283-.635-.485-.846-.21-.2-.512-.367-.844-.487a3.054 3.054 0 00-1.096-.19l-.555.022c-1.174.046-1.76.069-2.354-.178-.598-.249-.994-.676-1.78-1.53l-.39-.424a3.004 3.004 0 00-.905-.642c-.32-.151-.65-.246-.942-.255-.292.007-.624.104-.942.255a3.081 3.081 0 00-.905.642c-.468.504-.34.364-.378.405-.798.864-1.197 1.299-1.795 1.546-.598.25-1.186.226-2.367.18-.18-.007-.374-.016-.54-.02a3.043 3.043 0 00-1.096.189c-.332.118-.634.284-.844.487-.2.21-.366.513-.486.846-.133.373-.2.764-.189 1.1l.013.365c.046 1.269.07 1.902-.193 2.54-.265.642-.727 1.073-1.653 1.936l-.271.253a3.01 3.01 0 00-.64.908c-.152.32-.246.651-.255.944.007.293.104.626.255.945.167.354.395.676.64.907.238.222.471.436.675.62.733.669 1.1 1.003 1.32 1.535.218.528.193 1.034.146 2.047-.013.272-.028.583-.038.891a3.07 3.07 0 00.189 1.1c.118.332.284.635.486.846.21.2.512.367.843.487l-.005-.003zm5.132-9.417a.745.745 0 01.09-1.049.742.742 0 011.046.09l1.236 1.474 3.085-3.929a.743.743 0 011.045-.125.749.749 0 01.126 1.049l-3.65 4.648v-.002a.74.74 0 01-1.152.02l-1.827-2.176.002-.001v.001zm42.354-12.306H92.71c-.867 0-1.42.282-1.746.76-.371.547-.518 1.368-.518 2.347l-.001.061a3767.16 3767.16 0 010 45.626h.003c0 .98.143 1.801.518 2.348.326.478.88.76 1.746.76h32.054c.867 0 1.42-.282 1.746-.76.371-.547.518-1.369.518-2.348l.001-.06a3771.37 3771.37 0 010-45.627h-.003c0-.98-.143-1.8-.518-2.347-.326-.478-.88-.76-1.746-.76h-6.902v1.723a.746.746 0 01-.745.748H100.35a.746.746 0 01-.745-.748V73.5zm29.514-24.88a.466.466 0 01.696.62l-4.804 5.457a.464.464 0 01-.657.04.467.467 0 01-.039-.659l4.804-5.458zm.704 8.538c.3-.279.77-.26 1.049.04a.747.747 0 01-.041 1.053l-5.329 4.945c-.3.278-.77.26-1.049-.041a.746.746 0 01.041-1.052l5.329-4.945zm-9.04-8.63a.466.466 0 11.79.494l-3.84 6.182a.466.466 0 11-.79-.494l3.84-6.181zm-33.343.705a.466.466 0 01.696-.62l4.803 5.46a.466.466 0 01-.696.62l-4.803-5.46zm-1.018 9.016a.742.742 0 111.008-1.093L92.76 62.1a.743.743 0 11-1.008 1.093l-5.329-4.945zm9.257-9.226a.466.466 0 11.79-.494l3.841 6.18a.466.466 0 11-.791.494l-3.84-6.18zm12.201-6.402a.746.746 0 111.491 0v12.066a.746.746 0 11-1.491 0V42.62zm-68.85 55.55l6.265 1.86a.747.747 0 01.31 1.252l-1.543 1.588a27.793 27.793 0 008.138 4.954 27.655 27.655 0 0010.129 1.906c2.78 0 5.463-.41 7.99-1.168a27.605 27.605 0 007.303-3.426l.822 1.244a29.123 29.123 0 01-7.697 3.614 29.197 29.197 0 01-8.417 1.233 29.127 29.127 0 01-19.3-7.287l-1.668 1.717a.742.742 0 01-1.24-.289l-2.032-6.255a.747.747 0 01.945-.939h-.003l-.002-.004zm2.7 2.358l-1.792-.53 1.211 3.732 2.543-2.619-1.965-.583h.002zm56.007 11.886a.746.746 0 01.088-1.048.74.74 0 011.046.09l1.236 1.475 3.085-3.929a.744.744 0 011.046-.126.75.75 0 01.125 1.049l-3.649 4.648-.001-.001a.742.742 0 01-1.153.021l-1.825-2.176.001-.002v-.001zm10.8 2.708a.465.465 0 110-.932l10.601.031c.258 0 .464.209.464.466a.465.465 0 01-.464.466l-10.601-.031zm0-2.242a.465.465 0 110-.932l10.601.031c.258 0 .464.209.464.466a.465.465 0 01-.464.466l-10.601-.031zm0-2.525a.743.743 0 01-.742-.744c0-.411.332-.744.742-.744l12.23.031c.41 0 .742.333.742.744a.743.743 0 01-.742.744l-12.23-.031zm-10.8-12.594a.742.742 0 111.134-.96l1.236 1.475 3.085-3.929a.744.744 0 011.046-.125.75.75 0 01.125 1.048l-3.649 4.648-.001-.001a.74.74 0 01-1.153.02l-1.825-2.176.001-.002v.002zm10.8 2.707a.465.465 0 110-.931l10.601.03c.258 0 .464.21.464.466a.464.464 0 01-.464.466l-10.601-.031zm0-2.242a.465.465 0 110-.931l10.601.031c.258 0 .464.209.464.466a.464.464 0 01-.464.465l-10.601-.03zm0-2.525a.743.743 0 01-.742-.743c0-.412.332-.745.742-.745l12.23.031c.41 0 .742.333.742.745a.743.743 0 01-.742.743l-12.23-.03zm-10.8-11.996a.747.747 0 01.088-1.049.74.74 0 011.046.09l1.236 1.476 3.085-3.93a.744.744 0 011.046-.124.75.75 0 01.125 1.048l-3.649 4.648-.001-.001a.741.741 0 01-1.153.021l-1.825-2.176.001-.002zm10.8 2.708a.465.465 0 110-.932l10.601.031c.258 0 .464.209.464.466a.464.464 0 01-.464.466l-10.601-.031zm0-2.242a.465.465 0 110-.932l10.601.031c.258 0 .464.21.464.466a.464.464 0 01-.464.466l-10.601-.031zm0-2.525a.743.743 0 01-.742-.744c0-.411.332-.744.742-.744l12.23.03c.41 0 .742.334.742.745a.743.743 0 01-.742.744l-12.23-.031zm9.322-9.65h6.902c1.42 0 2.369.526 2.976 1.415.562.823.777 1.929.777 3.188h-.004l-.136 22.845.136 22.772a.8.8 0 01.004.071c0 1.259-.217 2.365-.777 3.188-.606.889-1.556 1.414-2.976 1.414H92.708c-1.42 0-2.369-.525-2.976-1.414-.561-.823-.776-1.929-.776-3.188h.003l.136-22.845-.136-22.772c-.001-.023-.004-.046-.004-.071 0-1.26.217-2.365.777-3.189.606-.888 1.556-1.413 2.976-1.413h6.895v-2.815c0-.414.333-.748.745-.748h3.899c-.001-.055-.003-.111-.003-.168a4.523 4.523 0 014.517-4.53 4.524 4.524 0 014.514 4.698h3.838c.413 0 .746.334.746.748v2.815h.001zM105.1 69.93h-4.007v4.538h15.276V69.93h-3.947v-.001a.745.745 0 01-.722-.925 3.064 3.064 0 00.089-.738 3.032 3.032 0 00-3.027-3.035 3.032 3.032 0 00-3.027 3.035c0 .231.022.463.074.689a.746.746 0 01-.709.973v.002z" fill="#C87B00"/></svg>