<svg width="169" height="169" fill="none" xmlns="http://www.w3.org/2000/svg"><circle cx="84.5" cy="84.5" r="84.5" fill="#3C3C3B" fill-opacity=".09"/><circle cx="84.5" cy="84.5" r="84" stroke="#E1B164" stroke-opacity=".45"/><path d="M118.718 65.843v39.812a.586.586 0 01-.585.587h-5.827c-.379 0-.718-.129-.734-.567-.018-.468.292-.608.688-.608h5.289V65.842h-11.508l-1.169-.012v-7.586L83.81 50.609l-21.062 7.635v7.111c0 .318-.05.484-.366.484H50.997v39.226h5.028c.606 0 .688 1.162-.017 1.175h-5.595a.586.586 0 01-.585-.588V65.84h-6.626v-.001a.585.585 0 01-.563-.733l7.111-27.66a.583.583 0 01.602-.437c.02-.001.04-.003.061-.003h67.718c.289 0 .528.211.577.487l7.1 27.611a.585.585 0 01-.563.733v.001h-6.527v.005zM62.02 57.267l21.595-7.828a.582.582 0 01.392 0l21.645 7.846c.238.086.385.31.385.55h.001v6.833h18.453l-6.809-26.483H50.766l-6.81 26.483h17.626v-6.832c0-.274.186-.503.438-.568zm38.676 25.987l6.622 6.781c.88.9 1.501 1.458 2.076 1.548.551.087 1.168-.252 2.092-1.125.882-.91 1.23-1.522 1.154-2.076-.08-.584-.622-1.217-1.5-2.118l-13.243-13.56c-.88-.901-1.502-1.459-2.077-1.549-.55-.087-1.167.252-2.092 1.125-.882.91-1.23 1.522-1.153 2.076.08.584.621 1.217 1.5 2.118l6.621 6.78zm-22.532 41.852l8.438-5.218a.432.432 0 01.599.144.434.434 0 01.062.179l.585 2.89c5.149-1.165 9.647-4.059 12.858-8.046a23.171 23.171 0 005.131-14.586.436.436 0 11.871 0 24.039 24.039 0 01-5.329 15.137c-3.334 4.138-8.007 7.143-13.358 8.35l.642 3.184a.436.436 0 01-.501.514v.002l-9.845-1.749a.437.437 0 01-.153-.803v.002zm8.364-4.145l-6.934 4.287 8.089 1.435-1.157-5.724.002.001v.001zm.372-45.008l-8.438 5.218a.439.439 0 01-.662-.323l-.587-2.905c-5.02 1.241-9.39 4.134-12.516 8.07a23.172 23.172 0 00-5.027 14.456.436.436 0 11-.87 0 24.038 24.038 0 015.217-15 23.948 23.948 0 0113.023-8.382l-.639-3.167a.437.437 0 01.502-.515v-.001l9.845 1.748a.438.438 0 01.152.804v-.003zm-8.364 4.145l6.933-4.287-8.088-1.435 1.156 5.724-.001-.001zm31.384 21.261l.002-.029.004-.142.004-.144.004-.432v-.144h-.872v.139l-.004.415-.003.139-.005.137-.002.029.872.028v-.002.006zm-36.884-26.41l-.127.05-.123.05-.49.2-.085.035.339.807.08-.033.117-.05.234-.098.238-.093.123-.048-.312-.819h.006zm-3.216 1.488l-.116.063-.229.125-.228.13-.115.066-.09.053.442.756.087-.05.109-.063.221-.126.333-.184-.414-.77.002-.002-.002.002zm-2.997 1.896l-.079.057-.104.075-.104.078-.103.078-.206.158-.11.087.536.689.104-.08.299-.227.101-.076.102-.074.078-.057-.514-.707v-.001zM64.097 80.6l-.037.035-.373.363-.225.225.62.615.126-.127.09-.089.36-.348.038-.036-.6-.636v-.001l.001-.001zm-2.41 2.603l-.083.104-.082.101-.16.204-.16.207-.065.084.693.53.06-.08.076-.1.077-.1.078-.098.157-.197.082-.1-.676-.554h.003zm-2.057 2.898l-.05.078-.135.223-.197.339-.073.124.756.435.068-.118.062-.11.065-.109.064-.108.132-.216.05-.08-.742-.458v.001-.001zm-1.664 3.139l-.03.07-.16.362-.102.242-.059.144.808.33.056-.135.15-.353.05-.117.052-.116.03-.07-.795-.358zm-1.242 3.333l-.027.09-.039.128-.036.127-.036.128-.071.258-.033.123.842.224.032-.117.034-.124.142-.498.028-.09-.835-.25h.001-.002zm-.796 3.465l-.005.034-.022.134-.02.133-.06.402-.019.135-.005.039.866.11.005-.034.017-.132.078-.524.021-.13.005-.035-.861-.14h.001l-.001.008zm-.342 3.541l-.002.05-.004.139-.004.138-.004.422v.14h.872v-.136l.004-.407.007-.267.001-.05-.872-.026h.002v-.003zM92.47 125.99l.112-.044.375-.15.125-.051.124-.051.083-.036-.34-.807-.08.032-.36.15-.12.049-.123.048-.112.044.314.817h.002v-.001zm3.215-1.487l.062-.033.117-.065.351-.199.116-.066.127-.074-.443-.754-.12.069-.225.13-.343.189-.062.033.417.768v.002h.003zm2.996-1.896l.102-.074.106-.079.425-.322.074-.058-.535-.692-.071.054-.103.08-.206.155-.205.151-.102.075.514.707v.001l.001.002zm2.726-2.268l.027-.025.193-.184.284-.282.132-.132-.62-.615-.126.127-.183.181-.186.181-.094.088-.027.026.598.635-.001.002.003-.002zm2.412-2.604l.049-.06.166-.206.084-.105.164-.21.09-.117-.696-.53-.083.11-.079.102-.16.204-.16.2-.048.059.676.552-.001.001h-.002zm2.058-2.898l.066-.106.207-.345.135-.232.046-.081-.756-.435-.045.075-.264.446-.067.112-.066.106.744.459v.001zm1.663-3.139l.026-.057.109-.248.159-.373.058-.141-.808-.331-.055.133-.102.242-.053.121-.106.239-.026.057.796.358.001.001.001-.001zm1.242-3.332l.011-.035.077-.262.037-.132.037-.132.071-.265.008-.032-.843-.223-.008.028-.142.51-.074.256-.012.035.835.252v.002l.003-.002zm.796-3.466l.01-.063.022-.137.042-.275.019-.137.02-.138.016-.126-.864-.113-.016.121-.059.401-.041.268-.01.063.861.138v-.002zM65.02 120.736a.274.274 0 01.003-.386.27.27 0 01.384.003l5.974 6.121a.272.272 0 01-.387.382l-5.974-6.12zm-1.256-3.144a.274.274 0 01.004-.386.27.27 0 01.383.003l5.975 6.121a.272.272 0 01-.387.382l-5.975-6.12zm-.6 3.023l6.62 6.781c.88.9 1.502 1.457 2.077 1.547.551.087 1.168-.252 2.093-1.124.881-.911 1.23-1.522 1.153-2.076-.08-.585-.622-1.218-1.5-2.118l-13.243-13.561c-.88-.901-1.502-1.458-2.076-1.548-.552-.087-1.168.252-2.093 1.125-.882.91-1.23 1.522-1.153 2.076.08.584.621 1.217 1.5 2.117l6.621 6.781v-.001.001zm6.001 7.392l-13.243-13.561c-1.005-1.03-1.626-1.78-1.742-2.611-.117-.855.302-1.68 1.393-2.805a.17.17 0 01.022-.022c1.143-1.08 1.975-1.49 2.825-1.355.57.091 1.097.423 1.7.961 4.933-5.796 8.5-8.616 11.23-9.897 2.842-1.335 4.788-1.027 6.414-.631.364.088.686.182.98.27 1.145.335 1.791.526 3.06-.506 1.04-1.248.865-1.903.552-3.057a22.809 22.809 0 01-.25-.99c-.363-1.644-.632-3.602.748-6.432 1.316-2.703 4.159-6.205 9.934-10.999-.611-.689-.986-1.27-1.071-1.896-.117-.855.302-1.68 1.392-2.806l.023-.022c1.143-1.08 1.975-1.49 2.825-1.354.824.13 1.56.77 2.565 1.798l13.243 13.561c1.005 1.03 1.626 1.78 1.742 2.61.117.856-.302 1.68-1.393 2.806a.233.233 0 01-.022.022c-1.143 1.08-1.976 1.49-2.825 1.355-.583-.092-1.121-.438-1.741-.996-4.883 5.718-8.422 8.51-11.133 9.784-2.843 1.335-4.786 1.027-6.414.631a19.373 19.373 0 01-.98-.269c-1.145-.336-1.792-.527-3.06.505-1.04 1.248-.865 1.903-.552 3.057.075.279.157.585.249.991.364 1.643.632 3.601-.747 6.431-1.325 2.72-4.195 6.248-10.043 11.089.64.717 1.036 1.313 1.125 1.955.117.855-.302 1.68-1.393 2.805a.17.17 0 01-.022.022c-1.143 1.08-1.975 1.49-2.825 1.355-.824-.131-1.56-.77-2.565-1.798v-.002.001zm-8.414-18.791c.075.075.154.154.231.236l13.243 13.561.018.017c5.774-4.772 8.584-8.212 9.864-10.835 1.257-2.578 1.01-4.365.68-5.861-.07-.318-.16-.649-.241-.949-.39-1.448-.612-2.265.758-3.885l.029-.034.027-.022c1.637-1.347 2.446-1.107 3.88-.688.284.084.592.173.944.258 1.484.362 3.255.641 5.842-.573 2.62-1.228 6.064-3.962 10.871-9.598l-.194-.199L93.46 77.083a3.676 3.676 0 00-.073-.075c-5.698 4.727-8.481 8.137-9.752 10.743-1.257 2.578-1.01 4.365-.679 5.861.07.319.16.65.24.95.392 1.447.612 2.264-.758 3.885l-.029.033-.027.023c-1.637 1.346-2.446 1.107-3.88.687a18.206 18.206 0 00-.944-.258c-1.484-.361-3.255-.64-5.842.573-2.635 1.236-6.11 3.996-10.966 9.709l.002.001v.001zm36.497-31.877a.273.273 0 01.003-.386.27.27 0 01.384.003l5.974 6.12a.274.274 0 01-.003.386.27.27 0 01-.384-.003l-5.974-6.12zm-1.256-3.144a.273.273 0 01.004-.386.27.27 0 01.383.003l5.975 6.12a.274.274 0 01-.004.386.27.27 0 01-.384-.003l-5.974-6.12z" fill="#C87B00"/></svg>