<svg width="43" height="43" fill="none" xmlns="http://www.w3.org/2000/svg"><circle cx="21.5" cy="21.5" r="21.5" fill="#E49216" fill-opacity=".88"/><circle cx="21.5" cy="21.5" r="21" stroke="#E1B164" stroke-opacity=".45"/><path d="M27.401 33.428c1.128.495 2.27.22 2.874-.267a2.92 2.92 0 00.844-1.115l-3.718 1.382zm0 0l-.123-.053m.123.053l-.123-.053m0 0l-5.41-4.15-3.229 2.939 8.64 1.211zm5.595-23.958l.003-.002h-.001l-.002.002zm0 0s0 0 0 0h0zm-3.397.074a491.978 491.978 0 012.86-1.195h.008l.093-.039c.28-.118.578-.19.882-.212.316-.015.63.065.901.229.32.202.554.515.656.88.101.373.084.779-.024 1.261h0l-.003.014-4.173 21.377-.023.059h0v.002h-.001 0l-.005.012a2.338 2.338 0 01-.147.278c-.114.183-.29.415-.539.615h0c-.46.37-1.403.617-2.359.198h0l-.004-.002-.065-.028-5.361-4.112-.332-.255-.31.282-3.216 2.928-.019.015-.01.007a1.502 1.502 0 01-.311.155c-.213.078-.49.123-.79.032l-.033-.01-.035-.005-.003-.001a3.308 3.308 0 00-.032-.005.49.49 0 00-.02-.01v-.005a.758.758 0 01-.157-.067 1.096 1.096 0 01-.285-.267h0l-.008-.01c-.19-.238-.364-.574-.556-1.19h0c-.214-.672-.843-2.73-1.348-4.381-.306-1-.566-1.851-.66-2.152l-.076-.244-.242-.081-5.468-1.843-.058-.02a2.933 2.933 0 01-.564-.311h0c-.33-.234-.72-.61-.795-1.215v-.002a1.361 1.361 0 01.227-.897c.136-.198.31-.367.512-.495l.007-.005.007-.005a3.24 3.24 0 01.65-.34v.001l.07-.027v-.002l.011-.005.196-.082.741-.313 2.653-1.118 8.105-3.415h0l8.266-3.48s0 0 0 0l1.187-.499zm4.2.35l-.5-.015v-.483h-.028a.679.679 0 00-.147.02.534.534 0 00-.122.05h0l-.01.004a901.08 901.08 0 00-4.1 1.714h-.001c-2.004.847-4.532 1.912-7.114 2.999l-1.149.484-8.107 3.414-2.655 1.119-.742.312-.195.083-.05.02-.004.002-.021.008-.03.01-.027.014-.017.009-1.777.59 1.803.36.003.001 6.26 2.108.09.445.612-.379 12.506-7.748-9.912 9.24-.126.117-.027.17-.84 5.365-.22 1.404 1.051-.958 3.689-3.362 6.286 4.82.055.042.064.026c.19.075.379.134.56.13a.729.729 0 00.457-.172h0a.958.958 0 00.187-.198c.035-.05.075-.121.063-.101l.044-.075.016-.084 4.104-21.003h.07v-.501z" stroke="url(#paint0_linear_52_1533)" stroke-linecap="round"/><defs><linearGradient id="paint0_linear_52_1533" x1="6.335" y1="-123.18" x2="36.526" y2="-123.18" gradientUnits="userSpaceOnUse"><stop stop-color="#fff"/><stop offset="1" stop-color="#fff" stop-opacity=".45"/></linearGradient></defs></svg>