<svg width="37" height="30" fill="none" xmlns="http://www.w3.org/2000/svg"><g clip-path="url(#clip0_499_8665)"><path d="M18.157 2.04a.301.301 0 00-.254.3v.3c-1.86.042-4.49.506-6.873 1.68-2.505 1.235-4.73 3.275-5.337 6.397a.304.304 0 00.282.346h11.928v5.815h-5a.3.3 0 00-.237.291v1.744c0 .153.139.291.291.291h4.946v7.27H15.52a.303.303 0 00-.264.317.304.304 0 00.318.264h5.237a.302.302 0 00.295-.29.303.303 0 00-.295-.292h-2.328v-7.269h4.946a.302.302 0 00.29-.29v-1.745a.302.302 0 00-.29-.29h-4.946v-5.816h11.928a.304.304 0 00.281-.346c-.605-3.122-2.83-5.162-5.336-6.397-2.383-1.174-5.013-1.638-6.873-1.68v-.3a.304.304 0 00-.327-.3zm.037 1.172c1.77 0 4.507.443 6.909 1.626 2.303 1.135 4.28 2.935 4.936 5.643H6.35c.656-2.708 2.633-4.508 4.936-5.643 2.402-1.183 5.138-1.626 6.909-1.626zM5.957 16.868c-.184.01-.324.229-.254.4.68 1.795 1.274 3.445 1.9 5.134h-.519a.303.303 0 00-.263.318.304.304 0 00.318.264h.764l-1.037 3.098a.303.303 0 00.166.402.304.304 0 00.38-.211l1.1-3.29h2.409v3.49a.302.302 0 00.29.295.303.303 0 00.292-.295v-3.49h.582a.302.302 0 00.295-.29.302.302 0 00-.295-.291H8.22c-.257-.696-.512-1.402-.746-2.035h3.737a.302.302 0 00.295-.291.303.303 0 00-.295-.291H7.257c-.366-.99-.761-2.064-1.009-2.726a.3.3 0 00-.29-.19zm24.437 0a.298.298 0 00-.254.191c-.248.662-.643 1.736-1.01 2.726h-3.954a.172.172 0 00-.055 0 .303.303 0 00-.263.318.304.304 0 00.318.263h3.736c-.258.697-.523 1.433-.745 2.036h-3.864a.302.302 0 00-.295.29c0 .154.142.294.295.291h.582v3.49a.302.302 0 00.291.294.302.302 0 00.29-.294v-3.49c.808.003 1.606 0 2.41 0l1.1 3.29c.036.16.226.265.38.21a.303.303 0 00.165-.401l-1.036-3.099h.764a.302.302 0 00.295-.29.303.303 0 00-.295-.291h-.464a646.512 646.512 0 011.9-5.134c.075-.183-.094-.415-.29-.4zm-17.145.59h9.89v1.164h-9.89v-1.163z" fill="#E49216"/></g><defs><clipPath id="clip0_499_8665"><path fill="#fff" transform="translate(.012)" d="M0 0h36.351v30H0z"/></clipPath></defs></svg>