<svg width="193" height="121" fill="none" xmlns="http://www.w3.org/2000/svg"><rect width="193" height="121" rx="10" fill="#fff"/><rect x=".5" y=".5" width="192" height="120" rx="9.5" stroke="#D9D9D9" stroke-opacity=".65"/><path d="M79.318 36.168c2.758 0 4.634-2.072 4.634-4.83s-1.876-4.83-4.634-4.83c-2.772 0-4.634 2.072-4.634 4.83s1.862 4.83 4.634 4.83zm0-1.036c-2.1 0-3.43-1.624-3.43-3.794 0-2.184 1.33-3.794 3.43-3.794 2.086 0 3.43 1.61 3.43 3.794 0 2.17-1.344 3.794-3.43 3.794zm7.61.868v-8.302h4.957v-1.036h-6.118V36h1.162zm4.949.168c1.666 0 2.786-.63 3.29-4.732l.462-3.738h3.514V36h1.162v-9.338h-5.712l-.574 4.69c-.392 3.164-1.022 3.78-2.142 3.78v1.036zM103.412 36l2.38-3.71h1.876V36h1.162v-9.338h-3.752c-1.722 0-2.94 1.092-2.94 2.814 0 1.68 1.162 2.604 2.436 2.716L102.054 36h1.358zm1.792-4.732c-1.092 0-1.862-.742-1.862-1.792s.77-1.778 1.862-1.778h2.464v3.57h-2.464zm5.157 6.454h1.162V36h6.958v1.722h1.162v-2.758h-.854v-8.302h-5.712l-.574 4.69c-.392 3.164-1.022 3.64-2.142 3.71v2.66zm3.29-6.286l.462-3.738h3.514v7.266h-5.404c.686-.518 1.19-1.554 1.428-3.528zM24.447 53v-1.036H19.87c2.604-2.058 4.536-3.794 4.536-5.698 0-1.862-1.582-2.744-3.136-2.744-1.316 0-2.534.532-3.248 1.47l.714.742c.546-.7 1.414-1.176 2.534-1.176.966 0 1.946.518 1.946 1.708 0 1.61-1.82 3.164-5.18 5.81V53h6.412zm12.848 0l-4.228-4.9 3.892-4.438h-1.456l-4.13 4.83v-4.83h-1.162V53h1.162v-3.136l.938-1.064 3.542 4.2h1.442zm2.486 0v-9.338H38.62V53h1.162zm11.33 0v-9.338h-1.666l-2.912 7.028-2.898-7.028h-1.666V53h1.162v-7.686L46.295 53h.476l3.178-7.686V53h1.162zm9.962 0v-9.338h-1.162v4.018h-5.46v-4.018H53.29V53h1.162v-4.284h5.46V53h1.162zm10.177 0l-3.766-9.338h-1.442L62.29 53h1.33l.826-2.072h4.648L69.92 53h1.33zm-2.506-3.108h-3.962l1.988-5.026 1.974 5.026zM75 53v-8.302h2.969v-1.036h-7.085v1.036h2.955V53H75zm12.297 0v-9.338h-1.162v4.018h-5.46v-4.018h-1.162V53h1.162v-4.284h5.46V53h1.162zm6.439.168c2.758 0 4.634-2.072 4.634-4.83s-1.876-4.83-4.634-4.83c-2.772 0-4.634 2.072-4.634 4.83s1.862 4.83 4.634 4.83zm0-1.036c-2.1 0-3.43-1.624-3.43-3.794 0-2.184 1.33-3.794 3.43-3.794 2.086 0 3.43 1.61 3.43 3.794 0 2.17-1.344 3.794-3.43 3.794zm7.611.868v-9.338h-1.162V53h1.162zm1.512-10.794a.664.664 0 00-.658-.644.664.664 0 00-.658.644c0 .364.308.658.658.658.35 0 .658-.294.658-.658zm-2.898 0a.651.651 0 00-1.302 0c0 .364.294.658.658.658.35 0 .644-.294.644-.658zM114.227 53l-4.228-4.9 3.892-4.438h-1.456l-4.13 4.83v-4.83h-1.162V53h1.162v-3.136l.938-1.064 3.542 4.2h1.442zm5.58 0c1.708 0 2.702-1.022 2.702-2.52 0-1.12-.826-2.142-1.82-2.296.854-.182 1.638-.966 1.638-2.142 0-1.4-.994-2.38-2.618-2.38h-4.158V53h4.256zm-.294-5.292h-2.8v-3.01h2.8c1.05 0 1.61.672 1.61 1.512 0 .854-.56 1.498-1.61 1.498zm.056 4.256h-2.856v-3.22h2.856c1.148 0 1.736.756 1.736 1.61 0 .994-.644 1.61-1.736 1.61zM132.35 53l-3.766-9.338h-1.442L123.39 53h1.33l.826-2.072h4.648L131.02 53h1.33zm-2.506-3.108h-3.962l1.988-5.026 1.974 5.026zM134.733 53v-3.71h2.59c1.848 0 2.926-1.288 2.926-2.814s-1.05-2.814-2.926-2.814h-3.752V53h1.162zm2.45-4.746h-2.45v-3.556h2.45c1.106 0 1.862.728 1.862 1.778s-.756 1.778-1.862 1.778zM145.259 53v-8.302h2.968v-1.036h-7.084v1.036h2.954V53h1.162zm5.633 0l5.446-7.448V53h1.162v-9.338h-1.19l-5.376 7.294v-7.294h-1.162V53h1.12zm9.954 0v-3.71h2.59c1.848 0 2.926-1.288 2.926-2.814s-1.05-2.814-2.926-2.814h-3.752V53h1.162zm2.45-4.746h-2.45v-3.556h2.45c1.106 0 1.862.728 1.862 1.778s-.756 1.778-1.862 1.778zM169.021 53l5.446-7.448V53h1.162v-9.338h-1.19l-5.376 7.294v-7.294h-1.162V53h1.12z" fill="#C07B0B"/><path d="M51.535 76.144c1.272 0 2.208-.552 2.916-1.428l-.576-.36c-.504.696-1.38 1.164-2.34 1.164-1.884 0-3.336-1.452-3.336-3.516 0-2.088 1.452-3.516 3.336-3.516.96 0 1.836.468 2.34 1.164l.576-.372c-.684-.852-1.644-1.416-2.916-1.416-2.268 0-4.056 1.68-4.056 4.14s1.788 4.14 4.056 4.14zm8.59-.144v-4.08c0-1.296-.935-1.86-2.111-1.86-.96 0-1.632.324-2.232.972l.348.432c.528-.6 1.092-.852 1.812-.852.864 0 1.56.468 1.56 1.332v1.176c-.504-.564-1.164-.828-1.968-.828-1.008 0-2.028.66-2.028 1.92 0 1.248 1.032 1.932 2.028 1.932.804 0 1.452-.264 1.968-.828V76h.624zm-2.375-.348c-.96 0-1.584-.612-1.584-1.428 0-.828.624-1.44 1.584-1.44.696 0 1.344.276 1.752.804v1.272c-.408.528-1.056.792-1.752.792zm9.186.348l-2.689-3.18 2.7-2.616h-.828l-3.42 3.312v-3.312h-.623V76h.623v-1.74l1.08-1.02L66.096 76h.84zm3.67.144c1.008 0 1.584-.396 2.052-.996l-.432-.384c-.42.576-.948.816-1.584.816-1.356 0-2.184-1.092-2.184-2.484s.828-2.472 2.184-2.472c.636 0 1.164.228 1.584.804l.432-.384c-.468-.588-1.044-.984-2.052-.984-1.704 0-2.82 1.344-2.82 3.036s1.116 3.048 2.82 3.048zM78.36 76v-4.08c0-1.296-.936-1.86-2.112-1.86-.96 0-1.632.324-2.232.972l.348.432c.528-.6 1.092-.852 1.812-.852.864 0 1.56.468 1.56 1.332v1.176c-.504-.564-1.164-.828-1.968-.828-1.008 0-2.028.66-2.028 1.92 0 1.248 1.032 1.932 2.028 1.932.804 0 1.452-.264 1.968-.828V76h.624zm-2.376-.348c-.96 0-1.584-.612-1.584-1.428 0-.828.624-1.44 1.584-1.44.696 0 1.344.276 1.752.804v1.272c-.408.528-1.056.792-1.752.792zm8.13-5.448H80.31V76h.624v-5.244h3.18v-.552zM89.716 76v-4.08c0-1.296-.936-1.86-2.112-1.86-.96 0-1.632.324-2.233.972l.349.432c.528-.6 1.091-.852 1.811-.852.864 0 1.56.468 1.56 1.332v1.176c-.503-.564-1.163-.828-1.967-.828-1.008 0-2.028.66-2.028 1.92 0 1.248 1.031 1.932 2.028 1.932.803 0 1.452-.264 1.968-.828V76h.624zm-2.376-.348c-.96 0-1.585-.612-1.585-1.428 0-.828.624-1.44 1.585-1.44.695 0 1.343.276 1.751.804v1.272c-.407.528-1.055.792-1.751.792zm4.95.348v-2.724h3.287V76h.624v-5.796h-.624v2.52H92.29v-2.52h-.624V76h.624zm8.34.144c1.008 0 1.584-.396 2.052-.996l-.432-.384c-.42.576-.948.816-1.584.816-1.356 0-2.184-1.092-2.184-2.484s.828-2.472 2.184-2.472c.636 0 1.164.228 1.584.804l.432-.384c-.468-.588-1.044-.984-2.052-.984-1.704 0-2.82 1.344-2.82 3.036s1.116 3.048 2.82 3.048zm3.446-5.94V76h2.88c1.152 0 1.764-.792 1.764-1.716 0-.924-.612-1.716-1.764-1.716H104.7v-2.364h-.624zm2.832 2.916c.768 0 1.152.492 1.152 1.164 0 .672-.396 1.152-1.152 1.152H104.7V73.12h2.208zm8.133 2.88l-2.688-3.18 2.7-2.616h-.828l-3.42 3.312v-3.312h-.624V76h.624v-1.74l1.08-1.02 2.316 2.76h.84zm3.635.144c1.716 0 2.796-1.356 2.796-3.048s-1.08-3.036-2.796-3.036c-1.692 0-2.784 1.344-2.784 3.036s1.092 3.048 2.784 3.048zm0-.564c-1.344 0-2.112-1.188-2.112-2.484 0-1.284.768-2.472 2.112-2.472 1.368 0 2.124 1.188 2.124 2.472 0 1.296-.756 2.484-2.124 2.484zm8.211-5.376h-3.804V76h.624v-5.244h3.18v-.552zm3.742 5.94c1.716 0 2.796-1.356 2.796-3.048s-1.08-3.036-2.796-3.036c-1.692 0-2.784 1.344-2.784 3.036s1.092 3.048 2.784 3.048zm0-.564c-1.344 0-2.112-1.188-2.112-2.484 0-1.284.768-2.472 2.112-2.472 1.368 0 2.124 1.188 2.124 2.472 0 1.296-.756 2.484-2.124 2.484zm5.238.252c0-.492-.288-.768-.612-.768a.52.52 0 00-.516.516c0 .288.204.504.492.504.036 0 .12-.012.12-.012-.024.372-.312.84-.696 1.104l.348.3c.468-.336.864-.972.864-1.644zm6.93.312c1.704 0 2.7-.972 2.7-2.292 0-1.32-1.14-1.92-1.836-1.992.684-.12 1.716-.648 1.716-1.872 0-1.356-1.188-2.112-2.58-2.112-1.164 0-2.052.528-2.616 1.212l.432.432c.588-.66 1.236-1.02 2.148-1.02 1.032 0 1.92.552 1.92 1.548 0 1.068-.972 1.524-2.028 1.524-.324 0-.624 0-.744-.012v.648c.12-.012.42-.012.744-.012 1.2 0 2.148.468 2.148 1.62 0 1.056-.78 1.704-2.016 1.704-1.02 0-1.8-.48-2.244-1.116l-.468.408c.456.72 1.416 1.332 2.724 1.332zM40.752 91l3.3-3.768.54.6V91h.696v-3.168l.54-.6 3.3 3.768h.876l-3.732-4.188 3.408-3.816h-.888l-3.504 3.996v-3.996h-.696v3.996l-3.516-3.996H40.2l3.408 3.816L39.876 91h.876zm16.28 0l-3.733-4.188 3.408-3.816h-.876l-3.864 4.38v-4.38h-.684V91h.684v-2.796l.888-.972 3.3 3.768h.876zm10.844 0v-8.004H61.42V91h.684v-7.38h5.076V91h.696zm4.525.144c.96 0 1.692-.336 2.268-.936l-.324-.408c-.492.528-1.164.804-1.896.804-1.368 0-2.208-1.044-2.268-2.304h4.848v-.168c0-1.668-.972-3.072-2.736-3.072-1.608 0-2.796 1.356-2.796 3.036 0 1.788 1.212 3.048 2.904 3.048zm1.992-3.336h-4.212c.048-1.008.732-2.208 2.1-2.208 1.452 0 2.1 1.224 2.112 2.208zm2.189-2.604v1.824c0 1.416.636 1.956 2.064 1.956.648 0 1.38-.192 1.848-.432V91h.624v-5.796h-.624v2.832c-.384.216-1.104.396-1.728.396-1.008 0-1.56-.324-1.56-1.548v-1.68h-.624zm9.05 5.94c.96 0 1.692-.336 2.268-.936l-.324-.408c-.492.528-1.164.804-1.896.804-1.368 0-2.208-1.044-2.268-2.304h4.848v-.168c0-1.668-.972-3.072-2.736-3.072-1.608 0-2.796 1.356-2.796 3.036 0 1.788 1.212 3.048 2.904 3.048zm1.992-3.336h-4.212c.048-1.008.732-2.208 2.1-2.208 1.452 0 2.1 1.224 2.112 2.208zm4.888 3.336c1.548 0 2.592-1.2 2.592-3.048 0-1.86-1.044-3.036-2.592-3.036a2.49 2.49 0 00-2.016 1.056v-.912h-.624v8.004h.624v-3.144c.468.66 1.2 1.08 2.016 1.08zm-.108-.564c-.804 0-1.572-.504-1.908-1.056v-2.868c.336-.552 1.104-1.032 1.908-1.032 1.296 0 2.028 1.068 2.028 2.472s-.732 2.484-2.028 2.484zm6.761.564c1.008 0 1.584-.396 2.052-.996l-.432-.384c-.42.576-.948.816-1.584.816-1.356 0-2.184-1.092-2.184-2.484s.828-2.472 2.184-2.472c.636 0 1.164.228 1.584.804l.432-.384c-.468-.588-1.044-.984-2.052-.984-1.704 0-2.82 1.344-2.82 3.036s1.116 3.048 2.82 3.048zm3.446-5.94V91h2.88c1.152 0 1.764-.792 1.764-1.716 0-.924-.612-1.716-1.764-1.716h-2.256v-2.364h-.624zm2.832 2.916c.768 0 1.152.492 1.152 1.164 0 .672-.396 1.152-1.152 1.152h-2.208V88.12h2.208zm8.133 2.88l-2.688-3.18 2.7-2.616h-.828l-3.42 3.312v-3.312h-.624V91h.624v-1.74l1.08-1.02 2.316 2.76h.84zm1.511-6.708c.264 0 .48-.216.48-.48a.471.471 0 00-.48-.468.479.479 0 00-.48.468c0 .264.228.48.48.48zm.312 6.708v-5.796h-.624V91h.624zm4.496.144c1.332 0 2.244-.552 2.712-4.14l.432-3.384h3.192V91h.696v-8.004h-4.5l-.516 3.948c-.384 2.964-.996 3.576-2.016 3.576v.624zm9.589-.144l3.312-4.896V91h.624v-5.796h-.612l-3.3 4.824v-4.824h-.624V91h.6zm10.417 0v-5.796h-4.536V91h.624v-5.244h3.288V91h.624zm6.804 0l-2.688-3.18 2.7-2.616h-.828l-3.42 3.312v-3.312h-.624V91h.624v-1.74l1.08-1.02 2.316 2.76h.84zm1.799 0l3.312-4.896V91h.624v-5.796h-.612l-3.3 4.824v-4.824h-.624V91h.6z" fill="#353534"/><circle cx="96.5" cy="60.5" r="21.5" fill="#3C3C3B" fill-opacity=".26"/><path d="M91 67l11-6.5L91 54v13z" fill="#E49216" fill-opacity=".88"/></svg>