<svg width="43" height="43" fill="none" xmlns="http://www.w3.org/2000/svg"><circle cx="21.5" cy="21.5" r="21.5" fill="#4AC459"/><g clip-path="url(#clip0_398_9186)"><path d="M7.6 21.326c0 2.437.622 4.816 1.805 6.913l-1.918 7.165 7.166-1.923a13.27 13.27 0 006.459 1.683h.006c7.449 0 13.513-6.203 13.516-13.827.002-3.694-1.403-7.168-3.955-9.781-2.552-2.614-5.946-4.054-9.562-4.056-7.45 0-13.514 6.203-13.517 13.826" fill="url(#paint0_linear_398_9186)"/><path d="M7.118 21.322a14.552 14.552 0 001.868 7.16L7 35.904l7.423-1.991a13.744 13.744 0 006.69 1.743h.006c7.717 0 13.999-6.426 14.002-14.323.002-3.827-1.454-7.425-4.097-10.133-2.644-2.707-6.159-4.198-9.905-4.2-7.717 0-13.998 6.425-14.001 14.322zm4.42 6.786l-.277-.45a12.077 12.077 0 01-1.78-6.335c.003-6.564 5.224-11.904 11.643-11.904 3.109.001 6.03 1.241 8.228 3.491 2.197 2.25 3.406 5.241 3.405 8.422-.003 6.564-5.223 11.905-11.637 11.905h-.005a11.424 11.424 0 01-5.923-1.66l-.425-.258-4.405 1.182 1.176-4.393z" fill="url(#paint1_linear_398_9186)"/><path d="M17.62 15.335c-.262-.597-.538-.609-.787-.62-.204-.008-.438-.007-.67-.007-.234 0-.613.09-.934.447-.32.359-1.224 1.225-1.224 2.986 0 1.761 1.253 3.463 1.428 3.703.175.238 2.42 3.968 5.977 5.403 2.955 1.192 3.556.955 4.198.896.641-.06 2.07-.866 2.361-1.702.292-.836.292-1.552.204-1.702-.087-.15-.32-.239-.67-.418-.35-.179-2.07-1.045-2.39-1.164-.322-.12-.555-.18-.788.18-.233.357-.903 1.163-1.108 1.402-.204.24-.408.269-.758.09-.35-.18-1.476-.557-2.813-1.777-1.04-.949-1.742-2.12-1.946-2.479-.204-.358-.022-.552.153-.73.157-.16.35-.418.525-.627.175-.21.233-.358.35-.597.116-.24.058-.448-.03-.627-.087-.18-.767-1.95-1.078-2.657" fill="#fff"/></g><defs><linearGradient id="paint0_linear_398_9186" x1="21.061" y1="35.404" x2="21.061" y2="7.5" gradientUnits="userSpaceOnUse"><stop stop-color="#1FAF38"/><stop offset="1" stop-color="#60D669"/></linearGradient><linearGradient id="paint1_linear_398_9186" x1="21.061" y1="35.904" x2="21.061" y2="7" gradientUnits="userSpaceOnUse"><stop stop-color="#F9F9F9"/><stop offset="1" stop-color="#fff"/></linearGradient><clipPath id="clip0_398_9186"><path fill="#fff" transform="translate(7 7)" d="M0 0h28.121v29H0z"/></clipPath></defs></svg>